<svg xmlns="http://www.w3.org/2000/svg" width="441.144" height="371.716" viewBox="0 0 441.144 371.716">
  <g id="Grupo_78417" data-name="Grupo 78417" transform="translate(-1.366)">
    <path id="Trazado_116629" data-name="Trazado 116629" d="M-20.938-9.953l3.254,8.121,3.254-8.121h1.7V0h-1.312V-3.876l.123-4.184L-17.186,0h-1l-3.261-8.039.13,4.163V0h-1.312V-9.953ZM-6.043,0a2.657,2.657,0,0,1-.178-.779A2.822,2.822,0,0,1-8.326.137a2.611,2.611,0,0,1-1.794-.619,2,2,0,0,1-.7-1.569,2.091,2.091,0,0,1,.878-1.794,4.142,4.142,0,0,1,2.471-.639h1.23v-.581a1.42,1.42,0,0,0-.4-1.056,1.593,1.593,0,0,0-1.169-.393,1.844,1.844,0,0,0-1.135.342,1.007,1.007,0,0,0-.458.827h-1.271a1.745,1.745,0,0,1,.393-1.07,2.683,2.683,0,0,1,1.066-.817,3.588,3.588,0,0,1,1.48-.3,2.924,2.924,0,0,1,2,.639,2.306,2.306,0,0,1,.752,1.76v3.4a4.162,4.162,0,0,0,.26,1.62V0Zm-2.1-.964a2.223,2.223,0,0,0,1.128-.308,1.861,1.861,0,0,0,.772-.8V-3.589h-.991q-2.324,0-2.324,1.36a1.151,1.151,0,0,0,.4.93A1.524,1.524,0,0,0-8.142-.964Zm6.863-8.224V-7.4H.1v.978H-1.278v4.593a1.027,1.027,0,0,0,.185.667.777.777,0,0,0,.629.222,3.062,3.062,0,0,0,.6-.082V0A3.688,3.688,0,0,1-.834.137,1.575,1.575,0,0,1-2.112-.376a2.2,2.2,0,0,1-.431-1.456V-6.419H-3.89V-7.4h1.347V-9.187ZM4.648.137A3.232,3.232,0,0,1,2.2-.851a3.666,3.666,0,0,1-.943-2.642v-.232a4.438,4.438,0,0,1,.42-1.965A3.28,3.28,0,0,1,2.854-7.044a2.956,2.956,0,0,1,1.637-.489,2.77,2.77,0,0,1,2.242.95,4.114,4.114,0,0,1,.8,2.721v.526H2.522a2.629,2.629,0,0,0,.639,1.767A2.009,2.009,0,0,0,4.717-.9a2.2,2.2,0,0,0,1.135-.273,2.851,2.851,0,0,0,.813-.725l.772.6A3.106,3.106,0,0,1,4.648.137ZM4.491-6.494a1.687,1.687,0,0,0-1.285.557,2.708,2.708,0,0,0-.643,1.562H6.269v-.1a2.409,2.409,0,0,0-.52-1.494A1.588,1.588,0,0,0,4.491-6.494Zm8.08.232a3.79,3.79,0,0,0-.622-.048,1.667,1.667,0,0,0-1.688,1.06V0H9V-7.4h1.23l.021.854a1.969,1.969,0,0,1,1.764-.991,1.292,1.292,0,0,1,.561.1ZM15.107,0H13.843V-7.4h1.265ZM13.74-9.358a.755.755,0,0,1,.188-.52.706.706,0,0,1,.557-.212.717.717,0,0,1,.561.212.747.747,0,0,1,.191.52.722.722,0,0,1-.191.513.73.73,0,0,1-.561.205.718.718,0,0,1-.557-.205A.73.73,0,0,1,13.74-9.358ZM21.7,0a2.657,2.657,0,0,1-.178-.779,2.822,2.822,0,0,1-2.105.916A2.611,2.611,0,0,1,17.62-.482a2,2,0,0,1-.7-1.569A2.091,2.091,0,0,1,17.8-3.845a4.142,4.142,0,0,1,2.471-.639H21.5v-.581a1.42,1.42,0,0,0-.4-1.056,1.593,1.593,0,0,0-1.169-.393,1.844,1.844,0,0,0-1.135.342,1.007,1.007,0,0,0-.458.827H17.069a1.745,1.745,0,0,1,.393-1.07,2.683,2.683,0,0,1,1.066-.817,3.588,3.588,0,0,1,1.48-.3,2.924,2.924,0,0,1,2,.639,2.306,2.306,0,0,1,.752,1.76v3.4a4.162,4.162,0,0,0,.26,1.62V0ZM19.6-.964a2.223,2.223,0,0,0,1.128-.308,1.861,1.861,0,0,0,.772-.8V-3.589h-.991q-2.324,0-2.324,1.36a1.151,1.151,0,0,0,.4.93A1.524,1.524,0,0,0,19.6-.964Z" transform="translate(24 33.539)" fill="#12263f"/>
    <path id="Trazado_116630" data-name="Trazado 116630" d="M-20.938-9.953l3.254,8.121,3.254-8.121h1.7V0h-1.312V-3.876l.123-4.184L-17.186,0h-1l-3.261-8.039.13,4.163V0h-1.312V-9.953ZM-6.043,0a2.657,2.657,0,0,1-.178-.779A2.822,2.822,0,0,1-8.326.137a2.611,2.611,0,0,1-1.794-.619,2,2,0,0,1-.7-1.569,2.091,2.091,0,0,1,.878-1.794,4.142,4.142,0,0,1,2.471-.639h1.23v-.581a1.42,1.42,0,0,0-.4-1.056,1.593,1.593,0,0,0-1.169-.393,1.844,1.844,0,0,0-1.135.342,1.007,1.007,0,0,0-.458.827h-1.271a1.745,1.745,0,0,1,.393-1.07,2.683,2.683,0,0,1,1.066-.817,3.588,3.588,0,0,1,1.48-.3,2.924,2.924,0,0,1,2,.639,2.306,2.306,0,0,1,.752,1.76v3.4a4.162,4.162,0,0,0,.26,1.62V0Zm-2.1-.964a2.223,2.223,0,0,0,1.128-.308,1.861,1.861,0,0,0,.772-.8V-3.589h-.991q-2.324,0-2.324,1.36a1.151,1.151,0,0,0,.4.93A1.524,1.524,0,0,0-8.142-.964Zm6.863-8.224V-7.4H.1v.978H-1.278v4.593a1.027,1.027,0,0,0,.185.667.777.777,0,0,0,.629.222,3.062,3.062,0,0,0,.6-.082V0A3.688,3.688,0,0,1-.834.137,1.575,1.575,0,0,1-2.112-.376a2.2,2.2,0,0,1-.431-1.456V-6.419H-3.89V-7.4h1.347V-9.187ZM4.648.137A3.232,3.232,0,0,1,2.2-.851a3.666,3.666,0,0,1-.943-2.642v-.232a4.438,4.438,0,0,1,.42-1.965A3.28,3.28,0,0,1,2.854-7.044a2.956,2.956,0,0,1,1.637-.489,2.77,2.77,0,0,1,2.242.95,4.114,4.114,0,0,1,.8,2.721v.526H2.522a2.629,2.629,0,0,0,.639,1.767A2.009,2.009,0,0,0,4.717-.9a2.2,2.2,0,0,0,1.135-.273,2.851,2.851,0,0,0,.813-.725l.772.6A3.106,3.106,0,0,1,4.648.137ZM4.491-6.494a1.687,1.687,0,0,0-1.285.557,2.708,2.708,0,0,0-.643,1.562H6.269v-.1a2.409,2.409,0,0,0-.52-1.494A1.588,1.588,0,0,0,4.491-6.494Zm8.08.232a3.79,3.79,0,0,0-.622-.048,1.667,1.667,0,0,0-1.688,1.06V0H9V-7.4h1.23l.021.854a1.969,1.969,0,0,1,1.764-.991,1.292,1.292,0,0,1,.561.1ZM15.107,0H13.843V-7.4h1.265ZM13.74-9.358a.755.755,0,0,1,.188-.52.706.706,0,0,1,.557-.212.717.717,0,0,1,.561.212.747.747,0,0,1,.191.52.722.722,0,0,1-.191.513.73.73,0,0,1-.561.205.718.718,0,0,1-.557-.205A.73.73,0,0,1,13.74-9.358ZM21.7,0a2.657,2.657,0,0,1-.178-.779,2.822,2.822,0,0,1-2.105.916A2.611,2.611,0,0,1,17.62-.482a2,2,0,0,1-.7-1.569A2.091,2.091,0,0,1,17.8-3.845a4.142,4.142,0,0,1,2.471-.639H21.5v-.581a1.42,1.42,0,0,0-.4-1.056,1.593,1.593,0,0,0-1.169-.393,1.844,1.844,0,0,0-1.135.342,1.007,1.007,0,0,0-.458.827H17.069a1.745,1.745,0,0,1,.393-1.07,2.683,2.683,0,0,1,1.066-.817,3.588,3.588,0,0,1,1.48-.3,2.924,2.924,0,0,1,2,.639,2.306,2.306,0,0,1,.752,1.76v3.4a4.162,4.162,0,0,0,.26,1.62V0ZM19.6-.964a2.223,2.223,0,0,0,1.128-.308,1.861,1.861,0,0,0,.772-.8V-3.589h-.991q-2.324,0-2.324,1.36a1.151,1.151,0,0,0,.4.93A1.524,1.524,0,0,0,19.6-.964Z" transform="translate(81.912 83.154)" fill="#12263f"/>
    <path id="Trazado_116637" data-name="Trazado 116637" d="M-20.938-9.953l3.254,8.121,3.254-8.121h1.7V0h-1.312V-3.876l.123-4.184L-17.186,0h-1l-3.261-8.039.13,4.163V0h-1.312V-9.953ZM-6.043,0a2.657,2.657,0,0,1-.178-.779A2.822,2.822,0,0,1-8.326.137a2.611,2.611,0,0,1-1.794-.619,2,2,0,0,1-.7-1.569,2.091,2.091,0,0,1,.878-1.794,4.142,4.142,0,0,1,2.471-.639h1.23v-.581a1.42,1.42,0,0,0-.4-1.056,1.593,1.593,0,0,0-1.169-.393,1.844,1.844,0,0,0-1.135.342,1.007,1.007,0,0,0-.458.827h-1.271a1.745,1.745,0,0,1,.393-1.07,2.683,2.683,0,0,1,1.066-.817,3.588,3.588,0,0,1,1.48-.3,2.924,2.924,0,0,1,2,.639,2.306,2.306,0,0,1,.752,1.76v3.4a4.162,4.162,0,0,0,.26,1.62V0Zm-2.1-.964a2.223,2.223,0,0,0,1.128-.308,1.861,1.861,0,0,0,.772-.8V-3.589h-.991q-2.324,0-2.324,1.36a1.151,1.151,0,0,0,.4.93A1.524,1.524,0,0,0-8.142-.964Zm6.863-8.224V-7.4H.1v.978H-1.278v4.593a1.027,1.027,0,0,0,.185.667.777.777,0,0,0,.629.222,3.062,3.062,0,0,0,.6-.082V0A3.688,3.688,0,0,1-.834.137,1.575,1.575,0,0,1-2.112-.376a2.2,2.2,0,0,1-.431-1.456V-6.419H-3.89V-7.4h1.347V-9.187ZM4.648.137A3.232,3.232,0,0,1,2.2-.851a3.666,3.666,0,0,1-.943-2.642v-.232a4.438,4.438,0,0,1,.42-1.965A3.28,3.28,0,0,1,2.854-7.044a2.956,2.956,0,0,1,1.637-.489,2.77,2.77,0,0,1,2.242.95,4.114,4.114,0,0,1,.8,2.721v.526H2.522a2.629,2.629,0,0,0,.639,1.767A2.009,2.009,0,0,0,4.717-.9a2.2,2.2,0,0,0,1.135-.273,2.851,2.851,0,0,0,.813-.725l.772.6A3.106,3.106,0,0,1,4.648.137ZM4.491-6.494a1.687,1.687,0,0,0-1.285.557,2.708,2.708,0,0,0-.643,1.562H6.269v-.1a2.409,2.409,0,0,0-.52-1.494A1.588,1.588,0,0,0,4.491-6.494Zm8.08.232a3.79,3.79,0,0,0-.622-.048,1.667,1.667,0,0,0-1.688,1.06V0H9V-7.4h1.23l.021.854a1.969,1.969,0,0,1,1.764-.991,1.292,1.292,0,0,1,.561.1ZM15.107,0H13.843V-7.4h1.265ZM13.74-9.358a.755.755,0,0,1,.188-.52.706.706,0,0,1,.557-.212.717.717,0,0,1,.561.212.747.747,0,0,1,.191.52.722.722,0,0,1-.191.513.73.73,0,0,1-.561.205.718.718,0,0,1-.557-.205A.73.73,0,0,1,13.74-9.358ZM21.7,0a2.657,2.657,0,0,1-.178-.779,2.822,2.822,0,0,1-2.105.916A2.611,2.611,0,0,1,17.62-.482a2,2,0,0,1-.7-1.569A2.091,2.091,0,0,1,17.8-3.845a4.142,4.142,0,0,1,2.471-.639H21.5v-.581a1.42,1.42,0,0,0-.4-1.056,1.593,1.593,0,0,0-1.169-.393,1.844,1.844,0,0,0-1.135.342,1.007,1.007,0,0,0-.458.827H17.069a1.745,1.745,0,0,1,.393-1.07,2.683,2.683,0,0,1,1.066-.817,3.588,3.588,0,0,1,1.48-.3,2.924,2.924,0,0,1,2,.639,2.306,2.306,0,0,1,.752,1.76v3.4a4.162,4.162,0,0,0,.26,1.62V0ZM19.6-.964a2.223,2.223,0,0,0,1.128-.308,1.861,1.861,0,0,0,.772-.8V-3.589h-.991q-2.324,0-2.324,1.36a1.151,1.151,0,0,0,.4.93A1.524,1.524,0,0,0,19.6-.964Z" transform="translate(341.583 238.503)" fill="#12263f"/>
    <path id="Trazado_116635" data-name="Trazado 116635" d="M-20.938-9.953l3.254,8.121,3.254-8.121h1.7V0h-1.312V-3.876l.123-4.184L-17.186,0h-1l-3.261-8.039.13,4.163V0h-1.312V-9.953ZM-6.043,0a2.657,2.657,0,0,1-.178-.779A2.822,2.822,0,0,1-8.326.137a2.611,2.611,0,0,1-1.794-.619,2,2,0,0,1-.7-1.569,2.091,2.091,0,0,1,.878-1.794,4.142,4.142,0,0,1,2.471-.639h1.23v-.581a1.42,1.42,0,0,0-.4-1.056,1.593,1.593,0,0,0-1.169-.393,1.844,1.844,0,0,0-1.135.342,1.007,1.007,0,0,0-.458.827h-1.271a1.745,1.745,0,0,1,.393-1.07,2.683,2.683,0,0,1,1.066-.817,3.588,3.588,0,0,1,1.48-.3,2.924,2.924,0,0,1,2,.639,2.306,2.306,0,0,1,.752,1.76v3.4a4.162,4.162,0,0,0,.26,1.62V0Zm-2.1-.964a2.223,2.223,0,0,0,1.128-.308,1.861,1.861,0,0,0,.772-.8V-3.589h-.991q-2.324,0-2.324,1.36a1.151,1.151,0,0,0,.4.93A1.524,1.524,0,0,0-8.142-.964Zm6.863-8.224V-7.4H.1v.978H-1.278v4.593a1.027,1.027,0,0,0,.185.667.777.777,0,0,0,.629.222,3.062,3.062,0,0,0,.6-.082V0A3.688,3.688,0,0,1-.834.137,1.575,1.575,0,0,1-2.112-.376a2.2,2.2,0,0,1-.431-1.456V-6.419H-3.89V-7.4h1.347V-9.187ZM4.648.137A3.232,3.232,0,0,1,2.2-.851a3.666,3.666,0,0,1-.943-2.642v-.232a4.438,4.438,0,0,1,.42-1.965A3.28,3.28,0,0,1,2.854-7.044a2.956,2.956,0,0,1,1.637-.489,2.77,2.77,0,0,1,2.242.95,4.114,4.114,0,0,1,.8,2.721v.526H2.522a2.629,2.629,0,0,0,.639,1.767A2.009,2.009,0,0,0,4.717-.9a2.2,2.2,0,0,0,1.135-.273,2.851,2.851,0,0,0,.813-.725l.772.6A3.106,3.106,0,0,1,4.648.137ZM4.491-6.494a1.687,1.687,0,0,0-1.285.557,2.708,2.708,0,0,0-.643,1.562H6.269v-.1a2.409,2.409,0,0,0-.52-1.494A1.588,1.588,0,0,0,4.491-6.494Zm8.08.232a3.79,3.79,0,0,0-.622-.048,1.667,1.667,0,0,0-1.688,1.06V0H9V-7.4h1.23l.021.854a1.969,1.969,0,0,1,1.764-.991,1.292,1.292,0,0,1,.561.1ZM15.107,0H13.843V-7.4h1.265ZM13.74-9.358a.755.755,0,0,1,.188-.52.706.706,0,0,1,.557-.212.717.717,0,0,1,.561.212.747.747,0,0,1,.191.52.722.722,0,0,1-.191.513.73.73,0,0,1-.561.205.718.718,0,0,1-.557-.205A.73.73,0,0,1,13.74-9.358ZM21.7,0a2.657,2.657,0,0,1-.178-.779,2.822,2.822,0,0,1-2.105.916A2.611,2.611,0,0,1,17.62-.482a2,2,0,0,1-.7-1.569A2.091,2.091,0,0,1,17.8-3.845a4.142,4.142,0,0,1,2.471-.639H21.5v-.581a1.42,1.42,0,0,0-.4-1.056,1.593,1.593,0,0,0-1.169-.393,1.844,1.844,0,0,0-1.135.342,1.007,1.007,0,0,0-.458.827H17.069a1.745,1.745,0,0,1,.393-1.07,2.683,2.683,0,0,1,1.066-.817,3.588,3.588,0,0,1,1.48-.3,2.924,2.924,0,0,1,2,.639,2.306,2.306,0,0,1,.752,1.76v3.4a4.162,4.162,0,0,0,.26,1.62V0ZM19.6-.964a2.223,2.223,0,0,0,1.128-.308,1.861,1.861,0,0,0,.772-.8V-3.589h-.991q-2.324,0-2.324,1.36a1.151,1.151,0,0,0,.4.93A1.524,1.524,0,0,0,19.6-.964Z" transform="translate(237.501 256.632)" fill="#12263f"/>
    <path id="Trazado_116631" data-name="Trazado 116631" d="M-16.536-4.6H-20.85v3.527h5.011V0h-6.323V-9.953h6.255V-8.88H-20.85v3.206h4.313Zm3.329-2.8.041.93a2.7,2.7,0,0,1,2.215-1.066q2.345,0,2.365,2.646V0H-9.851V-4.895a1.7,1.7,0,0,0-.366-1.183,1.466,1.466,0,0,0-1.118-.383,1.825,1.825,0,0,0-1.08.328,2.228,2.228,0,0,0-.725.861V0H-14.4V-7.4Zm9.6,7.533A3.232,3.232,0,0,1-6.057-.851,3.666,3.666,0,0,1-7-3.493v-.232a4.438,4.438,0,0,1,.42-1.965A3.28,3.28,0,0,1-5.4-7.044a2.956,2.956,0,0,1,1.637-.489,2.77,2.77,0,0,1,2.242.95,4.114,4.114,0,0,1,.8,2.721v.526H-5.735A2.629,2.629,0,0,0-5.1-1.569,2.009,2.009,0,0,0-3.541-.9a2.2,2.2,0,0,0,1.135-.273,2.851,2.851,0,0,0,.813-.725l.772.6A3.106,3.106,0,0,1-3.609.137Zm-.157-6.631a1.687,1.687,0,0,0-1.285.557,2.708,2.708,0,0,0-.643,1.562h3.705v-.1a2.409,2.409,0,0,0-.52-1.494A1.588,1.588,0,0,0-3.767-6.494Zm8.08.232a3.79,3.79,0,0,0-.622-.048A1.667,1.667,0,0,0,2-5.25V0H.738V-7.4h1.23l.021.854a1.969,1.969,0,0,1,1.764-.991,1.292,1.292,0,0,1,.561.1Zm.731,2.5a4.347,4.347,0,0,1,.8-2.751A2.558,2.558,0,0,1,7.964-7.533a2.544,2.544,0,0,1,2.112.957l.062-.82h1.155V-.178a3.009,3.009,0,0,1-.851,2.263,3.141,3.141,0,0,1-2.287.827A3.8,3.8,0,0,1,6.59,2.57a2.7,2.7,0,0,1-1.169-.937L6.077.875a2.473,2.473,0,0,0,1.989,1,1.938,1.938,0,0,0,1.439-.52A1.986,1.986,0,0,0,10.021-.1V-.738A2.6,2.6,0,0,1,7.95.137a2.527,2.527,0,0,1-2.1-1.046A4.571,4.571,0,0,1,5.045-3.76Zm1.271.144a3.316,3.316,0,0,0,.513,1.965,1.666,1.666,0,0,0,1.436.714,1.852,1.852,0,0,0,1.757-1.087V-5.4A1.874,1.874,0,0,0,8.278-6.46a1.681,1.681,0,0,0-1.442.718A3.612,3.612,0,0,0,6.316-3.616ZM14.574,0H13.3V-7.4h1.271Zm.014-10.479h1.531L14.287-8.47l-1.019,0ZM21.226,0a2.657,2.657,0,0,1-.178-.779,2.822,2.822,0,0,1-2.105.916,2.611,2.611,0,0,1-1.794-.619,2,2,0,0,1-.7-1.569,2.091,2.091,0,0,1,.878-1.794A4.142,4.142,0,0,1,19.8-4.484h1.23v-.581a1.42,1.42,0,0,0-.4-1.056,1.593,1.593,0,0,0-1.169-.393,1.844,1.844,0,0,0-1.135.342,1.007,1.007,0,0,0-.458.827H16.6a1.745,1.745,0,0,1,.393-1.07,2.683,2.683,0,0,1,1.066-.817,3.588,3.588,0,0,1,1.48-.3,2.924,2.924,0,0,1,2,.639,2.306,2.306,0,0,1,.752,1.76v3.4a4.162,4.162,0,0,0,.26,1.62V0Zm-2.1-.964a2.223,2.223,0,0,0,1.128-.308,1.861,1.861,0,0,0,.772-.8V-3.589h-.991q-2.324,0-2.324,1.36a1.151,1.151,0,0,0,.4.93A1.524,1.524,0,0,0,19.127-.964Z" transform="translate(88.849 142.119)" fill="#12263f"/>
    <path id="Trazado_116633" data-name="Trazado 116633" d="M-16.536-4.6H-20.85v3.527h5.011V0h-6.323V-9.953h6.255V-8.88H-20.85v3.206h4.313Zm3.329-2.8.041.93a2.7,2.7,0,0,1,2.215-1.066q2.345,0,2.365,2.646V0H-9.851V-4.895a1.7,1.7,0,0,0-.366-1.183,1.466,1.466,0,0,0-1.118-.383,1.825,1.825,0,0,0-1.08.328,2.228,2.228,0,0,0-.725.861V0H-14.4V-7.4Zm9.6,7.533A3.232,3.232,0,0,1-6.057-.851,3.666,3.666,0,0,1-7-3.493v-.232a4.438,4.438,0,0,1,.42-1.965A3.28,3.28,0,0,1-5.4-7.044a2.956,2.956,0,0,1,1.637-.489,2.77,2.77,0,0,1,2.242.95,4.114,4.114,0,0,1,.8,2.721v.526H-5.735A2.629,2.629,0,0,0-5.1-1.569,2.009,2.009,0,0,0-3.541-.9a2.2,2.2,0,0,0,1.135-.273,2.851,2.851,0,0,0,.813-.725l.772.6A3.106,3.106,0,0,1-3.609.137Zm-.157-6.631a1.687,1.687,0,0,0-1.285.557,2.708,2.708,0,0,0-.643,1.562h3.705v-.1a2.409,2.409,0,0,0-.52-1.494A1.588,1.588,0,0,0-3.767-6.494Zm8.08.232a3.79,3.79,0,0,0-.622-.048A1.667,1.667,0,0,0,2-5.25V0H.738V-7.4h1.23l.021.854a1.969,1.969,0,0,1,1.764-.991,1.292,1.292,0,0,1,.561.1Zm.731,2.5a4.347,4.347,0,0,1,.8-2.751A2.558,2.558,0,0,1,7.964-7.533a2.544,2.544,0,0,1,2.112.957l.062-.82h1.155V-.178a3.009,3.009,0,0,1-.851,2.263,3.141,3.141,0,0,1-2.287.827A3.8,3.8,0,0,1,6.59,2.57a2.7,2.7,0,0,1-1.169-.937L6.077.875a2.473,2.473,0,0,0,1.989,1,1.938,1.938,0,0,0,1.439-.52A1.986,1.986,0,0,0,10.021-.1V-.738A2.6,2.6,0,0,1,7.95.137a2.527,2.527,0,0,1-2.1-1.046A4.571,4.571,0,0,1,5.045-3.76Zm1.271.144a3.316,3.316,0,0,0,.513,1.965,1.666,1.666,0,0,0,1.436.714,1.852,1.852,0,0,0,1.757-1.087V-5.4A1.874,1.874,0,0,0,8.278-6.46a1.681,1.681,0,0,0-1.442.718A3.612,3.612,0,0,0,6.316-3.616ZM14.574,0H13.3V-7.4h1.271Zm.014-10.479h1.531L14.287-8.47l-1.019,0ZM21.226,0a2.657,2.657,0,0,1-.178-.779,2.822,2.822,0,0,1-2.105.916,2.611,2.611,0,0,1-1.794-.619,2,2,0,0,1-.7-1.569,2.091,2.091,0,0,1,.878-1.794A4.142,4.142,0,0,1,19.8-4.484h1.23v-.581a1.42,1.42,0,0,0-.4-1.056,1.593,1.593,0,0,0-1.169-.393,1.844,1.844,0,0,0-1.135.342,1.007,1.007,0,0,0-.458.827H16.6a1.745,1.745,0,0,1,.393-1.07,2.683,2.683,0,0,1,1.066-.817,3.588,3.588,0,0,1,1.48-.3,2.924,2.924,0,0,1,2,.639,2.306,2.306,0,0,1,.752,1.76v3.4a4.162,4.162,0,0,0,.26,1.62V0Zm-2.1-.964a2.223,2.223,0,0,0,1.128-.308,1.861,1.861,0,0,0,.772-.8V-3.589h-.991q-2.324,0-2.324,1.36a1.151,1.151,0,0,0,.4.93A1.524,1.524,0,0,0,19.127-.964Z" transform="translate(179.564 196.548)" fill="#12263f"/>
    <path id="Trazado_116636" data-name="Trazado 116636" d="M-16.536-4.6H-20.85v3.527h5.011V0h-6.323V-9.953h6.255V-8.88H-20.85v3.206h4.313Zm3.329-2.8.041.93a2.7,2.7,0,0,1,2.215-1.066q2.345,0,2.365,2.646V0H-9.851V-4.895a1.7,1.7,0,0,0-.366-1.183,1.466,1.466,0,0,0-1.118-.383,1.825,1.825,0,0,0-1.08.328,2.228,2.228,0,0,0-.725.861V0H-14.4V-7.4Zm9.6,7.533A3.232,3.232,0,0,1-6.057-.851,3.666,3.666,0,0,1-7-3.493v-.232a4.438,4.438,0,0,1,.42-1.965A3.28,3.28,0,0,1-5.4-7.044a2.956,2.956,0,0,1,1.637-.489,2.77,2.77,0,0,1,2.242.95,4.114,4.114,0,0,1,.8,2.721v.526H-5.735A2.629,2.629,0,0,0-5.1-1.569,2.009,2.009,0,0,0-3.541-.9a2.2,2.2,0,0,0,1.135-.273,2.851,2.851,0,0,0,.813-.725l.772.6A3.106,3.106,0,0,1-3.609.137Zm-.157-6.631a1.687,1.687,0,0,0-1.285.557,2.708,2.708,0,0,0-.643,1.562h3.705v-.1a2.409,2.409,0,0,0-.52-1.494A1.588,1.588,0,0,0-3.767-6.494Zm8.08.232a3.79,3.79,0,0,0-.622-.048A1.667,1.667,0,0,0,2-5.25V0H.738V-7.4h1.23l.021.854a1.969,1.969,0,0,1,1.764-.991,1.292,1.292,0,0,1,.561.1Zm.731,2.5a4.347,4.347,0,0,1,.8-2.751A2.558,2.558,0,0,1,7.964-7.533a2.544,2.544,0,0,1,2.112.957l.062-.82h1.155V-.178a3.009,3.009,0,0,1-.851,2.263,3.141,3.141,0,0,1-2.287.827A3.8,3.8,0,0,1,6.59,2.57a2.7,2.7,0,0,1-1.169-.937L6.077.875a2.473,2.473,0,0,0,1.989,1,1.938,1.938,0,0,0,1.439-.52A1.986,1.986,0,0,0,10.021-.1V-.738A2.6,2.6,0,0,1,7.95.137a2.527,2.527,0,0,1-2.1-1.046A4.571,4.571,0,0,1,5.045-3.76Zm1.271.144a3.316,3.316,0,0,0,.513,1.965,1.666,1.666,0,0,0,1.436.714,1.852,1.852,0,0,0,1.757-1.087V-5.4A1.874,1.874,0,0,0,8.278-6.46a1.681,1.681,0,0,0-1.442.718A3.612,3.612,0,0,0,6.316-3.616ZM14.574,0H13.3V-7.4h1.271Zm.014-10.479h1.531L14.287-8.47l-1.019,0ZM21.226,0a2.657,2.657,0,0,1-.178-.779,2.822,2.822,0,0,1-2.105.916,2.611,2.611,0,0,1-1.794-.619,2,2,0,0,1-.7-1.569,2.091,2.091,0,0,1,.878-1.794A4.142,4.142,0,0,1,19.8-4.484h1.23v-.581a1.42,1.42,0,0,0-.4-1.056,1.593,1.593,0,0,0-1.169-.393,1.844,1.844,0,0,0-1.135.342,1.007,1.007,0,0,0-.458.827H16.6a1.745,1.745,0,0,1,.393-1.07,2.683,2.683,0,0,1,1.066-.817,3.588,3.588,0,0,1,1.48-.3,2.924,2.924,0,0,1,2,.639,2.306,2.306,0,0,1,.752,1.76v3.4a4.162,4.162,0,0,0,.26,1.62V0Zm-2.1-.964a2.223,2.223,0,0,0,1.128-.308,1.861,1.861,0,0,0,.772-.8V-3.589h-.991q-2.324,0-2.324,1.36a1.151,1.151,0,0,0,.4.93A1.524,1.524,0,0,0,19.127-.964Z" transform="translate(325.842 320.147)" fill="#12263f"/>
    <path id="Trazado_116639" data-name="Trazado 116639" d="M-16.536-4.6H-20.85v3.527h5.011V0h-6.323V-9.953h6.255V-8.88H-20.85v3.206h4.313Zm3.329-2.8.041.93a2.7,2.7,0,0,1,2.215-1.066q2.345,0,2.365,2.646V0H-9.851V-4.895a1.7,1.7,0,0,0-.366-1.183,1.466,1.466,0,0,0-1.118-.383,1.825,1.825,0,0,0-1.08.328,2.228,2.228,0,0,0-.725.861V0H-14.4V-7.4Zm9.6,7.533A3.232,3.232,0,0,1-6.057-.851,3.666,3.666,0,0,1-7-3.493v-.232a4.438,4.438,0,0,1,.42-1.965A3.28,3.28,0,0,1-5.4-7.044a2.956,2.956,0,0,1,1.637-.489,2.77,2.77,0,0,1,2.242.95,4.114,4.114,0,0,1,.8,2.721v.526H-5.735A2.629,2.629,0,0,0-5.1-1.569,2.009,2.009,0,0,0-3.541-.9a2.2,2.2,0,0,0,1.135-.273,2.851,2.851,0,0,0,.813-.725l.772.6A3.106,3.106,0,0,1-3.609.137Zm-.157-6.631a1.687,1.687,0,0,0-1.285.557,2.708,2.708,0,0,0-.643,1.562h3.705v-.1a2.409,2.409,0,0,0-.52-1.494A1.588,1.588,0,0,0-3.767-6.494Zm8.08.232a3.79,3.79,0,0,0-.622-.048A1.667,1.667,0,0,0,2-5.25V0H.738V-7.4h1.23l.021.854a1.969,1.969,0,0,1,1.764-.991,1.292,1.292,0,0,1,.561.1Zm.731,2.5a4.347,4.347,0,0,1,.8-2.751A2.558,2.558,0,0,1,7.964-7.533a2.544,2.544,0,0,1,2.112.957l.062-.82h1.155V-.178a3.009,3.009,0,0,1-.851,2.263,3.141,3.141,0,0,1-2.287.827A3.8,3.8,0,0,1,6.59,2.57a2.7,2.7,0,0,1-1.169-.937L6.077.875a2.473,2.473,0,0,0,1.989,1,1.938,1.938,0,0,0,1.439-.52A1.986,1.986,0,0,0,10.021-.1V-.738A2.6,2.6,0,0,1,7.95.137a2.527,2.527,0,0,1-2.1-1.046A4.571,4.571,0,0,1,5.045-3.76Zm1.271.144a3.316,3.316,0,0,0,.513,1.965,1.666,1.666,0,0,0,1.436.714,1.852,1.852,0,0,0,1.757-1.087V-5.4A1.874,1.874,0,0,0,8.278-6.46a1.681,1.681,0,0,0-1.442.718A3.612,3.612,0,0,0,6.316-3.616ZM14.574,0H13.3V-7.4h1.271Zm.014-10.479h1.531L14.287-8.47l-1.019,0ZM21.226,0a2.657,2.657,0,0,1-.178-.779,2.822,2.822,0,0,1-2.105.916,2.611,2.611,0,0,1-1.794-.619,2,2,0,0,1-.7-1.569,2.091,2.091,0,0,1,.878-1.794A4.142,4.142,0,0,1,19.8-4.484h1.23v-.581a1.42,1.42,0,0,0-.4-1.056,1.593,1.593,0,0,0-1.169-.393,1.844,1.844,0,0,0-1.135.342,1.007,1.007,0,0,0-.458.827H16.6a1.745,1.745,0,0,1,.393-1.07,2.683,2.683,0,0,1,1.066-.817,3.588,3.588,0,0,1,1.48-.3,2.924,2.924,0,0,1,2,.639,2.306,2.306,0,0,1,.752,1.76v3.4a4.162,4.162,0,0,0,.26,1.62V0Zm-2.1-.964a2.223,2.223,0,0,0,1.128-.308,1.861,1.861,0,0,0,.772-.8V-3.589h-.991q-2.324,0-2.324,1.36a1.151,1.151,0,0,0,.4.93A1.524,1.524,0,0,0,19.127-.964Z" transform="translate(419.959 364.37)" fill="#12263f"/>
    <path id="Trazado_116632" data-name="Trazado 116632" d="M-21.075-2.8a1.128,1.128,0,0,0-.439-.956,5.764,5.764,0,0,0-1.582-.7,11.215,11.215,0,0,1-1.809-.729A2.956,2.956,0,0,1-26.722-7.83a2.575,2.575,0,0,1,.487-1.542,3.177,3.177,0,0,1,1.4-1.058,5.265,5.265,0,0,1,2.047-.381,4.793,4.793,0,0,1,2.036.414,3.242,3.242,0,0,1,1.388,1.168,3.057,3.057,0,0,1,.494,1.714h-2.2a1.438,1.438,0,0,0-.461-1.139,1.9,1.9,0,0,0-1.3-.406,2.026,2.026,0,0,0-1.252.341,1.074,1.074,0,0,0-.447.9A1.029,1.029,0,0,0-24-6.951a5.916,5.916,0,0,0,1.542.659,6.661,6.661,0,0,1,2.732,1.4,2.786,2.786,0,0,1,.857,2.08A2.566,2.566,0,0,1-19.918-.641a4.585,4.585,0,0,1-2.82.787A5.445,5.445,0,0,1-24.979-.3a3.546,3.546,0,0,1-1.542-1.234,3.161,3.161,0,0,1-.531-1.816h2.2q0,1.765,2.109,1.765a2.052,2.052,0,0,0,1.223-.319A1.037,1.037,0,0,0-21.075-2.8ZM-15.289,0h-2.124V-7.925h2.124Zm-2.249-9.976a1.042,1.042,0,0,1,.319-.784,1.2,1.2,0,0,1,.868-.308,1.2,1.2,0,0,1,.864.308,1.036,1.036,0,0,1,.322.784,1.039,1.039,0,0,1-.326.791,1.2,1.2,0,0,1-.861.308,1.2,1.2,0,0,1-.861-.308A1.039,1.039,0,0,1-17.538-9.976ZM-9.254-2.19A.682.682,0,0,0-9.639-2.8a4.368,4.368,0,0,0-1.234-.4Q-13.7-3.794-13.7-5.6a2.178,2.178,0,0,1,.875-1.761,3.531,3.531,0,0,1,2.289-.707,3.8,3.8,0,0,1,2.413.71,2.239,2.239,0,0,1,.9,1.846H-9.335a1.024,1.024,0,0,0-.293-.751,1.24,1.24,0,0,0-.916-.3,1.267,1.267,0,0,0-.828.242.763.763,0,0,0-.293.615.652.652,0,0,0,.333.568,3.428,3.428,0,0,0,1.124.374,9.183,9.183,0,0,1,1.333.355A2.19,2.19,0,0,1-7.2-2.278a2.067,2.067,0,0,1-.93,1.754,4.013,4.013,0,0,1-2.4.67A4.191,4.191,0,0,1-12.3-.209a2.968,2.968,0,0,1-1.212-.974,2.263,2.263,0,0,1-.439-1.337h2.007a1.105,1.105,0,0,0,.417.864,1.656,1.656,0,0,0,1.04.3,1.533,1.533,0,0,0,.919-.231A.718.718,0,0,0-9.254-2.19ZM-3.3-9.873v1.948h1.355v1.553H-3.3v3.955a.944.944,0,0,0,.168.63.846.846,0,0,0,.645.19,3.376,3.376,0,0,0,.623-.051v1.6a4.358,4.358,0,0,1-1.282.19A2.021,2.021,0,0,1-5.416-2.1v-4.27H-6.573V-7.925h1.157V-9.873ZM2.882.146A3.89,3.89,0,0,1,.044-.923,3.8,3.8,0,0,1-1.051-3.772v-.205A4.787,4.787,0,0,1-.59-6.112,3.386,3.386,0,0,1,.718-7.562a3.669,3.669,0,0,1,1.93-.509,3.289,3.289,0,0,1,2.56,1.025,4.167,4.167,0,0,1,.934,2.908v.864H1.095a1.966,1.966,0,0,0,.619,1.245,1.871,1.871,0,0,0,1.307.469,2.285,2.285,0,0,0,1.912-.886l1.04,1.165A3.178,3.178,0,0,1,4.684-.231,4.229,4.229,0,0,1,2.882.146ZM2.64-6.365a1.323,1.323,0,0,0-1.022.427,2.209,2.209,0,0,0-.5,1.221H4.061v-.169A1.576,1.576,0,0,0,3.68-5.979,1.365,1.365,0,0,0,2.64-6.365Zm6.687-1.56.066.886a2.785,2.785,0,0,1,2.278-1.033,2.114,2.114,0,0,1,2.1,1.208,2.721,2.721,0,0,1,2.38-1.208,2.364,2.364,0,0,1,1.919.751,3.451,3.451,0,0,1,.63,2.26V0H16.578V-5.065a1.515,1.515,0,0,0-.264-.987,1.167,1.167,0,0,0-.93-.312,1.321,1.321,0,0,0-1.318.91L14.073,0H11.957V-5.058a1.5,1.5,0,0,0-.271-1,1.178,1.178,0,0,0-.923-.308,1.371,1.371,0,0,0-1.3.749V0H7.343V-7.925ZM24.921,0a2.351,2.351,0,0,1-.212-.71,2.561,2.561,0,0,1-2,.857,2.814,2.814,0,0,1-1.93-.674,2.167,2.167,0,0,1-.765-1.7,2.24,2.24,0,0,1,.934-1.934,4.608,4.608,0,0,1,2.7-.681h.974V-5.3a1.306,1.306,0,0,0-.282-.879,1.109,1.109,0,0,0-.89-.33,1.261,1.261,0,0,0-.839.256.871.871,0,0,0-.3.7H20.189a2.126,2.126,0,0,1,.425-1.274,2.808,2.808,0,0,1,1.2-.919,4.378,4.378,0,0,1,1.743-.333,3.459,3.459,0,0,1,2.325.736,2.575,2.575,0,0,1,.861,2.069v3.435a3.789,3.789,0,0,0,.315,1.707V0ZM23.17-1.472a1.823,1.823,0,0,0,.864-.209,1.371,1.371,0,0,0,.586-.56V-3.6h-.791q-1.589,0-1.692,1.1l-.007.125a.847.847,0,0,0,.278.652A1.081,1.081,0,0,0,23.17-1.472ZM-21.705,12.44a1.388,1.388,0,0,0,.952-.322,1.129,1.129,0,0,0,.381-.857h1.985a2.715,2.715,0,0,1-.439,1.476,2.9,2.9,0,0,1-1.183,1.04,3.7,3.7,0,0,1-1.659.37,3.44,3.44,0,0,1-2.681-1.08,4.275,4.275,0,0,1-.981-2.985V9.942a4.226,4.226,0,0,1,.974-2.922,3.4,3.4,0,0,1,2.673-1.091,3.333,3.333,0,0,1,2.384.846,3,3,0,0,1,.912,2.252h-1.985a1.455,1.455,0,0,0-.381-1.005,1.27,1.27,0,0,0-.967-.387,1.275,1.275,0,0,0-1.117.539,3.125,3.125,0,0,0-.377,1.749v.22a3.164,3.164,0,0,0,.374,1.761A1.291,1.291,0,0,0-21.705,12.44Zm8.174,1.707a3.89,3.89,0,0,1-2.838-1.069,3.8,3.8,0,0,1-1.095-2.849v-.205A4.787,4.787,0,0,1-17,7.888,3.386,3.386,0,0,1-15.7,6.438a3.669,3.669,0,0,1,1.93-.509,3.289,3.289,0,0,1,2.56,1.025,4.167,4.167,0,0,1,.934,2.908v.864h-5.046a1.966,1.966,0,0,0,.619,1.245,1.871,1.871,0,0,0,1.307.469,2.285,2.285,0,0,0,1.912-.886l1.04,1.165a3.178,3.178,0,0,1-1.289,1.051A4.229,4.229,0,0,1-13.531,14.146Zm-.242-6.511a1.323,1.323,0,0,0-1.022.427,2.209,2.209,0,0,0-.5,1.221h2.944V9.114a1.576,1.576,0,0,0-.381-1.092A1.365,1.365,0,0,0-13.773,7.635Zm9.155.425A5.751,5.751,0,0,0-5.38,8a1.55,1.55,0,0,0-1.575.813V14H-9.071V6.075h2l.059.945A1.961,1.961,0,0,1-5.248,5.929a2.218,2.218,0,0,1,.659.1Zm5.471,0A5.751,5.751,0,0,0,.092,8a1.55,1.55,0,0,0-1.575.813V14H-3.6V6.075h2l.059.945A1.961,1.961,0,0,1,.223,5.929a2.218,2.218,0,0,1,.659.1ZM6.244,14a2.351,2.351,0,0,1-.212-.71,2.561,2.561,0,0,1-2,.857,2.814,2.814,0,0,1-1.93-.674,2.167,2.167,0,0,1-.765-1.7A2.24,2.24,0,0,1,2.271,9.84a4.608,4.608,0,0,1,2.7-.681h.974V8.7a1.306,1.306,0,0,0-.282-.879,1.109,1.109,0,0,0-.89-.33,1.261,1.261,0,0,0-.839.256.871.871,0,0,0-.3.7H1.512a2.126,2.126,0,0,1,.425-1.274,2.808,2.808,0,0,1,1.2-.919,4.378,4.378,0,0,1,1.743-.333,3.459,3.459,0,0,1,2.325.736,2.575,2.575,0,0,1,.861,2.069v3.435a3.789,3.789,0,0,0,.315,1.707V14Zm-1.75-1.472a1.823,1.823,0,0,0,.864-.209,1.371,1.371,0,0,0,.586-.56V10.4H5.153q-1.589,0-1.692,1.1l-.007.125a.847.847,0,0,0,.278.652A1.081,1.081,0,0,0,4.493,12.528ZM9.364,9.979A4.776,4.776,0,0,1,10.2,7.027a2.7,2.7,0,0,1,2.274-1.1,2.427,2.427,0,0,1,1.912.864V2.75h2.124V14H14.594l-.1-.842a2.491,2.491,0,0,1-2.036.989,2.69,2.69,0,0,1-2.245-1.1A4.93,4.93,0,0,1,9.364,9.979Zm2.117.151a3.146,3.146,0,0,0,.388,1.714,1.263,1.263,0,0,0,1.128.6,1.416,1.416,0,0,0,1.384-.831V8.467a1.4,1.4,0,0,0-1.37-.831Q11.481,7.635,11.481,10.13Zm6.335-.165a4.7,4.7,0,0,1,.454-2.1,3.324,3.324,0,0,1,1.307-1.428,3.814,3.814,0,0,1,1.981-.505,3.609,3.609,0,0,1,2.618.981,3.939,3.939,0,0,1,1.132,2.666l.015.542a4.142,4.142,0,0,1-1.018,2.926,3.539,3.539,0,0,1-2.732,1.1,3.556,3.556,0,0,1-2.736-1.1,4.215,4.215,0,0,1-1.022-2.988Zm2.117.15a2.962,2.962,0,0,0,.425,1.727,1.526,1.526,0,0,0,2.417.007,3.241,3.241,0,0,0,.432-1.889,2.933,2.933,0,0,0-.432-1.716,1.4,1.4,0,0,0-1.216-.609,1.382,1.382,0,0,0-1.2.605A3.3,3.3,0,0,0,19.933,10.115Z" transform="translate(150.546 101.163)" fill="#12263f"/>
    <path id="Trazado_116638" data-name="Trazado 116638" d="M-21.075-2.8a1.128,1.128,0,0,0-.439-.956,5.764,5.764,0,0,0-1.582-.7,11.215,11.215,0,0,1-1.809-.729A2.956,2.956,0,0,1-26.722-7.83a2.575,2.575,0,0,1,.487-1.542,3.177,3.177,0,0,1,1.4-1.058,5.265,5.265,0,0,1,2.047-.381,4.793,4.793,0,0,1,2.036.414,3.242,3.242,0,0,1,1.388,1.168,3.057,3.057,0,0,1,.494,1.714h-2.2a1.438,1.438,0,0,0-.461-1.139,1.9,1.9,0,0,0-1.3-.406,2.026,2.026,0,0,0-1.252.341,1.074,1.074,0,0,0-.447.9A1.029,1.029,0,0,0-24-6.951a5.916,5.916,0,0,0,1.542.659,6.661,6.661,0,0,1,2.732,1.4,2.786,2.786,0,0,1,.857,2.08A2.566,2.566,0,0,1-19.918-.641a4.585,4.585,0,0,1-2.82.787A5.445,5.445,0,0,1-24.979-.3a3.546,3.546,0,0,1-1.542-1.234,3.161,3.161,0,0,1-.531-1.816h2.2q0,1.765,2.109,1.765a2.052,2.052,0,0,0,1.223-.319A1.037,1.037,0,0,0-21.075-2.8ZM-15.289,0h-2.124V-7.925h2.124Zm-2.249-9.976a1.042,1.042,0,0,1,.319-.784,1.2,1.2,0,0,1,.868-.308,1.2,1.2,0,0,1,.864.308,1.036,1.036,0,0,1,.322.784,1.039,1.039,0,0,1-.326.791,1.2,1.2,0,0,1-.861.308,1.2,1.2,0,0,1-.861-.308A1.039,1.039,0,0,1-17.538-9.976ZM-9.254-2.19A.682.682,0,0,0-9.639-2.8a4.368,4.368,0,0,0-1.234-.4Q-13.7-3.794-13.7-5.6a2.178,2.178,0,0,1,.875-1.761,3.531,3.531,0,0,1,2.289-.707,3.8,3.8,0,0,1,2.413.71,2.239,2.239,0,0,1,.9,1.846H-9.335a1.024,1.024,0,0,0-.293-.751,1.24,1.24,0,0,0-.916-.3,1.267,1.267,0,0,0-.828.242.763.763,0,0,0-.293.615.652.652,0,0,0,.333.568,3.428,3.428,0,0,0,1.124.374,9.183,9.183,0,0,1,1.333.355A2.19,2.19,0,0,1-7.2-2.278a2.067,2.067,0,0,1-.93,1.754,4.013,4.013,0,0,1-2.4.67A4.191,4.191,0,0,1-12.3-.209a2.968,2.968,0,0,1-1.212-.974,2.263,2.263,0,0,1-.439-1.337h2.007a1.105,1.105,0,0,0,.417.864,1.656,1.656,0,0,0,1.04.3,1.533,1.533,0,0,0,.919-.231A.718.718,0,0,0-9.254-2.19ZM-3.3-9.873v1.948h1.355v1.553H-3.3v3.955a.944.944,0,0,0,.168.63.846.846,0,0,0,.645.19,3.376,3.376,0,0,0,.623-.051v1.6a4.358,4.358,0,0,1-1.282.19A2.021,2.021,0,0,1-5.416-2.1v-4.27H-6.573V-7.925h1.157V-9.873ZM2.882.146A3.89,3.89,0,0,1,.044-.923,3.8,3.8,0,0,1-1.051-3.772v-.205A4.787,4.787,0,0,1-.59-6.112,3.386,3.386,0,0,1,.718-7.562a3.669,3.669,0,0,1,1.93-.509,3.289,3.289,0,0,1,2.56,1.025,4.167,4.167,0,0,1,.934,2.908v.864H1.095a1.966,1.966,0,0,0,.619,1.245,1.871,1.871,0,0,0,1.307.469,2.285,2.285,0,0,0,1.912-.886l1.04,1.165A3.178,3.178,0,0,1,4.684-.231,4.229,4.229,0,0,1,2.882.146ZM2.64-6.365a1.323,1.323,0,0,0-1.022.427,2.209,2.209,0,0,0-.5,1.221H4.061v-.169A1.576,1.576,0,0,0,3.68-5.979,1.365,1.365,0,0,0,2.64-6.365Zm6.687-1.56.066.886a2.785,2.785,0,0,1,2.278-1.033,2.114,2.114,0,0,1,2.1,1.208,2.721,2.721,0,0,1,2.38-1.208,2.364,2.364,0,0,1,1.919.751,3.451,3.451,0,0,1,.63,2.26V0H16.578V-5.065a1.515,1.515,0,0,0-.264-.987,1.167,1.167,0,0,0-.93-.312,1.321,1.321,0,0,0-1.318.91L14.073,0H11.957V-5.058a1.5,1.5,0,0,0-.271-1,1.178,1.178,0,0,0-.923-.308,1.371,1.371,0,0,0-1.3.749V0H7.343V-7.925ZM24.921,0a2.351,2.351,0,0,1-.212-.71,2.561,2.561,0,0,1-2,.857,2.814,2.814,0,0,1-1.93-.674,2.167,2.167,0,0,1-.765-1.7,2.24,2.24,0,0,1,.934-1.934,4.608,4.608,0,0,1,2.7-.681h.974V-5.3a1.306,1.306,0,0,0-.282-.879,1.109,1.109,0,0,0-.89-.33,1.261,1.261,0,0,0-.839.256.871.871,0,0,0-.3.7H20.189a2.126,2.126,0,0,1,.425-1.274,2.808,2.808,0,0,1,1.2-.919,4.378,4.378,0,0,1,1.743-.333,3.459,3.459,0,0,1,2.325.736,2.575,2.575,0,0,1,.861,2.069v3.435a3.789,3.789,0,0,0,.315,1.707V0ZM23.17-1.472a1.823,1.823,0,0,0,.864-.209,1.371,1.371,0,0,0,.586-.56V-3.6h-.791q-1.589,0-1.692,1.1l-.007.125a.847.847,0,0,0,.278.652A1.081,1.081,0,0,0,23.17-1.472ZM-17.922,11.8h-3.853l-.732,2.2h-2.336l3.97-10.664h2.036L-14.846,14h-2.336Zm-3.259-1.78h2.666l-1.34-3.992Zm14.333.088a4.8,4.8,0,0,1-.813,2.97,2.693,2.693,0,0,1-2.271,1.066,2.474,2.474,0,0,1-2.058-.989l-.1.842h-1.9V2.75h2.117V6.786a2.411,2.411,0,0,1,1.926-.857A2.715,2.715,0,0,1-7.672,6.994a4.806,4.806,0,0,1,.824,3Zm-2.117-.161a3.17,3.17,0,0,0-.381-1.76,1.287,1.287,0,0,0-1.135-.555,1.4,1.4,0,0,0-1.392.83V11.6a1.415,1.415,0,0,0,1.406.837,1.307,1.307,0,0,0,1.348-1.014A5.245,5.245,0,0,0-8.965,9.949ZM-3.311,14H-5.435V6.075h2.124ZM-5.559,4.024a1.042,1.042,0,0,1,.319-.784,1.2,1.2,0,0,1,.868-.308,1.2,1.2,0,0,1,.864.308,1.036,1.036,0,0,1,.322.784,1.039,1.039,0,0,1-.326.791,1.2,1.2,0,0,1-.861.308,1.2,1.2,0,0,1-.861-.308A1.039,1.039,0,0,1-5.559,4.024ZM2.08,14.146A3.89,3.89,0,0,1-.758,13.077a3.8,3.8,0,0,1-1.095-2.849v-.205a4.787,4.787,0,0,1,.461-2.135A3.386,3.386,0,0,1-.084,6.438a3.669,3.669,0,0,1,1.93-.509,3.289,3.289,0,0,1,2.56,1.025,4.167,4.167,0,0,1,.934,2.908v.864H.293a1.966,1.966,0,0,0,.619,1.245,1.871,1.871,0,0,0,1.307.469,2.285,2.285,0,0,0,1.912-.886l1.04,1.165a3.178,3.178,0,0,1-1.289,1.051A4.229,4.229,0,0,1,2.08,14.146ZM1.838,7.635a1.323,1.323,0,0,0-1.022.427,2.209,2.209,0,0,0-.5,1.221H3.259V9.114a1.576,1.576,0,0,0-.381-1.092A1.365,1.365,0,0,0,1.838,7.635Zm9.155.425A5.751,5.751,0,0,0,10.232,8a1.55,1.55,0,0,0-1.575.813V14H6.541V6.075h2L8.6,7.02a1.961,1.961,0,0,1,1.765-1.091,2.218,2.218,0,0,1,.659.1Zm3.918-3.933V6.075h1.355V7.628H14.912v3.955a.944.944,0,0,0,.168.63.846.846,0,0,0,.645.19,3.376,3.376,0,0,0,.623-.051v1.6a4.358,4.358,0,0,1-1.282.19A2.021,2.021,0,0,1,12.8,11.9V7.628H11.638V6.075H12.8V4.127ZM16.9,9.964a4.7,4.7,0,0,1,.454-2.1,3.324,3.324,0,0,1,1.307-1.428,3.814,3.814,0,0,1,1.981-.505,3.609,3.609,0,0,1,2.618.981A3.939,3.939,0,0,1,24.39,9.576l.015.542a4.142,4.142,0,0,1-1.018,2.926,3.539,3.539,0,0,1-2.732,1.1,3.556,3.556,0,0,1-2.736-1.1A4.215,4.215,0,0,1,16.9,10.06Zm2.117.15a2.962,2.962,0,0,0,.425,1.727,1.526,1.526,0,0,0,2.417.007,3.241,3.241,0,0,0,.432-1.889,2.933,2.933,0,0,0-.432-1.716,1.4,1.4,0,0,0-1.216-.609,1.382,1.382,0,0,0-1.2.605A3.3,3.3,0,0,0,19.014,10.115Z" transform="translate(383.003 281.459)" fill="#12263f"/>
    <path id="Trazado_116634" data-name="Trazado 116634" d="M-28.848.2A5.187,5.187,0,0,1-32.632-1.23a5.068,5.068,0,0,1-1.46-3.8V-5.3a6.383,6.383,0,0,1,.615-2.847,4.515,4.515,0,0,1,1.743-1.934,4.893,4.893,0,0,1,2.573-.679,4.385,4.385,0,0,1,3.413,1.367A5.555,5.555,0,0,1-24.5-5.518v1.152H-31.23a2.622,2.622,0,0,0,.825,1.66,2.5,2.5,0,0,0,1.743.625,3.046,3.046,0,0,0,2.549-1.182l1.387,1.553a4.237,4.237,0,0,1-1.719,1.4A5.639,5.639,0,0,1-28.848.2Zm-.322-8.682a1.764,1.764,0,0,0-1.362.569A2.946,2.946,0,0,0-31.2-6.289h3.926v-.226a2.1,2.1,0,0,0-.508-1.457A1.819,1.819,0,0,0-29.17-8.486Zm8.867-2.08.088,1.221a3.689,3.689,0,0,1,3.037-1.416,3.066,3.066,0,0,1,2.5.986,4.6,4.6,0,0,1,.84,2.949V0H-16.66V-6.773a1.838,1.838,0,0,0-.391-1.307,1.746,1.746,0,0,0-1.3-.406,1.941,1.941,0,0,0-1.787,1.018V0h-2.822V-10.566Zm11.982-2.6v2.6h1.807V-8.5H-8.32v5.273a1.259,1.259,0,0,0,.225.84,1.128,1.128,0,0,0,.859.254,4.5,4.5,0,0,0,.83-.068V-.059A5.81,5.81,0,0,1-8.115.2q-2.969,0-3.027-3V-8.5h-1.543v-2.07h1.543v-2.6Zm2.646,7.783a6.266,6.266,0,0,1,.605-2.8,4.432,4.432,0,0,1,1.743-1.9,5.086,5.086,0,0,1,2.642-.674A4.812,4.812,0,0,1,2.808-9.453,5.252,5.252,0,0,1,4.316-5.9l.02.723a5.523,5.523,0,0,1-1.357,3.9A4.718,4.718,0,0,1-.664.2,4.742,4.742,0,0,1-4.312-1.27,5.62,5.62,0,0,1-5.674-5.254Zm2.822.2a3.95,3.95,0,0,0,.566,2.3,1.868,1.868,0,0,0,1.621.8,1.873,1.873,0,0,0,1.6-.787,4.322,4.322,0,0,0,.576-2.518A3.91,3.91,0,0,0,.938-7.675,1.873,1.873,0,0,0-.684-8.486a1.842,1.842,0,0,0-1.6.807A4.395,4.395,0,0,0-2.852-5.181ZM12.012-7.92A7.667,7.667,0,0,0,11-8,2.067,2.067,0,0,0,8.9-6.914V0H6.074V-10.566H8.74l.078,1.26a2.615,2.615,0,0,1,2.354-1.455,2.957,2.957,0,0,1,.879.127Zm3.955-2.646.088,1.221a3.689,3.689,0,0,1,3.037-1.416,3.066,3.066,0,0,1,2.5.986,4.6,4.6,0,0,1,.84,2.949V0H19.609V-6.773a1.838,1.838,0,0,0-.391-1.307,1.746,1.746,0,0,0-1.3-.406,1.941,1.941,0,0,0-1.787,1.018V0H13.311V-10.566Zm8.164,5.186a6.266,6.266,0,0,1,.605-2.8,4.432,4.432,0,0,1,1.743-1.9,5.086,5.086,0,0,1,2.642-.674,4.812,4.812,0,0,1,3.491,1.309A5.252,5.252,0,0,1,34.121-5.9l.02.723a5.523,5.523,0,0,1-1.357,3.9A4.718,4.718,0,0,1,29.141.2,4.742,4.742,0,0,1,25.493-1.27a5.62,5.62,0,0,1-1.362-3.984Zm2.822.2a3.95,3.95,0,0,0,.566,2.3,1.868,1.868,0,0,0,1.621.8,1.873,1.873,0,0,0,1.6-.787,4.322,4.322,0,0,0,.576-2.518,3.91,3.91,0,0,0-.576-2.289,1.873,1.873,0,0,0-1.621-.812,1.842,1.842,0,0,0-1.6.807A4.395,4.395,0,0,0,26.953-5.181Z" transform="translate(206.305 224.092)" fill="#12263f"/>
    <g id="Elipse_4716" data-name="Elipse 4716" transform="translate(43.171 24.797)" fill="none" stroke="#039be5" stroke-width="3">
      <circle cx="79.376" cy="79.376" r="79.376" stroke="none"/>
      <circle cx="79.376" cy="79.376" r="77.876" fill="none"/>
    </g>
    <g id="Elipse_4717" data-name="Elipse 4717" transform="translate(276.762 205.092)" fill="none" stroke="#039be5" stroke-width="3">
      <circle cx="73.706" cy="73.706" r="73.706" stroke="none"/>
      <circle cx="73.706" cy="73.706" r="72.206" fill="none"/>
    </g>
    <g id="Grupo_78409" data-name="Grupo 78409" transform="translate(28.851 0)">
      <path id="Trazado_113194" data-name="Trazado 113194" d="M-2267.963-7171.657c-8.785,0-19.364-2.782-24.984-4.476l2.616-8.686c12.376,3.721,25.734,5.279,28.024,3.27,2.081-2.292,1.571-15.268-1.09-27.206l8.854-1.974c1.433,6.428,5.591,27.971-1.07,35.3C-2258.146-7172.642-2262.737-7171.657-2267.963-7171.657Z" transform="translate(2292.947 7224.795)" fill="#4dd0e1"/>
      <path id="Polígono_10" data-name="Polígono 10" d="M10.3,0,20.6,14.983H0Z" transform="matrix(0.985, -0.174, 0.174, 0.985, 21.166, 3.577)" fill="#4dd0e1"/>
    </g>
    <g id="Grupo_78410" data-name="Grupo 78410" transform="matrix(0.259, -0.966, 0.966, 0.259, 72.259, 67.066)">
      <path id="Trazado_113194-2" data-name="Trazado 113194" d="M38.4,39.073,29.549,37.1c2.7-12.157,3.2-24.88,1.071-27.227-2.235-1.959-15.854-.37-28,3.29L0,4.476c8.964-2.7,30.545-8.174,37.333-.7C43.994,11.1,39.836,32.644,38.4,39.073Z" transform="translate(0 0)" fill="#4dd0e1"/>
      <path id="Polígono_10-2" data-name="Polígono 10" d="M10.3,0,20.6,14.982H0Z" transform="matrix(-0.985, -0.174, 0.174, -0.985, 41.454, 53.14)" fill="#4dd0e1"/>
    </g>
    <g id="Grupo_78412" data-name="Grupo 78412" transform="translate(133.576 139.954)">
      <path id="Línea_149" data-name="Línea 149" d="M30.158,34.328-2.726,3.712,3.456-2.928,36.34,27.689Z" transform="translate(12.418 12.585)" fill="#4dd0e1"/>
      <path id="Polígono_11" data-name="Polígono 11" d="M10.3,0,20.6,14.982H0Z" transform="translate(0 15.067) rotate(-47)" fill="#4dd0e1"/>
    </g>
    <g id="Grupo_78414" data-name="Grupo 78414" transform="translate(378.914 304.996)">
      <path id="Línea_149-2" data-name="Línea 149" d="M30.03,34.591-2.744,3.69l6.223-6.6,32.774,30.9Z" transform="translate(12.136 12.253)" fill="#1565c0"/>
      <path id="Polígono_11-2" data-name="Polígono 11" d="M10.3,0,20.6,14.982H0Z" transform="translate(0 15.067) rotate(-47)" fill="#1565c0"/>
    </g>
    <g id="Grupo_78415" data-name="Grupo 78415" transform="matrix(0.788, 0.616, -0.616, 0.788, 334.886, 162.602)">
      <path id="Línea_149-3" data-name="Línea 149" d="M32.774,37.5,0,6.6,6.223,0,39,30.9Z" transform="translate(9.392 9.342)" fill="#1565c0"/>
      <path id="Polígono_11-3" data-name="Polígono 11" d="M10.3,0,20.6,14.982H0Z" transform="translate(0 15.067) rotate(-47)" fill="#1565c0"/>
    </g>
    <g id="Grupo_78416" data-name="Grupo 78416" transform="matrix(-0.883, 0.469, -0.469, -0.883, 317.442, 285.002)">
      <path id="Línea_149-4" data-name="Línea 149" d="M32.774,37.5,0,6.6,6.223,0,39,30.9Z" transform="translate(9.392 9.342)" fill="#1565c0"/>
      <path id="Polígono_11-4" data-name="Polígono 11" d="M10.3,0,20.6,14.982H0Z" transform="translate(0 15.067) rotate(-47)" fill="#1565c0"/>
    </g>
    <g id="Grupo_78411" data-name="Grupo 78411" transform="translate(38.827 149.296)">
      <path id="Línea_148" data-name="Línea 148" d="M3.479,34.591l-6.223-6.6L30.03-2.91l6.223,6.6Z" transform="translate(12.338 2.91)" fill="#4dd0e1"/>
      <path id="Polígono_12" data-name="Polígono 12" d="M10.3,0,20.6,14.982H0Z" transform="matrix(-0.766, -0.643, 0.643, -0.766, 15.781, 47.403)" fill="#4dd0e1"/>
    </g>
    <g id="Grupo_78413" data-name="Grupo 78413" transform="translate(271.962 324.313)">
      <path id="Línea_148-2" data-name="Línea 148" d="M3.479,34.591l-6.223-6.6L30.03-2.91l6.223,6.6Z" transform="translate(12.338 2.91)" fill="#1565c0"/>
      <path id="Polígono_12-2" data-name="Polígono 12" d="M10.3,0,20.6,14.982H0Z" transform="matrix(-0.766, -0.643, 0.643, -0.766, 15.781, 47.403)" fill="#1565c0"/>
    </g>
  </g>
</svg>
