<svg xmlns="http://www.w3.org/2000/svg" width="535" height="457" viewBox="0 0 535 457">
  <g id="Grupo_79287" data-name="Grupo 79287" transform="translate(-8347 9502)">
    <g id="Elipse_4771" data-name="Elipse 4771" transform="translate(8404 -9466)" fill="none" stroke="#039be5" stroke-width="5">
      <circle cx="199" cy="199" r="199" stroke="none"/>
      <circle cx="199" cy="199" r="196.5" fill="none"/>
    </g>
    <path id="Rectángulo_34016" data-name="Rectángulo 34016" d="M0,0H62A14,14,0,0,1,76,14V77A14,14,0,0,1,62,91H0a0,0,0,0,1,0,0V0A0,0,0,0,1,0,0Z" transform="translate(8600 -9502)" fill="#1565c0"/>
    <path id="Rectángulo_34017" data-name="Rectángulo 34017" d="M0,0H62A14,14,0,0,1,76,14V82A14,14,0,0,1,62,96H0a0,0,0,0,1,0,0V0A0,0,0,0,1,0,0Z" transform="translate(8764 -9416)" fill="#1565c0"/>
    <path id="Rectángulo_34018" data-name="Rectángulo 34018" d="M0,0H80A14,14,0,0,1,94,14v94a14,14,0,0,1-14,14H0a0,0,0,0,1,0,0V0A0,0,0,0,1,0,0Z" transform="translate(8788 -9285)" fill="#1565c0"/>
    <path id="Rectángulo_34019" data-name="Rectángulo 34019" d="M0,0H70A14,14,0,0,1,84,14V85A14,14,0,0,1,70,99H0a0,0,0,0,1,0,0V0A0,0,0,0,1,0,0Z" transform="translate(8677 -9144)" fill="#1565c0"/>
    <path id="Rectángulo_34020" data-name="Rectángulo 34020" d="M0,0H43A14,14,0,0,1,57,14V71A14,14,0,0,1,43,85H0a0,0,0,0,1,0,0V0A0,0,0,0,1,0,0Z" transform="translate(8493 -9161)" fill="#1565c0"/>
    <path id="Rectángulo_34021" data-name="Rectángulo 34021" d="M0,0H57A14,14,0,0,1,71,14V94a14,14,0,0,1-14,14H0a0,0,0,0,1,0,0V0A0,0,0,0,1,0,0Z" transform="translate(8415 -9305)" fill="#1565c0"/>
    <path id="Rectángulo_34022" data-name="Rectángulo 34022" d="M0,0H48A14,14,0,0,1,62,14V72A14,14,0,0,1,48,86H0a0,0,0,0,1,0,0V0A0,0,0,0,1,0,0Z" transform="translate(8440 -9411)" fill="#1565c0"/>
    <g id="Grupo_79285" data-name="Grupo 79285" transform="translate(3 50)">
      <rect id="Rectángulo_33787" data-name="Rectángulo 33787" width="133" height="81" rx="13" transform="translate(8534 -9547)" fill="#4dd0e1"/>
      <path id="Trazado_116679" data-name="Trazado 116679" d="M-45.44,0h-1.969V-14.93h1.969Zm2.84-5.64a6.5,6.5,0,0,1,1.21-4.107A3.826,3.826,0,0,1-38.221-11.3a3.848,3.848,0,0,1,3.086,1.333V-15.75h1.9V0h-1.743l-.092-1.189A3.863,3.863,0,0,1-38.242.205a3.789,3.789,0,0,1-3.143-1.579A6.573,6.573,0,0,1-42.6-5.5Zm1.9.215a4.921,4.921,0,0,0,.779,2.953A2.519,2.519,0,0,0-37.77-1.4a2.767,2.767,0,0,0,2.635-1.62v-5.1A2.789,2.789,0,0,0-37.75-9.69a2.531,2.531,0,0,0-2.174,1.077A5.418,5.418,0,0,0-40.7-5.424ZM-25.691.205a4.848,4.848,0,0,1-3.671-1.482A5.5,5.5,0,0,1-30.777-5.24v-.349a6.658,6.658,0,0,1,.631-2.948,4.919,4.919,0,0,1,1.764-2.03,4.434,4.434,0,0,1,2.456-.733,4.155,4.155,0,0,1,3.363,1.425,6.171,6.171,0,0,1,1.2,4.081V-5H-28.88a3.944,3.944,0,0,0,.959,2.651,3.014,3.014,0,0,0,2.333,1.01,3.3,3.3,0,0,0,1.7-.41,4.277,4.277,0,0,0,1.22-1.087l1.159.9A4.659,4.659,0,0,1-25.691.205Zm-.236-9.946a2.53,2.53,0,0,0-1.928.836,4.062,4.062,0,0,0-.964,2.343h5.558v-.144a3.613,3.613,0,0,0-.779-2.24A2.382,2.382,0,0,0-25.927-9.741Zm8.552-1.354.062,1.395a4.043,4.043,0,0,1,3.322-1.6q3.517,0,3.548,3.968V0h-1.9V-7.342a2.554,2.554,0,0,0-.549-1.774,2.2,2.2,0,0,0-1.677-.574,2.738,2.738,0,0,0-1.62.492,3.342,3.342,0,0,0-1.087,1.292V0h-1.9V-11.095Zm12.366-2.687v2.687h2.071v1.466H-5.009v6.889a1.54,1.54,0,0,0,.277,1,1.165,1.165,0,0,0,.943.334,4.593,4.593,0,0,0,.9-.123V0a5.532,5.532,0,0,1-1.456.2A2.362,2.362,0,0,1-6.26-.564a3.3,3.3,0,0,1-.646-2.184v-6.88h-2.02v-1.466h2.02v-2.687ZM1.338,0h-1.9V-11.095h1.9ZM-.713-14.038a1.132,1.132,0,0,1,.282-.779,1.059,1.059,0,0,1,.836-.318,1.075,1.075,0,0,1,.841.318,1.12,1.12,0,0,1,.287.779,1.084,1.084,0,0,1-.287.769,1.1,1.1,0,0,1-.841.308,1.078,1.078,0,0,1-.836-.308A1.1,1.1,0,0,1-.713-14.038ZM5.009,0V-9.628H3.256v-1.466H5.009v-.943A3.854,3.854,0,0,1,6.07-14.93a4.115,4.115,0,0,1,3-1.036,9.031,9.031,0,0,1,2.9.625l-.318,1.6a6.572,6.572,0,0,0-2.44-.513,2.388,2.388,0,0,0-1.759.549,2.262,2.262,0,0,0-.538,1.646v.964H9.182v1.466H6.916V0Zm7.906,0H11.008V-11.095h1.907Zm7.537-1.343a2.732,2.732,0,0,0,1.774-.615A2.164,2.164,0,0,0,23.066-3.5h1.794A3.44,3.44,0,0,1,24.2-1.682,4.322,4.322,0,0,1,22.589-.308a4.66,4.66,0,0,1-2.138.513,4.57,4.57,0,0,1-3.6-1.512,6.024,6.024,0,0,1-1.338-4.137v-.318A6.679,6.679,0,0,1,16.1-8.644,4.53,4.53,0,0,1,17.811-10.6a4.85,4.85,0,0,1,2.63-.7,4.45,4.45,0,0,1,3.1,1.118,3.994,3.994,0,0,1,1.318,2.9H23.066a2.614,2.614,0,0,0-.815-1.769,2.536,2.536,0,0,0-1.81-.692A2.655,2.655,0,0,0,18.2-8.7a4.888,4.888,0,0,0-.795,3.01v.359a4.79,4.79,0,0,0,.79,2.953A2.668,2.668,0,0,0,20.451-1.343ZM33.843,0a3.985,3.985,0,0,1-.267-1.169A4.233,4.233,0,0,1,30.418.205a3.916,3.916,0,0,1-2.692-.928,3,3,0,0,1-1.051-2.353,3.136,3.136,0,0,1,1.318-2.692A6.212,6.212,0,0,1,31.7-6.727h1.846V-7.6a2.131,2.131,0,0,0-.595-1.584,2.39,2.39,0,0,0-1.753-.59,2.766,2.766,0,0,0-1.7.513,1.511,1.511,0,0,0-.687,1.241H26.9a2.618,2.618,0,0,1,.59-1.6,4.024,4.024,0,0,1,1.6-1.225,5.381,5.381,0,0,1,2.22-.451,4.386,4.386,0,0,1,3,.959A3.458,3.458,0,0,1,35.443-7.7v5.106a6.243,6.243,0,0,0,.39,2.43V0ZM30.7-1.446a3.334,3.334,0,0,0,1.692-.461,2.791,2.791,0,0,0,1.159-1.2V-5.383H32.059q-3.486,0-3.486,2.041a1.727,1.727,0,0,0,.595,1.395A2.286,2.286,0,0,0,30.7-1.446ZM43.779-9.393a5.685,5.685,0,0,0-.933-.072,2.5,2.5,0,0,0-2.533,1.589V0h-1.9V-11.095h1.846l.031,1.282A2.954,2.954,0,0,1,42.938-11.3a1.938,1.938,0,0,1,.841.144ZM-32.4,26.576a6.643,6.643,0,0,1-1.159,4.081,3.714,3.714,0,0,1-3.138,1.548,4.069,4.069,0,0,1-3.179-1.282v5.342h-1.9V20.905h1.733l.092,1.23a3.908,3.908,0,0,1,3.22-1.436,3.783,3.783,0,0,1,3.163,1.507A6.716,6.716,0,0,1-32.4,26.4Zm-1.9-.215a4.9,4.9,0,0,0-.8-2.963,2.576,2.576,0,0,0-2.194-1.087,2.789,2.789,0,0,0-2.584,1.528v5.3a2.794,2.794,0,0,0,2.6,1.518A2.564,2.564,0,0,0-35.1,29.575,5.351,5.351,0,0,0-34.294,26.36Zm9.669-3.753a5.685,5.685,0,0,0-.933-.072,2.5,2.5,0,0,0-2.533,1.589V32h-1.9V20.905h1.846l.031,1.282A2.954,2.954,0,0,1-25.466,20.7a1.938,1.938,0,0,1,.841.144Zm1.036,3.743a6.553,6.553,0,0,1,.641-2.933,4.781,4.781,0,0,1,1.784-2.01,4.857,4.857,0,0,1,2.61-.708,4.679,4.679,0,0,1,3.666,1.569,6.036,6.036,0,0,1,1.4,4.173v.133a6.61,6.61,0,0,1-.62,2.907,4.71,4.71,0,0,1-1.774,2,4.913,4.913,0,0,1-2.651.718,4.667,4.667,0,0,1-3.656-1.569,6.005,6.005,0,0,1-1.4-4.153Zm1.907.226a4.746,4.746,0,0,0,.856,2.963,2.74,2.74,0,0,0,2.292,1.118,2.724,2.724,0,0,0,2.3-1.133,5.19,5.19,0,0,0,.851-3.174,4.738,4.738,0,0,0-.866-2.958,2.755,2.755,0,0,0-2.3-1.133,2.724,2.724,0,0,0-2.266,1.118A5.152,5.152,0,0,0-21.682,26.576ZM-6.66,30.657a2.732,2.732,0,0,0,1.774-.615A2.164,2.164,0,0,0-4.045,28.5h1.794a3.44,3.44,0,0,1-.656,1.815,4.322,4.322,0,0,1-1.615,1.374,4.66,4.66,0,0,1-2.138.513,4.57,4.57,0,0,1-3.6-1.512A6.024,6.024,0,0,1-11.6,26.555v-.318a6.679,6.679,0,0,1,.595-2.881A4.53,4.53,0,0,1-9.3,21.4a4.85,4.85,0,0,1,2.63-.7,4.45,4.45,0,0,1,3.1,1.118,3.994,3.994,0,0,1,1.318,2.9H-4.045a2.614,2.614,0,0,0-.815-1.769,2.536,2.536,0,0,0-1.81-.692A2.655,2.655,0,0,0-8.911,23.3a4.888,4.888,0,0,0-.795,3.01v.359a4.79,4.79,0,0,0,.79,2.953A2.668,2.668,0,0,0-6.66,30.657ZM4.486,32.205A4.848,4.848,0,0,1,.815,30.723,5.5,5.5,0,0,1-.6,26.76v-.349a6.658,6.658,0,0,1,.631-2.948,4.919,4.919,0,0,1,1.764-2.03A4.434,4.434,0,0,1,4.25,20.7a4.155,4.155,0,0,1,3.363,1.425,6.171,6.171,0,0,1,1.2,4.081V27H1.3a3.944,3.944,0,0,0,.959,2.651,3.014,3.014,0,0,0,2.333,1.01,3.3,3.3,0,0,0,1.7-.41,4.277,4.277,0,0,0,1.22-1.087l1.159.9A4.659,4.659,0,0,1,4.486,32.205ZM4.25,22.259a2.53,2.53,0,0,0-1.928.836,4.062,4.062,0,0,0-.964,2.343H6.916v-.144a3.613,3.613,0,0,0-.779-2.24A2.382,2.382,0,0,0,4.25,22.259Zm13.217,6.8a1.4,1.4,0,0,0-.579-1.195,5.576,5.576,0,0,0-2.02-.733,9.551,9.551,0,0,1-2.287-.738,3.253,3.253,0,0,1-1.251-1.025,2.453,2.453,0,0,1-.405-1.415,2.878,2.878,0,0,1,1.154-2.307,4.505,4.505,0,0,1,2.948-.943,4.636,4.636,0,0,1,3.061.974,3.094,3.094,0,0,1,1.174,2.492H17.355a1.713,1.713,0,0,0-.661-1.343,2.478,2.478,0,0,0-1.666-.564,2.593,2.593,0,0,0-1.62.451,1.42,1.42,0,0,0-.584,1.179,1.151,1.151,0,0,0,.543,1.036,6.687,6.687,0,0,0,1.964.667,10.231,10.231,0,0,1,2.3.759,3.358,3.358,0,0,1,1.307,1.061,2.609,2.609,0,0,1,.426,1.512,2.839,2.839,0,0,1-1.189,2.384,4.989,4.989,0,0,1-3.086.9,5.587,5.587,0,0,1-2.358-.472,3.836,3.836,0,0,1-1.6-1.318,3.176,3.176,0,0,1-.579-1.83h1.9a1.964,1.964,0,0,0,.764,1.512,2.964,2.964,0,0,0,1.882.559,3.059,3.059,0,0,0,1.728-.436A1.339,1.339,0,0,0,17.468,29.057Zm3.866-2.707a6.553,6.553,0,0,1,.641-2.933,4.781,4.781,0,0,1,1.784-2.01,4.857,4.857,0,0,1,2.61-.708,4.679,4.679,0,0,1,3.666,1.569,6.036,6.036,0,0,1,1.4,4.173v.133a6.61,6.61,0,0,1-.62,2.907,4.71,4.71,0,0,1-1.774,2,4.913,4.913,0,0,1-2.651.718,4.667,4.667,0,0,1-3.656-1.569,6.005,6.005,0,0,1-1.4-4.153Zm1.907.226a4.746,4.746,0,0,0,.856,2.963,2.9,2.9,0,0,0,4.589-.015,5.19,5.19,0,0,0,.851-3.174,4.738,4.738,0,0,0-.866-2.958,2.755,2.755,0,0,0-2.3-1.133A2.724,2.724,0,0,0,24.1,23.376,5.152,5.152,0,0,0,23.24,26.576Zm17.032,2.481a1.4,1.4,0,0,0-.579-1.195,5.576,5.576,0,0,0-2.02-.733,9.551,9.551,0,0,1-2.287-.738,3.253,3.253,0,0,1-1.251-1.025,2.453,2.453,0,0,1-.405-1.415,2.878,2.878,0,0,1,1.154-2.307,4.505,4.505,0,0,1,2.948-.943,4.636,4.636,0,0,1,3.061.974,3.094,3.094,0,0,1,1.174,2.492H40.159a1.713,1.713,0,0,0-.661-1.343,2.478,2.478,0,0,0-1.666-.564,2.593,2.593,0,0,0-1.62.451,1.42,1.42,0,0,0-.584,1.179,1.151,1.151,0,0,0,.543,1.036,6.687,6.687,0,0,0,1.964.667,10.231,10.231,0,0,1,2.3.759,3.358,3.358,0,0,1,1.307,1.061,2.609,2.609,0,0,1,.426,1.512,2.839,2.839,0,0,1-1.189,2.384,4.989,4.989,0,0,1-3.086.9,5.587,5.587,0,0,1-2.358-.472,3.836,3.836,0,0,1-1.6-1.318,3.176,3.176,0,0,1-.579-1.83h1.9a1.964,1.964,0,0,0,.764,1.512,2.964,2.964,0,0,0,1.882.559,3.059,3.059,0,0,0,1.728-.436A1.339,1.339,0,0,0,40.272,29.057Z" transform="translate(8601 -9515)" fill="#12263f"/>
    </g>
    <g id="Grupo_79284" data-name="Grupo 79284" transform="translate(-51 39)">
      <rect id="Rectángulo_33820" data-name="Rectángulo 33820" width="151" height="88" rx="13" transform="translate(8734 -9451)" fill="#4dd0e1"/>
      <path id="Trazado_116680" data-name="Trazado 116680" d="M-52.669,0V-14.93h4.214a6.784,6.784,0,0,1,3.445.861A5.825,5.825,0,0,1-42.7-11.618a7.977,7.977,0,0,1,.825,3.65v.954a8,8,0,0,1-.815,3.7,5.734,5.734,0,0,1-2.328,2.44A7.216,7.216,0,0,1-48.537,0ZM-50.7-13.32V-1.61h2.071a4.507,4.507,0,0,0,3.543-1.416A5.851,5.851,0,0,0-43.82-7.059v-.872a5.944,5.944,0,0,0-1.195-3.956A4.251,4.251,0,0,0-48.4-13.32ZM-34.592.205a4.848,4.848,0,0,1-3.671-1.482A5.5,5.5,0,0,1-39.677-5.24v-.349a6.658,6.658,0,0,1,.631-2.948,4.919,4.919,0,0,1,1.764-2.03,4.434,4.434,0,0,1,2.456-.733,4.155,4.155,0,0,1,3.363,1.425,6.171,6.171,0,0,1,1.2,4.081V-5h-7.516a3.944,3.944,0,0,0,.959,2.651,3.014,3.014,0,0,0,2.333,1.01,3.3,3.3,0,0,0,1.7-.41,4.277,4.277,0,0,0,1.22-1.087l1.159.9A4.659,4.659,0,0,1-34.592.205Zm-.236-9.946a2.53,2.53,0,0,0-1.928.836,4.062,4.062,0,0,0-.964,2.343h5.558v-.144a3.613,3.613,0,0,0-.779-2.24A2.382,2.382,0,0,0-34.827-9.741Zm9.331-4.04v2.687h2.071v1.466H-25.5v6.889a1.54,1.54,0,0,0,.277,1,1.165,1.165,0,0,0,.943.334,4.593,4.593,0,0,0,.9-.123V0a5.532,5.532,0,0,1-1.456.2,2.362,2.362,0,0,1-1.917-.769,3.3,3.3,0,0,1-.646-2.184v-6.88h-2.02v-1.466h2.02v-2.687ZM-16.606.205a4.848,4.848,0,0,1-3.671-1.482A5.5,5.5,0,0,1-21.692-5.24v-.349a6.658,6.658,0,0,1,.631-2.948,4.919,4.919,0,0,1,1.764-2.03,4.434,4.434,0,0,1,2.456-.733,4.155,4.155,0,0,1,3.363,1.425,6.171,6.171,0,0,1,1.2,4.081V-5H-19.8a3.944,3.944,0,0,0,.959,2.651A3.014,3.014,0,0,0-16.5-1.343a3.3,3.3,0,0,0,1.7-.41,4.277,4.277,0,0,0,1.22-1.087l1.159.9A4.659,4.659,0,0,1-16.606.205Zm-.236-9.946a2.53,2.53,0,0,0-1.928.836,4.062,4.062,0,0,0-.964,2.343h5.558v-.144a3.613,3.613,0,0,0-.779-2.24A2.382,2.382,0,0,0-16.842-9.741Zm12.12.349a5.685,5.685,0,0,0-.933-.072A2.5,2.5,0,0,0-8.188-7.875V0h-1.9V-11.095h1.846l.031,1.282A2.954,2.954,0,0,1-5.563-11.3a1.938,1.938,0,0,1,.841.144Zm3.527-1.7.051,1.23A4.1,4.1,0,0,1,2.148-11.3,3.172,3.172,0,0,1,5.317-9.516a4.2,4.2,0,0,1,1.441-1.292,4.255,4.255,0,0,1,2.1-.492q3.65,0,3.712,3.866V0h-1.9V-7.321A2.548,2.548,0,0,0,10.126-9.1,2.393,2.393,0,0,0,8.3-9.69a2.515,2.515,0,0,0-1.753.631,2.558,2.558,0,0,0-.81,1.7V0H3.83V-7.27A2.117,2.117,0,0,0,1.461-9.69,2.538,2.538,0,0,0-1.092-8.1V0h-1.9V-11.095ZM17.488,0h-1.9V-11.095h1.9ZM15.437-14.038a1.132,1.132,0,0,1,.282-.779,1.059,1.059,0,0,1,.836-.318,1.075,1.075,0,0,1,.841.318,1.12,1.12,0,0,1,.287.779,1.084,1.084,0,0,1-.287.769,1.1,1.1,0,0,1-.841.308,1.078,1.078,0,0,1-.836-.308A1.1,1.1,0,0,1,15.437-14.038Zm6.88,2.943L22.379-9.7A4.043,4.043,0,0,1,25.7-11.3q3.517,0,3.548,3.968V0h-1.9V-7.342A2.554,2.554,0,0,0,26.8-9.116a2.2,2.2,0,0,0-1.677-.574,2.738,2.738,0,0,0-1.62.492A3.342,3.342,0,0,0,22.42-7.906V0h-1.9V-11.095ZM38.96,0a3.985,3.985,0,0,1-.267-1.169A4.233,4.233,0,0,1,35.535.205a3.916,3.916,0,0,1-2.692-.928,3,3,0,0,1-1.051-2.353A3.136,3.136,0,0,1,33.11-5.768a6.212,6.212,0,0,1,3.707-.959h1.846V-7.6a2.131,2.131,0,0,0-.595-1.584,2.39,2.39,0,0,0-1.753-.59,2.766,2.766,0,0,0-1.7.513,1.511,1.511,0,0,0-.687,1.241H32.018a2.618,2.618,0,0,1,.59-1.6,4.024,4.024,0,0,1,1.6-1.225,5.381,5.381,0,0,1,2.22-.451,4.386,4.386,0,0,1,3,.959A3.458,3.458,0,0,1,40.559-7.7v5.106a6.243,6.243,0,0,0,.39,2.43V0ZM35.812-1.446A3.334,3.334,0,0,0,37.5-1.907a2.791,2.791,0,0,0,1.159-1.2V-5.383H37.176q-3.486,0-3.486,2.041a1.727,1.727,0,0,0,.595,1.395A2.286,2.286,0,0,0,35.812-1.446ZM48.9-9.393a5.685,5.685,0,0,0-.933-.072A2.5,2.5,0,0,0,45.43-7.875V0h-1.9V-11.095h1.846l.031,1.282A2.954,2.954,0,0,1,48.055-11.3a1.938,1.938,0,0,1,.841.144Zm-85.312,33.6a4.848,4.848,0,0,1-3.671-1.482A5.5,5.5,0,0,1-41.5,18.76v-.349a6.658,6.658,0,0,1,.631-2.948,4.919,4.919,0,0,1,1.764-2.03,4.434,4.434,0,0,1,2.456-.733,4.155,4.155,0,0,1,3.363,1.425,6.171,6.171,0,0,1,1.2,4.081V19h-7.516a3.944,3.944,0,0,0,.959,2.651,3.014,3.014,0,0,0,2.333,1.01,3.3,3.3,0,0,0,1.7-.41,4.277,4.277,0,0,0,1.22-1.087l1.159.9A4.659,4.659,0,0,1-36.417,24.205Zm-.236-9.946a2.53,2.53,0,0,0-1.928.836,4.062,4.062,0,0,0-.964,2.343h5.558v-.144a3.613,3.613,0,0,0-.779-2.24A2.382,2.382,0,0,0-36.653,14.259ZM-27.834,24h-1.9V8.25h1.9ZM-15,24.205a4.848,4.848,0,0,1-3.671-1.482,5.5,5.5,0,0,1-1.415-3.963v-.349a6.658,6.658,0,0,1,.631-2.948,4.919,4.919,0,0,1,1.764-2.03,4.434,4.434,0,0,1,2.456-.733,4.155,4.155,0,0,1,3.363,1.425,6.171,6.171,0,0,1,1.2,4.081V19h-7.516a3.944,3.944,0,0,0,.959,2.651,3.014,3.014,0,0,0,2.333,1.01,3.3,3.3,0,0,0,1.7-.41,4.277,4.277,0,0,0,1.22-1.087l1.159.9A4.659,4.659,0,0,1-15,24.205Zm-.236-9.946a2.53,2.53,0,0,0-1.928.836,4.062,4.062,0,0,0-.964,2.343h5.558v-.144a3.613,3.613,0,0,0-.779-2.24A2.382,2.382,0,0,0-15.232,14.259Zm6.3,4.1a6.512,6.512,0,0,1,1.2-4.137A3.888,3.888,0,0,1-4.517,12.7,3.885,3.885,0,0,1-1.41,14.023l.082-1.118H.415v15.36h-1.9V22.975a3.981,3.981,0,0,1-3.056,1.23,3.826,3.826,0,0,1-3.2-1.564,6.657,6.657,0,0,1-1.195-4.148Zm1.9.215a4.936,4.936,0,0,0,.8,2.994,2.56,2.56,0,0,0,2.169,1.087,2.841,2.841,0,0,0,2.584-1.5V15.725a2.849,2.849,0,0,0-2.563-1.466,2.58,2.58,0,0,0-2.184,1.092A5.374,5.374,0,0,0-7.039,18.576ZM10.31,22.9a4.029,4.029,0,0,1-3.25,1.3,3.449,3.449,0,0,1-2.7-1.031,4.461,4.461,0,0,1-.938-3.051V12.905h1.9v7.167q0,2.522,2.051,2.522a2.84,2.84,0,0,0,2.892-1.62v-8.07h1.9V24h-1.8ZM17.1,24H15.2V12.905h1.9ZM15.048,9.962a1.132,1.132,0,0,1,.282-.779,1.059,1.059,0,0,1,.836-.318,1.075,1.075,0,0,1,.841.318,1.12,1.12,0,0,1,.287.779,1.084,1.084,0,0,1-.287.769,1.1,1.1,0,0,1-.841.308,1.078,1.078,0,0,1-.836-.308A1.1,1.1,0,0,1,15.048,9.962Zm14.458,8.613a6.643,6.643,0,0,1-1.159,4.081,3.714,3.714,0,0,1-3.138,1.548,4.069,4.069,0,0,1-3.179-1.282v5.342h-1.9V12.905h1.733l.092,1.23a3.908,3.908,0,0,1,3.22-1.436,3.783,3.783,0,0,1,3.163,1.507A6.716,6.716,0,0,1,29.506,18.4Zm-1.9-.215a4.9,4.9,0,0,0-.8-2.963,2.576,2.576,0,0,0-2.194-1.087,2.789,2.789,0,0,0-2.584,1.528v5.3a2.794,2.794,0,0,0,2.6,1.518A2.564,2.564,0,0,0,26.8,21.575,5.351,5.351,0,0,0,27.609,18.36Zm3.8-.01a6.553,6.553,0,0,1,.641-2.933,4.781,4.781,0,0,1,1.784-2.01,4.857,4.857,0,0,1,2.61-.708,4.679,4.679,0,0,1,3.666,1.569,6.036,6.036,0,0,1,1.4,4.173v.133a6.61,6.61,0,0,1-.62,2.907,4.71,4.71,0,0,1-1.774,2,4.913,4.913,0,0,1-2.651.718,4.667,4.667,0,0,1-3.656-1.569,6.005,6.005,0,0,1-1.4-4.153Zm1.907.226a4.746,4.746,0,0,0,.856,2.963,2.9,2.9,0,0,0,4.589-.015,5.19,5.19,0,0,0,.851-3.174,4.738,4.738,0,0,0-.866-2.958,2.755,2.755,0,0,0-2.3-1.133,2.724,2.724,0,0,0-2.266,1.118A5.152,5.152,0,0,0,33.32,18.576ZM-45.7,42.36a6.5,6.5,0,0,1,1.21-4.107A3.826,3.826,0,0,1-41.318,36.7a3.848,3.848,0,0,1,3.086,1.333V32.25h1.9V48h-1.743l-.092-1.189a3.863,3.863,0,0,1-3.168,1.395,3.789,3.789,0,0,1-3.143-1.579A6.573,6.573,0,0,1-45.7,42.5Zm1.9.215a4.921,4.921,0,0,0,.779,2.953A2.519,2.519,0,0,0-40.867,46.6a2.767,2.767,0,0,0,2.635-1.62v-5.1a2.789,2.789,0,0,0-2.615-1.569,2.531,2.531,0,0,0-2.174,1.077A5.418,5.418,0,0,0-43.8,42.576Zm15.012,5.629a4.848,4.848,0,0,1-3.671-1.482,5.5,5.5,0,0,1-1.415-3.963v-.349a6.658,6.658,0,0,1,.631-2.948,4.919,4.919,0,0,1,1.764-2.03,4.434,4.434,0,0,1,2.456-.733,4.155,4.155,0,0,1,3.363,1.425,6.171,6.171,0,0,1,1.2,4.081V43h-7.516a3.944,3.944,0,0,0,.959,2.651,3.014,3.014,0,0,0,2.333,1.01,3.3,3.3,0,0,0,1.7-.41,4.277,4.277,0,0,0,1.22-1.087l1.159.9A4.659,4.659,0,0,1-28.788,48.205Zm-.236-9.946a2.53,2.53,0,0,0-1.928.836,4.062,4.062,0,0,0-.964,2.343h5.558v-.144a3.613,3.613,0,0,0-.779-2.24A2.382,2.382,0,0,0-29.024,38.259Zm14.53-4.04v2.687h2.071v1.466h-2.071v6.889a1.54,1.54,0,0,0,.277,1,1.165,1.165,0,0,0,.943.334,4.593,4.593,0,0,0,.9-.123V48a5.532,5.532,0,0,1-1.456.2,2.362,2.362,0,0,1-1.917-.769,3.3,3.3,0,0,1-.646-2.184v-6.88h-2.02V36.905h2.02V34.219Zm9.649,4.389a5.685,5.685,0,0,0-.933-.072,2.5,2.5,0,0,0-2.533,1.589V48h-1.9V36.905h1.846l.031,1.282A2.954,2.954,0,0,1-5.686,36.7a1.938,1.938,0,0,1,.841.144ZM3.338,48a3.985,3.985,0,0,1-.267-1.169A4.233,4.233,0,0,1-.087,48.205a3.916,3.916,0,0,1-2.692-.928A3,3,0,0,1-3.83,44.924a3.136,3.136,0,0,1,1.318-2.692,6.212,6.212,0,0,1,3.707-.959H3.04V40.4a2.131,2.131,0,0,0-.595-1.584,2.39,2.39,0,0,0-1.753-.59,2.766,2.766,0,0,0-1.7.513A1.511,1.511,0,0,0-1.7,39.981H-3.6a2.618,2.618,0,0,1,.59-1.6,4.024,4.024,0,0,1,1.6-1.225A5.381,5.381,0,0,1,.8,36.7a4.386,4.386,0,0,1,3,.959A3.458,3.458,0,0,1,4.937,40.3v5.106a6.243,6.243,0,0,0,.39,2.43V48ZM.19,46.554a3.334,3.334,0,0,0,1.692-.461,2.791,2.791,0,0,0,1.159-1.2V42.617H1.553q-3.486,0-3.486,2.041a1.727,1.727,0,0,0,.595,1.395A2.286,2.286,0,0,0,.19,46.554ZM17.3,42.576a6.6,6.6,0,0,1-1.169,4.086A3.735,3.735,0,0,1,13,48.205a3.868,3.868,0,0,1-3.25-1.487L9.654,48H7.911V32.25h1.9v5.875A3.846,3.846,0,0,1,12.976,36.7a3.758,3.758,0,0,1,3.174,1.528A6.8,6.8,0,0,1,17.3,42.412Zm-1.9-.215a5.126,5.126,0,0,0-.749-2.994A2.478,2.478,0,0,0,12.5,38.31a2.785,2.785,0,0,0-2.7,1.743v4.8A2.863,2.863,0,0,0,12.525,46.6a2.464,2.464,0,0,0,2.123-1.056A5.451,5.451,0,0,0,15.406,42.36ZM26.542,48a3.985,3.985,0,0,1-.267-1.169,4.233,4.233,0,0,1-3.158,1.374,3.916,3.916,0,0,1-2.692-.928,3,3,0,0,1-1.051-2.353,3.136,3.136,0,0,1,1.318-2.692,6.212,6.212,0,0,1,3.707-.959h1.846V40.4a2.131,2.131,0,0,0-.595-1.584,2.39,2.39,0,0,0-1.753-.59,2.766,2.766,0,0,0-1.7.513,1.511,1.511,0,0,0-.687,1.241H19.6a2.618,2.618,0,0,1,.59-1.6,4.024,4.024,0,0,1,1.6-1.225,5.381,5.381,0,0,1,2.22-.451,4.386,4.386,0,0,1,3,.959,3.458,3.458,0,0,1,1.128,2.64v5.106a6.243,6.243,0,0,0,.39,2.43V48Zm-3.148-1.446a3.334,3.334,0,0,0,1.692-.461,2.791,2.791,0,0,0,1.159-1.2V42.617H24.758q-3.486,0-3.486,2.041a1.727,1.727,0,0,0,.595,1.395A2.286,2.286,0,0,0,23.394,46.554Zm9.68-9.649V49.282q0,3.2-2.9,3.2a3.54,3.54,0,0,1-1.159-.183V50.789a3.667,3.667,0,0,0,.861.082,1.289,1.289,0,0,0,.969-.344,1.7,1.7,0,0,0,.333-1.2V36.905Zm-2.092-2.943a1.137,1.137,0,0,1,.282-.774,1.037,1.037,0,0,1,.825-.323,1.075,1.075,0,0,1,.841.318,1.12,1.12,0,0,1,.287.779,1.084,1.084,0,0,1-.287.769,1.1,1.1,0,0,1-.841.308,1.061,1.061,0,0,1-.831-.308A1.107,1.107,0,0,1,30.982,33.962Zm4.645,8.388a6.553,6.553,0,0,1,.641-2.933,4.781,4.781,0,0,1,1.784-2.01,4.857,4.857,0,0,1,2.61-.708,4.679,4.679,0,0,1,3.666,1.569,6.036,6.036,0,0,1,1.4,4.173v.133a6.61,6.61,0,0,1-.62,2.907,4.71,4.71,0,0,1-1.774,2,4.913,4.913,0,0,1-2.651.718,4.667,4.667,0,0,1-3.656-1.569,6.005,6.005,0,0,1-1.4-4.153Zm1.907.226a4.746,4.746,0,0,0,.856,2.963,2.9,2.9,0,0,0,4.589-.015,5.19,5.19,0,0,0,.851-3.174,4.738,4.738,0,0,0-.866-2.958,2.755,2.755,0,0,0-2.3-1.133A2.724,2.724,0,0,0,38.4,39.376,5.152,5.152,0,0,0,37.534,42.576Z" transform="translate(8811 -9424)" fill="#12263f"/>
    </g>
    <g id="Grupo_79280" data-name="Grupo 79280" transform="translate(-68 26)">
      <rect id="Rectángulo_33818" data-name="Rectángulo 33818" width="180" height="115" rx="13" transform="translate(8766 -9308)" fill="#4dd0e1"/>
      <path id="Trazado_116681" data-name="Trazado 116681" d="M-26.527-1.958A4.548,4.548,0,0,1-28.644-.333a8.553,8.553,0,0,1-3.163.538,6.135,6.135,0,0,1-3.24-.856,5.7,5.7,0,0,1-2.189-2.435,8.411,8.411,0,0,1-.795-3.661v-1.3a7.852,7.852,0,0,1,1.574-5.229,5.484,5.484,0,0,1,4.425-1.856A5.665,5.665,0,0,1-28.27-13.94a5.2,5.2,0,0,1,1.743,3.389H-28.5a3.255,3.255,0,0,0-3.527-2.974,3.485,3.485,0,0,0-3,1.391,6.79,6.79,0,0,0-1.031,4.028v1.221a6.363,6.363,0,0,0,1.148,4A3.723,3.723,0,0,0-31.8-1.4a6.862,6.862,0,0,0,1.938-.246,3,3,0,0,0,1.374-.829V-5.824h-3.456v-1.61h5.414ZM-18.939.205A4.848,4.848,0,0,1-22.61-1.277,5.5,5.5,0,0,1-24.025-5.24v-.349a6.658,6.658,0,0,1,.631-2.948,4.919,4.919,0,0,1,1.764-2.03,4.434,4.434,0,0,1,2.456-.733,4.155,4.155,0,0,1,3.363,1.425,6.171,6.171,0,0,1,1.2,4.081V-5h-7.516a3.944,3.944,0,0,0,.959,2.651,3.014,3.014,0,0,0,2.333,1.01,3.3,3.3,0,0,0,1.7-.41,4.277,4.277,0,0,0,1.22-1.087l1.159.9A4.659,4.659,0,0,1-18.939.205Zm-.236-9.946a2.53,2.53,0,0,0-1.928.836,4.062,4.062,0,0,0-.964,2.343h5.558v-.144a3.613,3.613,0,0,0-.779-2.24A2.382,2.382,0,0,0-19.175-9.741Zm8.552-1.354.062,1.395a4.043,4.043,0,0,1,3.322-1.6q3.517,0,3.548,3.968V0h-1.9V-7.342a2.554,2.554,0,0,0-.549-1.774A2.2,2.2,0,0,0-7.813-9.69a2.738,2.738,0,0,0-1.62.492,3.342,3.342,0,0,0-1.087,1.292V0h-1.9V-11.095ZM3.773.205A4.848,4.848,0,0,1,.1-1.277,5.5,5.5,0,0,1-1.312-5.24v-.349A6.658,6.658,0,0,1-.682-8.536a4.919,4.919,0,0,1,1.764-2.03A4.434,4.434,0,0,1,3.538-11.3,4.155,4.155,0,0,1,6.9-9.875,6.171,6.171,0,0,1,8.1-5.793V-5H.584a3.944,3.944,0,0,0,.959,2.651,3.014,3.014,0,0,0,2.333,1.01,3.3,3.3,0,0,0,1.7-.41A4.277,4.277,0,0,0,6.8-2.84l1.159.9A4.659,4.659,0,0,1,3.773.205ZM3.538-9.741a2.53,2.53,0,0,0-1.928.836A4.062,4.062,0,0,0,.646-6.562H6.2v-.144a3.613,3.613,0,0,0-.779-2.24A2.382,2.382,0,0,0,3.538-9.741Zm12.12.349a5.685,5.685,0,0,0-.933-.072,2.5,2.5,0,0,0-2.533,1.589V0h-1.9V-11.095h1.846l.031,1.282A2.954,2.954,0,0,1,14.817-11.3a1.938,1.938,0,0,1,.841.144ZM23.84,0a3.985,3.985,0,0,1-.267-1.169A4.233,4.233,0,0,1,20.416.205a3.916,3.916,0,0,1-2.692-.928,3,3,0,0,1-1.051-2.353A3.136,3.136,0,0,1,17.99-5.768,6.212,6.212,0,0,1,21.7-6.727h1.846V-7.6a2.131,2.131,0,0,0-.595-1.584,2.39,2.39,0,0,0-1.753-.59,2.766,2.766,0,0,0-1.7.513,1.511,1.511,0,0,0-.687,1.241H16.9a2.618,2.618,0,0,1,.59-1.6,4.024,4.024,0,0,1,1.6-1.225,5.381,5.381,0,0,1,2.22-.451,4.386,4.386,0,0,1,3,.959A3.458,3.458,0,0,1,25.44-7.7v5.106a6.243,6.243,0,0,0,.39,2.43V0ZM20.692-1.446a3.334,3.334,0,0,0,1.692-.461,2.791,2.791,0,0,0,1.159-1.2V-5.383H22.056q-3.486,0-3.486,2.041a1.727,1.727,0,0,0,.595,1.395A2.286,2.286,0,0,0,20.692-1.446ZM33.776-9.393a5.685,5.685,0,0,0-.933-.072,2.5,2.5,0,0,0-2.533,1.589V0h-1.9V-11.095h1.846l.031,1.282A2.954,2.954,0,0,1,32.936-11.3a1.938,1.938,0,0,1,.841.144Zm-85.092,33.6a4.848,4.848,0,0,1-3.671-1.482A5.5,5.5,0,0,1-56.4,18.76v-.349a6.658,6.658,0,0,1,.631-2.948,4.919,4.919,0,0,1,1.764-2.03,4.434,4.434,0,0,1,2.456-.733,4.155,4.155,0,0,1,3.363,1.425,6.171,6.171,0,0,1,1.2,4.081V19H-54.5a3.944,3.944,0,0,0,.959,2.651,3.014,3.014,0,0,0,2.333,1.01,3.3,3.3,0,0,0,1.7-.41,4.277,4.277,0,0,0,1.22-1.087l1.159.9A4.659,4.659,0,0,1-51.316,24.205Zm-.236-9.946a2.53,2.53,0,0,0-1.928.836,4.062,4.062,0,0,0-.964,2.343h5.558v-.144a3.613,3.613,0,0,0-.779-2.24A2.382,2.382,0,0,0-51.552,14.259ZM-42.733,24h-1.9V8.25h1.9Zm7.772-5.64a6.5,6.5,0,0,1,1.21-4.107A3.826,3.826,0,0,1-30.582,12.7,3.848,3.848,0,0,1-27.5,14.033V8.25h1.9V24h-1.743l-.092-1.189A3.863,3.863,0,0,1-30.6,24.205a3.789,3.789,0,0,1-3.143-1.579A6.573,6.573,0,0,1-34.961,18.5Zm1.9.215a4.921,4.921,0,0,0,.779,2.953A2.519,2.519,0,0,0-30.131,22.6a2.767,2.767,0,0,0,2.635-1.62v-5.1a2.789,2.789,0,0,0-2.615-1.569,2.531,2.531,0,0,0-2.174,1.077A5.418,5.418,0,0,0-33.064,18.576ZM-20.595,24h-1.9V12.905h1.9ZM-22.646,9.962a1.132,1.132,0,0,1,.282-.779,1.059,1.059,0,0,1,.836-.318,1.075,1.075,0,0,1,.841.318,1.12,1.12,0,0,1,.287.779,1.084,1.084,0,0,1-.287.769,1.1,1.1,0,0,1-.841.308,1.078,1.078,0,0,1-.836-.308A1.1,1.1,0,0,1-22.646,9.962ZM-10.71,24a3.985,3.985,0,0,1-.267-1.169,4.233,4.233,0,0,1-3.158,1.374,3.916,3.916,0,0,1-2.692-.928,3,3,0,0,1-1.051-2.353,3.136,3.136,0,0,1,1.318-2.692,6.212,6.212,0,0,1,3.707-.959h1.846V16.4a2.131,2.131,0,0,0-.595-1.584,2.39,2.39,0,0,0-1.753-.59,2.766,2.766,0,0,0-1.7.513,1.511,1.511,0,0,0-.687,1.241h-1.907a2.618,2.618,0,0,1,.59-1.6,4.024,4.024,0,0,1,1.6-1.225,5.381,5.381,0,0,1,2.22-.451,4.386,4.386,0,0,1,3,.959A3.459,3.459,0,0,1-9.111,16.3v5.106a6.243,6.243,0,0,0,.39,2.43V24Zm-3.148-1.446a3.334,3.334,0,0,0,1.692-.461,2.791,2.791,0,0,0,1.159-1.2V18.617h-1.487q-3.486,0-3.486,2.041a1.727,1.727,0,0,0,.595,1.395A2.286,2.286,0,0,0-13.858,22.554Zm7.27-4.194a6.521,6.521,0,0,1,1.2-4.127A3.837,3.837,0,0,1-2.21,12.7,3.817,3.817,0,0,1,.959,14.136l.092-1.23H2.784V23.733a4.514,4.514,0,0,1-1.277,3.394,4.711,4.711,0,0,1-3.43,1.241,5.706,5.706,0,0,1-2.348-.513,4.042,4.042,0,0,1-1.753-1.4l.984-1.138A3.71,3.71,0,0,0-2.056,26.82,2.906,2.906,0,0,0,.1,26.041a2.979,2.979,0,0,0,.774-2.194v-.954A3.9,3.9,0,0,1-2.23,24.205a3.79,3.79,0,0,1-3.153-1.569A6.856,6.856,0,0,1-6.588,18.36Zm1.907.215a4.975,4.975,0,0,0,.769,2.948A2.5,2.5,0,0,0-1.759,22.6a2.779,2.779,0,0,0,2.635-1.63V15.9A2.811,2.811,0,0,0-1.738,14.31,2.521,2.521,0,0,0-3.9,15.387,5.418,5.418,0,0,0-4.681,18.576Zm15.688-3.968a5.685,5.685,0,0,0-.933-.072,2.5,2.5,0,0,0-2.533,1.589V24h-1.9V12.905H7.49l.031,1.282A2.954,2.954,0,0,1,10.167,12.7a1.938,1.938,0,0,1,.841.144ZM19.19,24a3.985,3.985,0,0,1-.267-1.169,4.233,4.233,0,0,1-3.158,1.374,3.916,3.916,0,0,1-2.692-.928,3,3,0,0,1-1.051-2.353,3.136,3.136,0,0,1,1.318-2.692,6.212,6.212,0,0,1,3.707-.959h1.846V16.4a2.131,2.131,0,0,0-.595-1.584,2.39,2.39,0,0,0-1.753-.59,2.766,2.766,0,0,0-1.7.513,1.511,1.511,0,0,0-.687,1.241H12.248a2.618,2.618,0,0,1,.59-1.6,4.024,4.024,0,0,1,1.6-1.225,5.381,5.381,0,0,1,2.22-.451,4.386,4.386,0,0,1,3,.959A3.458,3.458,0,0,1,20.79,16.3v5.106a6.243,6.243,0,0,0,.39,2.43V24Zm-3.148-1.446a3.334,3.334,0,0,0,1.692-.461,2.791,2.791,0,0,0,1.159-1.2V18.617H17.406q-3.486,0-3.486,2.041a1.727,1.727,0,0,0,.595,1.395A2.286,2.286,0,0,0,16.042,22.554Zm9.505-9.649.051,1.23A4.1,4.1,0,0,1,28.89,12.7a3.172,3.172,0,0,1,3.168,1.784A4.2,4.2,0,0,1,33.5,13.192a4.255,4.255,0,0,1,2.1-.492q3.65,0,3.712,3.866V24h-1.9V16.679a2.548,2.548,0,0,0-.543-1.779,2.393,2.393,0,0,0-1.825-.59,2.515,2.515,0,0,0-1.753.631,2.558,2.558,0,0,0-.81,1.7V24H30.572V16.73A2.117,2.117,0,0,0,28.2,14.31,2.538,2.538,0,0,0,25.65,15.9V24h-1.9V12.905ZM49.019,24a3.985,3.985,0,0,1-.267-1.169,4.233,4.233,0,0,1-3.158,1.374,3.916,3.916,0,0,1-2.692-.928,3,3,0,0,1-1.051-2.353,3.136,3.136,0,0,1,1.318-2.692,6.212,6.212,0,0,1,3.707-.959h1.846V16.4a2.131,2.131,0,0,0-.595-1.584,2.39,2.39,0,0,0-1.753-.59,2.766,2.766,0,0,0-1.7.513,1.511,1.511,0,0,0-.687,1.241H42.077a2.618,2.618,0,0,1,.59-1.6,4.024,4.024,0,0,1,1.6-1.225,5.381,5.381,0,0,1,2.22-.451,4.386,4.386,0,0,1,3,.959,3.458,3.458,0,0,1,1.128,2.64v5.106a6.243,6.243,0,0,0,.39,2.43V24Zm-3.148-1.446a3.334,3.334,0,0,0,1.692-.461,2.791,2.791,0,0,0,1.159-1.2V18.617H47.235q-3.486,0-3.486,2.041a1.727,1.727,0,0,0,.595,1.395A2.286,2.286,0,0,0,45.871,22.554ZM-75.464,42.36a6.5,6.5,0,0,1,1.21-4.107A3.826,3.826,0,0,1-71.085,36.7,3.848,3.848,0,0,1-68,38.033V32.25h1.9V48h-1.743l-.092-1.189a3.863,3.863,0,0,1-3.168,1.395,3.789,3.789,0,0,1-3.143-1.579A6.573,6.573,0,0,1-75.464,42.5Zm1.9.215a4.921,4.921,0,0,0,.779,2.953A2.519,2.519,0,0,0-70.634,46.6,2.767,2.767,0,0,0-68,44.975v-5.1a2.789,2.789,0,0,0-2.615-1.569,2.531,2.531,0,0,0-2.174,1.077A5.418,5.418,0,0,0-73.567,42.576Zm15.012,5.629a4.848,4.848,0,0,1-3.671-1.482,5.5,5.5,0,0,1-1.415-3.963v-.349a6.658,6.658,0,0,1,.631-2.948,4.919,4.919,0,0,1,1.764-2.03,4.434,4.434,0,0,1,2.456-.733,4.155,4.155,0,0,1,3.363,1.425,6.171,6.171,0,0,1,1.2,4.081V43h-7.516a3.944,3.944,0,0,0,.959,2.651,3.014,3.014,0,0,0,2.333,1.01,3.3,3.3,0,0,0,1.7-.41,4.277,4.277,0,0,0,1.22-1.087l1.159.9A4.659,4.659,0,0,1-58.555,48.205Zm-.236-9.946a2.53,2.53,0,0,0-1.928.836,4.062,4.062,0,0,0-.964,2.343h5.558v-.144a3.613,3.613,0,0,0-.779-2.24A2.382,2.382,0,0,0-58.791,38.259ZM-44.774,48h-1.9V32.25h1.9Zm2.533-5.65a6.553,6.553,0,0,1,.641-2.933,4.781,4.781,0,0,1,1.784-2.01,4.857,4.857,0,0,1,2.61-.708,4.679,4.679,0,0,1,3.666,1.569,6.036,6.036,0,0,1,1.4,4.173v.133a6.61,6.61,0,0,1-.62,2.907,4.71,4.71,0,0,1-1.774,2,4.913,4.913,0,0,1-2.651.718,4.667,4.667,0,0,1-3.656-1.569,6.005,6.005,0,0,1-1.4-4.153Zm1.907.226a4.746,4.746,0,0,0,.856,2.963,2.74,2.74,0,0,0,2.292,1.118,2.724,2.724,0,0,0,2.3-1.133,5.19,5.19,0,0,0,.851-3.174,4.738,4.738,0,0,0-.866-2.958,2.755,2.755,0,0,0-2.3-1.133,2.724,2.724,0,0,0-2.266,1.118A5.152,5.152,0,0,0-40.334,42.576ZM-23.3,45.057a1.4,1.4,0,0,0-.579-1.195,5.576,5.576,0,0,0-2.02-.733,9.551,9.551,0,0,1-2.287-.738,3.253,3.253,0,0,1-1.251-1.025,2.453,2.453,0,0,1-.405-1.415,2.878,2.878,0,0,1,1.154-2.307,4.505,4.505,0,0,1,2.948-.943,4.636,4.636,0,0,1,3.061.974,3.094,3.094,0,0,1,1.174,2.492h-1.907a1.713,1.713,0,0,0-.661-1.343,2.478,2.478,0,0,0-1.666-.564,2.593,2.593,0,0,0-1.62.451,1.42,1.42,0,0,0-.584,1.179,1.151,1.151,0,0,0,.543,1.036,6.687,6.687,0,0,0,1.964.667,10.231,10.231,0,0,1,2.3.759,3.358,3.358,0,0,1,1.307,1.061,2.609,2.609,0,0,1,.426,1.512,2.839,2.839,0,0,1-1.189,2.384,4.989,4.989,0,0,1-3.086.9,5.587,5.587,0,0,1-2.358-.472,3.836,3.836,0,0,1-1.6-1.318,3.176,3.176,0,0,1-.579-1.83h1.9a1.964,1.964,0,0,0,.764,1.512,2.964,2.964,0,0,0,1.882.559,3.059,3.059,0,0,0,1.728-.436A1.339,1.339,0,0,0-23.3,45.057Zm18.939-2.481a6.643,6.643,0,0,1-1.159,4.081,3.714,3.714,0,0,1-3.138,1.548,4.069,4.069,0,0,1-3.179-1.282v5.342h-1.9V36.905H-12l.092,1.23A3.908,3.908,0,0,1-8.69,36.7a3.783,3.783,0,0,1,3.163,1.507A6.716,6.716,0,0,1-4.363,42.4Zm-1.9-.215a4.9,4.9,0,0,0-.8-2.963A2.576,2.576,0,0,0-9.254,38.31a2.789,2.789,0,0,0-2.584,1.528v5.3a2.794,2.794,0,0,0,2.6,1.518,2.564,2.564,0,0,0,2.169-1.082A5.351,5.351,0,0,0-6.26,42.36Zm9.669-3.753a5.685,5.685,0,0,0-.933-.072A2.5,2.5,0,0,0-.056,40.125V48h-1.9V36.905H-.108l.031,1.282A2.954,2.954,0,0,1,2.569,36.7a1.938,1.938,0,0,1,.841.144ZM4.445,42.35a6.553,6.553,0,0,1,.641-2.933,4.781,4.781,0,0,1,1.784-2.01A4.857,4.857,0,0,1,9.48,36.7a4.679,4.679,0,0,1,3.666,1.569,6.036,6.036,0,0,1,1.4,4.173v.133a6.61,6.61,0,0,1-.62,2.907,4.71,4.71,0,0,1-1.774,2,4.913,4.913,0,0,1-2.651.718,4.667,4.667,0,0,1-3.656-1.569,6.005,6.005,0,0,1-1.4-4.153Zm1.907.226a4.746,4.746,0,0,0,.856,2.963A2.74,2.74,0,0,0,9.5,46.657a2.724,2.724,0,0,0,2.3-1.133,5.19,5.19,0,0,0,.851-3.174,4.738,4.738,0,0,0-.866-2.958,2.755,2.755,0,0,0-2.3-1.133,2.724,2.724,0,0,0-2.266,1.118A5.152,5.152,0,0,0,6.352,42.576Zm15.022,4.081a2.732,2.732,0,0,0,1.774-.615,2.164,2.164,0,0,0,.841-1.538h1.794a3.44,3.44,0,0,1-.656,1.815,4.322,4.322,0,0,1-1.615,1.374,4.66,4.66,0,0,1-2.138.513,4.57,4.57,0,0,1-3.6-1.512,6.024,6.024,0,0,1-1.338-4.137v-.318a6.679,6.679,0,0,1,.595-2.881A4.53,4.53,0,0,1,18.734,37.4a4.85,4.85,0,0,1,2.63-.7,4.45,4.45,0,0,1,3.1,1.118,3.994,3.994,0,0,1,1.318,2.9H23.989a2.614,2.614,0,0,0-.815-1.769,2.536,2.536,0,0,0-1.81-.692,2.655,2.655,0,0,0-2.24,1.041,4.888,4.888,0,0,0-.795,3.01v.359a4.79,4.79,0,0,0,.79,2.953A2.668,2.668,0,0,0,21.374,46.657ZM32.52,48.205a4.848,4.848,0,0,1-3.671-1.482,5.5,5.5,0,0,1-1.415-3.963v-.349a6.658,6.658,0,0,1,.631-2.948,4.919,4.919,0,0,1,1.764-2.03,4.434,4.434,0,0,1,2.456-.733,4.155,4.155,0,0,1,3.363,1.425,6.171,6.171,0,0,1,1.2,4.081V43H29.331a3.944,3.944,0,0,0,.959,2.651,3.014,3.014,0,0,0,2.333,1.01,3.3,3.3,0,0,0,1.7-.41,4.277,4.277,0,0,0,1.22-1.087l1.159.9A4.659,4.659,0,0,1,32.52,48.205Zm-.236-9.946a2.53,2.53,0,0,0-1.928.836,4.062,4.062,0,0,0-.964,2.343H34.95v-.144a3.613,3.613,0,0,0-.779-2.24A2.382,2.382,0,0,0,32.284,38.259Zm13.217,6.8a1.4,1.4,0,0,0-.579-1.195,5.576,5.576,0,0,0-2.02-.733,9.551,9.551,0,0,1-2.287-.738,3.253,3.253,0,0,1-1.251-1.025,2.453,2.453,0,0,1-.405-1.415,2.878,2.878,0,0,1,1.154-2.307,4.505,4.505,0,0,1,2.948-.943,4.636,4.636,0,0,1,3.061.974A3.094,3.094,0,0,1,47.3,40.166H45.389a1.713,1.713,0,0,0-.661-1.343,2.478,2.478,0,0,0-1.666-.564,2.593,2.593,0,0,0-1.62.451,1.42,1.42,0,0,0-.584,1.179,1.151,1.151,0,0,0,.543,1.036,6.687,6.687,0,0,0,1.964.667,10.231,10.231,0,0,1,2.3.759,3.358,3.358,0,0,1,1.307,1.061,2.609,2.609,0,0,1,.426,1.512,2.839,2.839,0,0,1-1.189,2.384,4.989,4.989,0,0,1-3.086.9,5.587,5.587,0,0,1-2.358-.472,3.836,3.836,0,0,1-1.6-1.318,3.176,3.176,0,0,1-.579-1.83h1.9a1.964,1.964,0,0,0,.764,1.512,2.964,2.964,0,0,0,1.882.559,3.059,3.059,0,0,0,1.728-.436A1.339,1.339,0,0,0,45.5,45.057Zm3.866-2.707a6.553,6.553,0,0,1,.641-2.933,4.781,4.781,0,0,1,1.784-2.01A4.857,4.857,0,0,1,54.4,36.7a4.679,4.679,0,0,1,3.666,1.569,6.036,6.036,0,0,1,1.4,4.173v.133a6.61,6.61,0,0,1-.62,2.907,4.71,4.71,0,0,1-1.774,2,4.913,4.913,0,0,1-2.651.718,4.667,4.667,0,0,1-3.656-1.569,6.005,6.005,0,0,1-1.4-4.153Zm1.907.226a4.746,4.746,0,0,0,.856,2.963,2.9,2.9,0,0,0,4.589-.015,5.19,5.19,0,0,0,.851-3.174,4.738,4.738,0,0,0-.866-2.958,2.755,2.755,0,0,0-2.3-1.133,2.724,2.724,0,0,0-2.266,1.118A5.152,5.152,0,0,0,51.275,42.576Zm17.032,2.481a1.4,1.4,0,0,0-.579-1.195,5.576,5.576,0,0,0-2.02-.733,9.551,9.551,0,0,1-2.287-.738,3.253,3.253,0,0,1-1.251-1.025,2.453,2.453,0,0,1-.405-1.415,2.878,2.878,0,0,1,1.154-2.307,4.505,4.505,0,0,1,2.948-.943,4.636,4.636,0,0,1,3.061.974A3.094,3.094,0,0,1,70.1,40.166H68.194a1.713,1.713,0,0,0-.661-1.343,2.478,2.478,0,0,0-1.666-.564,2.593,2.593,0,0,0-1.62.451,1.42,1.42,0,0,0-.584,1.179,1.151,1.151,0,0,0,.543,1.036,6.687,6.687,0,0,0,1.964.667,10.231,10.231,0,0,1,2.3.759,3.358,3.358,0,0,1,1.307,1.061,2.609,2.609,0,0,1,.426,1.512,2.839,2.839,0,0,1-1.189,2.384,4.989,4.989,0,0,1-3.086.9,5.587,5.587,0,0,1-2.358-.472,3.836,3.836,0,0,1-1.6-1.318,3.176,3.176,0,0,1-.579-1.83h1.9a1.964,1.964,0,0,0,.764,1.512,2.964,2.964,0,0,0,1.882.559,3.059,3.059,0,0,0,1.728-.436A1.339,1.339,0,0,0,68.306,45.057ZM-50.377,66.36a6.5,6.5,0,0,1,1.21-4.107A3.826,3.826,0,0,1-46,60.7a3.848,3.848,0,0,1,3.086,1.333V56.25h1.9V72h-1.743l-.092-1.189a3.863,3.863,0,0,1-3.168,1.395,3.789,3.789,0,0,1-3.143-1.579A6.573,6.573,0,0,1-50.377,66.5Zm1.9.215a4.921,4.921,0,0,0,.779,2.953A2.519,2.519,0,0,0-45.548,70.6a2.767,2.767,0,0,0,2.635-1.62v-5.1a2.789,2.789,0,0,0-2.615-1.569A2.531,2.531,0,0,0-47.7,63.387,5.418,5.418,0,0,0-48.48,66.576Zm15.012,5.629a4.848,4.848,0,0,1-3.671-1.482,5.5,5.5,0,0,1-1.415-3.963v-.349a6.658,6.658,0,0,1,.631-2.948,4.919,4.919,0,0,1,1.764-2.03A4.434,4.434,0,0,1-33.7,60.7a4.155,4.155,0,0,1,3.363,1.425,6.171,6.171,0,0,1,1.2,4.081V67h-7.516a3.944,3.944,0,0,0,.959,2.651,3.014,3.014,0,0,0,2.333,1.01,3.3,3.3,0,0,0,1.7-.41,4.277,4.277,0,0,0,1.22-1.087l1.159.9A4.659,4.659,0,0,1-33.469,72.205Zm-.236-9.946a2.53,2.53,0,0,0-1.928.836,4.062,4.062,0,0,0-.964,2.343h5.558v-.144a3.613,3.613,0,0,0-.779-2.24A2.382,2.382,0,0,0-33.7,62.259Zm13.75-1.354.062,1.395a4.043,4.043,0,0,1,3.322-1.6q3.517,0,3.548,3.968V72h-1.9V64.658a2.554,2.554,0,0,0-.549-1.774,2.2,2.2,0,0,0-1.677-.574,2.738,2.738,0,0,0-1.62.492,3.342,3.342,0,0,0-1.087,1.292V72h-1.9V60.905Zm14.4,11.3a4.848,4.848,0,0,1-3.671-1.482,5.5,5.5,0,0,1-1.415-3.963v-.349a6.658,6.658,0,0,1,.631-2.948,4.919,4.919,0,0,1,1.764-2.03A4.434,4.434,0,0,1-5.793,60.7,4.155,4.155,0,0,1-2.43,62.125a6.171,6.171,0,0,1,1.2,4.081V67H-8.747a3.944,3.944,0,0,0,.959,2.651,3.014,3.014,0,0,0,2.333,1.01,3.3,3.3,0,0,0,1.7-.41,4.277,4.277,0,0,0,1.22-1.087l1.159.9A4.659,4.659,0,0,1-5.558,72.205Zm-.236-9.946a2.53,2.53,0,0,0-1.928.836,4.062,4.062,0,0,0-.964,2.343h5.558v-.144a3.613,3.613,0,0,0-.779-2.24A2.382,2.382,0,0,0-5.793,62.259Zm6.306,4.1a6.521,6.521,0,0,1,1.2-4.127A3.837,3.837,0,0,1,4.891,60.7,3.817,3.817,0,0,1,8.06,62.136l.092-1.23H9.885V71.733a4.514,4.514,0,0,1-1.277,3.394,4.711,4.711,0,0,1-3.43,1.241,5.706,5.706,0,0,1-2.348-.513,4.042,4.042,0,0,1-1.753-1.4l.984-1.138A3.71,3.71,0,0,0,5.045,74.82,2.906,2.906,0,0,0,7.2,74.041a2.979,2.979,0,0,0,.774-2.194v-.954a3.9,3.9,0,0,1-3.107,1.313,3.79,3.79,0,0,1-3.153-1.569A6.856,6.856,0,0,1,.513,66.36Zm1.907.215a4.975,4.975,0,0,0,.769,2.948A2.5,2.5,0,0,0,5.342,70.6a2.779,2.779,0,0,0,2.635-1.63V63.9A2.811,2.811,0,0,0,5.363,62.31,2.521,2.521,0,0,0,3.2,63.387,5.418,5.418,0,0,0,2.42,66.576Zm9.823-.226a6.553,6.553,0,0,1,.641-2.933,4.781,4.781,0,0,1,1.784-2.01,4.857,4.857,0,0,1,2.61-.708,4.679,4.679,0,0,1,3.666,1.569,6.036,6.036,0,0,1,1.4,4.173v.133a6.61,6.61,0,0,1-.62,2.907,4.71,4.71,0,0,1-1.774,2,4.913,4.913,0,0,1-2.651.718,4.667,4.667,0,0,1-3.656-1.569,6.005,6.005,0,0,1-1.4-4.153Zm1.907.226a4.746,4.746,0,0,0,.856,2.963,2.9,2.9,0,0,0,4.589-.015,5.19,5.19,0,0,0,.851-3.174,4.738,4.738,0,0,0-.866-2.958,2.755,2.755,0,0,0-2.3-1.133,2.724,2.724,0,0,0-2.266,1.118A5.152,5.152,0,0,0,14.15,66.576Zm15.022,4.081a2.732,2.732,0,0,0,1.774-.615,2.164,2.164,0,0,0,.841-1.538h1.794a3.44,3.44,0,0,1-.656,1.815,4.322,4.322,0,0,1-1.615,1.374,4.66,4.66,0,0,1-2.138.513,4.57,4.57,0,0,1-3.6-1.512,6.024,6.024,0,0,1-1.338-4.137v-.318a6.679,6.679,0,0,1,.595-2.881A4.53,4.53,0,0,1,26.532,61.4a4.85,4.85,0,0,1,2.63-.7,4.45,4.45,0,0,1,3.1,1.118,3.994,3.994,0,0,1,1.318,2.9H31.787a2.614,2.614,0,0,0-.815-1.769,2.536,2.536,0,0,0-1.81-.692,2.655,2.655,0,0,0-2.24,1.041,4.888,4.888,0,0,0-.795,3.01v.359a4.79,4.79,0,0,0,.79,2.953A2.668,2.668,0,0,0,29.172,70.657ZM37.775,72h-1.9V60.905h1.9ZM35.725,57.962a1.132,1.132,0,0,1,.282-.779,1.059,1.059,0,0,1,.836-.318,1.075,1.075,0,0,1,.841.318,1.12,1.12,0,0,1,.287.779,1.084,1.084,0,0,1-.287.769,1.1,1.1,0,0,1-.841.308,1.078,1.078,0,0,1-.836-.308A1.1,1.1,0,0,1,35.725,57.962Zm4.583,8.388a6.553,6.553,0,0,1,.641-2.933,4.781,4.781,0,0,1,1.784-2.01,4.857,4.857,0,0,1,2.61-.708,4.679,4.679,0,0,1,3.666,1.569,6.036,6.036,0,0,1,1.4,4.173v.133a6.61,6.61,0,0,1-.62,2.907,4.71,4.71,0,0,1-1.774,2,4.913,4.913,0,0,1-2.651.718,4.667,4.667,0,0,1-3.656-1.569,6.005,6.005,0,0,1-1.4-4.153Zm1.907.226a4.746,4.746,0,0,0,.856,2.963,2.9,2.9,0,0,0,4.589-.015,5.19,5.19,0,0,0,.851-3.174,4.738,4.738,0,0,0-.866-2.958,2.755,2.755,0,0,0-2.3-1.133,2.724,2.724,0,0,0-2.266,1.118A5.152,5.152,0,0,0,42.215,66.576Z" transform="translate(8856 -9279)" fill="#12263f"/>
    </g>
    <g id="Grupo_79282" data-name="Grupo 79282" transform="translate(-108 4)">
      <rect id="Rectángulo_33821" data-name="Rectángulo 33821" width="142" height="92" rx="13" transform="translate(8724 -9145)" fill="#4dd0e1"/>
      <path id="Trazado_116682" data-name="Trazado 116682" d="M-56.561,0V-14.93h4.214a6.784,6.784,0,0,1,3.445.861,5.825,5.825,0,0,1,2.312,2.451,7.977,7.977,0,0,1,.825,3.65v.954a8,8,0,0,1-.815,3.7,5.734,5.734,0,0,1-2.328,2.44A7.216,7.216,0,0,1-52.428,0Zm1.969-13.32V-1.61h2.071a4.507,4.507,0,0,0,3.543-1.416,5.851,5.851,0,0,0,1.266-4.033v-.872a5.944,5.944,0,0,0-1.195-3.956,4.251,4.251,0,0,0-3.389-1.432ZM-41.026,0h-1.9V-11.095h1.9Zm-2.051-14.038a1.132,1.132,0,0,1,.282-.779,1.059,1.059,0,0,1,.836-.318,1.075,1.075,0,0,1,.841.318,1.12,1.12,0,0,1,.287.779,1.084,1.084,0,0,1-.287.769,1.1,1.1,0,0,1-.841.308,1.078,1.078,0,0,1-.836-.308A1.1,1.1,0,0,1-43.077-14.038ZM-31.141,0a3.985,3.985,0,0,1-.267-1.169A4.233,4.233,0,0,1-34.566.205a3.916,3.916,0,0,1-2.692-.928,3,3,0,0,1-1.051-2.353,3.136,3.136,0,0,1,1.318-2.692,6.212,6.212,0,0,1,3.707-.959h1.846V-7.6a2.131,2.131,0,0,0-.595-1.584,2.39,2.39,0,0,0-1.753-.59,2.766,2.766,0,0,0-1.7.513,1.511,1.511,0,0,0-.687,1.241h-1.907a2.618,2.618,0,0,1,.59-1.6,4.024,4.024,0,0,1,1.6-1.225,5.381,5.381,0,0,1,2.22-.451,4.386,4.386,0,0,1,3,.959A3.458,3.458,0,0,1-29.542-7.7v5.106a6.243,6.243,0,0,0,.39,2.43V0Zm-3.148-1.446A3.334,3.334,0,0,0-32.6-1.907a2.791,2.791,0,0,0,1.159-1.2V-5.383h-1.487q-3.486,0-3.486,2.041a1.727,1.727,0,0,0,.595,1.395A2.286,2.286,0,0,0-34.289-1.446Zm7.27-4.194a6.521,6.521,0,0,1,1.2-4.127A3.837,3.837,0,0,1-22.641-11.3a3.817,3.817,0,0,1,3.168,1.436l.092-1.23h1.733V-.267a4.514,4.514,0,0,1-1.277,3.394,4.711,4.711,0,0,1-3.43,1.241A5.706,5.706,0,0,1-24.7,3.855a4.042,4.042,0,0,1-1.753-1.4l.984-1.138A3.71,3.71,0,0,0-22.487,2.82a2.906,2.906,0,0,0,2.158-.779,2.979,2.979,0,0,0,.774-2.194v-.954A3.9,3.9,0,0,1-22.661.205a3.79,3.79,0,0,1-3.153-1.569A6.856,6.856,0,0,1-27.019-5.64Zm1.907.215a4.975,4.975,0,0,0,.769,2.948A2.5,2.5,0,0,0-22.189-1.4a2.779,2.779,0,0,0,2.635-1.63V-8.1A2.811,2.811,0,0,0-22.169-9.69a2.521,2.521,0,0,0-2.164,1.077A5.418,5.418,0,0,0-25.112-5.424Zm12.12-5.67L-12.93-9.7a4.043,4.043,0,0,1,3.322-1.6q3.517,0,3.548,3.968V0h-1.9V-7.342a2.554,2.554,0,0,0-.549-1.774,2.2,2.2,0,0,0-1.677-.574A2.738,2.738,0,0,0-11.8-9.2a3.342,3.342,0,0,0-1.087,1.292V0h-1.9V-11.095ZM-3.7-5.65a6.553,6.553,0,0,1,.641-2.933,4.781,4.781,0,0,1,1.784-2.01,4.857,4.857,0,0,1,2.61-.708A4.679,4.679,0,0,1,5-9.731,6.036,6.036,0,0,1,6.4-5.558v.133a6.61,6.61,0,0,1-.62,2.907A4.71,4.71,0,0,1,4-.513,4.913,4.913,0,0,1,1.354.205,4.667,4.667,0,0,1-2.3-1.364,6.005,6.005,0,0,1-3.7-5.517Zm1.907.226A4.746,4.746,0,0,0-.938-2.461,2.74,2.74,0,0,0,1.354-1.343a2.724,2.724,0,0,0,2.3-1.133A5.19,5.19,0,0,0,4.5-5.65a4.738,4.738,0,0,0-.866-2.958,2.755,2.755,0,0,0-2.3-1.133A2.724,2.724,0,0,0-.933-8.624,5.152,5.152,0,0,0-1.794-5.424ZM2.194-15.729h2.3L1.743-12.715.215-12.72ZM15.237-2.943a1.4,1.4,0,0,0-.579-1.195,5.576,5.576,0,0,0-2.02-.733,9.551,9.551,0,0,1-2.287-.738A3.253,3.253,0,0,1,9.1-6.634,2.453,2.453,0,0,1,8.7-8.049a2.878,2.878,0,0,1,1.154-2.307A4.505,4.505,0,0,1,12.8-11.3a4.636,4.636,0,0,1,3.061.974,3.094,3.094,0,0,1,1.174,2.492H15.125a1.713,1.713,0,0,0-.661-1.343A2.478,2.478,0,0,0,12.8-9.741a2.593,2.593,0,0,0-1.62.451,1.42,1.42,0,0,0-.584,1.179,1.151,1.151,0,0,0,.543,1.036,6.687,6.687,0,0,0,1.964.667,10.231,10.231,0,0,1,2.3.759,3.358,3.358,0,0,1,1.307,1.061,2.609,2.609,0,0,1,.426,1.512A2.839,2.839,0,0,1,15.945-.692a4.989,4.989,0,0,1-3.086.9A5.587,5.587,0,0,1,10.5-.267,3.836,3.836,0,0,1,8.9-1.584a3.176,3.176,0,0,1-.579-1.83h1.9A1.964,1.964,0,0,0,10.977-1.9a2.964,2.964,0,0,0,1.882.559,3.059,3.059,0,0,0,1.728-.436A1.339,1.339,0,0,0,15.237-2.943Zm6.942-10.838v2.687H24.25v1.466H22.179v6.889a1.54,1.54,0,0,0,.277,1A1.165,1.165,0,0,0,23.4-1.4a4.593,4.593,0,0,0,.9-.123V0a5.532,5.532,0,0,1-1.456.2,2.362,2.362,0,0,1-1.917-.769,3.3,3.3,0,0,1-.646-2.184v-6.88h-2.02v-1.466h2.02v-2.687ZM28.526,0h-1.9V-11.095h1.9ZM26.476-14.038a1.132,1.132,0,0,1,.282-.779,1.059,1.059,0,0,1,.836-.318,1.075,1.075,0,0,1,.841.318,1.12,1.12,0,0,1,.287.779,1.084,1.084,0,0,1-.287.769,1.1,1.1,0,0,1-.841.308,1.078,1.078,0,0,1-.836-.308A1.1,1.1,0,0,1,26.476-14.038ZM36.012-1.343a2.732,2.732,0,0,0,1.774-.615A2.164,2.164,0,0,0,38.626-3.5h1.794a3.44,3.44,0,0,1-.656,1.815A4.322,4.322,0,0,1,38.15-.308a4.66,4.66,0,0,1-2.138.513,4.57,4.57,0,0,1-3.6-1.512,6.024,6.024,0,0,1-1.338-4.137v-.318a6.679,6.679,0,0,1,.595-2.881A4.53,4.53,0,0,1,33.371-10.6,4.85,4.85,0,0,1,36-11.3a4.45,4.45,0,0,1,3.1,1.118,3.994,3.994,0,0,1,1.318,2.9H38.626a2.614,2.614,0,0,0-.815-1.769A2.536,2.536,0,0,0,36-9.741,2.655,2.655,0,0,0,33.761-8.7a4.888,4.888,0,0,0-.795,3.01v.359a4.79,4.79,0,0,0,.79,2.953A2.668,2.668,0,0,0,36.012-1.343Zm6.04-4.307a6.553,6.553,0,0,1,.641-2.933,4.781,4.781,0,0,1,1.784-2.01,4.857,4.857,0,0,1,2.61-.708,4.679,4.679,0,0,1,3.666,1.569,6.036,6.036,0,0,1,1.4,4.173v.133a6.61,6.61,0,0,1-.62,2.907,4.71,4.71,0,0,1-1.774,2,4.913,4.913,0,0,1-2.651.718,4.667,4.667,0,0,1-3.656-1.569,6.005,6.005,0,0,1-1.4-4.153Zm1.907.226a4.746,4.746,0,0,0,.856,2.963,2.74,2.74,0,0,0,2.292,1.118,2.724,2.724,0,0,0,2.3-1.133,5.19,5.19,0,0,0,.851-3.174,4.738,4.738,0,0,0-.866-2.958,2.755,2.755,0,0,0-2.3-1.133A2.724,2.724,0,0,0,44.82-8.624,5.152,5.152,0,0,0,43.958-5.424ZM-38.55,18.36a6.5,6.5,0,0,1,1.21-4.107A3.826,3.826,0,0,1-34.171,12.7a3.848,3.848,0,0,1,3.086,1.333V8.25h1.9V24h-1.743l-.092-1.189a3.863,3.863,0,0,1-3.168,1.395,3.789,3.789,0,0,1-3.143-1.579A6.573,6.573,0,0,1-38.55,18.5Zm1.9.215a4.921,4.921,0,0,0,.779,2.953A2.519,2.519,0,0,0-33.72,22.6a2.767,2.767,0,0,0,2.635-1.62v-5.1A2.789,2.789,0,0,0-33.7,14.31a2.531,2.531,0,0,0-2.174,1.077A5.418,5.418,0,0,0-36.653,18.576Zm15.012,5.629a4.848,4.848,0,0,1-3.671-1.482,5.5,5.5,0,0,1-1.415-3.963v-.349a6.658,6.658,0,0,1,.631-2.948,4.919,4.919,0,0,1,1.764-2.03,4.434,4.434,0,0,1,2.456-.733,4.155,4.155,0,0,1,3.363,1.425,6.171,6.171,0,0,1,1.2,4.081V19H-24.83a3.944,3.944,0,0,0,.959,2.651,3.014,3.014,0,0,0,2.333,1.01,3.3,3.3,0,0,0,1.7-.41,4.277,4.277,0,0,0,1.22-1.087l1.159.9A4.659,4.659,0,0,1-21.641,24.205Zm-.236-9.946a2.53,2.53,0,0,0-1.928.836,4.062,4.062,0,0,0-.964,2.343h5.558v-.144a3.613,3.613,0,0,0-.779-2.24A2.382,2.382,0,0,0-21.877,14.259Zm16.406,8.4A2.732,2.732,0,0,0-3.7,22.042,2.164,2.164,0,0,0-2.856,20.5h1.794a3.44,3.44,0,0,1-.656,1.815,4.322,4.322,0,0,1-1.615,1.374,4.66,4.66,0,0,1-2.138.513,4.57,4.57,0,0,1-3.6-1.512,6.024,6.024,0,0,1-1.338-4.137v-.318a6.679,6.679,0,0,1,.595-2.881A4.53,4.53,0,0,1-8.111,13.4a4.85,4.85,0,0,1,2.63-.7,4.45,4.45,0,0,1,3.1,1.118,3.994,3.994,0,0,1,1.318,2.9H-2.856a2.614,2.614,0,0,0-.815-1.769,2.536,2.536,0,0,0-1.81-.692A2.655,2.655,0,0,0-7.721,15.3a4.888,4.888,0,0,0-.795,3.01v.359a4.79,4.79,0,0,0,.79,2.953A2.668,2.668,0,0,0-5.47,22.657ZM7.921,24a3.985,3.985,0,0,1-.267-1.169A4.233,4.233,0,0,1,4.5,24.205,3.916,3.916,0,0,1,1.8,23.277,3,3,0,0,1,.754,20.924a3.136,3.136,0,0,1,1.318-2.692,6.212,6.212,0,0,1,3.707-.959H7.624V16.4a2.131,2.131,0,0,0-.595-1.584,2.39,2.39,0,0,0-1.753-.59,2.766,2.766,0,0,0-1.7.513,1.511,1.511,0,0,0-.687,1.241H.979a2.618,2.618,0,0,1,.59-1.6,4.024,4.024,0,0,1,1.6-1.225,5.381,5.381,0,0,1,2.22-.451,4.386,4.386,0,0,1,3,.959A3.459,3.459,0,0,1,9.521,16.3v5.106a6.243,6.243,0,0,0,.39,2.43V24ZM4.773,22.554a3.334,3.334,0,0,0,1.692-.461,2.791,2.791,0,0,0,1.159-1.2V18.617H6.137q-3.486,0-3.486,2.041a1.727,1.727,0,0,0,.595,1.395A2.286,2.286,0,0,0,4.773,22.554Zm7.26-4.194a6.5,6.5,0,0,1,1.21-4.107A3.826,3.826,0,0,1,16.411,12.7,3.848,3.848,0,0,1,19.5,14.033V8.25h1.9V24H19.652l-.092-1.189a3.863,3.863,0,0,1-3.168,1.395,3.789,3.789,0,0,1-3.143-1.579A6.573,6.573,0,0,1,12.033,18.5Zm1.9.215a4.921,4.921,0,0,0,.779,2.953A2.519,2.519,0,0,0,16.863,22.6a2.767,2.767,0,0,0,2.635-1.62v-5.1a2.789,2.789,0,0,0-2.615-1.569,2.531,2.531,0,0,0-2.174,1.077A5.418,5.418,0,0,0,13.93,18.576ZM31.187,24a3.985,3.985,0,0,1-.267-1.169,4.233,4.233,0,0,1-3.158,1.374,3.916,3.916,0,0,1-2.692-.928,3,3,0,0,1-1.051-2.353,3.136,3.136,0,0,1,1.318-2.692,6.212,6.212,0,0,1,3.707-.959H30.89V16.4a2.131,2.131,0,0,0-.595-1.584,2.39,2.39,0,0,0-1.753-.59,2.766,2.766,0,0,0-1.7.513,1.511,1.511,0,0,0-.687,1.241H24.245a2.618,2.618,0,0,1,.59-1.6,4.024,4.024,0,0,1,1.6-1.225,5.381,5.381,0,0,1,2.22-.451,4.386,4.386,0,0,1,3,.959,3.458,3.458,0,0,1,1.128,2.64v5.106a6.243,6.243,0,0,0,.39,2.43V24Zm-3.148-1.446a3.334,3.334,0,0,0,1.692-.461,2.791,2.791,0,0,0,1.159-1.2V18.617H29.4q-3.486,0-3.486,2.041a1.727,1.727,0,0,0,.595,1.395A2.286,2.286,0,0,0,28.039,22.554ZM-29.583,42.576a6.643,6.643,0,0,1-1.159,4.081,3.714,3.714,0,0,1-3.138,1.548,4.069,4.069,0,0,1-3.179-1.282v5.342h-1.9V36.905h1.733l.092,1.23A3.908,3.908,0,0,1-33.91,36.7a3.783,3.783,0,0,1,3.163,1.507A6.716,6.716,0,0,1-29.583,42.4Zm-1.9-.215a4.9,4.9,0,0,0-.8-2.963,2.576,2.576,0,0,0-2.194-1.087,2.789,2.789,0,0,0-2.584,1.528v5.3a2.794,2.794,0,0,0,2.6,1.518,2.564,2.564,0,0,0,2.169-1.082A5.351,5.351,0,0,0-31.479,42.36Zm9.669-3.753a5.685,5.685,0,0,0-.933-.072,2.5,2.5,0,0,0-2.533,1.589V48h-1.9V36.905h1.846l.031,1.282A2.954,2.954,0,0,1-22.651,36.7a1.938,1.938,0,0,1,.841.144Zm1.036,3.743a6.553,6.553,0,0,1,.641-2.933,4.781,4.781,0,0,1,1.784-2.01,4.857,4.857,0,0,1,2.61-.708,4.679,4.679,0,0,1,3.666,1.569,6.036,6.036,0,0,1,1.4,4.173v.133a6.61,6.61,0,0,1-.62,2.907,4.71,4.71,0,0,1-1.774,2,4.913,4.913,0,0,1-2.651.718,4.667,4.667,0,0,1-3.656-1.569,6.005,6.005,0,0,1-1.4-4.153Zm1.907.226a4.746,4.746,0,0,0,.856,2.963,2.74,2.74,0,0,0,2.292,1.118,2.724,2.724,0,0,0,2.3-1.133,5.19,5.19,0,0,0,.851-3.174,4.738,4.738,0,0,0-.866-2.958,2.755,2.755,0,0,0-2.3-1.133,2.724,2.724,0,0,0-2.266,1.118A5.152,5.152,0,0,0-18.867,42.576Zm15.022,4.081a2.732,2.732,0,0,0,1.774-.615A2.164,2.164,0,0,0-1.23,44.5H.564a3.44,3.44,0,0,1-.656,1.815,4.322,4.322,0,0,1-1.615,1.374,4.66,4.66,0,0,1-2.138.513,4.57,4.57,0,0,1-3.6-1.512,6.024,6.024,0,0,1-1.338-4.137v-.318a6.679,6.679,0,0,1,.595-2.881A4.53,4.53,0,0,1-6.486,37.4a4.85,4.85,0,0,1,2.63-.7,4.45,4.45,0,0,1,3.1,1.118,3.994,3.994,0,0,1,1.318,2.9H-1.23a2.614,2.614,0,0,0-.815-1.769,2.536,2.536,0,0,0-1.81-.692A2.655,2.655,0,0,0-6.1,39.3a4.888,4.888,0,0,0-.795,3.01v.359a4.79,4.79,0,0,0,.79,2.953A2.668,2.668,0,0,0-3.845,46.657ZM7.3,48.205A4.848,4.848,0,0,1,3.63,46.723,5.5,5.5,0,0,1,2.215,42.76v-.349a6.658,6.658,0,0,1,.631-2.948,4.919,4.919,0,0,1,1.764-2.03A4.434,4.434,0,0,1,7.065,36.7a4.155,4.155,0,0,1,3.363,1.425,6.171,6.171,0,0,1,1.2,4.081V43H4.112a3.944,3.944,0,0,0,.959,2.651A3.014,3.014,0,0,0,7.4,46.657a3.3,3.3,0,0,0,1.7-.41,4.277,4.277,0,0,0,1.22-1.087l1.159.9A4.659,4.659,0,0,1,7.3,48.205Zm-.236-9.946a2.53,2.53,0,0,0-1.928.836,4.062,4.062,0,0,0-.964,2.343H9.731v-.144a3.613,3.613,0,0,0-.779-2.24A2.382,2.382,0,0,0,7.065,38.259Zm13.217,6.8a1.4,1.4,0,0,0-.579-1.195,5.576,5.576,0,0,0-2.02-.733,9.551,9.551,0,0,1-2.287-.738,3.253,3.253,0,0,1-1.251-1.025,2.453,2.453,0,0,1-.405-1.415,2.878,2.878,0,0,1,1.154-2.307,4.505,4.505,0,0,1,2.948-.943,4.636,4.636,0,0,1,3.061.974,3.094,3.094,0,0,1,1.174,2.492H20.169a1.713,1.713,0,0,0-.661-1.343,2.478,2.478,0,0,0-1.666-.564,2.593,2.593,0,0,0-1.62.451,1.42,1.42,0,0,0-.584,1.179,1.151,1.151,0,0,0,.543,1.036,6.687,6.687,0,0,0,1.964.667,10.231,10.231,0,0,1,2.3.759,3.358,3.358,0,0,1,1.307,1.061,2.609,2.609,0,0,1,.426,1.512,2.839,2.839,0,0,1-1.189,2.384,4.989,4.989,0,0,1-3.086.9,5.587,5.587,0,0,1-2.358-.472,3.836,3.836,0,0,1-1.6-1.318,3.176,3.176,0,0,1-.579-1.83h1.9a1.964,1.964,0,0,0,.764,1.512,2.964,2.964,0,0,0,1.882.559,3.059,3.059,0,0,0,1.728-.436A1.339,1.339,0,0,0,20.282,45.057Zm3.866-2.707a6.553,6.553,0,0,1,.641-2.933,4.781,4.781,0,0,1,1.784-2.01,4.857,4.857,0,0,1,2.61-.708,4.679,4.679,0,0,1,3.666,1.569,6.036,6.036,0,0,1,1.4,4.173v.133a6.61,6.61,0,0,1-.62,2.907,4.71,4.71,0,0,1-1.774,2,4.913,4.913,0,0,1-2.651.718,4.667,4.667,0,0,1-3.656-1.569,6.005,6.005,0,0,1-1.4-4.153Zm1.907.226a4.746,4.746,0,0,0,.856,2.963,2.9,2.9,0,0,0,4.589-.015,5.19,5.19,0,0,0,.851-3.174,4.738,4.738,0,0,0-.866-2.958,2.755,2.755,0,0,0-2.3-1.133,2.724,2.724,0,0,0-2.266,1.118A5.152,5.152,0,0,0,26.055,42.576Z" transform="translate(8795 -9116)" fill="#12263f"/>
    </g>
    <g id="Grupo_79281" data-name="Grupo 79281" transform="translate(-140 -80)">
      <rect id="Rectángulo_33817" data-name="Rectángulo 33817" width="128" height="79" rx="13" transform="translate(8558 -9078)" fill="#4dd0e1"/>
      <path id="Trazado_116683" data-name="Trazado 116683" d="M-31.833-5.845V0H-33.8V-14.93H-28.3a5.532,5.532,0,0,1,3.84,1.251,4.241,4.241,0,0,1,1.389,3.312,4.185,4.185,0,0,1-1.359,3.348,5.779,5.779,0,0,1-3.891,1.174Zm0-1.61H-28.3a3.537,3.537,0,0,0,2.42-.745,2.723,2.723,0,0,0,.841-2.152,2.813,2.813,0,0,0-.841-2.136,3.314,3.314,0,0,0-2.307-.832h-3.65ZM-14-1.1a4.029,4.029,0,0,1-3.25,1.3,3.449,3.449,0,0,1-2.7-1.031,4.461,4.461,0,0,1-.938-3.051v-7.219H-19v7.167Q-19-1.4-16.945-1.4a2.84,2.84,0,0,0,2.892-1.62v-8.07h1.9V0h-1.8Zm6.521-10L-7.419-9.7A4.043,4.043,0,0,1-4.1-11.3q3.517,0,3.548,3.968V0h-1.9V-7.342a2.554,2.554,0,0,0-.549-1.774A2.2,2.2,0,0,0-4.671-9.69a2.738,2.738,0,0,0-1.62.492A3.342,3.342,0,0,0-7.378-7.906V0h-1.9V-11.095ZM4.886-13.781v2.687H6.957v1.466H4.886v6.889a1.54,1.54,0,0,0,.277,1,1.165,1.165,0,0,0,.943.334,4.593,4.593,0,0,0,.9-.123V0a5.532,5.532,0,0,1-1.456.2A2.362,2.362,0,0,1,3.635-.564a3.3,3.3,0,0,1-.646-2.184v-6.88H.969v-1.466h2.02v-2.687ZM8.465-5.65a6.553,6.553,0,0,1,.641-2.933,4.781,4.781,0,0,1,1.784-2.01A4.857,4.857,0,0,1,13.5-11.3a4.679,4.679,0,0,1,3.666,1.569,6.036,6.036,0,0,1,1.4,4.173v.133a6.61,6.61,0,0,1-.62,2.907,4.71,4.71,0,0,1-1.774,2A4.913,4.913,0,0,1,13.52.205,4.667,4.667,0,0,1,9.864-1.364a6.005,6.005,0,0,1-1.4-4.153Zm1.907.226a4.746,4.746,0,0,0,.856,2.963A2.74,2.74,0,0,0,13.52-1.343a2.724,2.724,0,0,0,2.3-1.133,5.19,5.19,0,0,0,.851-3.174A4.738,4.738,0,0,0,15.8-8.608a2.755,2.755,0,0,0-2.3-1.133,2.724,2.724,0,0,0-2.266,1.118A5.152,5.152,0,0,0,10.372-5.424ZM27.4-2.943a1.4,1.4,0,0,0-.579-1.195,5.576,5.576,0,0,0-2.02-.733,9.551,9.551,0,0,1-2.287-.738,3.253,3.253,0,0,1-1.251-1.025,2.453,2.453,0,0,1-.405-1.415,2.878,2.878,0,0,1,1.154-2.307,4.505,4.505,0,0,1,2.948-.943,4.636,4.636,0,0,1,3.061.974A3.094,3.094,0,0,1,29.2-7.834H27.291a1.713,1.713,0,0,0-.661-1.343,2.478,2.478,0,0,0-1.666-.564,2.593,2.593,0,0,0-1.62.451,1.42,1.42,0,0,0-.584,1.179A1.151,1.151,0,0,0,23.3-7.075a6.687,6.687,0,0,0,1.964.667,10.231,10.231,0,0,1,2.3.759,3.358,3.358,0,0,1,1.307,1.061A2.609,2.609,0,0,1,29.3-3.076,2.839,2.839,0,0,1,28.111-.692a4.989,4.989,0,0,1-3.086.9,5.587,5.587,0,0,1-2.358-.472,3.836,3.836,0,0,1-1.6-1.318,3.176,3.176,0,0,1-.579-1.83h1.9A1.964,1.964,0,0,0,23.143-1.9a2.964,2.964,0,0,0,1.882.559,3.059,3.059,0,0,0,1.728-.436A1.339,1.339,0,0,0,27.4-2.943ZM-45.43,26.36a6.5,6.5,0,0,1,1.21-4.107A3.826,3.826,0,0,1-41.052,20.7a3.848,3.848,0,0,1,3.086,1.333V16.25h1.9V32h-1.743l-.092-1.189a3.863,3.863,0,0,1-3.168,1.395,3.789,3.789,0,0,1-3.143-1.579A6.573,6.573,0,0,1-45.43,26.5Zm1.9.215a4.921,4.921,0,0,0,.779,2.953A2.519,2.519,0,0,0-40.6,30.6a2.767,2.767,0,0,0,2.635-1.62v-5.1A2.789,2.789,0,0,0-40.58,22.31a2.531,2.531,0,0,0-2.174,1.077A5.418,5.418,0,0,0-43.533,26.576Zm15.012,5.629a4.848,4.848,0,0,1-3.671-1.482,5.5,5.5,0,0,1-1.415-3.963v-.349a6.658,6.658,0,0,1,.631-2.948,4.919,4.919,0,0,1,1.764-2.03,4.434,4.434,0,0,1,2.456-.733,4.155,4.155,0,0,1,3.363,1.425,6.171,6.171,0,0,1,1.2,4.081V27H-31.71a3.944,3.944,0,0,0,.959,2.651,3.014,3.014,0,0,0,2.333,1.01,3.3,3.3,0,0,0,1.7-.41A4.277,4.277,0,0,0-25.5,29.16l1.159.9A4.659,4.659,0,0,1-28.521,32.205Zm-.236-9.946a2.53,2.53,0,0,0-1.928.836,4.062,4.062,0,0,0-.964,2.343h5.558v-.144a3.613,3.613,0,0,0-.779-2.24A2.382,2.382,0,0,0-28.757,22.259Zm13.74-1.354.051,1.23A4.1,4.1,0,0,1-11.674,20.7a3.172,3.172,0,0,1,3.168,1.784,4.2,4.2,0,0,1,1.441-1.292,4.255,4.255,0,0,1,2.1-.492q3.65,0,3.712,3.866V32h-1.9V24.679A2.548,2.548,0,0,0-3.7,22.9a2.393,2.393,0,0,0-1.825-.59,2.515,2.515,0,0,0-1.753.631,2.558,2.558,0,0,0-.81,1.7V32H-9.992V24.73a2.117,2.117,0,0,0-2.369-2.42A2.538,2.538,0,0,0-14.914,23.9V32h-1.9V20.905Zm21.226,11.3a4.848,4.848,0,0,1-3.671-1.482A5.5,5.5,0,0,1,1.123,26.76v-.349a6.658,6.658,0,0,1,.631-2.948,4.919,4.919,0,0,1,1.764-2.03A4.434,4.434,0,0,1,5.973,20.7a4.155,4.155,0,0,1,3.363,1.425,6.171,6.171,0,0,1,1.2,4.081V27H3.02a3.944,3.944,0,0,0,.959,2.651,3.014,3.014,0,0,0,2.333,1.01,3.3,3.3,0,0,0,1.7-.41,4.277,4.277,0,0,0,1.22-1.087l1.159.9A4.659,4.659,0,0,1,6.209,32.205Zm-.236-9.946a2.53,2.53,0,0,0-1.928.836,4.062,4.062,0,0,0-.964,2.343H8.639v-.144a3.613,3.613,0,0,0-.779-2.24A2.382,2.382,0,0,0,5.973,22.259Zm8.716-1.354V33.282q0,3.2-2.9,3.2a3.54,3.54,0,0,1-1.159-.183V34.789a3.667,3.667,0,0,0,.861.082,1.289,1.289,0,0,0,.969-.344,1.7,1.7,0,0,0,.333-1.2V20.905ZM12.6,17.962a1.137,1.137,0,0,1,.282-.774,1.037,1.037,0,0,1,.825-.323,1.075,1.075,0,0,1,.841.318,1.12,1.12,0,0,1,.287.779,1.084,1.084,0,0,1-.287.769,1.1,1.1,0,0,1-.841.308,1.061,1.061,0,0,1-.831-.308A1.107,1.107,0,0,1,12.6,17.962Zm4.645,8.388a6.553,6.553,0,0,1,.641-2.933,4.781,4.781,0,0,1,1.784-2.01,4.857,4.857,0,0,1,2.61-.708,4.679,4.679,0,0,1,3.666,1.569,6.036,6.036,0,0,1,1.4,4.173v.133a6.61,6.61,0,0,1-.62,2.907,4.71,4.71,0,0,1-1.774,2,4.913,4.913,0,0,1-2.651.718,4.667,4.667,0,0,1-3.656-1.569,6.005,6.005,0,0,1-1.4-4.153Zm1.907.226a4.746,4.746,0,0,0,.856,2.963,2.9,2.9,0,0,0,4.589-.015,5.19,5.19,0,0,0,.851-3.174,4.738,4.738,0,0,0-.866-2.958,2.755,2.755,0,0,0-2.3-1.133,2.724,2.724,0,0,0-2.266,1.118A5.152,5.152,0,0,0,19.149,26.576Zm15.935-3.968a5.685,5.685,0,0,0-.933-.072,2.5,2.5,0,0,0-2.533,1.589V32h-1.9V20.905h1.846l.031,1.282A2.954,2.954,0,0,1,34.243,20.7a1.938,1.938,0,0,1,.841.144ZM43.266,32A3.985,3.985,0,0,1,43,30.831a4.233,4.233,0,0,1-3.158,1.374,3.916,3.916,0,0,1-2.692-.928A3,3,0,0,1,36.1,28.924a3.136,3.136,0,0,1,1.318-2.692,6.212,6.212,0,0,1,3.707-.959h1.846V24.4a2.131,2.131,0,0,0-.595-1.584,2.39,2.39,0,0,0-1.753-.59,2.766,2.766,0,0,0-1.7.513,1.511,1.511,0,0,0-.687,1.241H36.324a2.618,2.618,0,0,1,.59-1.6,4.024,4.024,0,0,1,1.6-1.225,5.381,5.381,0,0,1,2.22-.451,4.386,4.386,0,0,1,3,.959,3.458,3.458,0,0,1,1.128,2.64v5.106a6.243,6.243,0,0,0,.39,2.43V32Zm-3.148-1.446a3.334,3.334,0,0,0,1.692-.461,2.791,2.791,0,0,0,1.159-1.2V26.617H41.482Q38,26.617,38,28.657a1.727,1.727,0,0,0,.595,1.395A2.286,2.286,0,0,0,40.118,30.554Z" transform="translate(8622 -9047)" fill="#12263f"/>
    </g>
    <g id="Grupo_79279" data-name="Grupo 79279" transform="translate(56 19)">
      <rect id="Rectángulo_33822" data-name="Rectángulo 33822" width="135" height="99" rx="13" transform="translate(8291 -9320)" fill="#4dd0e1"/>
      <path id="Trazado_116677" data-name="Trazado 116677" d="M-19.159,0h-1.979l-7.516-11.5V0h-1.979V-14.93h1.979l7.537,11.556V-14.93h1.958ZM-9.111-1.1a4.029,4.029,0,0,1-3.25,1.3,3.449,3.449,0,0,1-2.7-1.031A4.461,4.461,0,0,1-16-3.876v-7.219h1.9v7.167q0,2.522,2.051,2.522a2.84,2.84,0,0,0,2.892-1.62v-8.07h1.9V0h-1.8ZM.22.205A4.848,4.848,0,0,1-3.45-1.277,5.5,5.5,0,0,1-4.865-5.24v-.349a6.658,6.658,0,0,1,.631-2.948,4.919,4.919,0,0,1,1.764-2.03A4.434,4.434,0,0,1-.015-11.3,4.155,4.155,0,0,1,3.348-9.875a6.171,6.171,0,0,1,1.2,4.081V-5H-2.969A3.944,3.944,0,0,0-2.01-2.353,3.014,3.014,0,0,0,.323-1.343a3.3,3.3,0,0,0,1.7-.41A4.277,4.277,0,0,0,3.245-2.84l1.159.9A4.659,4.659,0,0,1,.22.205ZM-.015-9.741a2.53,2.53,0,0,0-1.928.836,4.062,4.062,0,0,0-.964,2.343H2.651v-.144a3.613,3.613,0,0,0-.779-2.24A2.382,2.382,0,0,0-.015-9.741ZM10.269-2.574l2.748-8.521h1.938L10.977,0H9.531L5.511-11.095H7.449ZM16.124-5.65a6.553,6.553,0,0,1,.641-2.933,4.781,4.781,0,0,1,1.784-2.01,4.857,4.857,0,0,1,2.61-.708,4.679,4.679,0,0,1,3.666,1.569,6.036,6.036,0,0,1,1.4,4.173v.133a6.61,6.61,0,0,1-.62,2.907,4.71,4.71,0,0,1-1.774,2,4.913,4.913,0,0,1-2.651.718,4.667,4.667,0,0,1-3.656-1.569,6.005,6.005,0,0,1-1.4-4.153Zm1.907.226a4.746,4.746,0,0,0,.856,2.963,2.74,2.74,0,0,0,2.292,1.118,2.724,2.724,0,0,0,2.3-1.133,5.19,5.19,0,0,0,.851-3.174,4.738,4.738,0,0,0-.866-2.958,2.755,2.755,0,0,0-2.3-1.133,2.724,2.724,0,0,0-2.266,1.118A5.152,5.152,0,0,0,18.031-5.424Zm-47.614,24a6.643,6.643,0,0,1-1.159,4.081,3.714,3.714,0,0,1-3.138,1.548,4.069,4.069,0,0,1-3.179-1.282v5.342h-1.9V12.905h1.733l.092,1.23A3.908,3.908,0,0,1-33.91,12.7a3.783,3.783,0,0,1,3.163,1.507A6.716,6.716,0,0,1-29.583,18.4Zm-1.9-.215a4.9,4.9,0,0,0-.8-2.963,2.576,2.576,0,0,0-2.194-1.087,2.789,2.789,0,0,0-2.584,1.528v5.3a2.794,2.794,0,0,0,2.6,1.518,2.564,2.564,0,0,0,2.169-1.082A5.351,5.351,0,0,0-31.479,18.36Zm9.669-3.753a5.685,5.685,0,0,0-.933-.072,2.5,2.5,0,0,0-2.533,1.589V24h-1.9V12.905h1.846l.031,1.282A2.954,2.954,0,0,1-22.651,12.7a1.938,1.938,0,0,1,.841.144Zm1.036,3.743a6.553,6.553,0,0,1,.641-2.933,4.781,4.781,0,0,1,1.784-2.01,4.857,4.857,0,0,1,2.61-.708,4.679,4.679,0,0,1,3.666,1.569,6.036,6.036,0,0,1,1.4,4.173v.133a6.61,6.61,0,0,1-.62,2.907,4.71,4.71,0,0,1-1.774,2,4.913,4.913,0,0,1-2.651.718,4.667,4.667,0,0,1-3.656-1.569,6.005,6.005,0,0,1-1.4-4.153Zm1.907.226a4.746,4.746,0,0,0,.856,2.963,2.74,2.74,0,0,0,2.292,1.118,2.724,2.724,0,0,0,2.3-1.133,5.19,5.19,0,0,0,.851-3.174,4.738,4.738,0,0,0-.866-2.958,2.755,2.755,0,0,0-2.3-1.133,2.724,2.724,0,0,0-2.266,1.118A5.152,5.152,0,0,0-18.867,18.576Zm15.022,4.081a2.732,2.732,0,0,0,1.774-.615A2.164,2.164,0,0,0-1.23,20.5H.564a3.44,3.44,0,0,1-.656,1.815,4.322,4.322,0,0,1-1.615,1.374,4.66,4.66,0,0,1-2.138.513,4.57,4.57,0,0,1-3.6-1.512,6.024,6.024,0,0,1-1.338-4.137v-.318a6.679,6.679,0,0,1,.595-2.881A4.53,4.53,0,0,1-6.486,13.4a4.85,4.85,0,0,1,2.63-.7,4.45,4.45,0,0,1,3.1,1.118,3.994,3.994,0,0,1,1.318,2.9H-1.23a2.614,2.614,0,0,0-.815-1.769,2.536,2.536,0,0,0-1.81-.692A2.655,2.655,0,0,0-6.1,15.3a4.888,4.888,0,0,0-.795,3.01v.359a4.79,4.79,0,0,0,.79,2.953A2.668,2.668,0,0,0-3.845,22.657ZM7.3,24.205A4.848,4.848,0,0,1,3.63,22.723,5.5,5.5,0,0,1,2.215,18.76v-.349a6.658,6.658,0,0,1,.631-2.948,4.919,4.919,0,0,1,1.764-2.03A4.434,4.434,0,0,1,7.065,12.7a4.155,4.155,0,0,1,3.363,1.425,6.171,6.171,0,0,1,1.2,4.081V19H4.112a3.944,3.944,0,0,0,.959,2.651A3.014,3.014,0,0,0,7.4,22.657a3.3,3.3,0,0,0,1.7-.41,4.277,4.277,0,0,0,1.22-1.087l1.159.9A4.659,4.659,0,0,1,7.3,24.205Zm-.236-9.946a2.53,2.53,0,0,0-1.928.836,4.062,4.062,0,0,0-.964,2.343H9.731v-.144a3.613,3.613,0,0,0-.779-2.24A2.382,2.382,0,0,0,7.065,14.259Zm13.217,6.8a1.4,1.4,0,0,0-.579-1.195,5.576,5.576,0,0,0-2.02-.733,9.551,9.551,0,0,1-2.287-.738,3.253,3.253,0,0,1-1.251-1.025,2.453,2.453,0,0,1-.405-1.415,2.878,2.878,0,0,1,1.154-2.307,4.505,4.505,0,0,1,2.948-.943,4.636,4.636,0,0,1,3.061.974,3.094,3.094,0,0,1,1.174,2.492H20.169a1.713,1.713,0,0,0-.661-1.343,2.478,2.478,0,0,0-1.666-.564,2.593,2.593,0,0,0-1.62.451,1.42,1.42,0,0,0-.584,1.179,1.151,1.151,0,0,0,.543,1.036,6.687,6.687,0,0,0,1.964.667,10.231,10.231,0,0,1,2.3.759,3.358,3.358,0,0,1,1.307,1.061,2.609,2.609,0,0,1,.426,1.512,2.839,2.839,0,0,1-1.189,2.384,4.989,4.989,0,0,1-3.086.9,5.587,5.587,0,0,1-2.358-.472,3.836,3.836,0,0,1-1.6-1.318,3.176,3.176,0,0,1-.579-1.83h1.9a1.964,1.964,0,0,0,.764,1.512,2.964,2.964,0,0,0,1.882.559,3.059,3.059,0,0,0,1.728-.436A1.339,1.339,0,0,0,20.282,21.057Zm3.866-2.707a6.553,6.553,0,0,1,.641-2.933,4.781,4.781,0,0,1,1.784-2.01,4.857,4.857,0,0,1,2.61-.708,4.679,4.679,0,0,1,3.666,1.569,6.036,6.036,0,0,1,1.4,4.173v.133a6.61,6.61,0,0,1-.62,2.907,4.71,4.71,0,0,1-1.774,2,4.913,4.913,0,0,1-2.651.718,4.667,4.667,0,0,1-3.656-1.569,6.005,6.005,0,0,1-1.4-4.153Zm1.907.226a4.746,4.746,0,0,0,.856,2.963,2.9,2.9,0,0,0,4.589-.015,5.19,5.19,0,0,0,.851-3.174,4.738,4.738,0,0,0-.866-2.958,2.755,2.755,0,0,0-2.3-1.133,2.724,2.724,0,0,0-2.266,1.118A5.152,5.152,0,0,0,26.055,18.576ZM-41.01,36.905l.051,1.23A4.1,4.1,0,0,1-37.668,36.7,3.172,3.172,0,0,1-34.5,38.484a4.2,4.2,0,0,1,1.441-1.292,4.255,4.255,0,0,1,2.1-.492q3.65,0,3.712,3.866V48h-1.9V40.679A2.548,2.548,0,0,0-29.69,38.9a2.393,2.393,0,0,0-1.825-.59,2.515,2.515,0,0,0-1.753.631,2.558,2.558,0,0,0-.81,1.7V48h-1.907V40.73a2.117,2.117,0,0,0-2.369-2.42A2.538,2.538,0,0,0-40.908,39.9V48h-1.9V36.905Zm21.226,11.3a4.848,4.848,0,0,1-3.671-1.482,5.5,5.5,0,0,1-1.415-3.963v-.349a6.658,6.658,0,0,1,.631-2.948,4.919,4.919,0,0,1,1.764-2.03,4.434,4.434,0,0,1,2.456-.733,4.155,4.155,0,0,1,3.363,1.425,6.171,6.171,0,0,1,1.2,4.081V43h-7.516a3.944,3.944,0,0,0,.959,2.651,3.014,3.014,0,0,0,2.333,1.01,3.3,3.3,0,0,0,1.7-.41,4.277,4.277,0,0,0,1.22-1.087l1.159.9A4.659,4.659,0,0,1-19.785,48.205Zm-.236-9.946a2.53,2.53,0,0,0-1.928.836,4.062,4.062,0,0,0-.964,2.343h5.558v-.144a3.613,3.613,0,0,0-.779-2.24A2.382,2.382,0,0,0-20.021,38.259Zm8.716-1.354V49.282q0,3.2-2.9,3.2a3.54,3.54,0,0,1-1.159-.183V50.789a3.667,3.667,0,0,0,.861.082,1.289,1.289,0,0,0,.969-.344,1.7,1.7,0,0,0,.333-1.2V36.905ZM-13.4,33.962a1.137,1.137,0,0,1,.282-.774,1.037,1.037,0,0,1,.825-.323,1.075,1.075,0,0,1,.841.318,1.12,1.12,0,0,1,.287.779,1.084,1.084,0,0,1-.287.769,1.1,1.1,0,0,1-.841.308,1.061,1.061,0,0,1-.831-.308A1.107,1.107,0,0,1-13.4,33.962Zm4.645,8.388a6.553,6.553,0,0,1,.641-2.933,4.781,4.781,0,0,1,1.784-2.01,4.857,4.857,0,0,1,2.61-.708A4.679,4.679,0,0,1-.051,38.269a6.036,6.036,0,0,1,1.4,4.173v.133a6.61,6.61,0,0,1-.62,2.907,4.71,4.71,0,0,1-1.774,2,4.913,4.913,0,0,1-2.651.718,4.667,4.667,0,0,1-3.656-1.569,6.005,6.005,0,0,1-1.4-4.153Zm1.907.226a4.746,4.746,0,0,0,.856,2.963A2.74,2.74,0,0,0-3.7,46.657a2.724,2.724,0,0,0,2.3-1.133A5.19,5.19,0,0,0-.549,42.35a4.738,4.738,0,0,0-.866-2.958,2.755,2.755,0,0,0-2.3-1.133,2.724,2.724,0,0,0-2.266,1.118A5.152,5.152,0,0,0-6.844,42.576ZM9.09,38.607a5.685,5.685,0,0,0-.933-.072,2.5,2.5,0,0,0-2.533,1.589V48h-1.9V36.905H5.573L5.6,38.187A2.954,2.954,0,0,1,8.249,36.7a1.938,1.938,0,0,1,.841.144ZM17.273,48a3.985,3.985,0,0,1-.267-1.169,4.233,4.233,0,0,1-3.158,1.374,3.916,3.916,0,0,1-2.692-.928,3,3,0,0,1-1.051-2.353,3.136,3.136,0,0,1,1.318-2.692,6.212,6.212,0,0,1,3.707-.959h1.846V40.4a2.131,2.131,0,0,0-.595-1.584,2.39,2.39,0,0,0-1.753-.59,2.766,2.766,0,0,0-1.7.513,1.511,1.511,0,0,0-.687,1.241H10.331a2.618,2.618,0,0,1,.59-1.6,4.024,4.024,0,0,1,1.6-1.225,5.381,5.381,0,0,1,2.22-.451,4.386,4.386,0,0,1,3,.959,3.458,3.458,0,0,1,1.128,2.64v5.106a6.243,6.243,0,0,0,.39,2.43V48Zm-3.148-1.446a3.334,3.334,0,0,0,1.692-.461,2.791,2.791,0,0,0,1.159-1.2V42.617H15.489Q12,42.617,12,44.657a1.727,1.727,0,0,0,.595,1.395A2.286,2.286,0,0,0,14.125,46.554Zm7.26-4.194a6.5,6.5,0,0,1,1.21-4.107A3.826,3.826,0,0,1,25.763,36.7a3.848,3.848,0,0,1,3.086,1.333V32.25h1.9V48H29l-.092-1.189a3.863,3.863,0,0,1-3.168,1.395A3.789,3.789,0,0,1,22.6,46.626,6.573,6.573,0,0,1,21.385,42.5Zm1.9.215a4.921,4.921,0,0,0,.779,2.953A2.519,2.519,0,0,0,26.214,46.6a2.767,2.767,0,0,0,2.635-1.62v-5.1a2.789,2.789,0,0,0-2.615-1.569,2.531,2.531,0,0,0-2.174,1.077A5.418,5.418,0,0,0,23.281,42.576Zm9.905-.226a6.553,6.553,0,0,1,.641-2.933,4.781,4.781,0,0,1,1.784-2.01,4.857,4.857,0,0,1,2.61-.708,4.679,4.679,0,0,1,3.666,1.569,6.036,6.036,0,0,1,1.4,4.173v.133a6.61,6.61,0,0,1-.62,2.907,4.71,4.71,0,0,1-1.774,2,4.913,4.913,0,0,1-2.651.718,4.667,4.667,0,0,1-3.656-1.569,6.005,6.005,0,0,1-1.4-4.153Zm1.907.226a4.746,4.746,0,0,0,.856,2.963,2.9,2.9,0,0,0,4.589-.015,5.19,5.19,0,0,0,.851-3.174,4.738,4.738,0,0,0-.866-2.958,2.755,2.755,0,0,0-2.3-1.133,2.724,2.724,0,0,0-2.266,1.118A5.152,5.152,0,0,0,35.094,42.576Z" transform="translate(8359 -9287)" fill="#12263f"/>
    </g>
    <g id="Grupo_79283" data-name="Grupo 79283" transform="translate(36 38)">
      <rect id="Rectángulo_33819" data-name="Rectángulo 33819" width="135" height="79" rx="13" transform="translate(8328 -9446)" fill="#4dd0e1"/>
      <path id="Trazado_116678" data-name="Trazado 116678" d="M-13.833-4.737a5.493,5.493,0,0,1-1.748,3.656A5.73,5.73,0,0,1-19.493.205a5.261,5.261,0,0,1-4.24-1.9,7.632,7.632,0,0,1-1.594-5.076V-8.2a8.506,8.506,0,0,1,.743-3.661,5.553,5.553,0,0,1,2.107-2.425,5.867,5.867,0,0,1,3.158-.846A5.4,5.4,0,0,1-15.5-13.807a5.559,5.559,0,0,1,1.671,3.676h-1.979a4.29,4.29,0,0,0-1.113-2.592,3.366,3.366,0,0,0-2.394-.8,3.522,3.522,0,0,0-2.958,1.4,6.407,6.407,0,0,0-1.072,3.972v1.447a6.586,6.586,0,0,0,1.015,3.869A3.28,3.28,0,0,0-19.493-1.4a3.789,3.789,0,0,0,2.517-.743,4.125,4.125,0,0,0,1.164-2.589ZM-4.594,0A3.985,3.985,0,0,1-4.86-1.169,4.233,4.233,0,0,1-8.019.205,3.916,3.916,0,0,1-10.71-.723a3,3,0,0,1-1.051-2.353,3.136,3.136,0,0,1,1.318-2.692,6.212,6.212,0,0,1,3.707-.959h1.846V-7.6a2.131,2.131,0,0,0-.595-1.584,2.39,2.39,0,0,0-1.753-.59,2.766,2.766,0,0,0-1.7.513,1.511,1.511,0,0,0-.687,1.241h-1.907a2.618,2.618,0,0,1,.59-1.6,4.024,4.024,0,0,1,1.6-1.225,5.381,5.381,0,0,1,2.22-.451,4.386,4.386,0,0,1,3,.959A3.458,3.458,0,0,1-2.994-7.7v5.106A6.243,6.243,0,0,0-2.6-.164V0ZM-7.742-1.446A3.334,3.334,0,0,0-6.05-1.907a2.791,2.791,0,0,0,1.159-1.2V-5.383H-6.378q-3.486,0-3.486,2.041A1.727,1.727,0,0,0-9.27-1.948,2.286,2.286,0,0,0-7.742-1.446Zm14.181-1.5A1.4,1.4,0,0,0,5.86-4.137a5.576,5.576,0,0,0-2.02-.733,9.551,9.551,0,0,1-2.287-.738A3.253,3.253,0,0,1,.3-6.634,2.453,2.453,0,0,1-.1-8.049a2.878,2.878,0,0,1,1.154-2.307A4.505,4.505,0,0,1,4-11.3a4.636,4.636,0,0,1,3.061.974A3.094,3.094,0,0,1,8.234-7.834H6.327a1.713,1.713,0,0,0-.661-1.343A2.478,2.478,0,0,0,4-9.741a2.593,2.593,0,0,0-1.62.451,1.42,1.42,0,0,0-.584,1.179,1.151,1.151,0,0,0,.543,1.036A6.687,6.687,0,0,0,4.3-6.409a10.231,10.231,0,0,1,2.3.759A3.358,3.358,0,0,1,7.911-4.589a2.609,2.609,0,0,1,.426,1.512A2.839,2.839,0,0,1,7.147-.692a4.989,4.989,0,0,1-3.086.9A5.587,5.587,0,0,1,1.7-.267,3.836,3.836,0,0,1,.1-1.584a3.176,3.176,0,0,1-.579-1.83h1.9A1.964,1.964,0,0,0,2.179-1.9a2.964,2.964,0,0,0,1.882.559,3.059,3.059,0,0,0,1.728-.436A1.339,1.339,0,0,0,6.439-2.943ZM10.305-5.65a6.553,6.553,0,0,1,.641-2.933,4.781,4.781,0,0,1,1.784-2.01,4.857,4.857,0,0,1,2.61-.708,4.679,4.679,0,0,1,3.666,1.569,6.036,6.036,0,0,1,1.4,4.173v.133a6.61,6.61,0,0,1-.62,2.907,4.71,4.71,0,0,1-1.774,2A4.913,4.913,0,0,1,15.36.205,4.667,4.667,0,0,1,11.7-1.364a6.005,6.005,0,0,1-1.4-4.153Zm1.907.226a4.746,4.746,0,0,0,.856,2.963A2.74,2.74,0,0,0,15.36-1.343a2.724,2.724,0,0,0,2.3-1.133,5.19,5.19,0,0,0,.851-3.174,4.738,4.738,0,0,0-.866-2.958,2.755,2.755,0,0,0-2.3-1.133,2.724,2.724,0,0,0-2.266,1.118A5.152,5.152,0,0,0,12.212-5.424ZM-50.362,26.36a6.5,6.5,0,0,1,1.21-4.107A3.826,3.826,0,0,1-45.984,20.7,3.848,3.848,0,0,1-42.9,22.033V16.25H-41V32h-1.743l-.092-1.189A3.863,3.863,0,0,1-46,32.205a3.789,3.789,0,0,1-3.143-1.579A6.573,6.573,0,0,1-50.362,26.5Zm1.9.215a4.921,4.921,0,0,0,.779,2.953A2.519,2.519,0,0,0-45.532,30.6a2.767,2.767,0,0,0,2.635-1.62v-5.1a2.789,2.789,0,0,0-2.615-1.569,2.531,2.531,0,0,0-2.174,1.077A5.418,5.418,0,0,0-48.465,26.576Zm15.012,5.629a4.848,4.848,0,0,1-3.671-1.482,5.5,5.5,0,0,1-1.415-3.963v-.349a6.658,6.658,0,0,1,.631-2.948,4.919,4.919,0,0,1,1.764-2.03,4.434,4.434,0,0,1,2.456-.733,4.155,4.155,0,0,1,3.363,1.425,6.171,6.171,0,0,1,1.2,4.081V27h-7.516a3.944,3.944,0,0,0,.959,2.651,3.014,3.014,0,0,0,2.333,1.01,3.3,3.3,0,0,0,1.7-.41,4.277,4.277,0,0,0,1.22-1.087l1.159.9A4.659,4.659,0,0,1-33.453,32.205Zm-.236-9.946a2.53,2.53,0,0,0-1.928.836,4.062,4.062,0,0,0-.964,2.343h5.558v-.144a3.613,3.613,0,0,0-.779-2.24A2.382,2.382,0,0,0-33.689,22.259Zm16.56,9.946A4.848,4.848,0,0,1-20.8,30.723a5.5,5.5,0,0,1-1.415-3.963v-.349a6.658,6.658,0,0,1,.631-2.948,4.919,4.919,0,0,1,1.764-2.03,4.434,4.434,0,0,1,2.456-.733A4.155,4.155,0,0,1-14,22.125a6.171,6.171,0,0,1,1.2,4.081V27h-7.516a3.944,3.944,0,0,0,.959,2.651,3.014,3.014,0,0,0,2.333,1.01,3.3,3.3,0,0,0,1.7-.41A4.277,4.277,0,0,0-14.1,29.16l1.159.9A4.659,4.659,0,0,1-17.129,32.205Zm-.236-9.946a2.53,2.53,0,0,0-1.928.836,4.062,4.062,0,0,0-.964,2.343H-14.7v-.144a3.613,3.613,0,0,0-.779-2.24A2.382,2.382,0,0,0-17.365,22.259Zm13.217,6.8a1.4,1.4,0,0,0-.579-1.195,5.576,5.576,0,0,0-2.02-.733,9.551,9.551,0,0,1-2.287-.738,3.253,3.253,0,0,1-1.251-1.025,2.453,2.453,0,0,1-.405-1.415,2.878,2.878,0,0,1,1.154-2.307A4.505,4.505,0,0,1-6.588,20.7a4.636,4.636,0,0,1,3.061.974,3.094,3.094,0,0,1,1.174,2.492H-4.26a1.713,1.713,0,0,0-.661-1.343,2.478,2.478,0,0,0-1.666-.564,2.593,2.593,0,0,0-1.62.451,1.42,1.42,0,0,0-.584,1.179,1.151,1.151,0,0,0,.543,1.036,6.687,6.687,0,0,0,1.964.667,10.231,10.231,0,0,1,2.3.759,3.358,3.358,0,0,1,1.307,1.061,2.609,2.609,0,0,1,.426,1.512A2.839,2.839,0,0,1-3.44,31.308a4.989,4.989,0,0,1-3.086.9,5.587,5.587,0,0,1-2.358-.472,3.836,3.836,0,0,1-1.6-1.318,3.176,3.176,0,0,1-.579-1.83h1.9A1.964,1.964,0,0,0-8.408,30.1a2.964,2.964,0,0,0,1.882.559A3.059,3.059,0,0,0-4.8,30.221,1.339,1.339,0,0,0-4.148,29.057ZM2.794,18.219v2.687H4.865v1.466H2.794v6.889a1.54,1.54,0,0,0,.277,1,1.165,1.165,0,0,0,.943.334,4.593,4.593,0,0,0,.9-.123V32a5.532,5.532,0,0,1-1.456.2,2.362,2.362,0,0,1-1.917-.769A3.3,3.3,0,0,1,.9,29.252v-6.88h-2.02V20.905H.9V18.219ZM13.93,30.9a4.029,4.029,0,0,1-3.25,1.3,3.449,3.449,0,0,1-2.7-1.031,4.461,4.461,0,0,1-.938-3.051V20.905h1.9v7.167q0,2.522,2.051,2.522a2.84,2.84,0,0,0,2.892-1.62v-8.07h1.9V32h-1.8ZM18.2,26.36a6.5,6.5,0,0,1,1.21-4.107A3.826,3.826,0,0,1,22.574,20.7a3.848,3.848,0,0,1,3.086,1.333V16.25h1.9V32H25.814l-.092-1.189a3.863,3.863,0,0,1-3.168,1.395,3.789,3.789,0,0,1-3.143-1.579A6.573,6.573,0,0,1,18.2,26.5Zm1.9.215a4.921,4.921,0,0,0,.779,2.953A2.519,2.519,0,0,0,23.025,30.6a2.767,2.767,0,0,0,2.635-1.62v-5.1a2.789,2.789,0,0,0-2.615-1.569,2.531,2.531,0,0,0-2.174,1.077A5.418,5.418,0,0,0,20.093,26.576ZM32.561,32h-1.9V20.905h1.9ZM30.51,17.962a1.132,1.132,0,0,1,.282-.779,1.059,1.059,0,0,1,.836-.318,1.075,1.075,0,0,1,.841.318,1.12,1.12,0,0,1,.287.779,1.084,1.084,0,0,1-.287.769,1.1,1.1,0,0,1-.841.308,1.078,1.078,0,0,1-.836-.308A1.1,1.1,0,0,1,30.51,17.962Zm4.583,8.388a6.553,6.553,0,0,1,.641-2.933,4.781,4.781,0,0,1,1.784-2.01,4.857,4.857,0,0,1,2.61-.708,4.679,4.679,0,0,1,3.666,1.569,6.036,6.036,0,0,1,1.4,4.173v.133a6.61,6.61,0,0,1-.62,2.907,4.71,4.71,0,0,1-1.774,2,4.913,4.913,0,0,1-2.651.718,4.667,4.667,0,0,1-3.656-1.569,6.005,6.005,0,0,1-1.4-4.153ZM37,26.576a4.746,4.746,0,0,0,.856,2.963,2.9,2.9,0,0,0,4.589-.015A5.19,5.19,0,0,0,43.3,26.35a4.738,4.738,0,0,0-.866-2.958,2.755,2.755,0,0,0-2.3-1.133,2.724,2.724,0,0,0-2.266,1.118A5.152,5.152,0,0,0,37,26.576Z" transform="translate(8396 -9416)" fill="#12263f"/>
    </g>
  </g>
</svg>
