<svg xmlns="http://www.w3.org/2000/svg" xmlns:xlink="http://www.w3.org/1999/xlink" width="338" height="411" viewBox="0 0 338 411">
  <defs>
    <filter id="Rectángulo_34009" x="0" y="0" width="338" height="129" filterUnits="userSpaceOnUse">
      <feOffset input="SourceAlpha"/>
      <feGaussianBlur stdDeviation="3" result="blur"/>
      <feFlood flood-opacity="0.161"/>
      <feComposite operator="in" in2="blur"/>
      <feComposite in="SourceGraphic"/>
    </filter>
    <filter id="Rectángulo_34009-2" x="0" y="141" width="338" height="129" filterUnits="userSpaceOnUse">
      <feOffset input="SourceAlpha"/>
      <feGaussianBlur stdDeviation="3" result="blur-2"/>
      <feFlood flood-opacity="0.161"/>
      <feComposite operator="in" in2="blur-2"/>
      <feComposite in="SourceGraphic"/>
    </filter>
    <filter id="Rectángulo_34009-3" x="0" y="282" width="338" height="129" filterUnits="userSpaceOnUse">
      <feOffset input="SourceAlpha"/>
      <feGaussianBlur stdDeviation="3" result="blur-3"/>
      <feFlood flood-opacity="0.161"/>
      <feComposite operator="in" in2="blur-3"/>
      <feComposite in="SourceGraphic"/>
    </filter>
  </defs>
  <g id="Grupo_79938" data-name="Grupo 79938" transform="translate(-920 -3145)">
    <g id="Grupo_79931" data-name="Grupo 79931" transform="translate(0 -17)">
      <path id="Rectángulo_34384" data-name="Rectángulo 34384" d="M20,0H173a0,0,0,0,1,0,0V127a0,0,0,0,1,0,0H20A20,20,0,0,1,0,107V20A20,20,0,0,1,20,0Z" transform="translate(922 3163)" fill="#4dd0e1"/>
      <g transform="matrix(1, 0, 0, 1, 920, 3162)" filter="url(#Rectángulo_34009)">
        <rect id="Rectángulo_34009-4" data-name="Rectángulo 34009" width="320" height="111" rx="20" transform="translate(9 9)" fill="#a9dae0"/>
      </g>
      <g id="Rectángulo_34385" data-name="Rectángulo 34385" transform="translate(922 3163)" fill="none" stroke="#4dd0e1" stroke-width="3" stroke-dasharray="11">
        <rect width="334" height="127" rx="20" stroke="none"/>
        <rect x="1.5" y="1.5" width="331" height="124" rx="18.5" fill="none"/>
      </g>
    </g>
    <g id="Grupo_79932" data-name="Grupo 79932" transform="translate(0 124)">
      <path id="Rectángulo_34384-2" data-name="Rectángulo 34384" d="M20,0H173a0,0,0,0,1,0,0V127a0,0,0,0,1,0,0H20A20,20,0,0,1,0,107V20A20,20,0,0,1,20,0Z" transform="translate(922 3163)" fill="#4dd0e1"/>
      <g transform="matrix(1, 0, 0, 1, 920, 3021)" filter="url(#Rectángulo_34009-2)">
        <rect id="Rectángulo_34009-5" data-name="Rectángulo 34009" width="320" height="111" rx="20" transform="translate(9 150)" fill="#a9dae0"/>
      </g>
      <g id="Rectángulo_34385-2" data-name="Rectángulo 34385" transform="translate(922 3163)" fill="none" stroke="#4dd0e1" stroke-width="3" stroke-dasharray="11">
        <rect width="334" height="127" rx="20" stroke="none"/>
        <rect x="1.5" y="1.5" width="331" height="124" rx="18.5" fill="none"/>
      </g>
    </g>
    <g id="Grupo_79933" data-name="Grupo 79933" transform="translate(0 265)">
      <path id="Rectángulo_34384-3" data-name="Rectángulo 34384" d="M20,0H173a0,0,0,0,1,0,0V127a0,0,0,0,1,0,0H20A20,20,0,0,1,0,107V20A20,20,0,0,1,20,0Z" transform="translate(922 3163)" fill="#4dd0e1"/>
      <g transform="matrix(1, 0, 0, 1, 920, 2880)" filter="url(#Rectángulo_34009-3)">
        <rect id="Rectángulo_34009-6" data-name="Rectángulo 34009" width="320" height="111" rx="20" transform="translate(9 291)" fill="#a9dae0"/>
      </g>
      <g id="Rectángulo_34385-3" data-name="Rectángulo 34385" transform="translate(922 3163)" fill="none" stroke="#4dd0e1" stroke-width="3" stroke-dasharray="11">
        <rect width="334" height="127" rx="20" stroke="none"/>
        <rect x="1.5" y="1.5" width="331" height="124" rx="18.5" fill="none"/>
      </g>
    </g>
    <path id="Trazado_116652" data-name="Trazado 116652" d="M-26.745-5.229h-5.062V0h-2.637V-12.8h8.332v2.136h-5.7v3.3h5.063ZM-21.779,0h-2.637V-12.8h2.637ZM-22.6-16.251h2.769l-2.435,2.725h-2.065Zm9.9,12.894A1.353,1.353,0,0,0-13.228-4.5a6.917,6.917,0,0,0-1.9-.844A13.458,13.458,0,0,1-17.3-6.223,3.547,3.547,0,0,1-19.477-9.4a3.09,3.09,0,0,1,.584-1.85,3.812,3.812,0,0,1,1.679-1.27,6.318,6.318,0,0,1,2.457-.457,5.751,5.751,0,0,1,2.443.5,3.891,3.891,0,0,1,1.666,1.4,3.668,3.668,0,0,1,.593,2.057h-2.637a1.726,1.726,0,0,0-.554-1.367,2.276,2.276,0,0,0-1.556-.488,2.432,2.432,0,0,0-1.5.409,1.289,1.289,0,0,0-.536,1.077,1.235,1.235,0,0,0,.628,1.046,7.1,7.1,0,0,0,1.85.791,7.994,7.994,0,0,1,3.278,1.679,3.343,3.343,0,0,1,1.028,2.5A3.08,3.08,0,0,1-11.312-.769,5.5,5.5,0,0,1-14.7.176a6.534,6.534,0,0,1-2.689-.541,4.256,4.256,0,0,1-1.85-1.481,3.793,3.793,0,0,1-.637-2.18h2.646q0,2.118,2.531,2.118a2.462,2.462,0,0,0,1.468-.382A1.244,1.244,0,0,0-12.7-3.357ZM-5.467,0H-8.1V-12.8h2.637ZM7.022-4.263A4.528,4.528,0,0,1,5.5-1.011,5.355,5.355,0,0,1,1.872.176,4.816,4.816,0,0,1-2-1.481,6.793,6.793,0,0,1-3.41-6.029v-.782a7.671,7.671,0,0,1,.65-3.252A4.874,4.874,0,0,1-.9-12.221a5.207,5.207,0,0,1,2.808-.751,5.217,5.217,0,0,1,3.568,1.187A4.866,4.866,0,0,1,7.04-8.455H4.4a2.673,2.673,0,0,0-.69-1.8,2.555,2.555,0,0,0-1.806-.558,2.24,2.24,0,0,0-1.973.945A5.3,5.3,0,0,0-.738-6.935v.967A5.667,5.667,0,0,0-.11-2.936a2.2,2.2,0,0,0,1.982.958A2.6,2.6,0,0,0,3.7-2.536a2.521,2.521,0,0,0,.69-1.727ZM19.266-6.108A7.725,7.725,0,0,1,18.6-2.795,5.03,5.03,0,0,1,16.686-.6a5.288,5.288,0,0,1-2.852.773A5.324,5.324,0,0,1,11-.589,5.08,5.08,0,0,1,9.062-2.773a7.5,7.5,0,0,1-.694-3.265v-.633A7.685,7.685,0,0,1,9.048-10,5.072,5.072,0,0,1,10.973-12.2a5.3,5.3,0,0,1,2.843-.769,5.3,5.3,0,0,1,2.843.769A5.072,5.072,0,0,1,18.584-10a7.663,7.663,0,0,1,.681,3.318Zm-2.672-.58a5.385,5.385,0,0,0-.721-3.059,2.349,2.349,0,0,0-2.057-1.046A2.349,2.349,0,0,0,11.769-9.76a5.324,5.324,0,0,0-.729,3.028v.624a5.453,5.453,0,0,0,.721,3.041,2.342,2.342,0,0,0,2.074,1.081,2.321,2.321,0,0,0,2.039-1.042,5.421,5.421,0,0,0,.721-3.037ZM27.817-3.357A1.353,1.353,0,0,0,27.29-4.5a6.917,6.917,0,0,0-1.9-.844,13.458,13.458,0,0,1-2.171-.875A3.547,3.547,0,0,1,21.041-9.4a3.09,3.09,0,0,1,.584-1.85,3.812,3.812,0,0,1,1.679-1.27,6.318,6.318,0,0,1,2.457-.457,5.751,5.751,0,0,1,2.443.5,3.891,3.891,0,0,1,1.666,1.4,3.668,3.668,0,0,1,.593,2.057H27.826a1.726,1.726,0,0,0-.554-1.367,2.276,2.276,0,0,0-1.556-.488,2.432,2.432,0,0,0-1.5.409,1.289,1.289,0,0,0-.536,1.077,1.235,1.235,0,0,0,.628,1.046,7.1,7.1,0,0,0,1.85.791,7.994,7.994,0,0,1,3.278,1.679,3.343,3.343,0,0,1,1.028,2.5A3.08,3.08,0,0,1,29.206-.769a5.5,5.5,0,0,1-3.384.945,6.534,6.534,0,0,1-2.689-.541,4.256,4.256,0,0,1-1.85-1.481,3.793,3.793,0,0,1-.637-2.18h2.646q0,2.118,2.531,2.118A2.462,2.462,0,0,0,27.29-2.29,1.244,1.244,0,0,0,27.817-3.357ZM3.9,13.443H-3.955V11.369H3.9Zm0,3.806H-3.955V15.175H3.9ZM-13.614,35.315h-2.1V40h-2.637V27.2H-13.6a5.375,5.375,0,0,1,3.5,1.011,3.488,3.488,0,0,1,1.23,2.856,3.937,3.937,0,0,1-.567,2.184,3.866,3.866,0,0,1-1.718,1.393l2.769,5.229V40h-2.83Zm-2.1-2.136h2.127a2.178,2.178,0,0,0,1.538-.505,1.806,1.806,0,0,0,.545-1.393,1.933,1.933,0,0,0-.514-1.424,2.137,2.137,0,0,0-1.578-.519h-2.118ZM.835,34.437H-4.228v3.445H1.714V40H-6.864V27.2H1.7v2.136H-4.228v3.05H.835Zm9.65,2.927H5.862L4.983,40H2.18L6.943,27.2H9.387L14.177,40h-2.8ZM6.574,35.228h3.2l-1.608-4.79Zm11.435,2.654h5.6V40H15.372V27.2h2.637Z" transform="translate(1089 3196)" fill="#12263f"/>
    <path id="Trazado_116653" data-name="Trazado 116653" d="M-31.113,0H-33.75V-12.8h2.637Zm2.443,0V-12.8h3.938a5.98,5.98,0,0,1,3.019.76,5.3,5.3,0,0,1,2.079,2.162,6.669,6.669,0,0,1,.747,3.186V-6.1a6.688,6.688,0,0,1-.734,3.173,5.256,5.256,0,0,1-2.07,2.153A6.025,6.025,0,0,1-24.706,0Zm2.637-10.661v8.543h1.274a2.863,2.863,0,0,0,2.364-1.011,4.567,4.567,0,0,0,.835-2.892V-6.7a4.64,4.64,0,0,0-.809-2.958,2.854,2.854,0,0,0-2.364-1.006Zm16.761,5.1h-5.062v3.445h5.941V0h-8.578V-12.8h8.561v2.136h-5.924v3.05h5.063ZM.378-2.637H-4.245L-5.124,0h-2.8l4.764-12.8H-.721L4.069,0h-2.8ZM-3.533-4.772h3.2l-1.608-4.79ZM7.9-2.118h5.6V0H5.265V-12.8H7.9Zm14.81-3.445H17.648v3.445H23.59V0H15.012V-12.8h8.561v2.136H17.648v3.05h5.063Zm9.062,2.206A1.353,1.353,0,0,0,31.245-4.5a6.917,6.917,0,0,0-1.9-.844,13.458,13.458,0,0,1-2.171-.875A3.547,3.547,0,0,1,25-9.4a3.09,3.09,0,0,1,.584-1.85,3.812,3.812,0,0,1,1.679-1.27,6.318,6.318,0,0,1,2.457-.457,5.751,5.751,0,0,1,2.443.5,3.891,3.891,0,0,1,1.666,1.4,3.668,3.668,0,0,1,.593,2.057H31.781a1.726,1.726,0,0,0-.554-1.367,2.276,2.276,0,0,0-1.556-.488,2.432,2.432,0,0,0-1.5.409,1.289,1.289,0,0,0-.536,1.077,1.235,1.235,0,0,0,.628,1.046,7.1,7.1,0,0,0,1.85.791A7.994,7.994,0,0,1,33.39-5.871a3.343,3.343,0,0,1,1.028,2.5A3.08,3.08,0,0,1,33.161-.769a5.5,5.5,0,0,1-3.384.945,6.534,6.534,0,0,1-2.689-.541,4.256,4.256,0,0,1-1.85-1.481,3.793,3.793,0,0,1-.637-2.18h2.646q0,2.118,2.531,2.118a2.462,2.462,0,0,0,1.468-.382A1.244,1.244,0,0,0,31.772-3.357ZM3.9,13.443H-3.955V11.369H3.9Zm0,3.806H-3.955V15.175H3.9ZM-136.252,35.315h-2.1V40h-2.637V27.2h4.755a5.375,5.375,0,0,1,3.5,1.011,3.488,3.488,0,0,1,1.23,2.856,3.937,3.937,0,0,1-.567,2.184,3.866,3.866,0,0,1-1.718,1.393l2.769,5.229V40h-2.83Zm-2.1-2.136h2.127a2.178,2.178,0,0,0,1.538-.505,1.806,1.806,0,0,0,.545-1.393,1.933,1.933,0,0,0-.514-1.424,2.137,2.137,0,0,0-1.578-.519h-2.118Zm16.55,1.257h-5.062v3.445h5.941V40H-129.5V27.2h8.561v2.136h-5.924v3.05h5.063Zm5.063,1.055V40h-2.637V27.2h4.992a5.776,5.776,0,0,1,2.536.527,3.886,3.886,0,0,1,1.683,1.5,4.178,4.178,0,0,1,.589,2.21,3.674,3.674,0,0,1-1.288,2.966,5.363,5.363,0,0,1-3.564,1.085Zm0-2.136h2.355a2.316,2.316,0,0,0,1.6-.492,1.79,1.79,0,0,0,.549-1.406,2.111,2.111,0,0,0-.554-1.521,2.068,2.068,0,0,0-1.529-.6h-2.417Zm13.711,1.96h-2.1V40h-2.637V27.2h4.755a5.375,5.375,0,0,1,3.5,1.011,3.488,3.488,0,0,1,1.23,2.856,3.937,3.937,0,0,1-.567,2.184,3.866,3.866,0,0,1-1.718,1.393l2.769,5.229V40h-2.83Zm-2.1-2.136H-103a2.178,2.178,0,0,0,1.538-.505,1.806,1.806,0,0,0,.545-1.393,1.933,1.933,0,0,0-.514-1.424,2.137,2.137,0,0,0-1.578-.519h-2.118Zm16.55,1.257h-5.062v3.445H-87.7V40H-96.28V27.2h8.561v2.136h-5.924v3.05h5.063Zm9.062,2.206a1.353,1.353,0,0,0-.527-1.147,6.917,6.917,0,0,0-1.9-.844,13.458,13.458,0,0,1-2.171-.875A3.547,3.547,0,0,1-86.3,30.6a3.09,3.09,0,0,1,.584-1.85,3.812,3.812,0,0,1,1.679-1.27,6.318,6.318,0,0,1,2.457-.457,5.751,5.751,0,0,1,2.443.5,3.891,3.891,0,0,1,1.666,1.4,3.668,3.668,0,0,1,.593,2.057H-79.51a1.726,1.726,0,0,0-.554-1.367,2.276,2.276,0,0,0-1.556-.488,2.432,2.432,0,0,0-1.5.409,1.289,1.289,0,0,0-.536,1.077,1.235,1.235,0,0,0,.628,1.046,7.1,7.1,0,0,0,1.85.791A7.994,7.994,0,0,1-77.9,34.129a3.343,3.343,0,0,1,1.028,2.5,3.08,3.08,0,0,1-1.257,2.606,5.5,5.5,0,0,1-3.384.945,6.534,6.534,0,0,1-2.689-.541,4.256,4.256,0,0,1-1.85-1.481,3.793,3.793,0,0,1-.637-2.18h2.646q0,2.118,2.531,2.118a2.462,2.462,0,0,0,1.468-.382A1.244,1.244,0,0,0-79.519,36.643Zm12.129-2.206h-5.062v3.445h5.941V40h-8.578V27.2h8.561v2.136h-5.924v3.05h5.063ZM-54.558,40h-2.637l-5.133-8.42V40h-2.637V27.2h2.637l5.142,8.438V27.2h2.628Zm11.681-10.661H-46.8V40h-2.637V29.339H-53.3V27.2h10.424Zm7.673,8.024h-4.623L-40.707,40h-2.8l4.764-12.8H-36.3l4.79,12.8h-2.8Zm-3.911-2.136h3.2l-1.608-4.79Zm18.659.51a4.528,4.528,0,0,1-1.525,3.252,5.355,5.355,0,0,1-3.625,1.187,4.816,4.816,0,0,1-3.872-1.657,6.793,6.793,0,0,1-1.411-4.548v-.782a7.671,7.671,0,0,1,.65-3.252,4.874,4.874,0,0,1,1.859-2.158,5.207,5.207,0,0,1,2.808-.751A5.217,5.217,0,0,1-22,28.214a4.866,4.866,0,0,1,1.564,3.331h-2.637a2.673,2.673,0,0,0-.69-1.8,2.555,2.555,0,0,0-1.806-.558,2.24,2.24,0,0,0-1.973.945,5.3,5.3,0,0,0-.672,2.931v.967a5.667,5.667,0,0,0,.628,3.032,2.2,2.2,0,0,0,1.982.958,2.6,2.6,0,0,0,1.824-.558,2.521,2.521,0,0,0,.69-1.727ZM-15.921,40h-2.637V27.2h2.637Zm12.955-6.108a7.725,7.725,0,0,1-.668,3.313,5.03,5.03,0,0,1-1.912,2.2,5.288,5.288,0,0,1-2.852.773,5.324,5.324,0,0,1-2.839-.765,5.08,5.08,0,0,1-1.934-2.184,7.5,7.5,0,0,1-.694-3.265v-.633A7.685,7.685,0,0,1-13.184,30,5.072,5.072,0,0,1-11.259,27.8a5.3,5.3,0,0,1,2.843-.769,5.3,5.3,0,0,1,2.843.769A5.072,5.072,0,0,1-3.647,30a7.663,7.663,0,0,1,.681,3.318Zm-2.672-.58a5.385,5.385,0,0,0-.721-3.059,2.349,2.349,0,0,0-2.057-1.046,2.349,2.349,0,0,0-2.048,1.033,5.324,5.324,0,0,0-.729,3.028v.624a5.453,5.453,0,0,0,.721,3.041A2.342,2.342,0,0,0-8.4,38.014a2.321,2.321,0,0,0,2.039-1.042,5.421,5.421,0,0,0,.721-3.037ZM9.356,40H6.719L1.586,31.58V40H-1.05V27.2H1.586l5.142,8.438V27.2H9.356Zm10-5.563H14.3v3.445h5.941V40H11.659V27.2h8.561v2.136H14.3v3.05h5.063Zm9.062,2.206a1.353,1.353,0,0,0-.527-1.147,6.917,6.917,0,0,0-1.9-.844,13.458,13.458,0,0,1-2.171-.875,3.547,3.547,0,0,1-2.18-3.173,3.09,3.09,0,0,1,.584-1.85,3.812,3.812,0,0,1,1.679-1.27,6.318,6.318,0,0,1,2.457-.457,5.751,5.751,0,0,1,2.443.5,3.891,3.891,0,0,1,1.666,1.4,3.668,3.668,0,0,1,.593,2.057H28.428a1.726,1.726,0,0,0-.554-1.367,2.276,2.276,0,0,0-1.556-.488,2.432,2.432,0,0,0-1.5.409,1.289,1.289,0,0,0-.536,1.077,1.235,1.235,0,0,0,.628,1.046,7.1,7.1,0,0,0,1.85.791,7.994,7.994,0,0,1,3.278,1.679,3.343,3.343,0,0,1,1.028,2.5,3.08,3.08,0,0,1-1.257,2.606,5.5,5.5,0,0,1-3.384.945,6.534,6.534,0,0,1-2.689-.541,4.256,4.256,0,0,1-1.85-1.481,3.793,3.793,0,0,1-.637-2.18h2.646q0,2.118,2.531,2.118a2.462,2.462,0,0,0,1.468-.382A1.244,1.244,0,0,0,28.419,36.643Zm15.548,0A1.353,1.353,0,0,0,43.44,35.5a6.917,6.917,0,0,0-1.9-.844,13.458,13.458,0,0,1-2.171-.875,3.547,3.547,0,0,1-2.18-3.173,3.09,3.09,0,0,1,.584-1.85,3.812,3.812,0,0,1,1.679-1.27,6.318,6.318,0,0,1,2.457-.457,5.751,5.751,0,0,1,2.443.5,3.891,3.891,0,0,1,1.666,1.4,3.668,3.668,0,0,1,.593,2.057H43.976a1.726,1.726,0,0,0-.554-1.367,2.276,2.276,0,0,0-1.556-.488,2.432,2.432,0,0,0-1.5.409,1.289,1.289,0,0,0-.536,1.077,1.235,1.235,0,0,0,.628,1.046,7.1,7.1,0,0,0,1.85.791,7.994,7.994,0,0,1,3.278,1.679,3.343,3.343,0,0,1,1.028,2.5,3.08,3.08,0,0,1-1.257,2.606,5.5,5.5,0,0,1-3.384.945,6.534,6.534,0,0,1-2.689-.541,4.256,4.256,0,0,1-1.85-1.481,3.793,3.793,0,0,1-.637-2.18h2.646q0,2.118,2.531,2.118a2.462,2.462,0,0,0,1.468-.382A1.244,1.244,0,0,0,43.967,36.643ZM51.2,40H48.564V27.2H51.2Zm5.889-12.8,3.287,9.281,3.27-9.281h3.463V40H64.463V36.5l.264-6.038L61.273,40H59.462l-3.445-9.527.264,6.029V40H53.644V27.2ZM69.412,40V27.2h4.482a5.886,5.886,0,0,1,3.533.892,3.05,3.05,0,0,1,1.2,2.615,2.891,2.891,0,0,1-.483,1.657,2.792,2.792,0,0,1-1.345,1.05,2.7,2.7,0,0,1,1.551.993,2.936,2.936,0,0,1,.567,1.828,3.377,3.377,0,0,1-1.178,2.795A5.3,5.3,0,0,1,74.386,40Zm2.637-5.572v3.454h2.259a2.18,2.18,0,0,0,1.455-.444,1.522,1.522,0,0,0,.523-1.226,1.607,1.607,0,0,0-1.819-1.784Zm0-1.863H74q2-.035,2-1.591a1.47,1.47,0,0,0-.505-1.252,2.658,2.658,0,0,0-1.6-.382H72.048Zm19.362,1.327a7.725,7.725,0,0,1-.668,3.313,5.03,5.03,0,0,1-1.912,2.2,5.649,5.649,0,0,1-5.691.009,5.08,5.08,0,0,1-1.934-2.184,7.5,7.5,0,0,1-.694-3.265v-.633A7.685,7.685,0,0,1,81.193,30,5.072,5.072,0,0,1,83.118,27.8a5.64,5.64,0,0,1,5.687,0A5.072,5.072,0,0,1,90.729,30a7.663,7.663,0,0,1,.681,3.318Zm-2.672-.58a5.385,5.385,0,0,0-.721-3.059,2.546,2.546,0,0,0-4.1-.013,5.324,5.324,0,0,0-.729,3.028v.624a5.453,5.453,0,0,0,.721,3.041,2.524,2.524,0,0,0,4.113.04,5.421,5.421,0,0,0,.721-3.037Zm-2.268-9.536H89.24L86.805,26.5H84.74Zm9.492,14.106h5.6V40H93.327V27.2h2.637ZM105.877,40h-2.637V27.2h2.637Zm12.489-4.263a4.528,4.528,0,0,1-1.525,3.252,5.355,5.355,0,0,1-3.625,1.187,4.816,4.816,0,0,1-3.872-1.657,6.793,6.793,0,0,1-1.411-4.548v-.782a7.671,7.671,0,0,1,.65-3.252,4.874,4.874,0,0,1,1.859-2.158,5.809,5.809,0,0,1,6.376.435,4.866,4.866,0,0,1,1.564,3.331h-2.637a2.673,2.673,0,0,0-.69-1.8,2.555,2.555,0,0,0-1.806-.558,2.24,2.24,0,0,0-1.973.945,5.3,5.3,0,0,0-.672,2.931v.967a5.667,5.667,0,0,0,.628,3.032,2.2,2.2,0,0,0,1.982.958,2.6,2.6,0,0,0,1.824-.558,2.521,2.521,0,0,0,.69-1.727Zm8.956,1.626H122.7L121.821,40h-2.8l4.764-12.8h2.443l4.79,12.8h-2.8Zm-3.911-2.136h3.2L125,30.438Zm15.434,1.415a1.353,1.353,0,0,0-.527-1.147,6.917,6.917,0,0,0-1.9-.844,13.458,13.458,0,0,1-2.171-.875,3.547,3.547,0,0,1-2.18-3.173,3.09,3.09,0,0,1,.584-1.85,3.812,3.812,0,0,1,1.679-1.27,6.318,6.318,0,0,1,2.457-.457,5.751,5.751,0,0,1,2.443.5,3.891,3.891,0,0,1,1.666,1.4,3.668,3.668,0,0,1,.593,2.057h-2.637a1.726,1.726,0,0,0-.554-1.367,2.276,2.276,0,0,0-1.556-.488,2.432,2.432,0,0,0-1.5.409,1.289,1.289,0,0,0-.536,1.077,1.235,1.235,0,0,0,.628,1.046,7.1,7.1,0,0,0,1.85.791,7.994,7.994,0,0,1,3.278,1.679,3.343,3.343,0,0,1,1.028,2.5,3.08,3.08,0,0,1-1.257,2.606,5.5,5.5,0,0,1-3.384.945,6.534,6.534,0,0,1-2.689-.541,4.256,4.256,0,0,1-1.85-1.481,3.793,3.793,0,0,1-.637-2.18h2.646q0,2.118,2.531,2.118a2.462,2.462,0,0,0,1.468-.382A1.244,1.244,0,0,0,138.845,36.643Z" transform="translate(1089 3337)" fill="#12263f"/>
    <path id="Trazado_116654" data-name="Trazado 116654" d="M-63.8-2.637h-4.623L-69.306,0h-2.8l4.764-12.8H-64.9L-60.113,0h-2.8Zm-3.911-2.136h3.2l-1.608-4.79ZM-58.917,0V-12.8h4.482A5.886,5.886,0,0,1-50.9-11.9,3.05,3.05,0,0,1-49.7-9.29a2.891,2.891,0,0,1-.483,1.657,2.792,2.792,0,0,1-1.345,1.05,2.7,2.7,0,0,1,1.551.993,2.936,2.936,0,0,1,.567,1.828A3.377,3.377,0,0,1-50.585-.967,5.3,5.3,0,0,1-53.943,0Zm2.637-5.572v3.454h2.259a2.18,2.18,0,0,0,1.455-.444,1.522,1.522,0,0,0,.523-1.226,1.607,1.607,0,0,0-1.819-1.784Zm0-1.863h1.951q2-.035,2-1.591a1.47,1.47,0,0,0-.505-1.252,2.658,2.658,0,0,0-1.6-.382h-1.846Zm15.486,4.078A1.353,1.353,0,0,0-41.322-4.5a6.917,6.917,0,0,0-1.9-.844,13.458,13.458,0,0,1-2.171-.875A3.547,3.547,0,0,1-47.571-9.4a3.09,3.09,0,0,1,.584-1.85,3.812,3.812,0,0,1,1.679-1.27,6.318,6.318,0,0,1,2.457-.457,5.751,5.751,0,0,1,2.443.5,3.891,3.891,0,0,1,1.666,1.4,3.668,3.668,0,0,1,.593,2.057h-2.637a1.726,1.726,0,0,0-.554-1.367,2.276,2.276,0,0,0-1.556-.488,2.432,2.432,0,0,0-1.5.409,1.289,1.289,0,0,0-.536,1.077,1.235,1.235,0,0,0,.628,1.046,7.1,7.1,0,0,0,1.85.791,7.994,7.994,0,0,1,3.278,1.679,3.343,3.343,0,0,1,1.028,2.5A3.08,3.08,0,0,1-39.406-.769,5.5,5.5,0,0,1-42.79.176a6.534,6.534,0,0,1-2.689-.541,4.256,4.256,0,0,1-1.85-1.481,3.793,3.793,0,0,1-.637-2.18h2.646q0,2.118,2.531,2.118a2.462,2.462,0,0,0,1.468-.382A1.244,1.244,0,0,0-40.794-3.357Zm14.063-7.3h-3.92V0h-2.637V-10.661h-3.867V-12.8h10.424Zm6.24,5.977h-2.1V0h-2.637V-12.8h4.755a5.375,5.375,0,0,1,3.5,1.011,3.488,3.488,0,0,1,1.23,2.856,3.937,3.937,0,0,1-.567,2.184,3.866,3.866,0,0,1-1.718,1.393l2.769,5.229V0h-2.83Zm-2.1-2.136h2.127a2.178,2.178,0,0,0,1.538-.505,1.806,1.806,0,0,0,.545-1.393,1.933,1.933,0,0,0-.514-1.424,2.137,2.137,0,0,0-1.578-.519h-2.118ZM-6.517-2.637H-11.14L-12.019,0h-2.8l4.764-12.8h2.443L-2.826,0h-2.8Zm-3.911-2.136h3.2l-1.608-4.79Zm18.659.51A4.528,4.528,0,0,1,6.706-1.011,5.355,5.355,0,0,1,3.081.176,4.816,4.816,0,0,1-.791-1.481,6.793,6.793,0,0,1-2.2-6.029v-.782a7.671,7.671,0,0,1,.65-3.252A4.874,4.874,0,0,1,.308-12.221a5.207,5.207,0,0,1,2.808-.751,5.217,5.217,0,0,1,3.568,1.187A4.866,4.866,0,0,1,8.249-8.455H5.612a2.673,2.673,0,0,0-.69-1.8,2.555,2.555,0,0,0-1.806-.558,2.24,2.24,0,0,0-1.973.945A5.3,5.3,0,0,0,.47-6.935v.967A5.667,5.667,0,0,0,1.1-2.936a2.2,2.2,0,0,0,1.982.958A2.6,2.6,0,0,0,4.9-2.536a2.521,2.521,0,0,0,.69-1.727Zm11.777,0a4.528,4.528,0,0,1-1.525,3.252A5.355,5.355,0,0,1,14.858.176a4.816,4.816,0,0,1-3.872-1.657A6.793,6.793,0,0,1,9.576-6.029v-.782a7.671,7.671,0,0,1,.65-3.252,4.874,4.874,0,0,1,1.859-2.158,5.207,5.207,0,0,1,2.808-.751,5.217,5.217,0,0,1,3.568,1.187,4.866,4.866,0,0,1,1.564,3.331H17.389a2.673,2.673,0,0,0-.69-1.8,2.555,2.555,0,0,0-1.806-.558,2.24,2.24,0,0,0-1.973.945,5.3,5.3,0,0,0-.672,2.931v.967a5.667,5.667,0,0,0,.628,3.032,2.2,2.2,0,0,0,1.982.958,2.6,2.6,0,0,0,1.824-.558,2.521,2.521,0,0,0,.69-1.727ZM24.543,0H21.907V-12.8h2.637ZM37.5-6.108a7.725,7.725,0,0,1-.668,3.313A5.03,5.03,0,0,1,34.919-.6a5.288,5.288,0,0,1-2.852.773,5.324,5.324,0,0,1-2.839-.765,5.08,5.08,0,0,1-1.934-2.184A7.5,7.5,0,0,1,26.6-6.038v-.633A7.685,7.685,0,0,1,27.281-10,5.072,5.072,0,0,1,29.206-12.2a5.3,5.3,0,0,1,2.843-.769,5.3,5.3,0,0,1,2.843.769A5.072,5.072,0,0,1,36.817-10,7.663,7.663,0,0,1,37.5-6.68Zm-2.672-.58a5.385,5.385,0,0,0-.721-3.059,2.349,2.349,0,0,0-2.057-1.046A2.349,2.349,0,0,0,30-9.76a5.324,5.324,0,0,0-.729,3.028v.624a5.453,5.453,0,0,0,.721,3.041,2.342,2.342,0,0,0,2.074,1.081,2.321,2.321,0,0,0,2.039-1.042,5.421,5.421,0,0,0,.721-3.037ZM49.821,0H47.184L42.051-8.42V0H39.415V-12.8h2.637l5.142,8.438V-12.8h2.628Zm10-5.563H54.76v3.445H60.7V0H52.124V-12.8h8.561v2.136H54.76v3.05h5.063Zm9.062,2.206A1.353,1.353,0,0,0,68.357-4.5a6.917,6.917,0,0,0-1.9-.844,13.458,13.458,0,0,1-2.171-.875A3.547,3.547,0,0,1,62.108-9.4a3.09,3.09,0,0,1,.584-1.85,3.812,3.812,0,0,1,1.679-1.27,6.318,6.318,0,0,1,2.457-.457,5.751,5.751,0,0,1,2.443.5,3.891,3.891,0,0,1,1.666,1.4,3.668,3.668,0,0,1,.593,2.057H68.893a1.726,1.726,0,0,0-.554-1.367,2.276,2.276,0,0,0-1.556-.488,2.432,2.432,0,0,0-1.5.409,1.289,1.289,0,0,0-.536,1.077,1.235,1.235,0,0,0,.628,1.046,7.1,7.1,0,0,0,1.85.791A7.994,7.994,0,0,1,70.5-5.871a3.343,3.343,0,0,1,1.028,2.5A3.08,3.08,0,0,1,70.273-.769a5.5,5.5,0,0,1-3.384.945A6.534,6.534,0,0,1,64.2-.365a4.256,4.256,0,0,1-1.85-1.481,3.793,3.793,0,0,1-.637-2.18h2.646q0,2.118,2.531,2.118a2.462,2.462,0,0,0,1.468-.382A1.244,1.244,0,0,0,68.884-3.357ZM6.144,13.443H-1.714V11.369H6.144Zm0,3.806H-1.714V15.175H6.144Zm-106.9,18.488a4.528,4.528,0,0,1-1.525,3.252,5.355,5.355,0,0,1-3.625,1.187,4.816,4.816,0,0,1-3.872-1.657,6.793,6.793,0,0,1-1.411-4.548v-.782a7.671,7.671,0,0,1,.65-3.252,4.874,4.874,0,0,1,1.859-2.158,5.207,5.207,0,0,1,2.808-.751,5.217,5.217,0,0,1,3.568,1.187,4.866,4.866,0,0,1,1.564,3.331h-2.637a2.673,2.673,0,0,0-.69-1.8,2.555,2.555,0,0,0-1.806-.558,2.24,2.24,0,0,0-1.973.945,5.3,5.3,0,0,0-.672,2.931v.967a5.667,5.667,0,0,0,.628,3.032,2.2,2.2,0,0,0,1.982.958,2.6,2.6,0,0,0,1.824-.558,2.521,2.521,0,0,0,.69-1.727Zm8.956,1.626H-96.42L-97.3,40h-2.8l4.764-12.8H-92.9l4.79,12.8h-2.8Zm-3.911-2.136h3.2l-1.608-4.79Zm13.535.088h-2.1V40h-2.637V27.2h4.755a5.375,5.375,0,0,1,3.5,1.011,3.488,3.488,0,0,1,1.23,2.856,3.937,3.937,0,0,1-.567,2.184,3.866,3.866,0,0,1-1.718,1.393l2.769,5.229V40h-2.83Zm-2.1-2.136h2.127a2.178,2.178,0,0,0,1.538-.505,1.806,1.806,0,0,0,.545-1.393,1.933,1.933,0,0,0-.514-1.424,2.137,2.137,0,0,0-1.578-.519h-2.118ZM-68.2,37.363h-4.623L-73.7,40h-2.8l4.764-12.8H-69.3l4.79,12.8h-2.8Zm-3.911-2.136h3.2l-1.608-4.79Zm18.659.51a4.528,4.528,0,0,1-1.525,3.252A5.355,5.355,0,0,1-58.6,40.176a4.816,4.816,0,0,1-3.872-1.657,6.793,6.793,0,0,1-1.411-4.548v-.782a7.671,7.671,0,0,1,.65-3.252,4.874,4.874,0,0,1,1.859-2.158,5.207,5.207,0,0,1,2.808-.751A5.217,5.217,0,0,1-55,28.214a4.866,4.866,0,0,1,1.564,3.331H-56.07a2.673,2.673,0,0,0-.69-1.8,2.555,2.555,0,0,0-1.806-.558,2.24,2.24,0,0,0-1.973.945,5.3,5.3,0,0,0-.672,2.931v.967a5.667,5.667,0,0,0,.628,3.032,2.2,2.2,0,0,0,1.982.958,2.6,2.6,0,0,0,1.824-.558,2.521,2.521,0,0,0,.69-1.727Zm11.109-6.4h-3.92V40H-48.9V29.339h-3.867V27.2h10.424Zm9.2,5.1H-38.2v3.445h5.941V40h-8.578V27.2h8.561v2.136H-38.2v3.05h5.063Zm7.163.879h-2.1V40h-2.637V27.2h4.755a5.375,5.375,0,0,1,3.5,1.011,3.488,3.488,0,0,1,1.23,2.856,3.937,3.937,0,0,1-.567,2.184,3.866,3.866,0,0,1-1.718,1.393l2.769,5.229V40h-2.83Zm-2.1-2.136h2.127a2.178,2.178,0,0,0,1.538-.505,1.806,1.806,0,0,0,.545-1.393,1.933,1.933,0,0,0-.514-1.424,2.137,2.137,0,0,0-1.578-.519h-2.118ZM-16.422,40h-2.637V27.2h2.637Zm-.817-16.251h2.769l-2.435,2.725h-2.065Zm9.9,12.894A1.353,1.353,0,0,0-7.871,35.5a6.917,6.917,0,0,0-1.9-.844,13.458,13.458,0,0,1-2.171-.875A3.547,3.547,0,0,1-14.12,30.6a3.09,3.09,0,0,1,.584-1.85,3.812,3.812,0,0,1,1.679-1.27A6.318,6.318,0,0,1-9.4,27.027a5.751,5.751,0,0,1,2.443.5,3.891,3.891,0,0,1,1.666,1.4A3.668,3.668,0,0,1-4.7,30.982H-7.334a1.726,1.726,0,0,0-.554-1.367,2.276,2.276,0,0,0-1.556-.488,2.432,2.432,0,0,0-1.5.409,1.289,1.289,0,0,0-.536,1.077,1.235,1.235,0,0,0,.628,1.046A7.1,7.1,0,0,0-9,32.45a7.994,7.994,0,0,1,3.278,1.679,3.343,3.343,0,0,1,1.028,2.5,3.08,3.08,0,0,1-1.257,2.606,5.5,5.5,0,0,1-3.384.945,6.534,6.534,0,0,1-2.689-.541,4.256,4.256,0,0,1-1.85-1.481,3.793,3.793,0,0,1-.637-2.18h2.646q0,2.118,2.531,2.118a2.462,2.462,0,0,0,1.468-.382A1.244,1.244,0,0,0-7.343,36.643Zm14.063-7.3H2.8V40H.163V29.339H-3.7V27.2H6.719ZM11.026,40H8.389V27.2h2.637Zm12.489-4.263a4.528,4.528,0,0,1-1.525,3.252,5.355,5.355,0,0,1-3.625,1.187,4.816,4.816,0,0,1-3.872-1.657,6.793,6.793,0,0,1-1.411-4.548v-.782a7.671,7.671,0,0,1,.65-3.252,4.874,4.874,0,0,1,1.859-2.158,5.207,5.207,0,0,1,2.808-.751,5.217,5.217,0,0,1,3.568,1.187,4.866,4.866,0,0,1,1.564,3.331H20.9a2.673,2.673,0,0,0-.69-1.8,2.555,2.555,0,0,0-1.806-.558,2.24,2.24,0,0,0-1.973.945,5.3,5.3,0,0,0-.672,2.931v.967a5.667,5.667,0,0,0,.628,3.032,2.2,2.2,0,0,0,1.982.958,2.6,2.6,0,0,0,1.824-.558,2.521,2.521,0,0,0,.69-1.727Zm8.956,1.626H27.848L26.969,40h-2.8l4.764-12.8h2.443L36.163,40h-2.8ZM28.56,35.228h3.2l-1.608-4.79Zm15.434,1.415a1.353,1.353,0,0,0-.527-1.147,6.917,6.917,0,0,0-1.9-.844,13.458,13.458,0,0,1-2.171-.875,3.547,3.547,0,0,1-2.18-3.173,3.09,3.09,0,0,1,.584-1.85,3.812,3.812,0,0,1,1.679-1.27,6.318,6.318,0,0,1,2.457-.457,5.751,5.751,0,0,1,2.443.5,3.891,3.891,0,0,1,1.666,1.4,3.668,3.668,0,0,1,.593,2.057H44a1.726,1.726,0,0,0-.554-1.367,2.276,2.276,0,0,0-1.556-.488,2.432,2.432,0,0,0-1.5.409,1.289,1.289,0,0,0-.536,1.077,1.235,1.235,0,0,0,.628,1.046,7.1,7.1,0,0,0,1.85.791,7.994,7.994,0,0,1,3.278,1.679,3.343,3.343,0,0,1,1.028,2.5,3.08,3.08,0,0,1-1.257,2.606A5.5,5.5,0,0,1,42,40.176a6.534,6.534,0,0,1-2.689-.541,4.256,4.256,0,0,1-1.85-1.481,3.793,3.793,0,0,1-.637-2.18h2.646q0,2.118,2.531,2.118a2.462,2.462,0,0,0,1.468-.382A1.244,1.244,0,0,0,43.994,36.643Zm13.649-1.327h-2.1V40H52.906V27.2h4.755a5.375,5.375,0,0,1,3.5,1.011,3.488,3.488,0,0,1,1.23,2.856,3.937,3.937,0,0,1-.567,2.184A3.866,3.866,0,0,1,60.1,34.647l2.769,5.229V40h-2.83Zm-2.1-2.136h2.127a2.178,2.178,0,0,0,1.538-.505,1.806,1.806,0,0,0,.545-1.393,1.933,1.933,0,0,0-.514-1.424,2.137,2.137,0,0,0-1.578-.519H55.542Zm16.55,1.257H67.03v3.445h5.941V40H64.393V27.2h8.561v2.136H67.03v3.05h5.063Zm9.65,2.927H77.12L76.241,40h-2.8L78.2,27.2h2.443L85.434,40h-2.8Zm-3.911-2.136h3.2l-1.608-4.79Zm11.435,2.654h5.6V40H86.629V27.2h2.637Zm14.81-3.445H99.013v3.445h5.941V40H96.376V27.2h8.561v2.136H99.013v3.05h5.063Zm9.062,2.206a1.353,1.353,0,0,0-.527-1.147,6.917,6.917,0,0,0-1.9-.844,13.458,13.458,0,0,1-2.171-.875,3.547,3.547,0,0,1-2.18-3.173,3.09,3.09,0,0,1,.584-1.85,3.812,3.812,0,0,1,1.679-1.27,6.318,6.318,0,0,1,2.457-.457,5.751,5.751,0,0,1,2.443.5,3.891,3.891,0,0,1,1.666,1.4,3.668,3.668,0,0,1,.593,2.057h-2.637a1.726,1.726,0,0,0-.554-1.367,2.276,2.276,0,0,0-1.556-.488,2.432,2.432,0,0,0-1.5.409A1.289,1.289,0,0,0,109,30.613a1.235,1.235,0,0,0,.628,1.046,7.1,7.1,0,0,0,1.85.791,7.994,7.994,0,0,1,3.278,1.679,3.343,3.343,0,0,1,1.028,2.5,3.08,3.08,0,0,1-1.257,2.606,5.5,5.5,0,0,1-3.384.945,6.534,6.534,0,0,1-2.689-.541,4.256,4.256,0,0,1-1.85-1.481,3.793,3.793,0,0,1-.637-2.18h2.646q0,2.118,2.531,2.118a2.462,2.462,0,0,0,1.468-.382A1.244,1.244,0,0,0,113.137,36.643Z" transform="translate(1089 3478)" fill="#12263f"/>
  </g>
</svg>
