<svg xmlns="http://www.w3.org/2000/svg" width="93" height="93" viewBox="0 0 93 93">
  <g id="Grupo_78471" data-name="Grupo 78471" transform="translate(-287 -4324)">
    <circle id="Elipse_4720" data-name="Elipse 4720" cx="46.5" cy="46.5" r="46.5" transform="translate(287 4324)" fill="#1565c0"/>
    <g id="mt5QoG" transform="translate(-841.622 1508.322)">
      <g id="Grupo_78467" data-name="Grupo 78467" transform="translate(1149.944 2826.521)">
        <path id="Trazado_113223" data-name="Trazado 113223" d="M1194.335,3000.5h-30.066c-.317-.364-.218-.807-.218-1.221q-.01-10.345-.005-20.691a6.45,6.45,0,0,0-.031-.991c-.044-.282-.1-.6-.463-.61s-.419.316-.453.6a6.685,6.685,0,0,0-.021.779c-.009,2.647.209,2.375-2.421,2.376a7,7,0,0,1-2.111-.106c-.314-.2-.284-.526-.285-.825-.01-2.906-.034-5.811.007-8.715a4.326,4.326,0,0,1,3.348-3.933q3.432-.876,6.886-1.664a4.811,4.811,0,0,0,.817-.23c.274-.117.531-.286.453-.626-.085-.368-.407-.339-.694-.3-.328.046-.648.135-.969.213-2.2.53-4.413,1.04-6.611,1.6a5.359,5.359,0,0,0-4.145,4.116,10.8,10.8,0,0,0-.253,2.6c0,2.22,0,4.44,0,6.66a1.63,1.63,0,0,1-.17,1.029c-1.119.4-1.507.148-1.51-1q-.012-4.075,0-8.15a7.133,7.133,0,0,1,5.145-6.876c3.755-1.043,7.572-1.845,11.355-2.784.691-.171.854-.015,1.084.745a6.5,6.5,0,0,0,12.483.371c.047-.158.081-.321.131-.478.214-.665.41-.791,1.1-.635,1.106.249,2.206.526,3.307.8,2.547.623,5.11,1.181,7.639,1.872a7.248,7.248,0,0,1,5.337,5.263,4.918,4.918,0,0,1,.191,1.4c0,2.811,0,5.622,0,8.433,0,1.1-.113,1.211-1.222,1.215-1.772.006-3.544.009-5.315,0-.971-.006-1.09-.135-1.1-1.115-.009-.661.015-1.323-.013-1.984-.013-.318-.071-.664-.464-.683s-.468.332-.509.645a7.23,7.23,0,0,0-.021.92q0,10.418-.005,20.834C1194.534,2999.734,1194.636,3000.154,1194.335,3000.5Z" transform="translate(-1154.125 -2929.848)" fill="#72c1e8"/>
        <path id="Trazado_113224" data-name="Trazado 113224" d="M1190.154,2897.17q.012-4.641.023-9.281.006-6.661,0-13.322a5.473,5.473,0,0,1,.008-.566c.045-.431.279-.729.724-.713a.666.666,0,0,1,.683.744c0,.9.021,1.8,0,2.693-.012.4.117.53.521.527q3.118-.025,6.236,0c.39,0,.534-.1.531-.513-.019-2.882.041-5.765-.034-8.645a6.974,6.974,0,0,0-5.455-6.815c-3.675-.94-7.378-1.775-11.058-2.694-.5-.125-.585.025-.679.441a6.685,6.685,0,0,1-13.043.085c-.12-.542-.276-.638-.822-.5-3.59.894-7.195,1.726-10.787,2.612a7.082,7.082,0,0,0-5.6,6.929c-.065,2.857-.011,5.716-.027,8.574,0,.394.107.57.516.523.28-.032.563-.033.845-.047a1.387,1.387,0,0,1,1.537,0c1.32.014,2.64.021,3.96.049.36.008.431-.158.426-.472-.014-.873,0-1.747-.007-2.62-.007-.5.183-.866.7-.865s.715.384.715.868q0,1.912,0,3.824.012,9.6.024,19.188c-.128.369-.328.682-.767.664a.718.718,0,0,1-.695-.647,1.948,1.948,0,0,1-.178-1.17q-.007-7.79,0-15.581c0-.213,0-.425,0-.638-.021-.848-.1-.932-.934-.955-1.676-.046-3.352-.024-5.027-.028-.261,0-.526-.017-.706.228a2.439,2.439,0,0,0-.1,1.05q0,7.9,0,15.791a2.014,2.014,0,0,1-.318,1.415.687.687,0,0,1-.88.5c-.422-.109-.514-.44-.519-.821q0-.177,0-.354,0-13.957-.007-27.914a8.8,8.8,0,0,1,3.273-7.2,10.031,10.031,0,0,1,4.226-1.863c3.439-.812,6.871-1.65,10.312-2.452.528-.123.764-.335.676-.9a3.839,3.839,0,0,1,0-.99.961.961,0,0,0-.465-1.013.806.806,0,0,1-.34-1.1c.478-.526.828-.551,1.508-.008a10.306,10.306,0,0,0,2.807,1.623,9.161,9.161,0,0,0,12.34-8.5c0-.591,0-1.181,0-1.771a.887.887,0,0,0-.571-.882,3.774,3.774,0,0,1-2.268-3.757c.019-.874-.008-1.748.007-2.621.008-.5-.185-.723-.707-.722q-5.633.012-11.266,0c-.482,0-.681.192-.676.673.01.992.015,1.984,0,2.976a3.623,3.623,0,0,1-2.093,3.36,1.155,1.155,0,0,0-.747,1.206,19.829,19.829,0,0,0,.213,3.668c.148.658-.038.875-.682,1.08a.833.833,0,0,1-.886-.82c-.073-.537-.211-1.068-.243-1.606-.021-.361-.111-.511-.481-.609a4.68,4.68,0,0,1-.011-9.149c.392-.1.454-.288.451-.638-.015-1.654.043-3.31-.015-4.962-.1-2.968,2.333-5.857,6.568-5.089a3.224,3.224,0,0,1,1.862,1.088c.2.228.307.265.532.015a3.687,3.687,0,0,1,2.98-1.2c1.536.03,3.072,0,4.608.01a4.905,4.905,0,0,1,5.073,5.035c.02,1.677.015,3.356,0,5.033,0,.4.064.615.521.725a4.675,4.675,0,0,1,.055,9.094.677.677,0,0,0-.623.72,10.3,10.3,0,0,1-3.467,6.985,1.613,1.613,0,0,0-.6,1.387c.032,1.469.012,1.463,1.463,1.814,3.483.841,6.968,1.675,10.445,2.537a8.377,8.377,0,0,1,6.512,7.868c.119,5.007.046,10.019.064,15.028a.862.862,0,0,1-.687.91c-.667-.006-.929-.253-.99-1.038-.073-.931-.014-1.867-.03-2.8a1.341,1.341,0,0,0-.155-.875c-.236-.226-.532-.166-.81-.166-1.582,0-3.163-.016-4.745.023-1.012.025-1.077.072-1.078,1.1q-.007,8.039-.005,16.079a1.947,1.947,0,0,1-.178,1.17.72.72,0,0,1-.7.647C1190.481,2897.852,1190.281,2897.54,1190.154,2897.17Z" transform="translate(-1149.944 -2826.521)"/>
        <path id="Trazado_113225" data-name="Trazado 113225" d="M1215.935,2881.374a.855.855,0,0,0,.495-1.155,18.6,18.6,0,0,1-.256-4.3c-.011-.323.191-.375.418-.464a3.573,3.573,0,0,0,2.48-3.638c.006-1.016.017-2.032-.006-3.046-.009-.4.053-.583.527-.581q5.987.03,11.974,0c.414,0,.516.134.508.527-.024,1.085-.017,2.172,0,3.259a3.57,3.57,0,0,0,2.425,3.468c.211.081.469.082.468.422a15.929,15.929,0,0,1-.524,5.254,9.394,9.394,0,0,1-14.959,4.08c-.458-.386-.878-.656-1.408-.155-.08-.536-.515-.8-.865-1.13,0-.023-.019-.05-.012-.068.4-1.01.132-.969-.69-1.2A4.962,4.962,0,0,0,1215.935,2881.374Z" transform="translate(-1200.392 -2858.375)" fill="#fdb59e"/>
        <path id="Trazado_113226" data-name="Trazado 113226" d="M1334.407,3048.013a33.748,33.748,0,0,1,.068,3.926c.01.546.189.9.746,1.016.1.464-.1.961.158,1.407-.817.625-.82.659-.157,1.429.1.464-.1.96.157,1.407a2.072,2.072,0,0,0-.755,1.922c.033,2.094.015,4.188.008,6.283a1.42,1.42,0,0,1-.2,1.013l-7.094.028c.108-.471.511-.331.8-.355.907-.076.934-.078.934-1.01q.008-7.861,0-15.723c0-1.411,0-1.427,1.372-1.406A39.249,39.249,0,0,1,1334.407,3048.013Z" transform="translate(-1285.558 -2995.78)" fill="#fdb59e"/>
        <path id="Trazado_113227" data-name="Trazado 113227" d="M1155.919,3066.567q.011-8.324.027-16.647a7.486,7.486,0,0,1,.071-1.9,2.669,2.669,0,0,1,1.309,0,1.74,1.74,0,0,1,.178,1.1q.009,4.675,0,9.35a4.665,4.665,0,0,0,.129,1.335c.069.233.155.477.451.462.25-.012.335-.229.4-.44a4.66,4.66,0,0,0,.135-1.334c0-3.14,0-6.281,0-9.421a1.457,1.457,0,0,1,.214-1.081c.635-.081,1.273-.006,1.909-.042.368-.021.512.166.557.489a7.007,7.007,0,0,1,.035.99q0,7.617,0,15.233c0,.236.011.473,0,.708-.018.508.214.706.722.727.354.015.826-.176,1.016.355q-3.171,0-6.342-.007A1.418,1.418,0,0,0,1155.919,3066.567Z" transform="translate(-1154.512 -2995.789)" fill="#fdb59e"/>
        <path id="Trazado_113228" data-name="Trazado 113228" d="M1163.4,3066.355c-.386-.277-.828-.139-1.232-.117-.6.034-.751-.18-.749-.762.021-5.363.012-10.725.012-16.088,0-1.452,0-1.453-1.442-1.45-.283,0-.566.019-.849.029a1.649,1.649,0,0,1-1.516,0l-1.29-.044c.071-.127.2-.109.31-.109,2.126,0,4.252.018,6.378.006.409,0,.518.142.517.536q-.025,9-.027,18l-.056.017Z" transform="translate(-1154.83 -2995.69)" fill="#e88e7b"/>
        <path id="Trazado_113229" data-name="Trazado 113229" d="M1333.965,3047.952c-1.439,0-2.879.041-4.317,0-.617-.018-.8.144-.795.781.026,5.521.015,11.043.015,16.564,0,.955,0,.94-.95.963-.339.008-.708-.137-1.019.125l-.056.018-.056-.017q-.01-9-.024-18c0-.323.028-.536.443-.535,2.2.011,4.393,0,6.59,0C1333.852,3047.852,1333.908,3047.917,1333.965,3047.952Z" transform="translate(-1285.115 -2995.719)" fill="#e88e7b"/>
        <path id="Trazado_113230" data-name="Trazado 113230" d="M1168.89,2924.543c-.263-.006-.494-.214-.6-.612a6.863,6.863,0,0,0-.485-1.47,2.988,2.988,0,0,0-1.808-1.375.791.791,0,0,1-.641-.821.781.781,0,0,1,.671-.72,2.934,2.934,0,0,0,2.121-2.33c.062-.227.109-.46.191-.679a.7.7,0,0,1,.721-.467.686.686,0,0,1,.66.453c.09.242.144.5.213.746a2.914,2.914,0,0,0,2.091,2.272.785.785,0,0,1,.686.781.755.755,0,0,1-.634.752,3.029,3.029,0,0,0-2.213,2.577C1169.758,2924.091,1169.636,2924.545,1168.89,2924.543Z" transform="translate(-1161.723 -2894.977)"/>
        <path id="Trazado_113231" data-name="Trazado 113231" d="M1320.786,2924.551a.684.684,0,0,1-.719-.462,3.3,3.3,0,0,1-.149-.545,2.941,2.941,0,0,0-2.108-2.423c-.406-.128-.747-.344-.725-.832.02-.443.325-.642.723-.754a2.764,2.764,0,0,0,1.992-2.1c.074-.272.163-.541.241-.812a.748.748,0,0,1,1.447.019c.04.16.094.316.135.475a3,3,0,0,0,2.183,2.443.752.752,0,0,1,.634.748.742.742,0,0,1-.618.76,3.037,3.037,0,0,0-2.226,2.568C1321.493,2924.079,1321.385,2924.541,1320.786,2924.551Z" transform="translate(-1277.717 -2894.984)"/>
        <path id="Trazado_113232" data-name="Trazado 113232" d="M1357.459,3096.479c.015-2.73.036-5.46.042-8.19,0-.626.148-1.083.9-1.028.462.165.531.539.53.966q-.006,3.982,0,7.965c0,.423-.053.82-.55.936C1357.846,3097.253,1357.626,3096.9,1357.459,3096.479Z" transform="translate(-1308.581 -3025.843)" fill="#040303"/>
        <path id="Trazado_113233" data-name="Trazado 113233" d="M1217.328,2929.232a.708.708,0,0,1,.986.244c.279.435.036.748-.284,1.029a.739.739,0,0,1-.92-.326A.724.724,0,0,1,1217.328,2929.232Z" transform="translate(-1201.215 -2904.964)" fill="#060505"/>
        <path id="Trazado_113234" data-name="Trazado 113234" d="M1358.474,3076.654c-.438-.115-.783-.321-.705-.849.072-.492.427-.607.862-.581a.718.718,0,0,1,.508.746C1359.131,3076.411,1358.768,3076.5,1358.474,3076.654Z" transform="translate(-1308.81 -3016.642)" fill="#030303"/>
        <path id="Trazado_113235" data-name="Trazado 113235" d="M1163.275,2988.248a5.387,5.387,0,0,1-1.537,0c0-2.668-.028-5.337.018-8a8.331,8.331,0,0,1,.419-2.985,5.681,5.681,0,0,1,4.143-3.6c2.485-.613,4.978-1.2,7.468-1.795.459-.11.955-.181,1.1.41s-.24.835-.771.961c-2.513.6-5.017,1.238-7.535,1.814a4.41,4.41,0,0,0-3.324,4.2C1163.328,2982.25,1163.274,2985.25,1163.275,2988.248Z" transform="translate(-1158.953 -2937.571)" fill="#c4e4fd"/>
        <path id="Trazado_113236" data-name="Trazado 113236" d="M1250.9,2834.613a2.036,2.036,0,0,1,1.916-1.931c1.889-.042,3.781-.065,5.667.006a3.4,3.4,0,0,1,3.093,3.089c.065,1.13.015,2.267.036,3.4.006.349-.14.437-.463.437q-4.96-.012-9.921,0c-.36,0-.439-.149-.428-.466.018-.5,0-.992.007-1.488a2.228,2.228,0,0,1,2.293-2.28c2.055-.018,4.11-.01,6.165,0,.471,0,.824-.19.844-.66.022-.505-.323-.753-.827-.759h-.071c-2.1,0-4.2,0-6.307.007A4.26,4.26,0,0,0,1250.9,2834.613Z" transform="translate(-1227.044 -2831.2)" fill="#868686"/>
        <path id="Trazado_113237" data-name="Trazado 113237" d="M1244.992,2955.456a5.285,5.285,0,1,1-10.488,0c.249-.107.458.03.672.117a11.813,11.813,0,0,0,9.079.028C1244.489,2955.507,1244.715,2955.342,1244.992,2955.456Z" transform="translate(-1214.571 -2925.055)" fill="#fdb59e"/>
        <path id="Trazado_113238" data-name="Trazado 113238" d="M1223.45,2834.714c-1.393-.986-2.893-.686-4.34-.7a.648.648,0,0,0-.665.693.663.663,0,0,0,.725.7c.684.011,1.369-.005,2.053.01a2.205,2.205,0,0,1,2.268,2.288c0,.627.278,1.435-.13,1.834-.372.365-1.168.1-1.776.1-1.345.014-2.691-.011-4.036.013-.443.008-.63-.1-.611-.582.037-.99-.005-1.983.02-2.974a3.474,3.474,0,0,1,3.39-3.4c.33-.01.661-.012.991,0A2.162,2.162,0,0,1,1223.45,2834.714Z" transform="translate(-1201.157 -2831.239)" fill="#868686"/>
        <path id="Trazado_113239" data-name="Trazado 113239" d="M1202.143,2881.613c0,.919-.013,1.839.006,2.758.008.36-.072.439-.438.333a3.3,3.3,0,0,1-.1-6.238c.382-.121.557-.072.543.39C1202.123,2879.774,1202.143,2880.694,1202.143,2881.613Z" transform="translate(-1187.775 -2866.187)" fill="#fcb49e"/>
        <path id="Trazado_113240" data-name="Trazado 113240" d="M1302.721,2884.681c0-2.025.006-4,0-5.979,0-.652.378-.375.651-.273a3.264,3.264,0,0,1-.648,6.252Z" transform="translate(-1266.734 -2866.091)" fill="#fcb49e"/>
        <path id="Trazado_113241" data-name="Trazado 113241" d="M1244.952,2951.6a11.607,11.607,0,0,1-10.488,0c-.012-.306-.027-.611-.032-.917a2.081,2.081,0,0,1,.05-.311,11.005,11.005,0,0,0,10.456,0A3.688,3.688,0,0,1,1244.952,2951.6Z" transform="translate(-1214.532 -2921.2)" fill="#e98e7b"/>
        <path id="Trazado_113242" data-name="Trazado 113242" d="M1216.937,2871.094c0-.778.037-1.558-.012-2.333-.038-.589.284-.6.693-.559.353.033.828-.189.8.52-.045,1.13-.008,2.262-.02,3.394a2.08,2.08,0,0,1-1.008,1.764c-.3.2-.462.174-.456-.241C1216.945,2872.792,1216.937,2871.942,1216.937,2871.094Z" transform="translate(-1201.145 -2858.375)" fill="#868686"/>
        <path id="Trazado_113243" data-name="Trazado 113243" d="M1291.9,2871.132c0,.778.007,1.556-.006,2.334,0,.17.111.414-.119.5-.189.069-.348-.107-.491-.22a2,2,0,0,1-.84-1.566c-.018-1.178.008-2.358-.021-3.536-.017-.684.469-.43.784-.453s.729-.139.7.468C1291.867,2869.48,1291.9,2870.307,1291.9,2871.132Z" transform="translate(-1257.332 -2858.353)" fill="#868686"/>
        <path id="Trazado_113244" data-name="Trazado 113244" d="M1243.359,2915.709a4.172,4.172,0,0,1-4.162-3.841c-.029-.48-.005-.947.6-1.011.591-.063.746.343.812.844a2.738,2.738,0,0,0,5.467.026c.062-.493.194-.918.788-.873s.657.5.631.988A4.173,4.173,0,0,1,1243.359,2915.709Z" transform="translate(-1218.169 -2890.988)"/>
        <path id="Trazado_113245" data-name="Trazado 113245" d="M1253.827,2886.414q0-1.061,0-2.12c0-.478.245-.791.713-.788s.7.321.7.8q0,2.156,0,4.311c0,.459-.179.8-.679.812-.539.016-.739-.326-.739-.822Q1253.827,2887.509,1253.827,2886.414Z" transform="translate(-1229.359 -2870.084)"/>
        <path id="Trazado_113246" data-name="Trazado 113246" d="M1274.65,2884.9a1.9,1.9,0,0,1-.041.462.685.685,0,0,1-1.33-.042,5.276,5.276,0,0,1-.043-1.051c.015-.462.258-.787.733-.773s.692.341.681.813C1274.647,2884.444,1274.65,2884.585,1274.65,2884.9Z" transform="translate(-1244.191 -2870.071)" fill="#050303"/>
        <path id="Trazado_113247" data-name="Trazado 113247" d="M1238.285,2884.841a1.574,1.574,0,0,1-.029.439.671.671,0,0,1-.765.576.643.643,0,0,1-.616-.654c-.015-.3-.005-.611-.009-.916-.005-.48.232-.79.7-.787s.693.337.714.8C1238.289,2884.413,1238.285,2884.531,1238.285,2884.841Z" transform="translate(-1216.392 -2870.079)" fill="#040302"/>
        <path id="Trazado_113248" data-name="Trazado 113248" d="M1161.784,3048.314a6.067,6.067,0,0,1,1.516,0q.006,5.529.006,11.058a5.982,5.982,0,0,1-.13.978.589.589,0,0,1-.668.5.58.58,0,0,1-.6-.5,7.1,7.1,0,0,1-.128-.978Q1161.769,3053.844,1161.784,3048.314Z" transform="translate(-1158.989 -2996.037)" fill="#f9dedf"/>
        <path id="Trazado_113249" data-name="Trazado 113249" d="M1162.114,3108.9a3.524,3.524,0,0,1,.063-.556.65.65,0,0,1,1.247,0,3.132,3.132,0,0,1-.008,1.331.571.571,0,0,1-.648.434.582.582,0,0,1-.6-.5C1162.142,3109.42,1162.138,3109.23,1162.114,3108.9Z" transform="translate(-1159.248 -3041.605)" fill="#f9dfe0"/>
        <path id="Trazado_113250" data-name="Trazado 113250" d="M1178.493,2930.616a4.2,4.2,0,0,0-1.052,1.19,5.213,5.213,0,0,0-1.115-1.184c.033-.059.049-.134.093-.16.446-.259.632-1.06,1.057-.981C1177.865,2929.555,1178.148,2930.2,1178.493,2930.616Z" transform="translate(-1170.112 -2905.227)" fill="#ecbc1f"/>
        <path id="Trazado_113251" data-name="Trazado 113251" d="M1329.121,2931.539a5.723,5.723,0,0,0-1.145-1.171,1.143,1.143,0,0,1,.095-.137q.531-.542,1.065-1.08l1.022,1.206A4.486,4.486,0,0,0,1329.121,2931.539Z" transform="translate(-1286.042 -2904.978)" fill="#ebbc1f"/>
      </g>
    </g>
  </g>
</svg>
