<svg xmlns="http://www.w3.org/2000/svg" width="400" height="359" viewBox="0 0 400 359">
  <g id="Grupo_78823" data-name="Grupo 78823" transform="translate(-180 -1199)">
    <rect id="Rectángulo_33958" data-name="Rectángulo 33958" width="400" height="357" transform="translate(180 1199)" fill="#f6f6f6"/>
    <g id="Grupo_78723" data-name="Grupo 78723" transform="translate(180 1199)">
      <rect id="Rectángulo_33731" data-name="Rectángulo 33731" width="400" height="359" fill="none"/>
      <g id="Grupo_78715" data-name="Grupo 78715" transform="translate(37.402 9.187)">
        <path id="Trazado_113832" data-name="Trazado 113832" d="M274.881,283.732c0,1.514-18.261,2.742-40.789,2.742s-40.8-1.228-40.8-2.742,18.275-2.746,40.8-2.746S274.881,282.215,274.881,283.732Z" transform="translate(-193.29 29.805)" fill="#da97b8" opacity="0.3"/>
        <path id="Trazado_113845" data-name="Trazado 113845" d="M244.249,206.111c-.158.777-1.143,1.364-1.385,2.149a28.745,28.745,0,0,0-1.094,3.784c-.737-.5-.75-1.072-1.511-1.561-1.026-.66-1.05-.755-.768-1.939.142-.58.291-1.187.4-1.781a5.4,5.4,0,0,1-.658-2.524c.136-1.344.8,1.583.864,1.087.2-1.548.613-4.624.717-4.822.138-.259.145,3.324.761,3.53.323-.612.284-4.389.6-4.05s.51,3.724.541,4.517c.064-.432.465-4.064.812-3.627s.134,3.792.029,4.305a22.534,22.534,0,0,1,1.08-2.8C244.7,202.583,244.334,205.686,244.249,206.111Z" transform="translate(-180.473 9.864)" fill="#c4846e"/>
        <path id="Trazado_113846" data-name="Trazado 113846" d="M223.448,225.817c-1.846,2.991-1.761,6.375,3.7,6.743s16.047-2.51,18-3.363c6.629-2.783,11.26-21.982,11.26-21.982l-4.14-1.6s-2.437,14.7-8.916,17.969S225.572,222.378,223.448,225.817Z" transform="translate(-191.198 -23.368)" fill="#ff8b95"/>
        <path id="Trazado_113849" data-name="Trazado 113849" d="M438.185,161.75a29.279,29.279,0,0,0-1.626-10.64,10.942,10.942,0,0,1-12.222-15.3,29.493,29.493,0,0,0-9.986-3.945,10.94,10.94,0,0,1-19.281,2.792,29.469,29.469,0,0,0-8.457,6.622,10.943,10.943,0,0,1-7.377,18.139,29.5,29.5,0,0,0,1.46,10.659,10.944,10.944,0,0,1,12.148,15.607,29.369,29.369,0,0,0,10,4.055,10.942,10.942,0,0,1,19.677-2.849,29.362,29.362,0,0,0,8.444-6.728,10.945,10.945,0,0,1,7.217-18.413ZM411.869,170.1a9.817,9.817,0,1,1,6.12-12.464A9.819,9.819,0,0,1,411.869,170.1Z" transform="translate(-137.938 -10.829)" fill="#4dd0e1"/>
        <path id="Trazado_113850" data-name="Trazado 113850" d="M325.313,231.532a7.889,7.889,0,0,1,3.118-7.8,21.614,21.614,0,0,0-2.151-3.039,21.351,21.351,0,0,0-2.918-2.835,7.889,7.889,0,0,1-13.327-4.663,21.347,21.347,0,0,0-7.616,1.413,7.885,7.885,0,0,1-10.706,9.094,21.312,21.312,0,0,0-2.63,7.287,7.89,7.89,0,0,1,2.446,13.907,21.348,21.348,0,0,0,2.325,3.335,21.042,21.042,0,0,0,2.648,2.613,7.894,7.894,0,0,1,13.4,4.882,21.164,21.164,0,0,0,7.664-1.357,7.892,7.892,0,0,1,10.928-9.28,21.221,21.221,0,0,0,2.58-7.345A7.882,7.882,0,0,1,325.313,231.532Zm-8.875,8.091a8.186,8.186,0,1,1-1.2-11.513A8.187,8.187,0,0,1,316.438,239.622Z" transform="translate(-165.321 13.885)" fill="#4dd0e1"/>
        <path id="Trazado_113851" data-name="Trazado 113851" d="M361.877,204.851c-.15.15,2.4,3.449,2.833,4.093a22.549,22.549,0,0,1,1.541,3c.531-.656,1.127-1.257,1.682-1.909.747-.875.741-.97.16-1.964-.206-.351-.422-.715-.625-1.081-.166-.3,1.132-3.038.236-3.038s-.864,1.705-1.08,1.164c-.544-1.357-1.507-3.652-1.862-3.674-.5-.03.716,2.772.216,3.127-.459-.464-1.313-2.831-1.909-2.545s.814,2.556,1,3.281c-.176-.376-1.6-2.548-1.749-2.248s.939,2.653,1.173,3.091c-.1-.145-.342-.3-.467-.468C363.139,205.825,362.025,204.7,361.877,204.851Z" transform="translate(-143.204 10.314)" fill="#f5b29c"/>
        <path id="Trazado_113852" data-name="Trazado 113852" d="M397.9,218.488c2.483,2.292,3.339,5.5-1.481,7.391s-15.357,4.9-23.469-2.628-9.811-12.95-9.811-12.95l3.282-2.678s5.6,9.18,14.279,11.76S395.04,215.855,397.9,218.488Z" transform="translate(-146.078 -3.671)" fill="#2a2b7c"/>
        <g id="Grupo_78679" data-name="Grupo 78679" transform="translate(136.761 126.836)">
          <path id="Trazado_113853" data-name="Trazado 113853" d="M407.241,193.837A12.449,12.449,0,0,1,414.1,182.72a58.044,58.044,0,0,0-2.146-8.021,12.435,12.435,0,0,1-11.126-19.24,58.672,58.672,0,0,0-5.877-5.875,12.435,12.435,0,0,1-19.237-11.125,58.243,58.243,0,0,0-8.023-2.146,12.436,12.436,0,0,1-22.229,0,58.225,58.225,0,0,0-8.021,2.146A12.438,12.438,0,0,1,318.2,149.585a59.2,59.2,0,0,0-5.874,5.874A12.436,12.436,0,0,1,301.2,174.7a58.353,58.353,0,0,0-2.147,8.02,12.436,12.436,0,0,1,0,22.231,58.539,58.539,0,0,0,2.146,8.02,12.437,12.437,0,0,1,11.126,19.242,58.91,58.91,0,0,0,5.874,5.874,12.438,12.438,0,0,1,19.244,11.126,58.147,58.147,0,0,0,8.019,2.147,12.436,12.436,0,0,1,22.229,0,57.839,57.839,0,0,0,8.023-2.15,12.436,12.436,0,0,1,19.24-11.123,58.675,58.675,0,0,0,5.875-5.877,12.436,12.436,0,0,1,11.126-19.24,58.405,58.405,0,0,0,2.146-8.02A12.45,12.45,0,0,1,407.241,193.837Zm-50.663,30.286a30.286,30.286,0,1,1,30.285-30.286A30.321,30.321,0,0,1,356.578,224.123Z" transform="translate(-299.053 -136.313)" fill="#4ac0cb"/>
          <path id="Trazado_113854" data-name="Trazado 113854" d="M349.6,159.268A27.593,27.593,0,1,0,377.2,186.862,27.623,27.623,0,0,0,349.6,159.268Zm0,47.124a19.531,19.531,0,1,1,19.531-19.531A19.532,19.532,0,0,1,349.6,206.392Z" transform="translate(-292.077 -129.338)" fill="#4ac0cb"/>
        </g>
        <path id="Trazado_113855" data-name="Trazado 113855" d="M322.726,228.512a10.536,10.536,0,0,1,8.372-7.218,48.894,48.894,0,0,0,.319-7.019,10.525,10.525,0,0,1-4.06-18.365,50.2,50.2,0,0,0-3.238-6.241,10.522,10.522,0,0,1-12.68-13.89,49.606,49.606,0,0,0-5.924-3.783,10.523,10.523,0,0,1-17.936-5.679,49.351,49.351,0,0,0-7.019-.316,10.525,10.525,0,0,1-18.365,4.059,50.184,50.184,0,0,0-6.24,3.238,10.525,10.525,0,0,1-13.893,12.682,49.258,49.258,0,0,0-3.78,5.922,10.525,10.525,0,0,1-5.68,17.936,49.769,49.769,0,0,0-.319,7.018,10.525,10.525,0,0,1,4.062,18.37,49.663,49.663,0,0,0,3.239,6.237,10.527,10.527,0,0,1,12.68,13.895,49.538,49.538,0,0,0,5.924,3.781,10.524,10.524,0,0,1,17.935,5.679,49.589,49.589,0,0,0,7.021.318,10.524,10.524,0,0,1,18.364-4.062,49.575,49.575,0,0,0,6.24-3.238,10.526,10.526,0,0,1,13.9-12.68,49.759,49.759,0,0,0,3.78-5.922A10.533,10.533,0,0,1,322.726,228.512Zm-48.212,10.226A24.3,24.3,0,1,1,305.02,222.9,24.3,24.3,0,0,1,274.513,238.738Z" transform="translate(-189.4 -5.739)" fill="#34a5b4"/>
        <path id="Trazado_113871" data-name="Trazado 113871" d="M427.907,282.775c0,1.689-15.29,3.062-34.151,3.062s-34.148-1.373-34.148-3.062,15.291-3.065,34.148-3.065S427.907,281.082,427.907,282.775Z" transform="translate(-148.392 43.628)" fill="#a8bcff" opacity="0.3"/>
        <g id="Grupo_78683" data-name="Grupo 78683" transform="translate(218.394 193.617)">
          <path id="Trazado_113872" data-name="Trazado 113872" d="M392.089,259.745l2.383,46.652s-9.225,2.276-10.9,2.6,4.712-3.741,5.474-5.717,1.9-2.695.911-7.5-8.756-52.949-8.756-52.949h9.768Z" transform="translate(-352.618 -174.186)" fill="#f5a88b"/>
          <path id="Trazado_113873" data-name="Trazado 113873" d="M387.016,280.4c3.425,1.1,5.472.4,6.53-.326l.1,1.881s-9.225,2.276-10.9,2.6C381.438,284.808,385,282.413,387.016,280.4Z" transform="translate(-351.789 -149.748)" fill="#2e3054"/>
          <path id="Trazado_113874" data-name="Trazado 113874" d="M388.049,261.681l-7.226,46.093s-9.472.114-11.176.046,5.366-2.574,6.515-4.328,2.408-2.2,2.425-7.117-.07-53.211-.07-53.211l12.317-1.57Z" transform="translate(-360.372 -174.999)" fill="#f5a88b"/>
          <path id="Trazado_113875" data-name="Trazado 113875" d="M374.669,279.723c3.117,1.86,5.258,1.638,6.444,1.174l-.29,1.858s-9.472.114-11.176.046C368.321,282.749,372.291,281.225,374.669,279.723Z" transform="translate(-360.372 -149.98)" fill="#2e3054"/>
          <path id="Trazado_113876" data-name="Trazado 113876" d="M388.922,235.8c-.783,3.128.924,5.452,1.6,8.441a31.747,31.747,0,0,1,.442,8.806,73.179,73.179,0,0,1-3.887,18.117c-1.933,5.856-5.969,34.639-5.969,34.639s-5.149-1-6.908-.505c.393-6.522-1.192-32.474-1.29-39.161-.084-5.747.815-11.7,1.237-17.469.4-5.558,1.279-10.732,5.351-14.52Z" transform="translate(-358.063 -179.887)" fill="#2e3054"/>
          <path id="Trazado_113877" data-name="Trazado 113877" d="M391.895,234.678c-.131,3.234,2.567,4.1,3.837,6.868,1.188,2.589,1.29,6.707,1.681,9.506a73.577,73.577,0,0,1-.083,18.572c-.686,6.163-.154,30.061.017,35.737-1.87.472-3.981-.351-5.594.532-.957-6.457-5.186-27.739-6.655-34.246-1.257-5.593-5.253-16.424-6.025-22.153-.744-5.522-2.143-9.1,1.057-13.73Z" transform="translate(-354.64 -179.537)" fill="#3d4166"/>
          <path id="Trazado_113878" data-name="Trazado 113878" d="M393.675,230.41c.022.086.045.169.068.253a20.619,20.619,0,0,1-7.478.386,15.229,15.229,0,0,1-7.178-2.893l.113-.247C384.851,232.235,391.96,230.839,393.675,230.41Z" transform="translate(-354.004 -183.979)" fill="#fff"/>
          <path id="Trazado_113879" data-name="Trazado 113879" d="M379.785,227.007l-7.66,23.807s2.277,7.246,13.249,6.625,17.39-1.035,17.39-1.035-2.07-16.769,1.863-24.428,3.312-12.214,1.656-14.491S384.96,219.761,379.785,227.007Z" transform="translate(-358.573 -191.207)" fill="#2a2b7c"/>
          <path id="Trazado_113880" data-name="Trazado 113880" d="M381.9,217.648c-.316,1.613,2.868,5.252,4.16,5.994,2.322,1.335,5.662.76,8.049-.093,1.293-.462,4.122-.335,4.642-1.724.84-2.252-2.8-2.956-3.923-3.672-1.661-1.065-2.241-4.246-1.972-6.02a52.3,52.3,0,0,0-5.169-.874,6.3,6.3,0,0,1-3.339,4.889C383.767,216.471,382.04,216.966,381.9,217.648Z" transform="translate(-352.171 -194.904)" fill="#f5a88b"/>
          <path id="Trazado_113881" data-name="Trazado 113881" d="M385.875,213.871l2.07-.621.621,2.691,6.211-1.449,1.4,2.2-16.924,25.95,6-26.913Z" transform="translate(-353.898 -193.597)" fill="#fff"/>
          <path id="Trazado_113882" data-name="Trazado 113882" d="M398.459,217.287a3.39,3.39,0,0,0,.815-1.153c.146-.388,5.329,2.112,5.763,2.488.187.164.358.32.51.47,1.61,1.608,1.234,2.607.755,4.862-1.219,5.742-4.844,10.613-6.553,16.186-.951,3.1-2.478,6.085-2.285,9.415.176,3.029,1.628,5.113-1.911,6.575-3.861,1.6-15.409-.932-18.877-3.07-2.423-1.494-1.9-2.827-2.074-5.651a43.076,43.076,0,0,1,3.9-20.4c1.462-3.4,2.868-7.665,4.968-10.712,1.01-1.471.783-1.694,2.6-2.181a21.148,21.148,0,0,1,3.109.161c0,.089-4.137,19.939-4.137,19.939s10.151-14.523,11.479-15.288A22.094,22.094,0,0,0,398.459,217.287Z" transform="translate(-356.998 -193.035)" fill="#2a2b7c"/>
          <path id="Trazado_113883" data-name="Trazado 113883" d="M384.777,214.043a5.838,5.838,0,0,0,1.013-2.784,52.3,52.3,0,0,1,5.169.874c-.027.169-.036.356-.046.545A5.588,5.588,0,0,1,384.777,214.043Z" transform="translate(-350.271 -194.904)" fill="#b9b3c0" style="mix-blend-mode: multiply;isolation: isolate"/>
          <path id="Trazado_113884" data-name="Trazado 113884" d="M385.9,217.4c-4.972-2.878-2.423-9.147.845-12.282,1.693-1.621,4.329-3.331,6.779-2.739,2.388.583,6.24,2.756,5.9,5.6-.177,1.446-1.59,2.551-2.266,3.814-.994,1.858-1.8,3.71-3.387,5.159C391.381,219.115,388.57,218.946,385.9,217.4Z" transform="translate(-351.368 -200.811)" fill="#f5a88b"/>
          <path id="Trazado_113885" data-name="Trazado 113885" d="M392.764,214.955c1.173.525,2.039-.4,2.044-1.558.018-2.131-1.312-1.128-2.372-1.51h0l.4-2.6s-4.518-.813-3.031-2.577c-1.515-.167-5.477-.444-5.391-2.714.159-4.217,7.314-2.271,9.3-1.378,1.954.879,4.221,2.706,4.95,4.771,1.284,3.637-2.733,11.545-7.252,10.493Z" transform="translate(-350.512 -201.384)" fill="#0b1238"/>
          <path id="Trazado_113886" data-name="Trazado 113886" d="M365.076,209.339c-.233.234,3.776,5.419,4.455,6.432,1,1.492,2.764,2.756,3.531,4.371.831-1.03.661-1.63,1.534-2.653,1.173-1.376,1.163-1.524.253-3.087-.325-.552-.664-1.121-.982-1.7-.262-.472,1.779-4.775.369-4.775s-1.358,2.678-1.7,1.828c-.853-2.133-2.367-5.74-2.925-5.773-.778-.048,1.124,4.356.341,4.914-.72-.73-2.064-4.447-3-4s1.279,4.016,1.577,5.154c-.278-.59-2.514-4-2.749-3.533s1.477,4.17,1.845,4.859c-.164-.225-.535-.474-.732-.734C367.06,210.869,365.313,209.1,365.076,209.339Z" transform="translate(-363.204 -199.678)" fill="#f5a88b"/>
          <path id="Trazado_113887" data-name="Trazado 113887" d="M407.04,221.977c2.706,2.5,3.64,6-1.615,8.061s-16.749,5.344-25.6-2.864-11.661-12.842-11.661-12.842l4.543-4.2s6.11,10.013,15.573,12.825S403.927,219.105,407.04,221.977Z" transform="translate(-361.17 -195.645)" fill="#5c61c3"/>
          <path id="Trazado_113888" data-name="Trazado 113888" d="M363.942,248.557h0Z" transform="translate(-363.942 -170.43)" fill="#2e3054"/>
        </g>
        <g id="Grupo_78684" data-name="Grupo 78684" transform="translate(0 178.988)">
          <path id="Trazado_113911" data-name="Trazado 113911" d="M227.184,239.5s-3.714,28.4-6.529,34.838-5.038,6.906-9.743,12.642-5.269,16.772-5.269,16.772l.106.059-.521,3.351-.879,4.268,8.693.216s.988-.476-2.716-1.977a15.9,15.9,0,0,0-2.728-.964s1.8-4.116,2.1-4.8c2.41-5.489,11.217-16.774,16.749-22.9,5.309-5.88,14.319-25.316,14.319-25.316C247.165,241.036,227.184,239.5,227.184,239.5Z" transform="translate(-204.349 -177.625)" fill="#c4846e"/>
          <path id="Trazado_113912" data-name="Trazado 113912" d="M252.363,312.216c-3.706-1.5-2.989-1.346-2.989-1.346l.154-3.455,2.285-31.6L235.6,244.17c-1.315-7.6-16.888-13.852-17.351-.766s9.753,16.884,11.98,19.377,13.262,13.864,13.262,13.864,1.3.865-.187,5.188c-1.111,6.057,2.723,26.34,2.723,26.34.24.069.189,3.233.189,3.233l-.637,2.861,9.484.486S256.066,313.722,252.363,312.216Z" transform="translate(-194.214 -180.31)" fill="#c4846e"/>
          <path id="Trazado_113913" data-name="Trazado 113913" d="M226.166,222.015c-.4-.062-5.325,2.9-5.325,2.9s6.633-4.553,7.087-9.971,2.642-3.27,4.9-1.3c1.351,1.164.479,4.8.747,6.612.206,1.382,1.112,3.211.709,4.612-.82,2.846-2.543-.744-3.877-1.687C228.949,222.148,227.636,222.238,226.166,222.015Z" transform="translate(-192.311 -198.051)" fill="#c4846e"/>
          <path id="Trazado_113914" data-name="Trazado 113914" d="M237,217.172c-2.989-2.789-8.378-.721-10.682,1.733-3.449,3.671-3.591,11.009-4.188,15.931-.517,4.252.958,8.785-1.256,12.625-1.168,2.034-2.9,8.326-4.278,10.25-1.842,2.574,5.027,2.972,7.837,3.693,5,1.285,15.052.567,15.052.567s-1.678-7.722-1.9-10.015c-.362-3.8,1.583-7.368,3.9-12.366,1.254-2.692,2.9-3.69,2.126-6.582a48.682,48.682,0,0,0-3.292-8.06c-.92-1.938-1.683-6-3.048-7.5C237.191,217.357,237.094,217.258,237,217.172Z" transform="translate(-195.633 -194.895)" fill="#ff98a6"/>
          <path id="Trazado_113915" data-name="Trazado 113915" d="M226.358,221.094c-2.24-3.065-3.737-8.748-2.315-12.355,1.446-3.693,4.116-4.2,7.44-2.031,3.261,2.133,8.323,11.975,2.666,13.549-1.439.4-3.046-.078-4.385.692Z" transform="translate(-190.379 -202.496)" fill="#c4846e"/>
          <path id="Trazado_113916" data-name="Trazado 113916" d="M226.188,204.925c4.091-1.766,10.079-2.028,10.81,2.4.612,3.706-4.394,5.141-7.06,4.669l.035,1.586s-2.285-.424-1.768,1.529a1.721,1.721,0,0,0,2.462,1.026c-1.045.387-1.45,2.014-3.017,2.275-2,.337-3.084-.64-4.079-2.228-1.664-2.673-2.687-6.1-.8-8.812A8.159,8.159,0,0,1,226.188,204.925Z" transform="translate(-191.644 -203.731)" fill="#0b1238"/>
          <path id="Trazado_113917" data-name="Trazado 113917" d="M230.331,208.867l2.64,3.276-2.482,1.227Z" transform="translate(-185.384 -199.981)" fill="#c4846e"/>
          <path id="Trazado_113918" data-name="Trazado 113918" d="M204.349,281.811l8.693.216s.977-.474-2.671-1.962a6.531,6.531,0,0,1-5.714.251Z" transform="translate(-204.349 -148.011)" fill="#2d3152"/>
          <path id="Trazado_113919" data-name="Trazado 113919" d="M240.825,280.034l-.327-.13a6.662,6.662,0,0,1-6.129.708l-.329,1.474,9.484.486S244.529,281.541,240.825,280.034Z" transform="translate(-182.676 -148.128)" fill="#2d3152"/>
          <path id="Trazado_113920" data-name="Trazado 113920" d="M234.548,204.083s-9.765-.661-9.461,9c0,0-7.3.249-9.644,10.269s1.427,13.623,5.8,11.305,4.065-4.32,4.065-4.32,3.662,1.822,8.387-1.24-1.744-9.826-1.744-9.826l3.849-3.392s-8.331.566-3.839-4.346S234.548,204.083,234.548,204.083Z" transform="translate(-196.778 -203.48)" fill="#0b1238"/>
        </g>
        <path id="Trazado_113921" data-name="Trazado 113921" d="M249.874,216.067c-1.4,1.752-1.977,1.723-2.586,2.63a38.312,38.312,0,0,0-2.842,4.384c-.744-.919-.541-1.649-1.318-2.562-1.05-1.232-1.043-1.363-.23-2.758.4-.683.825-1.4,1.192-2.109.123-.228-.554-1.806.135-3.458s.407,2.318.68,1.713c.853-1.887,2.555-5.636,2.764-5.847.275-.277-1.1,4.276-.389,4.775.645-.652,2.046-5.463,2.32-4.911s-.784,4.927-1.048,5.946c.246-.526,2.154-4.984,2.425-4.3s-1.287,4.866-1.618,5.477a29.668,29.668,0,0,1,2.446-3.135A9.9,9.9,0,0,1,249.874,216.067Z" transform="translate(-176.639 -21.714)" fill="#c4846e"/>
        <path id="Trazado_113922" data-name="Trazado 113922" d="M224.7,223.749c-2.633,2.328-3.532,5.591,1.593,7.529s16.085,2.247,18.2,2c7.152-.746,17.147-17.777,17.147-17.777l-3.5-2.732s-6.517,11.9-13.665,13.151S227.728,221.073,224.7,223.749Z" transform="translate(-191.043 -18.147)" fill="#fa7071"/>
        <g id="Grupo_78693" data-name="Grupo 78693" transform="translate(275.539 145.916)">
          <path id="Trazado_113927" data-name="Trazado 113927" d="M432.628,311.129c-8.424-2.482-14.376-10.057-13.84-19.045.283-4.788,2.422-4.188,5.324-7.081,3.082-3.07,1.4-4.227-1.214-7.631-4.781-6.226-9.271-13.231-7.327-21.536,1.835-7.842,11.136-7.718,9.082-15.919-2.64-10.554-1.6-21.044-.37-31.883.708-6.341,3.022-21.821,11.745-22.053,8.231-.225,7.836,15.124,8,20.317.156,4.844-.872,8.2,2.849,10.924,4.754,3.5,10.269,4.655,11.262,11.642,1.166,8.231-7.948,11.7-8.4,19.011-.373,6.062,8.312,9.572,11.4,14.565,5.8,9.374-5.492,9.439-6.437,16.918a3.393,3.393,0,0,1-.6,1.233c3.16,2.39,7.523,3.657,9.326,7.509,2.1,4.475.559,9.054-2.525,12.5-6.221,6.927-17.9,13.024-27.23,10.8C433.318,311.32,432.969,311.23,432.628,311.129Z" transform="translate(-415.106 -185.978)" fill="#fff" opacity="0.3"/>
          <path id="Trazado_113928" data-name="Trazado 113928" d="M432.628,311.129c-8.424-2.482-14.376-10.057-13.84-19.045.283-4.788,2.422-4.188,5.324-7.081,3.082-3.07,1.4-4.227-1.214-7.631-4.781-6.226-9.271-13.231-7.327-21.536,1.835-7.842,11.136-7.718,9.082-15.919-2.64-10.554-1.6-21.044-.37-31.883.708-6.341,3.022-21.821,11.745-22.053,8.231-.225,7.836,15.124,8,20.317.156,4.844-.872,8.2,2.849,10.924,4.754,3.5,10.269,4.655,11.262,11.642,1.166,8.231-7.948,11.7-8.4,19.011-.373,6.062,8.312,9.572,11.4,14.565,5.8,9.374-5.492,9.439-6.437,16.918a3.393,3.393,0,0,1-.6,1.233c3.16,2.39,7.523,3.657,9.326,7.509,2.1,4.475.559,9.054-2.525,12.5-6.221,6.927-17.9,13.024-27.23,10.8C433.318,311.32,432.969,311.23,432.628,311.129Z" transform="translate(-415.106 -185.978)" fill="#f1a09d"/>
          <path id="Trazado_113929" data-name="Trazado 113929" d="M448.629,264.736c0,.681-6.9,1.237-15.4,1.237s-15.4-.557-15.4-1.237,6.89-1.253,15.4-1.253S448.629,264.041,448.629,264.736Z" transform="translate(-411.567 -85.235)" fill="#b0bcd8"/>
          <g id="Grupo_78690" data-name="Grupo 78690" transform="translate(4.993 0.002)">
            <g id="Grupo_78688" data-name="Grupo 78688" transform="translate(15.722)">
              <rect id="Rectángulo_33912" data-name="Rectángulo 33912" width="0.415" height="174.933" transform="translate(0)" fill="#fff"/>
            </g>
            <g id="Grupo_78689" data-name="Grupo 78689" transform="translate(0 10.043)">
              <path id="Trazado_113930" data-name="Trazado 113930" d="M424.436,226.073l21.722-21.72c-.044-.159-.085-.313-.129-.472l-21.89,21.9Z" transform="translate(-408.357 -172.751)" fill="#fff"/>
              <path id="Trazado_113931" data-name="Trazado 113931" d="M424.436,221.8l19.434-19.441c-.087-.1-.182-.2-.283-.3L424.139,221.51Z" transform="translate(-408.358 -175.113)" fill="#fff"/>
              <path id="Trazado_113932" data-name="Trazado 113932" d="M424.436,233.816,442,216.243a4.063,4.063,0,0,0-.306-.288l-17.559,17.564Z" transform="translate(-408.357 -157.058)" fill="#fff"/>
              <path id="Trazado_113933" data-name="Trazado 113933" d="M424.139,202.618l.3.3,7.843-7.845c0-.182-.007-.377-.007-.582Z" transform="translate(-408.357 -184.959)" fill="#fff"/>
              <path id="Trazado_113934" data-name="Trazado 113934" d="M424.139,236.432l.3.3,19.7-19.7c-.108-.087-.221-.182-.322-.269Z" transform="translate(-408.358 -155.998)" fill="#fff"/>
              <path id="Trazado_113935" data-name="Trazado 113935" d="M448.458,228.781,424.139,253.1l.3.3,24.317-24.317Z" transform="translate(-408.358 -140.386)" fill="#fff"/>
              <path id="Trazado_113936" data-name="Trazado 113936" d="M424.139,242.246l.3.292,23.823-23.823-.294-.292Z" transform="translate(-408.358 -153.85)" fill="#fff"/>
              <path id="Trazado_113937" data-name="Trazado 113937" d="M431.9,225.556l-13.2-13.18c-.1.1-.2.2-.292.292l13.406,13.417Z" transform="translate(-415.811 -161.71)" fill="#fff"/>
              <path id="Trazado_113938" data-name="Trazado 113938" d="M433.21,228.867,417.6,213.373c-.11.1-.218.182-.322.278l16,16Z" transform="translate(-417.277 -160.415)" fill="#fff"/>
              <path id="Trazado_113939" data-name="Trazado 113939" d="M430.573,239.361l-10.952-10.855c-.076.115-.166.228-.258.345l11.2,11.2Z" transform="translate(-414.564 -140.744)" fill="#fff"/>
              <path id="Trazado_113940" data-name="Trazado 113940" d="M424.139,247.89l.3.292,20.28-20.273c-.127-.083-.253-.149-.373-.221Z" transform="translate(-408.358 -141.807)" fill="#fff"/>
              <path id="Trazado_113941" data-name="Trazado 113941" d="M420.083,190.792l9.547,9.554-.067-.724-9.34-9.275C420.18,190.491,420.129,190.638,420.083,190.792Z" transform="translate(-413.63 -190.346)" fill="#fff"/>
              <path id="Trazado_113942" data-name="Trazado 113942" d="M431.477,211.394l-12.7-12.449c-.016.179-.032.361-.046.543l12.665,12.67Z" transform="translate(-415.392 -179.169)" fill="#fff"/>
              <path id="Trazado_113943" data-name="Trazado 113943" d="M431.564,213.522l-12.93-12.789c-.012.189-.025.382-.032.566l12.953,12.95Z" transform="translate(-415.555 -176.845)" fill="#fff"/>
            </g>
          </g>
          <g id="Grupo_78691" data-name="Grupo 78691" transform="translate(20.612 125.745)">
            <rect id="Rectángulo_33913" data-name="Rectángulo 33913" width="0.681" height="49.191" transform="translate(0)" fill="#2a2b7c"/>
          </g>
          <path id="Trazado_113944" data-name="Trazado 113944" d="M437.307,280.091s-12.06-43.2-19.781-24.337S437.307,280.091,437.307,280.091Z" transform="translate(-413.736 -101.48)" fill="#ffc5c0"/>
          <g id="Grupo_78692" data-name="Grupo 78692" transform="translate(22.963 133.489)">
            <path id="Trazado_113945" data-name="Trazado 113945" d="M425.358,290.906l-.074-1.3c-.076-1.378-1.824-34.061,6.824-43.2a6.874,6.874,0,0,1,6.023-2.332,4.946,4.946,0,0,1,4.17,2.8c4.641,9.728-15.395,41.586-16.241,42.936Zm11.906-46.047a6.1,6.1,0,0,0-4.545,2.116c-7.435,7.863-6.9,34.87-6.66,41.234,3.6-5.883,19.447-32.658,15.487-40.969a4.092,4.092,0,0,0-3.512-2.337A7.378,7.378,0,0,0,437.264,244.859Z" transform="translate(-425.091 -244.021)" fill="#2a2b7c"/>
          </g>
        </g>
        <g id="Grupo_78721" data-name="Grupo 78721" transform="translate(232.152 0.889)">
          <g id="Grupo_78720" data-name="Grupo 78720" transform="translate(0 0)">
            <path id="Trazado_113900" data-name="Trazado 113900" d="M394.144,111.727s.493,34.3,1.991,37.175,8.89,4.91,9.263,4.3-3.2-3.085-4.084-4.69-1.985-2.095-1.584-6.3,1.176-26.911,1.176-26.911l-6.726-4.137Z" transform="translate(-365.946 -21.643)" fill="#f5b29c"/>
            <path id="Trazado_113901" data-name="Trazado 113901" d="M389.8,113.732s5.908,30.921,4.884,32.765-5.326,6.2-7.23,6,1.67-4,2.4-5.684,1.78-2.273.982-6.418-8.665-26.536-8.665-26.536l5.172-3.363Z" transform="translate(-372.555 -22.011)" fill="#f5b29c"/>
            <path id="Trazado_113902" data-name="Trazado 113902" d="M389.714,66.229a6.3,6.3,0,0,0-1.763,4.423,5.729,5.729,0,0,0,.473,2.522,15.942,15.942,0,0,1,1.212,2.2,3.805,3.805,0,0,0-2.8.942c-2.758,2.713-2.888,9.109,1,10.8a2.86,2.86,0,0,0,2.131.146c-1.313-.892-2.983,1.94-1.887,3.417,1.286,1.733,4.458,1.8,6.285,1.9,2.095.11,5.258.52,6.964-1.069,1.305-1.215,1.994-3.771,2.278-5.54.526,1.4,1.072,3.152,2.421,3.669A3.191,3.191,0,0,0,409.644,88a4.1,4.1,0,0,0-.293-4.1c-.355-.54-2.453-3.426-3.038-3.167,2.621-1.161,2.627-4.42,2.089-7.449-1.608-9.058-12.7-13.569-18.58-7.177C389.784,66.15,389.748,66.19,389.714,66.229Z" transform="translate(-371.085 -48.158)" fill="#2e3054"/>
            <path id="Trazado_113903" data-name="Trazado 113903" d="M398.731,66.788c.642.642.126,4.893.327,5.951.542,2.807,3.375,3.246,4.261,5.484.368.926-.13,2.377-.39,3.2-.582,1.85-1.767,4.52-3.831,5.036-1.1.273-2.744.262-3.956.425a7.744,7.744,0,0,1-4.579-.529c-2.86-1.421-3.557-4.46-2.508-7.332.742-2.036,1.952-1.9,3.391-3.139a6.986,6.986,0,0,0,2.118-5.5C393.41,67.571,397.167,65.223,398.731,66.788Z" transform="translate(-369.56 -46.409)" fill="#ecb49f"/>
            <path id="Trazado_113904" data-name="Trazado 113904" d="M397.1,70.058,397,67.6c-1.566-1.566-5.731-.841-5.574,1.977,0,.019,0,.492,0,.512.523.875,1.8,2.938,2.646,2.818C395.865,72.648,396.523,71.689,397.1,70.058Z" transform="translate(-367.448 -46.133)" fill="#ecb49f" style="mix-blend-mode: multiply;isolation: isolate"/>
            <path id="Trazado_113905" data-name="Trazado 113905" d="M390.114,65.884s1.158,8.7,4.488,8.934,4.412-4.714,4.672-8.136c.293-3.828-.061-4.991-4.722-5.211C390.057,61.258,390.114,65.884,390.114,65.884Z" transform="translate(-368.17 -49.07)" fill="#ecb49f"/>
            <path id="Trazado_113906" data-name="Trazado 113906" d="M400.662,65.059c-.039.268-.109.563-.172.867,1.184-.025,1.155,1.884.77,2.559-.065.113-.5.472-.5.551,0,.242.47.216.408.6a1.1,1.1,0,0,1-1.375.777c-.421-.158-.331-.646-.393-1.026a3.185,3.185,0,0,0-1.147-2.041c-.492-.483-1.378-1.156-1.443-1.865-.912,1.625-2.9,1.9-4.578,1.521-.236.979-.057,1.513-1.027,2.087-.936.554-1.1.068-1.87-.45a2.227,2.227,0,0,1,.871-2c-1.145-1.1-.18-2.84.908-4a5.713,5.713,0,0,1,4.823-1.867,4.744,4.744,0,0,1,2.688,1.1,2.374,2.374,0,0,1,1.074,1.858C400.653,63.85,400.76,64.373,400.662,65.059Z" transform="translate(-368.617 -49.459)" fill="#2e3054"/>
            <path id="Trazado_113907" data-name="Trazado 113907" d="M390.708,72.13l-.726.723s1.271,1.609,4.9,1.69a7.792,7.792,0,0,0,5.531-1.851l-1-.642S394.243,75.106,390.708,72.13Z" transform="translate(-368.243 -43.229)" fill="#fff"/>
            <path id="Trazado_113908" data-name="Trazado 113908" d="M399.089,75.752a4.72,4.72,0,0,1,.6-1.772c.75-1.558,1.693-3.034,2.384-4.612.874-2,1.521-4.086,2.441-6.066.377-.812.867-1.606,1.2-2.447.616-1.542.236-3.093.318-4.719.012-.256.6.552.621.593a3.54,3.54,0,0,1,.163,1.6c.805-.456.784-1.535,1.17-2.264a29.879,29.879,0,0,1,1.53-2.588c.112,1.122-.661,2.522-.967,3.552a12.707,12.707,0,0,1,1.079-1.541,4.584,4.584,0,0,1,1.164-1.519,14.8,14.8,0,0,1-1.155,3.7,16.479,16.479,0,0,1,2.146-2.3c.171,1.248-1.156,1.985-1.366,3.093a5.608,5.608,0,0,0,1.758-.923c-.8,2.118-2.989,3.142-4.032,5.168-1.606,3.121-2.3,6.763-3.34,10.122-.41,1.314-.858,2.647-1.37,3.926-.208.52-.635,2.129-1.308,2.18-.324.025-.686-.526-.945-.722a9.44,9.44,0,0,1-1.363-.863A2.165,2.165,0,0,1,399.089,75.752Z" transform="translate(-363.218 -53.477)" fill="#ecb49f"/>
            <path id="Trazado_113909" data-name="Trazado 113909" d="M390.521,74.8a4.982,4.982,0,0,1-.422-.61c-1.018-1.825-2.247-3.535-3.215-5.385-1.013-1.938-1.806-3.968-2.863-5.88-.433-.784-.979-1.541-1.372-2.356-.722-1.5-.452-3.068-.649-4.685-.029-.255-.56.593-.577.635a3.536,3.536,0,0,0-.05,1.608c-.835-.4-.891-1.474-1.327-2.174a28.977,28.977,0,0,0-1.707-2.475c-.033,1.128.836,2.469,1.214,3.476a12.447,12.447,0,0,0-1.184-1.462,4.6,4.6,0,0,0-1.268-1.434,14.736,14.736,0,0,0,1.412,3.611,16.487,16.487,0,0,0-2.3-2.141c-.084,1.255,1.291,1.9,1.58,2.99a5.616,5.616,0,0,1-1.819-.8c.947,2.058,3.2,2.925,4.385,4.871,1.822,3,2.764,6.584,4.042,9.863a16.848,16.848,0,0,0,2.264,4.243,6.984,6.984,0,0,1,1.141,1.611c1.136-.74,1.931-2.221,3.257-2.677A4.271,4.271,0,0,0,390.521,74.8Z" transform="translate(-375.973 -53.477)" fill="#ecb49f"/>
            <path id="Trazado_113910" data-name="Trazado 113910" d="M405.733,89.726c.362-1.269,1.035-2.477,1.375-3.718a14.336,14.336,0,0,0,.456-2.674,19.259,19.259,0,0,1,2.6-7.531c.669-1.234,2.815-5.514,2.815-5.514s-1.252-.861-1.583-1.086c-.832-.562-1.448-1.345-2.214-1.957-1.13,3.928-2.761,8.147-6.909,9.837-4.612,1.878-7.331-.366-10.281-3.779-1.108-1.28-2.186-2.59-3.344-3.828-1-1.077-1.749-2.332-2.758-3.394-.4.386-3.726,2.016-3.574,2.491.753,2.092,2.48,4.519,3.651,6.524,1.075,1.842,3.034,3.884,3.357,5.951.181,1.159-.11,2.438.119,3.543a16.486,16.486,0,0,0,1.293,3.138,16.593,16.593,0,0,1,1.4,3.353,5.51,5.51,0,0,1-.009,2.734c-.186.765-.3,1.791-.473,2.56-.219.987-1.308,2-.071,2.173,2.494.351,5.048.525,7.56.7,1.856.129,3.755.585,5.619.293.795-.126,2.062.591,2.014-.231a29.259,29.259,0,0,0-.712-3.052A12.952,12.952,0,0,1,405.733,89.726Z" transform="translate(-372.473 -46.521)" fill="#fa7071"/>
            <path id="Trazado_113951" data-name="Trazado 113951" d="M392.084,68.333s2.587,1.037,3.751,0c0,0-.259,1.682-1.811,1.682A2.144,2.144,0,0,1,392.084,68.333Z" transform="translate(-367.083 -45.279)" fill="#fff"/>
            <path id="Trazado_113952" data-name="Trazado 113952" d="M391.544,86.583s-9.494,19.663-9.958,35.046a19.283,19.283,0,0,0,1.811,8.147l25.217,1.293s3.751-15,3.1-27.673S406.8,86.842,406.8,86.842,392.967,87.232,391.544,86.583Z" transform="translate(-372.879 -35.209)" fill="#3d4166"/>
          </g>
          <path id="Trazado_113953" data-name="Trazado 113953" d="M404.817,140.27c.324-.526-2.3-2.447-3.591-4-2.337,1.265-5-.753-6.029-1.673a5.542,5.542,0,0,0,.357,1.37C397.053,138.847,404.444,140.881,404.817,140.27Z" transform="translate(-365.365 -8.712)" fill="#3d4166"/>
          <path id="Trazado_113954" data-name="Trazado 113954" d="M393,134.506a6.2,6.2,0,0,0,.059-2.275c-1.238,3.392-4.469,4.677-5.2,4.556-.517-.087-.209-.92.056-1.473-1.061,1.834-3.881,5.022-2.143,5.2C387.673,140.7,391.976,136.348,393,134.506Z" transform="translate(-370.873 -10.02)" fill="#3d4166"/>
        </g>
        <g id="Grupo_78719" data-name="Grupo 78719" transform="translate(87.004 7.676)">
          <path id="Trazado_113847" data-name="Trazado 113847" d="M312.688,120.155c.313-.267.138-.8.331-1,1.123-1.138,2.788-2.08,3.855-3.283,1.718-1.933,3.631-3.979,5.521-5.73a20.669,20.669,0,0,0,3.582-4.361c.482-.762,1.189-2.858,2-3.149.371.446-.931,3.133.694,1.572,1.236-1.185,3.486-3.337,4-3.09s-1.722,1.984-1.508,2.438,2.944-1.93,3.213-1.561-2.431,2.2-2.2,2.584c.388.652,1.96-1.216,2.326-.827s-1.411,1.378-1.854,2.181c.741.412,2.129-1.219,2.116-.31s-3.112,1.691-4.091,2.341c-1.793,1.187-3.744,2.364-4.815,4.228-1.75,3.057-5.229,5.431-7.6,8.031-1.736,1.9-5.789,3.133-7.626,4.821-.953-.393,0-.939-.162-2.032C310.35,122.175,311.685,121.028,312.688,120.155Z" transform="translate(-256.066 -35.534)" fill="#ecb49f"/>
          <path id="Trazado_113848" data-name="Trazado 113848" d="M333.155,109.127l-2.652-3.812-14.061,10.39s-19.423.371-16.7,8.349c2.165,6.35,20.424-1.115,20.424-1.115Z" transform="translate(-262.403 -33.04)" fill="#3d4166"/>
          <path id="Trazado_113856" data-name="Trazado 113856" d="M280.077,138.135c-.279-.609,2.579-4.487,3.039-5.322.681-1.233,1.973-2.339,2.461-3.653.719.749.627,1.228,1.376,1.968,1.009,1,1.012,1.112.407,2.393a3.529,3.529,0,0,0-.255,1.59c-.048.924.878,2.6.216,3.4s-1.243-1.9-1.451-1.212c-.519,1.723-1.454,4.641-1.892,4.705-.6.089.586-3.475-.065-3.857-.514.617-1.319,3.894-2.07,3.922s.726-3.82.878-4.729c-.175.481-1.882,3.418-2.4,3.341s1.367-3.754,1.609-4.315c-.113.189-.387.406-.522.625C281.522,136.806,280.356,138.746,280.077,138.135Z" transform="translate(-273.884 -18.945)" fill="#ecb49f"/>
          <g id="Grupo_78682" data-name="Grupo 78682" transform="translate(0 62.247)">
            <path id="Trazado_113857" data-name="Trazado 113857" d="M277.039,168.112l-.861,4.536,9.351,2.057s.165-2.145-3.225-3.626.113-6.529.113-6.529Z" transform="translate(-276.178 -60.269)" fill="#5c61c3"/>
            <path id="Trazado_113858" data-name="Trazado 113858" d="M304.458,99.479s3.236-.6,4.828,4.575c1.72,2.434,2.648,1.836,2.872,2.543s-1.009,1.388-.839,1.949,1.247,3.235-.024,3.924a40.739,40.739,0,0,1-4.086,1.7s-.727,3.246.132,4.463c.407.578-.936,5.548.509,7.58,1.6,2.251-8.847-7.556-8.847-7.556s4.088-1.448,1.435-3.909S290.879,100.348,304.458,99.479Z" transform="translate(-264.273 -98.749)" fill="#ecb49f"/>
            <path id="Trazado_113859" data-name="Trazado 113859" d="M304.694,110.405c1.26-.482,4.333,5.655,5.224,3.711,7.771,13.256-2.9,19.662-3.515,22.781a19.427,19.427,0,0,0,1.372,10.936s-4.423-.977-6.9-.229-11.307-5.617-9.652-8.715a55.387,55.387,0,0,0,3.028-7.792c1.184-4.034,1.706-7.591,2.676-11.577S301.766,111.528,304.694,110.405Z" transform="translate(-267.408 -92.294)" fill="#bfd4f8"/>
            <g id="Grupo_78680" data-name="Grupo 78680" transform="translate(44.054 3.956)">
              <path id="Trazado_113860" data-name="Trazado 113860" d="M305.81,106.026c-.516.173-1.246-.684-1.669-1.948-.387-1.155-.363-2.209.051-2.5a.4.4,0,0,1,.116-.057c.509-.172,1.241.683,1.663,1.948.388,1.157.366,2.205-.048,2.5A.428.428,0,0,1,305.81,106.026Zm-1.493-2.006c.411,1.224,1.085,1.946,1.432,1.83s.463-1.071.046-2.323-1.072-1.949-1.429-1.83a.2.2,0,0,0-.068.035C304,101.94,303.93,102.853,304.317,104.019Z" transform="translate(-303.865 -101.499)" fill="#0b1238"/>
            </g>
            <g id="Grupo_78681" data-name="Grupo 78681" transform="translate(38.274 6.539)">
              <path id="Trazado_113861" data-name="Trazado 113861" d="M306.678,103.3l-.047-.181-6.4,1.548.047.183Z" transform="translate(-300.232 -103.122)" fill="#0b1238"/>
            </g>
            <path id="Trazado_113862" data-name="Trazado 113862" d="M299.122,131.677s-7.857,5.945-9.143,13.654-.972,9.545-4.934,18.424-8.327,23.791-8.327,23.791l3.723.983a136.079,136.079,0,0,0,15.471-23.855c5.777-11.662,15.385-29.968,15.385-29.968Z" transform="translate(-275.858 -79.703)" fill="#3d4166"/>
            <path id="Trazado_113863" data-name="Trazado 113863" d="M300.727,157.007l-1.747,6.645,4.673,3.706,6.769,1.324s-.614-1.8-3.464-3.112a4.342,4.342,0,0,1-2.847-3.625L304,159.6Z" transform="translate(-262.698 -64.729)" fill="#5c61c3"/>
            <path id="Trazado_113864" data-name="Trazado 113864" d="M302.989,132.838s21.339,10.96,22.486,16.079L309.053,175.54l-4.408-1.55s3.076-15.593,10.841-22.529l-24.4-8.169S287.623,133.054,302.989,132.838Z" transform="translate(-267.561 -79.016)" fill="#3d4166"/>
            <path id="Trazado_113865" data-name="Trazado 113865" d="M302.747,113.209l1.648,2.718.422-.037a2.638,2.638,0,0,0-1.66-3.217Z" transform="translate(-260.472 -90.937)" fill="#fa7071"/>
            <path id="Trazado_113866" data-name="Trazado 113866" d="M307.013,114.729s3.426,3.86.735,9.682-5.294,7.739-4,10.225l-1.6,1.7-3.109-3.065s-.31-2.621,3.1-5.025,6.056-10.962,4.309-13.611Z" transform="translate(-262.667 -89.776)" fill="#fa7071"/>
            <path id="Trazado_113867" data-name="Trazado 113867" d="M300.156,109.976c-.549-.791,2.683,2.224,5.7,2.215l.107,3.588-7.162-3.55Z" transform="translate(-262.805 -92.61)" fill="#bfd4f8"/>
            <path id="Trazado_113868" data-name="Trazado 113868" d="M308.843,101.85a2.372,2.372,0,0,1-1.9,1.717c-1.642.455-3.287.974-3.459,2.929-.03.383.228,2.99.516,3.015-1.079-.091-2.253-.862-1.989.773a1.9,1.9,0,0,0,.531,1.123c.789.729-2.8,3.3-3.712,1.9-1.683-2.579-3.817-6.759-2.3-9.649a9.426,9.426,0,0,1,6.148-4.49c1.7-.39,6.01-.212,6.182,2.315A1.608,1.608,0,0,1,308.843,101.85Z" transform="translate(-264.456 -99.013)" fill="#0b1238"/>
            <path id="Trazado_113869" data-name="Trazado 113869" d="M311.221,114.8s2.775,8-3.1,13.729,1.823,19.412-.285,21.1-19.555,1.97-20.119.14,3.321-10.981,4.853-18.6,7.453-20.87,13.04-20.625C309.386,110.711,311.092,114.348,311.221,114.8Z" transform="translate(-269.391 -92.197)" fill="#2e3054"/>
            <path id="Trazado_113870" data-name="Trazado 113870" d="M282.4,140.584l3.956,2.8L296.471,128.2s18.922-7.254,13.425-14.117c-4.379-5.459-19.649,8.341-19.649,8.341Z" transform="translate(-272.498 -90.858)" fill="#3d4166"/>
          </g>
          <path id="Trazado_113889" data-name="Trazado 113889" d="M336.393,133.592c-.14,2.3-3.906,3.263-5.076,5.052,1.214.481,5.459.267,6.64-.522,1.628-1.093.414-3.838,2.3-5.415Z" transform="translate(-243.582 -16.847)" fill="#5c75c3"/>
          <path id="Trazado_113890" data-name="Trazado 113890" d="M351.54,133.781c.124,1.784-.511,3.532-.4,5.375a41.294,41.294,0,0,0,8.024.761c-.668-1.682-2.148-2-3.685-3.006-2.481-1.617-1.3-2.742-2.188-5.06Z" transform="translate(-231.873 -17.353)" fill="#5c75c3"/>
          <path id="Trazado_113891" data-name="Trazado 113891" d="M343.355,93.472l-9.732,63.992,5.693.053,12.409-49.794,9.082,50.814,4.449-.309s.342-29.061.17-38.088.341-21.568-3.59-26.922C361.837,93.217,348.814,96.48,343.355,93.472Z" transform="translate(-242.219 -40.192)" fill="#3d4166"/>
          <path id="Trazado_113892" data-name="Trazado 113892" d="M350.3,74.743c-.349-.043-.767-.078-1.262-.15a5.7,5.7,0,0,1-4.331-2.668c-.313-.441-1.771-3.954-2.189-3.97-1.574-.068-4.17-.294-5.154,1.047-1.022,1.384-.331,4.59-.716,6.236-.212.9-.985,1.605-1.236,2.423-.982,3.224,3.049,7.8,4.441,10.511.91,1.765,1.874,5.057,4.119,5.781,4.926,1.585,6.6-9.219,7.02-11.66a31.515,31.515,0,0,0,.9-5.135C351.9,75.12,351.511,74.89,350.3,74.743Z" transform="translate(-241.253 -55.16)" fill="#ad704d"/>
          <path id="Trazado_113893" data-name="Trazado 113893" d="M336.13,75.5c.035-.2.081-.334.113-.479.321-1.621-.332-4.8.56-6.156.637-.964,2.059-1.082,3.324-1.041.606.662,1.324,1.521,1.793,2.054a7.634,7.634,0,0,1-.339.944C340.614,73.087,338.42,75.667,336.13,75.5Z" transform="translate(-240.737 -55.205)" fill="#ecb49f" style="mix-blend-mode: multiply;isolation: isolate"/>
          <path id="Trazado_113894" data-name="Trazado 113894" d="M343.8,74.611a6.923,6.923,0,0,0,.668-1.085c1.251-2.576-1.144-7.617-2.826-9.735a5.436,5.436,0,0,0-6.568-1.978c-5.7,2.105-2.609,13,1.749,15.743C339.072,78.971,342.21,76.758,343.8,74.611Z" transform="translate(-243.198 -58.996)" fill="#ad704d"/>
          <path id="Trazado_113895" data-name="Trazado 113895" d="M338.118,69.69a3.878,3.878,0,0,1-4.139,1S336.76,74.672,338.118,69.69Z" transform="translate(-242.009 -54.1)" fill="#fff"/>
          <path id="Trazado_113896" data-name="Trazado 113896" d="M345.926,72.723c.165-3.257.84-5.5.1-8.295-.815-3.092-4.567-4.966-7.583-4.45a10.942,10.942,0,0,0-6.662,4.627,4.779,4.779,0,0,0-.807,3.946c.587,2.016,1.259,2.218,2.418,2.164a7.786,7.786,0,0,0,1.825-.737c.065,3.316,3.758-.035,4.858-.321,2.363-.613,3.44,1.876,5.055,2.979Z" transform="translate(-243.873 -59.893)" fill="#2e3054"/>
          <path id="Trazado_113897" data-name="Trazado 113897" d="M359.748,93.707c1.442,1.745,7.112,6.887,6.937,7.194s-3.3-1.946-3.882-2.361c.353.576,2.783,3.292,2.458,3.548s-4.406-3.626-5.563-4.3c-.089.374,1.357,2.582.915,2.613-1.423.1-5.5-6.852-2.535-7.415C358.079,92.989,358.308,91.958,359.748,93.707Z" transform="translate(-228.386 -40.505)" fill="#ad704d"/>
          <path id="Trazado_113898" data-name="Trazado 113898" d="M328.512,96.854c-1.049,2.258-5.65,9.3-5.376,9.576s2.966-2.987,3.469-3.59c-.213.713-2.045,4.274-1.628,4.455s3.68-5.077,4.723-6.11c.2.369-.726,3.119-.248,3.031,1.542-.29,3.946-8.815.638-8.588C330.089,95.629,329.556,94.593,328.512,96.854Z" transform="translate(-248.426 -38.906)" fill="#ad704d"/>
          <path id="Trazado_113899" data-name="Trazado 113899" d="M346.262,110.919c-.738-3.824-4.089-16.1-4.549-19.423l-4.575,8.354c-1.373,2.495-6.468,12.787-7.16,13.326L326,111.186c.516-.6,4.256-11.814,4.575-12.53,1.591-3.58,2.985-8.237,4.575-12.928,1.54-4.533.321-9.216,6.544-11.76l2.341.754,3.712,1.193,4.851-4.048s5.862-1.279,9.81,2.476,6.024,8.527,9.536,14.045c2.637,4.14,5.111,15.28,6.751,17.291l-4.042,2.307c-.667-1.017-2.035-7.66-13.549-24.5,0,0,7.531,22.019,7.768,24.011a32.1,32.1,0,0,0-10.95,1.022C351.183,110.138,346.262,110.919,346.262,110.919Z" transform="translate(-246.725 -52.938)" fill="#bfd4f8"/>
          <path id="Trazado_113955" data-name="Trazado 113955" d="M340.258,74.432l-1.591,3.447,2.387.8,1.325,25.459,4.773,4.773,1.857-5.038-6.365-25.194,1.591-2.121-3.647-2.387Z" transform="translate(-239.237 -51.453)" fill="#5b8cee"/>
          <path id="Trazado_113956" data-name="Trazado 113956" d="M341.983,74.432l-1.591,3.447-4.641-3.712,4.376,2.785Z" transform="translate(-240.962 -51.453)" fill="#848fb2"/>
          <path id="Trazado_113957" data-name="Trazado 113957" d="M340.333,75.582l3.122,2.133,1.918-5.381-2.087,4.431Z" transform="translate(-238.252 -52.537)" fill="#848fb2"/>
          <path id="Trazado_113958" data-name="Trazado 113958" d="M336.714,72.349l-1.381,1.7,5.7,1.193Z" transform="translate(-241.208 -52.528)" fill="#bfd4f8"/>
          <path id="Trazado_113959" data-name="Trazado 113959" d="M340.467,75.219l2.32-4.177,3.779.994-6.233,3.712Z" transform="translate(-238.252 -53.301)" fill="#bfd4f8"/>
        </g>
        <path id="Trazado_113960" data-name="Trazado 113960" d="M240.877,240.769l14.7,33.734s-26.5,7.5-43.248,1.154c0,0,3.655-14.127,3.655-19.894a35.089,35.089,0,0,1,8.743-22.346L240.3,236.3Z" transform="translate(-198.521 -3.072)" fill="#0b1238"/>
        <g id="Grupo_78718" data-name="Grupo 78718" transform="translate(149.46 227.083)">
          <g id="Grupo_78696" data-name="Grupo 78696" transform="translate(2.631 2.211)">
            <ellipse id="Elipse_4724" data-name="Elipse 4724" cx="29.574" cy="29.574" rx="29.574" ry="29.574" transform="translate(0 0)" fill="#f1a09d"/>
            <path id="Trazado_113961" data-name="Trazado 113961" d="M430.223,178.672a22.688,22.688,0,1,0,22.692-22.692A22.691,22.691,0,0,0,430.223,178.672Z" transform="translate(-423.342 -149.096)" fill="#fff"/>
            <ellipse id="Elipse_4725" data-name="Elipse 4725" cx="16.118" cy="16.118" rx="16.118" ry="16.118" transform="translate(13.456 13.457)" fill="#f1a09d"/>
            <path id="Trazado_113962" data-name="Trazado 113962" d="M433.728,168.721a9.233,9.233,0,1,0,9.235-9.235A9.236,9.236,0,0,0,433.728,168.721Z" transform="translate(-413.39 -139.145)" fill="#fff"/>
            <path id="Trazado_113963" data-name="Trazado 113963" d="M435.2,164.554a3.6,3.6,0,1,0,3.6-3.6A3.6,3.6,0,0,0,435.2,164.554Z" transform="translate(-409.218 -134.979)" fill="#f1a09d"/>
          </g>
          <g id="Grupo_78697" data-name="Grupo 78697" transform="translate(0 0)">
            <path id="Trazado_113964" data-name="Trazado 113964" d="M435.684,164.835l7.466,3.092-3.1-7.463Z" transform="translate(-409.221 -134.156)" fill="#2a2b7c"/>
            <rect id="Rectángulo_33914" data-name="Rectángulo 33914" width="37.741" height="1.069" transform="matrix(-0.707, -0.707, 0.707, -0.707, 30.461, 31.207)" fill="#2a2b7c"/>
            <path id="Trazado_113965" data-name="Trazado 113965" d="M445.928,154.827l-3.92.3,5.735,5.727,3.921-.3Z" transform="translate(-442.008 -150.157)" fill="#7ab6f6"/>
            <path id="Trazado_113966" data-name="Trazado 113966" d="M441.734,157.527l.3-3.917,5.727,5.727-.3,3.921Z" transform="translate(-437.057 -153.61)" fill="#7ab6f6"/>
          </g>
        </g>
        <g id="Grupo_78702" data-name="Grupo 78702" transform="translate(60.971 84.066)">
          <g id="Grupo_78698" data-name="Grupo 78698" transform="translate(0)">
            <path id="Trazado_113967" data-name="Trazado 113967" d="M307.2,114.875a17.718,17.718,0,1,1-21.872-12.23A17.717,17.717,0,0,1,307.2,114.875Z" transform="translate(-272.431 -101.972)" fill="#b7cae4"/>
          </g>
          <g id="Grupo_78701" data-name="Grupo 78701" transform="translate(4.122 8.045)">
            <path id="Trazado_113968" data-name="Trazado 113968" d="M286.61,114.911l-1.546.44-.492-1.734a3.494,3.494,0,0,0,1.3-3.167.865.865,0,0,0,.147-.03.833.833,0,0,0,.622-1l-.324-1.148a.835.835,0,0,0-1.054-.528.729.729,0,0,0-.111.039l-.13-.445a3.8,3.8,0,0,0-7.282,2.058l.127.451a.5.5,0,0,0-.125.025.837.837,0,0,0-.625,1l.329,1.148a.832.832,0,0,0,1.051.528.734.734,0,0,0,.149-.058,3.5,3.5,0,0,0,2.757,2.019l.492,1.737-1.546.437a3.5,3.5,0,0,0-2.6,4.2l1.358,4.81,13.276-3.756-1.358-4.81A3.512,3.512,0,0,0,286.61,114.911Z" transform="translate(-268.317 -104.88)" fill="#fff"/>
            <g id="Grupo_78700" data-name="Grupo 78700" transform="translate(0 5.524)">
              <g id="Grupo_78699" data-name="Grupo 78699" transform="translate(2.939 1.894)">
                <rect id="Rectángulo_33915" data-name="Rectángulo 33915" width="0.935" height="14.784" transform="translate(0 0.254) rotate(-15.764)" fill="#fff"/>
              </g>
              <path id="Trazado_113969" data-name="Trazado 113969" d="M273.921,112.112l2.561-5.234L281.4,110Z" transform="translate(-273.921 -106.877)" fill="#fff"/>
            </g>
          </g>
        </g>
        <g id="Grupo_78706" data-name="Grupo 78706" transform="translate(274.107 75.27)">
          <path id="Trazado_113970" data-name="Trazado 113970" d="M421.226,87.419l-8.051-5.736L409.75,92.9l17.937,5.478,3.426-11.215Z" transform="translate(-404.248 -72.804)" fill="#b0bcd8"/>
          <path id="Trazado_113971" data-name="Trazado 113971" d="M424.409,90.147,406.938,77.7l21.443-.56,17.471,12.444Z" transform="translate(-406.938 -77.144)" fill="#b0bcd8"/>
          <path id="Trazado_113972" data-name="Trazado 113972" d="M419.728,81.34c-.139.458-1.088.571-2.121.256S415.856,80.657,416,80.2s1.088-.573,2.117-.258S419.869,80.884,419.728,81.34Z" transform="translate(-398.292 -74.637)" fill="#fff"/>
          <g id="Grupo_78705" data-name="Grupo 78705" transform="translate(19.842 5.701)">
            <g id="Grupo_78703" data-name="Grupo 78703" transform="translate(12.241 16.633)">
              <path id="Trazado_113973" data-name="Trazado 113973" d="M427.192,95.219,428,89.153l-.863-.265-.216-.065-.864-.264-2.72,5.481Z" transform="translate(-423.337 -88.56)" fill="#8ca7f6"/>
            </g>
            <path id="Trazado_113974" data-name="Trazado 113974" d="M427.376,89.467a1.411,1.411,0,1,1-.922-1.806A1.435,1.435,0,0,1,427.376,89.467Z" transform="translate(-409.877 -72.844)" fill="#8ca7f6"/>
            <g id="Grupo_78704" data-name="Grupo 78704">
              <path id="Trazado_113975" data-name="Trazado 113975" d="M431.7,100.159l3.49-12.773L417.08,80.754l.254-.7L435.757,86.8a.361.361,0,0,1,.217.442l-3.58,13.1Z" transform="translate(-417.08 -80.058)" fill="#8ca7f6"/>
            </g>
          </g>
        </g>
        <g id="Grupo_78711" data-name="Grupo 78711" transform="translate(120.292 0)">
          <g id="Grupo_78709" data-name="Grupo 78709" transform="translate(0)">
            <path id="Trazado_113976" data-name="Trazado 113976" d="M385.715,62.784,391.335,80a14.2,14.2,0,0,1-9.091,17.909h0a14.2,14.2,0,0,1-17.912-9.091L358.71,71.6Z" transform="translate(-349.268 -60.032)" fill="#ffd9dc"/>
            <rect id="Rectángulo_33916" data-name="Rectángulo 33916" width="4.131" height="17.013" transform="translate(29.219 33.027) rotate(-18.069)" fill="#ffd9dc"/>
            <path id="Trazado_113977" data-name="Trazado 113977" d="M365.913,90.127c-.992-3.035,2.948-7.042,8.8-8.953s11.4-1,12.392,2.034Z" transform="translate(-338.662 -33.869)" fill="#ffd9dc"/>
            <g id="Grupo_78707" data-name="Grupo 78707" transform="translate(33.174)">
              <path id="Trazado_113978" data-name="Trazado 113978" d="M382.429,85.873,370.34,89.82,368.186,65.5l11.7-3.819,4.06,12.44Zm-10.04.846,7.934-2.59,1.265-9.782L378.407,64.6l-7.756,2.529Z" transform="translate(-368.186 -61.685)" fill="#ffd9dc"/>
            </g>
            <g id="Grupo_78708" data-name="Grupo 78708" transform="translate(0 10.834)">
              <path id="Trazado_113979" data-name="Trazado 113979" d="M359,82.27,354.94,69.83l11.7-3.819,12.607,20.9-12.084,3.947Zm6.607-13.491-7.754,2.532,3.181,9.745,6.8,7.15,7.934-2.59Z" transform="translate(-354.94 -66.011)" fill="#ffd9dc"/>
            </g>
          </g>
          <g id="Grupo_78710" data-name="Grupo 78710" transform="translate(21.177 14.178)">
            <path id="Trazado_113980" data-name="Trazado 113980" d="M367.526,70.725l-.063.023L364.6,73.76l-1.2-1.893L367,68.1l2.314-.756,5.3,16.246-2.617.857Z" transform="translate(-363.396 -67.346)" fill="#ff6d69"/>
          </g>
        </g>
        <ellipse id="Elipse_4726" data-name="Elipse 4726" cx="5.215" cy="5.215" rx="5.215" ry="5.215" transform="translate(221.443 93.831)" fill="#cbcfff" opacity="0.6"/>
        <g id="Grupo_78722" data-name="Grupo 78722" transform="translate(281.105 107.47)">
          <g id="Grupo_78714" data-name="Grupo 78714">
            <path id="Trazado_113982" data-name="Trazado 113982" d="M456.288,141.317A17.618,17.618,0,1,1,438.67,123.7,17.621,17.621,0,0,1,456.288,141.317Z" transform="translate(-421.051 -123.7)" fill="#bfd4f8"/>
            <g id="Grupo_78713" data-name="Grupo 78713" transform="translate(2.713 6.792)">
              <g id="Grupo_78712" data-name="Grupo 78712">
                <rect id="Rectángulo_33917" data-name="Rectángulo 33917" width="18.835" height="12.524" transform="matrix(0.707, -0.707, 0.707, 0.707, 5.335, 14.376)" fill="#ecb49f"/>
                <path id="Trazado_113983" data-name="Trazado 113983" d="M433.046,139.471a1.246,1.246,0,0,1,0,1.76h0a1.247,1.247,0,0,1-1.758,0l-3.447-3.449a1.244,1.244,0,0,1,0-1.758h0a1.244,1.244,0,0,1,1.758,0Z" transform="translate(-416.869 -117.66)" fill="#c4846e"/>
                <path id="Trazado_113984" data-name="Trazado 113984" d="M434.191,138.331a1.247,1.247,0,0,1,0,1.758h0a1.249,1.249,0,0,1-1.762,0l-3.445-3.447a1.24,1.24,0,0,1,0-1.758h0a1.24,1.24,0,0,1,1.758,0Z" transform="translate(-415.645 -118.885)" fill="#c4846e"/>
                <path id="Trazado_113985" data-name="Trazado 113985" d="M435.329,137.191a1.24,1.24,0,0,1,0,1.758h0a1.241,1.241,0,0,1-1.756,0l-3.449-3.449a1.244,1.244,0,0,1,0-1.758h0a1.244,1.244,0,0,1,1.758,0Z" transform="translate(-414.42 -120.109)" fill="#c4846e"/>
                <path id="Trazado_113986" data-name="Trazado 113986" d="M436.471,136.048a1.247,1.247,0,0,1,0,1.758h0a1.246,1.246,0,0,1-1.76,0l-3.445-3.447a1.244,1.244,0,0,1,0-1.758h0a1.241,1.241,0,0,1,1.756,0Z" transform="translate(-413.195 -121.333)" fill="#c4846e"/>
                <rect id="Rectángulo_33918" data-name="Rectángulo 33918" width="12.524" height="13.671" transform="translate(2.083 11.232) rotate(-44.993)" fill="#c4846e"/>
                <path id="Trazado_113987" data-name="Trazado 113987" d="M427.045,140.659l-4.227-4.227a1.565,1.565,0,0,1,0-2.214l6.642-6.641a1.565,1.565,0,0,1,2.214,0L435.9,131.8Z" transform="translate(-422.36 -126.824)" fill="#5c61c3"/>
                <path id="Trazado_113988" data-name="Trazado 113988" d="M426.512,136.8a1.242,1.242,0,0,1-1.76,0h0a1.241,1.241,0,0,1,0-1.756l1.115-1.115a1.242,1.242,0,0,1,1.76,0h0a1.244,1.244,0,0,1,0,1.758Z" transform="translate(-420.183 -119.906)" fill="#ecb49f"/>
                <path id="Trazado_113989" data-name="Trazado 113989" d="M427.636,137.928a1.24,1.24,0,0,1-1.758,0h0a1.243,1.243,0,0,1,0-1.758l1.113-1.113a1.242,1.242,0,0,1,1.76,0h0a1.241,1.241,0,0,1,0,1.756Z" transform="translate(-418.975 -118.699)" fill="#ecb49f"/>
                <path id="Trazado_113990" data-name="Trazado 113990" d="M428.761,139.055a1.246,1.246,0,0,1-1.76,0h0a1.247,1.247,0,0,1,0-1.758l1.117-1.117a1.245,1.245,0,0,1,1.756,0h0a1.24,1.24,0,0,1,0,1.758Z" transform="translate(-417.768 -117.491)" fill="#ecb49f"/>
                <path id="Trazado_113991" data-name="Trazado 113991" d="M429.886,140.179a1.244,1.244,0,0,1-1.758,0h0a1.243,1.243,0,0,1,0-1.758l1.115-1.115a1.244,1.244,0,0,1,1.758,0h0a1.244,1.244,0,0,1,0,1.758Z" transform="translate(-416.561 -116.284)" fill="#ecb49f"/>
                <path id="Trazado_113992" data-name="Trazado 113992" d="M430.1,130.638l3.356-3.356a1.435,1.435,0,0,1,1.986.228l6.644,6.644a1.43,1.43,0,0,1,.226,1.984l-3.356,3.356Z" transform="translate(-414.053 -126.976)" fill="#7ab6f6"/>
                <path id="Trazado_113993" data-name="Trazado 113993" d="M430.979,129.8l-2.556,2.558-.019.021a1.9,1.9,0,0,0-.576,1.708l.605,3.565a1.91,1.91,0,0,0,3.766-.638l-.29-1.7a1.393,1.393,0,0,1,.334-1.437c.081-.081,1.434-1.376,1.434-1.376a1.908,1.908,0,0,0-2.7-2.7Z" transform="translate(-416.522 -124.549)" fill="#ecb49f"/>
                <path id="Trazado_113994" data-name="Trazado 113994" d="M428.34,132.95l.07.835a1.153,1.153,0,0,0,1.25,1.049l.311-.027a1.151,1.151,0,0,0,1.051-1.248l-.07-.835Z" transform="translate(-415.944 -120.81)" fill="#fff"/>
              </g>
              <ellipse id="Elipse_4727" data-name="Elipse 4727" cx="1.099" cy="1.099" rx="1.099" ry="1.099" transform="translate(2.345 7.647)" fill="#5c61c3"/>
            </g>
          </g>
        </g>
        <g id="Grupo_78675" data-name="Grupo 78675" transform="translate(256.628 150.141)">
          <g id="Grupo_78671" data-name="Grupo 78671">
            <path id="Trazado_113835" data-name="Trazado 113835" d="M427.247,227.572l-29.383-12.583L413.1,179.421l22.038,9.44,4.236,10.4Z" transform="translate(-397.864 -179.421)" fill="#fff"/>
            <path id="Trazado_113836" data-name="Trazado 113836" d="M413.34,190.952l7.343,3.144-4.236-10.4Z" transform="translate(-379.175 -174.258)" fill="#7ab6f6"/>
          </g>
          <g id="Grupo_78672" data-name="Grupo 78672" transform="translate(23.101 14.973)">
            <rect id="Rectángulo_33906" data-name="Rectángulo 33906" width="1.184" height="12.856" transform="translate(1.163 1.088) rotate(-66.814)" fill="#7ab6f6"/>
            <path id="Trazado_113837" data-name="Trazado 113837" d="M420.145,193.586l-11.817-5.062.464-1.088,11.817,5.062Z" transform="translate(-408.328 -184.715)" fill="#7ab6f6"/>
          </g>
          <rect id="Rectángulo_33907" data-name="Rectángulo 33907" width="6" height="5.799" transform="translate(13.477 15.414) rotate(-66.827)" fill="#fa7071"/>
          <path id="Trazado_113838" data-name="Trazado 113838" d="M410.559,185.426,406.87,186.9l-.882-2.2-1.177.471.882,2.2-.009,0,.472,1.177,4.874-1.95Z" transform="translate(-389.474 -173.045)" fill="#fff"/>
          <g id="Grupo_78673" data-name="Grupo 78673" transform="translate(19.287 23.87)">
            <rect id="Rectángulo_33908" data-name="Rectángulo 33908" width="1.185" height="12.856" transform="translate(1.168 1.089) rotate(-66.811)" fill="#7ab6f6"/>
            <path id="Trazado_113839" data-name="Trazado 113839" d="M418.419,197.617,406.6,192.556l.47-1.09,11.817,5.062Z" transform="translate(-406.601 -188.745)" fill="#7ab6f6"/>
          </g>
          <rect id="Rectángulo_33909" data-name="Rectángulo 33909" width="6" height="5.8" transform="translate(9.665 24.312) rotate(-66.828)" fill="#fa7071"/>
          <path id="Trazado_113840" data-name="Trazado 113840" d="M408.833,189.456l-3.689,1.476-.88-2.2-1.179.471.88,2.2-.006,0,.47,1.178,4.875-1.95Z" transform="translate(-391.559 -168.177)" fill="#fff"/>
          <g id="Grupo_78674" data-name="Grupo 78674" transform="translate(15.478 32.769)">
            <path id="Trazado_113841" data-name="Trazado 113841" d="M417.222,200.415,405.4,195.352l.464-1.088,11.819,5.061Z" transform="translate(-404.238 -194.265)" fill="#7ab6f6"/>
            <rect id="Rectángulo_33910" data-name="Rectángulo 33910" width="1.183" height="12.856" transform="matrix(0.394, -0.919, 0.919, 0.394, 0, 3.808)" fill="#7ab6f6"/>
          </g>
          <rect id="Rectángulo_33911" data-name="Rectángulo 33911" width="5.998" height="5.798" transform="translate(5.854 33.208) rotate(-66.802)" fill="#bfd4f8"/>
          <path id="Trazado_113842" data-name="Trazado 113842" d="M413.34,190.952l7.343,3.144-4.236-10.4Z" transform="translate(-379.175 -174.258)" fill="#364e57"/>
        </g>
        <g id="Grupo_78670" data-name="Grupo 78670" transform="translate(52.784 125.09)">
          <rect id="Rectángulo_33902" data-name="Rectángulo 33902" width="31.848" height="41.671" transform="matrix(0.932, -0.362, 0.362, 0.932, 0, 11.52)" fill="#bfd4f8"/>
          <rect id="Rectángulo_33903" data-name="Rectángulo 33903" width="3.412" height="12.541" transform="translate(12.844 33.115) rotate(-21.166)" fill="#fa9a95"/>
          <rect id="Rectángulo_33904" data-name="Rectángulo 33904" width="3.416" height="20.755" transform="translate(15.564 23.254) rotate(-21.217)" fill="#fff"/>
          <path id="Trazado_113834" data-name="Trazado 113834" d="M276.377,172.181l-3.189,1.23-10.7-27.6,3.178-1.238Z" transform="translate(-244.423 -133.019)" fill="#fa7071"/>
          <rect id="Rectángulo_33905" data-name="Rectángulo 33905" width="3.414" height="22.368" transform="translate(26.364 17.341) rotate(-21.289)" fill="#2a2b7c"/>
        </g>
        <g id="Grupo_78678" data-name="Grupo 78678" transform="translate(23.915 148.111)">
          <g id="Grupo_78676" data-name="Grupo 78676" transform="translate(0 3.81)">
            <path id="Trazado_113843" data-name="Trazado 113843" d="M417.13,127.566a10.045,10.045,0,0,1-2.27-.26,10.225,10.225,0,1,1,4.544-19.939.769.769,0,0,1-.34,1.5,8.675,8.675,0,1,0,6.457,6.206.77.77,0,0,1,1.486-.4,10.244,10.244,0,0,1-9.877,12.894Z" transform="translate(-406.903 -107.109)" fill="#fa7071"/>
          </g>
          <g id="Grupo_78677" data-name="Grupo 78677" transform="translate(3.764 0)">
            <path id="Trazado_113844" data-name="Trazado 113844" d="M415.089,121.489a.756.756,0,0,1-.516-.2L409,116.245a.768.768,0,1,1,1.03-1.14l5,4.525L427.684,105.5a.768.768,0,1,1,1.146,1.023l-13.168,14.708a.784.784,0,0,1-.536.254Z" transform="translate(-408.742 -105.248)" fill="#fa7071"/>
          </g>
        </g>
      </g>
    </g>
  </g>
</svg>
