<svg xmlns="http://www.w3.org/2000/svg" width="573" height="261" viewBox="0 0 573 261">
  <g id="Grupo_78378" data-name="Grupo 78378" transform="translate(-810 -826)">
    <rect id="Rectángulo_33776" data-name="Rectángulo 33776" width="573" height="261" transform="translate(810 826)" fill="#ccd7dd"/>
    <g id="Grupo_78377" data-name="Grupo 78377" transform="translate(4738.693 -785.401)">
      <path id="Trazado_113155" data-name="Trazado 113155" d="M-3782.191,1731.956l-.716-1.867c.132-.051,13.451-5.124,37.543-11.428,14.14-3.7,29.178-7.1,44.7-10.1,19.4-3.748,39.6-6.882,60.058-9.315l.236,1.986c-20.4,2.426-40.545,5.551-59.884,9.287-15.472,2.989-30.463,6.374-44.559,10.061C-3768.815,1726.862-3782.06,1731.906-3782.191,1731.956Z" transform="translate(-10.596 -10.549)" fill="#a8a8a8"/>
      <path id="Trazado_113156" data-name="Trazado 113156" d="M-3637.929,1697.307c-23.769,0-46.112-1.684-46.365-1.7l.229-2.991c.252.019,22.491,1.695,46.128,1.695,3.2,0,6.415-.031,9.613-.1l.065,3C-3631.473,1697.276-3634.716,1697.307-3637.929,1697.307Z" transform="translate(-25.669 -9.609)" fill="#a8a8a8"/>
      <g id="Grupo_78367" data-name="Grupo 78367" transform="translate(-3703.76 1702.095)">
        <path id="Trazado_113157" data-name="Trazado 113157" d="M-3676.988,1734.51v19.719s1.541,14.895,55.441,14.689c53.453-.2,56.513-15.505,56.513-15.505v-19.586S-3676.926,1734.573-3676.988,1734.51Z" transform="translate(3676.988 -1717.791)" fill="#0b64a6"/>
        <ellipse id="Elipse_4703" data-name="Elipse 4703" cx="56.287" cy="16.72" rx="56.287" ry="16.72" transform="translate(0)" fill="#429bdf"/>
      </g>
      <ellipse id="Elipse_4704" data-name="Elipse 4704" cx="25.156" cy="7.103" rx="25.156" ry="7.103" transform="translate(-3650.494 1696.402)" fill="#0b5487"/>
      <path id="Trazado_113158" data-name="Trazado 113158" d="M-3468.273,1755.52a133.124,133.124,0,0,0-18.1-17.108,220.985,220.985,0,0,0-19.26-13.626,242.924,242.924,0,0,0-21.5-12.227l.872-1.8a245.251,245.251,0,0,1,21.7,12.338,223,223,0,0,1,19.435,13.75,135.108,135.108,0,0,1,18.374,17.371Z" transform="translate(-49.801 -12.299)" fill="#a8a8a8"/>
      <path id="Trazado_113159" data-name="Trazado 113159" d="M-3475.625,1761.138a167.091,167.091,0,0,0-24.952-8.272c-7.495-1.9-15.611-3.547-24.123-4.886-14.512-2.283-25.28-2.894-25.387-2.9l.165-3c.108.006,11,.623,25.652,2.926,8.609,1.353,16.822,3.016,24.41,4.942a170.126,170.126,0,0,1,25.425,8.431Z" transform="translate(-46.23 -17.191)" fill="#639fc3"/>
      <path id="Trazado_113160" data-name="Trazado 113160" d="M-3558.4,1671.347l-.966-.258a7.823,7.823,0,0,0-.92-6.361c-2.1-3.389-6.555-5.708-9.923-7.056a45.391,45.391,0,0,0-6.925-2.143l.2-.98a45.6,45.6,0,0,1,7.1,2.195,31.966,31.966,0,0,1,5.8,2.97,15.193,15.193,0,0,1,4.6,4.488A8.787,8.787,0,0,1-3558.4,1671.347Z" transform="translate(-42.089 -3.622)" fill="#a8a8a8"/>
      <g id="Grupo_78368" data-name="Grupo 78368" transform="translate(-3590.508 1739.809)">
        <path id="Trazado_113161" data-name="Trazado 113161" d="M-3543.241,1787.042v27.751s2.191,18.832,78.023,20.673c75.67,1.837,79.533-21.821,79.533-21.821v-27.564S-3543.154,1787.129-3543.241,1787.042Z" transform="translate(3543.241 -1763.512)" fill="#0860a7"/>
        <ellipse id="Elipse_4705" data-name="Elipse 4705" cx="79.214" cy="23.531" rx="79.214" ry="23.531" transform="translate(0)" fill="#3f9ed8"/>
      </g>
      <g id="Grupo_78369" data-name="Grupo 78369" transform="translate(-3540.787 1668.043)">
        <path id="Trazado_113162" data-name="Trazado 113162" d="M-3484.522,1683.167v8.536s.667,6.447,24,6.358c23.137-.088,24.462-6.711,24.462-6.711v-8.478S-3484.5,1683.195-3484.522,1683.167Z" transform="translate(3484.522 -1675.93)" fill="#a8a8a8"/>
        <ellipse id="Elipse_4706" data-name="Elipse 4706" cx="24.364" cy="7.237" rx="24.364" ry="7.237" fill="#d1d1d1"/>
      </g>
      <g id="Grupo_78370" data-name="Grupo 78370" transform="translate(-3762.118 1658.52)">
        <path id="Trazado_113163" data-name="Trazado 113163" d="M-3745.907,1671.356v7.966s.622,6.019,22.4,5.935c21.6-.082,22.834-6.264,22.834-6.264v-7.913S-3745.882,1671.381-3745.907,1671.356Z" transform="translate(3745.907 -1664.6)" fill="#90c27b"/>
        <ellipse id="Elipse_4707" data-name="Elipse 4707" cx="22.742" cy="6.755" rx="22.742" ry="6.755" fill="#b8eca2"/>
      </g>
      <g id="Grupo_78371" data-name="Grupo 78371" transform="translate(-3851.693 1712.186)">
        <path id="Trazado_113164" data-name="Trazado 113164" d="M-3851.693,1738.662v11.915s.931,9,33.5,8.876c32.3-.124,34.147-9.369,34.147-9.369V1738.25S-3851.656,1738.7-3851.693,1738.662Z" transform="translate(3851.693 -1728.56)" fill="#f29810"/>
        <ellipse id="Elipse_4708" data-name="Elipse 4708" cx="34.01" cy="10.103" rx="34.01" ry="10.103" fill="#f3de9d"/>
      </g>
      <g id="Grupo_78372" data-name="Grupo 78372" transform="translate(-3579.329 1646.287)">
        <path id="Trazado_113165" data-name="Trazado 113165" d="M-3530.039,1653.577v4.619s.362,3.49,12.987,3.441c12.521-.048,13.238-3.632,13.238-3.632v-4.589S-3530.024,1653.591-3530.039,1653.577Z" transform="translate(3530.039 -1649.661)" fill="#90c27b"/>
        <ellipse id="Elipse_4709" data-name="Elipse 4709" cx="13.185" cy="3.917" rx="13.185" ry="3.917" transform="translate(0)" fill="#b8eca2"/>
      </g>
      <g id="Grupo_78373" data-name="Grupo 78373" transform="translate(-3656.407 1663.424)">
        <path id="Trazado_113166" data-name="Trazado 113166" d="M-3621.066,1686.1v16.968s1.327,12.817,47.706,12.64c46-.176,48.631-13.342,48.631-13.342v-16.854S-3621.013,1686.157-3621.066,1686.1Z" transform="translate(3621.066 -1671.716)" fill="#b76205"/>
        <ellipse id="Elipse_4710" data-name="Elipse 4710" cx="48.435" cy="14.388" rx="48.435" ry="14.388" transform="translate(0)" fill="#ff9620"/>
      </g>
      <path id="Trazado_113167" data-name="Trazado 113167" d="M-3667,1710.864c-14.369-13.592-34.688-28.841-34.891-28.993l1.8-2.4c.2.153,20.659,15.5,35.155,29.215Z" transform="translate(-23.093 -7.55)" fill="#a8a8a8"/>
      <path id="Trazado_113168" data-name="Trazado 113168" d="M-3472.4,1674.284a20.126,20.126,0,0,0-7.107-8.409,35.928,35.928,0,0,0-9.731-4.674,54.51,54.51,0,0,0-12.324-2.4l.051-1a55.58,55.58,0,0,1,12.558,2.44,36.955,36.955,0,0,1,10.013,4.809,21.116,21.116,0,0,1,7.459,8.836Z" transform="translate(-53.657 -4.122)" fill="#a8a8a8"/>
      <path id="Trazado_113169" data-name="Trazado 113169" d="M-3507.763,1710.652a56.735,56.735,0,0,1-10.8-.918l1.43-6.852c.23.048,23.3,4.585,43.432-9.688l4.049,5.71C-3483.427,1708.669-3498.112,1710.652-3507.763,1710.652Z" transform="translate(-51.158 -9.907)" fill="#639fc3"/>
      <path id="Trazado_113170" data-name="Trazado 113170" d="M-3592.822,1834.272l-.117-7c.236,0,24.03-.558,58.911-12.441l2.257,6.626C-3567.786,1833.728-3591.816,1834.256-3592.822,1834.272Z" transform="translate(-39.66 -28.616)" fill="#639fc3"/>
      <path id="Línea_141" data-name="Línea 141" d="M2.933,18.878l-5.866-3.82L8.116-1.91l5.866,3.82Z" transform="translate(-3688.968 1745.728)" fill="#639fc3"/>
      <path id="Trazado_113171" data-name="Trazado 113171" d="M-3737.7,1774.453c-.424-.464-10.328-11.521-5.1-25.652,7.871-21.276,45.1-36.116,110.646-44.11l.847,6.948c-82.133,10.016-100.977,29.055-104.9,39.512-3.79,10.1,3.375,18.247,3.682,18.589Z" transform="translate(-16.993 -11.763)" fill="#639fc3"/>
      <path id="Trazado_113172" data-name="Trazado 113172" d="M-3757.863,1771.171c-.186-.314-4.487-7.819.412-18.059,7.092-14.824,33.912-35.183,121.409-47.993l1.014,6.926c-88.9,13.016-110.9,33.209-116.109,44.088-3.254,6.8-.724,11.437-.7,11.481Z" transform="translate(-14.619 -11.827)" fill="#639fc3"/>
      <path id="Línea_142" data-name="Línea 142" d="M25.561,22.954-2.061,2.829,2.061-2.829,29.683,17.3Z" transform="translate(-3810.112 1739.414)" fill="#639fc3"/>
      <g id="Grupo_78374" data-name="Grupo 78374" transform="translate(-3841.579 1752.592)">
        <path id="Trazado_113173" data-name="Trazado 113173" d="M-3839.749,1812.477v38.139s2.981,28.809,107.231,28.412c103.387-.395,109.306-29.991,109.306-29.991v-37.882S-3839.629,1812.6-3839.749,1812.477Z" transform="translate(3839.749 -1780.137)" fill="#a8a8a8"/>
        <ellipse id="Elipse_4711" data-name="Elipse 4711" cx="108.868" cy="32.339" rx="108.868" ry="32.339" transform="translate(0)" fill="#d1d1d1"/>
      </g>
      <g id="Grupo_78375" data-name="Grupo 78375" transform="translate(-3704.12 1703.212)">
        <path id="Trazado_113174" data-name="Trazado 113174" d="M-3676.776,1733.9l-.638-1.594.4-1.674c18.03-11.291,38.51-12.485,57.991-14.422l.335,3.371C-3637.8,1721.479-3659.419,1723.026-3676.776,1733.9Z" transform="translate(3677.414 -1716.207)" fill="#0b5487"/>
      </g>
      <g id="Grupo_78376" data-name="Grupo 78376" transform="translate(-3697.255 1631.401)">
        <path id="Trazado_113175" data-name="Trazado 113175" d="M-3669.306,1645.605v14.275s1.116,10.783,40.134,10.634c38.695-.147,40.91-11.225,40.91-11.225v-14.178S-3669.261,1645.65-3669.306,1645.605Z" transform="translate(3669.306 -1633.502)" fill="#1d9ebd"/>
        <ellipse id="Elipse_4712" data-name="Elipse 4712" cx="40.746" cy="12.104" rx="40.746" ry="12.104" fill="#68d0f3"/>
      </g>
    </g>
  </g>
</svg>
