<svg xmlns="http://www.w3.org/2000/svg" width="500" height="140" viewBox="0 0 500 140">
  <g id="Grupo_79940" data-name="Grupo 79940" transform="translate(-236 -6453)">
    <path id="Trazado_115780" data-name="Trazado 115780" d="M30,0H470a30,30,0,0,1,30,30v80a30,30,0,0,1-30,30H30A30,30,0,0,1,0,110V30A30,30,0,0,1,30,0Z" transform="translate(236 6453)" fill="#f6f6f6"/>
    <g id="Grupo_79278" data-name="Grupo 79278" transform="translate(5759.162 6172.401)">
      <path id="Trazado_116669" data-name="Trazado 116669" d="M15.039-8.135a9.5,9.5,0,0,1-1.812,6.221A6.26,6.26,0,0,1,8.121.273a6.294,6.294,0,0,1-5.141-2.2A9.49,9.49,0,0,1,1.162-8.135v-3.637a9.5,9.5,0,0,1,1.812-6.221,6.276,6.276,0,0,1,5.12-2.187,6.278,6.278,0,0,1,5.127,2.2,9.514,9.514,0,0,1,1.818,6.221Zm-4.607-4.225a7.1,7.1,0,0,0-.561-3.206,1.874,1.874,0,0,0-1.777-1.06,1.829,1.829,0,0,0-1.729.984,6.688,6.688,0,0,0-.581,2.98v5.086a7.153,7.153,0,0,0,.561,3.261A1.881,1.881,0,0,0,8.121-3.281a1.856,1.856,0,0,0,1.736-1,6.829,6.829,0,0,0,.574-3.151ZM27.645,0H23.023V-14.711l-4.539,1.326v-3.5l8.736-3.021h.424ZM43.859,0H39.238V-14.711L34.7-13.385v-3.5l8.736-3.021h.424ZM63.684-8.135a9.5,9.5,0,0,1-1.812,6.221A6.26,6.26,0,0,1,56.766.273a6.294,6.294,0,0,1-5.141-2.2,9.49,9.49,0,0,1-1.818-6.207v-3.637a9.5,9.5,0,0,1,1.812-6.221,6.276,6.276,0,0,1,5.12-2.187,6.278,6.278,0,0,1,5.127,2.2,9.514,9.514,0,0,1,1.818,6.221Zm-4.607-4.225a7.1,7.1,0,0,0-.561-3.206,1.874,1.874,0,0,0-1.777-1.06,1.829,1.829,0,0,0-1.729.984,6.688,6.688,0,0,0-.581,2.98v5.086a7.153,7.153,0,0,0,.561,3.261,1.881,1.881,0,0,0,1.777,1.032,1.856,1.856,0,0,0,1.736-1,6.829,6.829,0,0,0,.574-3.151ZM76.289,0H71.668V-14.711l-4.539,1.326v-3.5l8.736-3.021h.424ZM96.113-8.135A9.505,9.505,0,0,1,94.3-1.914,6.26,6.26,0,0,1,89.2.273a6.294,6.294,0,0,1-5.141-2.2,9.49,9.49,0,0,1-1.818-6.207v-3.637a9.505,9.505,0,0,1,1.812-6.221,6.276,6.276,0,0,1,5.12-2.187,6.278,6.278,0,0,1,5.127,2.2,9.514,9.514,0,0,1,1.818,6.221Zm-4.607-4.225a7.1,7.1,0,0,0-.561-3.206,1.874,1.874,0,0,0-1.777-1.06,1.829,1.829,0,0,0-1.729.984,6.688,6.688,0,0,0-.581,2.98v5.086a7.153,7.153,0,0,0,.561,3.261A1.881,1.881,0,0,0,89.2-3.281a1.856,1.856,0,0,0,1.736-1,6.829,6.829,0,0,0,.574-3.151Zm20.822,4.225a9.505,9.505,0,0,1-1.812,6.221A6.26,6.26,0,0,1,105.41.273a6.294,6.294,0,0,1-5.141-2.2,9.49,9.49,0,0,1-1.818-6.207v-3.637a9.505,9.505,0,0,1,1.812-6.221,6.276,6.276,0,0,1,5.12-2.187,6.278,6.278,0,0,1,5.127,2.2,9.514,9.514,0,0,1,1.818,6.221Zm-4.607-4.225a7.1,7.1,0,0,0-.561-3.206,1.874,1.874,0,0,0-1.777-1.06,1.829,1.829,0,0,0-1.729.984,6.688,6.688,0,0,0-.581,2.98v5.086a7.153,7.153,0,0,0,.561,3.261,1.881,1.881,0,0,0,1.777,1.032,1.856,1.856,0,0,0,1.736-1,6.829,6.829,0,0,0,.574-3.151Zm20.822,4.225a9.505,9.505,0,0,1-1.812,6.221A6.26,6.26,0,0,1,121.625.273a6.294,6.294,0,0,1-5.141-2.2,9.49,9.49,0,0,1-1.818-6.207v-3.637a9.505,9.505,0,0,1,1.812-6.221,6.276,6.276,0,0,1,5.12-2.187,6.278,6.278,0,0,1,5.127,2.2,9.514,9.514,0,0,1,1.818,6.221Zm-4.607-4.225a7.1,7.1,0,0,0-.561-3.206,1.874,1.874,0,0,0-1.777-1.06,1.829,1.829,0,0,0-1.729.984,6.688,6.688,0,0,0-.581,2.98v5.086a7.153,7.153,0,0,0,.561,3.261,1.881,1.881,0,0,0,1.777,1.032,1.856,1.856,0,0,0,1.736-1,6.829,6.829,0,0,0,.574-3.151ZM141.148,0h-4.621V-14.711l-4.539,1.326v-3.5l8.736-3.021h.424Zm16.215,0h-4.621V-14.711L148.2-13.385v-3.5l8.736-3.021h.424Zm16.215,0h-4.621V-14.711l-4.539,1.326v-3.5l8.736-3.021h.424ZM193.4-8.135a9.5,9.5,0,0,1-1.812,6.221A6.26,6.26,0,0,1,186.484.273a6.294,6.294,0,0,1-5.141-2.2,9.49,9.49,0,0,1-1.818-6.207v-3.637a9.5,9.5,0,0,1,1.812-6.221,6.276,6.276,0,0,1,5.12-2.187,6.278,6.278,0,0,1,5.127,2.2,9.514,9.514,0,0,1,1.818,6.221Zm-4.607-4.225a7.1,7.1,0,0,0-.561-3.206,1.874,1.874,0,0,0-1.777-1.06,1.829,1.829,0,0,0-1.729.984,6.688,6.688,0,0,0-.581,2.98v5.086a7.153,7.153,0,0,0,.561,3.261,1.881,1.881,0,0,0,1.777,1.032,1.856,1.856,0,0,0,1.736-1,6.829,6.829,0,0,0,.574-3.151ZM206.008,0h-4.621V-14.711l-4.539,1.326v-3.5l8.736-3.021h.424Zm19.824-8.135a9.5,9.5,0,0,1-1.812,6.221A6.26,6.26,0,0,1,218.914.273a6.294,6.294,0,0,1-5.141-2.2,9.49,9.49,0,0,1-1.818-6.207v-3.637a9.5,9.5,0,0,1,1.812-6.221,6.276,6.276,0,0,1,5.12-2.187,6.278,6.278,0,0,1,5.127,2.2,9.514,9.514,0,0,1,1.818,6.221Zm-4.607-4.225a7.1,7.1,0,0,0-.561-3.206,1.874,1.874,0,0,0-1.777-1.06,1.829,1.829,0,0,0-1.729.984,6.688,6.688,0,0,0-.581,2.98v5.086a7.153,7.153,0,0,0,.561,3.261,1.881,1.881,0,0,0,1.777,1.032,1.856,1.856,0,0,0,1.736-1,6.829,6.829,0,0,0,.574-3.151ZM238.438,0h-4.621V-14.711l-4.539,1.326v-3.5l8.736-3.021h.424Zm19.824-8.135a9.505,9.505,0,0,1-1.812,6.221A6.26,6.26,0,0,1,251.344.273a6.294,6.294,0,0,1-5.141-2.2,9.49,9.49,0,0,1-1.818-6.207v-3.637a9.5,9.5,0,0,1,1.812-6.221,6.276,6.276,0,0,1,5.12-2.187,6.278,6.278,0,0,1,5.127,2.2,9.514,9.514,0,0,1,1.818,6.221Zm-4.607-4.225a7.1,7.1,0,0,0-.561-3.206,1.874,1.874,0,0,0-1.777-1.06,1.829,1.829,0,0,0-1.729.984,6.688,6.688,0,0,0-.581,2.98v5.086a7.153,7.153,0,0,0,.561,3.261,1.881,1.881,0,0,0,1.777,1.032,1.856,1.856,0,0,0,1.736-1,6.829,6.829,0,0,0,.574-3.151ZM270.867,0h-4.621V-14.711l-4.539,1.326v-3.5l8.736-3.021h.424Zm19.824-8.135a9.505,9.505,0,0,1-1.812,6.221A6.26,6.26,0,0,1,283.773.273a6.294,6.294,0,0,1-5.141-2.2,9.49,9.49,0,0,1-1.818-6.207v-3.637a9.505,9.505,0,0,1,1.812-6.221,6.276,6.276,0,0,1,5.12-2.187,6.278,6.278,0,0,1,5.127,2.2,9.514,9.514,0,0,1,1.818,6.221Zm-4.607-4.225a7.1,7.1,0,0,0-.561-3.206,1.874,1.874,0,0,0-1.777-1.06,1.829,1.829,0,0,0-1.729.984,6.688,6.688,0,0,0-.581,2.98v5.086A7.153,7.153,0,0,0,282-4.313a1.881,1.881,0,0,0,1.777,1.032,1.856,1.856,0,0,0,1.736-1,6.829,6.829,0,0,0,.574-3.151ZM303.3,0h-4.621V-14.711l-4.539,1.326v-3.5l8.736-3.021h.424Zm19.824-8.135a9.505,9.505,0,0,1-1.812,6.221A6.26,6.26,0,0,1,316.2.273a6.294,6.294,0,0,1-5.141-2.2,9.49,9.49,0,0,1-1.818-6.207v-3.637a9.505,9.505,0,0,1,1.812-6.221,6.276,6.276,0,0,1,5.12-2.187,6.278,6.278,0,0,1,5.127,2.2,9.514,9.514,0,0,1,1.818,6.221Zm-4.607-4.225a7.1,7.1,0,0,0-.561-3.206,1.874,1.874,0,0,0-1.777-1.06,1.829,1.829,0,0,0-1.729.984,6.688,6.688,0,0,0-.581,2.98v5.086a7.153,7.153,0,0,0,.561,3.261A1.881,1.881,0,0,0,316.2-3.281a1.856,1.856,0,0,0,1.736-1,6.829,6.829,0,0,0,.574-3.151ZM335.727,0h-4.621V-14.711l-4.539,1.326v-3.5l8.736-3.021h.424Zm19.824-8.135a9.505,9.505,0,0,1-1.812,6.221A6.26,6.26,0,0,1,348.633.273a6.294,6.294,0,0,1-5.141-2.2,9.49,9.49,0,0,1-1.818-6.207v-3.637a9.505,9.505,0,0,1,1.812-6.221,6.276,6.276,0,0,1,5.12-2.187,6.278,6.278,0,0,1,5.127,2.2,9.514,9.514,0,0,1,1.818,6.221Zm-4.607-4.225a7.1,7.1,0,0,0-.561-3.206,1.874,1.874,0,0,0-1.777-1.06,1.829,1.829,0,0,0-1.729.984,6.688,6.688,0,0,0-.581,2.98v5.086a7.153,7.153,0,0,0,.561,3.261,1.881,1.881,0,0,0,1.777,1.032,1.856,1.856,0,0,0,1.736-1,6.829,6.829,0,0,0,.574-3.151ZM368.156,0h-4.621V-14.711L359-13.385v-3.5l8.736-3.021h.424ZM387.98-8.135a9.505,9.505,0,0,1-1.812,6.221A6.26,6.26,0,0,1,381.063.273a6.294,6.294,0,0,1-5.141-2.2A9.49,9.49,0,0,1,374.1-8.135v-3.637a9.505,9.505,0,0,1,1.812-6.221,6.276,6.276,0,0,1,5.12-2.187,6.278,6.278,0,0,1,5.127,2.2,9.514,9.514,0,0,1,1.818,6.221Zm-4.607-4.225a7.1,7.1,0,0,0-.561-3.206,1.874,1.874,0,0,0-1.777-1.06,1.829,1.829,0,0,0-1.729.984,6.688,6.688,0,0,0-.581,2.98v5.086a7.153,7.153,0,0,0,.561,3.261,1.881,1.881,0,0,0,1.777,1.032,1.856,1.856,0,0,0,1.736-1,6.829,6.829,0,0,0,.574-3.151Z" transform="translate(-5465.662 324.731)" fill="#a4bdef"/>
      <path id="Trazado_116670" data-name="Trazado 116670" d="M15.039-8.135a9.5,9.5,0,0,1-1.812,6.221A6.26,6.26,0,0,1,8.121.273a6.294,6.294,0,0,1-5.141-2.2A9.49,9.49,0,0,1,1.162-8.135v-3.637a9.5,9.5,0,0,1,1.812-6.221,6.276,6.276,0,0,1,5.12-2.187,6.278,6.278,0,0,1,5.127,2.2,9.514,9.514,0,0,1,1.818,6.221Zm-4.607-4.225a7.1,7.1,0,0,0-.561-3.206,1.874,1.874,0,0,0-1.777-1.06,1.829,1.829,0,0,0-1.729.984,6.688,6.688,0,0,0-.581,2.98v5.086a7.153,7.153,0,0,0,.561,3.261A1.881,1.881,0,0,0,8.121-3.281a1.856,1.856,0,0,0,1.736-1,6.829,6.829,0,0,0,.574-3.151ZM27.645,0H23.023V-14.711l-4.539,1.326v-3.5l8.736-3.021h.424ZM43.859,0H39.238V-14.711L34.7-13.385v-3.5l8.736-3.021h.424ZM63.684-8.135a9.5,9.5,0,0,1-1.812,6.221A6.26,6.26,0,0,1,56.766.273a6.294,6.294,0,0,1-5.141-2.2,9.49,9.49,0,0,1-1.818-6.207v-3.637a9.5,9.5,0,0,1,1.812-6.221,6.276,6.276,0,0,1,5.12-2.187,6.278,6.278,0,0,1,5.127,2.2,9.514,9.514,0,0,1,1.818,6.221Zm-4.607-4.225a7.1,7.1,0,0,0-.561-3.206,1.874,1.874,0,0,0-1.777-1.06,1.829,1.829,0,0,0-1.729.984,6.688,6.688,0,0,0-.581,2.98v5.086a7.153,7.153,0,0,0,.561,3.261,1.881,1.881,0,0,0,1.777,1.032,1.856,1.856,0,0,0,1.736-1,6.829,6.829,0,0,0,.574-3.151ZM76.289,0H71.668V-14.711l-4.539,1.326v-3.5l8.736-3.021h.424ZM96.113-8.135A9.505,9.505,0,0,1,94.3-1.914,6.26,6.26,0,0,1,89.2.273a6.294,6.294,0,0,1-5.141-2.2,9.49,9.49,0,0,1-1.818-6.207v-3.637a9.505,9.505,0,0,1,1.812-6.221,6.276,6.276,0,0,1,5.12-2.187,6.278,6.278,0,0,1,5.127,2.2,9.514,9.514,0,0,1,1.818,6.221Zm-4.607-4.225a7.1,7.1,0,0,0-.561-3.206,1.874,1.874,0,0,0-1.777-1.06,1.829,1.829,0,0,0-1.729.984,6.688,6.688,0,0,0-.581,2.98v5.086a7.153,7.153,0,0,0,.561,3.261A1.881,1.881,0,0,0,89.2-3.281a1.856,1.856,0,0,0,1.736-1,6.829,6.829,0,0,0,.574-3.151Zm20.822,4.225a9.505,9.505,0,0,1-1.812,6.221A6.26,6.26,0,0,1,105.41.273a6.294,6.294,0,0,1-5.141-2.2,9.49,9.49,0,0,1-1.818-6.207v-3.637a9.505,9.505,0,0,1,1.812-6.221,6.276,6.276,0,0,1,5.12-2.187,6.278,6.278,0,0,1,5.127,2.2,9.514,9.514,0,0,1,1.818,6.221Zm-4.607-4.225a7.1,7.1,0,0,0-.561-3.206,1.874,1.874,0,0,0-1.777-1.06,1.829,1.829,0,0,0-1.729.984,6.688,6.688,0,0,0-.581,2.98v5.086a7.153,7.153,0,0,0,.561,3.261,1.881,1.881,0,0,0,1.777,1.032,1.856,1.856,0,0,0,1.736-1,6.829,6.829,0,0,0,.574-3.151ZM124.934,0h-4.621V-14.711l-4.539,1.326v-3.5l8.736-3.021h.424Zm19.824-8.135a9.5,9.5,0,0,1-1.812,6.221A6.26,6.26,0,0,1,137.84.273a6.294,6.294,0,0,1-5.141-2.2,9.49,9.49,0,0,1-1.818-6.207v-3.637a9.5,9.5,0,0,1,1.812-6.221,6.276,6.276,0,0,1,5.12-2.187,6.278,6.278,0,0,1,5.127,2.2,9.514,9.514,0,0,1,1.818,6.221Zm-4.607-4.225a7.1,7.1,0,0,0-.561-3.206,1.874,1.874,0,0,0-1.777-1.06,1.829,1.829,0,0,0-1.729.984,6.688,6.688,0,0,0-.581,2.98v5.086a7.153,7.153,0,0,0,.561,3.261,1.881,1.881,0,0,0,1.777,1.032,1.856,1.856,0,0,0,1.736-1,6.829,6.829,0,0,0,.574-3.151ZM157.363,0h-4.621V-14.711L148.2-13.385v-3.5l8.736-3.021h.424Zm19.824-8.135a9.5,9.5,0,0,1-1.812,6.221A6.26,6.26,0,0,1,170.27.273a6.294,6.294,0,0,1-5.141-2.2,9.49,9.49,0,0,1-1.818-6.207v-3.637a9.5,9.5,0,0,1,1.812-6.221,6.276,6.276,0,0,1,5.12-2.187,6.278,6.278,0,0,1,5.127,2.2,9.514,9.514,0,0,1,1.818,6.221Zm-4.607-4.225a7.1,7.1,0,0,0-.561-3.206,1.874,1.874,0,0,0-1.777-1.06,1.829,1.829,0,0,0-1.729.984,6.688,6.688,0,0,0-.581,2.98v5.086a7.153,7.153,0,0,0,.561,3.261,1.881,1.881,0,0,0,1.777,1.032,1.856,1.856,0,0,0,1.736-1,6.829,6.829,0,0,0,.574-3.151ZM189.793,0h-4.621V-14.711l-4.539,1.326v-3.5l8.736-3.021h.424Zm19.824-8.135a9.5,9.5,0,0,1-1.812,6.221A6.26,6.26,0,0,1,202.7.273a6.294,6.294,0,0,1-5.141-2.2,9.49,9.49,0,0,1-1.818-6.207v-3.637a9.5,9.5,0,0,1,1.812-6.221,6.276,6.276,0,0,1,5.12-2.187,6.278,6.278,0,0,1,5.127,2.2,9.514,9.514,0,0,1,1.818,6.221Zm-4.607-4.225a7.1,7.1,0,0,0-.561-3.206,1.874,1.874,0,0,0-1.777-1.06,1.829,1.829,0,0,0-1.729.984,6.688,6.688,0,0,0-.581,2.98v5.086a7.153,7.153,0,0,0,.561,3.261A1.881,1.881,0,0,0,202.7-3.281a1.856,1.856,0,0,0,1.736-1,6.829,6.829,0,0,0,.574-3.151ZM222.223,0H217.6V-14.711l-4.539,1.326v-3.5l8.736-3.021h.424Zm19.824-8.135a9.5,9.5,0,0,1-1.812,6.221A6.26,6.26,0,0,1,235.129.273a6.294,6.294,0,0,1-5.141-2.2,9.49,9.49,0,0,1-1.818-6.207v-3.637a9.5,9.5,0,0,1,1.812-6.221,6.276,6.276,0,0,1,5.12-2.187,6.278,6.278,0,0,1,5.127,2.2,9.514,9.514,0,0,1,1.818,6.221Zm-4.607-4.225a7.1,7.1,0,0,0-.561-3.206,1.874,1.874,0,0,0-1.777-1.06,1.829,1.829,0,0,0-1.729.984,6.688,6.688,0,0,0-.581,2.98v5.086a7.153,7.153,0,0,0,.561,3.261,1.881,1.881,0,0,0,1.777,1.032,1.856,1.856,0,0,0,1.736-1,6.829,6.829,0,0,0,.574-3.151ZM254.652,0h-4.621V-14.711l-4.539,1.326v-3.5l8.736-3.021h.424Zm19.824-8.135a9.505,9.505,0,0,1-1.812,6.221A6.26,6.26,0,0,1,267.559.273a6.294,6.294,0,0,1-5.141-2.2A9.49,9.49,0,0,1,260.6-8.135v-3.637a9.505,9.505,0,0,1,1.812-6.221,6.276,6.276,0,0,1,5.12-2.187,6.278,6.278,0,0,1,5.127,2.2,9.514,9.514,0,0,1,1.818,6.221Zm-4.607-4.225a7.1,7.1,0,0,0-.561-3.206,1.874,1.874,0,0,0-1.777-1.06,1.829,1.829,0,0,0-1.729.984,6.688,6.688,0,0,0-.581,2.98v5.086a7.153,7.153,0,0,0,.561,3.261,1.881,1.881,0,0,0,1.777,1.032,1.856,1.856,0,0,0,1.736-1,6.829,6.829,0,0,0,.574-3.151ZM287.082,0h-4.621V-14.711l-4.539,1.326v-3.5l8.736-3.021h.424ZM303.3,0h-4.621V-14.711l-4.539,1.326v-3.5l8.736-3.021h.424Zm16.215,0h-4.621V-14.711l-4.539,1.326v-3.5l8.736-3.021h.424Zm19.824-8.135a9.505,9.505,0,0,1-1.812,6.221A6.26,6.26,0,0,1,332.418.273a6.294,6.294,0,0,1-5.141-2.2,9.49,9.49,0,0,1-1.818-6.207v-3.637a9.505,9.505,0,0,1,1.812-6.221,6.276,6.276,0,0,1,5.12-2.187,6.278,6.278,0,0,1,5.127,2.2,9.514,9.514,0,0,1,1.818,6.221Zm-4.607-4.225a7.1,7.1,0,0,0-.561-3.206,1.874,1.874,0,0,0-1.777-1.06,1.829,1.829,0,0,0-1.729.984,6.688,6.688,0,0,0-.581,2.98v5.086a7.153,7.153,0,0,0,.561,3.261,1.881,1.881,0,0,0,1.777,1.032,1.856,1.856,0,0,0,1.736-1,6.829,6.829,0,0,0,.574-3.151Zm20.822,4.225a9.505,9.505,0,0,1-1.812,6.221A6.26,6.26,0,0,1,348.633.273a6.294,6.294,0,0,1-5.141-2.2,9.49,9.49,0,0,1-1.818-6.207v-3.637a9.505,9.505,0,0,1,1.812-6.221,6.276,6.276,0,0,1,5.12-2.187,6.278,6.278,0,0,1,5.127,2.2,9.514,9.514,0,0,1,1.818,6.221Zm-4.607-4.225a7.1,7.1,0,0,0-.561-3.206,1.874,1.874,0,0,0-1.777-1.06,1.829,1.829,0,0,0-1.729.984,6.688,6.688,0,0,0-.581,2.98v5.086a7.153,7.153,0,0,0,.561,3.261,1.881,1.881,0,0,0,1.777,1.032,1.856,1.856,0,0,0,1.736-1,6.829,6.829,0,0,0,.574-3.151ZM368.156,0h-4.621V-14.711L359-13.385v-3.5l8.736-3.021h.424ZM387.98-8.135a9.505,9.505,0,0,1-1.812,6.221A6.26,6.26,0,0,1,381.063.273a6.294,6.294,0,0,1-5.141-2.2A9.49,9.49,0,0,1,374.1-8.135v-3.637a9.505,9.505,0,0,1,1.812-6.221,6.276,6.276,0,0,1,5.12-2.187,6.278,6.278,0,0,1,5.127,2.2,9.514,9.514,0,0,1,1.818,6.221Zm-4.607-4.225a7.1,7.1,0,0,0-.561-3.206,1.874,1.874,0,0,0-1.777-1.06,1.829,1.829,0,0,0-1.729.984,6.688,6.688,0,0,0-.581,2.98v5.086a7.153,7.153,0,0,0,.561,3.261,1.881,1.881,0,0,0,1.777,1.032,1.856,1.856,0,0,0,1.736-1,6.829,6.829,0,0,0,.574-3.151Z" transform="translate(-5465.662 361.897)" fill="#a4bdef"/>
      <path id="Trazado_116671" data-name="Trazado 116671" d="M15.039-8.135a9.5,9.5,0,0,1-1.812,6.221A6.26,6.26,0,0,1,8.121.273a6.294,6.294,0,0,1-5.141-2.2A9.49,9.49,0,0,1,1.162-8.135v-3.637a9.5,9.5,0,0,1,1.812-6.221,6.276,6.276,0,0,1,5.12-2.187,6.278,6.278,0,0,1,5.127,2.2,9.514,9.514,0,0,1,1.818,6.221Zm-4.607-4.225a7.1,7.1,0,0,0-.561-3.206,1.874,1.874,0,0,0-1.777-1.06,1.829,1.829,0,0,0-1.729.984,6.688,6.688,0,0,0-.581,2.98v5.086a7.153,7.153,0,0,0,.561,3.261A1.881,1.881,0,0,0,8.121-3.281a1.856,1.856,0,0,0,1.736-1,6.829,6.829,0,0,0,.574-3.151ZM31.254-8.135a9.5,9.5,0,0,1-1.812,6.221A6.26,6.26,0,0,1,24.336.273a6.294,6.294,0,0,1-5.141-2.2,9.49,9.49,0,0,1-1.818-6.207v-3.637a9.5,9.5,0,0,1,1.812-6.221,6.276,6.276,0,0,1,5.12-2.187,6.278,6.278,0,0,1,5.127,2.2,9.514,9.514,0,0,1,1.818,6.221Zm-4.607-4.225a7.1,7.1,0,0,0-.561-3.206,1.874,1.874,0,0,0-1.777-1.06,1.829,1.829,0,0,0-1.729.984A6.688,6.688,0,0,0,22-12.66v5.086a7.153,7.153,0,0,0,.561,3.261,1.881,1.881,0,0,0,1.777,1.032,1.856,1.856,0,0,0,1.736-1,6.829,6.829,0,0,0,.574-3.151ZM43.859,0H39.238V-14.711L34.7-13.385v-3.5l8.736-3.021h.424ZM60.074,0H55.453V-14.711l-4.539,1.326v-3.5l8.736-3.021h.424ZM76.289,0H71.668V-14.711l-4.539,1.326v-3.5l8.736-3.021h.424ZM96.113-8.135A9.505,9.505,0,0,1,94.3-1.914,6.26,6.26,0,0,1,89.2.273a6.294,6.294,0,0,1-5.141-2.2,9.49,9.49,0,0,1-1.818-6.207v-3.637a9.505,9.505,0,0,1,1.812-6.221,6.276,6.276,0,0,1,5.12-2.187,6.278,6.278,0,0,1,5.127,2.2,9.514,9.514,0,0,1,1.818,6.221Zm-4.607-4.225a7.1,7.1,0,0,0-.561-3.206,1.874,1.874,0,0,0-1.777-1.06,1.829,1.829,0,0,0-1.729.984,6.688,6.688,0,0,0-.581,2.98v5.086a7.153,7.153,0,0,0,.561,3.261A1.881,1.881,0,0,0,89.2-3.281a1.856,1.856,0,0,0,1.736-1,6.829,6.829,0,0,0,.574-3.151Zm20.822,4.225a9.505,9.505,0,0,1-1.812,6.221A6.26,6.26,0,0,1,105.41.273a6.294,6.294,0,0,1-5.141-2.2,9.49,9.49,0,0,1-1.818-6.207v-3.637a9.505,9.505,0,0,1,1.812-6.221,6.276,6.276,0,0,1,5.12-2.187,6.278,6.278,0,0,1,5.127,2.2,9.514,9.514,0,0,1,1.818,6.221Zm-4.607-4.225a7.1,7.1,0,0,0-.561-3.206,1.874,1.874,0,0,0-1.777-1.06,1.829,1.829,0,0,0-1.729.984,6.688,6.688,0,0,0-.581,2.98v5.086a7.153,7.153,0,0,0,.561,3.261,1.881,1.881,0,0,0,1.777,1.032,1.856,1.856,0,0,0,1.736-1,6.829,6.829,0,0,0,.574-3.151ZM124.934,0h-4.621V-14.711l-4.539,1.326v-3.5l8.736-3.021h.424Zm19.824-8.135a9.5,9.5,0,0,1-1.812,6.221A6.26,6.26,0,0,1,137.84.273a6.294,6.294,0,0,1-5.141-2.2,9.49,9.49,0,0,1-1.818-6.207v-3.637a9.5,9.5,0,0,1,1.812-6.221,6.276,6.276,0,0,1,5.12-2.187,6.278,6.278,0,0,1,5.127,2.2,9.514,9.514,0,0,1,1.818,6.221Zm-4.607-4.225a7.1,7.1,0,0,0-.561-3.206,1.874,1.874,0,0,0-1.777-1.06,1.829,1.829,0,0,0-1.729.984,6.688,6.688,0,0,0-.581,2.98v5.086a7.153,7.153,0,0,0,.561,3.261,1.881,1.881,0,0,0,1.777,1.032,1.856,1.856,0,0,0,1.736-1,6.829,6.829,0,0,0,.574-3.151ZM157.363,0h-4.621V-14.711L148.2-13.385v-3.5l8.736-3.021h.424Zm16.215,0h-4.621V-14.711l-4.539,1.326v-3.5l8.736-3.021h.424ZM193.4-8.135a9.5,9.5,0,0,1-1.812,6.221A6.26,6.26,0,0,1,186.484.273a6.294,6.294,0,0,1-5.141-2.2,9.49,9.49,0,0,1-1.818-6.207v-3.637a9.5,9.5,0,0,1,1.812-6.221,6.276,6.276,0,0,1,5.12-2.187,6.278,6.278,0,0,1,5.127,2.2,9.514,9.514,0,0,1,1.818,6.221Zm-4.607-4.225a7.1,7.1,0,0,0-.561-3.206,1.874,1.874,0,0,0-1.777-1.06,1.829,1.829,0,0,0-1.729.984,6.688,6.688,0,0,0-.581,2.98v5.086a7.153,7.153,0,0,0,.561,3.261,1.881,1.881,0,0,0,1.777,1.032,1.856,1.856,0,0,0,1.736-1,6.829,6.829,0,0,0,.574-3.151ZM206.008,0h-4.621V-14.711l-4.539,1.326v-3.5l8.736-3.021h.424Zm19.824-8.135a9.5,9.5,0,0,1-1.812,6.221A6.26,6.26,0,0,1,218.914.273a6.294,6.294,0,0,1-5.141-2.2,9.49,9.49,0,0,1-1.818-6.207v-3.637a9.5,9.5,0,0,1,1.812-6.221,6.276,6.276,0,0,1,5.12-2.187,6.278,6.278,0,0,1,5.127,2.2,9.514,9.514,0,0,1,1.818,6.221Zm-4.607-4.225a7.1,7.1,0,0,0-.561-3.206,1.874,1.874,0,0,0-1.777-1.06,1.829,1.829,0,0,0-1.729.984,6.688,6.688,0,0,0-.581,2.98v5.086a7.153,7.153,0,0,0,.561,3.261,1.881,1.881,0,0,0,1.777,1.032,1.856,1.856,0,0,0,1.736-1,6.829,6.829,0,0,0,.574-3.151Zm20.822,4.225a9.5,9.5,0,0,1-1.812,6.221A6.26,6.26,0,0,1,235.129.273a6.294,6.294,0,0,1-5.141-2.2,9.49,9.49,0,0,1-1.818-6.207v-3.637a9.5,9.5,0,0,1,1.812-6.221,6.276,6.276,0,0,1,5.12-2.187,6.278,6.278,0,0,1,5.127,2.2,9.514,9.514,0,0,1,1.818,6.221Zm-4.607-4.225a7.1,7.1,0,0,0-.561-3.206,1.874,1.874,0,0,0-1.777-1.06,1.829,1.829,0,0,0-1.729.984,6.688,6.688,0,0,0-.581,2.98v5.086a7.153,7.153,0,0,0,.561,3.261,1.881,1.881,0,0,0,1.777,1.032,1.856,1.856,0,0,0,1.736-1,6.829,6.829,0,0,0,.574-3.151ZM254.652,0h-4.621V-14.711l-4.539,1.326v-3.5l8.736-3.021h.424Zm19.824-8.135a9.505,9.505,0,0,1-1.812,6.221A6.26,6.26,0,0,1,267.559.273a6.294,6.294,0,0,1-5.141-2.2A9.49,9.49,0,0,1,260.6-8.135v-3.637a9.505,9.505,0,0,1,1.812-6.221,6.276,6.276,0,0,1,5.12-2.187,6.278,6.278,0,0,1,5.127,2.2,9.514,9.514,0,0,1,1.818,6.221Zm-4.607-4.225a7.1,7.1,0,0,0-.561-3.206,1.874,1.874,0,0,0-1.777-1.06,1.829,1.829,0,0,0-1.729.984,6.688,6.688,0,0,0-.581,2.98v5.086a7.153,7.153,0,0,0,.561,3.261,1.881,1.881,0,0,0,1.777,1.032,1.856,1.856,0,0,0,1.736-1,6.829,6.829,0,0,0,.574-3.151ZM287.082,0h-4.621V-14.711l-4.539,1.326v-3.5l8.736-3.021h.424Zm19.824-8.135a9.505,9.505,0,0,1-1.812,6.221A6.26,6.26,0,0,1,299.988.273a6.294,6.294,0,0,1-5.141-2.2,9.49,9.49,0,0,1-1.818-6.207v-3.637a9.505,9.505,0,0,1,1.812-6.221,6.276,6.276,0,0,1,5.12-2.187,6.278,6.278,0,0,1,5.127,2.2,9.514,9.514,0,0,1,1.818,6.221ZM302.3-12.359a7.1,7.1,0,0,0-.561-3.206,1.874,1.874,0,0,0-1.777-1.06,1.829,1.829,0,0,0-1.729.984,6.688,6.688,0,0,0-.581,2.98v5.086a7.153,7.153,0,0,0,.561,3.261,1.881,1.881,0,0,0,1.777,1.032,1.856,1.856,0,0,0,1.736-1,6.829,6.829,0,0,0,.574-3.151ZM319.512,0h-4.621V-14.711l-4.539,1.326v-3.5l8.736-3.021h.424Zm19.824-8.135a9.505,9.505,0,0,1-1.812,6.221A6.26,6.26,0,0,1,332.418.273a6.294,6.294,0,0,1-5.141-2.2,9.49,9.49,0,0,1-1.818-6.207v-3.637a9.505,9.505,0,0,1,1.812-6.221,6.276,6.276,0,0,1,5.12-2.187,6.278,6.278,0,0,1,5.127,2.2,9.514,9.514,0,0,1,1.818,6.221Zm-4.607-4.225a7.1,7.1,0,0,0-.561-3.206,1.874,1.874,0,0,0-1.777-1.06,1.829,1.829,0,0,0-1.729.984,6.688,6.688,0,0,0-.581,2.98v5.086a7.153,7.153,0,0,0,.561,3.261,1.881,1.881,0,0,0,1.777,1.032,1.856,1.856,0,0,0,1.736-1,6.829,6.829,0,0,0,.574-3.151ZM351.941,0H347.32V-14.711l-4.539,1.326v-3.5l8.736-3.021h.424Zm19.824-8.135a9.505,9.505,0,0,1-1.812,6.221A6.26,6.26,0,0,1,364.848.273a6.294,6.294,0,0,1-5.141-2.2,9.49,9.49,0,0,1-1.818-6.207v-3.637a9.505,9.505,0,0,1,1.812-6.221,6.276,6.276,0,0,1,5.12-2.187,6.278,6.278,0,0,1,5.127,2.2,9.514,9.514,0,0,1,1.818,6.221Zm-4.607-4.225a7.1,7.1,0,0,0-.561-3.206,1.874,1.874,0,0,0-1.777-1.06,1.829,1.829,0,0,0-1.729.984,6.688,6.688,0,0,0-.581,2.98v5.086a7.153,7.153,0,0,0,.561,3.261,1.881,1.881,0,0,0,1.777,1.032,1.856,1.856,0,0,0,1.736-1,6.829,6.829,0,0,0,.574-3.151ZM384.371,0H379.75V-14.711l-4.539,1.326v-3.5l8.736-3.021h.424Z" transform="translate(-5465.662 395.467)" fill="#a4bdef"/>
    </g>
  </g>
</svg>
