<svg xmlns="http://www.w3.org/2000/svg" width="505" height="530" viewBox="0 0 505 530">
  <g id="Grupo_79855" data-name="Grupo 79855" transform="translate(-915 -6420)">
    <g id="Grupo_79400" data-name="Grupo 79400">
      <rect id="Rectángulo_34073" data-name="Rectángulo 34073" width="505" height="530" transform="translate(915 6420)" fill="#f6f6f6"/>
    </g>
    <g id="Grupo_79854" data-name="Grupo 79854" transform="translate(-1089.867 11238.721)">
      <g id="Background_Complete" data-name="Background Complete" transform="translate(2030.572 -4729.118)">
        <g id="Grupo_79839" data-name="Grupo 79839" transform="translate(0 0)">
          <g id="Grupo_79832" data-name="Grupo 79832" transform="translate(0 143.596)">
            <g id="Grupo_79828" data-name="Grupo 79828" transform="translate(36.88 28.41)">
              <rect id="Rectángulo_34330" data-name="Rectángulo 34330" width="12.247" height="58.156" fill="#f0f0f0"/>
              <rect id="Rectángulo_34331" data-name="Rectángulo 34331" width="8.303" height="39.428" transform="translate(1.972 4.472)" fill="#fafafa"/>
              <rect id="Rectángulo_34332" data-name="Rectángulo 34332" width="26.155" height="58.156" transform="translate(38.402 58.156) rotate(180)" fill="#e0e0e0"/>
            </g>
            <g id="Grupo_79829" data-name="Grupo 79829" transform="translate(51.687 28.41)">
              <rect id="Rectángulo_34333" data-name="Rectángulo 34333" width="12.247" height="58.156" fill="#f0f0f0"/>
              <rect id="Rectángulo_34334" data-name="Rectángulo 34334" width="8.303" height="39.428" transform="translate(1.972 4.472)" fill="#fafafa"/>
              <rect id="Rectángulo_34335" data-name="Rectángulo 34335" width="26.155" height="58.156" transform="translate(38.402 58.156) rotate(180)" fill="#e0e0e0"/>
            </g>
            <rect id="Rectángulo_34336" data-name="Rectángulo 34336" width="4.428" height="207.062" transform="translate(76.666 5.77)" fill="#ebebeb"/>
            <rect id="Rectángulo_34337" data-name="Rectángulo 34337" width="4.428" height="207.062" transform="translate(2.353 5.77)" fill="#ebebeb"/>
            <rect id="Rectángulo_34338" data-name="Rectángulo 34338" width="4.428" height="207.062" transform="translate(95.763 5.77)" fill="#ebebeb"/>
            <rect id="Rectángulo_34339" data-name="Rectángulo 34339" width="4.428" height="207.062" transform="translate(21.45 5.77)" fill="#ebebeb"/>
            <g id="Grupo_79830" data-name="Grupo 79830" transform="translate(16.399 114.976)">
              <rect id="Rectángulo_34340" data-name="Rectángulo 34340" width="12.247" height="58.156" transform="translate(0 0)" fill="#f0f0f0"/>
              <rect id="Rectángulo_34341" data-name="Rectángulo 34341" width="8.303" height="39.428" transform="translate(1.972 4.472)" fill="#fafafa"/>
              <rect id="Rectángulo_34342" data-name="Rectángulo 34342" width="26.155" height="58.156" transform="translate(38.402 58.156) rotate(180)" fill="#e0e0e0"/>
            </g>
            <g id="Grupo_79831" data-name="Grupo 79831" transform="translate(31.206 114.976)">
              <rect id="Rectángulo_34343" data-name="Rectángulo 34343" width="12.247" height="58.156" transform="translate(0 0)" fill="#f0f0f0"/>
              <rect id="Rectángulo_34344" data-name="Rectángulo 34344" width="8.303" height="39.428" transform="translate(1.972 4.472)" fill="#fafafa"/>
              <rect id="Rectángulo_34345" data-name="Rectángulo 34345" width="26.155" height="58.156" transform="translate(38.402 58.156) rotate(180)" fill="#e0e0e0"/>
            </g>
            <rect id="Rectángulo_34346" data-name="Rectángulo 34346" width="100.192" height="5.77" fill="#f0f0f0"/>
            <rect id="Rectángulo_34347" data-name="Rectángulo 34347" width="100.192" height="5.77" transform="translate(0 86.566)" fill="#f0f0f0"/>
            <rect id="Rectángulo_34348" data-name="Rectángulo 34348" width="100.192" height="5.77" transform="translate(0 173.131)" fill="#f0f0f0"/>
          </g>
          <g id="Grupo_79833" data-name="Grupo 79833" transform="translate(18.051 12.838)">
            <rect id="Rectángulo_34349" data-name="Rectángulo 34349" width="68.471" height="86.069" transform="translate(83.586 86.069) rotate(180)" fill="#f0f0f0"/>
            <rect id="Rectángulo_34350" data-name="Rectángulo 34350" width="80.963" height="86.069" transform="translate(80.963 86.069) rotate(180)" fill="#f5f5f5"/>
            <rect id="Rectángulo_34351" data-name="Rectángulo 34351" width="72.503" height="67.397" transform="translate(6.783 79.286) rotate(-90)" fill="#fff"/>
            <circle id="Elipse_4798" data-name="Elipse 4798" cx="15.216" cy="15.216" r="15.216" transform="translate(25.266 27.819)" fill="#f0f0f0"/>
          </g>
          <g id="Grupo_79834" data-name="Grupo 79834" transform="translate(153.501)">
            <rect id="Rectángulo_34352" data-name="Rectángulo 34352" width="259.195" height="150.815" transform="translate(296.743 150.815) rotate(180)" fill="#f0f0f0"/>
            <rect id="Rectángulo_34353" data-name="Rectángulo 34353" width="289.553" height="150.815" transform="translate(289.553 150.815) rotate(180)" fill="#f5f5f5"/>
            <rect id="Rectángulo_34354" data-name="Rectángulo 34354" width="127.045" height="255.856" transform="translate(16.849 138.93) rotate(-90)" fill="#fff"/>
            <rect id="Rectángulo_34355" data-name="Rectángulo 34355" width="40.517" height="255.856" transform="translate(16.849 52.402) rotate(-90)" fill="#fafafa"/>
            <rect id="Rectángulo_34356" data-name="Rectángulo 34356" width="53.584" height="255.856" transform="translate(16.849 138.93) rotate(-90)" fill="#f0f0f0"/>
          </g>
          <g id="Grupo_79835" data-name="Grupo 79835" transform="translate(191.704 241.167)">
            <rect id="Rectángulo_34357" data-name="Rectángulo 34357" width="7.641" height="115.259" transform="translate(249.416 0)" fill="#e6e6e6"/>
            <rect id="Rectángulo_34358" data-name="Rectángulo 34358" width="5.307" height="115.259" transform="translate(254.162 0)" fill="#f0f0f0"/>
            <rect id="Rectángulo_34359" data-name="Rectángulo 34359" width="201.694" height="12.993" transform="translate(261.112 12.993) rotate(180)" fill="#f0f0f0"/>
            <rect id="Rectángulo_34360" data-name="Rectángulo 34360" width="7.641" height="102.266" transform="translate(48.356 12.993)" fill="#e6e6e6"/>
            <rect id="Rectángulo_34361" data-name="Rectángulo 34361" width="5.307" height="102.266" transform="translate(53.102 12.993)" fill="#f0f0f0"/>
            <rect id="Rectángulo_34362" data-name="Rectángulo 34362" width="7.641" height="102.266" transform="translate(0 12.993)" fill="#e6e6e6"/>
            <rect id="Rectángulo_34363" data-name="Rectángulo 34363" width="5.307" height="102.266" transform="translate(4.746 12.993)" fill="#e6e6e6"/>
            <rect id="Rectángulo_34364" data-name="Rectángulo 34364" width="7.641" height="102.266" transform="translate(201.06 12.993)" fill="#e6e6e6"/>
            <rect id="Rectángulo_34365" data-name="Rectángulo 34365" width="5.307" height="102.266" transform="translate(205.806 12.993)" fill="#e6e6e6"/>
            <rect id="Rectángulo_34366" data-name="Rectángulo 34366" width="59.419" height="12.993" transform="translate(0 0)" fill="#e6e6e6"/>
          </g>
          <g id="Grupo_79838" data-name="Grupo 79838" transform="translate(325.889 125.842)">
            <g id="Grupo_79836" data-name="Grupo 79836">
              <path id="Trazado_116436" data-name="Trazado 116436" d="M404.061,265.964c-6.509,7.272-29.815,14.846-36.709-8-5.012-16.613,23.017-28.9,39.791-29.6,18.073-.763,28.75,5.6,28.75,5.6A400.2,400.2,0,0,0,404.061,265.964Z" transform="translate(-326.957 -177.009)" fill="#e6e6e6"/>
              <path id="Trazado_116437" data-name="Trazado 116437" d="M372.938,271.6c9.153.974,24.718-6.026,18.559-25.247s-18.759-21.011-27.092-22.615c-10.622-2.047-31.853,6.627-31.853,6.627S363.784,270.63,372.938,271.6Z" transform="translate(-332.551 -177.805)" fill="#e6e6e6"/>
              <path id="Trazado_116438" data-name="Trazado 116438" d="M390.277,239.97c-11.529,5.237-21.2,7.015-15.739-9.3s12.1-24.145,22.932-27.465c13.8-4.231,30.181,4.859,30.181,4.859S401.807,234.734,390.277,239.97Z" transform="translate(-325.942 -181.295)" fill="#e6e6e6"/>
              <path id="Trazado_116439" data-name="Trazado 116439" d="M379.3,238.769c8.807,2.606,15.739,2.055,9.173-13.664s-10.942-17.685-18.464-20.7c-13.918-5.571-25.574,4.428-25.574,4.428S370.489,236.164,379.3,238.769Z" transform="translate(-330.609 -181.191)" fill="#e6e6e6"/>
              <path id="Trazado_116440" data-name="Trazado 116440" d="M393.389,215.854c-9.566,8.375-18.371,13.687-17.979.663s7.157-24.7,17.447-29.95c7.086-3.617,22.748-1.981,22.748-1.981S402.957,207.478,393.389,215.854Z" transform="translate(-325.545 -184.217)" fill="#e6e6e6"/>
              <path id="Trazado_116441" data-name="Trazado 116441" d="M372.158,212.792c6.255,4.987,11.687,7.616,9.715-2.962s-5.464-13.434-11.452-17.168a21.812,21.812,0,0,0-15.971-2.449S365.9,207.8,372.158,212.792Z" transform="translate(-328.971 -183.328)" fill="#e6e6e6"/>
            </g>
            <g id="Grupo_79837" data-name="Grupo 79837" transform="translate(23.421 88.696)">
              <path id="Trazado_116442" data-name="Trazado 116442" d="M415.528,260.449H352.681l8.272,26.627h46.3Z" transform="translate(-352.681 -260.449)" fill="#f0f0f0"/>
            </g>
          </g>
        </g>
      </g>
      <g id="Shadow" transform="translate(2005.867 -4348.051)">
        <ellipse id="_Path_" data-name="&lt;Path&gt;" cx="251.113" cy="14.665" rx="251.113" ry="14.665" fill="#f5f5f5"/>
      </g>
      <g id="Character_2" data-name="Character 2" transform="translate(2225.017 -4712.21)">
        <g id="Grupo_79844" data-name="Grupo 79844" transform="translate(0 0)">
          <g id="Grupo_79843" data-name="Grupo 79843">
            <path id="Trazado_116443" data-name="Trazado 116443" d="M303.244,188.92l-1.6,2.119c-.519.666-1.053,1.312-1.585,1.957-1.059,1.3-2.177,2.536-3.3,3.781a97.85,97.85,0,0,1-7.237,7.15c-1.3,1.145-2.627,2.274-4.029,3.379-1.421,1.085-2.9,2.149-4.472,3.176a35.845,35.845,0,0,1-11.661,5.177l-.448.1a7.171,7.171,0,0,1-1.325.172,15.489,15.489,0,0,1-6.18-1.089,19.677,19.677,0,0,1-3.939-2.1,33.828,33.828,0,0,1-5.234-4.49,65.758,65.758,0,0,1-7.194-9.157c-2.041-3.1-3.875-6.24-5.55-9.438a104.233,104.233,0,0,1-4.558-9.851,5.2,5.2,0,0,1,8.72-5.359l.113.13,6.68,7.544c2.239,2.489,4.479,4.934,6.755,7.218a66.666,66.666,0,0,0,6.762,6.122,15.034,15.034,0,0,0,2.939,1.844,1.459,1.459,0,0,0,.7.187c.04-.025-.3-.246-1.106-.242l-1.773.276a26.487,26.487,0,0,0,4.9-3.207,78.658,78.658,0,0,0,5.844-5.352c1.932-1.983,3.889-4.047,5.781-6.205l2.835-3.248,2.69-3.168.326-.383a10.355,10.355,0,0,1,16.15,12.95Z" transform="translate(-222.593 -109.403)" fill="#263238"/>
            <path id="Trazado_116444" data-name="Trazado 116444" d="M239.756,180.666c-5,.777-9.754-7.328-9.754-7.328l-3.739-4.459a4.025,4.025,0,0,1,.03-5.212l3.229-3.758a4.028,4.028,0,0,1,5.744-.374l4.291,3.847a7.145,7.145,0,0,1,1.783,2.474l1.669,3.841a9.279,9.279,0,0,1-1.531,9.813l-.311.354A2.384,2.384,0,0,1,239.756,180.666Z" transform="translate(-225.321 -113.48)" fill="#ffc3bd"/>
            <path id="Trazado_116445" data-name="Trazado 116445" d="M342.639,341.32c-6.345-46.911-8.844-74.733-12.91-98.063l-39.9-.6s17.857,74.812,26.383,105.288c8.561,30.6,56.706,106.451,56.706,106.451l10.6-6.3S354.024,376.845,342.639,341.32Z" transform="translate(-206.282 -88.644)" fill="#263238"/>
            <path id="Trazado_116446" data-name="Trazado 116446" d="M348.571,419.406s7.965-9.76,7.838-13.055l8.78-5.216,4.839,9.658-4.238,2.517-1.282-.392-.92,1.7c-4.379,2.6-11.43,6.56-14.7,7.166A2.542,2.542,0,0,1,348.571,419.406Z" transform="translate(-188.992 -41.871)" fill="#263238"/>
            <path id="Trazado_116447" data-name="Trazado 116447" d="M333.476,170.471c-14.108-1.751-34.274-1.59-47.79.742a16.378,16.378,0,0,0-13.278,13.771c-2.845,20.41-.4,56.095,1.417,92.01,30.873,10.563,63.455-.142,63.455-.142,1.123-7.249-1.405-30.987-3.1-43.664,2.546-13.087,7.952-28.072,11.522-45.453A14.239,14.239,0,0,0,333.476,170.471Z" transform="translate(-211.808 -110.297)" fill="#263238"/>
            <path id="Trazado_116448" data-name="Trazado 116448" d="M292.074,170.1c-1.7,1.708-2.827,4.389-3.427,7.839-1.448,8.291.193,21.063,4.559,35.712,4.185-11.8,13.19-27.409,18.721-36.481,2.614-4.3,4.446-7.137,4.616-7.386a.036.036,0,0,0,.012-.023A50.907,50.907,0,0,0,292.074,170.1Z" transform="translate(-206.783 -110.551)" fill="#407bff"/>
            <g id="Grupo_79840" data-name="Grupo 79840" transform="translate(82.599 33.213)">
              <path id="Trazado_116449" data-name="Trazado 116449" d="M313.737,149.385l-16.066,13.178c2.079,5.529,2.738,11.286-6.336,13.5-2.272,3,1.732,6.433,5.484,8,6.057-.754,14.6-2.77,18.292-7.846C313.947,172.238,312.18,157.564,313.737,149.385Z" transform="translate(-288.633 -149.385)" fill="#ffc3bd"/>
              <path id="Trazado_116450" data-name="Trazado 116450" d="M292.458,174.141a12.176,12.176,0,0,0,3.331,5.028c2.452,0,6.034-2.765,6.034-2.765s-1.386-3.884-3.332-4.675C293.526,172.947,292.458,174.141,292.458,174.141Z" transform="translate(-288.106 -142.791)" fill="#fff"/>
              <path id="Trazado_116451" data-name="Trazado 116451" d="M299.041,176.333a3.547,3.547,0,0,0-2.7-.69c-3.213,4.571-5.261,11.663-7.24,19.841a137.373,137.373,0,0,0,3.823,16.052,126.419,126.419,0,0,1,6.244-14.2A85.138,85.138,0,0,1,299.041,176.333Z" transform="translate(-289.098 -141.649)" fill="#fff"/>
              <path id="Trazado_116452" data-name="Trazado 116452" d="M305.442,153.631l-9.361,7.672a20.537,20.537,0,0,1,1.126,3.961c3.629.259,8.675-3.415,8.905-6.726A13.733,13.733,0,0,0,305.442,153.631Z" transform="translate(-287.037 -148.132)" opacity="0.2"/>
            </g>
            <path id="Trazado_116453" data-name="Trazado 116453" d="M290.649,132.565c-5.214,2.994-2.5,5.989-2.5,5.989s-2.215,5.96.724,10.063C302.659,132.116,290.649,132.565,290.649,132.565Z" transform="translate(-207.014 -121.136)" fill="#263238"/>
            <path id="Trazado_116454" data-name="Trazado 116454" d="M317.049,146.14c-1.465,10.08-1.809,16.057-7.363,20.788-8.355,7.117-20.488,1.321-22.066-9.019-1.422-9.308,1.212-24.227,11.475-27.346A14.035,14.035,0,0,1,317.049,146.14Z" transform="translate(-207.04 -121.914)" fill="#ffc3bd"/>
            <path id="Trazado_116455" data-name="Trazado 116455" d="M318.849,154.271c-6.49.666-5.263-9.995-3.051-12.085-6.322.106-5.1-4.108-4.326-5.661-10.537,2.219-17.983,2.672-22.737-2.551-3.515-3.861-7.266.462-8.374-3.6,2.55,1.386,7.264-5.546,10.426-2.663s6.3-7.179,11.092-2.883c6.433,5.767,23.459-9.927,21.906,7.376,8.873,7.468-3.05,12.2-2.274,20.132C319.069,155.936,318.849,154.271,318.849,154.271Z" transform="translate(-209.077 -123.74)" fill="#263238"/>
            <path id="Trazado_116456" data-name="Trazado 116456" d="M311.4,134.042a.647.647,0,0,1-.088-1.289,9.194,9.194,0,0,0,5.206-3.6,4.34,4.34,0,0,0,.638-3.679.647.647,0,1,1,1.246-.352,5.65,5.65,0,0,1-.8,4.739,10.378,10.378,0,0,1-6.112,4.176A.722.722,0,0,1,311.4,134.042Z" transform="translate(-200.106 -123.472)" fill="#263238"/>
            <path id="Trazado_116457" data-name="Trazado 116457" d="M314.965,149.818a8.757,8.757,0,0,1-4.892,4.635c-2.908,1.081-4.646-1.454-4.077-4.332.512-2.59,2.642-6.275,5.675-6.121C314.661,144.152,316.1,147.191,314.965,149.818Z" transform="translate(-201.543 -117.763)" fill="#ffc3bd"/>
            <path id="Trazado_116458" data-name="Trazado 116458" d="M299.034,143.1c-.069.825-.562,1.453-1.1,1.4s-.922-.759-.853-1.584.562-1.454,1.1-1.405S299.1,142.27,299.034,143.1Z" transform="translate(-204.145 -118.497)" fill="#263238"/>
            <path id="Trazado_116459" data-name="Trazado 116459" d="M291.414,142.91c-.069.825-.562,1.454-1.1,1.4s-.922-.759-.853-1.584.562-1.454,1.1-1.4S291.482,142.085,291.414,142.91Z" transform="translate(-206.394 -118.551)" fill="#263238"/>
            <path id="Trazado_116460" data-name="Trazado 116460" d="M294.294,143.4s-2.274,4.589-4.532,6.7c1.347,1.5,3.883,1.1,3.883,1.1Z" transform="translate(-206.303 -117.937)" fill="#ed847e"/>
            <path id="Trazado_116461" data-name="Trazado 116461" d="M301.959,141.661a.472.472,0,0,0,.245-.03.483.483,0,0,0,.268-.632,4.874,4.874,0,0,0-3.294-3.006.481.481,0,0,0-.571.379.492.492,0,0,0,.381.575h0a3.9,3.9,0,0,1,2.584,2.409A.489.489,0,0,0,301.959,141.661Z" transform="translate(-203.695 -119.537)" fill="#263238"/>
            <path id="Trazado_116462" data-name="Trazado 116462" d="M288.242,140.542a.481.481,0,0,0,.455-.066,3.815,3.815,0,0,1,3.437-.681.483.483,0,0,0,.619-.291.489.489,0,0,0-.29-.624,4.785,4.785,0,0,0-4.35.812.491.491,0,0,0,.13.851Z" transform="translate(-206.847 -119.334)" fill="#263238"/>
            <g id="Grupo_79841" data-name="Grupo 79841" transform="translate(93.018 59.209)">
              <path id="Trazado_116463" data-name="Trazado 116463" d="M313.9,169.457a.036.036,0,0,1-.012.023c-.17.249-2,3.088-4.616,7.386a20.385,20.385,0,0,1-9.378,4.92c.521-1.73-1.028-7.59-2.748-9.388C301.192,172.6,306.769,171.911,313.9,169.457Z" transform="translate(-297.142 -169.457)" fill="#407bff"/>
              <path id="Trazado_116464" data-name="Trazado 116464" d="M313.9,169.457a.036.036,0,0,1-.012.023c-.17.249-2,3.088-4.616,7.386a20.385,20.385,0,0,1-9.378,4.92c.521-1.73-1.028-7.59-2.748-9.388C301.192,172.6,306.769,171.911,313.9,169.457Z" transform="translate(-297.142 -169.457)" fill="#fff" opacity="0.3"/>
            </g>
            <g id="Grupo_79842" data-name="Grupo 79842" transform="translate(81.864 59.548)">
              <path id="Trazado_116465" data-name="Trazado 116465" d="M299.65,172.321a14.968,14.968,0,0,0-8.066,8.585,5.563,5.563,0,0,1-3.054-3.348c.6-3.45,1.73-6.131,3.427-7.839C292.9,170.918,295.453,172.094,299.65,172.321Z" transform="translate(-288.53 -169.719)" fill="#407bff"/>
              <path id="Trazado_116466" data-name="Trazado 116466" d="M299.65,172.321a14.968,14.968,0,0,0-8.066,8.585,5.563,5.563,0,0,1-3.054-3.348c.6-3.45,1.73-6.131,3.427-7.839C292.9,170.918,295.453,172.094,299.65,172.321Z" transform="translate(-288.53 -169.719)" fill="#fff" opacity="0.3"/>
            </g>
            <path id="Trazado_116467" data-name="Trazado 116467" d="M330.982,175.643c2.589,2.946,4.811,5.783,7.066,8.8,2.212,3.007,4.379,6.065,6.4,9.291a102.355,102.355,0,0,1,5.771,10.172,60.717,60.717,0,0,1,2.528,5.772,36.862,36.862,0,0,1,1.926,7.158l.1.641a7.772,7.772,0,0,1-.372,3.821,37.615,37.615,0,0,1-6.267,10.768,47.1,47.1,0,0,1-3.743,4.174c-1.293,1.3-2.594,2.536-3.945,3.689a83.25,83.25,0,0,1-8.368,6.29,76.6,76.6,0,0,1-9.04,5.148,5.193,5.193,0,0,1-6.059-8.2l.232-.25c2.009-2.173,4.225-4.508,6.224-6.8,2.027-2.309,3.989-4.628,5.762-6.983a60.838,60.838,0,0,0,4.72-7.018,23.415,23.415,0,0,0,2.623-6.385l-.272,4.462a23.865,23.865,0,0,0-1.309-3.041c-.631-1.215-1.344-2.542-2.149-3.866s-1.672-2.68-2.59-4.029c-.895-1.36-1.839-2.725-2.814-4.084-1.957-2.709-3.972-5.449-6.053-8.153l-6.218-8.023-.127-.163a10.362,10.362,0,0,1,15.974-13.187Z" transform="translate(-199.493 -109.459)" fill="#263238"/>
            <path id="Trazado_116468" data-name="Trazado 116468" d="M325.347,233.181a2.381,2.381,0,0,0-.47-1.55l-2.832-3.9a2.426,2.426,0,0,0-2.41-.956l-4,.755a27.525,27.525,0,0,0-10.814,4.591l-1.07.758a4.027,4.027,0,0,0-.908,5.683l2.949,3.981a4.026,4.026,0,0,0,5.077,1.185l5.175-2.659S325,238.228,325.347,233.181Z" transform="translate(-202.677 -93.343)" fill="#ffc3bd"/>
            <path id="Trazado_116469" data-name="Trazado 116469" d="M319.618,225.772a18.762,18.762,0,0,0-5.655.115c-1.158,2.965,3.734,11.885,6.249,13.436,1.6-.37,5.263-3.51,5.263-3.51C323.326,232.95,321.092,227.96,319.618,225.772Z" transform="translate(-199.211 -93.678)" fill="#407bff"/>
            <path id="Trazado_116470" data-name="Trazado 116470" d="M244.837,175.288a18.8,18.8,0,0,0-.737-5.607c-3.073-.825-11.4,5.019-12.666,7.689.545,1.552,4.068,4.845,4.068,4.845C238.11,179.762,242.825,176.993,244.837,175.288Z" transform="translate(-223.517 -110.205)" fill="#407bff"/>
            <path id="Trazado_116471" data-name="Trazado 116471" d="M354.566,409.869l11.972-6.665-2.744-7.418L350.5,404.8Z" transform="translate(-188.376 -43.45)" fill="#407bff"/>
            <path id="Trazado_116472" data-name="Trazado 116472" d="M308.041,345.55c2.842-47.333,8.308-78.963,6.028-102.292l-39.853-.6s4.051,75.095,6.539,106.363c2.5,31.39,15.911,108.479,15.911,108.479H309S312.366,382.166,308.041,345.55Z" transform="translate(-210.891 -88.644)" fill="#263238"/>
            <path id="Trazado_116473" data-name="Trazado 116473" d="M276.224,415.225s20.037-4.323,21.313-7.22h10.212l.333,10.774h-8.334l-1-.992-1.557.992c-5.092,0-18.439-.2-21.681-1.347A2.286,2.286,0,0,1,276.224,415.225Z" transform="translate(-210.516 -39.844)" fill="#263238"/>
            <path id="Trazado_116474" data-name="Trazado 116474" d="M291.372,410.492l13.736.384.631-7.779-15.931.96Z" transform="translate(-206.289 -41.292)" fill="#407bff"/>
            <path id="Trazado_116475" data-name="Trazado 116475" d="M296.11,152.357a8.89,8.89,0,0,1-1.58-.084.256.256,0,0,1-.212-.313.3.3,0,0,1,.33-.238,7.975,7.975,0,0,0,6.59-2.063.268.268,0,1,1,.391.364A8.394,8.394,0,0,1,296.11,152.357Z" transform="translate(-204.96 -116.12)" fill="#263238"/>
          </g>
        </g>
      </g>
      <g id="Product_iteration" data-name="Product iteration" transform="translate(2066.594 -4788.721)">
        <g id="Grupo_79849" data-name="Grupo 79849">
          <rect id="Rectángulo_34367" data-name="Rectángulo 34367" width="10.723" height="1.295" transform="translate(317.902 318.743)" fill="#4dd0e1"/>
          <rect id="Rectángulo_34368" data-name="Rectángulo 34368" width="24.087" height="1.295" transform="translate(336.573 318.743)" fill="#4dd0e1"/>
          <path id="Trazado_116476" data-name="Trazado 116476" d="M427.351,270.25H277.082L252.9,314.994a2.976,2.976,0,0,0,2.619,4.392H427.351l12.284-24.567Z" transform="translate(-58.866 -3.989)" fill="#4dd0e1"/>
          <g id="Grupo_79845" data-name="Grupo 79845" transform="translate(187.551 0.158)">
            <path id="Trazado_116477" data-name="Trazado 116477" d="M260.326,114.07a108.789,108.789,0,0,1,98.66,102.23,2.969,2.969,0,0,0,4.292,2.506l18.25-9.118a4.822,4.822,0,0,1,4.389,0l17.922,8.955a2.987,2.987,0,0,0,4.313-2.8c-3.244-80.906-67.688-146.306-148.2-151.056L247.812,89.06Z" transform="translate(-247.812 -64.787)" fill="#1565c0"/>
            <path id="Trazado_116478" data-name="Trazado 116478" d="M260.326,114.07a108.789,108.789,0,0,1,98.66,102.23,2.969,2.969,0,0,0,4.292,2.506l18.25-9.118a4.822,4.822,0,0,1,4.389,0l17.922,8.955a2.987,2.987,0,0,0,4.313-2.8c-3.244-80.906-67.688-146.306-148.2-151.056L247.812,89.06Z" transform="translate(-247.812 -64.787)" fill="#1565c0" opacity="0.6"/>
          </g>
          <g id="Grupo_79846" data-name="Grupo 79846" transform="translate(32.757)">
            <path id="Trazado_116479" data-name="Trazado 116479" d="M177.576,212.492a108.788,108.788,0,0,1,102.243-98.658,2.971,2.971,0,0,0,2.506-4.295L273.194,91.29a4.962,4.962,0,0,1,0-4.406l8.952-17.9a2.987,2.987,0,0,0-2.8-4.314c-80.889,3.261-146.287,67.688-151.054,148.186l24.273,12.135Z" transform="translate(-128.292 -64.665)" fill="#148cc6"/>
            <path id="Trazado_116480" data-name="Trazado 116480" d="M177.576,212.492a108.788,108.788,0,0,1,102.243-98.658,2.971,2.971,0,0,0,2.506-4.295L273.194,91.29a4.962,4.962,0,0,1,0-4.406l8.952-17.9a2.987,2.987,0,0,0-2.8-4.314c-80.889,3.261-146.287,67.688-151.054,148.186l24.273,12.135Z" transform="translate(-128.292 -64.665)" fill="#148cc6" opacity="0.4"/>
          </g>
          <g id="Grupo_79847" data-name="Grupo 79847" transform="translate(0 160.784)">
            <path id="Trazado_116481" data-name="Trazado 116481" d="M283.444,293.861h-.017a108.827,108.827,0,0,1-98.658-102.229,2.971,2.971,0,0,0-4.295-2.506l-18.232,9.116a5.052,5.052,0,0,1-2.212.523,4.98,4.98,0,0,1-2.194-.523l-17.921-8.955a2.987,2.987,0,0,0-4.314,2.8,157.173,157.173,0,0,0,43.322,102.2H103l12.432,24.88-11.989,23.978H283.8L295.94,318.87Z" transform="translate(-103 -188.809)" fill="#039be5"/>
            <path id="Trazado_116482" data-name="Trazado 116482" d="M283.444,293.861h-.017a108.827,108.827,0,0,1-98.658-102.229,2.971,2.971,0,0,0-4.295-2.506l-18.232,9.116a5.052,5.052,0,0,1-2.212.523,4.98,4.98,0,0,1-2.194-.523l-17.921-8.955a2.987,2.987,0,0,0-4.314,2.8,157.173,157.173,0,0,0,43.322,102.2H103l12.432,24.88-11.989,23.978H283.8L295.94,318.87Z" transform="translate(-103 -188.809)" fill="#039be5" opacity="0.2"/>
          </g>
          <g id="Grupo_79848" data-name="Grupo 79848" transform="translate(193.398 154.936)">
            <path id="Trazado_116483" data-name="Trazado 116483" d="M357.38,196.791v.017a108.813,108.813,0,0,1-102.23,98.658,2.971,2.971,0,0,0-2.506,4.293l9.118,18.25a4.91,4.91,0,0,1,0,4.389l-8.953,17.921a2.987,2.987,0,0,0,2.8,4.314c80.906-3.246,146.306-67.689,151.057-148.2L382.39,184.294Z" transform="translate(-252.326 -184.294)" fill="#407bff"/>
            <path id="Trazado_116484" data-name="Trazado 116484" d="M357.38,196.791v.017a108.813,108.813,0,0,1-102.23,98.658,2.971,2.971,0,0,0-2.506,4.293l9.118,18.25a4.91,4.91,0,0,1,0,4.389l-8.953,17.921a2.987,2.987,0,0,0,2.8,4.314c80.906-3.246,146.306-67.689,151.057-148.2L382.39,184.294Z" transform="translate(-252.326 -184.294)" fill="#4dd0e1" opacity="0.8"/>
          </g>
        </g>
      </g>
      <g id="Character_1" data-name="Character 1" transform="translate(2077.047 -4696.639)">
        <g id="Grupo_79853" data-name="Grupo 79853" transform="translate(0 0)">
          <path id="Trazado_116485" data-name="Trazado 116485" d="M276.713,195.942l-7.087-20.274-10.77,1a51.439,51.439,0,0,0-9.093-10.169l2.212-10.6-19.347-9.325-6.911,8.332a51.43,51.43,0,0,0-13.625-.78l-5.923-9.047L185.9,152.169l1,10.768a51.491,51.491,0,0,0-10.169,9.1l-10.6-2.212-9.325,19.347,8.333,6.912a51.474,51.474,0,0,0-.781,13.624l-9.048,5.923L162.4,235.9l10.763-1a51.428,51.428,0,0,0,9.1,10.175l-2.212,10.594,19.347,9.325,6.912-8.332a51.528,51.528,0,0,0,13.624.777l5.923,9.049,20.274-7.087-1-10.765a51.45,51.45,0,0,0,10.175-9.1l10.594,2.211,9.325-19.347-8.33-6.91a51.435,51.435,0,0,0,.777-13.626ZM223.82,228.108a23.651,23.651,0,1,1,14.518-30.121A23.655,23.655,0,0,1,223.82,228.108Z" transform="translate(-98.014 -133.013)" fill="#0e529f"/>
          <g id="Grupo_79852" data-name="Grupo 79852">
            <path id="Trazado_116486" data-name="Trazado 116486" d="M153.853,196.324c-.62.96-1.369,2.207-2.058,3.338q-1.041,1.756-2.035,3.559-2,3.6-3.818,7.31a149.147,149.147,0,0,0-6.477,15.184c-.821,2.04.025.826-.956-.465-.431-.523-.72-.508-.565-.425a3.122,3.122,0,0,0,.929.329,29.218,29.218,0,0,0,7.293.26c5.38-.329,11.059-1.149,16.583-2.033l.092-.016a2.9,2.9,0,0,1,1.554,5.55,92.774,92.774,0,0,1-17.1,5.279c-1.51.282-3.049.523-4.665.68a24.926,24.926,0,0,1-5.231.017,13.724,13.724,0,0,1-3.238-.741,8.673,8.673,0,0,1-4.008-2.919,7.788,7.788,0,0,1-1.316-2.86,8.749,8.749,0,0,1-.184-2.721,11.643,11.643,0,0,1,.389-2.057l.307-1.081a117.322,117.322,0,0,1,6.121-16.9q1.83-4.1,4-8.061,1.088-1.974,2.254-3.923c.8-1.328,1.559-2.528,2.551-3.949a5.827,5.827,0,0,1,9.679,6.489Z" transform="translate(-105.89 -120.586)" fill="#7f3e3b"/>
            <path id="Trazado_116487" data-name="Trazado 116487" d="M169.206,222.074l-2.7,2.247a4.09,4.09,0,0,1-3.654.811l-5.969-1.572a7.614,7.614,0,0,1-5.19-4.682l-.539-1.43c4.222-4.032,11.757-5.278,11.757-5.278l2.107-.593a3.4,3.4,0,0,1,4.271,2.266l1.23,4.163A3.914,3.914,0,0,1,169.206,222.074Z" transform="translate(-99.24 -113.429)" fill="#7f3e3b"/>
            <path id="Trazado_116488" data-name="Trazado 116488" d="M153.994,161.066c1.86,6.877,4.144,19.478-.325,24.066,0,0-3.431,6.447,16.85,5.406,14.2-.729,4.524-5.4,4.524-5.4-7.8-1.831-8.031-7.521-7.093-12.865Z" transform="translate(-98.563 -128.295)" fill="#7f3e3b"/>
            <g id="Grupo_79850" data-name="Grupo 79850" transform="translate(0 129.757)">
              <path id="Trazado_116489" data-name="Trazado 116489" d="M134.992,384.248l-13.15-4.839c-1.153,10.16-5.276,25.654-5.276,25.654l9.221,3.953S131.932,390.436,134.992,384.248Z" transform="translate(-109.449 -193.611)" fill="#7f3e3b"/>
              <path id="Trazado_116490" data-name="Trazado 116490" d="M129.566,419.079c-7.036-5.151-6.458-4.893-10.324-7.928-3.305-2.6-4.394-2.752-7.074-4.808-2.242-1.715-.723-3.945,1.628-6.069.9-.815,2.022-1.72,3.313-2.9a2.085,2.085,0,0,1,2.664-.136l8.232,6.026a2.406,2.406,0,0,1,.982,1.925,14.684,14.684,0,0,0,4.815,10.581C137.251,419.079,132.371,421.133,129.566,419.079Z" transform="translate(-111.07 -188.471)" fill="#263238"/>
              <path id="Trazado_116491" data-name="Trazado 116491" d="M191.163,235.951s-13.849,71.3-24.583,104.523c-11.274,34.892-27.741,73.722-35.216,96.46-2.314.3-8.939-2.463-12.174-5.219,0,0,4.941-59.615,21.819-90.4C139.3,251.482,156.4,235.951,156.4,235.951Z" transform="translate(-108.674 -235.951)" fill="#407bff"/>
              <path id="Trazado_116492" data-name="Trazado 116492" d="M191.163,235.951s-13.849,71.3-24.583,104.523c-11.274,34.892-27.741,73.722-35.216,96.46-2.314.3-8.939-2.463-12.174-5.219,0,0,4.941-59.615,21.819-90.4C139.3,251.482,156.4,235.951,156.4,235.951Z" transform="translate(-108.674 -235.951)" opacity="0.3"/>
              <path id="Trazado_116493" data-name="Trazado 116493" d="M155.351,256.6l14.306,27.2c-3.265,14.306-6.884,29.1-10.334,41.167C148.905,296.018,155.351,256.6,155.351,256.6Z" transform="translate(-98.584 -229.856)" opacity="0.2"/>
              <path id="Trazado_116494" data-name="Trazado 116494" d="M134.536,389.557a31.008,31.008,0,0,0-.932,4.744.906.906,0,0,1-1.2.768c-5.05-1.269-11.72-5.2-13.824-6.485a1.172,1.172,0,0,1-.575-1.12l.583-4.558a.927.927,0,0,1,1.357-.673l13.872,6A1.171,1.171,0,0,1,134.536,389.557Z" transform="translate(-109.025 -192.807)" fill="#263238"/>
            </g>
            <g id="Grupo_79851" data-name="Grupo 79851" transform="translate(52.229 129.757)">
              <path id="Trazado_116495" data-name="Trazado 116495" d="M186.53,387.865l-12.628.927c2.07,10.075,4.227,25.982,4.227,25.982h10.033S186.375,394.758,186.53,387.865Z" transform="translate(-144.756 -191.116)" fill="#7f3e3b"/>
              <path id="Trazado_116496" data-name="Trazado 116496" d="M198.558,419.023c-8.72,0-8.091-.135-12.99-.3-4.195-.15-5.2.374-8.571.3-2.817-.06-2.708-2.757-1.835-5.859.333-1.189.807-2.581,1.281-4.293a2.285,2.285,0,0,1,2.194-1.685h10.2a2.209,2.209,0,0,1,1.856.974,13.409,13.409,0,0,0,9.714,5.695C205.1,414.483,202.034,419.023,198.558,419.023Z" transform="translate(-144.545 -185.414)" fill="#263238"/>
              <path id="Trazado_116497" data-name="Trazado 116497" d="M192.4,235.951s1.58,62.129,3,100.821-1.618,107.079-1.618,107.079c-.282,1.878-10.144,1.129-11.817,0,0,0-18.843-55.429-11.643-103.378-25.221-62.191-17.948-103-17.948-103Z" transform="translate(-151.398 -235.951)" fill="#407bff"/>
              <path id="Trazado_116498" data-name="Trazado 116498" d="M192.4,235.951s1.58,62.129,3,100.821-1.618,107.079-1.618,107.079c-.282,1.878-10.144,1.129-11.817,0,0,0-18.843-55.429-11.643-103.378-25.221-62.191-17.948-103-17.948-103Z" transform="translate(-151.398 -235.951)" opacity="0.3"/>
              <path id="Trazado_116499" data-name="Trazado 116499" d="M188.693,392.688c.038,1.277.114,3.553.234,5.234a1.07,1.07,0,0,1-.933,1.123c-4.181.576-10.851.054-13.039-.144a.956.956,0,0,1-.859-.778l-.885-4.578a1.072,1.072,0,0,1,1.008-1.255l13.459-.536A.958.958,0,0,1,188.693,392.688Z" transform="translate(-144.965 -189.968)" fill="#263238"/>
            </g>
            <path id="Trazado_116500" data-name="Trazado 116500" d="M150.1,227.826a91.087,91.087,0,0,1-1.335,10.847h43.944l.464-11.178S159.307,225.571,150.1,227.826Z" transform="translate(-99.945 -108.916)" fill="#7f3e3b"/>
            <path id="Trazado_116501" data-name="Trazado 116501" d="M199.823,196.18a188.023,188.023,0,0,1-.308,20.256c-.365,8.8,1.311,10.953-.04,25.373-4.813,2.821-36.511,2.711-52.1.7.947-12.473,2.11-20.887-6.342-48.951-1.96-6.507,2.412-12.757,9.388-13.423,1.865-.177,3.844-.326,5.873-.418a159.347,159.347,0,0,1,21.374,0c2.323.2,4.731.474,7.033.775C193.01,181.572,199.567,188.378,199.823,196.18Z" transform="translate(-102.365 -122.899)" fill="#263238"/>
            <path id="Trazado_116502" data-name="Trazado 116502" d="M240.07,218.88l-1.76-3.038a4.089,4.089,0,0,0-3.151-2.02l-6.144-.582a7.619,7.619,0,0,0-6.486,2.607l-1,1.157c2.575,5.24,9.219,9.005,9.219,9.005l1.774,1.283a3.4,3.4,0,0,0,4.791-.655l2.589-3.484A3.919,3.919,0,0,0,240.07,218.88Z" transform="translate(-78.47 -112.907)" fill="#7f3e3b"/>
            <path id="Trazado_116503" data-name="Trazado 116503" d="M191.943,195.522l.561.887c.25.372.488.764.773,1.149.536.777,1.146,1.549,1.774,2.307a60.169,60.169,0,0,0,4.082,4.435c1.474,1.41,3.009,2.785,4.628,4.087s3.313,2.533,5.047,3.734l-1.011-.469a73.609,73.609,0,0,0,7.268,2.224c2.571.663,5.183,1.338,7.823,1.948l7.943,1.883c2.65.657,5.331,1.259,7.969,1.931l.026.007a2.909,2.909,0,0,1-.717,5.727c-2.805,0-5.561-.137-8.343-.262-2.773-.15-5.543-.373-8.321-.636-2.773-.282-5.559-.6-8.361-1.04a65.294,65.294,0,0,1-8.676-1.82,3.645,3.645,0,0,1-.742-.315l-.269-.155c-1.056-.6-2.121-1.189-3.171-1.814-1.034-.654-2.077-1.289-3.079-2a59.416,59.416,0,0,1-5.854-4.555,51.981,51.981,0,0,1-5.282-5.4c-.815-.988-1.606-2-2.357-3.086-.379-.532-.747-1.1-1.106-1.68-.177-.3-.351-.585-.53-.917-.19-.347-.32-.576-.6-1.146a5.805,5.805,0,0,1,10.132-5.633Z" transform="translate(-90.479 -119.105)" fill="#7f3e3b"/>
            <path id="Trazado_116504" data-name="Trazado 116504" d="M177.215,180.722c8.544,2.265,15.874,9.59,25.93,24.056-1.4,5.914-14.275,12.731-14.275,12.731S162.112,190.867,177.215,180.722Z" transform="translate(-92.912 -122.494)" fill="#263238"/>
            <path id="Trazado_116505" data-name="Trazado 116505" d="M171.18,151.65c.32.894,1.05,1.486,1.631,1.321s.791-1.022.471-1.916-1.05-1.484-1.632-1.32S170.859,150.757,171.18,151.65Z" transform="translate(-93.374 -131.647)" fill="#263238"/>
            <path id="Trazado_116506" data-name="Trazado 116506" d="M171.325,150.1l1.912-1.221S172.743,150.866,171.325,150.1Z" transform="translate(-93.287 -131.892)" fill="#263238"/>
            <path id="Trazado_116507" data-name="Trazado 116507" d="M171.667,152.5a27.859,27.859,0,0,0,5.212,4.808c-.778,1.432-2.952,1.493-2.952,1.493Z" transform="translate(-93.186 -130.824)" fill="#630f0f"/>
            <path id="Trazado_116508" data-name="Trazado 116508" d="M171.309,145.917a.515.515,0,0,0,.325-.232.547.547,0,0,0-.216-.745,5.8,5.8,0,0,0-5.111-.582.5.5,0,0,0-.237.711.6.6,0,0,0,.756.273,4.634,4.634,0,0,1,4.043.5A.6.6,0,0,0,171.309,145.917Z" transform="translate(-94.857 -133.326)" fill="#263238"/>
            <path id="Trazado_116509" data-name="Trazado 116509" d="M147.728,159.743c4.27,10.461,5.854,14.967,13.129,18.914,10.944,5.938,22.924-.839,21.881-12.181-.939-10.21-7.764-25.6-19.711-26.9C151.259,138.3,143.458,149.282,147.728,159.743Z" transform="translate(-100.6 -134.668)" fill="#7f3e3b"/>
            <path id="Trazado_116510" data-name="Trazado 116510" d="M173.8,160.588c3.5,7.7,3.05,29.5-16.54,22.739s-18.224-17.4-12.935-25.889c-10.633-9.514,3.1-17.07,15.731-20.506S183.76,136.572,173.8,160.588Z" transform="translate(-102.377 -135.763)" fill="#263238"/>
            <path id="Trazado_116511" data-name="Trazado 116511" d="M155.172,155.941a8.367,8.367,0,1,1-9.862-6.539A8.369,8.369,0,0,1,155.172,155.941Z" transform="translate(-102.945 -131.788)" fill="#407bff"/>
            <path id="Trazado_116512" data-name="Trazado 116512" d="M155.62,171.622c3.834-7.77.716-17.442-5.3-23.679-11.406-11.831-27.133-4.058-22.794,7.639,5.177,13.953-22.125,28.282-6.211,36.553,15.57,8.091,41.409-6.184,34.163-20.234C155.528,171.807,155.575,171.714,155.62,171.622Z" transform="translate(-109.535 -133.907)" fill="#263238"/>
            <path id="Trazado_116513" data-name="Trazado 116513" d="M163.07,156.963a7.765,7.765,0,0,0,5.12,3.632c2.641.418,3.453-2.643,2.295-5.5-1.043-2.57-3.674-5.884-6.12-4.986C161.955,150.994,161.509,154.506,163.07,156.963Z" transform="translate(-95.993 -131.573)" fill="#7f3e3b"/>
            <path id="Trazado_116514" data-name="Trazado 116514" d="M151.712,180.036c-7.662,1.184-10.734,3.515-17,18.914,2.843,5.744,16.148,11.238,16.148,11.238S159.675,190.242,151.712,180.036Z" transform="translate(-104.092 -122.697)" fill="#263238"/>
            <path id="Trazado_116515" data-name="Trazado 116515" d="M194.1,239.675a211.555,211.555,0,0,1-47.262-.1,1.073,1.073,0,0,1-.82-1.5q.579-1.358,1.146-2.718a.989.989,0,0,1,1.015-.628,207.243,207.243,0,0,0,45.44,0,1.019,1.019,0,0,1,1.1.949L195,238.5A1.062,1.062,0,0,1,194.1,239.675Z" transform="translate(-100.782 -106.556)" fill="#263238"/>
          </g>
        </g>
      </g>
    </g>
  </g>
</svg>
