<svg xmlns="http://www.w3.org/2000/svg" xmlns:xlink="http://www.w3.org/1999/xlink" width="610" height="244" viewBox="0 0 610 244">
  <defs>
    <clipPath id="clip-path">
      <rect id="Rectángulo_33976" data-name="Rectángulo 33976" width="610" height="244" transform="translate(810 6286)" fill="#f6f6f6"/>
    </clipPath>
  </defs>
  <g id="Grupo_79938" data-name="Grupo 79938" transform="translate(-810 -6127)">
    <rect id="Rectángulo_33975" data-name="Rectángulo 33975" width="610" height="244" transform="translate(810 6127)" fill="#f6f6f6"/>
    <g id="Enmascarar_grupo_8" data-name="Enmascarar grupo 8" transform="translate(0 -159)" clip-path="url(#clip-path)">
      <g id="Grupo_79404" data-name="Grupo 79404" transform="translate(499.5 5962.546)">
        <g id="Grupo_79472" data-name="Grupo 79472" transform="translate(326.335 338.739)">
          <path id="Trazado_116151" data-name="Trazado 116151" d="M506.341,671.5H347.014a20.679,20.679,0,0,1-20.679-20.679v-.535a21.34,21.34,0,0,1,21.317-21.423h66.509a9.72,9.72,0,0,0,9.72-9.721h0a9.721,9.721,0,0,0-9.721-9.721h-3.092A14.728,14.728,0,0,1,396.34,594.7h0a14.728,14.728,0,0,1,14.728-14.728h24.995a17.409,17.409,0,0,0,17.409-17.408v-.81a17.55,17.55,0,0,1,17.516-17.673h.429a11.269,11.269,0,0,0,11.269-11.27V507.364A35.208,35.208,0,0,1,517.9,472.156h90.887a20.776,20.776,0,0,1,20.776,20.794l-.009,10.119a12.3,12.3,0,0,0,12.3,12.313h.763a11.949,11.949,0,0,1,12.066,11.926q0,.251,0,.5a22.742,22.742,0,0,0,22.741,22.76H723.2A13.527,13.527,0,0,1,736.727,564.1v.35a13.959,13.959,0,0,1-13.944,14.013h-45.7a12.35,12.35,0,0,0-12.35,12.35h0a12.35,12.35,0,0,0,12.35,12.35H799.5a11.707,11.707,0,0,1,11.707,11.707h0a11.707,11.707,0,0,0,11.707,11.707h42.123A22.464,22.464,0,0,1,887.5,649.04h0A22.463,22.463,0,0,1,865.037,671.5Z" transform="translate(-326.335 -449.789)" fill="#e8e8e8"/>
          <rect id="Rectángulo_34085" data-name="Rectángulo 34085" width="86.328" height="41.694" rx="20.847" transform="translate(163.321 59.733)" fill="#fff"/>
          <g id="Grupo_79405" data-name="Grupo 79405" transform="translate(330.019 54.62)">
            <path id="Trazado_116152" data-name="Trazado 116152" d="M2366.651,836.681a5.754,5.754,0,0,0-6.879,4.348l-.006.027c-.217.963-.419,1.9-.623,2.843l-.6,2.825q-.589,2.824-1.15,5.648-.866,4.354-1.667,8.716a2.954,2.954,0,0,1-1.366,1.988l-17.887,10.907a1.668,1.668,0,0,0,1.49,2.972l22.463-9.028h0a2.955,2.955,0,0,0,1.665-1.7l.226-.6q2-5.319,4.086-10.6,1.044-2.639,2.114-5.263l1.075-2.619c.36-.868.724-1.744,1.084-2.59a6.21,6.21,0,0,0,.32-.991A5.754,5.754,0,0,0,2366.651,836.681Z" transform="translate(-2328.837 -807.705)" fill="#123d5e"/>
            <path id="Trazado_116153" data-name="Trazado 116153" d="M2544.8,883.788c-4.614-13.715.35-23.855,1.625-34.76.534-4.573,2.3-14.642-9.417-15.508-14.459-1.068-11.822,10.868-11.314,18,.695,9.753,2.448,25.571,5.656,31.567Z" transform="translate(-2486.569 -805.137)" fill="#123d5e"/>
            <path id="Trazado_116154" data-name="Trazado 116154" d="M2497.694,856.278l2.929-.111A11.94,11.94,0,0,0,2512.1,844.83c.255-5.158.612-10.27.831-14.939.235-5.021,1.6-16.139-15.253-15.781-20.79.442-15.64,13.1-14.09,20.78.545,2.7,1.176,6.969,1.855,11.3A11.945,11.945,0,0,0,2497.694,856.278Z" transform="translate(-2450.533 -789.03)" fill="#97bad5"/>
            <g id="Grupo_79404-2" data-name="Grupo 79404" transform="translate(40.004 14.373)">
              <path id="Trazado_116155" data-name="Trazado 116155" d="M2538.766,764.48a2.353,2.353,0,0,1-2.122-1.332,40.469,40.469,0,0,1-3.109-10.157,2.353,2.353,0,0,1,4.653-.709h0a36.189,36.189,0,0,0,2.7,8.823,2.354,2.354,0,0,1-2.118,3.375Z" transform="translate(-2533.508 -750.283)" fill="#123d5e"/>
            </g>
            <path id="Trazado_116156" data-name="Trazado 116156" d="M2491.168,670.936A9.01,9.01,0,1,0,2475,678.473a36.943,36.943,0,0,1-.464,5.052.447.447,0,0,0,.577.437l2.269-.263,2.409,5.018a1.431,1.431,0,0,0,1.837.775l3.286-2.053c1.709-1.079,2.5-1.683,2.691-3.179l.328-3.469A9.013,9.013,0,0,0,2491.168,670.936Z" transform="translate(-2443.586 -664.548)" fill="#97bad5"/>
            <path id="Trazado_116157" data-name="Trazado 116157" d="M2451.076,1124.188l-4.524,9.5-4.553,9.492-9.106,18.984.29-1.012-4.1,20.915-2.049,10.458-2.08,10.453a2.446,2.446,0,0,1-4.83-.746l1.17-10.593,1.2-10.588,2.4-21.177.04-.354.25-.658,7.474-19.684,3.738-9.842,3.766-9.83a5.939,5.939,0,1,1,11.091,4.25C2451.205,1123.9,2451.14,1124.053,2451.076,1124.188Z" transform="translate(-2399.119 -1040.062)" fill="#123d5e"/>
            <path id="Trazado_116158" data-name="Trazado 116158" d="M2549.041,1112.682c2.068-.318,7.038.239,7.266,5.042l.56,1.265c.694,4.975-4,9.743-10.488,10.648h0c-3.79.391-11.5-2.348-12.193-7.323l-.444-3.223c-.285-2.042,2.276-5.483,4.313-5.8Z" transform="translate(-2493.679 -1037.494)" fill="#97bad5"/>
            <path id="Trazado_116159" data-name="Trazado 116159" d="M2601.411,1130.611l-6.037,42.1-.158-1.639,9.568,37.6a2.446,2.446,0,0,1-4.677,1.417L2587.2,1173.5l-.22-.623.062-1.016,2.566-42.452a5.939,5.939,0,0,1,11.857.717C2601.451,1130.286,2601.433,1130.455,2601.411,1130.611Z" transform="translate(-2538.008 -1046.832)" fill="#123d5e"/>
            <rect id="Rectángulo_34086" data-name="Rectángulo 34086" width="25.288" height="25.511" transform="translate(0 64.385)" fill="#f15625"/>
            <path id="Trazado_116160" data-name="Trazado 116160" d="M2449.614,846.13l-1.056,2.019c-.672,1.278-1.635,3.1-2.807,5.277s-2.553,4.716-4.084,7.432c-.767,1.359-1.571,2.761-2.428,4.195-.43.718-.872,1.443-1.345,2.186-.237.372-.483.749-.749,1.14s-.544.791-.922,1.274c-.1.125-.2.251-.329.4s-.272.312-.5.53c-.064.062-.121.115-.193.181l-.124.107c-.042.036-.078.066-.14.115l-.171.13-.1.072-.123.081-.125.078c-.04.024-.205.12-.139.081l-.035.017-.276.132-.278.133-.312.145-.624.289-2.264,1.006-4.351,1.9-7.706,3.32-7.521,3.22a2.583,2.583,0,0,1-2.316-4.606l.006,0,7.061-4.109,7.223-4.227,4.052-2.395,2.043-1.227.455-.283.228-.141.257-.164.258-.165.032-.021-.106.061-.093.057-.09.06-.071.05c-.038.027-.075.054-.111.083l-.082.065-.066.056c-.036.031-.056.048-.084.074-.08.073-.089.079-.091.071a.483.483,0,0,1,.042-.086c.1-.179.262-.474.416-.774s.32-.634.481-.97c.324-.673.646-1.376.961-2.082.631-1.414,1.238-2.842,1.818-4.231,1.159-2.781,2.209-5.414,3.1-7.674s1.619-4.154,2.126-5.477l.788-2.073.01-.026a5.741,5.741,0,0,1,10.732,4.078A6.289,6.289,0,0,1,2449.614,846.13Z" transform="translate(-2388.468 -808.695)" fill="#123d5e"/>
            <path id="Trazado_116161" data-name="Trazado 116161" d="M2526.846,700.232a3.47,3.47,0,1,1,3.47,3.471A3.47,3.47,0,0,1,2526.846,700.232Z" transform="translate(-2487.959 -691.362)" fill="#1b4e75"/>
          </g>
          <g id="Grupo_79411" data-name="Grupo 79411" transform="translate(336.63 122.359)">
            <path id="Trazado_116162" data-name="Trazado 116162" d="M2383.977,1076.858a3.609,3.609,0,1,0-4.8-1.739A3.608,3.608,0,0,0,2383.977,1076.858Z" transform="translate(-2371.375 -1069.749)" fill="#0e2e47"/>
            <g id="Grupo_79406" data-name="Grupo 79406" transform="translate(0 1.988)">
              <path id="Trazado_116163" data-name="Trazado 116163" d="M2335.179,1084.737a.859.859,0,0,1-.26-1.678l8.029-2.553a.859.859,0,0,1,.521,1.637l-8.029,2.553A.865.865,0,0,1,2335.179,1084.737Z" transform="translate(-2334.32 -1080.466)" fill="#00314e"/>
            </g>
            <g id="Grupo_79407" data-name="Grupo 79407" transform="translate(0 3.402)">
              <path id="Trazado_116164" data-name="Trazado 116164" d="M2335.18,1093.306a.859.859,0,0,1-.254-1.68l8.689-2.691a.859.859,0,1,1,.508,1.641l-8.69,2.691A.858.858,0,0,1,2335.18,1093.306Z" transform="translate(-2334.321 -1088.897)" fill="#00314e"/>
            </g>
            <g id="Grupo_79408" data-name="Grupo 79408" transform="translate(1.43 4.588)">
              <path id="Trazado_116165" data-name="Trazado 116165" d="M2343.706,1100.063a.859.859,0,0,1-.237-1.685l8.253-2.375a.859.859,0,1,1,.475,1.651l-8.253,2.375A.853.853,0,0,1,2343.706,1100.063Z" transform="translate(-2342.848 -1095.969)" fill="#00314e"/>
            </g>
            <g id="Grupo_79409" data-name="Grupo 79409" transform="translate(3.792 5.513)">
              <path id="Trazado_116166" data-name="Trazado 116166" d="M2357.8,1105.527a.859.859,0,0,1-.259-1.678l7.345-2.321a.859.859,0,1,1,.518,1.638l-7.345,2.321A.86.86,0,0,1,2357.8,1105.527Z" transform="translate(-2356.938 -1101.488)" fill="#00314e"/>
            </g>
            <g id="Grupo_79410" data-name="Grupo 79410" transform="translate(3.543)">
              <path id="Trazado_116167" data-name="Trazado 116167" d="M2356.314,1071.123a.859.859,0,0,1-.171-1.7l3.155-.643c3.053-.421,4.05.023,4.336.232a.859.859,0,0,1-.942,1.434,7.452,7.452,0,0,0-3.133.031l-3.073.628A.868.868,0,0,1,2356.314,1071.123Zm6.307-.724h0Zm0,0h0Zm0,0h0Z" transform="translate(-2355.455 -1068.605)" fill="#00314e"/>
            </g>
          </g>
          <g id="Grupo_79412" data-name="Grupo 79412" transform="translate(168.012 62.009)">
            <path id="Trazado_116168" data-name="Trazado 116168" d="M1363.622,723.172a8.147,8.147,0,0,0-.974-3.153l-4.662.349a15.36,15.36,0,0,0-1.821-2.686l2.1-4.248c-.384-.32-.841-.675-1.244-1.02a3.78,3.78,0,0,0-1.27-.974l-3.7,3.2a7.71,7.71,0,0,0-3.068-1.117l-.687-4.769a13,13,0,0,0-3.328-.046l-1.11,4.7a10.432,10.432,0,0,0-3.062.83l-3.308-3.372a18.827,18.827,0,0,0-2.741,1.865l1.868,4.407c-.416.442-.808.88-1.116,1.194-.3.424-.638.971-.925,1.325l-4.721-.645a18.051,18.051,0,0,0-1.047,3.079l4.09,2.492a10.6,10.6,0,0,0-.091,3.157l-4.286,2.232a13.314,13.314,0,0,0,.973,3.154l4.753-.482a9.9,9.9,0,0,0,1.721,2.809l-2.117,4.23a16.894,16.894,0,0,0,1.353,1.032,5.6,5.6,0,0,1,1.212.986l3.655-3.209a14.977,14.977,0,0,0,3.063,1.108l.684,4.765a13.939,13.939,0,0,0,3.326.052l1.137-4.672a18.344,18.344,0,0,0,3.038-.862l3.492,3.213a10.381,10.381,0,0,0,2.633-1.768l-1.869-4.4a9.787,9.787,0,0,0,1.063-1.116c.362-.513.676-1,.9-1.341l4.719.643a11.678,11.678,0,0,0,1.1-3.082l-4.1-2.436a13.991,13.991,0,0,0,.1-3.142Zm-10.94,8.5a8.307,8.307,0,0,1-11.724,1.446,8.379,8.379,0,1,1,11.724-1.446Z" transform="translate(-1328.522 -708.62)" fill="#0089c5"/>
          </g>
          <g id="Grupo_79413" data-name="Grupo 79413" transform="translate(199.14 50.592)">
            <path id="Trazado_116169" data-name="Trazado 116169" d="M1538.682,648.337a5.822,5.822,0,0,0-1.144-2.059l-3.206.93a10.969,10.969,0,0,0-1.667-1.609l.845-3.277c-.315-.167-.686-.348-1.019-.53a2.694,2.694,0,0,0-1.03-.494l-2.115,2.779a5.508,5.508,0,0,0-2.308-.329l-1.181-3.231a9.286,9.286,0,0,0-2.332.458l-.085,3.444a7.45,7.45,0,0,0-2.018,1.03l-2.807-1.869a13.445,13.445,0,0,0-1.641,1.706l1.953,2.8c-.226.37-.435.734-.6,1-.144.339-.3.773-.451,1.062l-3.393.244a12.855,12.855,0,0,0-.279,2.305l3.224,1.139a7.561,7.561,0,0,0,.4,2.219l-2.666,2.19a9.511,9.511,0,0,0,1.144,2.06l3.25-1.036a7.07,7.07,0,0,0,1.615,1.709l-.857,3.267c.335.183.687.349,1.1.522a3.989,3.989,0,0,1,.992.51l2.082-2.78a10.674,10.674,0,0,0,2.3.323l1.179,3.229a9.96,9.96,0,0,0,2.331-.453l.107-3.431a13.106,13.106,0,0,0,2-1.049l2.912,1.731a7.42,7.42,0,0,0,1.579-1.623l-1.954-2.8a6.974,6.974,0,0,0,.578-.936c.178-.412.324-.8.434-1.07l3.392-.245a8.326,8.326,0,0,0,.318-2.315l-3.225-1.1a10,10,0,0,0-.391-2.209Zm-6.393,7.549a5.931,5.931,0,0,1-7.978,2.735,5.982,5.982,0,1,1,7.978-2.735Z" transform="translate(-1514.201 -640.516)" fill="#97bad5"/>
          </g>
          <g id="Grupo_79426" data-name="Grupo 79426" transform="translate(164.758)">
            <rect id="Rectángulo_34087" data-name="Rectángulo 34087" width="85.184" height="12.023" transform="translate(25.365 155.297)" fill="#1b4e75"/>
            <g id="Grupo_79415" data-name="Grupo 79415" transform="translate(0 144.386)">
              <g id="Grupo_79414" data-name="Grupo 79414">
                <rect id="Rectángulo_34088" data-name="Rectángulo 34088" width="260.796" height="27.141" rx="13.571" transform="translate(1.678 1.678)" fill="#fff"/>
                <path id="Trazado_116170" data-name="Trazado 116170" d="M1558.013,1230.5H1324.358a15.249,15.249,0,0,1,0-30.5h233.655a15.249,15.249,0,0,1,0,30.5Zm-233.655-27.141a11.892,11.892,0,0,0,0,23.785h233.655a11.892,11.892,0,1,0,0-23.785Z" transform="translate(-1309.109 -1199.999)" fill="#97bad5"/>
              </g>
              <rect id="Rectángulo_34089" data-name="Rectángulo 34089" width="232.656" height="47.763" transform="translate(15.249 29.565)" fill="#97bad5"/>
              <circle id="Elipse_4791" data-name="Elipse 4791" cx="6.939" cy="6.939" r="6.939" transform="translate(6.555 15.249) rotate(-45)" fill="#97bad5"/>
              <circle id="Elipse_4792" data-name="Elipse 4792" cx="6.939" cy="6.939" r="6.939" transform="translate(239.558 20.408) rotate(-76.717)" fill="#97bad5"/>
              <circle id="Elipse_4793" data-name="Elipse 4793" cx="6.939" cy="6.939" r="6.939" transform="translate(163.823 15.249) rotate(-45)" fill="#97bad5"/>
              <circle id="Elipse_4794" data-name="Elipse 4794" cx="6.939" cy="6.939" r="6.939" transform="translate(80.6 15.249) rotate(-45)" fill="#97bad5"/>
            </g>
            <rect id="Rectángulo_34090" data-name="Rectángulo 34090" width="25.288" height="25.511" transform="translate(132.321 119.005)" fill="#f15625"/>
            <rect id="Rectángulo_34091" data-name="Rectángulo 34091" width="25.288" height="25.511" transform="translate(99.008 119.005)" fill="#f15625"/>
            <g id="Grupo_79425" data-name="Grupo 79425" transform="translate(32.467)">
              <g id="Grupo_79424" data-name="Grupo 79424">
                <rect id="Rectángulo_34092" data-name="Rectángulo 34092" width="21.648" height="16.639" transform="translate(16.749 120.314)" fill="#fcc600"/>
                <path id="Trazado_116171" data-name="Trazado 116171" d="M1639.78,953.4,1622.4,970.564l-20.489-9.277,22.882-22.882a10.6,10.6,0,0,1,14.991,0h0A10.6,10.6,0,0,1,1639.78,953.4Z" transform="translate(-1585.288 -835.289)" fill="#fcc600"/>
                <g id="Grupo_79416" data-name="Grupo 79416" transform="translate(85.438 52.767)">
                  <rect id="Rectángulo_34093" data-name="Rectángulo 34093" width="25.087" height="3.649" transform="translate(2.863) rotate(51.672)" fill="#1b4e75"/>
                  <path id="Trazado_116172" data-name="Trazado 116172" d="M2117.47,809.084l-5.661-7.16,2.078-5.32,5.656-.794,5.661,7.161a.556.556,0,0,0,.99-.4l-.7-7.693-3.625-4.585-12.1,1.1-3.862,11.516,3.625,4.585,7.323,2.461A.556.556,0,0,0,2117.47,809.084Z" transform="translate(-2090.234 -767.362)" fill="#1b4e75"/>
                  <rect id="Rectángulo_34094" data-name="Rectángulo 34094" width="6.386" height="11.377" transform="translate(24.428 25.073) rotate(141.673)" fill="#1b4e75"/>
                </g>
                <g id="Grupo_79417" data-name="Grupo 79417" transform="translate(67.201 31.699)">
                  <path id="Trazado_116173" data-name="Trazado 116173" d="M1905.46,539.4l17.643,19.349a5.1,5.1,0,0,0,7.971-6.33l-14.85-21.567a6.892,6.892,0,0,0-9.992-1.532h0A6.892,6.892,0,0,0,1905.46,539.4Z" transform="translate(-1903.625 -527.82)" fill="#fcc600"/>
                  <path id="Trazado_116174" data-name="Trazado 116174" d="M1931.216,551.023a2.76,2.76,0,1,1-3.878-.445A2.76,2.76,0,0,1,1931.216,551.023Z" transform="translate(-1922.494 -546.264)" fill="#1b4e75"/>
                  <path id="Trazado_116175" data-name="Trazado 116175" d="M2027.841,672.7a2.76,2.76,0,1,1-3.877-.445A2.76,2.76,0,0,1,2027.841,672.7Z" transform="translate(-2002.921 -647.542)" fill="#1b4e75"/>
                </g>
                <g id="Grupo_79418" data-name="Grupo 79418" transform="translate(37.624 30.434)">
                  <path id="Trazado_116176" data-name="Trazado 116176" d="M1744.085,559.492l24.1-27.441a7.118,7.118,0,0,0-10-10.072l-27.6,23.912a9.613,9.613,0,0,0-.581,14.087h0A9.613,9.613,0,0,0,1744.085,559.492Z" transform="translate(-1727.202 -520.276)" fill="#fcc600"/>
                  <path id="Trazado_116177" data-name="Trazado 116177" d="M1759.566,697.978a3.849,3.849,0,1,1-.018,5.444A3.849,3.849,0,0,1,1759.566,697.978Z" transform="translate(-1753.194 -667.256)" fill="#1b4e75"/>
                  <path id="Trazado_116178" data-name="Trazado 116178" d="M1913.31,545.264a3.849,3.849,0,1,1-.018,5.444A3.849,3.849,0,0,1,1913.31,545.264Z" transform="translate(-1881.164 -540.144)" fill="#1b4e75"/>
                </g>
                <g id="Grupo_79419" data-name="Grupo 79419" transform="translate(32.882 51.704)">
                  <path id="Trazado_116179" data-name="Trazado 116179" d="M1726.786,704.3l-3.61-47.592a10.333,10.333,0,0,0-20.607,0l-3.61,47.592a13.953,13.953,0,0,0,13.914,15.009h0A13.954,13.954,0,0,0,1726.786,704.3Z" transform="translate(-1698.918 -647.153)" fill="#fcc600"/>
                  <circle id="Elipse_4795" data-name="Elipse 4795" cx="7.399" cy="7.399" r="7.399" transform="translate(4.288 55.275) rotate(-22.5)" fill="#1b4e75"/>
                  <path id="Trazado_116180" data-name="Trazado 116180" d="M1748.826,690.047a5.588,5.588,0,1,1,5.588,5.588A5.588,5.588,0,0,1,1748.826,690.047Z" transform="translate(-1740.459 -678.205)" fill="#1b4e75"/>
                </g>
                <g id="Grupo_79423" data-name="Grupo 79423" transform="translate(50.604)">
                  <g id="Grupo_79420" data-name="Grupo 79420">
                    <path id="Trazado_116181" data-name="Trazado 116181" d="M1846.9,349.891a1.59,1.59,0,0,1-1.137-.442,27.181,27.181,0,0,0-38.386.843,1.594,1.594,0,0,1-2.3-2.2,30.371,30.371,0,0,1,42.894-.942,1.594,1.594,0,0,1-1.067,2.746Z" transform="translate(-1804.627 -338.739)" fill="#0089c5"/>
                  </g>
                  <g id="Grupo_79421" data-name="Grupo 79421" transform="translate(6.285 8.695)">
                    <path id="Trazado_116182" data-name="Trazado 116182" d="M1857.786,393.795a18.394,18.394,0,0,0-12.925,5.68,1.594,1.594,0,0,1-2.3-2.2,21.663,21.663,0,0,1,30.6-.672,1.594,1.594,0,1,1-2.2,2.3,18.394,18.394,0,0,0-13.162-5.107" transform="translate(-1842.114 -390.602)" fill="#0089c5"/>
                  </g>
                  <g id="Grupo_79422" data-name="Grupo 79422" transform="translate(13.662 18.902)">
                    <path id="Trazado_116183" data-name="Trazado 116183" d="M1901.653,457.4a1.589,1.589,0,0,1-1.137-.442,8.249,8.249,0,0,0-11.649.256,1.594,1.594,0,0,1-2.3-2.2,11.441,11.441,0,0,1,16.157-.355,1.594,1.594,0,0,1-1.067,2.746Z" transform="translate(-1886.121 -451.489)" fill="#0089c5"/>
                  </g>
                </g>
                <rect id="Rectángulo_34095" data-name="Rectángulo 34095" width="59.996" height="5.495" transform="translate(0 138.761)" fill="#1b4e75"/>
              </g>
              <rect id="Rectángulo_34096" data-name="Rectángulo 34096" width="26.991" height="4.311" transform="translate(14.258 134.45)" fill="#123d5e"/>
            </g>
          </g>
          <g id="Grupo_79429" data-name="Grupo 79429" transform="translate(69.967 31.903)">
            <path id="Trazado_116184" data-name="Trazado 116184" d="M855.313,822.146s-.06,6.113.473,6.785,13.955.647,13.955.647l.5-7.05Z" transform="translate(-836.597 -773.008)" fill="#bcd7ec"/>
            <path id="Trazado_116185" data-name="Trazado 116185" d="M833.892,610.956a13.374,13.374,0,0,0-12.762,17.34h-.045s2.722,7.344,3.4,9.864a79.839,79.839,0,0,1,1.88,8.2l14.9.691c.011-.175.168-2.185,1.964-8.892.474-1.77,1.958-5.919,2.8-8.232a13.363,13.363,0,0,0-12.129-18.972Z" transform="translate(-807.646 -597.223)" fill="#fcc600"/>
            <path id="Trazado_116186" data-name="Trazado 116186" d="M861.691,864.574a3.733,3.733,0,0,0,7.023,0h.608a3.592,3.592,0,0,0,2.778-1.31l-13.955-.647A4.212,4.212,0,0,0,861.691,864.574Z" transform="translate(-838.956 -806.695)" fill="#97bad5"/>
            <path id="Trazado_116187" data-name="Trazado 116187" d="M834.213,538.614a1.552,1.552,0,0,0,2.883-1.149l-2.967-7.446a1.551,1.551,0,1,0-2.882,1.148Z" transform="translate(-816.475 -529.041)" fill="#97bad5"/>
            <path id="Trazado_116188" data-name="Trazado 116188" d="M1004.3,619.119a1.551,1.551,0,0,0-2.016-.867l-7.447,2.968a1.551,1.551,0,1,0,1.149,2.882l7.447-2.967A1.551,1.551,0,0,0,1004.3,619.119Z" transform="translate(-951.921 -603.204)" fill="#97bad5"/>
            <path id="Trazado_116189" data-name="Trazado 116189" d="M935.207,541.032a1.55,1.55,0,0,0,2.038-.812l3.167-7.364a1.552,1.552,0,0,0-2.851-1.226l-3.167,7.364A1.552,1.552,0,0,0,935.207,541.032Z" transform="translate(-902.318 -530.414)" fill="#97bad5"/>
            <path id="Trazado_116190" data-name="Trazado 116190" d="M753.212,617.459l-7.364-3.167a1.551,1.551,0,1,0-1.225,2.85l7.364,3.167a1.551,1.551,0,1,0,1.226-2.85Z" transform="translate(-743.683 -599.894)" fill="#97bad5"/>
            <g id="Grupo_79427" data-name="Grupo 79427" transform="translate(17.913 50.49)">
              <path id="Trazado_116191" data-name="Trazado 116191" d="M865.929,832.335h-.035l-14.687-.708a.708.708,0,0,1,.068-1.414l14.687.708a.708.708,0,0,1-.034,1.415Z" transform="translate(-850.534 -830.211)" fill="#97bad5"/>
            </g>
            <g id="Grupo_79428" data-name="Grupo 79428" transform="translate(17.825 53.056)">
              <path id="Trazado_116192" data-name="Trazado 116192" d="M865.4,847.639h-.035l-14.687-.708a.708.708,0,1,1,.068-1.414l14.687.708a.708.708,0,0,1-.033,1.415Z" transform="translate(-850.006 -845.516)" fill="#97bad5"/>
            </g>
            <path id="Trazado_116193" data-name="Trazado 116193" d="M838.592,637.016a14.627,14.627,0,0,1,6.321-7.464,13.7,13.7,0,0,1,9.6-1.352,11.145,11.145,0,0,0-16.923,14.349A13.92,13.92,0,0,1,838.592,637.016Z" transform="translate(-820.193 -608.952)" fill="#fddd66"/>
          </g>
          <g id="Grupo_79430" data-name="Grupo 79430" transform="translate(18.48 57.635)">
            <path id="Trazado_116194" data-name="Trazado 116194" d="M616.512,1125.287s-.006,1.193-.017,3.282c0,1.043,0,2.31-.008,3.763s-.011,3.093,0,4.88c.008,3.576.017,7.747.027,12.217s.037,9.246.056,14.018q0,1.806,0,3.608,0,.911-.01,1.818t-.02,1.78c-.035,2.353-.069,4.669-.1,6.91-.077,4.467-.149,8.636-.21,12.209-.017.893-.033,1.748-.048,2.561s-.023,1.585-.033,2.31c-.022,1.45-.041,2.714-.057,3.755-.026,2.083-.042,3.273-.042,3.273a3.091,3.091,0,0,1-6.17.236v-.016s-.025-.3-.072-.849l-.21-2.4-.342-3.731-.212-2.295-.252-2.543-.577-5.72-.321-3.121-.354-3.256c-.246-2.208-.5-4.49-.782-6.795l-.212-1.732q-.11-.855-.22-1.714l-.234-1.754-.06-.442-.015-.11-.007-.055c0-.015,0,.033,0,0l0-.027-.033-.22-.131-.878-1.06-7-1.065-6.785c-.344-2.2-.7-4.328-1.027-6.345l-.933-5.685c-.286-1.761-.565-3.373-.808-4.8l-.633-3.7-.565-3.222v0a8.445,8.445,0,0,1,16.636-2.917A9.034,9.034,0,0,1,616.512,1125.287Z" transform="translate(-572.286 -1043.994)" fill="#123d5e"/>
            <path id="Trazado_116195" data-name="Trazado 116195" d="M532.451,1127.036l-.566,3.25-1.465,8.561-2.048,12.11-1.158,6.846-.619,3.537-.327,1.8c-.112.606-.228,1.219-.356,1.863l-.105.516-.055.265-.079.363-.041.181-.021.09c.03-.153,0-.027.009-.054l-.007.027-.056.217-.111.433c-.145.571-.308,1.177-.423,1.69l-.377,1.6-.364,1.686c-.123.558-.239,1.121-.352,1.684l-.338,1.677-.634,3.312-.591,3.218-.539,3.091-.957,5.677-.414,2.527-.356,2.282-.569,3.712c-.158,1.029-.271,1.839-.352,2.389l-.121.842,0,.013a3.091,3.091,0,0,1-6.146-.582s.221-4.785.554-11.962l.288-5.8.363-6.488.218-3.44q.062-.875.125-1.761c.039-.589.082-1.184.133-1.786l.147-1.808q.1-.951.191-1.907c.062-.661.138-1.221.208-1.821l.053-.444.027-.222,0-.028c.008-.045-.014.062.02-.109l0-.02,0-.039,0-.077.008-.177.018-.369q.034-.843.068-1.686l.055-1.746q.045-1.765.089-3.512c.046-2.34.091-4.643.135-6.871s.055-4.394.077-6.443.033-3.988.048-5.778.016-3.431.018-4.886,0-2.723,0-3.768c-.008-2.087-.012-3.28-.012-3.28v-.007a8.418,8.418,0,1,1,16.836-.063A9.021,9.021,0,0,1,532.451,1127.036Z" transform="translate(-500.11 -1044.307)" fill="#123d5e"/>
            <path id="Trazado_116196" data-name="Trazado 116196" d="M530.7,1111.143s-.368,5.419-.524,7.447c-.344,4.484,7.759,8.77,14.309,9.365h0c6.549.594,13.881-1.349,14.287-5.828l-.35-11.039Z" transform="translate(-514.473 -1039.242)" fill="#123d5e"/>
            <path id="Trazado_116197" data-name="Trazado 116197" d="M659.449,1622.176c-1.516,6.533-.007,6.471-.007,6.471l16.032.016s.655-2.859-2.936-3.239c-2.315-.245-7.708-3.245-7.708-3.245Z" transform="translate(-621.521 -1464.649)" fill="#0e2e47"/>
            <path id="Trazado_116198" data-name="Trazado 116198" d="M508.782,1622.467c-1.892,5.025-.007,6.471-.007,6.471l13.015.032s.8-3.145-3.5-3.239c-.766-.017-3.616-3.258-3.616-3.258Z" transform="translate(-495.974 -1464.891)" fill="#0e2e47"/>
            <path id="Trazado_116199" data-name="Trazado 116199" d="M672.762,849.589a2.566,2.566,0,0,0-2.192-1.2c-.808.009-1.2.558-1.855.961-1.084.662-10.755,4.677-11.959,5.253-.663.317-2.67,1.516-2.844,1.341a16.848,16.848,0,0,1-2.116-2.74c-.685-1.058-5.811-11.259-7.368-15.4a5.778,5.778,0,0,0-3.554-3.53,5.659,5.659,0,0,0-6.974,7.666c.349.783.8,1.53,1.221,2.277,2.22,3.97,10.627,20.785,14.65,21.679,1.59.353,4.183-.759,5.7-1.341,2.253-.865,11.513-7.38,13.364-8.854q1.119-.891,2.216-1.808a7.008,7.008,0,0,0,1.776-1.717,2.567,2.567,0,0,0-.065-2.582Z" transform="translate(-600.411 -808.59)" fill="#f15625"/>
            <path id="Trazado_116200" data-name="Trazado 116200" d="M506.643,845.639c2.53,12.765,2.53,12.765,1.994,32.56a134.251,134.251,0,0,0,15.238.2c5.834-.434,13.142-1.36,13.142-1.36s.089-18.906-.222-33.885c-.154-7.4,6.757-22.016-16.679-20.226C496.617,824.722,505.7,840.889,506.643,845.639Z" transform="translate(-492.808 -799.266)" fill="#f15625"/>
            <path id="Trazado_116201" data-name="Trazado 116201" d="M556.953,711.438s-6.648-12-3.778-15.237c2.24-2.529,13.475-.293,13.475-.293s4.213,17.664-1.866,17.755C559.452,713.743,556.953,711.438,556.953,711.438Z" transform="translate(-533.028 -692.906)" fill="#b47d5a"/>
            <path id="Trazado_116202" data-name="Trazado 116202" d="M553.18,701.413a11.7,11.7,0,0,1-5.75-11.625c.4-4.586,3.24-6.652,6.511-7.165s7.852,1.314,9.5,1.294c0,0,1.77,4.728-3.039,5.106s-6.2.808-6.111,1.954a10.823,10.823,0,0,0,.575,2.453l-1.094.662s-2.075-1.068-2.293-.012c-.291,1.411.271,3.437,1.614,3.523C553.091,697.6,553.24,699.42,553.18,701.413Z" transform="translate(-528.795 -682.532)" fill="#0e2e47"/>
            <path id="Trazado_116203" data-name="Trazado 116203" d="M588.281,777.5l.244.806c.143.478.327,1.114.5,1.758s.343,1.294.463,1.788l.142.6.053.229.011.049a3.564,3.564,0,1,1-6.947,1.6,3.641,3.641,0,0,1-.064-1.236l.025-.2.064-.542c.05-.45-.309-3.647-.282-4.11s.6-.02.6-.02l.005-.1a2.649,2.649,0,0,1,5.181-.622Z" transform="translate(-558.028 -760.016)" fill="#b47d5a"/>
            <path id="Trazado_116204" data-name="Trazado 116204" d="M576.25,814.431,577.424,812a19.3,19.3,0,0,0,5.326,5.049l-1.46,1.835S576.82,817.587,576.25,814.431Z" transform="translate(-552.833 -790.295)" fill="#fff"/>
            <path id="Trazado_116205" data-name="Trazado 116205" d="M616.952,814.382l-1.673-1.552a6.426,6.426,0,0,1-1.83,4.93l1.729,1.584A7.69,7.69,0,0,0,616.952,814.382Z" transform="translate(-583.795 -790.986)" fill="#fff"/>
            <path id="Trazado_116206" data-name="Trazado 116206" d="M449.939,877.384c-.967-.15-1.725-.186-2.682-.391,1.932-3.354,3.664-5.871,5.893-9.032q1.5-2.132,3.042-4.24.653-.9,1.315-1.784a10.7,10.7,0,0,0,.78-1.132,5.714,5.714,0,0,0-1.579-7.311c-2.268-1.671-5.537-2.215-7.383-.083-3.384,3.907-7.854,14.828-9.414,18.251-.767,1.683-4.165,9.243-3.16,11.143,1.325,2.5,6.371,2.626,18.624,1.641q1.093-.088,2.185-.2a3,3,0,0,0,1.648-.563,2.574,2.574,0,0,0,.377-3.648C459.153,879.523,452.659,877.806,449.939,877.384Z" transform="translate(-436.566 -823.603)" fill="#f15625"/>
          </g>
          <g id="Grupo_79435" data-name="Grupo 79435" transform="translate(105.66 62.296)">
            <g id="Grupo_79432" data-name="Grupo 79432">
              <g id="Grupo_79431" data-name="Grupo 79431">
                <path id="Trazado_116207" data-name="Trazado 116207" d="M1181.074,883.791a2.428,2.428,0,0,0-2.981-1.257c-.295.1-.577.256-.86.387q-.885.411-1.772.819c-2.826,1.3-5.662,2.572-8.527,3.78-.789.333-1.58.661-2.376.977q-.586.233-1.177.455l-.29.107c-.05.018-.245.12-.288.1s-.105-.168-.129-.207q-.089-.146-.175-.293a42.432,42.432,0,0,1-2.229-4.579c-1.276-2.961-2.4-5.987-3.48-9.025-.421-1.184-.8-2.389-1.274-3.554a5.343,5.343,0,1,0-9.609,4.6c.616,1.1,1.144,2.253,1.717,3.374q1.047,2.048,2.136,4.074c1.555,2.885,2.249,6.585,4.133,9.27a19.693,19.693,0,0,0,2.988,3.525,6.342,6.342,0,0,0,3.35,1.659,7.016,7.016,0,0,0,1.14.01,11.607,11.607,0,0,0,1.21-.3,37.082,37.082,0,0,0,3.388-2c1.723-.936,3.4-1.961,5.063-2.994,2.9-1.8,5.759-3.654,8.6-5.533a4.061,4.061,0,0,0,1.254-1.054,2.424,2.424,0,0,0,.183-2.349Z" transform="translate(-1113.585 -841.653)" fill="#97bad5"/>
                <path id="Trazado_116208" data-name="Trazado 116208" d="M1039.284,865.077c.588,6.934,1.731,11.733,2.53,17.124.481,3.247-3.622,8.253-3.872,15.447l23.738.434s-.66-16.806,1.325-28.995c1.155-7.1,7.043-23.144-12.28-21.621C1037.258,848.529,1038.992,861.634,1039.284,865.077Z" transform="translate(-1024.304 -824.393)" fill="#0089c5"/>
                <path id="Trazado_116209" data-name="Trazado 116209" d="M1118.041,1151.429q.729,6.042,1.109,12.126c.294,4.747.481,9.491.524,14.247.033,3.755-.071,7.515-.293,11.263-.211,3.567-.5,7.13-.806,10.69-.408,4.669-.879,9.333-1.358,14-.4,3.88-.841,7.755-1.286,11.629a5,5,0,0,1-.259,1.342,2.84,2.84,0,0,1-5.448-.714,9.482,9.482,0,0,1-.023-1.171c0-.9,0-1.81,0-2.715-.008-1.912.007-3.824-.024-5.736-.4-24.257-2.888-48.316-3.729-52.871-.383-2.075-.781-4.147-1.209-6.213q-.277-1.335-.574-2.666a11.846,11.846,0,0,1-.362-2.092,6.9,6.9,0,0,1,13.739-1.115Z" transform="translate(-1079.534 -1072.43)" fill="#123d5e"/>
                <path id="Trazado_116210" data-name="Trazado 116210" d="M1044.015,1151.769c.256,3.87.387,7.745.467,11.622q.141,6.784-.119,13.574c-.151,3.945-.432,7.874-.78,11.807-.358,4.055-.877,8.1-1.411,12.138-.591,4.462-1.259,8.914-1.975,13.358-.6,3.718-1.252,7.427-1.931,11.132a7.624,7.624,0,0,1-.257,1.194,2.84,2.84,0,0,1-5.424-.255,4.073,4.073,0,0,1-.054-1.307q.078-1.171.156-2.343c.117-1.754.216-3.509.312-5.263q.353-6.437.588-12.878c.161-4.611-.129-25.224-.311-27.563-.358-4.611-.868-9.212-1.475-13.8-.284-2.151-.585-4.3-.916-6.444-.14-.91-.284-1.82-.442-2.728a9.8,9.8,0,0,1-.2-2.051,6.9,6.9,0,0,1,13.775-.2Z" transform="translate(-1017.89 -1072.404)" fill="#123d5e"/>
                <path id="Trazado_116211" data-name="Trazado 116211" d="M1034.493,1131.091l-.613,6.138c-.4,4.328,5.346,8.313,11.676,8.9h0c6.33.587,13.847-3.4,14.249-7.729l-.882-8.618Z" transform="translate(-1020.907 -1059.464)" fill="#123d5e"/>
                <path id="Trazado_116212" data-name="Trazado 116212" d="M1134.849,1623.674s-.67,2.942-.809,3.743c-.335,1.928.346,2.513.346,2.513l15.056.045s.621-2.763-2.751-3.136c-2.174-.24-6.113-3.151-6.113-3.151Z" transform="translate(-1104.214 -1470.557)" fill="#0e2e47"/>
                <path id="Trazado_116213" data-name="Trazado 116213" d="M1039.824,1623.678s-.8,3.521-.853,4.245a5.809,5.809,0,0,0,.39,2.01l10.671.032s.442-2.763-1.947-3.134c-1.541-.239-2.576-3.144-2.576-3.144Z" transform="translate(-1025.156 -1470.56)" fill="#0e2e47"/>
                <path id="Trazado_116214" data-name="Trazado 116214" d="M1037.939,927.935c-.129-8.955-.981-43.011-.969-51.966.014-10.793-1.953-11.355-2.734-18.515-.387-3.548-1.219-6.536-1.077-7.046-18.051,5.687-10.886,13.1-10.277,20.349.467,5.555,1.906,12.135.727,18.014-3.464,17.271-2.909,29.59-3.243,39.161Z" transform="translate(-1009.675 -826.925)" fill="#97bad5"/>
                <path id="Trazado_116215" data-name="Trazado 116215" d="M1156.372,871.028c1.028-6.312,5.689-20.572-9.136-22.7a2.126,2.126,0,0,1,.125.228c1.863,4.067,3.483,13.608,4.057,18,1.023,7.83.109,59.431.111,59.643l6.538-.871s.25-14.335-.414-27.845C1157.14,887.066,1155.508,876.336,1156.372,871.028Z" transform="translate(-1115.276 -825.198)" fill="#97bad5"/>
                <path id="Trazado_116216" data-name="Trazado 116216" d="M978.961,901.846c-3.226,0-6.451-.015-9.674-.156-1.217-.053-2.434-.122-3.648-.229,1.253-2.37,2.7-4.637,4.176-6.873,1.378-2.088,2.8-4.145,4.253-6.183,1.175-1.652,2.375-3.284,3.583-4.912a5.342,5.342,0,1,0-8.541-6.419c-.54.722-5.828,9.25-6.915,11.455-5.868,11.9-5.467,16.237-5.472,16.257-.606,2.77,1.035,3.25,2.647,3.935a8.96,8.96,0,0,0,3.4.546c1.355.018,2.713-.072,4.062-.186,2.614-.219,5.218-1.387,7.815-1.749q1.6-.224,3.193-.471a7.954,7.954,0,0,0,2.164-.44,2.4,2.4,0,0,0-1.042-4.574Z" transform="translate(-956.595 -847.343)" fill="#97bad5"/>
                <path id="Trazado_116217" data-name="Trazado 116217" d="M1078.8,738.423s5.5-12.065,2.485-14.97c-2.351-2.268-13.007.74-13.007.74s-3.648,15.328,3.145,16.968C1076.83,742.467,1078.8,738.423,1078.8,738.423Z" transform="translate(-1048.738 -720.549)" fill="#e9ac8a"/>
                <path id="Trazado_116218" data-name="Trazado 116218" d="M1110.77,802.1s0,.026.011.057l.031.152.117.579c.1.482.243,1.125.4,1.753s.337,1.24.479,1.679c.071.22.132.4.177.521l.069.193a3.437,3.437,0,1,1-6.674,1.267l0-.1s0-.1-.008-.274-.01-.422-.01-.713c0-.583.023-1.341.069-2.085s.112-1.476.17-2.025c.031-.277.057-.507.075-.668.01-.085.018-.152.023-.2l.009-.067a2.531,2.531,0,1,1,5.061-.073Z" transform="translate(-1080.423 -784.644)" fill="#e9ac8a"/>
                <path id="Trazado_116219" data-name="Trazado 116219" d="M1076.977,727.8s1.119,0,3.008-3.988,1.659-10.912-2.764-12.594a10.513,10.513,0,0,0-10.5,1.169,3.246,3.246,0,0,0-.764,5.134s7.054-.584,7.956.611,1.146,4.16,1.146,4.16,2.047-3.069,2.676-.971-.22,3.363-1.06,3.153Z" transform="translate(-1046.817 -710.334)" fill="#0e2e47"/>
                <path id="Trazado_116220" data-name="Trazado 116220" d="M1138.431,719.189s2.788-2.894,5.1-.69,1.335,9.806-1.949,8.585C1137.382,725.523,1138.431,719.189,1138.431,719.189Z" transform="translate(-1107.85 -716.441)" fill="#0e2e47"/>
              </g>
              <path id="Trazado_116221" data-name="Trazado 116221" d="M1340.461,917.276s1.209-3.625,2.193-4.644c1.376-1.425,7.266-3.7,7.266-3.7s.719.7-.018,1.171l-3.025,1.685s.7,2.867.852,3.333-1.393,2.118-1.393,2.118a1.816,1.816,0,0,1-.763-.256s-1.029,3.417-3.549,2.987h0A2,2,0,0,1,1340.461,917.276Z" transform="translate(-1275.994 -875.636)" fill="#e9ac8a"/>
            </g>
            <path id="Trazado_116222" data-name="Trazado 116222" d="M1084.705,839.376l3.486-2.876s1.635,17.561,2.224,23.821l-5.4-12.979,1.622-4.466A17.851,17.851,0,0,0,1084.705,839.376Z" transform="translate(-1063.228 -815.349)" fill="#eaf1f7"/>
            <path id="Trazado_116223" data-name="Trazado 116223" d="M1146.185,835.8,1142,832.5s2.221,8.34,5.284,23.843l1.38-13.533-3.09-4.435Z" transform="translate(-1110.918 -812.019)" fill="#eaf1f7"/>
            <g id="Grupo_79434" data-name="Grupo 79434" transform="translate(19.944 46.753)">
              <path id="Trazado_116224" data-name="Trazado 116224" d="M1105.76,1001.61l-13.887.6c-.913-.087-1.515-.769-1.331-1.523l5.637-10.438a1.519,1.519,0,0,1,1.857-.988l13.023.248a1.18,1.18,0,0,1,.876,1.425l-4.64,9.655A1.43,1.43,0,0,1,1105.76,1001.61Z" transform="translate(-1088.003 -989.214)" fill="#0e2e47"/>
              <g id="Grupo_79433" data-name="Grupo 79433" transform="translate(0 3.816)">
                <path id="Trazado_116225" data-name="Trazado 116225" d="M1112.7,1016.965l-.01.019C1112.713,1016.973,1112.7,1016.965,1112.7,1016.965Z" transform="translate(-1106.466 -1016.129)" fill="#ffbc99"/>
                <path id="Trazado_116226" data-name="Trazado 116226" d="M1086.639,1016.52c-.473.067-2.468.767-2.468.767l3.453-1.373a.435.435,0,0,0-.157-.839h-.019a6.426,6.426,0,0,0-1.271.331l1.492-.543a.4.4,0,0,0-.123-.778h-.04l-.973.222.526-.325a.318.318,0,0,0-.066-.572,1.328,1.328,0,0,0-.443-.077c-.548,0-2.693.62-3.483.742a16.524,16.524,0,0,1-1.962.074l1.068-2.114c-.045.023-.241-.293-1.341.335a23.248,23.248,0,0,0-3.632,2.347,16.3,16.3,0,0,0-1.2,1.481,2.613,2.613,0,0,0-.262,2.441h0a1.918,1.918,0,0,0,2.193,1.242,47.8,47.8,0,0,0,5.082-.917c.931-.3,3.815-1.764,3.815-1.764a.358.358,0,0,0-.173-.683Z" transform="translate(-1075.562 -1011.977)" fill="#ffbc99"/>
              </g>
            </g>
          </g>
          <g id="Grupo_79442" data-name="Grupo 79442" transform="translate(472.376 55.676)">
            <g id="Grupo_79439" data-name="Grupo 79439" transform="translate(5.844 2.586)">
              <g id="Grupo_79437" data-name="Grupo 79437">
                <path id="Trazado_116227" data-name="Trazado 116227" d="M3355.82,1126.713l-.564,3.222c-.176,1.026-.389,2.272-.633,3.7s-.523,3.042-.809,4.8-.6,3.668-.933,5.685-.683,4.144-1.027,6.345-.7,4.475-1.065,6.785l-1.06,7-.131.878-.033.22,0,.027c0,.034,0-.015,0,0l-.008.055-.015.11-.06.442q-.116.878-.234,1.754-.11.859-.22,1.714t-.212,1.732c-.284,2.305-.536,4.587-.782,6.795l-.354,3.256q-.165,1.6-.321,3.121c-.2,2.03-.4,3.949-.577,5.72q-.132,1.33-.251,2.543t-.212,2.295c-.132,1.441-.247,2.7-.342,3.731s-.162,1.847-.209,2.4-.072.849-.072.849h0a3.091,3.091,0,0,1-6.17-.222s-.015-1.19-.042-3.272c-.016-1.041-.035-2.3-.057-3.755-.01-.725-.021-1.5-.033-2.31s-.032-1.669-.048-2.561c-.062-3.573-.133-7.742-.21-12.209-.033-2.241-.066-4.557-.1-6.91q-.01-.887-.02-1.78t-.01-1.818q0-1.8,0-3.608c.019-4.772.038-9.544.056-14.018s.019-8.641.026-12.217c.009-1.787,0-3.427,0-4.88s-.005-2.72-.007-3.763c-.011-2.088-.017-3.282-.017-3.282a8.445,8.445,0,1,1,16.772,1.369Z" transform="translate(-3312.159 -1044.628)" fill="#123d5e"/>
                <path id="Trazado_116228" data-name="Trazado 116228" d="M3426.33,1125.622s0,1.193-.013,3.28c0,1.045,0,2.313,0,3.768s0,3.1.019,4.886.032,3.728.048,5.778.033,4.211.077,6.443.089,4.531.135,6.872q.045,1.744.089,3.511l.056,1.747.067,1.685.018.369.009.177,0,.077,0,.039,0,.02c.033.171.011.063.02.109l0,.028.027.222.053.444c.07.6.146,1.159.208,1.821q.1.956.191,1.907.073.907.146,1.808c.051.6.094,1.2.133,1.786s.083,1.178.125,1.761q.111,1.744.218,3.44c.125,2.25.247,4.425.363,6.488s.2,4,.288,5.8c.333,7.177.554,11.962.554,11.962a3.091,3.091,0,0,1-6.145.6l0-.027s-.042-.293-.121-.843-.193-1.36-.352-2.389-.35-2.278-.569-3.711c-.112-.716-.23-1.479-.356-2.282s-.27-1.646-.414-2.527c-.3-1.758-.617-3.662-.957-5.677q-.262-1.507-.539-3.092t-.59-3.218q-.313-1.631-.634-3.312-.168-.834-.338-1.677c-.113-.563-.229-1.126-.353-1.684s-.242-1.122-.364-1.686l-.377-1.6c-.115-.513-.278-1.119-.423-1.689l-.111-.433-.056-.217-.007-.027c0,.027-.021-.1.009.054l-.021-.09-.041-.181-.08-.363-.055-.265-.1-.516c-.128-.645-.244-1.257-.356-1.863s-.218-1.2-.327-1.8q-.311-1.778-.62-3.537c-.395-2.331-.782-4.625-1.158-6.846-.749-4.43-1.448-8.566-2.047-12.11s-1.111-6.494-1.465-8.561l-.566-3.25a8.418,8.418,0,1,1,16.712-1.46Z" transform="translate(-3370.835 -1044.926)" fill="#123d5e"/>
                <path id="Trazado_116229" data-name="Trazado 116229" d="M3367.615,1111.416s.368,5.419.524,7.447c.344,4.484-7.759,8.77-14.309,9.365h0c-6.549.594-13.757-1.282-14.164-5.761l.084-10.841Z" transform="translate(-3312.716 -1040.142)" fill="#123d5e"/>
                <path id="Trazado_116230" data-name="Trazado 116230" d="M3285,1622.177c1.806,6.532.007,6.471.007,6.471l-19.118.02s-.781-2.859,3.5-3.239c2.761-.245,9.192-3.247,9.192-3.247Z" transform="translate(-3251.256 -1465.276)" fill="#0e2e47"/>
                <path id="Trazado_116231" data-name="Trazado 116231" d="M3461.889,1622.467c1.892,5.025.007,6.471.007,6.471l-13.015.032s-.8-3.145,3.5-3.239c.766-.017,3.616-3.258,3.616-3.258Z" transform="translate(-3403.572 -1465.517)" fill="#0e2e47"/>
                <path id="Trazado_116232" data-name="Trazado 116232" d="M3217.175,834.763a5.665,5.665,0,0,0-7.978-.733l-5.076,4.222-5.192,4.344L3196,845.065l-1.507,1.282-.3.26c-.377-.258-1.887-1.681-2.253-2.047-2.4-2.4-6.682-7.469-7.362-8.363l-.781-1.041-.263-.358-.035-.048a2.545,2.545,0,0,0-4.294,2.71l.237.442.659,1.206c.573,1.032,1.4,2.495,2.469,4.23.533.867,1.125,1.8,1.784,2.786s3.116,4.583,4.178,6.036c.4.542,3.353,4.247,6.371,3.465,3.167-.821,8.116-3.942,9.165-4.582,2.107-1.276,4.342-3.385,6.028-4.406l5.632-3.387.041-.024a5.67,5.67,0,0,0,1.408-8.461Z" transform="translate(-3178.904 -808.169)" fill="#0089c5"/>
                <path id="Trazado_116233" data-name="Trazado 116233" d="M3369.775,845.634c-2.53,12.765-2.53,12.765-1.994,32.56a134.225,134.225,0,0,1-15.238.2c-5.833-.434-13.142-1.36-13.142-1.36s-.089-18.906.222-33.885c.154-7.4-3.484-22.022,16.679-20.226C3379.777,825.013,3370.716,840.885,3369.775,845.634Z" transform="translate(-3312.484 -799.888)" fill="#0089c5"/>
                <path id="Trazado_116234" data-name="Trazado 116234" d="M3367.567,851.645c-.546-.128-4.5-6.278-5.48-8.193-6.323-12.325,1.165-18.291,1.9-18.628-1.04-.34-3.469-1.1-4.755-1.337.034.369-.354.811-.475,1.106-.726,1.777-7.793,12.63-9.905,11.971-5.044-1.575,1.217-13.485,1.3-13.759a13.971,13.971,0,0,0-4.417.664,32.394,32.394,0,0,0-7.452,19.542c-.039,1.853.187,8.631-.112,9.276-.14,12.594.189,24.775.189,24.775s7.308.926,13.142,1.36a132.677,132.677,0,0,0,15.448-.261C3366.5,862.031,3366.885,858.714,3367.567,851.645Z" transform="translate(-3311.434 -799.915)" fill="#fcc600"/>
                <path id="Trazado_116235" data-name="Trazado 116235" d="M3354.222,853.027c.017-.821.592-12.881,1.021-15.709.749-4.938,1.962-10.253,4.721-14.513a12.118,12.118,0,0,0-3.107.546c-.217.463-.417.905-.539,1.191-.168.4-6.1,8.7-5.172,28.485C3351.7,852.892,3353.659,853.121,3354.222,853.027Z" transform="translate(-3322.188 -799.915)" fill="#fff"/>
                <path id="Trazado_116236" data-name="Trazado 116236" d="M3430.749,857.127l.418-.01c-.5-2.56.225-15.377.58-17.294.63-3.405,2.87-7.537,4.712-10.493a19.031,19.031,0,0,0-1.991-.564c-9.877,11.551-7.391,27.484-7.416,28.377C3428.622,857.146,3429.181,857.158,3430.749,857.127Z" transform="translate(-3385.234 -804.877)" fill="#fff"/>
                <path id="Trazado_116237" data-name="Trazado 116237" d="M3367.016,989.969c-3.251-.538-6.192-.81-9.711-1.072-5.8-.431-11.615-.006-17.375-.757a7.168,7.168,0,0,1-.15,1.689c-.013,1.166-.024,2.328-.034,3.478,3.248.156,6.478.564,9.706.971,6.159.776,12.356,1.165,18.546,1.617.148-1.853.57-2.916.738-5.628Q3367.877,990.114,3367.016,989.969Z" transform="translate(-3312.782 -937.532)" fill="#fff"/>
                <g id="Grupo_79436" data-name="Grupo 79436" transform="translate(34.88 27.96)">
                  <path id="Trazado_116238" data-name="Trazado 116238" d="M3387.6,903.206c-2.665-40.541,3.9-49.575,4.181-49.919a.653.653,0,0,1,1.015.82c-.032.042-1.659,2.2-2.944,9.212-2.152,11.75-1.706,28.553-.953,40.013C3388.921,903.691,3387.62,903.551,3387.6,903.206Z" transform="translate(-3386.963 -853.046)" fill="#0089c5"/>
                </g>
                <path id="Trazado_116239" data-name="Trazado 116239" d="M3401.909,715.888s6.648-12,3.778-15.237c-2.24-2.529-13.474-.293-13.474-.293s-4.213,17.664,1.866,17.755C3399.41,718.193,3401.909,715.888,3401.909,715.888Z" transform="translate(-3355.269 -697.237)" fill="#e9ac8a"/>
                <path id="Trazado_116240" data-name="Trazado 116240" d="M3406.3,705.268a11.7,11.7,0,0,0,5.75-11.624c-.4-4.586-3.24-6.652-6.51-7.165s-5.907.076-7.553.056c0,0-3.716,5.966,1.093,6.345s6.2.808,6.112,1.954a10.827,10.827,0,0,1-.575,2.452l1.094.662s2.075-1.068,2.293-.012c.291,1.411-.271,3.437-1.614,3.523C3406.386,701.459,3406.237,703.276,3406.3,705.268Z" transform="translate(-3360.116 -686.268)" fill="#b47d5a"/>
                <path id="Trazado_116241" data-name="Trazado 116241" d="M3418.425,778.987l-.269,5.942a3.3,3.3,0,0,1-6.584-.3,3.439,3.439,0,0,1,.168-.9l.572-5.414c.432-1.289,3.149-2.207,4.438-1.775A2.464,2.464,0,0,1,3418.425,778.987Z" transform="translate(-3372.563 -761.318)" fill="#e9ac8a"/>
                <path id="Trazado_116242" data-name="Trazado 116242" d="M3464.243,880.527c-.015-.3-.04-.559-.067-.8-.056-.471-.125-.876-.2-1.262s-.151-.747-.231-1.1c-.324-1.4-.689-2.682-1.063-3.933s-.761-2.447-1.143-3.6c-.765-2.3-1.515-4.42-2.17-6.227s-1.218-3.3-1.616-4.353l-.638-1.661a6.346,6.346,0,0,0-.321-.692,5.662,5.662,0,0,0-9.928,5.447l.018.033.81,1.475c.516.95,1.25,2.313,2.111,3.956s1.851,3.565,2.859,5.625c.5,1.029,1.011,2.093,1.5,3.164s.958,2.159,1.342,3.167c.032.085.063.167.093.25-.108.054-.219.107-.332.159a19.614,19.614,0,0,1-2.749.978c-.94.267-1.869.481-2.739.656-1.742.351-3.244.555-4.289.681-.523.063-.934.1-1.21.131l-.4.038-.113.01a2.546,2.546,0,0,0,.015,5.07l.5.045c.313.027.766.063,1.341.1,1.152.071,2.791.149,4.8.117,1-.017,2.1-.064,3.287-.175a26.93,26.93,0,0,0,3.847-.617,16.265,16.265,0,0,0,2.19-.689,11.763,11.763,0,0,0,1.191-.548c.1-.051.207-.112.31-.171s.208-.12.314-.187.21-.13.318-.206l.161-.111.08-.056.1-.075.2-.156.166-.134.092-.072.046-.036.023-.018c-.058.056.081-.075.125-.12l.125-.131c.082-.089.16-.181.234-.276s.124-.166.183-.253.112-.172.164-.259.082-.147.12-.222.075-.151.109-.227.054-.126.079-.19.049-.128.072-.193.036-.109.054-.166l.047-.161.021-.081.017-.067q.031-.135.058-.271c.027-.149.052-.316.064-.437A7.421,7.421,0,0,0,3464.243,880.527Z" transform="translate(-3397.444 -825.849)" fill="#0089c5"/>
              </g>
              <g id="Grupo_79438" data-name="Grupo 79438" transform="translate(22.369 49.246)">
                <path id="Trazado_116243" data-name="Trazado 116243" d="M3318.865,993.063l14.614.627c.961-.091,1.594-.809,1.4-1.6l-5.932-10.984a1.6,1.6,0,0,0-1.954-1.04l-13.7.261a1.241,1.241,0,0,0-.922,1.5l4.883,10.16A1.5,1.5,0,0,0,3318.865,993.063Z" transform="translate(-3312.332 -980.018)" fill="#1c437a"/>
                <path id="Trazado_116244" data-name="Trazado 116244" d="M3386.732,1014.332c.51.1,2.678.975,2.678.975l-3.759-1.707c-.482-.219-.379-.978.133-.949h.021a6.952,6.952,0,0,1,1.376.43l-1.623-.68c-.45-.189-.373-.887.1-.881h.043l1.052.293-.578-.392a.366.366,0,0,1,.047-.648,1.3,1.3,0,0,1,.472-.069c.588.026,3.125.835,3.978,1.007a13.44,13.44,0,0,0,1.895.148l-.785-1.529a3.776,3.776,0,0,0,1.04.11,4.342,4.342,0,0,1,2.253.98l2.681,1.952a5.084,5.084,0,0,1,1.112,2.011c.185.469-.447,1.649-.769,1.864-1.013.679-5.356.883-7.645-.186-.988-.462-4.092-1.768-4.092-1.768-.4-.2-.076-1.038.354-.967Z" transform="translate(-3373.033 -1005.252)" fill="#ffbc99"/>
              </g>
            </g>
            <path id="Trazado_116245" data-name="Trazado 116245" d="M3386.4,680c.491-5.672,4.914-9.549,9.879-9.12s8.591,5,8.1,10.676Z" transform="translate(-3345.766 -670.844)" fill="#fcc600"/>
            <g id="Grupo_79440" data-name="Grupo 79440" transform="translate(36.947 8.475)">
              <path id="Trazado_116246" data-name="Trazado 116246" d="M3386.093,724.282l-.049,0-21.009-1.581a.653.653,0,1,1,.1-1.3l21.009,1.581a.653.653,0,0,1-.048,1.3Z" transform="translate(-3364.431 -721.395)" fill="#ffd607"/>
            </g>
            <g id="Grupo_79441" data-name="Grupo 79441" transform="translate(0 17.783)">
              <path id="Trazado_116247" data-name="Trazado 116247" d="M3157.919,816.264h0a3.564,3.564,0,0,1-3.965-.26c-1.041-.685-1.9-1.99-3.489-4.56l4.551-2.926a46.274,46.274,0,0,0,3.64,4.677C3159.731,814.35,3159.2,815.587,3157.919,816.264Z" transform="translate(-3149.389 -803.221)" fill="#e9ac8a"/>
              <path id="Trazado_116248" data-name="Trazado 116248" d="M3146.557,818.7l-.116-.12-.291-.312c-.237-.259-.546-.609-.844-.97s-.586-.733-.8-1.02c-.1-.143-.189-.265-.248-.351l-.093-.135a.719.719,0,0,1,1.138-.875l.016.019.1.112c.06.072.148.173.256.294.216.241.516.557.827.863s.633.6.877.823l.3.259.11.093.006,0a.9.9,0,0,1-1.167,1.379A.841.841,0,0,1,3146.557,818.7Z" transform="translate(-3144.044 -808.34)" fill="#e9ac8a"/>
              <path id="Trazado_116249" data-name="Trazado 116249" d="M3151.336,810.65l-.032-.042-.086-.116c-.07-.1-.165-.233-.276-.4-.22-.328-.5-.767-.757-1.213s-.507-.9-.684-1.237-.292-.569-.292-.569h0a.607.607,0,0,1,1.042-.617s.141.2.358.5.513.69.819,1.071.623.748.864,1.014c.121.132.223.239.292.311l.078.078.027.026a.9.9,0,0,1-1.257,1.3.888.888,0,0,1-.088-.1Z" transform="translate(-3148.289 -801.289)" fill="#e9ac8a"/>
              <path id="Trazado_116250" data-name="Trazado 116250" d="M3157.165,804.608l-.023-.021-.04-.039-.024-.026c-.036-.039-.074-.083-.118-.138-.089-.109-.2-.255-.334-.43-.261-.349-.592-.81-.917-1.274-.651-.927-1.282-1.859-1.282-1.859v0a.68.68,0,0,1,1.086-.816s.717.862,1.445,1.706c.364.422.73.84,1.006,1.14.137.15.251.27.326.344.037.037.065.063.075.071l.007.005-.017-.017,0,0a.9.9,0,1,1-1.184,1.36Z" transform="translate(-3152.588 -795.929)" fill="#e9ac8a"/>
              <path id="Trazado_116251" data-name="Trazado 116251" d="M3156.482,786.7s-.43-.54-1.055-1.353-1.452-1.905-2.259-3.011c-.4-.553-.8-1.108-1.175-1.632s-.713-1.016-1-1.441-.53-.78-.695-1.03l-.261-.392a.59.59,0,0,1,.969-.674l0,.007.272.377c.172.241.422.582.725.99s.658.881,1.046,1.384.8,1.038,1.224,1.57c.841,1.063,1.7,2.113,2.351,2.893s1.09,1.291,1.09,1.291a.8.8,0,1,1-1.214,1.048l-.018-.021Z" transform="translate(-3148.948 -776.918)" fill="#e9ac8a"/>
              <path id="Trazado_116252" data-name="Trazado 116252" d="M3179.462,804.588l0-.078c0-.054-.007-.133-.012-.233-.013-.2-.036-.5-.077-.854s-.1-.767-.182-1.2a13.046,13.046,0,0,0-.323-1.346l-.1-.323c-.044-.117-.089-.236-.129-.331-.08-.2-.182-.42-.276-.621-.195-.408-.394-.789-.568-1.112s-.326-.592-.433-.779l-.168-.29-.006-.01a.517.517,0,0,1,.865-.566l.208.284c.13.18.315.437.531.752s.464.685.718,1.1c.127.211.253.418.383.661.069.125.122.233.179.344l.175.371a14.681,14.681,0,0,1,.562,1.447c.155.468.279.909.376,1.291s.166.7.211.931l.051.27c.011.066.017.1.017.1v0a1,1,0,1,1-1.981.332A1.112,1.112,0,0,1,3179.462,804.588Z" transform="translate(-3171.568 -793.324)" fill="#e9ac8a"/>
            </g>
          </g>
          <g id="Grupo_79443" data-name="Grupo 79443" transform="translate(291.37 49.823)">
            <path id="Trazado_116253" data-name="Trazado 116253" d="M2185.316,637.946h-.019a1.006,1.006,0,1,1,0-2.012h.019a1.006,1.006,0,0,1,0,2.012Zm-3.748,0h-.019a1.006,1.006,0,0,1,0-2.012h.019a1.006,1.006,0,0,1,0,2.012Zm-3.748,0h-.019a1.006,1.006,0,1,1,0-2.012h.019a1.006,1.006,0,0,1,0,2.012Zm-3.749,0h-.019a1.006,1.006,0,0,1,0-2.012h.019a1.006,1.006,0,0,1,0,2.012Zm-3.748,0h-.019a1.006,1.006,0,0,1,0-2.012h.019a1.006,1.006,0,0,1,0,2.012Zm-3.748,0h-.019a1.006,1.006,0,1,1,0-2.012h.019a1.006,1.006,0,1,1,0,2.012Zm-3.748,0h-.019a1.006,1.006,0,0,1,0-2.012h.019a1.006,1.006,0,0,1,0,2.012Zm-3.748,0h-.019a1.006,1.006,0,1,1,0-2.012h.019a1.006,1.006,0,0,1,0,2.012Zm-3.749,0h-.019a1.006,1.006,0,0,1,0-2.012h.019a1.006,1.006,0,0,1,0,2.012Zm-3.748,0h-.019a1.006,1.006,0,0,1,0-2.012h.019a1.006,1.006,0,0,1,0,2.012Zm-3.748,0h-.019a1.006,1.006,0,1,1,0-2.012h.019a1.006,1.006,0,0,1,0,2.012Zm-3.748,0h-.019a1.006,1.006,0,0,1,0-2.012h.019a1.006,1.006,0,0,1,0,2.012Zm-3.748,0h-.019a1.006,1.006,0,0,1,0-2.012h.019a1.006,1.006,0,0,1,0,2.012Zm-3.749,0h-.019a1.006,1.006,0,0,1,0-2.012h.019a1.006,1.006,0,0,1,0,2.012Zm-3.748,0h-.019a1.006,1.006,0,0,1,0-2.012h.019a1.006,1.006,0,0,1,0,2.012Zm-3.748,0h-.019a1.006,1.006,0,0,1,0-2.012h.019a1.006,1.006,0,1,1,0,2.012Zm-3.748,0h-.019a1.006,1.006,0,0,1,0-2.012h.019a1.006,1.006,0,0,1,0,2.012Zm-3.748,0h-.019a1.006,1.006,0,0,1,0-2.012h.019a1.006,1.006,0,0,1,0,2.012Zm-3.749,0h-.019a1.006,1.006,0,0,1,0-2.012h.019a1.006,1.006,0,0,1,0,2.012Zm-3.748,0h-.019a1.006,1.006,0,0,1,0-2.012h.019a1.006,1.006,0,1,1,0,2.012Zm-3.748,0h-.019a1.006,1.006,0,0,1,0-2.012h.019a1.006,1.006,0,0,1,0,2.012Zm-3.748,0h-.019a1.006,1.006,0,0,1,0-2.012h.019a1.006,1.006,0,0,1,0,2.012Zm-3.748,0h-.019a1.006,1.006,0,0,1,0-2.012h.019a1.006,1.006,0,0,1,0,2.012Zm-3.749,0h-.018a1.006,1.006,0,0,1,0-2.012h.018a1.006,1.006,0,1,1,0,2.012Zm-3.748,0h-.019a1.006,1.006,0,0,1,0-2.012h.019a1.006,1.006,0,1,1,0,2.012Zm-3.748,0h-.019a1.006,1.006,0,0,1,0-2.012h.019a1.006,1.006,0,0,1,0,2.012Zm-3.748,0h-.019a1.006,1.006,0,1,1,0-2.012h.019a1.006,1.006,0,0,1,0,2.012Zm-3.748,0h-.019a1.006,1.006,0,0,1,0-2.012h.019a1.006,1.006,0,0,1,0,2.012Zm-3.749,0h-.018a1.006,1.006,0,0,1,0-2.012h.018a1.006,1.006,0,1,1,0,2.012Zm-3.748,0h-.019a1.006,1.006,0,0,1,0-2.012h.019a1.006,1.006,0,0,1,0,2.012Zm-3.748,0h-.019a1.006,1.006,0,0,1,0-2.012h.019a1.006,1.006,0,0,1,0,2.012Zm-3.748,0h-.019a1.006,1.006,0,0,1,0-2.012h.019a1.006,1.006,0,1,1,0,2.012Zm-3.748,0h-.019a1.006,1.006,0,0,1,0-2.012h.019a1.006,1.006,0,0,1,0,2.012Z" transform="translate(-2064.349 -635.934)" fill="#9fbbd2"/>
          </g>
          <g id="Grupo_79460" data-name="Grupo 79460" transform="translate(415.567 26.47)">
            <rect id="Rectángulo_34097" data-name="Rectángulo 34097" width="95.225" height="65.096" fill="#d0e3f2" opacity="0.4"/>
            <rect id="Rectángulo_34098" data-name="Rectángulo 34098" width="95.225" height="7.007" fill="#f15625"/>
            <rect id="Rectángulo_34099" data-name="Rectángulo 34099" width="3.916" height="3.916" transform="translate(1.756 1.546)" fill="#fff"/>
            <g id="Grupo_79456" data-name="Grupo 79456" transform="translate(45.507 16.643)">
              <g id="Grupo_79446" data-name="Grupo 79446">
                <g id="Grupo_79444" data-name="Grupo 79444" transform="translate(0 1.042)">
                  <rect id="Rectángulo_34100" data-name="Rectángulo 34100" width="40.108" height="2.509" rx="1.255" transform="translate(0.084 0.084)" fill="#97bad5"/>
                  <path id="Trazado_116254" data-name="Trazado 116254" d="M3115.639,604.8h-37.746a1.266,1.266,0,0,1-1.265-1.265v-.147a1.266,1.266,0,0,1,1.265-1.265h37.746a1.266,1.266,0,0,1,1.265,1.265v.147A1.266,1.266,0,0,1,3115.639,604.8Zm-37.746-2.509a1.1,1.1,0,0,0-1.1,1.1v.147a1.1,1.1,0,0,0,1.1,1.1h37.746a1.1,1.1,0,0,0,1.1-1.1v-.147a1.1,1.1,0,0,0-1.1-1.1Z" transform="translate(-3076.628 -602.125)" fill="#eaf1f7"/>
                </g>
                <g id="Grupo_79445" data-name="Grupo 79445" transform="translate(8.426)">
                  <path id="Trazado_116255" data-name="Trazado 116255" d="M3132.512,603.258a1.728,1.728,0,1,1,1.728-1.728A1.73,1.73,0,0,1,3132.512,603.258Z" transform="translate(-3130.132 -599.15)" fill="#fff"/>
                  <path id="Trazado_116256" data-name="Trazado 116256" d="M3129.271,597.215a1.075,1.075,0,1,1-1.075,1.075,1.076,1.076,0,0,1,1.075-1.075m0-1.305a2.38,2.38,0,1,0,2.381,2.38,2.38,2.38,0,0,0-2.381-2.38Z" transform="translate(-3126.891 -595.91)" fill="#97bad5"/>
                </g>
              </g>
              <g id="Grupo_79449" data-name="Grupo 79449" transform="translate(0 27.294)">
                <g id="Grupo_79447" data-name="Grupo 79447" transform="translate(0 1.042)">
                  <rect id="Rectángulo_34101" data-name="Rectángulo 34101" width="40.108" height="2.509" rx="1.255" transform="translate(0.084 0.084)" fill="#97bad5"/>
                  <path id="Trazado_116257" data-name="Trazado 116257" d="M3115.639,767.611h-37.746a1.266,1.266,0,0,1-1.265-1.265V766.2a1.266,1.266,0,0,1,1.265-1.265h37.746a1.266,1.266,0,0,1,1.265,1.265v.147A1.266,1.266,0,0,1,3115.639,767.611Zm-37.746-2.509a1.1,1.1,0,0,0-1.1,1.1v.147a1.1,1.1,0,0,0,1.1,1.1h37.746a1.1,1.1,0,0,0,1.1-1.1V766.2a1.1,1.1,0,0,0-1.1-1.1Z" transform="translate(-3076.628 -764.934)" fill="#eaf1f7"/>
                </g>
                <g id="Grupo_79448" data-name="Grupo 79448" transform="translate(8.426)">
                  <path id="Trazado_116258" data-name="Trazado 116258" d="M3132.512,766.067a1.728,1.728,0,1,1,1.728-1.728A1.73,1.73,0,0,1,3132.512,766.067Z" transform="translate(-3130.132 -761.959)" fill="#fff"/>
                  <path id="Trazado_116259" data-name="Trazado 116259" d="M3129.271,760.023a1.075,1.075,0,1,1-1.075,1.075,1.077,1.077,0,0,1,1.075-1.075m0-1.305a2.38,2.38,0,1,0,2.381,2.38,2.38,2.38,0,0,0-2.381-2.38Z" transform="translate(-3126.891 -758.718)" fill="#97bad5"/>
                </g>
              </g>
              <g id="Grupo_79452" data-name="Grupo 79452" transform="translate(0 9.098)">
                <g id="Grupo_79450" data-name="Grupo 79450" transform="translate(0 1.042)">
                  <rect id="Rectángulo_34102" data-name="Rectángulo 34102" width="40.108" height="2.509" rx="1.255" transform="translate(0.084 0.084)" fill="#97bad5"/>
                  <path id="Trazado_116260" data-name="Trazado 116260" d="M3115.639,659.072h-37.746a1.266,1.266,0,0,1-1.265-1.265v-.147a1.266,1.266,0,0,1,1.265-1.265h37.746a1.266,1.266,0,0,1,1.265,1.265v.147A1.266,1.266,0,0,1,3115.639,659.072Zm-37.746-2.509a1.1,1.1,0,0,0-1.1,1.1v.147a1.1,1.1,0,0,0,1.1,1.1h37.746a1.1,1.1,0,0,0,1.1-1.1v-.147a1.1,1.1,0,0,0-1.1-1.1Z" transform="translate(-3076.628 -656.395)" fill="#eaf1f7"/>
                </g>
                <g id="Grupo_79451" data-name="Grupo 79451" transform="translate(31.223)">
                  <path id="Trazado_116261" data-name="Trazado 116261" d="M3268.494,657.528a1.728,1.728,0,1,1,1.728-1.728A1.73,1.73,0,0,1,3268.494,657.528Z" transform="translate(-3266.114 -653.419)" fill="#fff"/>
                  <path id="Trazado_116262" data-name="Trazado 116262" d="M3265.253,651.484a1.075,1.075,0,1,1-1.075,1.075,1.076,1.076,0,0,1,1.075-1.075m0-1.305a2.38,2.38,0,1,0,2.38,2.38,2.38,2.38,0,0,0-2.38-2.38Z" transform="translate(-3262.872 -650.179)" fill="#97bad5"/>
                </g>
              </g>
              <g id="Grupo_79455" data-name="Grupo 79455" transform="translate(0 18.196)">
                <g id="Grupo_79453" data-name="Grupo 79453" transform="translate(0 0.843)">
                  <rect id="Rectángulo_34103" data-name="Rectángulo 34103" width="40.108" height="2.509" rx="1.255" transform="translate(0.084 0.084)" fill="#97bad5"/>
                  <path id="Trazado_116263" data-name="Trazado 116263" d="M3115.639,712.156h-37.746a1.266,1.266,0,0,1-1.265-1.265v-.147a1.266,1.266,0,0,1,1.265-1.265h37.746a1.266,1.266,0,0,1,1.265,1.265v.147A1.266,1.266,0,0,1,3115.639,712.156Zm-37.746-2.509a1.1,1.1,0,0,0-1.1,1.1v.147a1.1,1.1,0,0,0,1.1,1.1h37.746a1.1,1.1,0,0,0,1.1-1.1v-.147a1.1,1.1,0,0,0-1.1-1.1Z" transform="translate(-3076.628 -709.479)" fill="#eaf1f7"/>
                </g>
                <g id="Grupo_79454" data-name="Grupo 79454" transform="translate(23.797)">
                  <path id="Trazado_116264" data-name="Trazado 116264" d="M3224.2,711.8a1.728,1.728,0,1,1,1.728-1.728A1.73,1.73,0,0,1,3224.2,711.8Z" transform="translate(-3221.818 -707.689)" fill="#fff"/>
                  <path id="Trazado_116265" data-name="Trazado 116265" d="M3220.957,705.754a1.075,1.075,0,1,1-1.075,1.075,1.076,1.076,0,0,1,1.075-1.075m0-1.305a2.38,2.38,0,1,0,2.381,2.38,2.38,2.38,0,0,0-2.381-2.38Z" transform="translate(-3218.577 -704.449)" fill="#97bad5"/>
                </g>
              </g>
            </g>
            <g id="Grupo_79459" data-name="Grupo 79459" transform="translate(5.757 17.769)">
              <g id="Grupo_79457" data-name="Grupo 79457">
                <rect id="Rectángulo_34104" data-name="Rectángulo 34104" width="14.136" height="14.136" fill="#fcc600"/>
                <rect id="Rectángulo_34105" data-name="Rectángulo 34105" width="14.136" height="14.136" transform="translate(18.622)" fill="#0089c5"/>
              </g>
              <g id="Grupo_79458" data-name="Grupo 79458" transform="translate(0 17.933)">
                <rect id="Rectángulo_34106" data-name="Rectángulo 34106" width="14.136" height="14.136" fill="#f15625"/>
                <rect id="Rectángulo_34107" data-name="Rectángulo 34107" width="14.136" height="14.136" transform="translate(18.622)" fill="#fff"/>
              </g>
            </g>
          </g>
          <path id="Trazado_116266" data-name="Trazado 116266" d="M849.156,911.5a2.482,2.482,0,0,1,1.342-2.2,9.513,9.513,0,0,1,4.326-1.119h3.87s.774,1.31-1.185,1.419-2.516,1.917-.666,2.031,6.344,0,6.344,0,1.383-.1,1.383,1.2l-8.271,1.415-4.806-.272a2.478,2.478,0,0,1-2.338-2.474Z" transform="translate(-761.507 -812.713)" fill="#b47d5a"/>
          <g id="Grupo_79466" data-name="Grupo 79466" transform="translate(185.154 38.921)">
            <g id="Grupo_79461" data-name="Grupo 79461" transform="translate(0 19.248)">
              <path id="Trazado_116267" data-name="Trazado 116267" d="M1431.78,687.733a1,1,0,0,1-1.006-1v-.009a1.006,1.006,0,1,1,1.006,1.01Z" transform="translate(-1430.774 -685.717)" fill="#9fbbd2"/>
            </g>
            <g id="Grupo_79462" data-name="Grupo 79462" transform="translate(0 3.842)">
              <path id="Trazado_116268" data-name="Trazado 116268" d="M1431.78,607.4a1.006,1.006,0,0,1-1.006-1.006v-.019a1.006,1.006,0,0,1,2.012,0v.019A1.006,1.006,0,0,1,1431.78,607.4Zm0-3.852a1.006,1.006,0,0,1-1.006-1.006v-.019a1.006,1.006,0,0,1,2.012,0v.019A1.006,1.006,0,0,1,1431.78,603.551Zm0-3.852a1.006,1.006,0,0,1-1.006-1.006v-.019a1.006,1.006,0,1,1,2.012,0v.019A1.006,1.006,0,0,1,1431.78,599.7Zm0-3.852a1.006,1.006,0,0,1-1.006-1.006v-.019a1.006,1.006,0,1,1,2.012,0v.019A1.006,1.006,0,0,1,1431.78,595.848Z" transform="translate(-1430.774 -593.817)" fill="#9fbbd2"/>
            </g>
            <g id="Grupo_79463" data-name="Grupo 79463">
              <path id="Trazado_116269" data-name="Trazado 116269" d="M1431.78,572.917a1,1,0,0,1-1.006-1v-.009a1.008,1.008,0,1,1,1.42.921A1,1,0,0,1,1431.78,572.917Z" transform="translate(-1430.774 -570.901)" fill="#9fbbd2"/>
            </g>
            <g id="Grupo_79464" data-name="Grupo 79464" transform="translate(3.831)">
              <path id="Trazado_116270" data-name="Trazado 116270" d="M1512.272,572.913h-.019a1.006,1.006,0,0,1,0-2.012h.019a1.006,1.006,0,1,1,0,2.012Zm-3.841,0h-.019a1.006,1.006,0,0,1,0-2.012h.019a1.006,1.006,0,1,1,0,2.012Zm-3.841,0h-.019a1.006,1.006,0,0,1,0-2.012h.019a1.006,1.006,0,0,1,0,2.012Zm-3.841,0h-.019a1.006,1.006,0,0,1,0-2.012h.019a1.006,1.006,0,0,1,0,2.012Zm-3.841,0h-.019a1.006,1.006,0,1,1,0-2.012h.019a1.006,1.006,0,0,1,0,2.012Zm-3.841,0h-.019a1.006,1.006,0,1,1,0-2.012h.019a1.006,1.006,0,0,1,0,2.012Zm-3.841,0h-.019a1.006,1.006,0,1,1,0-2.012h.019a1.006,1.006,0,0,1,0,2.012Zm-3.841,0h-.019a1.006,1.006,0,0,1,0-2.012h.019a1.006,1.006,0,1,1,0,2.012Zm-3.841,0h-.019a1.006,1.006,0,0,1,0-2.012h.019a1.006,1.006,0,1,1,0,2.012Zm-3.841,0h-.019a1.006,1.006,0,0,1,0-2.012h.019a1.006,1.006,0,0,1,0,2.012Zm-3.841,0h-.019a1.006,1.006,0,0,1,0-2.012h.019a1.006,1.006,0,0,1,0,2.012Zm-3.841,0H1470a1.006,1.006,0,1,1,0-2.012h.019a1.006,1.006,0,0,1,0,2.012Zm-3.841,0h-.019a1.006,1.006,0,1,1,0-2.012h.019a1.006,1.006,0,0,1,0,2.012Zm-3.841,0h-.019a1.006,1.006,0,1,1,0-2.012h.019a1.006,1.006,0,0,1,0,2.012Zm-3.841,0h-.019a1.006,1.006,0,0,1,0-2.012h.019a1.006,1.006,0,1,1,0,2.012Zm-3.841,0h-.019a1.006,1.006,0,0,1,0-2.012h.019a1.006,1.006,0,1,1,0,2.012Z" transform="translate(-1453.628 -570.901)" fill="#9fbbd2"/>
            </g>
            <g id="Grupo_79465" data-name="Grupo 79465" transform="translate(65.296)">
              <path id="Trazado_116271" data-name="Trazado 116271" d="M1821.272,572.913a1.006,1.006,0,0,1-.009-2.012h.009a1.006,1.006,0,1,1,0,2.012Z" transform="translate(-1820.262 -570.901)" fill="#9fbbd2"/>
            </g>
          </g>
          <g id="Grupo_79467" data-name="Grupo 79467" transform="translate(380.66 67.293)">
            <path id="Trazado_116272" data-name="Trazado 116272" d="M2627.97,742.15h-.018a1.006,1.006,0,1,1,0-2.012h.018a1.006,1.006,0,1,1,0,2.012Zm-3.748,0h-.019a1.006,1.006,0,0,1,0-2.012h.019a1.006,1.006,0,0,1,0,2.012Zm-3.748,0h-.018a1.006,1.006,0,1,1,0-2.012h.018a1.006,1.006,0,0,1,0,2.012Zm-3.748,0h-.019a1.006,1.006,0,0,1,0-2.012h.019a1.006,1.006,0,1,1,0,2.012Zm-3.748,0h-.019a1.006,1.006,0,0,1,0-2.012h.019a1.006,1.006,0,0,1,0,2.012Zm-3.748,0h-.019a1.006,1.006,0,0,1,0-2.012h.019a1.006,1.006,0,0,1,0,2.012Zm-3.748,0h-.019a1.006,1.006,0,0,1,0-2.012h.019a1.006,1.006,0,0,1,0,2.012Zm-3.748,0h-.018a1.006,1.006,0,1,1,0-2.012h.018a1.006,1.006,0,1,1,0,2.012Zm-3.748,0h-.019a1.006,1.006,0,0,1,0-2.012h.019a1.006,1.006,0,1,1,0,2.012Z" transform="translate(-2596.96 -740.138)" fill="#9fbbd2"/>
          </g>
          <path id="Trazado_116273" data-name="Trazado 116273" d="M582.907,961.69l4.963-19.564,13.67-1.664-5.2,19.861Z" transform="translate(-539.894 -839.586)" fill="#fff"/>
          <path id="Trazado_116274" data-name="Trazado 116274" d="M576.758,1003.424a.438.438,0,0,0-.565-.253l-.02.008-.3.114-.343.131c-.133.049-.287.1-.452.152s-.345.115-.539.166-.394.117-.608.165-.43.11-.656.152-.452.1-.682.131-.459.077-.686.106-.451.056-.667.079l-.137.012-.029-.178c.185-.022.373-.052.564-.082.219-.033.438-.083.658-.125l.65-.154.621-.177.572-.19c.182-.058.349-.131.505-.189s.3-.112.423-.169l.321-.142.279-.123a.491.491,0,0,0-.375-.908l-.022.009-.268.1-.307.119c-.117.049-.255.09-.4.14s-.307.108-.48.154l-.541.152-.584.138-.607.115c-.2.028-.408.066-.61.086s-.4.046-.589.056l-.062-.383.168-.032.713-.155c.23-.053.451-.113.661-.166s.406-.114.588-.164.349-.1.494-.148.56-.137.664-.172l.328-.109a.48.48,0,0,0-.281-.919l-.017,0-.319.09c-.1.029-.511.111-.653.151s-.3.076-.478.121-.365.094-.568.133-.416.089-.638.13l-.686.118c-.235.032-.472.07-.711.1s-.477.059-.713.075-.467.04-.691.051c-.115.007-.229.013-.34.017.176-.322.362-.278.441-.6.126-.517.433-1.565.405-1.579,0,0-2.429.6-2.682.726a11.232,11.232,0,0,0-3.2,2.347,2.321,2.321,0,0,0-.238,1.847h0a2.668,2.668,0,0,0,2.235,2.561,15.1,15.1,0,0,0,5.713.036l.226-.033c.2-.035.411-.065.621-.11s.424-.085.637-.139.424-.106.631-.165.409-.123.6-.185.381-.132.558-.2l.256-.1.236-.1c.151-.066.29-.122.411-.179l.311-.153.27-.134a.519.519,0,0,0-.441-.94l-.027.012-.253.112-.29.129c-.113.047-.244.094-.384.149l-.22.084-.24.079c-.165.053-.337.114-.52.161s-.369.107-.564.149-.39.093-.589.129-.4.075-.594.1c-.107.019-.213.033-.318.047l-.045-.278.1-.015c.228-.037.464-.074.7-.123s.479-.1.719-.152.478-.118.713-.179.462-.134.683-.2.431-.143.632-.21.387-.139.559-.207.33-.127.468-.187l.355-.158.309-.138A.439.439,0,0,0,576.758,1003.424Z" transform="translate(-523.307 -888.796)" fill="#b47d5a"/>
          <g id="Grupo_79470" data-name="Grupo 79470" transform="translate(407.9 160.562)">
            <g id="Grupo_79468" data-name="Grupo 79468" transform="translate(11.435 25.422)">
              <rect id="Rectángulo_34108" data-name="Rectángulo 34108" width="25.288" height="25.288" fill="#f15625"/>
              <rect id="Rectángulo_34109" data-name="Rectángulo 34109" width="25.288" height="25.288" transform="translate(32.738)" fill="#f15625"/>
            </g>
            <rect id="Rectángulo_34110" data-name="Rectángulo 34110" width="25.288" height="25.583" transform="translate(27.803)" fill="#f15625"/>
            <g id="Grupo_79469" data-name="Grupo 79469" transform="translate(0 50.71)">
              <rect id="Rectángulo_34111" data-name="Rectángulo 34111" width="80.894" height="5.895" fill="#fcc600"/>
              <rect id="Rectángulo_34112" data-name="Rectángulo 34112" width="8.818" height="4.547" transform="translate(0 5.895)" fill="#fcc600"/>
              <rect id="Rectángulo_34113" data-name="Rectángulo 34113" width="8.818" height="4.547" transform="translate(72.076 5.895)" fill="#fcc600"/>
              <rect id="Rectángulo_34114" data-name="Rectángulo 34114" width="8.818" height="4.547" transform="translate(36.038 5.895)" fill="#fcc600"/>
            </g>
          </g>
          <g id="Grupo_79471" data-name="Grupo 79471" transform="translate(446.008 79.574)">
            <path id="Trazado_116275" data-name="Trazado 116275" d="M2987.765,890.389a1.006,1.006,0,0,1-1.006-1.006v-.019a1.006,1.006,0,1,1,2.012,0v.019A1.006,1.006,0,0,1,2987.765,890.389Zm0-3.749a1.006,1.006,0,0,1-1.006-1.006v-.019a1.006,1.006,0,0,1,2.012,0v.019A1.006,1.006,0,0,1,2987.765,886.641Zm0-3.748a1.006,1.006,0,0,1-1.006-1.006v-.019a1.006,1.006,0,0,1,2.012,0v.019A1.006,1.006,0,0,1,2987.765,882.893Zm0-3.748a1.006,1.006,0,0,1-1.006-1.006v-.019a1.006,1.006,0,0,1,2.012,0v.019A1.006,1.006,0,0,1,2987.765,879.145Zm0-3.748a1.006,1.006,0,0,1-1.006-1.006v-.019a1.006,1.006,0,0,1,2.012,0v.019A1.006,1.006,0,0,1,2987.765,875.4Zm0-3.748a1.006,1.006,0,0,1-1.006-1.006v-.019a1.006,1.006,0,0,1,2.012,0v.019A1.006,1.006,0,0,1,2987.765,871.648Zm0-3.748a1.006,1.006,0,0,1-1.006-1.006v-.019a1.006,1.006,0,0,1,2.012,0v.019A1.006,1.006,0,0,1,2987.765,867.9Zm0-3.748a1.006,1.006,0,0,1-1.006-1.006v-.019a1.006,1.006,0,0,1,2.012,0v.019A1.006,1.006,0,0,1,2987.765,864.152Zm0-3.748a1.006,1.006,0,0,1-1.006-1.006v-.019a1.006,1.006,0,0,1,2.012,0v.019A1.006,1.006,0,0,1,2987.765,860.4Zm0-3.748a1.006,1.006,0,0,1-1.006-1.006v-.019a1.006,1.006,0,0,1,2.012,0v.019A1.006,1.006,0,0,1,2987.765,856.655Zm0-3.748a1.006,1.006,0,0,1-1.006-1.006v-.019a1.006,1.006,0,0,1,2.012,0v.019A1.006,1.006,0,0,1,2987.765,852.907Zm0-3.748a1.006,1.006,0,0,1-1.006-1.006v-.018a1.006,1.006,0,0,1,2.012,0v.018A1.006,1.006,0,0,1,2987.765,849.159Zm0-3.748a1.006,1.006,0,0,1-1.006-1.006v-.019a1.006,1.006,0,1,1,2.012,0v.019A1.006,1.006,0,0,1,2987.765,845.411Zm0-3.748a1.006,1.006,0,0,1-1.006-1.006v-.019a1.006,1.006,0,0,1,2.012,0v.019A1.006,1.006,0,0,1,2987.765,841.663Zm0-3.748a1.006,1.006,0,0,1-1.006-1.006v-.019a1.006,1.006,0,0,1,2.012,0v.019A1.006,1.006,0,0,1,2987.765,837.914Zm0-3.748a1.006,1.006,0,0,1-1.006-1.006v-.019a1.006,1.006,0,0,1,2.012,0v.019A1.006,1.006,0,0,1,2987.765,834.167Zm0-3.748a1.006,1.006,0,0,1-1.006-1.006v-.019a1.006,1.006,0,0,1,2.012,0v.019A1.006,1.006,0,0,1,2987.765,830.418Zm0-3.748a1.006,1.006,0,0,1-1.006-1.006v-.019a1.006,1.006,0,0,1,2.012,0v.019A1.006,1.006,0,0,1,2987.765,826.67Zm0-3.748a1.006,1.006,0,0,1-1.006-1.006V821.9a1.006,1.006,0,0,1,2.012,0v.019A1.006,1.006,0,0,1,2987.765,822.922Zm0-3.748a1.006,1.006,0,0,1-1.006-1.006v-.019a1.006,1.006,0,0,1,2.012,0v.019A1.006,1.006,0,0,1,2987.765,819.174Zm0-3.748a1.006,1.006,0,0,1-1.006-1.006V814.4a1.006,1.006,0,0,1,2.012,0v.019A1.006,1.006,0,0,1,2987.765,815.426Z" transform="translate(-2986.759 -813.395)" fill="#9fbbd2"/>
          </g>
        </g>
        <g id="Grupo_79473" data-name="Grupo 79473" transform="translate(711.794 379.346)">
          <path id="Trazado_116276" data-name="Trazado 116276" d="M2732.927,588.05a2.508,2.508,0,1,1,2.508,2.508A2.508,2.508,0,0,1,2732.927,588.05Z" transform="translate(-2714.931 -584.773)" fill="#9fbbd2" opacity="0.4"/>
          <path id="Trazado_116277" data-name="Trazado 116277" d="M2681.548,588.05a2.508,2.508,0,1,1,2.508,2.508A2.508,2.508,0,0,1,2681.548,588.05Z" transform="translate(-2672.166 -584.773)" fill="#9fbbd2" opacity="0.7"/>
          <circle id="Elipse_4796" data-name="Elipse 4796" cx="2.508" cy="2.508" r="2.508" transform="translate(0 1.92) rotate(-22.5)" fill="#9fbbd2"/>
        </g>
        <g id="Grupo_79474" data-name="Grupo 79474" transform="translate(511.091 369.2)">
          <path id="Trazado_116278" data-name="Trazado 116278" d="M1534.192,525.98a2.508,2.508,0,1,1,2.508,2.508A2.508,2.508,0,0,1,1534.192,525.98Z" transform="translate(-1516.456 -522.963)" fill="#9fbbd2" opacity="0.4"/>
          <path id="Trazado_116279" data-name="Trazado 116279" d="M1482.813,525.98a2.508,2.508,0,1,1,2.508,2.508A2.508,2.508,0,0,1,1482.813,525.98Z" transform="translate(-1473.69 -522.963)" fill="#9fbbd2" opacity="0.7"/>
          <circle id="Elipse_4797" data-name="Elipse 4797" cx="2.508" cy="2.508" r="2.508" transform="translate(0 4.882) rotate(-76.717)" fill="#9fbbd2"/>
        </g>
      </g>
    </g>
  </g>
</svg>
