<svg xmlns="http://www.w3.org/2000/svg" xmlns:xlink="http://www.w3.org/1999/xlink" width="505" height="530" viewBox="0 0 505 530">
  <defs>
    <clipPath id="clip-path">
      <rect id="Rectángulo_34382" data-name="Rectángulo 34382" width="417.953" height="306.077" fill="none"/>
    </clipPath>
  </defs>
  <g id="Grupo_79939" data-name="Grupo 79939" transform="translate(-180 -7011)">
    <g id="Grupo_79365" data-name="Grupo 79365">
      <rect id="Rectángulo_34074" data-name="Rectángulo 34074" width="505" height="530" transform="translate(180 7011)" fill="#f6f6f6"/>
    </g>
    <g id="Grupo_79930" data-name="Grupo 79930" transform="translate(3.934 2)">
      <g id="Grupo_79927" data-name="Grupo 79927" transform="translate(829.659 11486.897)">
        <g id="Grupo_79926" data-name="Grupo 79926" transform="translate(-610.755 -4410.114)">
          <path id="Trazado_116587" data-name="Trazado 116587" d="M884.251,866.551c-8.724,9.184-16.978,15.107-23.5,19.786-76.661,55.006-167.372,38.972-186.651,35.056-28.468-5.782-83.5-16.959-123.282-63.745-60.191-70.784-50.819-182.3-4.13-255.916,8.54-13.465,53.651-88.2,145.339-100.186,55.489-7.253,120.17,7.376,167.011,46.619C957.36,630.54,950.361,796.953,884.251,866.551Z" transform="translate(-501.382 -499.755)" fill="#4dd0e1" opacity="0.106"/>
          <g id="Grupo_79911" data-name="Grupo 79911" transform="translate(0 3.856)">
            <g id="Grupo_79903" data-name="Grupo 79903" transform="translate(0 42.305)">
              <g id="Grupo_79897" data-name="Grupo 79897" transform="translate(49.432 43.653)" opacity="0.3">
                <path id="Trazado_116588" data-name="Trazado 116588" d="M936.573,1076.3a1.835,1.835,0,0,1,2.22,1.046c.8,1.911,1.535,3.885,2.175,5.868a1.835,1.835,0,0,1-1.182,2.311l-.034.01a1.835,1.835,0,0,1-2.276-1.193c-.608-1.884-1.3-3.759-2.066-5.574a1.835,1.835,0,0,1,.981-2.4A1.8,1.8,0,0,1,936.573,1076.3Zm4.509,15.338a1.835,1.835,0,0,1,2.34,1.435c.363,2.05.643,4.135.83,6.2a1.835,1.835,0,1,1-3.655.333c-.178-1.961-.444-3.942-.79-5.89A1.835,1.835,0,0,1,941.082,1091.641Zm1.02,15.948a1.836,1.836,0,0,1,2.364,1.847c-.1,2.075-.294,4.171-.574,6.231a1.835,1.835,0,1,1-3.637-.493c.265-1.956.449-3.946.545-5.917A1.836,1.836,0,0,1,942.1,1107.589Zm-2.572,15.78a1.836,1.836,0,0,1,2.3,2.255c-.564,2-1.22,4-1.952,5.946a1.835,1.835,0,0,1-3.435-1.293c.695-1.847,1.319-3.747,1.854-5.649A1.835,1.835,0,0,1,939.53,1123.369Zm-6.026,14.809a1.835,1.835,0,0,1,2.143,2.633c-.991,1.822-2.074,3.627-3.219,5.364a1.835,1.835,0,1,1-3.064-2.019c1.089-1.651,2.118-3.367,3.06-5.1A1.829,1.829,0,0,1,933.5,1138.178Zm-9.152,13.107a1.835,1.835,0,0,1,1.911,2.968c-1.371,1.56-2.827,3.081-4.326,4.519a1.835,1.835,0,0,1-2.541-2.648c1.424-1.367,2.807-2.811,4.11-4.294A1.823,1.823,0,0,1,924.351,1151.285Zm-63.106,23.626a1.828,1.828,0,0,1,.773-.061c1.954.262,3.946.442,5.92.535a1.835,1.835,0,0,1-.172,3.666c-2.079-.1-4.177-.287-6.235-.562a1.836,1.836,0,0,1-.286-3.577Zm51.285-12.88a1.835,1.835,0,0,1,1.6,3.245c-1.684,1.216-3.441,2.374-5.223,3.441a1.835,1.835,0,1,1-1.885-3.149c1.693-1.013,3.361-2.112,4.96-3.267A1.836,1.836,0,0,1,912.53,1162.03Zm-35.3,13.2a1.854,1.854,0,0,1,.362-.071c1.964-.182,3.947-.453,5.892-.8a1.835,1.835,0,1,1,.648,3.613c-2.047.367-4.133.651-6.2.843a1.835,1.835,0,0,1-.7-3.583Zm21.378-5.367a1.835,1.835,0,0,1,1.242,3.448c-1.912.807-3.884,1.543-5.862,2.185l-.037.012a1.835,1.835,0,0,1-1.1-3.5c1.879-.611,3.752-1.31,5.568-2.077C898.481,1169.907,898.543,1169.884,898.605,1169.866Z" transform="translate(-847.375 -1076.225)" fill="#1565c0"/>
                <path id="Trazado_116589" data-name="Trazado 116589" d="M780.6,1690.853a1.823,1.823,0,0,1,1.1.012c.9.293,1.821.571,2.737.829a1.835,1.835,0,1,1-.992,3.533c-.964-.27-1.932-.563-2.879-.871a1.835,1.835,0,0,1,.038-3.5Z" transform="translate(-779.289 -1595.027)" fill="#1565c0"/>
              </g>
              <g id="Grupo_79898" data-name="Grupo 79898" opacity="0.3">
                <path id="Trazado_116590" data-name="Trazado 116590" d="M509.568,1455.3a1.836,1.836,0,0,1,2.179.955c.413.851.851,1.708,1.3,2.546a1.835,1.835,0,1,1-3.232,1.738c-.474-.882-.936-1.784-1.371-2.68a1.835,1.835,0,0,1,1.122-2.559Z" transform="translate(-501.055 -1352.524)" fill="#1565c0"/>
                <path id="Trazado_116591" data-name="Trazado 116591" d="M514.052,799.146q1.213-.366,2.446-.694a1.835,1.835,0,0,1,.943,3.548c-1.9.5-3.771,1.085-5.589,1.732a1.835,1.835,0,0,1-1.232-3.457C511.744,799.874,512.9,799.494,514.052,799.146Zm11.958-2.536a1.846,1.846,0,0,1,.306-.065c2.032-.254,4.1-.424,6.137-.505a1.835,1.835,0,1,1,.147,3.667c-1.938.078-3.9.24-5.831.48a1.835,1.835,0,0,1-.76-3.577Zm-24.239,7.53a1.835,1.835,0,0,1,1.375,3.386c-1.72.894-3.425,1.874-5.068,2.914a1.835,1.835,0,1,1-1.962-3.1c1.73-1.095,3.526-2.127,5.338-3.069A1.849,1.849,0,0,1,501.77,804.14Zm39.973-7.746a1.832,1.832,0,0,1,.708-.069c2.036.2,4.088.487,6.1.857a1.835,1.835,0,0,1-.664,3.609c-1.909-.351-3.858-.625-5.791-.814a1.835,1.835,0,0,1-.352-3.584Zm-53.033,16.5a1.835,1.835,0,0,1,1.715,3.159c-1.48,1.25-2.928,2.581-4.3,3.957a1.835,1.835,0,1,1-2.6-2.595c1.448-1.448,2.972-2.85,4.531-4.166A1.831,1.831,0,0,1,488.71,812.892ZM477.886,824.3a1.835,1.835,0,0,1,1.994,2.866c-1.175,1.548-2.3,3.164-3.339,4.8a1.835,1.835,0,1,1-3.1-1.967c1.1-1.724,2.277-3.424,3.513-5.054A1.826,1.826,0,0,1,477.886,824.3Zm-8.08,13.495a1.835,1.835,0,0,1,2.2,2.521c-.811,1.769-1.555,3.59-2.214,5.415a1.835,1.835,0,1,1-3.452-1.246c.693-1.92,1.477-3.838,2.329-5.7A1.832,1.832,0,0,1,469.806,837.793Zm-4.944,14.935a1.835,1.835,0,0,1,2.324,2.138c-.4,1.9-.731,3.842-.973,5.767a1.835,1.835,0,1,1-3.641-.456c.254-2.028.6-4.072,1.024-6.073A1.835,1.835,0,0,1,464.862,852.728Zm-1.545,15.662a1.837,1.837,0,0,1,2.366,1.733c.025,1.939.134,3.9.323,5.837a1.835,1.835,0,0,1-3.653.356c-.2-2.036-.313-4.1-.339-6.145A1.836,1.836,0,0,1,463.316,868.39ZM465.248,884c.036-.011.073-.02.11-.029a1.835,1.835,0,0,1,2.208,1.363c.329,1.392.706,2.79,1.119,4.157q.224.742.464,1.476a1.835,1.835,0,0,1-1.176,2.313,1.815,1.815,0,0,1-2.313-1.176q-.252-.772-.488-1.552c-.434-1.438-.83-2.909-1.176-4.373A1.835,1.835,0,0,1,465.248,884Z" transform="translate(-462.013 -796.038)" fill="#1565c0"/>
                <path id="Trazado_116592" data-name="Trazado 116592" d="M1065.754,818.88a1.83,1.83,0,0,1,1.105.014c.943.312,1.9.65,2.837,1a1.835,1.835,0,0,1-1.294,3.434c-.892-.336-1.8-.657-2.695-.953a1.835,1.835,0,0,1,.047-3.5Z" transform="translate(-970.588 -815.255)" fill="#1565c0"/>
              </g>
              <g id="Grupo_79902" data-name="Grupo 79902" transform="translate(18.245 18.63)">
                <g id="Grupo_79899" data-name="Grupo 79899">
                  <path id="Trazado_116593" data-name="Trazado 116593" d="M659.825,921.7a.858.858,0,0,0-1,.026l-8.337,6.282a45.476,45.476,0,0,0-14.436-2.936l-5.223-9.03a.858.858,0,0,0-.906-.412l-12.29,2.394a.858.858,0,0,0-.685.722l-1.452,10.33a45.472,45.472,0,0,0-12.279,8.14l-10.085-2.693a.858.858,0,0,0-.932.349l-7,10.383a.857.857,0,0,0,.026,1l6.282,8.337a45.47,45.47,0,0,0-2.936,14.436l-9.03,5.224a.857.857,0,0,0-.412.906l2.394,12.29a.857.857,0,0,0,.722.685l10.33,1.452a45.459,45.459,0,0,0,8.14,12.278l-2.693,10.085a.858.858,0,0,0,.349.932l10.383,7a.857.857,0,0,0,1-.026l8.337-6.282a45.462,45.462,0,0,0,14.436,2.936l5.224,9.03a.858.858,0,0,0,.906.412l12.29-2.394a.857.857,0,0,0,.685-.722l1.452-10.33a45.461,45.461,0,0,0,12.279-8.14l10.085,2.693a.857.857,0,0,0,.933-.349l7-10.383a.857.857,0,0,0-.026-1l-6.282-8.337a45.475,45.475,0,0,0,2.936-14.436l9.03-5.224a.857.857,0,0,0,.412-.906l-2.394-12.29a.858.858,0,0,0-.722-.685L676,951.991a45.476,45.476,0,0,0-8.14-12.279l2.693-10.085a.857.857,0,0,0-.349-.932Z" transform="translate(-579.12 -915.612)" fill="#039be5"/>
                </g>
                <g id="Grupo_79900" data-name="Grupo 79900" transform="translate(42.589 42.589)">
                  <path id="Trazado_116594" data-name="Trazado 116594" d="M861.427,1189.5a12.591,12.591,0,1,1-1.725.663A12.6,12.6,0,0,1,861.427,1189.5Zm6.4,21.3a9.82,9.82,0,0,0,1.336-.513,9.615,9.615,0,1,0-1.336.513Z" transform="translate(-852.473 -1188.965)" fill="#bdd0fb"/>
                </g>
                <g id="Grupo_79901" data-name="Grupo 79901" transform="translate(24.088 24.454)">
                  <path id="Trazado_116595" data-name="Trazado 116595" d="M755.678,1073.908a31.481,31.481,0,0,1,3.087-.765h0q.495-.1.993-.177a31.164,31.164,0,0,1,4.94-.4h.259c.124,0,.248,0,.372.005a.734.734,0,1,1-.029,1.467,29.512,29.512,0,0,0-28.055,18.724,29.3,29.3,0,0,0-1.5,16.391,29.91,29.91,0,0,0,.729,2.945,29.48,29.48,0,1,0,50.145-28.277.724.724,0,0,1-.157-.278.734.734,0,0,1,1.248-.7,30.949,30.949,0,1,1-52.641,29.685,31.67,31.67,0,0,1-.766-3.091,30.952,30.952,0,0,1,21.371-35.528Z" transform="translate(-733.727 -1072.566)" fill="#bdd0fb"/>
                </g>
              </g>
            </g>
            <g id="Grupo_79910" data-name="Grupo 79910" transform="translate(96.622 0)">
              <g id="Grupo_79904" data-name="Grupo 79904" transform="translate(52.709 21.589)" opacity="0.3">
                <path id="Trazado_116596" data-name="Trazado 116596" d="M1642.439,663.124a1.133,1.133,0,0,1,1.276.465c.526.805,1.036,1.638,1.513,2.474a1.133,1.133,0,0,1-1.968,1.124c-.455-.8-.94-1.59-1.443-2.359a1.134,1.134,0,0,1,.328-1.569A1.149,1.149,0,0,1,1642.439,663.124Z" transform="translate(-1607.177 -663.076)" fill="#4dd0e1"/>
                <path id="Trazado_116597" data-name="Trazado 116597" d="M1459.826,712.578a1.133,1.133,0,0,1,1.372.649,49.183,49.183,0,0,1,1.683,4.693q.151.5.293,1.008a1.173,1.173,0,0,1-.787,1.4,1.134,1.134,0,0,1-1.4-.786q-.135-.485-.279-.963a47.155,47.155,0,0,0-1.6-4.477,1.133,1.133,0,0,1,.609-1.482C1459.753,712.6,1459.789,712.589,1459.826,712.578Zm3.164,11.335a1.161,1.161,0,0,1,.159-.037,1.135,1.135,0,0,1,1.291.951,49.111,49.111,0,0,1,.537,6.009,1.133,1.133,0,0,1-2.266.062,46.973,46.973,0,0,0-.512-5.732A1.133,1.133,0,0,1,1462.989,723.912Zm.32,11.763a1.133,1.133,0,0,1,1.455,1.2,48.912,48.912,0,0,1-.957,5.96,1.133,1.133,0,0,1-2.212-.5,46.552,46.552,0,0,0,.913-5.683A1.135,1.135,0,0,1,1463.31,735.676Zm-2.581,11.483a1.133,1.133,0,0,1,1.393,1.468,49.163,49.163,0,0,1-2.386,5.543,1.134,1.134,0,0,1-2.023-1.024,46.721,46.721,0,0,0,2.275-5.285A1.131,1.131,0,0,1,1460.729,747.158Zm-5.307,10.5a1.134,1.134,0,0,1,1.27,1.716,49.619,49.619,0,0,1-3.659,4.794,1.133,1.133,0,1,1-1.715-1.482,47.2,47.2,0,0,0,3.49-4.575A1.13,1.13,0,0,1,1455.421,757.662Zm-7.7,8.9a1.134,1.134,0,0,1,1.088,1.926,48.8,48.8,0,0,1-4.717,3.757,1.134,1.134,0,0,1-1.3-1.857,46.423,46.423,0,0,0,4.5-3.582A1.13,1.13,0,0,1,1447.726,766.558Zm-9.634,6.743a1.133,1.133,0,0,1,.856,2.087,49.131,49.131,0,0,1-5.5,2.486,1.134,1.134,0,0,1-.806-2.12,46.584,46.584,0,0,0,5.243-2.37A1.142,1.142,0,0,1,1438.093,773.3Zm-16.8,5.226a1.107,1.107,0,0,1,.2-.041,46.986,46.986,0,0,0,4.932-.854c.248-.055.49-.112.731-.172a1.134,1.134,0,0,1,1.372.83,1.122,1.122,0,0,1-.829,1.372c-.257.063-.515.124-.774.182a49.318,49.318,0,0,1-5.165.893,1.133,1.133,0,0,1-.462-2.21Z" transform="translate(-1420.485 -704.824)" fill="#4dd0e1"/>
              </g>
              <g id="Grupo_79905" data-name="Grupo 79905" opacity="0.3">
                <path id="Trazado_116598" data-name="Trazado 116598" d="M1115.645,526.728a1.134,1.134,0,0,1,.669,2.166,46.888,46.888,0,0,0-5.283,2.029,1.134,1.134,0,1,1-.94-2.063,49.361,49.361,0,0,1,5.538-2.127Zm5.623-1.413a1.219,1.219,0,0,1,.12-.029,49.634,49.634,0,0,1,5.887-.748,1.134,1.134,0,0,1,.15,2.262,47.438,47.438,0,0,0-5.618.713,1.133,1.133,0,0,1-.539-2.2Zm-16.154,6.213a1.133,1.133,0,0,1,.92,2.051,46.984,46.984,0,0,0-4.637,3.248,1.134,1.134,0,0,1-1.41-1.775,49.213,49.213,0,0,1,4.861-3.4A1.137,1.137,0,0,1,1105.114,531.527Zm27.708-6.972a1.143,1.143,0,0,1,.391-.047,48.663,48.663,0,0,1,5.9.7,1.133,1.133,0,1,1-.4,2.231,46.52,46.52,0,0,0-5.622-.664,1.133,1.133,0,0,1-.264-2.216Zm-36.765,14.174a1.134,1.134,0,0,1,1.137,1.88,46.672,46.672,0,0,0-3.719,4.266,1.134,1.134,0,0,1-1.8-1.384,49.277,49.277,0,0,1,3.9-4.473A1.132,1.132,0,0,1,1096.057,538.729Zm-7.065,9.165a1.133,1.133,0,0,1,1.3,1.663,47.35,47.35,0,0,0-2.593,5.033,1.133,1.133,0,1,1-2.074-.914,49.532,49.532,0,0,1,2.717-5.277A1.13,1.13,0,0,1,1088.992,547.894Zm-4.667,10.594a1.12,1.12,0,0,1,.655,0,1.133,1.133,0,0,1,.756,1.413,46.346,46.346,0,0,0-1.309,5.508,1.134,1.134,0,0,1-2.234-.389,48.958,48.958,0,0,1,1.372-5.777A1.133,1.133,0,0,1,1084.326,558.489Z" transform="translate(-1082.178 -524.507)" fill="#039be5"/>
                <path id="Trazado_116599" data-name="Trazado 116599" d="M1476.319,537.846a1.128,1.128,0,0,1,.663,0c.927.288,1.848.6,2.741.941a1.134,1.134,0,1,1-.8,2.122c-.851-.321-1.73-.623-2.614-.9a1.133,1.133,0,0,1,.01-2.167Z" transform="translate(-1414.23 -535.727)" fill="#039be5"/>
              </g>
              <g id="Grupo_79909" data-name="Grupo 79909" transform="translate(11.416 12.335)">
                <g id="Grupo_79906" data-name="Grupo 79906">
                  <path id="Trazado_116600" data-name="Trazado 116600" d="M1209.458,607.75a.573.573,0,0,0-.666.018l-5.579,4.2a30.43,30.43,0,0,0-9.66-1.965l-3.5-6.042a.574.574,0,0,0-.606-.276l-8.224,1.6a.574.574,0,0,0-.459.483l-.971,6.912a30.428,30.428,0,0,0-8.217,5.447l-6.748-1.8a.575.575,0,0,0-.624.234l-4.682,6.948a.573.573,0,0,0,.018.666l4.2,5.578a30.43,30.43,0,0,0-1.965,9.66l-6.042,3.5a.574.574,0,0,0-.276.606l1.6,8.224a.573.573,0,0,0,.483.458l6.912.972a30.419,30.419,0,0,0,5.447,8.216l-1.8,6.749a.574.574,0,0,0,.234.624l6.948,4.682a.574.574,0,0,0,.666-.018l5.579-4.2a30.422,30.422,0,0,0,9.66,1.965l3.5,6.042a.573.573,0,0,0,.606.276l8.224-1.6a.574.574,0,0,0,.458-.483l.972-6.912a30.422,30.422,0,0,0,8.216-5.447l6.748,1.8a.574.574,0,0,0,.624-.234l4.682-6.948a.574.574,0,0,0-.018-.666l-4.2-5.579a30.424,30.424,0,0,0,1.965-9.66l6.042-3.5a.573.573,0,0,0,.276-.607l-1.6-8.224a.574.574,0,0,0-.484-.459l-6.912-.972a30.426,30.426,0,0,0-5.447-8.216l1.8-6.749a.574.574,0,0,0-.234-.624Z" transform="translate(-1155.454 -603.678)" fill="#1565c0"/>
                </g>
                <g id="Grupo_79907" data-name="Grupo 79907" transform="translate(28.342 28.342)">
                  <path id="Trazado_116601" data-name="Trazado 116601" d="M1343.481,785.956a8.592,8.592,0,1,1-1.186.455A8.784,8.784,0,0,1,1343.481,785.956Zm4.282,14.252a6.389,6.389,0,0,0,.865-.332,6.306,6.306,0,0,0-5.369-11.413h0a6.307,6.307,0,0,0,4.5,11.745Z" transform="translate(-1337.365 -785.592)" fill="#bdd0fb"/>
                </g>
                <g id="Grupo_79908" data-name="Grupo 79908" transform="translate(15.48 15.721)">
                  <path id="Trazado_116602" data-name="Trazado 116602" d="M1269.977,705.5q1.03-.311,2.107-.522a21.484,21.484,0,0,1,4.332-.4l.2,0a1.133,1.133,0,1,1-.045,2.266,19.151,19.151,0,0,0-4.048.352h0l-.219.044a18.894,18.894,0,0,0-8.414,4.069,19.176,19.176,0,0,0-3.447,3.81l-.024.035-.073.108a18.96,18.96,0,0,0-2.906,14.314,19.313,19.313,0,0,0,.472,1.906,19.085,19.085,0,1,0,32.463-18.3,1.133,1.133,0,1,1,1.686-1.515,21.352,21.352,0,1,1-36.317,20.48,21.822,21.822,0,0,1-.528-2.132A21.382,21.382,0,0,1,1269.977,705.5Z" transform="translate(-1254.814 -704.584)" fill="#bdd0fb"/>
                </g>
              </g>
            </g>
          </g>
          <g id="Grupo_79924" data-name="Grupo 79924" transform="translate(10.029 121.992)">
            <g id="Enmascarar_grupo_79923" data-name="Enmascarar grupo 79923" transform="translate(0 0)" clip-path="url(#clip-path)">
              <g id="Grupo_79922" data-name="Grupo 79922" transform="translate(3.855 1.848)">
                <g id="Grupo_79919" data-name="Grupo 79919">
                  <path id="Trazado_116611" data-name="Trazado 116611" d="M692.277,2207.944s13.442,5.882,36.487-4.77,85.7-11.714,85.7-11.714-20.3-75.973,24.81-130.327c0,0,36.333,68.006,61.866,78.155l11.437.525V2091.3s-9.7-59.891-71.047-104.615l-19.1-17.216s-67.166-13.542-112.841,66.581S692.277,2207.944,692.277,2207.944Z" transform="translate(-662.939 -1863.594)" fill="#26a69a"/>
                  <path id="Trazado_116612" data-name="Trazado 116612" d="M1909.328,2004.108c.64-3.367.88-11.242-7.243-20.841a21.207,21.207,0,0,0-24.81-6.295c-12.353,6.917-17.572,29.506-17.572,29.506l13.061-6.971c1.979,5.747,21.267,11.942,21.267,11.942l.108-.041c.186,12.494-.116,48.933-8.977,74.276-3.472,9.929-10.532,28.376,12.781,59.988l12.845-.525S1939.569,2096.29,1909.328,2004.108Z" transform="translate(-1655.825 -1869.25)" fill="#f5d1bc"/>
                  <g id="Grupo_79917" data-name="Grupo 79917" transform="translate(150.078)">
                    <path id="Trazado_116613" data-name="Trazado 116613" d="M1556.931,1684.158l-35.768,50.5a8.45,8.45,0,0,0,.742,10.671c4.819,5.144,12.945,12.392,21.706,14.048a6.818,6.818,0,0,0,7-2.947l19.022-29.2S1573.274,1681.366,1556.931,1684.158Z" transform="translate(-1518.797 -1623.363)" fill="#f5d1bc"/>
                    <path id="Trazado_116614" data-name="Trazado 116614" d="M1677.037,1455.874c.6.794,19.946,63.537,19.946,63.537l-36.06,10.287-27.175-56.743S1667.058,1442.576,1677.037,1455.874Z" transform="translate(-1615.152 -1427.906)" fill="#f5d1bc"/>
                    <path id="Trazado_116615" data-name="Trazado 116615" d="M1547.3,1348.975l11.477,29.723a6.8,6.8,0,0,0,1.027,1.79c1.927,2.418,7.53,8.114,13.735,2.018,4.7-4.618,9.132-8.862,13.353-10.984a6.724,6.724,0,0,1,9.411,4.159,202,202,0,0,1,6.038,26.041,6.757,6.757,0,0,1-5.291,7.614c-7.34,1.536-20.15,3.777-31.373,3.514a6.7,6.7,0,0,1-5.825-3.756c-4.153-8.4-14.584-29.235-18.51-34.787-3.609-5.1-11.757-5.074-15.911-4.683a6.721,6.721,0,0,1-5.244-1.79c-3.313-3.11-7.752-9.379-1.43-17.167a6.813,6.813,0,0,0-.405-9.072c-3.5-3.631-6.4-9.429-.871-16.711,5.854-7.716,13.767-7.3,19.1-5.767a6.676,6.676,0,0,0,6.963-2.492,3.445,3.445,0,0,1,2.2-1.24,6.683,6.683,0,0,0,5.857-6.332c.138-4.877,2.244-10.546,10.291-13.309,15.726-5.4,26.069,9.642,27.382,21.054s-16.07,16.3-26.389,15.827c-7.151-.327-12.426,6.231-14.99,10.289A6.767,6.767,0,0,0,1547.3,1348.975Z" transform="translate(-1514.393 -1294.611)" fill="#12263f"/>
                    <path id="Trazado_116616" data-name="Trazado 116616" d="M1592.946,1766.818s-3.141-19.786-11.432-20.519-16.134,6.292-7.6,17.2C1584.539,1777.068,1592.946,1766.818,1592.946,1766.818Z" transform="translate(-1561.526 -1675.881)" fill="#ebc4ae"/>
                  </g>
                  <path id="Trazado_116617" data-name="Trazado 116617" d="M642.885,1992.241s-72.1,45.983-87.881,99.37,19.542,63.89,53.176,68.619l2.531-40.765s-23.562,0-8.531-22.283,55.421-37.138,55.421-37.138S759.94,1963.484,642.885,1992.241Z" transform="translate(-551.126 -1879.033)" fill="#26a69a"/>
                  <path id="Trazado_116618" data-name="Trazado 116618" d="M855.157,2511.729c-.413,0-10.151-.072-13.434-6.247-2.241-4.214-.851-10.1,4.133-17.484,15.026-22.276,54.21-36.88,55.871-37.491a.929.929,0,0,1,.641,1.743c-.4.148-40.285,15.011-54.972,36.786-4.567,6.771-5.924,12.01-4.035,15.57,2.756,5.192,11.706,5.266,11.8,5.266a.929.929,0,0,1,0,1.857Z" transform="translate(-795.572 -2270.369)" fill="#28716a"/>
                  <g id="Grupo_79918" data-name="Grupo 79918" transform="translate(53.225 242.988)">
                    <path id="Trazado_116619" data-name="Trazado 116619" d="M896.578,2892.422s-10.532-17.409,3.339-38.208l93.111,15.416s44.57-7.541,46.7-7.388,31.22,18.07,31.22,18.07-.977,2.078-7.9,1.694-2.378.837-2.378.837l-.251,3.5a9.631,9.631,0,0,1-8.684-3.008c-3.865-4.112-14.609-6.1-14.609-6.1s-22.838,16.875-45.272,8.71Z" transform="translate(-892.749 -2854.214)" fill="#f5d1bc"/>
                  </g>
                </g>
                <g id="Grupo_79921" data-name="Grupo 79921" transform="translate(102.108 275.627)">
                  <path id="Trazado_116622" data-name="Trazado 116622" d="M1513.377,3070.657a10.331,10.331,0,0,0-.625-4.828c-.564-1.345-1.405-2.124-2.293-2.124H1209.922c-1.167,0-2.253,1.169-2.882,3.1a12.55,12.55,0,0,0-.224,6.442l3.257,13.855c.745,3.173,2.361,5.2,4.14,5.2H1508.4c1.654,0,3.076-2.305,3.39-5.5Z" transform="translate(-1206.502 -3063.705)" fill="#12263f"/>
                </g>
              </g>
            </g>
          </g>
          <g id="Grupo_79925" data-name="Grupo 79925" transform="translate(244.8 49.073)" opacity="0.432">
            <path id="Trazado_116623" data-name="Trazado 116623" d="M2081.321,838.488c-39.345,18.784-65.194,57.875-34.642,56.05,57.36-3.426,18.646,28.522,48.813,27.582s76.864-7.374,107.418-39.035.854-39.228-11.53-38C2150.606,849.119,2204.564,779.651,2081.321,838.488Z" transform="translate(-2033.247 -814.728)" fill="#4dd0e1"/>
            <path id="Trazado_116624" data-name="Trazado 116624" d="M2256.251,1558.8c.082,4.455,3.361,11.768,10.722,11.632s16.019-7.669,15.937-12.124-6.117-7.957-13.479-7.821S2256.169,1554.348,2256.251,1558.8Z" transform="translate(-2221.506 -1435.854)" fill="#4dd0e1"/>
            <path id="Trazado_116625" data-name="Trazado 116625" d="M2185.323,1692.37a4.043,4.043,0,0,0,4.238,3.829c2.3-.042,6.851-2.336,6.812-4.493s-2.893-4.314-5.194-4.271S2185.283,1690.213,2185.323,1692.37Z" transform="translate(-2161.629 -1551.465)" fill="#4dd0e1"/>
          </g>
        </g>
        <g id="Grupo_79307" data-name="Grupo 79307" transform="translate(-273.947 -4096.646)">
          <path id="Trazado_115790" data-name="Trazado 115790" d="M1168.948,796.3a20.728,20.728,0,0,1,19.925,15.022h-39.85A20.728,20.728,0,0,1,1168.948,796.3Z" transform="translate(-1110.71 -795.14)" fill="#7b7e8d"/>
          <path id="Trazado_115791" data-name="Trazado 115791" d="M1230.872,807.045a14.3,14.3,0,0,1,13.75,10.366h-27.5A14.3,14.3,0,0,1,1230.872,807.045Z" transform="translate(-1149.316 -801.233)" fill="#7b7e8d"/>
          <path id="Trazado_115792" data-name="Trazado 115792" d="M1112.476,809.8c-2.676-9.261-13.282-16.178-25.959-16.178s-23.283,6.917-25.959,16.178Z" transform="translate(-1060.558 -793.626)" fill="#7b7e8d"/>
        </g>
        <circle id="Elipse_4777" data-name="Elipse 4777" cx="8.644" cy="8.644" r="8.644" transform="translate(-400.481 -4396.304)" fill="#fff"/>
        <circle id="Elipse_4780" data-name="Elipse 4780" cx="8.644" cy="8.644" r="8.644" transform="translate(-569.991 -4167.634)" fill="#fff"/>
        <circle id="Elipse_4781" data-name="Elipse 4781" cx="15.492" cy="15.492" r="15.492" transform="translate(-443.01 -4443.897)" fill="#fff"/>
        <circle id="Elipse_4782" data-name="Elipse 4782" cx="15.492" cy="15.492" r="15.492" transform="translate(-266.336 -4058.863)" fill="#fff"/>
        <g id="Grupo_79363" data-name="Grupo 79363" transform="translate(-622.593 -4210.602)">
          <path id="Trazado_116028" data-name="Trazado 116028" d="M1387.607,997.149a22.881,22.881,0,0,1,21.994,16.581h-43.989A22.881,22.881,0,0,1,1387.607,997.149Z" transform="translate(-1323.321 -995.872)" fill="#4dd0e1"/>
          <path id="Trazado_116029" data-name="Trazado 116029" d="M1455.962,1009.014a15.791,15.791,0,0,1,15.178,11.443h-30.357A15.791,15.791,0,0,1,1455.962,1009.014Z" transform="translate(-1365.937 -1002.598)" fill="#4dd0e1"/>
          <path id="Trazado_116030" data-name="Trazado 116030" d="M1325.272,1012.059c-2.954-10.223-14.661-17.858-28.655-17.858s-25.7,7.635-28.655,17.858Z" transform="translate(-1267.962 -994.201)" fill="#4dd0e1"/>
        </g>
      </g>
      <g id="Grupo_79928" data-name="Grupo 79928" transform="translate(-618.5 -2092.199)">
        <path id="Trazado_113201" data-name="Trazado 113201" d="M0,0H133.89V38.311A357.743,357.743,0,0,0,69.314,48.443C34.6,57.252,0,48.443,0,48.443Z" transform="translate(1125.111 9215)" fill="#1565c0"/>
        <path id="Trazado_113202" data-name="Trazado 113202" d="M0,0H133.89V38.311A357.743,357.743,0,0,0,69.314,48.443C34.6,57.252,0,48.443,0,48.443Z" transform="translate(1119.055 9220.382)" fill="#039be5"/>
        <path id="Trazado_113203" data-name="Trazado 113203" d="M0,0H133.89V38.311A357.743,357.743,0,0,0,69.314,48.443C34.6,57.252,0,48.443,0,48.443Z" transform="translate(1113 9229.129)" fill="#1565c0"/>
      </g>
      <g id="Grupo_79929" data-name="Grupo 79929" transform="translate(561.325 7187.895)">
        <path id="Trazado_113161" data-name="Trazado 113161" d="M-3543.241,1786.717v18.373s.923,12.468,32.843,13.687c31.852,1.217,33.478-14.447,33.478-14.447v-18.249S-3543.2,1786.775-3543.241,1786.717Z" transform="translate(3543.241 -1776.633)" fill="#1565c0"/>
        <ellipse id="Elipse_4705" data-name="Elipse 4705" cx="33.16" cy="9.85" rx="33.16" ry="9.85" transform="translate(0)" fill="#039be5"/>
      </g>
      <path id="Unión_29" data-name="Unión 29" d="M3226.508,11722.946h-20.4v-16.615h20.4V11700l16.887,14.639-16.887,14.639Z" transform="translate(3727.765 18925.998) rotate(180)" fill="#039be5"/>
    </g>
  </g>
</svg>
