<svg xmlns="http://www.w3.org/2000/svg" width="595" height="328" viewBox="0 0 595 328">
  <g id="Grupo_79938" data-name="Grupo 79938" transform="translate(-180 -5750)">
    <rect id="Rectángulo_33828" data-name="Rectángulo 33828" width="595" height="328" transform="translate(180 5750)" fill="#ccd7dd"/>
    <g id="Grupo_78442" data-name="Grupo 78442" transform="translate(1827 11344)">
      <g id="Grupo_78439" data-name="Grupo 78439">
        <rect id="Rectángulo_33786" data-name="Rectángulo 33786" width="128" height="89" rx="13" transform="translate(-1610 -5449)" fill="#4dd0e1"/>
        <path id="Trazado_116627" data-name="Trazado 116627" d="M-45.876,0V-14.93h4.214a6.784,6.784,0,0,1,3.445.861A5.825,5.825,0,0,1-35.9-11.618a7.977,7.977,0,0,1,.825,3.65v.954a8,8,0,0,1-.815,3.7,5.734,5.734,0,0,1-2.328,2.44A7.216,7.216,0,0,1-41.744,0Zm1.969-13.32V-1.61h2.071a4.507,4.507,0,0,0,3.543-1.416,5.851,5.851,0,0,0,1.266-4.033v-.872a5.944,5.944,0,0,0-1.195-3.956A4.251,4.251,0,0,0-41.61-13.32ZM-30.341,0h-1.9V-11.095h1.9Zm-2.051-14.038a1.132,1.132,0,0,1,.282-.779,1.059,1.059,0,0,1,.836-.318,1.075,1.075,0,0,1,.841.318,1.12,1.12,0,0,1,.287.779,1.084,1.084,0,0,1-.287.769,1.1,1.1,0,0,1-.841.308,1.078,1.078,0,0,1-.836-.308A1.1,1.1,0,0,1-32.392-14.038ZM-20.457,0a3.985,3.985,0,0,1-.267-1.169A4.233,4.233,0,0,1-23.881.205a3.916,3.916,0,0,1-2.692-.928,3,3,0,0,1-1.051-2.353,3.136,3.136,0,0,1,1.318-2.692A6.212,6.212,0,0,1-22.6-6.727h1.846V-7.6a2.131,2.131,0,0,0-.595-1.584,2.39,2.39,0,0,0-1.753-.59,2.766,2.766,0,0,0-1.7.513,1.511,1.511,0,0,0-.687,1.241H-27.4a2.618,2.618,0,0,1,.59-1.6,4.024,4.024,0,0,1,1.6-1.225,5.381,5.381,0,0,1,2.22-.451,4.386,4.386,0,0,1,3,.959A3.458,3.458,0,0,1-18.857-7.7v5.106a6.243,6.243,0,0,0,.39,2.43V0ZM-23.6-1.446a3.334,3.334,0,0,0,1.692-.461,2.791,2.791,0,0,0,1.159-1.2V-5.383h-1.487q-3.486,0-3.486,2.041a1.727,1.727,0,0,0,.595,1.395A2.286,2.286,0,0,0-23.6-1.446Zm7.27-4.194a6.521,6.521,0,0,1,1.2-4.127A3.837,3.837,0,0,1-11.956-11.3,3.817,3.817,0,0,1-8.788-9.864l.092-1.23h1.733V-.267A4.514,4.514,0,0,1-8.239,3.127a4.711,4.711,0,0,1-3.43,1.241,5.706,5.706,0,0,1-2.348-.513,4.042,4.042,0,0,1-1.753-1.4l.984-1.138A3.71,3.71,0,0,0-11.8,2.82a2.906,2.906,0,0,0,2.158-.779A2.979,2.979,0,0,0-8.87-.154v-.954A3.9,3.9,0,0,1-11.977.205,3.79,3.79,0,0,1-15.13-1.364,6.856,6.856,0,0,1-16.334-5.64Zm1.907.215a4.975,4.975,0,0,0,.769,2.948A2.5,2.5,0,0,0-11.5-1.4,2.779,2.779,0,0,0-8.87-3.035V-8.1A2.811,2.811,0,0,0-11.484-9.69a2.521,2.521,0,0,0-2.164,1.077A5.418,5.418,0,0,0-14.427-5.424ZM1.261-9.393a5.685,5.685,0,0,0-.933-.072A2.5,2.5,0,0,0-2.2-7.875V0H-4.1V-11.095h1.846l.031,1.282A2.954,2.954,0,0,1,.42-11.3a1.938,1.938,0,0,1,.841.144ZM9.444,0a3.985,3.985,0,0,1-.267-1.169A4.233,4.233,0,0,1,6.019.205,3.916,3.916,0,0,1,3.327-.723,3,3,0,0,1,2.276-3.076,3.136,3.136,0,0,1,3.594-5.768,6.212,6.212,0,0,1,7.3-6.727H9.146V-7.6a2.131,2.131,0,0,0-.595-1.584A2.39,2.39,0,0,0,6.8-9.772a2.766,2.766,0,0,0-1.7.513,1.511,1.511,0,0,0-.687,1.241H2.5a2.618,2.618,0,0,1,.59-1.6,4.024,4.024,0,0,1,1.6-1.225,5.381,5.381,0,0,1,2.22-.451,4.386,4.386,0,0,1,3,.959A3.459,3.459,0,0,1,11.043-7.7v5.106a6.243,6.243,0,0,0,.39,2.43V0ZM6.3-1.446a3.334,3.334,0,0,0,1.692-.461,2.791,2.791,0,0,0,1.159-1.2V-5.383H7.66q-3.486,0-3.486,2.041a1.727,1.727,0,0,0,.595,1.395A2.286,2.286,0,0,0,6.3-1.446ZM15.8-11.095l.051,1.23A4.1,4.1,0,0,1,19.144-11.3a3.172,3.172,0,0,1,3.168,1.784,4.2,4.2,0,0,1,1.441-1.292,4.255,4.255,0,0,1,2.1-.492q3.65,0,3.712,3.866V0h-1.9V-7.321A2.548,2.548,0,0,0,27.122-9.1,2.393,2.393,0,0,0,25.3-9.69a2.515,2.515,0,0,0-1.753.631,2.558,2.558,0,0,0-.81,1.7V0H20.826V-7.27a2.117,2.117,0,0,0-2.369-2.42A2.538,2.538,0,0,0,15.9-8.1V0h-1.9V-11.095ZM39.272,0a3.985,3.985,0,0,1-.267-1.169A4.233,4.233,0,0,1,35.848.205a3.916,3.916,0,0,1-2.692-.928A3,3,0,0,1,32.1-3.076a3.136,3.136,0,0,1,1.318-2.692,6.212,6.212,0,0,1,3.707-.959h1.846V-7.6a2.131,2.131,0,0,0-.595-1.584,2.39,2.39,0,0,0-1.753-.59,2.766,2.766,0,0,0-1.7.513,1.511,1.511,0,0,0-.687,1.241H32.331a2.618,2.618,0,0,1,.59-1.6,4.024,4.024,0,0,1,1.6-1.225,5.381,5.381,0,0,1,2.22-.451,4.386,4.386,0,0,1,3,.959A3.458,3.458,0,0,1,40.872-7.7v5.106a6.243,6.243,0,0,0,.39,2.43V0ZM36.125-1.446a3.334,3.334,0,0,0,1.692-.461,2.791,2.791,0,0,0,1.159-1.2V-5.383H37.488Q34-5.383,34-3.343A1.727,1.727,0,0,0,34.6-1.948,2.286,2.286,0,0,0,36.125-1.446ZM-33.356,26.36a6.5,6.5,0,0,1,1.21-4.107A3.826,3.826,0,0,1-28.978,20.7a3.848,3.848,0,0,1,3.086,1.333V16.25h1.9V32h-1.743l-.092-1.189A3.863,3.863,0,0,1-29,32.205a3.789,3.789,0,0,1-3.143-1.579A6.573,6.573,0,0,1-33.356,26.5Zm1.9.215a4.921,4.921,0,0,0,.779,2.953A2.519,2.519,0,0,0-28.526,30.6a2.767,2.767,0,0,0,2.635-1.62v-5.1a2.789,2.789,0,0,0-2.615-1.569,2.531,2.531,0,0,0-2.174,1.077A5.418,5.418,0,0,0-31.459,26.576Zm15.012,5.629a4.848,4.848,0,0,1-3.671-1.482,5.5,5.5,0,0,1-1.415-3.963v-.349a6.658,6.658,0,0,1,.631-2.948,4.919,4.919,0,0,1,1.764-2.03,4.434,4.434,0,0,1,2.456-.733,4.155,4.155,0,0,1,3.363,1.425,6.171,6.171,0,0,1,1.2,4.081V27h-7.516a3.944,3.944,0,0,0,.959,2.651,3.014,3.014,0,0,0,2.333,1.01,3.3,3.3,0,0,0,1.7-.41,4.277,4.277,0,0,0,1.22-1.087l1.159.9A4.659,4.659,0,0,1-16.447,32.205Zm-.236-9.946a2.53,2.53,0,0,0-1.928.836,4.062,4.062,0,0,0-.964,2.343h5.558v-.144a3.613,3.613,0,0,0-.779-2.24A2.382,2.382,0,0,0-16.683,22.259ZM2.2,17.85a13.5,13.5,0,0,0-2.051-.205q-2.051,0-2.051,2.16v1.1H.472v1.466H-1.9V32h-1.9V22.372H-5.547V20.905h1.753V19.7A3.619,3.619,0,0,1-2.8,16.978,3.885,3.885,0,0,1,0,16.035a25.841,25.841,0,0,1,4.1.625V32H2.2ZM14.048,30.9a4.029,4.029,0,0,1-3.25,1.3,3.449,3.449,0,0,1-2.7-1.031,4.461,4.461,0,0,1-.938-3.051V20.905h1.9v7.167q0,2.522,2.051,2.522A2.84,2.84,0,0,0,14,28.975v-8.07h1.9V32h-1.8Zm6.686-10V33.282q0,3.2-2.9,3.2a3.54,3.54,0,0,1-1.159-.183V34.789a3.667,3.667,0,0,0,.861.082,1.289,1.289,0,0,0,.969-.344,1.7,1.7,0,0,0,.333-1.2V20.905Zm-2.092-2.943a1.137,1.137,0,0,1,.282-.774,1.037,1.037,0,0,1,.825-.323,1.075,1.075,0,0,1,.841.318,1.12,1.12,0,0,1,.287.779,1.084,1.084,0,0,1-.287.769,1.1,1.1,0,0,1-.841.308,1.061,1.061,0,0,1-.831-.308A1.107,1.107,0,0,1,18.642,17.962Zm4.645,8.388a6.553,6.553,0,0,1,.641-2.933,4.781,4.781,0,0,1,1.784-2.01,4.857,4.857,0,0,1,2.61-.708,4.679,4.679,0,0,1,3.666,1.569,6.036,6.036,0,0,1,1.4,4.173v.133a6.61,6.61,0,0,1-.62,2.907,4.71,4.71,0,0,1-1.774,2,4.913,4.913,0,0,1-2.651.718,4.667,4.667,0,0,1-3.656-1.569,6.005,6.005,0,0,1-1.4-4.153Zm1.907.226a4.746,4.746,0,0,0,.856,2.963,2.9,2.9,0,0,0,4.589-.015,5.19,5.19,0,0,0,.851-3.174,4.738,4.738,0,0,0-.866-2.958,2.755,2.755,0,0,0-2.3-1.133,2.724,2.724,0,0,0-2.266,1.118A5.152,5.152,0,0,0,25.194,26.576Z" transform="translate(-1546 -5413)" fill="#12263f"/>
      </g>
      <g id="Grupo_78440" data-name="Grupo 78440" transform="translate(1)">
        <rect id="Rectángulo_33787" data-name="Rectángulo 33787" width="128" height="89" rx="13" transform="translate(-1457 -5449)" fill="#039be5"/>
        <path id="Trazado_116628" data-name="Trazado 116628" d="M-45.876,0V-14.93h4.214a6.784,6.784,0,0,1,3.445.861A5.825,5.825,0,0,1-35.9-11.618a7.977,7.977,0,0,1,.825,3.65v.954a8,8,0,0,1-.815,3.7,5.734,5.734,0,0,1-2.328,2.44A7.216,7.216,0,0,1-41.744,0Zm1.969-13.32V-1.61h2.071a4.507,4.507,0,0,0,3.543-1.416,5.851,5.851,0,0,0,1.266-4.033v-.872a5.944,5.944,0,0,0-1.195-3.956A4.251,4.251,0,0,0-41.61-13.32ZM-30.341,0h-1.9V-11.095h1.9Zm-2.051-14.038a1.132,1.132,0,0,1,.282-.779,1.059,1.059,0,0,1,.836-.318,1.075,1.075,0,0,1,.841.318,1.12,1.12,0,0,1,.287.779,1.084,1.084,0,0,1-.287.769,1.1,1.1,0,0,1-.841.308,1.078,1.078,0,0,1-.836-.308A1.1,1.1,0,0,1-32.392-14.038ZM-20.457,0a3.985,3.985,0,0,1-.267-1.169A4.233,4.233,0,0,1-23.881.205a3.916,3.916,0,0,1-2.692-.928,3,3,0,0,1-1.051-2.353,3.136,3.136,0,0,1,1.318-2.692A6.212,6.212,0,0,1-22.6-6.727h1.846V-7.6a2.131,2.131,0,0,0-.595-1.584,2.39,2.39,0,0,0-1.753-.59,2.766,2.766,0,0,0-1.7.513,1.511,1.511,0,0,0-.687,1.241H-27.4a2.618,2.618,0,0,1,.59-1.6,4.024,4.024,0,0,1,1.6-1.225,5.381,5.381,0,0,1,2.22-.451,4.386,4.386,0,0,1,3,.959A3.458,3.458,0,0,1-18.857-7.7v5.106a6.243,6.243,0,0,0,.39,2.43V0ZM-23.6-1.446a3.334,3.334,0,0,0,1.692-.461,2.791,2.791,0,0,0,1.159-1.2V-5.383h-1.487q-3.486,0-3.486,2.041a1.727,1.727,0,0,0,.595,1.395A2.286,2.286,0,0,0-23.6-1.446Zm7.27-4.194a6.521,6.521,0,0,1,1.2-4.127A3.837,3.837,0,0,1-11.956-11.3,3.817,3.817,0,0,1-8.788-9.864l.092-1.23h1.733V-.267A4.514,4.514,0,0,1-8.239,3.127a4.711,4.711,0,0,1-3.43,1.241,5.706,5.706,0,0,1-2.348-.513,4.042,4.042,0,0,1-1.753-1.4l.984-1.138A3.71,3.71,0,0,0-11.8,2.82a2.906,2.906,0,0,0,2.158-.779A2.979,2.979,0,0,0-8.87-.154v-.954A3.9,3.9,0,0,1-11.977.205,3.79,3.79,0,0,1-15.13-1.364,6.856,6.856,0,0,1-16.334-5.64Zm1.907.215a4.975,4.975,0,0,0,.769,2.948A2.5,2.5,0,0,0-11.5-1.4,2.779,2.779,0,0,0-8.87-3.035V-8.1A2.811,2.811,0,0,0-11.484-9.69a2.521,2.521,0,0,0-2.164,1.077A5.418,5.418,0,0,0-14.427-5.424ZM1.261-9.393a5.685,5.685,0,0,0-.933-.072A2.5,2.5,0,0,0-2.2-7.875V0H-4.1V-11.095h1.846l.031,1.282A2.954,2.954,0,0,1,.42-11.3a1.938,1.938,0,0,1,.841.144ZM9.444,0a3.985,3.985,0,0,1-.267-1.169A4.233,4.233,0,0,1,6.019.205,3.916,3.916,0,0,1,3.327-.723,3,3,0,0,1,2.276-3.076,3.136,3.136,0,0,1,3.594-5.768,6.212,6.212,0,0,1,7.3-6.727H9.146V-7.6a2.131,2.131,0,0,0-.595-1.584A2.39,2.39,0,0,0,6.8-9.772a2.766,2.766,0,0,0-1.7.513,1.511,1.511,0,0,0-.687,1.241H2.5a2.618,2.618,0,0,1,.59-1.6,4.024,4.024,0,0,1,1.6-1.225,5.381,5.381,0,0,1,2.22-.451,4.386,4.386,0,0,1,3,.959A3.459,3.459,0,0,1,11.043-7.7v5.106a6.243,6.243,0,0,0,.39,2.43V0ZM6.3-1.446a3.334,3.334,0,0,0,1.692-.461,2.791,2.791,0,0,0,1.159-1.2V-5.383H7.66q-3.486,0-3.486,2.041a1.727,1.727,0,0,0,.595,1.395A2.286,2.286,0,0,0,6.3-1.446ZM15.8-11.095l.051,1.23A4.1,4.1,0,0,1,19.144-11.3a3.172,3.172,0,0,1,3.168,1.784,4.2,4.2,0,0,1,1.441-1.292,4.255,4.255,0,0,1,2.1-.492q3.65,0,3.712,3.866V0h-1.9V-7.321A2.548,2.548,0,0,0,27.122-9.1,2.393,2.393,0,0,0,25.3-9.69a2.515,2.515,0,0,0-1.753.631,2.558,2.558,0,0,0-.81,1.7V0H20.826V-7.27a2.117,2.117,0,0,0-2.369-2.42A2.538,2.538,0,0,0,15.9-8.1V0h-1.9V-11.095ZM39.272,0a3.985,3.985,0,0,1-.267-1.169A4.233,4.233,0,0,1,35.848.205a3.916,3.916,0,0,1-2.692-.928A3,3,0,0,1,32.1-3.076a3.136,3.136,0,0,1,1.318-2.692,6.212,6.212,0,0,1,3.707-.959h1.846V-7.6a2.131,2.131,0,0,0-.595-1.584,2.39,2.39,0,0,0-1.753-.59,2.766,2.766,0,0,0-1.7.513,1.511,1.511,0,0,0-.687,1.241H32.331a2.618,2.618,0,0,1,.59-1.6,4.024,4.024,0,0,1,1.6-1.225,5.381,5.381,0,0,1,2.22-.451,4.386,4.386,0,0,1,3,.959A3.458,3.458,0,0,1,40.872-7.7v5.106a6.243,6.243,0,0,0,.39,2.43V0ZM36.125-1.446a3.334,3.334,0,0,0,1.692-.461,2.791,2.791,0,0,0,1.159-1.2V-5.383H37.488Q34-5.383,34-3.343A1.727,1.727,0,0,0,34.6-1.948,2.286,2.286,0,0,0,36.125-1.446ZM-35.2,26.36a6.5,6.5,0,0,1,1.21-4.107A3.826,3.826,0,0,1-30.818,20.7a3.848,3.848,0,0,1,3.086,1.333V16.25h1.9V32h-1.743l-.092-1.189a3.863,3.863,0,0,1-3.168,1.395,3.789,3.789,0,0,1-3.143-1.579A6.573,6.573,0,0,1-35.2,26.5Zm1.9.215a4.921,4.921,0,0,0,.779,2.953A2.519,2.519,0,0,0-30.367,30.6a2.767,2.767,0,0,0,2.635-1.62v-5.1a2.789,2.789,0,0,0-2.615-1.569,2.531,2.531,0,0,0-2.174,1.077A5.418,5.418,0,0,0-33.3,26.576Zm15.012,5.629a4.848,4.848,0,0,1-3.671-1.482,5.5,5.5,0,0,1-1.415-3.963v-.349a6.658,6.658,0,0,1,.631-2.948,4.919,4.919,0,0,1,1.764-2.03,4.434,4.434,0,0,1,2.456-.733,4.155,4.155,0,0,1,3.363,1.425,6.171,6.171,0,0,1,1.2,4.081V27h-7.516a3.944,3.944,0,0,0,.959,2.651,3.014,3.014,0,0,0,2.333,1.01,3.3,3.3,0,0,0,1.7-.41,4.277,4.277,0,0,0,1.22-1.087l1.159.9A4.659,4.659,0,0,1-18.288,32.205Zm-.236-9.946a2.53,2.53,0,0,0-1.928.836,4.062,4.062,0,0,0-.964,2.343h5.558v-.144a3.613,3.613,0,0,0-.779-2.24A2.382,2.382,0,0,0-18.524,22.259ZM4.753,30.042a4.548,4.548,0,0,1-2.117,1.625,8.553,8.553,0,0,1-3.163.538,6.135,6.135,0,0,1-3.24-.856,5.7,5.7,0,0,1-2.189-2.435,8.411,8.411,0,0,1-.795-3.661v-1.3a7.852,7.852,0,0,1,1.574-5.229A5.484,5.484,0,0,1-.754,16.865,5.665,5.665,0,0,1,3.01,18.06a5.2,5.2,0,0,1,1.743,3.389H2.784A3.255,3.255,0,0,0-.743,18.475a3.485,3.485,0,0,0-3,1.391,6.79,6.79,0,0,0-1.031,4.028v1.221a6.363,6.363,0,0,0,1.148,4A3.723,3.723,0,0,0-.518,30.6,6.862,6.862,0,0,0,1.42,30.35a3,3,0,0,0,1.374-.829V26.176H-.661v-1.61H4.753ZM14.586,32a3.985,3.985,0,0,1-.267-1.169,4.233,4.233,0,0,1-3.158,1.374,3.916,3.916,0,0,1-2.692-.928,3,3,0,0,1-1.051-2.353,3.136,3.136,0,0,1,1.318-2.692,6.212,6.212,0,0,1,3.707-.959h1.846V24.4a2.131,2.131,0,0,0-.595-1.584,2.39,2.39,0,0,0-1.753-.59,2.766,2.766,0,0,0-1.7.513,1.511,1.511,0,0,0-.687,1.241H7.644a2.618,2.618,0,0,1,.59-1.6,4.024,4.024,0,0,1,1.6-1.225,5.381,5.381,0,0,1,2.22-.451,4.386,4.386,0,0,1,3,.959,3.458,3.458,0,0,1,1.128,2.64v5.106a6.243,6.243,0,0,0,.39,2.43V32Zm-3.148-1.446a3.334,3.334,0,0,0,1.692-.461,2.791,2.791,0,0,0,1.159-1.2V26.617H12.8q-3.486,0-3.486,2.041a1.727,1.727,0,0,0,.595,1.395A2.286,2.286,0,0,0,11.438,30.554Zm9.516-9.649.062,1.395a4.043,4.043,0,0,1,3.322-1.6q3.517,0,3.548,3.968V32h-1.9V24.658a2.554,2.554,0,0,0-.549-1.774,2.2,2.2,0,0,0-1.677-.574,2.738,2.738,0,0,0-1.62.492,3.342,3.342,0,0,0-1.087,1.292V32h-1.9V20.905ZM33.32,18.219v2.687h2.071v1.466H33.32v6.889a1.54,1.54,0,0,0,.277,1,1.165,1.165,0,0,0,.943.334,4.593,4.593,0,0,0,.9-.123V32a5.532,5.532,0,0,1-1.456.2,2.362,2.362,0,0,1-1.917-.769,3.3,3.3,0,0,1-.646-2.184v-6.88H29.4V20.905h2.02V18.219Z" transform="translate(-1393 -5413)" fill="#12263f"/>
      </g>
      <path id="Trazado_116626" data-name="Trazado 116626" d="M-140.725-12.438H-145.3V0h-3.076V-12.438h-4.512V-14.93h12.161ZM-136.039,0h-2.974V-11.095h2.974Zm-3.148-13.966a1.459,1.459,0,0,1,.446-1.1,1.676,1.676,0,0,1,1.215-.431,1.679,1.679,0,0,1,1.21.431,1.451,1.451,0,0,1,.451,1.1,1.455,1.455,0,0,1-.456,1.107,1.684,1.684,0,0,1-1.2.431,1.684,1.684,0,0,1-1.2-.431A1.455,1.455,0,0,1-139.187-13.966Zm15.576,8.521a6.654,6.654,0,0,1-1.164,4.107A3.731,3.731,0,0,1-127.917.205a3.456,3.456,0,0,1-2.717-1.169V4.266H-133.6v-15.36h2.748l.1,1.087a3.483,3.483,0,0,1,2.81-1.292,3.757,3.757,0,0,1,3.189,1.518A6.834,6.834,0,0,1-123.611-5.6Zm-2.963-.226a4.391,4.391,0,0,0-.549-2.4,1.785,1.785,0,0,0-1.594-.843,1.94,1.94,0,0,0-1.917,1.07v4.556a1.972,1.972,0,0,0,1.938,1.1Q-126.574-2.184-126.574-5.671Zm4.337.021a6.58,6.58,0,0,1,.636-2.943,4.654,4.654,0,0,1,1.83-2A5.34,5.34,0,0,1-117-11.3a5.052,5.052,0,0,1,3.666,1.374,5.514,5.514,0,0,1,1.584,3.732l.021.759a5.8,5.8,0,0,1-1.425,4.1A4.954,4.954,0,0,1-116.977.205a4.979,4.979,0,0,1-3.83-1.538,5.9,5.9,0,0,1-1.43-4.184Zm2.963.21a4.147,4.147,0,0,0,.595,2.418,1.962,1.962,0,0,0,1.7.837,1.966,1.966,0,0,0,1.682-.827,4.538,4.538,0,0,0,.6-2.644,4.106,4.106,0,0,0-.6-2.4,1.967,1.967,0,0,0-1.7-.852,1.934,1.934,0,0,0-1.682.847A4.614,4.614,0,0,0-119.273-5.44Zm15.381,2.374a.955.955,0,0,0-.538-.856,6.115,6.115,0,0,0-1.728-.559q-3.958-.831-3.958-3.363a3.049,3.049,0,0,1,1.225-2.466,4.943,4.943,0,0,1,3.2-.99,5.32,5.32,0,0,1,3.379.995,3.135,3.135,0,0,1,1.266,2.584h-2.963a1.434,1.434,0,0,0-.41-1.051,1.736,1.736,0,0,0-1.282-.415,1.774,1.774,0,0,0-1.159.338,1.068,1.068,0,0,0-.41.861.913.913,0,0,0,.467.795,4.8,4.8,0,0,0,1.574.523,12.856,12.856,0,0,1,1.866.5,3.066,3.066,0,0,1,2.348,2.984,2.894,2.894,0,0,1-1.3,2.456,5.618,5.618,0,0,1-3.363.938,5.867,5.867,0,0,1-2.476-.5,4.155,4.155,0,0,1-1.7-1.364,3.169,3.169,0,0,1-.615-1.871h2.81a1.547,1.547,0,0,0,.584,1.21,2.318,2.318,0,0,0,1.456.42,2.146,2.146,0,0,0,1.287-.323A1,1,0,0,0-103.893-3.066Zm9.557-2.563a6.686,6.686,0,0,1,1.164-4.132A3.776,3.776,0,0,1-89.988-11.3a3.4,3.4,0,0,1,2.676,1.21v-5.66h2.974V0h-2.676l-.144-1.179A3.487,3.487,0,0,1-90.009.205a3.766,3.766,0,0,1-3.143-1.543A6.9,6.9,0,0,1-94.336-5.629Zm2.963.211a4.4,4.4,0,0,0,.543,2.4,1.769,1.769,0,0,0,1.579.834,1.982,1.982,0,0,0,1.938-1.164v-4.4a1.954,1.954,0,0,0-1.917-1.164Q-91.373-8.911-91.373-5.419ZM-76.935.205a5.447,5.447,0,0,1-3.973-1.5,5.321,5.321,0,0,1-1.533-3.989v-.287A6.7,6.7,0,0,1-81.8-8.557a4.741,4.741,0,0,1,1.83-2.03,5.137,5.137,0,0,1,2.7-.713,4.6,4.6,0,0,1,3.584,1.436,5.833,5.833,0,0,1,1.307,4.071v1.21h-7.065a2.753,2.753,0,0,0,.866,1.743,2.619,2.619,0,0,0,1.83.656,3.2,3.2,0,0,0,2.676-1.241l1.456,1.63a4.449,4.449,0,0,1-1.8,1.471A5.921,5.921,0,0,1-76.935.205Zm-.338-9.116a1.852,1.852,0,0,0-1.43.6,3.093,3.093,0,0,0-.7,1.71h4.122V-6.84a2.206,2.206,0,0,0-.533-1.529A1.91,1.91,0,0,0-77.273-8.911Zm11.351,3.281a6.686,6.686,0,0,1,1.164-4.132A3.776,3.776,0,0,1-61.575-11.3,3.4,3.4,0,0,1-58.9-10.09v-5.66h2.974V0H-58.6l-.144-1.179A3.487,3.487,0,0,1-61.6.205a3.766,3.766,0,0,1-3.143-1.543A6.9,6.9,0,0,1-65.922-5.629Zm2.963.211a4.4,4.4,0,0,0,.543,2.4,1.769,1.769,0,0,0,1.579.834A1.982,1.982,0,0,0-58.9-3.348v-4.4a1.954,1.954,0,0,0-1.917-1.164Q-62.959-8.911-62.959-5.419ZM-50.5,0h-2.974V-11.095H-50.5Zm-3.148-13.966a1.459,1.459,0,0,1,.446-1.1,1.676,1.676,0,0,1,1.215-.431,1.679,1.679,0,0,1,1.21.431,1.451,1.451,0,0,1,.451,1.1,1.455,1.455,0,0,1-.456,1.107,1.684,1.684,0,0,1-1.2.431,1.684,1.684,0,0,1-1.2-.431A1.455,1.455,0,0,1-53.648-13.966ZM-41.631,0a3.291,3.291,0,0,1-.3-.995,3.586,3.586,0,0,1-2.8,1.2,3.939,3.939,0,0,1-2.7-.943A3.034,3.034,0,0,1-48.5-3.117a3.135,3.135,0,0,1,1.307-2.707,6.451,6.451,0,0,1,3.779-.954h1.364v-.636a1.828,1.828,0,0,0-.395-1.23,1.553,1.553,0,0,0-1.246-.461,1.766,1.766,0,0,0-1.174.359,1.219,1.219,0,0,0-.426.984h-2.963a2.977,2.977,0,0,1,.595-1.784,3.931,3.931,0,0,1,1.682-1.287,6.129,6.129,0,0,1,2.44-.467,4.842,4.842,0,0,1,3.256,1.031,3.605,3.605,0,0,1,1.2,2.9v4.809a5.3,5.3,0,0,0,.441,2.389V0Zm-2.451-2.061a2.552,2.552,0,0,0,1.21-.292,1.919,1.919,0,0,0,.82-.784V-5.045h-1.107q-2.225,0-2.369,1.538l-.01.174a1.186,1.186,0,0,0,.39.913A1.514,1.514,0,0,0-44.082-2.061Zm6.85-3.568a6.5,6.5,0,0,1,1.215-4.112A3.937,3.937,0,0,1-32.741-11.3a3.453,3.453,0,0,1,2.84,1.251l.123-1.046h2.687V-.369a4.742,4.742,0,0,1-.661,2.533A4.248,4.248,0,0,1-29.613,3.8a6.543,6.543,0,0,1-2.81.564A6.084,6.084,0,0,1-34.8,3.881a4.222,4.222,0,0,1-1.753-1.256l1.313-1.8a3.471,3.471,0,0,0,2.687,1.241,2.541,2.541,0,0,0,1.835-.631,2.365,2.365,0,0,0,.656-1.789V-.954a3.428,3.428,0,0,1-2.7,1.159A3.927,3.927,0,0,1-36-1.359a6.5,6.5,0,0,1-1.236-4.148Zm2.963.211a4.07,4.07,0,0,0,.6,2.374A1.923,1.923,0,0,0-32-2.184,2.056,2.056,0,0,0-30.064-3.2V-7.891a2.051,2.051,0,0,0-1.917-1.02,1.935,1.935,0,0,0-1.677.876A4.589,4.589,0,0,0-34.269-5.419Zm15.688-2.9A8.051,8.051,0,0,0-19.646-8.4a2.171,2.171,0,0,0-2.2,1.138V0h-2.963V-11.095h2.8l.082,1.323A2.746,2.746,0,0,1-19.462-11.3a3.105,3.105,0,0,1,.923.133ZM-11.033,0a3.291,3.291,0,0,1-.3-.995,3.586,3.586,0,0,1-2.8,1.2,3.939,3.939,0,0,1-2.7-.943A3.034,3.034,0,0,1-17.9-3.117,3.135,3.135,0,0,1-16.6-5.824a6.451,6.451,0,0,1,3.779-.954h1.364v-.636a1.828,1.828,0,0,0-.395-1.23,1.553,1.553,0,0,0-1.246-.461,1.766,1.766,0,0,0-1.174.359,1.219,1.219,0,0,0-.426.984h-2.963a2.977,2.977,0,0,1,.595-1.784,3.931,3.931,0,0,1,1.682-1.287,6.129,6.129,0,0,1,2.44-.467,4.842,4.842,0,0,1,3.256,1.031,3.605,3.605,0,0,1,1.2,2.9v4.809A5.3,5.3,0,0,0-8.039-.174V0Zm-2.451-2.061a2.552,2.552,0,0,0,1.21-.292,1.919,1.919,0,0,0,.82-.784V-5.045h-1.107q-2.225,0-2.369,1.538l-.01.174a1.186,1.186,0,0,0,.39.913A1.514,1.514,0,0,0-13.484-2.061Zm10.059-9.034.092,1.241A3.9,3.9,0,0,1-.144-11.3,2.959,2.959,0,0,1,2.8-9.608,3.809,3.809,0,0,1,6.132-11.3a3.309,3.309,0,0,1,2.687,1.051A4.831,4.831,0,0,1,9.7-7.085V0H6.727V-7.092a2.121,2.121,0,0,0-.369-1.382,1.634,1.634,0,0,0-1.3-.437A1.85,1.85,0,0,0,3.209-7.636L3.22,0H.256V-7.081a2.1,2.1,0,0,0-.379-1.4,1.65,1.65,0,0,0-1.292-.432A1.92,1.92,0,0,0-3.24-7.862V0H-6.2V-11.095ZM18.406,0a3.291,3.291,0,0,1-.3-.995,3.586,3.586,0,0,1-2.8,1.2,3.939,3.939,0,0,1-2.7-.943,3.034,3.034,0,0,1-1.072-2.379,3.135,3.135,0,0,1,1.307-2.707,6.451,6.451,0,0,1,3.779-.954h1.364v-.636a1.828,1.828,0,0,0-.395-1.23,1.553,1.553,0,0,0-1.246-.461,1.766,1.766,0,0,0-1.174.359,1.219,1.219,0,0,0-.426.984H11.782a2.977,2.977,0,0,1,.595-1.784,3.931,3.931,0,0,1,1.682-1.287A6.129,6.129,0,0,1,16.5-11.3a4.842,4.842,0,0,1,3.256,1.031,3.605,3.605,0,0,1,1.2,2.9v4.809A5.3,5.3,0,0,0,21.4-.174V0ZM15.955-2.061a2.552,2.552,0,0,0,1.21-.292,1.919,1.919,0,0,0,.82-.784V-5.045H16.878q-2.225,0-2.369,1.538l-.01.174a1.186,1.186,0,0,0,.39.913A1.514,1.514,0,0,0,15.955-2.061Zm13.289-1a.955.955,0,0,0-.538-.856,6.115,6.115,0,0,0-1.728-.559Q23.02-5.312,23.02-7.844a3.049,3.049,0,0,1,1.225-2.466,4.943,4.943,0,0,1,3.2-.99,5.32,5.32,0,0,1,3.379.995,3.135,3.135,0,0,1,1.266,2.584H29.131a1.434,1.434,0,0,0-.41-1.051,1.736,1.736,0,0,0-1.282-.415,1.774,1.774,0,0,0-1.159.338,1.068,1.068,0,0,0-.41.861.913.913,0,0,0,.467.795,4.8,4.8,0,0,0,1.574.523,12.856,12.856,0,0,1,1.866.5,3.066,3.066,0,0,1,2.348,2.984,2.894,2.894,0,0,1-1.3,2.456A5.618,5.618,0,0,1,27.46.205a5.867,5.867,0,0,1-2.476-.5,4.155,4.155,0,0,1-1.7-1.364,3.169,3.169,0,0,1-.615-1.871h2.81a1.547,1.547,0,0,0,.584,1.21,2.318,2.318,0,0,0,1.456.42,2.146,2.146,0,0,0,1.287-.323A1,1,0,0,0,29.244-3.066ZM38.8-5.629a6.686,6.686,0,0,1,1.164-4.132A3.776,3.776,0,0,1,43.148-11.3a3.4,3.4,0,0,1,2.676,1.21v-5.66H48.8V0H46.122l-.144-1.179A3.487,3.487,0,0,1,43.128.205a3.766,3.766,0,0,1-3.143-1.543A6.9,6.9,0,0,1,38.8-5.629Zm2.963.211a4.4,4.4,0,0,0,.543,2.4,1.769,1.769,0,0,0,1.579.834,1.982,1.982,0,0,0,1.938-1.164v-4.4a1.954,1.954,0,0,0-1.917-1.164Q41.764-8.911,41.764-5.419ZM56.2.205a5.447,5.447,0,0,1-3.973-1.5A5.321,5.321,0,0,1,50.7-5.281v-.287a6.7,6.7,0,0,1,.646-2.989,4.741,4.741,0,0,1,1.83-2.03,5.137,5.137,0,0,1,2.7-.713,4.6,4.6,0,0,1,3.584,1.436,5.833,5.833,0,0,1,1.307,4.071v1.21H53.7a2.753,2.753,0,0,0,.866,1.743,2.619,2.619,0,0,0,1.83.656,3.2,3.2,0,0,0,2.676-1.241l1.456,1.63a4.449,4.449,0,0,1-1.8,1.471A5.921,5.921,0,0,1,56.2.205Zm-.338-9.116a1.852,1.852,0,0,0-1.43.6,3.093,3.093,0,0,0-.7,1.71h4.122V-6.84a2.206,2.206,0,0,0-.533-1.529A1.91,1.91,0,0,0,55.863-8.911Zm21.8,3.466A6.654,6.654,0,0,1,76.5-1.338,3.731,3.731,0,0,1,73.356.205,3.456,3.456,0,0,1,70.639-.964V4.266H67.676v-15.36h2.748l.1,1.087a3.483,3.483,0,0,1,2.81-1.292,3.757,3.757,0,0,1,3.189,1.518A6.834,6.834,0,0,1,77.663-5.6ZM74.7-5.671a4.391,4.391,0,0,0-.549-2.4,1.785,1.785,0,0,0-1.594-.843,1.94,1.94,0,0,0-1.917,1.07v4.556a1.972,1.972,0,0,0,1.938,1.1Q74.7-2.184,74.7-5.671ZM85.733-8.316A8.051,8.051,0,0,0,84.667-8.4a2.171,2.171,0,0,0-2.2,1.138V0H79.5V-11.095h2.8l.082,1.323A2.746,2.746,0,0,1,84.851-11.3a3.105,3.105,0,0,1,.923.133Zm.595,2.666a6.58,6.58,0,0,1,.636-2.943,4.654,4.654,0,0,1,1.83-2,5.34,5.34,0,0,1,2.774-.708,5.052,5.052,0,0,1,3.666,1.374,5.514,5.514,0,0,1,1.584,3.732l.021.759a5.8,5.8,0,0,1-1.425,4.1A4.954,4.954,0,0,1,91.588.205a4.979,4.979,0,0,1-3.83-1.538,5.9,5.9,0,0,1-1.43-4.184Zm2.963.21a4.147,4.147,0,0,0,.595,2.418,1.962,1.962,0,0,0,1.7.837,1.966,1.966,0,0,0,1.682-.827,4.538,4.538,0,0,0,.6-2.644,4.106,4.106,0,0,0-.6-2.4,1.967,1.967,0,0,0-1.7-.852,1.934,1.934,0,0,0-1.682.847A4.614,4.614,0,0,0,89.291-5.44Zm13.986,3.255a1.944,1.944,0,0,0,1.333-.451,1.581,1.581,0,0,0,.533-1.2h2.779a3.8,3.8,0,0,1-.615,2.066,4.06,4.06,0,0,1-1.656,1.456,5.183,5.183,0,0,1-2.323.518,4.817,4.817,0,0,1-3.753-1.512A5.985,5.985,0,0,1,98.2-5.486v-.195a5.917,5.917,0,0,1,1.364-4.091,4.761,4.761,0,0,1,3.743-1.528,4.667,4.667,0,0,1,3.338,1.184,4.193,4.193,0,0,1,1.277,3.153h-2.779a2.036,2.036,0,0,0-.533-1.407,1.778,1.778,0,0,0-1.354-.541,1.785,1.785,0,0,0-1.564.755,4.374,4.374,0,0,0-.528,2.449V-5.4a4.43,4.43,0,0,0,.523,2.465A1.807,1.807,0,0,0,103.277-2.184ZM114.721.205a5.447,5.447,0,0,1-3.973-1.5,5.321,5.321,0,0,1-1.533-3.989v-.287a6.7,6.7,0,0,1,.646-2.989,4.741,4.741,0,0,1,1.83-2.03,5.137,5.137,0,0,1,2.7-.713,4.6,4.6,0,0,1,3.584,1.436,5.833,5.833,0,0,1,1.307,4.071v1.21h-7.065a2.753,2.753,0,0,0,.866,1.743,2.619,2.619,0,0,0,1.83.656,3.2,3.2,0,0,0,2.676-1.241l1.456,1.63a4.449,4.449,0,0,1-1.8,1.471A5.921,5.921,0,0,1,114.721.205Zm-.338-9.116a1.852,1.852,0,0,0-1.43.6,3.093,3.093,0,0,0-.7,1.71h4.122V-6.84a2.206,2.206,0,0,0-.533-1.529A1.91,1.91,0,0,0,114.382-8.911Zm12.592,5.845a.955.955,0,0,0-.538-.856,6.115,6.115,0,0,0-1.728-.559q-3.958-.831-3.958-3.363a3.049,3.049,0,0,1,1.225-2.466,4.943,4.943,0,0,1,3.2-.99,5.32,5.32,0,0,1,3.379.995,3.135,3.135,0,0,1,1.266,2.584h-2.963a1.434,1.434,0,0,0-.41-1.051,1.736,1.736,0,0,0-1.282-.415,1.774,1.774,0,0,0-1.159.338,1.068,1.068,0,0,0-.41.861.913.913,0,0,0,.467.795,4.8,4.8,0,0,0,1.574.523,12.856,12.856,0,0,1,1.866.5,3.066,3.066,0,0,1,2.348,2.984,2.894,2.894,0,0,1-1.3,2.456,5.618,5.618,0,0,1-3.363.938,5.867,5.867,0,0,1-2.476-.5,4.155,4.155,0,0,1-1.7-1.364,3.169,3.169,0,0,1-.615-1.871h2.81a1.547,1.547,0,0,0,.584,1.21,2.318,2.318,0,0,0,1.456.42,2.146,2.146,0,0,0,1.287-.323A1,1,0,0,0,126.974-3.066ZM131.3-5.65a6.58,6.58,0,0,1,.636-2.943,4.654,4.654,0,0,1,1.83-2,5.34,5.34,0,0,1,2.774-.708,5.052,5.052,0,0,1,3.666,1.374,5.514,5.514,0,0,1,1.584,3.732l.021.759a5.8,5.8,0,0,1-1.425,4.1A4.954,4.954,0,0,1,136.562.205a4.979,4.979,0,0,1-3.83-1.538,5.9,5.9,0,0,1-1.43-4.184Zm2.963.21a4.147,4.147,0,0,0,.595,2.418,1.962,1.962,0,0,0,1.7.837,1.966,1.966,0,0,0,1.682-.827,4.538,4.538,0,0,0,.6-2.644,4.106,4.106,0,0,0-.6-2.4,1.967,1.967,0,0,0-1.7-.852,1.934,1.934,0,0,0-1.682.847A4.614,4.614,0,0,0,134.265-5.44Zm15.381,2.374a.955.955,0,0,0-.538-.856,6.115,6.115,0,0,0-1.728-.559q-3.958-.831-3.958-3.363a3.049,3.049,0,0,1,1.225-2.466,4.943,4.943,0,0,1,3.2-.99,5.32,5.32,0,0,1,3.379.995A3.135,3.135,0,0,1,152.5-7.721h-2.963a1.434,1.434,0,0,0-.41-1.051,1.736,1.736,0,0,0-1.282-.415,1.774,1.774,0,0,0-1.159.338,1.068,1.068,0,0,0-.41.861.913.913,0,0,0,.467.795,4.8,4.8,0,0,0,1.574.523,12.856,12.856,0,0,1,1.866.5,3.066,3.066,0,0,1,2.348,2.984,2.894,2.894,0,0,1-1.3,2.456,5.618,5.618,0,0,1-3.363.938,5.867,5.867,0,0,1-2.476-.5,4.155,4.155,0,0,1-1.7-1.364,3.169,3.169,0,0,1-.615-1.871h2.81a1.547,1.547,0,0,0,.584,1.21,2.318,2.318,0,0,0,1.456.42,2.146,2.146,0,0,0,1.287-.323A1,1,0,0,0,149.646-3.066Z" transform="translate(-1393 -5480)" fill="#12263f"/>
      <g id="Grupo_78441" data-name="Grupo 78441">
        <rect id="Rectángulo_33788" data-name="Rectángulo 33788" width="128" height="89" rx="13" transform="translate(-1302 -5449)" fill="#26a69a"/>
        <path id="Trazado_116629" data-name="Trazado 116629" d="M-45.876,0V-14.93h4.214a6.784,6.784,0,0,1,3.445.861A5.825,5.825,0,0,1-35.9-11.618a7.977,7.977,0,0,1,.825,3.65v.954a8,8,0,0,1-.815,3.7,5.734,5.734,0,0,1-2.328,2.44A7.216,7.216,0,0,1-41.744,0Zm1.969-13.32V-1.61h2.071a4.507,4.507,0,0,0,3.543-1.416,5.851,5.851,0,0,0,1.266-4.033v-.872a5.944,5.944,0,0,0-1.195-3.956A4.251,4.251,0,0,0-41.61-13.32ZM-30.341,0h-1.9V-11.095h1.9Zm-2.051-14.038a1.132,1.132,0,0,1,.282-.779,1.059,1.059,0,0,1,.836-.318,1.075,1.075,0,0,1,.841.318,1.12,1.12,0,0,1,.287.779,1.084,1.084,0,0,1-.287.769,1.1,1.1,0,0,1-.841.308,1.078,1.078,0,0,1-.836-.308A1.1,1.1,0,0,1-32.392-14.038ZM-20.457,0a3.985,3.985,0,0,1-.267-1.169A4.233,4.233,0,0,1-23.881.205a3.916,3.916,0,0,1-2.692-.928,3,3,0,0,1-1.051-2.353,3.136,3.136,0,0,1,1.318-2.692A6.212,6.212,0,0,1-22.6-6.727h1.846V-7.6a2.131,2.131,0,0,0-.595-1.584,2.39,2.39,0,0,0-1.753-.59,2.766,2.766,0,0,0-1.7.513,1.511,1.511,0,0,0-.687,1.241H-27.4a2.618,2.618,0,0,1,.59-1.6,4.024,4.024,0,0,1,1.6-1.225,5.381,5.381,0,0,1,2.22-.451,4.386,4.386,0,0,1,3,.959A3.458,3.458,0,0,1-18.857-7.7v5.106a6.243,6.243,0,0,0,.39,2.43V0ZM-23.6-1.446a3.334,3.334,0,0,0,1.692-.461,2.791,2.791,0,0,0,1.159-1.2V-5.383h-1.487q-3.486,0-3.486,2.041a1.727,1.727,0,0,0,.595,1.395A2.286,2.286,0,0,0-23.6-1.446Zm7.27-4.194a6.521,6.521,0,0,1,1.2-4.127A3.837,3.837,0,0,1-11.956-11.3,3.817,3.817,0,0,1-8.788-9.864l.092-1.23h1.733V-.267A4.514,4.514,0,0,1-8.239,3.127a4.711,4.711,0,0,1-3.43,1.241,5.706,5.706,0,0,1-2.348-.513,4.042,4.042,0,0,1-1.753-1.4l.984-1.138A3.71,3.71,0,0,0-11.8,2.82a2.906,2.906,0,0,0,2.158-.779A2.979,2.979,0,0,0-8.87-.154v-.954A3.9,3.9,0,0,1-11.977.205,3.79,3.79,0,0,1-15.13-1.364,6.856,6.856,0,0,1-16.334-5.64Zm1.907.215a4.975,4.975,0,0,0,.769,2.948A2.5,2.5,0,0,0-11.5-1.4,2.779,2.779,0,0,0-8.87-3.035V-8.1A2.811,2.811,0,0,0-11.484-9.69a2.521,2.521,0,0,0-2.164,1.077A5.418,5.418,0,0,0-14.427-5.424ZM1.261-9.393a5.685,5.685,0,0,0-.933-.072A2.5,2.5,0,0,0-2.2-7.875V0H-4.1V-11.095h1.846l.031,1.282A2.954,2.954,0,0,1,.42-11.3a1.938,1.938,0,0,1,.841.144ZM9.444,0a3.985,3.985,0,0,1-.267-1.169A4.233,4.233,0,0,1,6.019.205,3.916,3.916,0,0,1,3.327-.723,3,3,0,0,1,2.276-3.076,3.136,3.136,0,0,1,3.594-5.768,6.212,6.212,0,0,1,7.3-6.727H9.146V-7.6a2.131,2.131,0,0,0-.595-1.584A2.39,2.39,0,0,0,6.8-9.772a2.766,2.766,0,0,0-1.7.513,1.511,1.511,0,0,0-.687,1.241H2.5a2.618,2.618,0,0,1,.59-1.6,4.024,4.024,0,0,1,1.6-1.225,5.381,5.381,0,0,1,2.22-.451,4.386,4.386,0,0,1,3,.959A3.459,3.459,0,0,1,11.043-7.7v5.106a6.243,6.243,0,0,0,.39,2.43V0ZM6.3-1.446a3.334,3.334,0,0,0,1.692-.461,2.791,2.791,0,0,0,1.159-1.2V-5.383H7.66q-3.486,0-3.486,2.041a1.727,1.727,0,0,0,.595,1.395A2.286,2.286,0,0,0,6.3-1.446ZM15.8-11.095l.051,1.23A4.1,4.1,0,0,1,19.144-11.3a3.172,3.172,0,0,1,3.168,1.784,4.2,4.2,0,0,1,1.441-1.292,4.255,4.255,0,0,1,2.1-.492q3.65,0,3.712,3.866V0h-1.9V-7.321A2.548,2.548,0,0,0,27.122-9.1,2.393,2.393,0,0,0,25.3-9.69a2.515,2.515,0,0,0-1.753.631,2.558,2.558,0,0,0-.81,1.7V0H20.826V-7.27a2.117,2.117,0,0,0-2.369-2.42A2.538,2.538,0,0,0,15.9-8.1V0h-1.9V-11.095ZM39.272,0a3.985,3.985,0,0,1-.267-1.169A4.233,4.233,0,0,1,35.848.205a3.916,3.916,0,0,1-2.692-.928A3,3,0,0,1,32.1-3.076a3.136,3.136,0,0,1,1.318-2.692,6.212,6.212,0,0,1,3.707-.959h1.846V-7.6a2.131,2.131,0,0,0-.595-1.584,2.39,2.39,0,0,0-1.753-.59,2.766,2.766,0,0,0-1.7.513,1.511,1.511,0,0,0-.687,1.241H32.331a2.618,2.618,0,0,1,.59-1.6,4.024,4.024,0,0,1,1.6-1.225,5.381,5.381,0,0,1,2.22-.451,4.386,4.386,0,0,1,3,.959A3.458,3.458,0,0,1,40.872-7.7v5.106a6.243,6.243,0,0,0,.39,2.43V0ZM36.125-1.446a3.334,3.334,0,0,0,1.692-.461,2.791,2.791,0,0,0,1.159-1.2V-5.383H37.488Q34-5.383,34-3.343A1.727,1.727,0,0,0,34.6-1.948,2.286,2.286,0,0,0,36.125-1.446ZM-32.469,26.36a6.5,6.5,0,0,1,1.21-4.107A3.826,3.826,0,0,1-28.091,20.7,3.848,3.848,0,0,1-25,22.033V16.25h1.9V32H-24.85l-.092-1.189a3.863,3.863,0,0,1-3.168,1.395,3.789,3.789,0,0,1-3.143-1.579A6.573,6.573,0,0,1-32.469,26.5Zm1.9.215a4.921,4.921,0,0,0,.779,2.953A2.519,2.519,0,0,0-27.639,30.6,2.767,2.767,0,0,0-25,28.975v-5.1a2.789,2.789,0,0,0-2.615-1.569,2.531,2.531,0,0,0-2.174,1.077A5.418,5.418,0,0,0-30.572,26.576Zm15.012,5.629a4.848,4.848,0,0,1-3.671-1.482,5.5,5.5,0,0,1-1.415-3.963v-.349a6.658,6.658,0,0,1,.631-2.948,4.919,4.919,0,0,1,1.764-2.03A4.434,4.434,0,0,1-15.8,20.7a4.155,4.155,0,0,1,3.363,1.425,6.171,6.171,0,0,1,1.2,4.081V27h-7.516a3.944,3.944,0,0,0,.959,2.651,3.014,3.014,0,0,0,2.333,1.01,3.3,3.3,0,0,0,1.7-.41,4.277,4.277,0,0,0,1.22-1.087l1.159.9A4.659,4.659,0,0,1-15.56,32.205Zm-.236-9.946a2.53,2.53,0,0,0-1.928.836,4.062,4.062,0,0,0-.964,2.343h5.558v-.144a3.613,3.613,0,0,0-.779-2.24A2.382,2.382,0,0,0-15.8,22.259Zm14.222,3.9V32H-3.543V17.07H1.964A5.532,5.532,0,0,1,5.8,18.321a4.241,4.241,0,0,1,1.389,3.312,4.185,4.185,0,0,1-1.359,3.348,5.779,5.779,0,0,1-3.891,1.174Zm0-1.61H1.964a3.537,3.537,0,0,0,2.42-.745,2.723,2.723,0,0,0,.841-2.152,2.813,2.813,0,0,0-.841-2.136,3.314,3.314,0,0,0-2.307-.832h-3.65Zm15.453,7.66a4.848,4.848,0,0,1-3.671-1.482A5.5,5.5,0,0,1,8.793,26.76v-.349a6.658,6.658,0,0,1,.631-2.948,4.919,4.919,0,0,1,1.764-2.03,4.434,4.434,0,0,1,2.456-.733,4.155,4.155,0,0,1,3.363,1.425,6.171,6.171,0,0,1,1.2,4.081V27H10.69a3.944,3.944,0,0,0,.959,2.651,3.014,3.014,0,0,0,2.333,1.01,3.3,3.3,0,0,0,1.7-.41A4.277,4.277,0,0,0,16.9,29.16l1.159.9A4.659,4.659,0,0,1,13.879,32.205Zm-.236-9.946a2.53,2.53,0,0,0-1.928.836,4.062,4.062,0,0,0-.964,2.343h5.558v-.144a3.613,3.613,0,0,0-.779-2.24A2.382,2.382,0,0,0,13.643,22.259Zm12.12.349a5.685,5.685,0,0,0-.933-.072A2.5,2.5,0,0,0,22.3,24.125V32H20.4V20.905h1.846l.031,1.282A2.954,2.954,0,0,1,24.922,20.7a1.938,1.938,0,0,1,.841.144Zm4.83-4.389v2.687h2.071v1.466H30.593v6.889a1.54,1.54,0,0,0,.277,1,1.165,1.165,0,0,0,.943.334,4.593,4.593,0,0,0,.9-.123V32a5.532,5.532,0,0,1-1.456.2,2.362,2.362,0,0,1-1.917-.769,3.3,3.3,0,0,1-.646-2.184v-6.88h-2.02V20.905H28.7V18.219Z" transform="translate(-1239 -5413)" fill="#12263f"/>
      </g>
    </g>
  </g>
</svg>
