<svg xmlns="http://www.w3.org/2000/svg" xmlns:xlink="http://www.w3.org/1999/xlink" width="369" height="288.71" viewBox="0 0 369 288.71">
  <defs>
    <linearGradient id="linear-gradient" x1="0.5" x2="0.5" y2="1" gradientUnits="objectBoundingBox">
      <stop offset="0" stop-color="#039be5"/>
      <stop offset="1" stop-color="#027fbc"/>
    </linearGradient>
  </defs>
  <g id="Grupo_78385" data-name="Grupo 78385" transform="translate(-928 -1000)">
    <circle id="Elipse_4692" data-name="Elipse 4692" cx="63" cy="63" r="63" transform="translate(1051 1068)" fill="url(#linear-gradient)"/>
    <path id="Trazado_116631" data-name="Trazado 116631" d="M-23.727-5.258h-4.93v4.031h5.727V0h-7.227V-11.375h7.148v1.227h-5.648v3.664h4.93Zm3.8-3.2.047,1.063a3.08,3.08,0,0,1,2.531-1.219q2.68,0,2.7,3.023V0h-1.445V-5.594A1.946,1.946,0,0,0-16.5-6.945a1.675,1.675,0,0,0-1.277-.437,2.086,2.086,0,0,0-1.234.375,2.546,2.546,0,0,0-.828.984V0h-1.445V-8.453ZM-11.75,0V-7.336h-1.336V-8.453h1.336V-9.32a2.878,2.878,0,0,1,.727-2.1,2.745,2.745,0,0,1,2.055-.742,3.816,3.816,0,0,1,.992.132l-.078,1.165a4.151,4.151,0,0,0-.781-.07,1.41,1.41,0,0,0-1.086.411,1.669,1.669,0,0,0-.383,1.18v.893h1.8v1.117h-1.8V0Zm4.461-4.3A4.993,4.993,0,0,1-6.8-6.539,3.643,3.643,0,0,1-5.441-8.07a3.7,3.7,0,0,1,1.988-.539A3.565,3.565,0,0,1-.66-7.414,4.6,4.6,0,0,1,.406-4.234v.1A5.036,5.036,0,0,1-.066-1.918,3.589,3.589,0,0,1-1.418-.391a3.743,3.743,0,0,1-2.02.547,3.556,3.556,0,0,1-2.785-1.2A4.575,4.575,0,0,1-7.289-4.2Zm1.453.172a3.616,3.616,0,0,0,.652,2.258,2.088,2.088,0,0,0,1.746.852,2.075,2.075,0,0,0,1.75-.863A3.955,3.955,0,0,0-1.039-4.3,3.61,3.61,0,0,0-1.7-6.559a2.1,2.1,0,0,0-1.754-.863A2.075,2.075,0,0,0-5.18-6.57,3.925,3.925,0,0,0-5.836-4.133Zm7.7-.164a4.961,4.961,0,0,1,.914-3.152,2.962,2.962,0,0,1,2.453-1.16A2.96,2.96,0,0,1,7.6-7.6l.063-.852H8.992V3.25H7.547V-.781A3.033,3.033,0,0,1,5.219.156,2.915,2.915,0,0,1,2.777-1.035a5.072,5.072,0,0,1-.91-3.16Zm1.445.164a3.761,3.761,0,0,0,.613,2.281,1.951,1.951,0,0,0,1.652.828A2.164,2.164,0,0,0,7.547-2.164V-6.3A2.171,2.171,0,0,0,5.594-7.422,1.965,1.965,0,0,0,3.93-6.59,4.094,4.094,0,0,0,3.313-4.133Zm13.219,3.3a3.07,3.07,0,0,1-2.477.992A2.628,2.628,0,0,1,12-.629a3.4,3.4,0,0,1-.715-2.324v-5.5h1.445v5.461q0,1.922,1.563,1.922a2.163,2.163,0,0,0,2.2-1.234V-8.453h1.445V0H16.563Zm7.109.992a3.693,3.693,0,0,1-2.8-1.129,4.19,4.19,0,0,1-1.078-3.02v-.266a5.073,5.073,0,0,1,.48-2.246A3.748,3.748,0,0,1,21.59-8.051a3.378,3.378,0,0,1,1.871-.559,3.166,3.166,0,0,1,2.563,1.086,4.7,4.7,0,0,1,.914,3.109v.6H21.211a3,3,0,0,0,.73,2.02,2.3,2.3,0,0,0,1.777.77,2.517,2.517,0,0,0,1.3-.312,3.259,3.259,0,0,0,.93-.828l.883.688A3.55,3.55,0,0,1,23.641.156Zm-.18-7.578a1.928,1.928,0,0,0-1.469.637A3.1,3.1,0,0,0,21.258-5h4.234v-.109A2.753,2.753,0,0,0,24.9-6.816,1.815,1.815,0,0,0,23.461-7.422ZM-28.73,21.758a1.064,1.064,0,0,0-.441-.91,4.249,4.249,0,0,0-1.539-.559,7.277,7.277,0,0,1-1.742-.562,2.479,2.479,0,0,1-.953-.781,1.869,1.869,0,0,1-.309-1.078,2.193,2.193,0,0,1,.879-1.758,3.432,3.432,0,0,1,2.246-.719,3.532,3.532,0,0,1,2.332.742,2.357,2.357,0,0,1,.895,1.9h-1.453a1.3,1.3,0,0,0-.5-1.023,1.888,1.888,0,0,0-1.27-.43,1.976,1.976,0,0,0-1.234.344,1.082,1.082,0,0,0-.445.9.877.877,0,0,0,.414.789,5.1,5.1,0,0,0,1.5.508,7.8,7.8,0,0,1,1.754.578,2.558,2.558,0,0,1,1,.809,1.988,1.988,0,0,1,.324,1.152,2.163,2.163,0,0,1-.906,1.816,3.8,3.8,0,0,1-2.352.684,4.257,4.257,0,0,1-1.8-.359,2.922,2.922,0,0,1-1.223-1A2.42,2.42,0,0,1-34,21.4h1.445a1.5,1.5,0,0,0,.582,1.152,2.258,2.258,0,0,0,1.434.426,2.331,2.331,0,0,0,1.316-.332A1.02,1.02,0,0,0-28.73,21.758Zm4.9,2.242h-1.445V15.547h1.445Zm-1.562-10.7a.863.863,0,0,1,.215-.594.807.807,0,0,1,.637-.242.819.819,0,0,1,.641.242.854.854,0,0,1,.219.594.826.826,0,0,1-.219.586.834.834,0,0,1-.641.234.821.821,0,0,1-.637-.234A.834.834,0,0,1-25.395,13.3Zm8.8,8.453a1.064,1.064,0,0,0-.441-.91,4.249,4.249,0,0,0-1.539-.559,7.277,7.277,0,0,1-1.742-.562,2.479,2.479,0,0,1-.953-.781,1.869,1.869,0,0,1-.309-1.078,2.193,2.193,0,0,1,.879-1.758,3.432,3.432,0,0,1,2.246-.719,3.532,3.532,0,0,1,2.332.742,2.357,2.357,0,0,1,.895,1.9h-1.453a1.3,1.3,0,0,0-.5-1.023,1.888,1.888,0,0,0-1.27-.43,1.976,1.976,0,0,0-1.234.344,1.082,1.082,0,0,0-.445.9.877.877,0,0,0,.414.789,5.1,5.1,0,0,0,1.5.508,7.8,7.8,0,0,1,1.754.578,2.558,2.558,0,0,1,1,.809,1.988,1.988,0,0,1,.324,1.152,2.163,2.163,0,0,1-.906,1.816,3.8,3.8,0,0,1-2.352.684,4.257,4.257,0,0,1-1.8-.359,2.922,2.922,0,0,1-1.223-1,2.42,2.42,0,0,1-.441-1.395h1.445a1.5,1.5,0,0,0,.582,1.152,2.258,2.258,0,0,0,1.434.426,2.331,2.331,0,0,0,1.316-.332A1.02,1.02,0,0,0-16.6,21.758Zm5.289-8.258v2.047H-9.73v1.117h-1.578v5.249a1.173,1.173,0,0,0,.211.763.888.888,0,0,0,.719.254,3.5,3.5,0,0,0,.688-.094V24a4.215,4.215,0,0,1-1.109.155,1.8,1.8,0,0,1-1.461-.586,2.517,2.517,0,0,1-.492-1.664V16.664h-1.539V15.547h1.539V13.5Zm6.773,10.656a3.693,3.693,0,0,1-2.8-1.129,4.19,4.19,0,0,1-1.078-3.02v-.266A5.073,5.073,0,0,1-7.93,17.5a3.748,3.748,0,0,1,1.344-1.547,3.378,3.378,0,0,1,1.871-.559,3.166,3.166,0,0,1,2.563,1.086,4.7,4.7,0,0,1,.914,3.109v.6H-6.965a3,3,0,0,0,.73,2.02,2.3,2.3,0,0,0,1.777.77,2.517,2.517,0,0,0,1.3-.312,3.259,3.259,0,0,0,.93-.828l.883.688A3.55,3.55,0,0,1-4.535,24.156Zm-.18-7.578a1.928,1.928,0,0,0-1.469.637A3.1,3.1,0,0,0-6.918,19h4.234v-.109a2.753,2.753,0,0,0-.594-1.707A1.815,1.815,0,0,0-4.715,16.578Zm.7-4.562h1.75l-2.094,2.3-1.164,0Zm5.8,3.531.039.938A3.122,3.122,0,0,1,4.34,15.391,2.417,2.417,0,0,1,6.754,16.75a3.2,3.2,0,0,1,1.1-.984,3.242,3.242,0,0,1,1.6-.375q2.781,0,2.828,2.945V24H10.832V18.422a1.941,1.941,0,0,0-.414-1.355,1.823,1.823,0,0,0-1.391-.449,1.916,1.916,0,0,0-1.336.48,1.949,1.949,0,0,0-.617,1.293V24H5.621V18.461a1.613,1.613,0,0,0-1.8-1.844,1.934,1.934,0,0,0-1.945,1.211V24H.426V15.547ZM16.027,24H14.582V15.547h1.445ZM14.465,13.3a.863.863,0,0,1,.215-.594.807.807,0,0,1,.637-.242.819.819,0,0,1,.641.242.854.854,0,0,1,.219.594.826.826,0,0,1-.219.586.834.834,0,0,1-.641.234.821.821,0,0,1-.637-.234A.834.834,0,0,1,14.465,13.3Zm7.266,9.672a2.082,2.082,0,0,0,1.352-.469,1.649,1.649,0,0,0,.641-1.172H25.09a2.621,2.621,0,0,1-.5,1.383,3.293,3.293,0,0,1-1.23,1.047,3.55,3.55,0,0,1-1.629.391A3.482,3.482,0,0,1,18.984,23a4.59,4.59,0,0,1-1.02-3.152v-.242a5.089,5.089,0,0,1,.453-2.2,3.451,3.451,0,0,1,1.3-1.492,3.7,3.7,0,0,1,2-.531,3.39,3.39,0,0,1,2.363.852,3.043,3.043,0,0,1,1,2.211H23.723a1.992,1.992,0,0,0-.621-1.348,1.932,1.932,0,0,0-1.379-.527,2.023,2.023,0,0,0-1.707.793,3.724,3.724,0,0,0-.605,2.293v.273a3.65,3.65,0,0,0,.6,2.25A2.033,2.033,0,0,0,21.73,22.977Zm4.6-3.281a4.993,4.993,0,0,1,.488-2.234A3.643,3.643,0,0,1,28.18,15.93a3.7,3.7,0,0,1,1.988-.539,3.565,3.565,0,0,1,2.793,1.2,4.6,4.6,0,0,1,1.066,3.18v.1a5.036,5.036,0,0,1-.473,2.215A3.589,3.589,0,0,1,32.2,23.609a3.743,3.743,0,0,1-2.02.547,3.556,3.556,0,0,1-2.785-1.2A4.575,4.575,0,0,1,26.332,19.8Zm1.453.172a3.616,3.616,0,0,0,.652,2.258,2.211,2.211,0,0,0,3.5-.012,3.955,3.955,0,0,0,.648-2.418,3.61,3.61,0,0,0-.66-2.254,2.1,2.1,0,0,0-1.754-.863,2.075,2.075,0,0,0-1.727.852A3.925,3.925,0,0,0,27.785,19.867Z" transform="translate(1115 1127)" fill="#fff"/>
    <rect id="Rectángulo_33779" data-name="Rectángulo 33779" width="109" height="36" rx="18" transform="translate(1061 1000)" fill="#4dd0e1"/>
    <path id="Trazado_113178" data-name="Trazado 113178" d="M18,0H91a18,18,0,0,1,0,36H18A18,18,0,0,1,18,0Z" transform="translate(1188 1103)" fill="#039be5"/>
    <path id="Trazado_113179" data-name="Trazado 113179" d="M18,0H91a18,18,0,0,1,0,36H18A18,18,0,0,1,18,0Z" transform="translate(1147 1218)" fill="#4393ef"/>
    <rect id="Rectángulo_33783" data-name="Rectángulo 33783" width="109" height="36" rx="18" transform="translate(972 1219)" fill="#26a69a"/>
    <rect id="Rectángulo_33781" data-name="Rectángulo 33781" width="109" height="36" rx="18" transform="translate(928 1103)" fill="#3db6c6"/>
    <path id="Trazado_116626" data-name="Trazado 116626" d="M-32.211-5.258h-4.93v4.031h5.727V0h-7.227V-11.375h7.148v1.227h-5.648v3.664h4.93ZM-28.2,0h-1.445V-12H-28.2Zm5.82.156a3.693,3.693,0,0,1-2.8-1.129,4.19,4.19,0,0,1-1.078-3.02v-.266a5.073,5.073,0,0,1,.48-2.246,3.748,3.748,0,0,1,1.344-1.547,3.378,3.378,0,0,1,1.871-.559A3.166,3.166,0,0,1-20-7.523a4.7,4.7,0,0,1,.914,3.109v.6h-5.727a3,3,0,0,0,.73,2.02,2.3,2.3,0,0,0,1.777.77,2.517,2.517,0,0,0,1.3-.312,3.259,3.259,0,0,0,.93-.828l.883.688A3.55,3.55,0,0,1-22.383.156Zm-.18-7.578a1.928,1.928,0,0,0-1.469.637A3.1,3.1,0,0,0-24.766-5h4.234v-.109a2.753,2.753,0,0,0-.594-1.707A1.815,1.815,0,0,0-22.562-7.422Zm6.508-1.031.039.938a3.122,3.122,0,0,1,2.508-1.094A2.417,2.417,0,0,1-11.094-7.25,3.2,3.2,0,0,1-10-8.234a3.242,3.242,0,0,1,1.6-.375q2.781,0,2.828,2.945V0H-7.016V-5.578A1.941,1.941,0,0,0-7.43-6.934,1.823,1.823,0,0,0-8.82-7.383a1.916,1.916,0,0,0-1.336.48,1.949,1.949,0,0,0-.617,1.293V0h-1.453V-5.539a1.613,1.613,0,0,0-1.8-1.844,1.934,1.934,0,0,0-1.945,1.211V0h-1.445V-8.453ZM.117.156A3.693,3.693,0,0,1-2.68-.973a4.19,4.19,0,0,1-1.078-3.02v-.266A5.073,5.073,0,0,1-3.277-6.5,3.748,3.748,0,0,1-1.934-8.051,3.378,3.378,0,0,1-.062-8.609,3.166,3.166,0,0,1,2.5-7.523a4.7,4.7,0,0,1,.914,3.109v.6H-2.312a3,3,0,0,0,.73,2.02A2.3,2.3,0,0,0,.2-1.023a2.517,2.517,0,0,0,1.3-.312,3.259,3.259,0,0,0,.93-.828l.883.688A3.55,3.55,0,0,1,.117.156Zm-.18-7.578a1.928,1.928,0,0,0-1.469.637A3.1,3.1,0,0,0-2.266-5H1.969v-.109a2.753,2.753,0,0,0-.594-1.707A1.815,1.815,0,0,0-.062-7.422ZM6.453-8.453,6.5-7.391A3.08,3.08,0,0,1,9.031-8.609q2.68,0,2.7,3.023V0H10.289V-5.594a1.946,1.946,0,0,0-.418-1.352,1.675,1.675,0,0,0-1.277-.437,2.086,2.086,0,0,0-1.234.375,2.546,2.546,0,0,0-.828.984V0H5.086V-8.453ZM15.875-10.5v2.047h1.578v1.117H15.875v5.249a1.173,1.173,0,0,0,.211.763.888.888,0,0,0,.719.254,3.5,3.5,0,0,0,.688-.094V0a4.215,4.215,0,0,1-1.109.155A1.8,1.8,0,0,1,14.922-.43a2.517,2.517,0,0,1-.492-1.664V-7.336H12.891V-8.453H14.43V-10.5ZM18.6-4.3a4.993,4.993,0,0,1,.488-2.234A3.643,3.643,0,0,1,20.449-8.07a3.7,3.7,0,0,1,1.988-.539,3.565,3.565,0,0,1,2.793,1.2A4.6,4.6,0,0,1,26.3-4.234v.1a5.036,5.036,0,0,1-.473,2.215A3.589,3.589,0,0,1,24.473-.391a3.743,3.743,0,0,1-2.02.547,3.556,3.556,0,0,1-2.785-1.2A4.575,4.575,0,0,1,18.6-4.2Zm1.453.172a3.616,3.616,0,0,0,.652,2.258,2.088,2.088,0,0,0,1.746.852,2.075,2.075,0,0,0,1.75-.863A3.955,3.955,0,0,0,24.852-4.3a3.61,3.61,0,0,0-.66-2.254,2.1,2.1,0,0,0-1.754-.863,2.075,2.075,0,0,0-1.727.852A3.925,3.925,0,0,0,20.055-4.133ZM36.672,0H35.219V-9.633L32.3-8.562V-9.875l4.141-1.555h.227Z" transform="translate(1115 1024)" fill="#12263f"/>
    <path id="Trazado_116630" data-name="Trazado 116630" d="M-32.211-5.258h-4.93v4.031h5.727V0h-7.227V-11.375h7.148v1.227h-5.648v3.664h4.93ZM-28.2,0h-1.445V-12H-28.2Zm5.82.156a3.693,3.693,0,0,1-2.8-1.129,4.19,4.19,0,0,1-1.078-3.02v-.266a5.073,5.073,0,0,1,.48-2.246,3.748,3.748,0,0,1,1.344-1.547,3.378,3.378,0,0,1,1.871-.559A3.166,3.166,0,0,1-20-7.523a4.7,4.7,0,0,1,.914,3.109v.6h-5.727a3,3,0,0,0,.73,2.02,2.3,2.3,0,0,0,1.777.77,2.517,2.517,0,0,0,1.3-.312,3.259,3.259,0,0,0,.93-.828l.883.688A3.55,3.55,0,0,1-22.383.156Zm-.18-7.578a1.928,1.928,0,0,0-1.469.637A3.1,3.1,0,0,0-24.766-5h4.234v-.109a2.753,2.753,0,0,0-.594-1.707A1.815,1.815,0,0,0-22.562-7.422Zm6.508-1.031.039.938a3.122,3.122,0,0,1,2.508-1.094A2.417,2.417,0,0,1-11.094-7.25,3.2,3.2,0,0,1-10-8.234a3.242,3.242,0,0,1,1.6-.375q2.781,0,2.828,2.945V0H-7.016V-5.578A1.941,1.941,0,0,0-7.43-6.934,1.823,1.823,0,0,0-8.82-7.383a1.916,1.916,0,0,0-1.336.48,1.949,1.949,0,0,0-.617,1.293V0h-1.453V-5.539a1.613,1.613,0,0,0-1.8-1.844,1.934,1.934,0,0,0-1.945,1.211V0h-1.445V-8.453ZM.117.156A3.693,3.693,0,0,1-2.68-.973a4.19,4.19,0,0,1-1.078-3.02v-.266A5.073,5.073,0,0,1-3.277-6.5,3.748,3.748,0,0,1-1.934-8.051,3.378,3.378,0,0,1-.062-8.609,3.166,3.166,0,0,1,2.5-7.523a4.7,4.7,0,0,1,.914,3.109v.6H-2.312a3,3,0,0,0,.73,2.02A2.3,2.3,0,0,0,.2-1.023a2.517,2.517,0,0,0,1.3-.312,3.259,3.259,0,0,0,.93-.828l.883.688A3.55,3.55,0,0,1,.117.156Zm-.18-7.578a1.928,1.928,0,0,0-1.469.637A3.1,3.1,0,0,0-2.266-5H1.969v-.109a2.753,2.753,0,0,0-.594-1.707A1.815,1.815,0,0,0-.062-7.422ZM6.453-8.453,6.5-7.391A3.08,3.08,0,0,1,9.031-8.609q2.68,0,2.7,3.023V0H10.289V-5.594a1.946,1.946,0,0,0-.418-1.352,1.675,1.675,0,0,0-1.277-.437,2.086,2.086,0,0,0-1.234.375,2.546,2.546,0,0,0-.828.984V0H5.086V-8.453ZM15.875-10.5v2.047h1.578v1.117H15.875v5.249a1.173,1.173,0,0,0,.211.763.888.888,0,0,0,.719.254,3.5,3.5,0,0,0,.688-.094V0a4.215,4.215,0,0,1-1.109.155A1.8,1.8,0,0,1,14.922-.43a2.517,2.517,0,0,1-.492-1.664V-7.336H12.891V-8.453H14.43V-10.5ZM18.6-4.3a4.993,4.993,0,0,1,.488-2.234A3.643,3.643,0,0,1,20.449-8.07a3.7,3.7,0,0,1,1.988-.539,3.565,3.565,0,0,1,2.793,1.2A4.6,4.6,0,0,1,26.3-4.234v.1a5.036,5.036,0,0,1-.473,2.215A3.589,3.589,0,0,1,24.473-.391a3.743,3.743,0,0,1-2.02.547,3.556,3.556,0,0,1-2.785-1.2A4.575,4.575,0,0,1,18.6-4.2Zm1.453.172a3.616,3.616,0,0,0,.652,2.258,2.088,2.088,0,0,0,1.746.852,2.075,2.075,0,0,0,1.75-.863A3.955,3.955,0,0,0,24.852-4.3a3.61,3.61,0,0,0-.66-2.254,2.1,2.1,0,0,0-1.754-.863,2.075,2.075,0,0,0-1.727.852A3.925,3.925,0,0,0,20.055-4.133ZM39.375,0H31.922V-1.039l3.938-4.375a9.355,9.355,0,0,0,1.207-1.613A2.693,2.693,0,0,0,37.4-8.312a2.041,2.041,0,0,0-.539-1.461,1.885,1.885,0,0,0-1.437-.57,2.232,2.232,0,0,0-1.676.613,2.343,2.343,0,0,0-.6,1.707H31.7a3.355,3.355,0,0,1,1.012-2.539,3.751,3.751,0,0,1,2.707-.969,3.6,3.6,0,0,1,2.508.832,2.838,2.838,0,0,1,.922,2.215q0,1.68-2.141,4l-3.047,3.3h5.711Z" transform="translate(1242 1127)" fill="#12263f"/>
    <path id="Trazado_116629" data-name="Trazado 116629" d="M-32.211-5.258h-4.93v4.031h5.727V0h-7.227V-11.375h7.148v1.227h-5.648v3.664h4.93ZM-28.2,0h-1.445V-12H-28.2Zm5.82.156a3.693,3.693,0,0,1-2.8-1.129,4.19,4.19,0,0,1-1.078-3.02v-.266a5.073,5.073,0,0,1,.48-2.246,3.748,3.748,0,0,1,1.344-1.547,3.378,3.378,0,0,1,1.871-.559A3.166,3.166,0,0,1-20-7.523a4.7,4.7,0,0,1,.914,3.109v.6h-5.727a3,3,0,0,0,.73,2.02,2.3,2.3,0,0,0,1.777.77,2.517,2.517,0,0,0,1.3-.312,3.259,3.259,0,0,0,.93-.828l.883.688A3.55,3.55,0,0,1-22.383.156Zm-.18-7.578a1.928,1.928,0,0,0-1.469.637A3.1,3.1,0,0,0-24.766-5h4.234v-.109a2.753,2.753,0,0,0-.594-1.707A1.815,1.815,0,0,0-22.562-7.422Zm6.508-1.031.039.938a3.122,3.122,0,0,1,2.508-1.094A2.417,2.417,0,0,1-11.094-7.25,3.2,3.2,0,0,1-10-8.234a3.242,3.242,0,0,1,1.6-.375q2.781,0,2.828,2.945V0H-7.016V-5.578A1.941,1.941,0,0,0-7.43-6.934,1.823,1.823,0,0,0-8.82-7.383a1.916,1.916,0,0,0-1.336.48,1.949,1.949,0,0,0-.617,1.293V0h-1.453V-5.539a1.613,1.613,0,0,0-1.8-1.844,1.934,1.934,0,0,0-1.945,1.211V0h-1.445V-8.453ZM.117.156A3.693,3.693,0,0,1-2.68-.973a4.19,4.19,0,0,1-1.078-3.02v-.266A5.073,5.073,0,0,1-3.277-6.5,3.748,3.748,0,0,1-1.934-8.051,3.378,3.378,0,0,1-.062-8.609,3.166,3.166,0,0,1,2.5-7.523a4.7,4.7,0,0,1,.914,3.109v.6H-2.312a3,3,0,0,0,.73,2.02A2.3,2.3,0,0,0,.2-1.023a2.517,2.517,0,0,0,1.3-.312,3.259,3.259,0,0,0,.93-.828l.883.688A3.55,3.55,0,0,1,.117.156Zm-.18-7.578a1.928,1.928,0,0,0-1.469.637A3.1,3.1,0,0,0-2.266-5H1.969v-.109a2.753,2.753,0,0,0-.594-1.707A1.815,1.815,0,0,0-.062-7.422ZM6.453-8.453,6.5-7.391A3.08,3.08,0,0,1,9.031-8.609q2.68,0,2.7,3.023V0H10.289V-5.594a1.946,1.946,0,0,0-.418-1.352,1.675,1.675,0,0,0-1.277-.437,2.086,2.086,0,0,0-1.234.375,2.546,2.546,0,0,0-.828.984V0H5.086V-8.453ZM15.875-10.5v2.047h1.578v1.117H15.875v5.249a1.173,1.173,0,0,0,.211.763.888.888,0,0,0,.719.254,3.5,3.5,0,0,0,.688-.094V0a4.215,4.215,0,0,1-1.109.155A1.8,1.8,0,0,1,14.922-.43a2.517,2.517,0,0,1-.492-1.664V-7.336H12.891V-8.453H14.43V-10.5ZM18.6-4.3a4.993,4.993,0,0,1,.488-2.234A3.643,3.643,0,0,1,20.449-8.07a3.7,3.7,0,0,1,1.988-.539,3.565,3.565,0,0,1,2.793,1.2A4.6,4.6,0,0,1,26.3-4.234v.1a5.036,5.036,0,0,1-.473,2.215A3.589,3.589,0,0,1,24.473-.391a3.743,3.743,0,0,1-2.02.547,3.556,3.556,0,0,1-2.785-1.2A4.575,4.575,0,0,1,18.6-4.2Zm1.453.172a3.616,3.616,0,0,0,.652,2.258,2.088,2.088,0,0,0,1.746.852,2.075,2.075,0,0,0,1.75-.863A3.955,3.955,0,0,0,24.852-4.3a3.61,3.61,0,0,0-.66-2.254,2.1,2.1,0,0,0-1.754-.863,2.075,2.075,0,0,0-1.727.852A3.925,3.925,0,0,0,20.055-4.133ZM34.023-6.391h1.086a2.387,2.387,0,0,0,1.609-.539A1.8,1.8,0,0,0,37.3-8.344a1.764,1.764,0,0,0-1.992-2,2.072,2.072,0,0,0-1.5.535,1.873,1.873,0,0,0-.559,1.418H31.813a2.9,2.9,0,0,1,.988-2.246,3.6,3.6,0,0,1,2.512-.895,3.558,3.558,0,0,1,2.523.852,3.076,3.076,0,0,1,.914,2.367,2.5,2.5,0,0,1-.48,1.438,2.9,2.9,0,0,1-1.309,1.039,2.8,2.8,0,0,1,1.449.984,2.734,2.734,0,0,1,.512,1.68,3.1,3.1,0,0,1-1,2.43,3.745,3.745,0,0,1-2.6.9,3.844,3.844,0,0,1-2.605-.867,2.877,2.877,0,0,1-1-2.289h1.453a1.859,1.859,0,0,0,.586,1.438,2.229,2.229,0,0,0,1.57.539,2.187,2.187,0,0,0,1.6-.547,2.108,2.108,0,0,0,.555-1.57,1.912,1.912,0,0,0-.609-1.523,2.655,2.655,0,0,0-1.758-.547H34.023Z" transform="translate(1201 1242)" fill="#12263f"/>
    <path id="Trazado_116628" data-name="Trazado 116628" d="M-32.211-5.258h-4.93v4.031h5.727V0h-7.227V-11.375h7.148v1.227h-5.648v3.664h4.93ZM-28.2,0h-1.445V-12H-28.2Zm5.82.156a3.693,3.693,0,0,1-2.8-1.129,4.19,4.19,0,0,1-1.078-3.02v-.266a5.073,5.073,0,0,1,.48-2.246,3.748,3.748,0,0,1,1.344-1.547,3.378,3.378,0,0,1,1.871-.559A3.166,3.166,0,0,1-20-7.523a4.7,4.7,0,0,1,.914,3.109v.6h-5.727a3,3,0,0,0,.73,2.02,2.3,2.3,0,0,0,1.777.77,2.517,2.517,0,0,0,1.3-.312,3.259,3.259,0,0,0,.93-.828l.883.688A3.55,3.55,0,0,1-22.383.156Zm-.18-7.578a1.928,1.928,0,0,0-1.469.637A3.1,3.1,0,0,0-24.766-5h4.234v-.109a2.753,2.753,0,0,0-.594-1.707A1.815,1.815,0,0,0-22.562-7.422Zm6.508-1.031.039.938a3.122,3.122,0,0,1,2.508-1.094A2.417,2.417,0,0,1-11.094-7.25,3.2,3.2,0,0,1-10-8.234a3.242,3.242,0,0,1,1.6-.375q2.781,0,2.828,2.945V0H-7.016V-5.578A1.941,1.941,0,0,0-7.43-6.934,1.823,1.823,0,0,0-8.82-7.383a1.916,1.916,0,0,0-1.336.48,1.949,1.949,0,0,0-.617,1.293V0h-1.453V-5.539a1.613,1.613,0,0,0-1.8-1.844,1.934,1.934,0,0,0-1.945,1.211V0h-1.445V-8.453ZM.117.156A3.693,3.693,0,0,1-2.68-.973a4.19,4.19,0,0,1-1.078-3.02v-.266A5.073,5.073,0,0,1-3.277-6.5,3.748,3.748,0,0,1-1.934-8.051,3.378,3.378,0,0,1-.062-8.609,3.166,3.166,0,0,1,2.5-7.523a4.7,4.7,0,0,1,.914,3.109v.6H-2.312a3,3,0,0,0,.73,2.02A2.3,2.3,0,0,0,.2-1.023a2.517,2.517,0,0,0,1.3-.312,3.259,3.259,0,0,0,.93-.828l.883.688A3.55,3.55,0,0,1,.117.156Zm-.18-7.578a1.928,1.928,0,0,0-1.469.637A3.1,3.1,0,0,0-2.266-5H1.969v-.109a2.753,2.753,0,0,0-.594-1.707A1.815,1.815,0,0,0-.062-7.422ZM6.453-8.453,6.5-7.391A3.08,3.08,0,0,1,9.031-8.609q2.68,0,2.7,3.023V0H10.289V-5.594a1.946,1.946,0,0,0-.418-1.352,1.675,1.675,0,0,0-1.277-.437,2.086,2.086,0,0,0-1.234.375,2.546,2.546,0,0,0-.828.984V0H5.086V-8.453ZM15.875-10.5v2.047h1.578v1.117H15.875v5.249a1.173,1.173,0,0,0,.211.763.888.888,0,0,0,.719.254,3.5,3.5,0,0,0,.688-.094V0a4.215,4.215,0,0,1-1.109.155A1.8,1.8,0,0,1,14.922-.43a2.517,2.517,0,0,1-.492-1.664V-7.336H12.891V-8.453H14.43V-10.5ZM18.6-4.3a4.993,4.993,0,0,1,.488-2.234A3.643,3.643,0,0,1,20.449-8.07a3.7,3.7,0,0,1,1.988-.539,3.565,3.565,0,0,1,2.793,1.2A4.6,4.6,0,0,1,26.3-4.234v.1a5.036,5.036,0,0,1-.473,2.215A3.589,3.589,0,0,1,24.473-.391a3.743,3.743,0,0,1-2.02.547,3.556,3.556,0,0,1-2.785-1.2A4.575,4.575,0,0,1,18.6-4.2Zm1.453.172a3.616,3.616,0,0,0,.652,2.258,2.088,2.088,0,0,0,1.746.852,2.075,2.075,0,0,0,1.75-.863A3.955,3.955,0,0,0,24.852-4.3a3.61,3.61,0,0,0-.66-2.254,2.1,2.1,0,0,0-1.754-.863,2.075,2.075,0,0,0-1.727.852A3.925,3.925,0,0,0,20.055-4.133Zm17.969.313H39.6v1.18H38.023V0H36.57V-2.641h-5.18v-.852l5.094-7.883h1.539Zm-4.992,0H36.57V-9.4l-.172.313Z" transform="translate(1026 1243)" fill="#12263f"/>
    <path id="Trazado_116627" data-name="Trazado 116627" d="M-32.211-5.258h-4.93v4.031h5.727V0h-7.227V-11.375h7.148v1.227h-5.648v3.664h4.93ZM-28.2,0h-1.445V-12H-28.2Zm5.82.156a3.693,3.693,0,0,1-2.8-1.129,4.19,4.19,0,0,1-1.078-3.02v-.266a5.073,5.073,0,0,1,.48-2.246,3.748,3.748,0,0,1,1.344-1.547,3.378,3.378,0,0,1,1.871-.559A3.166,3.166,0,0,1-20-7.523a4.7,4.7,0,0,1,.914,3.109v.6h-5.727a3,3,0,0,0,.73,2.02,2.3,2.3,0,0,0,1.777.77,2.517,2.517,0,0,0,1.3-.312,3.259,3.259,0,0,0,.93-.828l.883.688A3.55,3.55,0,0,1-22.383.156Zm-.18-7.578a1.928,1.928,0,0,0-1.469.637A3.1,3.1,0,0,0-24.766-5h4.234v-.109a2.753,2.753,0,0,0-.594-1.707A1.815,1.815,0,0,0-22.562-7.422Zm6.508-1.031.039.938a3.122,3.122,0,0,1,2.508-1.094A2.417,2.417,0,0,1-11.094-7.25,3.2,3.2,0,0,1-10-8.234a3.242,3.242,0,0,1,1.6-.375q2.781,0,2.828,2.945V0H-7.016V-5.578A1.941,1.941,0,0,0-7.43-6.934,1.823,1.823,0,0,0-8.82-7.383a1.916,1.916,0,0,0-1.336.48,1.949,1.949,0,0,0-.617,1.293V0h-1.453V-5.539a1.613,1.613,0,0,0-1.8-1.844,1.934,1.934,0,0,0-1.945,1.211V0h-1.445V-8.453ZM.117.156A3.693,3.693,0,0,1-2.68-.973a4.19,4.19,0,0,1-1.078-3.02v-.266A5.073,5.073,0,0,1-3.277-6.5,3.748,3.748,0,0,1-1.934-8.051,3.378,3.378,0,0,1-.062-8.609,3.166,3.166,0,0,1,2.5-7.523a4.7,4.7,0,0,1,.914,3.109v.6H-2.312a3,3,0,0,0,.73,2.02A2.3,2.3,0,0,0,.2-1.023a2.517,2.517,0,0,0,1.3-.312,3.259,3.259,0,0,0,.93-.828l.883.688A3.55,3.55,0,0,1,.117.156Zm-.18-7.578a1.928,1.928,0,0,0-1.469.637A3.1,3.1,0,0,0-2.266-5H1.969v-.109a2.753,2.753,0,0,0-.594-1.707A1.815,1.815,0,0,0-.062-7.422ZM6.453-8.453,6.5-7.391A3.08,3.08,0,0,1,9.031-8.609q2.68,0,2.7,3.023V0H10.289V-5.594a1.946,1.946,0,0,0-.418-1.352,1.675,1.675,0,0,0-1.277-.437,2.086,2.086,0,0,0-1.234.375,2.546,2.546,0,0,0-.828.984V0H5.086V-8.453ZM15.875-10.5v2.047h1.578v1.117H15.875v5.249a1.173,1.173,0,0,0,.211.763.888.888,0,0,0,.719.254,3.5,3.5,0,0,0,.688-.094V0a4.215,4.215,0,0,1-1.109.155A1.8,1.8,0,0,1,14.922-.43a2.517,2.517,0,0,1-.492-1.664V-7.336H12.891V-8.453H14.43V-10.5ZM18.6-4.3a4.993,4.993,0,0,1,.488-2.234A3.643,3.643,0,0,1,20.449-8.07a3.7,3.7,0,0,1,1.988-.539,3.565,3.565,0,0,1,2.793,1.2A4.6,4.6,0,0,1,26.3-4.234v.1a5.036,5.036,0,0,1-.473,2.215A3.589,3.589,0,0,1,24.473-.391a3.743,3.743,0,0,1-2.02.547,3.556,3.556,0,0,1-2.785-1.2A4.575,4.575,0,0,1,18.6-4.2Zm1.453.172a3.616,3.616,0,0,0,.652,2.258,2.088,2.088,0,0,0,1.746.852,2.075,2.075,0,0,0,1.75-.863A3.955,3.955,0,0,0,24.852-4.3a3.61,3.61,0,0,0-.66-2.254,2.1,2.1,0,0,0-1.754-.863,2.075,2.075,0,0,0-1.727.852A3.925,3.925,0,0,0,20.055-4.133ZM32.586-5.7l.578-5.672h5.828v1.336h-4.6l-.344,3.1a3.671,3.671,0,0,1,1.9-.492A3.138,3.138,0,0,1,38.414-6.4a4.026,4.026,0,0,1,.914,2.777,3.886,3.886,0,0,1-.949,2.77A3.46,3.46,0,0,1,35.727.156,3.6,3.6,0,0,1,33.266-.68,3.337,3.337,0,0,1,32.18-2.992h1.367a2.3,2.3,0,0,0,.7,1.473,2.162,2.162,0,0,0,1.484.5,1.95,1.95,0,0,0,1.582-.687,2.874,2.874,0,0,0,.574-1.9,2.638,2.638,0,0,0-.621-1.832,2.113,2.113,0,0,0-1.652-.691,2.383,2.383,0,0,0-1.484.414l-.383.313Z" transform="translate(982 1127)" fill="#12263f"/>
    <g id="Grupo_78380" data-name="Grupo 78380" transform="translate(4956.801 -696.722) rotate(-2)">
      <path id="Trazado_113176" data-name="Trazado 113176" d="M-3989.154,1779.848a2.843,2.843,0,0,1-1.427-.384c-21.192-12.245-28.79-35.7-31.432-53.217a2.856,2.856,0,0,1,2.4-3.25,2.855,2.855,0,0,1,3.25,2.4c2.455,16.279,9.417,38.015,28.642,49.123a2.856,2.856,0,0,1,1.044,3.9A2.855,2.855,0,0,1-3989.154,1779.848Z" transform="translate(-8.449 -11.453)" fill="#0860a7"/>
      <g id="Grupo_78379" data-name="Grupo 78379" transform="translate(-4041.767 1701.642)">
        <path id="Trazado_113177" data-name="Trazado 113177" d="M-4024.69,1698.379c-2.885,10.337-8.2,23.309-14.279,31.582l16.288-7.474,17.3,4.675C-4012.752,1720.01-4020.137,1708.1-4024.69,1698.379Z" transform="translate(4038.969 -1698.379)" fill="#0860a7"/>
      </g>
    </g>
    <g id="Grupo_78381" data-name="Grupo 78381" transform="translate(3860.239 4385.583) rotate(73)">
      <path id="Trazado_113176-2" data-name="Trazado 113176" d="M-3989.154,1779.848a2.843,2.843,0,0,1-1.427-.384c-21.192-12.245-28.79-35.7-31.432-53.217a2.856,2.856,0,0,1,2.4-3.25,2.855,2.855,0,0,1,3.25,2.4c2.455,16.279,9.417,38.015,28.642,49.123a2.856,2.856,0,0,1,1.044,3.9A2.855,2.855,0,0,1-3989.154,1779.848Z" transform="translate(-8.449 -11.453)" fill="#0860a7"/>
      <g id="Grupo_78379-2" data-name="Grupo 78379" transform="translate(-4041.767 1701.642)">
        <path id="Trazado_113177-2" data-name="Trazado 113177" d="M-4024.69,1698.379c-2.885,10.337-8.2,23.309-14.279,31.582l16.288-7.474,17.3,4.675C-4012.752,1720.01-4020.137,1708.1-4024.69,1698.379Z" transform="translate(4038.969 -1698.379)" fill="#0860a7"/>
      </g>
    </g>
    <g id="Grupo_78382" data-name="Grupo 78382" transform="translate(-1924.678 4117.313) rotate(159)">
      <path id="Trazado_113176-3" data-name="Trazado 113176" d="M-3989.154,1779.848a2.843,2.843,0,0,1-1.427-.384c-21.192-12.245-28.79-35.7-31.432-53.217a2.856,2.856,0,0,1,2.4-3.25,2.855,2.855,0,0,1,3.25,2.4c2.455,16.279,9.417,38.015,28.642,49.123a2.856,2.856,0,0,1,1.044,3.9A2.855,2.855,0,0,1-3989.154,1779.848Z" transform="translate(-8.449 -11.453)" fill="#0860a7"/>
      <g id="Grupo_78379-3" data-name="Grupo 78379" transform="translate(-4041.767 1701.642)">
        <path id="Trazado_113177-3" data-name="Trazado 113177" d="M-4024.69,1698.379c-2.885,10.337-8.2,23.309-14.279,31.582l16.288-7.474,17.3,4.675C-4012.752,1720.01-4020.137,1708.1-4024.69,1698.379Z" transform="translate(4038.969 -1698.379)" fill="#0860a7"/>
      </g>
    </g>
    <g id="Grupo_78383" data-name="Grupo 78383" transform="matrix(-0.53, -0.848, 0.848, -0.53, -2385.73, -1302.168)">
      <path id="Trazado_113176-4" data-name="Trazado 113176" d="M-3989.154,1779.848a2.843,2.843,0,0,1-1.427-.384c-21.192-12.245-28.79-35.7-31.432-53.217a2.856,2.856,0,0,1,2.4-3.25,2.855,2.855,0,0,1,3.25,2.4c2.455,16.279,9.417,38.015,28.642,49.123a2.856,2.856,0,0,1,1.044,3.9A2.855,2.855,0,0,1-3989.154,1779.848Z" transform="translate(-8.449 -11.453)" fill="#0860a7"/>
      <g id="Grupo_78379-4" data-name="Grupo 78379" transform="translate(-4041.767 1701.642)">
        <path id="Trazado_113177-4" data-name="Trazado 113177" d="M-4024.69,1698.379c-2.885,10.337-8.2,23.309-14.279,31.582l16.288-7.474,17.3,4.675C-4012.752,1720.01-4020.137,1708.1-4024.69,1698.379Z" transform="translate(4038.969 -1698.379)" fill="#0860a7"/>
      </g>
    </g>
    <g id="Grupo_78384" data-name="Grupo 78384" transform="matrix(0.391, -0.921, 0.921, 0.391, 1083.054, -3112.346)">
      <path id="Trazado_113176-5" data-name="Trazado 113176" d="M-3989.154,1779.848a2.843,2.843,0,0,1-1.427-.384c-21.192-12.245-28.79-35.7-31.432-53.217a2.856,2.856,0,0,1,2.4-3.25,2.855,2.855,0,0,1,3.25,2.4c2.455,16.279,9.417,38.015,28.642,49.123a2.856,2.856,0,0,1,1.044,3.9A2.855,2.855,0,0,1-3989.154,1779.848Z" transform="translate(-8.449 -11.453)" fill="#0860a7"/>
      <g id="Grupo_78379-5" data-name="Grupo 78379" transform="translate(-4041.767 1701.642)">
        <path id="Trazado_113177-5" data-name="Trazado 113177" d="M-4024.69,1698.379c-2.885,10.337-8.2,23.309-14.279,31.582l16.288-7.474,17.3,4.675C-4012.752,1720.01-4020.137,1708.1-4024.69,1698.379Z" transform="translate(4038.969 -1698.379)" fill="#0860a7"/>
      </g>
    </g>
  </g>
</svg>
