<svg xmlns="http://www.w3.org/2000/svg" width="182" height="63" viewBox="0 0 182 63">
  <g id="Grupo_78445" data-name="Grupo 78445" transform="translate(-1203.149 -7776)">
    <rect id="Rectángulo_33748" data-name="Rectángulo 33748" width="182" height="63" transform="translate(1203.149 7776)" fill="#1565c0"/>
    <path id="Trazado_116628" data-name="Trazado 116628" d="M-59.241-4.663a1.879,1.879,0,0,0-.732-1.593A9.607,9.607,0,0,0-62.61-7.428a18.691,18.691,0,0,1-3.015-1.215q-3.027-1.636-3.027-4.407a4.292,4.292,0,0,1,.812-2.57,5.3,5.3,0,0,1,2.332-1.764,8.776,8.776,0,0,1,3.412-.635,7.988,7.988,0,0,1,3.394.69,5.4,5.4,0,0,1,2.313,1.947,5.1,5.1,0,0,1,.824,2.856h-3.662a2.4,2.4,0,0,0-.769-1.9,3.161,3.161,0,0,0-2.161-.677,3.377,3.377,0,0,0-2.087.568,1.79,1.79,0,0,0-.745,1.5,1.715,1.715,0,0,0,.873,1.453,9.861,9.861,0,0,0,2.57,1.1,11.1,11.1,0,0,1,4.553,2.332,4.643,4.643,0,0,1,1.428,3.467,4.277,4.277,0,0,1-1.746,3.619,7.642,7.642,0,0,1-4.7,1.312,9.075,9.075,0,0,1-3.735-.751,5.911,5.911,0,0,1-2.57-2.057A5.268,5.268,0,0,1-69.2-5.591h3.674q0,2.942,3.516,2.942a3.42,3.42,0,0,0,2.039-.531A1.728,1.728,0,0,0-59.241-4.663Zm13.831,3.32A4.424,4.424,0,0,1-49.023.244,4.172,4.172,0,0,1-52.264-.977a5.211,5.211,0,0,1-1.141-3.577v-8.655h3.528v8.543Q-49.878-2.6-48-2.6a2.547,2.547,0,0,0,2.466-1.247v-9.361h3.54V0h-3.32Zm17.981-5.139a8,8,0,0,1-1.355,4.95A4.488,4.488,0,0,1-32.568.244,4.124,4.124,0,0,1-36-1.4L-36.157,0h-3.174V-18.75H-35.8v6.726a4.018,4.018,0,0,1,3.21-1.428,4.525,4.525,0,0,1,3.79,1.776,8.009,8.009,0,0,1,1.373,5Zm-3.528-.269a5.283,5.283,0,0,0-.635-2.933,2.144,2.144,0,0,0-1.892-.924A2.326,2.326,0,0,0-35.8-9.224V-4a2.358,2.358,0,0,0,2.344,1.4,2.179,2.179,0,0,0,2.246-1.69A8.742,8.742,0,0,0-30.957-6.751Zm17.59.269a7.921,7.921,0,0,1-1.385,4.889A4.442,4.442,0,0,1-18.494.244a4.115,4.115,0,0,1-3.235-1.392V5.078h-3.528V-13.208h3.271l.122,1.294a4.146,4.146,0,0,1,3.345-1.538,4.472,4.472,0,0,1,3.8,1.807,8.136,8.136,0,0,1,1.355,4.98Zm-3.528-.269A5.227,5.227,0,0,0-17.548-9.6a2.125,2.125,0,0,0-1.9-1,2.309,2.309,0,0,0-2.283,1.273V-3.91A2.348,2.348,0,0,0-19.421-2.6Q-16.895-2.6-16.895-6.751ZM-3.76-9.9a9.584,9.584,0,0,0-1.27-.1A2.584,2.584,0,0,0-7.654-8.643V0h-3.528V-13.208h3.333l.1,1.575A3.269,3.269,0,0,1-4.81-13.452a3.7,3.7,0,0,1,1.1.159Zm.708,3.174a7.833,7.833,0,0,1,.757-3.5A5.54,5.54,0,0,1-.116-12.61a6.357,6.357,0,0,1,3.3-.842A6.014,6.014,0,0,1,7.55-11.816,6.565,6.565,0,0,1,9.436-7.373l.024.9a6.9,6.9,0,0,1-1.7,4.877A5.9,5.9,0,0,1,3.21.244,5.927,5.927,0,0,1-1.349-1.587a7.025,7.025,0,0,1-1.7-4.98Zm3.528.25A4.937,4.937,0,0,0,1.184-3.6a2.336,2.336,0,0,0,2.026,1,2.341,2.341,0,0,0,2-.984,5.4,5.4,0,0,0,.72-3.148,4.888,4.888,0,0,0-.72-2.861,2.341,2.341,0,0,0-2.026-1.015,2.3,2.3,0,0,0-2,1.009A5.493,5.493,0,0,0,.476-6.476ZM17.126-2.6a2.314,2.314,0,0,0,1.587-.537,1.882,1.882,0,0,0,.635-1.428h3.308a4.525,4.525,0,0,1-.732,2.46A4.833,4.833,0,0,1,19.952-.372a6.17,6.17,0,0,1-2.765.616,5.734,5.734,0,0,1-4.468-1.8,7.125,7.125,0,0,1-1.636-4.974v-.232a7.044,7.044,0,0,1,1.624-4.871,5.667,5.667,0,0,1,4.456-1.819,5.555,5.555,0,0,1,3.973,1.41,4.992,4.992,0,0,1,1.52,3.754H19.348a2.424,2.424,0,0,0-.635-1.675,2.116,2.116,0,0,0-1.611-.644,2.125,2.125,0,0,0-1.862.9,5.208,5.208,0,0,0-.629,2.916v.367a5.274,5.274,0,0,0,.623,2.934A2.151,2.151,0,0,0,17.126-2.6ZM30.75.244a6.484,6.484,0,0,1-4.73-1.782,6.335,6.335,0,0,1-1.825-4.749v-.342a7.979,7.979,0,0,1,.769-3.558A5.644,5.644,0,0,1,27.142-12.6a6.116,6.116,0,0,1,3.217-.848,5.482,5.482,0,0,1,4.266,1.709A6.944,6.944,0,0,1,36.182-6.9v1.44H27.771A3.277,3.277,0,0,0,28.8-3.381a3.118,3.118,0,0,0,2.179.781,3.808,3.808,0,0,0,3.186-1.477L35.9-2.136A5.3,5.3,0,0,1,33.752-.385,7.049,7.049,0,0,1,30.75.244Zm-.4-10.852a2.2,2.2,0,0,0-1.7.711,3.682,3.682,0,0,0-.836,2.035h4.907v-.282a2.626,2.626,0,0,0-.635-1.821A2.274,2.274,0,0,0,30.347-10.608ZM45.337-3.65A1.137,1.137,0,0,0,44.7-4.669a7.28,7.28,0,0,0-2.057-.665q-4.712-.989-4.712-4a3.629,3.629,0,0,1,1.459-2.936A5.884,5.884,0,0,1,43.2-13.452a6.333,6.333,0,0,1,4.022,1.184A3.732,3.732,0,0,1,48.73-9.192H45.2a1.707,1.707,0,0,0-.488-1.251,2.066,2.066,0,0,0-1.526-.494,2.111,2.111,0,0,0-1.379.4,1.272,1.272,0,0,0-.488,1.025,1.087,1.087,0,0,0,.555.946,5.714,5.714,0,0,0,1.874.623,15.3,15.3,0,0,1,2.222.592q2.8,1.025,2.8,3.552a3.445,3.445,0,0,1-1.55,2.924,6.688,6.688,0,0,1-4,1.117,6.985,6.985,0,0,1-2.948-.592,4.946,4.946,0,0,1-2.02-1.624A3.772,3.772,0,0,1,37.512-4.2h3.345a1.842,1.842,0,0,0,.7,1.44,2.76,2.76,0,0,0,1.733.5,2.554,2.554,0,0,0,1.532-.385A1.2,1.2,0,0,0,45.337-3.65Zm5.151-3.076a7.833,7.833,0,0,1,.757-3.5,5.54,5.54,0,0,1,2.179-2.38,6.357,6.357,0,0,1,3.3-.842,6.014,6.014,0,0,1,4.364,1.636,6.565,6.565,0,0,1,1.886,4.443l.024.9a6.9,6.9,0,0,1-1.7,4.877A5.9,5.9,0,0,1,56.75.244a5.927,5.927,0,0,1-4.559-1.831,7.025,7.025,0,0,1-1.7-4.98Zm3.528.25A4.937,4.937,0,0,0,54.724-3.6a2.336,2.336,0,0,0,2.026,1,2.341,2.341,0,0,0,2-.984,5.4,5.4,0,0,0,.72-3.148,4.888,4.888,0,0,0-.72-2.861,2.341,2.341,0,0,0-2.026-1.015,2.3,2.3,0,0,0-2,1.009A5.493,5.493,0,0,0,54.016-6.476Z" transform="translate(1294.149 7814)" fill="#fff"/>
  </g>
</svg>
