<svg xmlns="http://www.w3.org/2000/svg" width="93" height="93" viewBox="0 0 93 93">
  <g id="Grupo_78474" data-name="Grupo 78474" transform="translate(-808 -4485)">
    <circle id="Elipse_4722" data-name="Elipse 4722" cx="46.5" cy="46.5" r="46.5" transform="translate(808 4485)" fill="#1565c0"/>
    <g id="vwV7xK" transform="translate(-1516.821 1664.886)">
      <g id="Grupo_78473" data-name="Grupo 78473" transform="translate(2336.821 2828.115)">
        <path id="Trazado_113325" data-name="Trazado 113325" d="M2340.237,2880.951c-.18-.685.115-1.054.763-1.27a4.157,4.157,0,0,1,2.559-.045c.1-.687.022-1.345.171-1.99a6.293,6.293,0,0,1,2.9-4.1c.917-.568,1.855-1.1,2.8-1.625a2.054,2.054,0,0,1,2.981.792c.51.832,1,1.68,1.462,2.537.2.36.346.471.738.212a20.206,20.206,0,0,1,2.134-1.233c.45-.223.4-.427.224-.819a15.146,15.146,0,0,1,.015-13.053c.163-.357.213-.555-.2-.767-.755-.384-1.486-.817-2.2-1.27-.349-.221-.5-.145-.683.195-.466.857-.958,1.7-1.464,2.535a2.063,2.063,0,0,1-3.034.807c-.811-.445-1.606-.917-2.406-1.381a6.327,6.327,0,0,1-3.4-5.894c0-.1,0-.2-.007-.306a.514.514,0,0,0-.053-.114c-2.155.687-3.777-.524-5.322-1.7a3.826,3.826,0,0,1-.76-5.092,3.928,3.928,0,0,1,4.935-1.509,17.006,17.006,0,0,1,2.333,1.344,3.941,3.941,0,0,1,1.523,2.356,6.533,6.533,0,0,1,7.514-.012c.7.438,1.433.807,2.13,1.241a2.064,2.064,0,0,1,.777,2.933c-.465.858-.957,1.7-1.467,2.534-.218.355-.23.553.186.766.73.375,1.441.792,2.136,1.23.365.23.542.165.788-.182a15.319,15.319,0,0,1,10-6.4c.076-.014.151-.035.227-.045.533-.07,1.339.043,1.534-.25.277-.417.12-1.133.123-1.72.008-1.74,0-1.739-1.75-1.741-.669,0-1.341.02-2.008-.021a1.877,1.877,0,0,1-1.807-1.615,16.36,16.36,0,0,1,.112-5.073,6.34,6.34,0,0,1,3.612-4.39c-1.542-1.315-1.44-3.088-1.366-4.838a4,4,0,0,1,3.7-3.863,3.879,3.879,0,0,1,4.185,3.387c.233,1.867.372,3.786-1.279,5.317.218.115.388.193.546.29a6.338,6.338,0,0,1,3.238,5.374c.05,1.079.048,2.164.012,3.244a2.066,2.066,0,0,1-2.256,2.186c-.9.012-1.806.048-2.7-.013-.614-.042-.737.181-.7.735a18.034,18.034,0,0,1,0,2.239c-.028.468.119.594.579.636a15.251,15.251,0,0,1,9.077,3.991,12.635,12.635,0,0,1,2.179,2.493c.3.472.546.46.969.188.668-.431,1.367-.816,2.067-1.2.321-.175.371-.332.171-.656-.5-.809-.964-1.638-1.429-2.467a2.111,2.111,0,0,1,.813-3.157c.417-.252.861-.464,1.265-.736a.941.941,0,0,1,1.316.115c.356.554.14.972-.327,1.316-.249.183-.537.3-.8.463-1.036.621-1.066.665-.43,1.723.954,1.588,1.835,3.218,2.792,4.8.319.529.6,1.08.93,1.6.205.323.459.524.826.3a17.343,17.343,0,0,0,3.382-2.135,4.649,4.649,0,0,0-1.219-7.625,2.179,2.179,0,0,1-.547-.282c-.285-.264-.576-.541-.244-.967a.907.907,0,0,1,1.359-.395c.388.2.773.4,1.248.654.355-1.934,1.931-2.7,3.45-3.517a3.977,3.977,0,0,1,3.977,6.888c-.261.163-.531.312-.8.466a4.552,4.552,0,0,1-3.973.814,17.14,17.14,0,0,1-.167,1.978,6.24,6.24,0,0,1-2,3.4,19.927,19.927,0,0,1-4.074,2.473,1.953,1.953,0,0,1-2.539-.86c-.545-.87-1.049-1.767-1.546-2.666-.178-.322-.311-.44-.678-.205-.735.47-1.5.9-2.269,1.307-.343.18-.328.349-.186.656a15.118,15.118,0,0,1-.006,13.257c-.12.259-.172.437.144.608q1.218.663,2.4,1.387c.325.2.422.033.561-.213.48-.849.967-1.7,1.472-2.531a2.055,2.055,0,0,1,3.078-.834c.9.5,1.8,1,2.667,1.542a6.149,6.149,0,0,1,3.1,5.511c0,.532.127.67.623.516a2.268,2.268,0,0,1,1.521.038c1.96.791,4,1.521,4.528,3.95a3.921,3.921,0,0,1-5.06,4.555,7.778,7.778,0,0,1-3.473-2.2,5.612,5.612,0,0,1-.8-1.615,6.271,6.271,0,0,1-6.232.638,29.66,29.66,0,0,1-3.553-2,2,2,0,0,1-.625-2.788q.714-1.321,1.5-2.6c.214-.346.181-.516-.182-.709-.749-.4-1.489-.813-2.2-1.27-.362-.232-.515-.118-.73.183a15.254,15.254,0,0,1-11.287,6.573c-.472.049-.656.169-.625.675a18.41,18.41,0,0,1,0,2.315c-.034.536.174.637.655.622,1-.032,2.009-.029,3.012,0a1.9,1.9,0,0,1,1.923,1.669,16.6,16.6,0,0,1-.094,4.923,6.326,6.326,0,0,1-3.6,4.479c1.705,1.685,1.537,3.77,1.156,5.807a3.844,3.844,0,0,1-3.963,2.912,3.906,3.906,0,0,1-3.713-3.135,8.162,8.162,0,0,1,.145-3.969,4.3,4.3,0,0,1,1.071-1.607,6.636,6.636,0,0,1-3.784-6.632c.028-.746-.017-1.494.01-2.24a2.081,2.081,0,0,1,2.3-2.219c.927-.009,1.854-.02,2.781.006.41.011.6-.07.58-.538-.037-.848-.031-1.7,0-2.548.013-.369-.1-.468-.463-.5a15.274,15.274,0,0,1-11.482-6.656c-.214-.3-.382-.307-.684-.119-.719.447-1.457.867-2.2,1.265-.355.189-.412.351-.19.706.491.782.938,1.593,1.393,2.4a2.1,2.1,0,0,1-.832,3.206c-1.473.818-2.824,1.886-4.544,2.213a6.58,6.58,0,0,1-4.952-1.085c-.406,2.033-2.061,2.823-3.655,3.633a3.948,3.948,0,0,1-5.5-2.211c-.225-.62-.129-1.051.508-1.3.707-.272.9.294,1.135.729a2.176,2.176,0,0,0,2.355,1.379,4.749,4.749,0,0,0,3.131-1.941,2.1,2.1,0,0,0-.085-2.332,2.16,2.16,0,0,0-2.3-.9C2341.259,2881.406,2340.616,2881.783,2340.237,2880.951Z" transform="translate(-2336.821 -2828.115)"/>
        <path id="Trazado_113326" data-name="Trazado 113326" d="M2561.746,2920.646a1.032,1.032,0,0,0,.747,1.037,4.628,4.628,0,0,1,2.92,4.1,4.706,4.706,0,0,1-2.471,4.622c-.79.478-1.608.911-2.393,1.4-.5.307-.84.251-1.137-.268q-2.026-3.54-4.077-7.066a.692.692,0,0,1,.332-1.121c.365-.187.7-.43,1.071-.606a1,1,0,0,0,.647-1.3l1.345-.646c.849.495.849.495,1.557-.285A3.913,3.913,0,0,1,2561.746,2920.646Z" transform="translate(-2505.47 -2899.466)" fill="#fb5d3d"/>
        <path id="Trazado_113327" data-name="Trazado 113327" d="M2342.855,3060.238a1.058,1.058,0,0,0,1.187.233,2.417,2.417,0,0,1,3.14,1.3,2.451,2.451,0,0,1-1.168,3.143c-.418.25-.835.5-1.263.733a2.418,2.418,0,0,1-3.6-1.261.987.987,0,0,0-.942-.752C2340.246,3061.842,2341.422,3060.94,2342.855,3060.238Z" transform="translate(-2339.438 -3007.402)" fill="#fdb59e"/>
        <path id="Trazado_113328" data-name="Trazado 113328" d="M2572.364,2918.306a.826.826,0,0,1-.656.844.791.791,0,0,1-.9-.559c0-.441.092-.827.6-.934C2571.935,2917.546,2572.185,2917.881,2572.364,2918.306Z" transform="translate(-2517.547 -2897.259)" fill="#050302"/>
        <path id="Trazado_113329" data-name="Trazado 113329" d="M2425.73,2951.309a13.907,13.907,0,1,1,13.869,13.926A13.927,13.927,0,0,1,2425.73,2951.309Z" transform="translate(-2405.492 -2912.541)" fill="#72c1e8"/>
        <path id="Trazado_113330" data-name="Trazado 113330" d="M2470.189,2879.369c-1.311,0-2.624-.024-3.934.01-.656.017-.956-.213-.937-.882.031-1.079-.035-2.165.064-3.237a4.848,4.848,0,0,1,9.657-.032c.1,1.123.05,2.26.062,3.391.006.55-.271.766-.822.757C2472.916,2879.354,2471.553,2879.369,2470.189,2879.369Z" transform="translate(-2436.069 -2861.108)" fill="#fb5d3d"/>
        <path id="Trazado_113331" data-name="Trazado 113331" d="M2470.239,3088.668c1.363,0,2.727.015,4.089-.007.568-.01.807.246.8.78-.02,1.156.071,2.315-.062,3.468a4.851,4.851,0,0,1-9.639-.006c-.111-1.147-.058-2.311-.075-3.467-.008-.538.237-.785.8-.776C2467.512,3088.683,2468.876,3088.668,2470.239,3088.668Z" transform="translate(-2436.093 -3029.355)" fill="#fb5d3d"/>
        <path id="Trazado_113332" data-name="Trazado 113332" d="M2373.378,2928.731a4.85,4.85,0,0,1,6.979-4.323c.991.485,1.92,1.094,2.883,1.636a.651.651,0,0,1,.251,1.031q-2.063,3.573-4.121,7.149a.647.647,0,0,1-1.026.261c-.928-.553-1.883-1.06-2.792-1.642A4.745,4.745,0,0,1,2373.378,2928.731Z" transform="translate(-2365.057 -2902.104)" fill="#fb5d3d"/>
        <path id="Trazado_113333" data-name="Trazado 113333" d="M2378.345,3036.721a4.975,4.975,0,0,1-4.817-3.4,4.856,4.856,0,0,1,1.922-5.5c.925-.6,1.908-1.116,2.857-1.681a.645.645,0,0,1,1.017.292q2.056,3.577,4.119,7.15c.183.318.27.685-.095.885-1.455.8-2.761,1.908-4.464,2.2C2378.657,3036.7,2378.425,3036.713,2378.345,3036.721Z" transform="translate(-2364.999 -2980.951)" fill="#fb5d3d"/>
        <path id="Trazado_113334" data-name="Trazado 113334" d="M2565.422,3031.24c-.03,4.219-3.768,6.548-6.986,4.979-.991-.484-1.921-1.094-2.884-1.635a.646.646,0,0,1-.25-1.029q2.067-3.571,4.125-7.148a.648.648,0,0,1,1.026-.265c.928.552,1.893,1.047,2.79,1.644A4.5,4.5,0,0,1,2565.422,3031.24Z" transform="translate(-2505.452 -2980.952)" fill="#fb5d3d"/>
        <path id="Trazado_113335" data-name="Trazado 113335" d="M2480.858,2838.229a8.322,8.322,0,0,1-.008,1.153,2.433,2.433,0,0,1-4.843-.1,12.242,12.242,0,0,1,0-2.153,2.437,2.437,0,0,1,2.437-2.216,2.468,2.468,0,0,1,2.427,2.318c.027.331,0,.667,0,1Z" transform="translate(-2444.29 -2833.364)" fill="#fdb59e"/>
        <path id="Trazado_113336" data-name="Trazado 113336" d="M2480.908,3136.349c0,.308.017.617,0,.924a2.443,2.443,0,0,1-4.884,0,17.587,17.587,0,0,1,0-1.847,2.442,2.442,0,0,1,4.884-.005C2480.924,3135.732,2480.908,3136.041,2480.908,3136.349Z" transform="translate(-2444.318 -3063.63)" fill="#fdb59e"/>
        <path id="Trazado_113337" data-name="Trazado 113337" d="M2346.434,2911.465a5.819,5.819,0,0,1,3.269,2.04,2.327,2.327,0,0,1-.189,2.794,2.381,2.381,0,0,1-2.783.692,13.655,13.655,0,0,1-2.061-1.187,2.377,2.377,0,0,1-.832-2.745A2.53,2.53,0,0,1,2346.434,2911.465Z" transform="translate(-2342.131 -2892.493)" fill="#fdb59e"/>
        <path id="Trazado_113338" data-name="Trazado 113338" d="M2605.535,3066.146a5.841,5.841,0,0,1-3.276-2.051,2.322,2.322,0,0,1,.195-2.793,2.386,2.386,0,0,1,2.785-.683,13.776,13.776,0,0,1,2.061,1.188,2.384,2.384,0,0,1,.826,2.749A2.539,2.539,0,0,1,2605.535,3066.146Z" transform="translate(-2541.547 -3007.542)" fill="#fdb59e"/>
        <path id="Trazado_113339" data-name="Trazado 113339" d="M2605.542,2911.455a2.522,2.522,0,0,1,2.585,1.624,2.375,2.375,0,0,1-.861,2.736,14.259,14.259,0,0,1-2,1.147,2.377,2.377,0,0,1-2.8-.632,2.316,2.316,0,0,1-.2-2.854A5.767,5.767,0,0,1,2605.542,2911.455Z" transform="translate(-2541.54 -2892.485)" fill="#fdb59e"/>
        <path id="Trazado_113340" data-name="Trazado 113340" d="M2457.943,2977.147c1.762-1.776,3.443-3.479,5.134-5.172a2.583,2.583,0,0,1,2.839-.655,2.556,2.556,0,0,1,1.789,2.3,2.589,2.589,0,0,1-.8,2.172c-2.326,2.334-4.646,4.676-7,6.987a2.655,2.655,0,0,1-3.927-.045q-1.685-1.646-3.332-3.332a2.7,2.7,0,1,1,3.816-3.822C2456.967,2976.063,2457.423,2976.59,2457.943,2977.147Z" transform="translate(-2425.607 -2938.591)"/>
        <path id="Trazado_113341" data-name="Trazado 113341" d="M2479.859,2967.986a12.378,12.378,0,0,1-10.675,12.323,12.745,12.745,0,0,1-6.548-.861c-.472-.182-1.011-.436-.778-1.113.194-.563.679-.643,1.433-.3a10.8,10.8,0,0,0,11.583-2.08,10.6,10.6,0,0,0,3.424-8.192,10.229,10.229,0,0,0-2.786-6.9c-.1-.113-.222-.216-.317-.336-.326-.415-.415-.818.05-1.21s.841-.17,1.151.162a12.422,12.422,0,0,1,3.313,6.725A8.165,8.165,0,0,1,2479.859,2967.986Z" transform="translate(-2433.354 -2929.291)" fill="#c4e4fd"/>
        <path id="Trazado_113342" data-name="Trazado 113342" d="M2449.665,3032.542a.668.668,0,0,1-.669.771c-.5.035-1.511-.874-1.488-1.359a.769.769,0,0,1,.784-.784C2448.8,3031.142,2449.66,3032.035,2449.665,3032.542Z" transform="translate(-2422.313 -2984.949)" fill="#c3e4fd"/>
        <path id="Trazado_113343" data-name="Trazado 113343" d="M2463.245,2987.375a1.064,1.064,0,0,1-.889-.378c-1.11-1.111-2.229-2.212-3.329-3.333a1.127,1.127,0,0,1-.094-1.707,1.17,1.17,0,0,1,1.718.072c.615.586,1.2,1.2,1.808,1.8.646.635.912.641,1.547.009q2.629-2.613,5.242-5.242a1.353,1.353,0,0,1,1.229-.5,1.06,1.06,0,0,1,.888.755,1.1,1.1,0,0,1-.3,1.2c-.758.771-1.525,1.532-2.29,2.3q-2.266,2.266-4.532,4.533A1.213,1.213,0,0,1,2463.245,2987.375Z" transform="translate(-2430.869 -2943.944)" fill="#13be6d"/>
      </g>
    </g>
  </g>
</svg>
