<svg xmlns="http://www.w3.org/2000/svg" width="93" height="93" viewBox="0 0 93 93">
  <g id="Grupo_78472" data-name="Grupo 78472" transform="translate(-808 -4324)">
    <circle id="Elipse_4721" data-name="Elipse 4721" cx="46.5" cy="46.5" r="46.5" transform="translate(808 4324)" fill="#1565c0"/>
    <g id="Grupo_78468" data-name="Grupo 78468" transform="translate(-835.101 1455.618)">
      <path id="Trazado_113252" data-name="Trazado 113252" d="M1691.907,3053.12a9.344,9.344,0,0,0-2.809-5.746c-2.831-2.872-5.692-5.714-8.552-8.558a2.1,2.1,0,0,0-3.107-.129,2.122,2.122,0,0,0,.156,3.057c1.244,1.27,2.517,2.51,3.765,3.776a3.964,3.964,0,0,1,.17,5.7,4.067,4.067,0,0,1-5.785-.109c-3.259-3.232-6.494-6.489-9.741-9.733a3.48,3.48,0,0,1-1.079-2.483c-.009-.53-.005-1.062-.041-1.591a1.067,1.067,0,0,1,.748-1.237h0a4.293,4.293,0,0,1,.123-1.543.8.8,0,0,1-.888-.7c-.074-.544.318-.773.753-.94h0a4.107,4.107,0,0,1,.126-1.553c-.665-.011-.945-.363-.929-1.012.014-.583.013-1.167-.013-1.75a2.411,2.411,0,0,0-2.39-2.377,2.363,2.363,0,0,0-2.349,2.406c.025,4.747.082,9.493.126,14.24a2.912,2.912,0,0,0,1.047,2.062c5.33,5.322,10.64,10.663,15.991,15.963a2.648,2.648,0,0,1,.972,2.358,10.713,10.713,0,0,0,.015,1.508h13.83C1692.039,3060.857,1692.273,3056.982,1691.907,3053.12Zm-11.978-11.79c-.708-.019-1.6-.9-1.567-1.405a.8.8,0,0,1,.73-.8c.436-.064,1.5,1.013,1.49,1.466C1680.572,3041.122,1680.258,3041.332,1679.929,3041.33Zm11.175,20.448c.01.6-.146,1.143-.79,1.153s-.819-.52-.815-1.125c.016-2.121-.014-4.243.011-6.364a8.8,8.8,0,0,0-2.848-6.878c-1.626-1.52-3.161-3.138-4.735-4.714-.15-.15-.305-.3-.44-.459a.729.729,0,0,1-.01-1.071.772.772,0,0,1,1.138,0c.472.426.916.884,1.356,1.344,1.721,1.8,3.62,3.425,5.205,5.355a9.3,9.3,0,0,1,1.911,5.678c.056,1.164.01,2.333.011,3.5C1691.1,3059.392,1691.082,3060.586,1691.1,3061.778Z" transform="translate(-8.374 -120.016)" fill="#feb59e"/>
      <path id="Trazado_113253" data-name="Trazado 113253" d="M1964.157,3037.49q.057-4.458.088-8.916a2.311,2.311,0,0,0-1.4-2.225,2.19,2.19,0,0,0-2.394.272,2.465,2.465,0,0,0-.962,2.081c-.028,3.21-.092,6.421-.091,9.632a4.308,4.308,0,0,1-1.364,3.256c-3.138,3.091-6.242,6.217-9.348,9.341a4.1,4.1,0,0,1-4.211,1.212,3.9,3.9,0,0,1-1.7-6.506c1.262-1.326,2.58-2.6,3.877-3.891a2.316,2.316,0,0,0,.773-1.521,1.94,1.94,0,0,0-1.064-1.977,1.985,1.985,0,0,0-2.243.18,4.9,4.9,0,0,0-.526.485c-2.685,2.681-5.356,5.377-8.057,8.043a10.485,10.485,0,0,0-3.288,7.676c-.016,3.343.005,6.685.01,10.028l13.831,0a.876.876,0,0,0,.023-.236c-.346-1.942.524-3.261,1.9-4.6,4.948-4.789,9.769-9.709,14.636-14.582a6.457,6.457,0,0,0,1.192-1.375.92.92,0,0,1,1.038-.394h0q.016-.777.032-1.555a.815.815,0,0,1-.768-.776c-.023-.5.326-.744.769-.871h0a4.283,4.283,0,0,1,.122-1.545C1964.247,3038.67,1964.149,3038.134,1964.157,3037.49Zm-19.817,24.3c-.5-.011-.789-.248-.774-.771s.755-1.319,1.218-1.264a.868.868,0,0,1,.812.827C1945.642,3061.063,1944.85,3061.8,1944.34,3061.794Zm18.937-32.776c-.238,4.644-.082,9.07-.125,13.494a2.141,2.141,0,0,1-.682,1.552q-7.256,7.258-14.517,14.511a2.106,2.106,0,0,1-.569.422.731.731,0,0,1-.942-.151.708.708,0,0,1-.024-.947,8.344,8.344,0,0,1,.769-.906q6.829-6.841,13.677-13.663a2.184,2.184,0,0,0,.709-1.738c-.04-3,.016-5.993-.021-8.989-.016-1.327.163-2.64.152-3.963,0-.473.1-.859.651-.916.578-.06.8.344.913.8A1.383,1.383,0,0,1,1963.277,3029.018Z" transform="translate(-237.109 -119.948)" fill="#feb59e"/>
      <path id="Trazado_113254" data-name="Trazado 113254" d="M1740.909,2911.263q3.072-3.064,6.137-6.135c.816-.815,1.129-.813,1.964.021q3.07,3.066,6.134,6.138a2.656,2.656,0,0,0,2.212.873,2.249,2.249,0,0,0,2.031-1.547,2.389,2.389,0,0,0-.564-2.644q-2.689-2.714-5.405-5.4a1.526,1.526,0,0,1-.5-1.189c.02-1.91.025-3.821,0-5.731-.007-.487.117-.626.615-.618,1.831.03,3.662.033,5.493,0a2.4,2.4,0,0,0,2.334-2.356,2.43,2.43,0,0,0-2.263-2.427c-.5-.035-1.008-.02-1.512-.02-2.219,0-4.438,0-6.743,0a7.19,7.19,0,0,0,.4-3.9,3.2,3.2,0,0,0-3.428-2.941,3.257,3.257,0,0,0-3.127,3.2,7.116,7.116,0,0,0,.416,3.594H1732.56a6.813,6.813,0,0,0,.4-3.881,3.213,3.213,0,0,0-3.468-2.907,3.275,3.275,0,0,0-3.1,3.228,7.074,7.074,0,0,0,.429,3.583h-12.541a6.736,6.736,0,0,0,.44-3.386,3.3,3.3,0,1,0-6.6-.082,6.822,6.822,0,0,0,.447,3.495c-2.688,0-5.281-.006-7.873,0a2.418,2.418,0,1,0,0,4.813c1.725.009,3.45.022,5.175-.01.494-.009.625.125.617.615q-.043,2.865,0,5.731a1.687,1.687,0,0,1-.556,1.328c-1.74,1.712-3.456,3.449-5.186,5.172a2.642,2.642,0,0,0-.823,1.417,2.466,2.466,0,0,0,4.19,2.208c2.152-2.126,4.283-4.274,6.424-6.411.753-.751,1.111-.756,1.855-.014q3.13,3.118,6.255,6.242a2.508,2.508,0,0,0,3.958-.022q3.1-3.091,6.2-6.189c.788-.786,1.114-.787,1.911.009q3.071,3.065,6.136,6.136C1738.207,2912.621,1739.542,2912.626,1740.909,2911.263Zm5.355-24.631a1.683,1.683,0,0,1,1.607-1.651,1.62,1.62,0,0,1,1.779,1.531,11.987,11.987,0,0,1,0,2.139,1.683,1.683,0,0,1-1.7,1.562,1.74,1.74,0,0,1-1.689-1.675c-.022-.316,0-.635,0-.953S1746.242,2886.949,1746.263,2886.632Zm-18.25-.219a1.7,1.7,0,0,1,3.359,0,7.63,7.63,0,0,1,.01,1.188h.055a9.411,9.411,0,0,1-.075,1.186,1.712,1.712,0,0,1-1.673,1.422,1.692,1.692,0,0,1-1.669-1.426A8.134,8.134,0,0,1,1728.013,2886.413Zm-18.275.078a1.614,1.614,0,0,1,1.717-1.513,1.683,1.683,0,0,1,1.662,1.6c.03.341,0,.688,0,1.032h0a9.884,9.884,0,0,1-.006,1.031,1.734,1.734,0,0,1-1.7,1.575,1.663,1.663,0,0,1-1.667-1.5A11.986,11.986,0,0,1,1709.738,2886.492Zm22.064,17.473c-1.408-1.4-2.723-1.4-4.135.009q-3.07,3.064-6.137,6.132c-.762.76-1.1.762-1.853.007q-3.045-3.034-6.083-6.073c-1.5-1.5-2.767-1.506-4.249-.027q-3.07,3.064-6.134,6.135c-.455.458-.95.794-1.5.24s-.2-1.049.253-1.5c1.714-1.7,3.406-3.423,5.13-5.113a3.031,3.031,0,0,0,.967-2.338c-.03-2.255-.007-4.51-.01-6.765,0-1.017-.2-1.219-1.2-1.22-2.016,0-4.033-.01-6.049,0-.629,0-1.179-.132-1.156-.862.021-.682.566-.781,1.155-.781q14.487.011,28.973.005h28.5c.637,0,1.358-.1,1.465.8.068.575-.409.83-1.432.83-1.937,0-3.874,0-5.811,0-.959,0-1.166.208-1.168,1.167,0,2.255.017,4.51-.01,6.765a3.031,3.031,0,0,0,.987,2.329c1.763,1.726,3.492,3.487,5.241,5.227.432.43.626.909.16,1.385s-.966.28-1.4-.125c-.136-.126-.264-.261-.395-.393q-2.87-2.871-5.74-5.742c-1.542-1.541-2.769-1.544-4.3-.015q-2.872,2.869-5.741,5.74c-1.222,1.222-1.286,1.221-2.535-.027Q1734.7,2906.863,1731.8,2903.964Z" transform="translate(-40.28)"/>
      <path id="Trazado_113255" data-name="Trazado 113255" d="M1923.545,3055.415c-.007-3.131-.046-6.262.009-9.391a10.139,10.139,0,0,1,2.969-7.1c2.781-2.847,5.617-5.64,8.436-8.448a2.458,2.458,0,0,1,1.716-.893,2.142,2.142,0,0,1,2.105,1.011,2.354,2.354,0,0,1-.1,2.563,5.1,5.1,0,0,1-.738.832c-1.159,1.168-2.363,2.292-3.477,3.5a3.64,3.64,0,0,0,1.1,5.972,3.547,3.547,0,0,0,4.073-.654q5.131-5.056,10.189-10.184a3.015,3.015,0,0,0,.8-2.016c.247-3.339.1-6.68.144-10.02a2.842,2.842,0,0,1,.947-2.274,2.312,2.312,0,0,1,2.439-.521,2.488,2.488,0,0,1,1.767,2.251,73.171,73.171,0,0,1-.028,7.554c-.019.29-.054.58-.078.871a2.109,2.109,0,0,0,.721,1.993c.583-.125.714-.536.718-1.067.022-3.052.06-6.1.083-9.155a3.852,3.852,0,0,0-.531-1.971,3.963,3.963,0,0,0-7.4,1.99q-.076,4.935-.1,9.871a2.635,2.635,0,0,1-.815,1.984c-3.166,3.139-6.307,6.3-9.465,9.45a2.506,2.506,0,0,1-3.618.194,2.4,2.4,0,0,1,.243-3.529c1.234-1.243,2.484-2.47,3.712-3.719a3.7,3.7,0,0,0,.086-5.336,3.652,3.652,0,0,0-5.266.138c-2.786,2.769-5.549,5.56-8.34,8.323a12.077,12.077,0,0,0-3.688,8.771c-.036,3.237-.012,6.475-.025,9.712,0,.49.067.935.62,1.049.6.124.857-.278,1.01-.777C1923.476,3056.114,1923.546,3055.751,1923.545,3055.415Z" transform="translate(-228.611 -111.68)"/>
      <path id="Trazado_113256" data-name="Trazado 113256" d="M1931.088,3053.552a10.485,10.485,0,0,1,3.288-7.676c2.7-2.666,5.372-5.362,8.057-8.043a4.9,4.9,0,0,1,.526-.485,1.985,1.985,0,0,1,2.243-.18,1.94,1.94,0,0,1,1.064,1.977,2.316,2.316,0,0,1-.773,1.521c-1.3,1.293-2.615,2.565-3.877,3.891a3.9,3.9,0,0,0,1.7,6.506,4.1,4.1,0,0,0,4.211-1.212c3.106-3.124,6.21-6.25,9.348-9.341a4.308,4.308,0,0,0,1.364-3.256c0-3.21.063-6.421.091-9.632a2.465,2.465,0,0,1,.962-2.081,2.19,2.19,0,0,1,2.394-.272,2.311,2.311,0,0,1,1.4,2.225q-.023,4.458-.088,8.916c-.008.644.089,1.18.881,1.24a2.109,2.109,0,0,1-.721-1.993c.024-.291.06-.581.078-.871a73.171,73.171,0,0,0,.028-7.554,2.488,2.488,0,0,0-1.767-2.251,2.312,2.312,0,0,0-2.439.521,2.842,2.842,0,0,0-.947,2.274c-.042,3.34.1,6.681-.144,10.02a3.015,3.015,0,0,1-.8,2.016q-5.071,5.116-10.189,10.184a3.547,3.547,0,0,1-4.073.654,3.64,3.64,0,0,1-1.1-5.972c1.113-1.21,2.318-2.334,3.477-3.5a5.1,5.1,0,0,0,.738-.832,2.354,2.354,0,0,0,.1-2.563,2.142,2.142,0,0,0-2.105-1.011,2.458,2.458,0,0,0-1.716.893c-2.819,2.809-5.655,5.6-8.436,8.448a10.139,10.139,0,0,0-2.969,7.1c-.055,3.129-.016,6.261-.009,9.391,0,.336-.069.7.217.976C1931.094,3060.237,1931.073,3056.895,1931.088,3053.552Z" transform="translate(-235.948 -118.869)"/>
      <path id="Trazado_113257" data-name="Trazado 113257" d="M1719.96,3106.255a11.224,11.224,0,0,0-3.178-7.764c-2.954-3.049-5.977-6.031-9-9.014a3.434,3.434,0,0,0-3.677-.834,3.653,3.653,0,0,0-1.448,6.066c1.321,1.379,2.708,2.7,4.037,4.067a2.334,2.334,0,0,1-2.239,3.918,2.857,2.857,0,0,1-1.4-.852c-2.79-2.8-5.535-5.651-8.407-8.366-1.287-1.217-2.092-2.478-1.842-4.287a.936.936,0,0,0-.844-1.136,4.455,4.455,0,0,0,.493,5.059c3.289,3.316,6.627,6.585,9.893,9.925a4,4,0,0,0,5.282.108,3.719,3.719,0,0,0,.076-5.307c-1.171-1.265-2.429-2.449-3.648-3.671a3.591,3.591,0,0,1-.842-1.146,2.366,2.366,0,0,1,.579-2.625,2.445,2.445,0,0,1,2.825-.071,6.815,6.815,0,0,1,.824.749q3.942,3.94,7.883,7.881a10.69,10.69,0,0,1,3.262,7.865c0,2.946,0,5.892-.006,8.838,0,.36.094.751-.208,1.057.153.5.412.9,1.01.777.554-.114.621-.561.619-1.049C1719.99,3113.047,1720.039,3109.65,1719.96,3106.255Z" transform="translate(-34.702 -172.004)"/>
      <path id="Trazado_113258" data-name="Trazado 113258" d="M1717.606,3115.658c.008-2.946,0-5.892.006-8.838a10.69,10.69,0,0,0-3.262-7.865q-3.942-3.94-7.883-7.881a6.815,6.815,0,0,0-.824-.749,2.445,2.445,0,0,0-2.825.071,2.366,2.366,0,0,0-.579,2.625,3.591,3.591,0,0,0,.842,1.146c1.219,1.221,2.476,2.406,3.648,3.671a3.719,3.719,0,0,1-.076,5.307,4,4,0,0,1-5.282-.108c-3.265-3.34-6.6-6.608-9.893-9.925a4.455,4.455,0,0,1-.493-5.059h0a1.067,1.067,0,0,0-.748,1.237c.036.529.032,1.061.041,1.591a3.481,3.481,0,0,0,1.079,2.483c3.247,3.244,6.482,6.5,9.741,9.733a4.067,4.067,0,0,0,5.785.109,3.963,3.963,0,0,0-.17-5.7c-1.248-1.266-2.522-2.507-3.765-3.777a2.121,2.121,0,0,1-.156-3.057,2.1,2.1,0,0,1,3.107.129c2.859,2.844,5.721,5.686,8.552,8.558a9.345,9.345,0,0,1,2.809,5.747c.366,3.861.132,7.737.14,11.606C1717.7,3116.409,1717.6,3116.018,1717.606,3115.658Z" transform="translate(-33.724 -172.004)"/>
      <path id="Trazado_113259" data-name="Trazado 113259" d="M1669.628,3054.79a2.605,2.605,0,0,0-.9-2.167c-5.339-5.43-10.679-10.859-16.092-16.216a3.177,3.177,0,0,1-1.026-2.479c.116-4.456-.255-8.907-.156-13.365a3.05,3.05,0,0,1,.855-2.319,2.326,2.326,0,0,1,2.489-.622,2.684,2.684,0,0,1,1.825,2.22,5.307,5.307,0,0,1,.035,1.271,1.708,1.708,0,0,0,.718,1.723.858.858,0,0,0,.669-.946c-.015-.663.011-1.327-.029-1.988a3.831,3.831,0,0,0-1.395-2.839,3.958,3.958,0,0,0-6.518,3.047c.013,4.56.1,9.12.1,13.68a5.087,5.087,0,0,0,1.6,3.82c5,4.969,9.955,9.993,14.987,14.936,1.009.991,1.7,1.951,1.441,3.415a.806.806,0,0,0,.609,1.047c.59.122.869-.254,1-.773h0A1.758,1.758,0,0,1,1669.628,3054.79Z" transform="translate(0 -111.523)"/>
      <path id="Trazado_113260" data-name="Trazado 113260" d="M1676.842,3062.079a2.648,2.648,0,0,0-.972-2.358c-5.351-5.3-10.661-10.642-15.991-15.963a2.912,2.912,0,0,1-1.047-2.062c-.044-4.747-.1-9.493-.126-14.24a2.363,2.363,0,0,1,2.349-2.406,2.411,2.411,0,0,1,2.39,2.377c.026.583.026,1.167.013,1.75-.015.649.264,1,.929,1.012a1.708,1.708,0,0,1-.718-1.723,5.307,5.307,0,0,0-.035-1.271,2.684,2.684,0,0,0-1.825-2.22,2.326,2.326,0,0,0-2.489.622,3.05,3.05,0,0,0-.855,2.319c-.1,4.457.272,8.908.156,13.365a3.177,3.177,0,0,0,1.026,2.479c5.413,5.357,10.752,10.786,16.092,16.216a2.605,2.605,0,0,1,.9,2.167,1.758,1.758,0,0,0,.216,1.445A10.713,10.713,0,0,1,1676.842,3062.079Z" transform="translate(-7.014 -118.874)"/>
      <path id="Trazado_113261" data-name="Trazado 113261" d="M2035.034,3137.482c-.353.351-.664.752-1.02,1.108q-6.991,6.99-13.993,13.968a2.424,2.424,0,0,0-.833,2.023c.032.5.189,1.059-.193,1.524.13.521.411.893,1,.773.545-.111.647-.552.623-1.044-.014-.291.031-.587-.009-.873a2.055,2.055,0,0,1,.768-1.854q7.839-7.774,15.626-15.6a7.811,7.811,0,0,0,.979-1.142.93.93,0,0,0-.194-1.442h0C2036.6,3135.481,2035.922,3136.6,2035.034,3137.482Z" transform="translate(-310.014 -211.392)"/>
      <path id="Trazado_113262" data-name="Trazado 113262" d="M2036.473,3135.227a6.448,6.448,0,0,1-1.193,1.375c-4.867,4.873-9.688,9.793-14.636,14.582-1.378,1.334-2.248,2.654-1.9,4.6a.872.872,0,0,1-.023.236c.383-.465.225-1.022.193-1.524a2.424,2.424,0,0,1,.833-2.023q7.023-6.957,13.993-13.968c.356-.356.667-.757,1.02-1.108.888-.883,1.563-2,2.753-2.56A.919.919,0,0,0,2036.473,3135.227Z" transform="translate(-309.738 -211.302)"/>
      <path id="Trazado_113263" data-name="Trazado 113263" d="M2134.337,3116.5c.47-.071.794-.294.8-.814s-.356-.723-.8-.833C2133.679,3115.675,2133.679,3115.675,2134.337,3116.5Z" transform="translate(-406.532 -194.529)" fill="#070605"/>
      <path id="Trazado_113264" data-name="Trazado 113264" d="M2132.116,3115.728a.815.815,0,0,0,.768.776c-.658-.829-.658-.829,0-1.647h0C2132.443,3114.984,2132.093,3115.228,2132.116,3115.728Z" transform="translate(-405.079 -194.529)" fill="#070605"/>
      <path id="Trazado_113265" data-name="Trazado 113265" d="M1692.065,3069.531a.334.334,0,0,1,.2.224.8.8,0,0,0,.676-.832c0-.545-.449-.63-.811-.808a.657.657,0,0,1-.214.316C1691.463,3068.867,1691.5,3069.234,1692.065,3069.531Z" transform="translate(-34.88 -155.248)" fill="#050403"/>
      <path id="Trazado_113266" data-name="Trazado 113266" d="M1690.108,3069.055a.8.8,0,0,0,.888.7.335.335,0,0,0-.2-.224c-.565-.3-.6-.664-.153-1.1a.659.659,0,0,0,.214-.316h0C1690.426,3068.282,1690.034,3068.511,1690.108,3069.055Z" transform="translate(-33.614 -155.248)" fill="#050403"/>
      <path id="Trazado_113267" data-name="Trazado 113267" d="M1802.6,3138.309a9.3,9.3,0,0,0-1.911-5.678c-1.585-1.93-3.484-3.556-5.205-5.355-.44-.46-.884-.918-1.356-1.344a.772.772,0,0,0-1.138,0A.729.729,0,0,0,1793,3127c.135.163.29.309.44.459,1.575,1.575,3.109,3.194,4.735,4.714a8.8,8.8,0,0,1,2.848,6.878c-.025,2.121.005,4.242-.011,6.363,0,.606.17,1.135.815,1.125s.8-.554.79-1.153c-.021-1.193-.006-2.386-.007-3.579C1802.615,3140.642,1802.661,3139.473,1802.6,3138.309Z" transform="translate(-119.893 -203.625)" fill="#fadfe1"/>
      <path id="Trazado_113268" data-name="Trazado 113268" d="M1775.423,3107.208a.8.8,0,0,0-.73.8c-.028.5.859,1.386,1.567,1.405.329,0,.643-.208.653-.739C1776.921,3108.22,1775.859,3107.144,1775.423,3107.208Z" transform="translate(-104.705 -188.098)" fill="#fadfe0"/>
      <path id="Trazado_113269" data-name="Trazado 113269" d="M2036.095,3036.19c-.546.057-.655.443-.651.916.012,1.323-.168,2.636-.152,3.963.037,3-.018,5.993.021,8.989a2.184,2.184,0,0,1-.709,1.738q-6.861,6.809-13.677,13.663a8.344,8.344,0,0,0-.769.906.708.708,0,0,0,.024.947.731.731,0,0,0,.942.151,2.1,2.1,0,0,0,.569-.422q7.263-7.251,14.517-14.511a2.141,2.141,0,0,0,.682-1.552c.043-4.424-.114-8.849.125-13.494a1.383,1.383,0,0,0-.01-.489C2036.892,3036.534,2036.672,3036.129,2036.095,3036.19Z" transform="translate(-310.85 -128.413)" fill="#fadfe1"/>
      <path id="Trazado_113270" data-name="Trazado 113270" d="M2004.4,3236.9c-.463-.055-1.2.73-1.218,1.264s.272.76.774.771,1.3-.731,1.256-1.209A.868.868,0,0,0,2004.4,3236.9Z" transform="translate(-296.72 -297.094)" fill="#fadee0"/>
      <path id="Trazado_113271" data-name="Trazado 113271" d="M1748.663,2954.168q2.87-2.87,5.741-5.74c1.531-1.53,2.758-1.526,4.3.015q2.871,2.869,5.74,5.742c.131.131.259.267.395.393.434.405.933.6,1.4.125s.272-.955-.16-1.385c-1.749-1.74-3.478-3.5-5.241-5.227a3.031,3.031,0,0,1-.987-2.329c.027-2.255.006-4.51.01-6.765,0-.959.208-1.165,1.168-1.167,1.937,0,3.874,0,5.811,0,1.023,0,1.5-.255,1.432-.83-.108-.9-.829-.8-1.465-.8h-28.5q-14.486,0-28.973-.005c-.589,0-1.134.1-1.155.781-.022.73.527.867,1.156.862,2.016-.014,4.033-.007,6.049,0,1,0,1.195.2,1.2,1.22,0,2.255-.019,4.51.01,6.765a3.031,3.031,0,0,1-.967,2.338c-1.724,1.69-3.416,3.413-5.13,5.113-.456.453-.8.949-.253,1.5s1.042.218,1.5-.24q3.058-3.076,6.134-6.135c1.481-1.479,2.749-1.47,4.249.027q3.042,3.036,6.083,6.073c.757.754,1.09.753,1.853-.007q3.072-3.063,6.137-6.132c1.412-1.409,2.727-1.414,4.135-.009q2.9,2.895,5.8,5.8C1747.377,2955.389,1747.442,2955.39,1748.663,2954.168Zm-13.786-8.067a2.531,2.531,0,0,1-.781,1.849c-1.405,1.406-2.806,2.816-4.218,4.215-.6.6-.916.594-1.535-.021-1.411-1.4-2.808-2.814-4.22-4.212a2.783,2.783,0,0,1-.85-2.068c0-2.305,0-4.611,0-6.916,0-.865.266-1.114,1.152-1.117,1.563-.006,3.127,0,4.691,0s3.127.01,4.691,0c.723-.006,1.075.3,1.072,1.043C1734.87,2941.278,1734.879,2943.689,1734.877,2946.1Zm6.683-.226c.017-2.305,0-4.611.007-6.917,0-.883.245-1.125,1.132-1.129,1.564-.006,3.127,0,4.691,0,1.537,0,3.074,0,4.611,0,.9,0,1.162.246,1.165,1.107.009,2.358,0,4.717,0,7.075a2.705,2.705,0,0,1-.839,1.991c-1.389,1.384-2.77,2.776-4.164,4.156-.61.6-.922.6-1.536-.008-1.411-1.4-2.811-2.811-4.219-4.213A2.746,2.746,0,0,1,1741.56,2945.875Z" transform="translate(-48.81 -44.379)" fill="#72c1e8"/>
      <path id="Trazado_113272" data-name="Trazado 113272" d="M1772.788,2898.616a1.734,1.734,0,0,0,1.7-1.575,9.884,9.884,0,0,0,.006-1.031h0c0-.344.025-.69,0-1.032a1.683,1.683,0,0,0-1.662-1.6,1.614,1.614,0,0,0-1.717,1.513,11.986,11.986,0,0,0,.005,2.217A1.663,1.663,0,0,0,1772.788,2898.616Z" transform="translate(-101.659 -8.403)" fill="#fdb59e"/>
      <path id="Trazado_113273" data-name="Trazado 113273" d="M1887.11,2898.616a1.713,1.713,0,0,0,1.673-1.423,9.408,9.408,0,0,0,.075-1.186h-.055a7.642,7.642,0,0,0-.01-1.187,1.7,1.7,0,0,0-3.359,0,8.138,8.138,0,0,0,.008,2.375A1.692,1.692,0,0,0,1887.11,2898.616Z" transform="translate(-197.7 -8.403)" fill="#fdb59e"/>
      <path id="Trazado_113274" data-name="Trazado 113274" d="M2000.157,2896.947a1.74,1.74,0,0,0,1.69,1.675,1.683,1.683,0,0,0,1.7-1.562,11.987,11.987,0,0,0,0-2.139,1.62,1.62,0,0,0-1.779-1.531,1.683,1.683,0,0,0-1.608,1.651c-.021.316,0,.635,0,.953S2000.135,2896.631,2000.157,2896.947Z" transform="translate(-294.174 -8.409)" fill="#fdb59e"/>
      <path id="Trazado_113275" data-name="Trazado 113275" d="M1813.27,2946.427c-1.563.014-3.127,0-4.691,0s-3.127,0-4.691,0c-.886,0-1.149.252-1.152,1.117-.008,2.305,0,4.611,0,6.916a2.783,2.783,0,0,0,.85,2.068c1.412,1.4,2.809,2.812,4.22,4.212.619.614.93.62,1.535.021,1.412-1.4,2.813-2.809,4.218-4.215a2.531,2.531,0,0,0,.781-1.849c0-2.411-.007-4.823.005-7.234C1814.345,2946.726,1813.992,2946.421,1813.27,2946.427Zm-.519,8.109a1.289,1.289,0,0,1-.411.987c-1.13,1.119-2.266,2.234-3.367,3.382-.34.355-.519.257-.809-.04q-1.665-1.709-3.373-3.376a1.459,1.459,0,0,1-.471-1.126c.015-1.909.023-3.818,0-5.727-.007-.485.116-.64.615-.625,1.219.037,2.439.012,3.659.012,1.193,0,2.387.017,3.579-.009.43-.01.594.086.588.557C1812.729,2950.56,1812.738,2952.548,1812.75,2954.537Z" transform="translate(-128.269 -52.983)"/>
      <path id="Trazado_113276" data-name="Trazado 113276" d="M1923.915,2960.775c1.394-1.379,2.774-2.772,4.164-4.156a2.705,2.705,0,0,0,.839-1.991c0-2.358.006-4.717,0-7.075,0-.861-.268-1.1-1.165-1.107-1.537-.005-3.074,0-4.611,0-1.564,0-3.127,0-4.691,0-.887,0-1.13.246-1.132,1.129,0,2.305.009,4.611-.007,6.917a2.746,2.746,0,0,0,.852,2.062c1.409,1.4,2.808,2.813,4.219,4.213C1922.993,2961.376,1923.3,2961.379,1923.915,2960.775Zm-4.621-5.337a1.213,1.213,0,0,1-.392-.915c.01-1.989.016-3.979,0-5.968,0-.42.123-.536.536-.527,1.22.026,2.44.009,3.66.009s2.441.019,3.661-.01c.451-.011.586.121.581.577-.024,1.962-.016,3.925-.006,5.888a1.387,1.387,0,0,1-.434,1.062c-1.132,1.119-2.26,2.242-3.368,3.383-.289.3-.462.291-.75-.005C1921.631,2957.753,1920.46,2956.6,1919.294,2955.438Z" transform="translate(-224.558 -52.997)"/>
    </g>
  </g>
</svg>
