<svg xmlns="http://www.w3.org/2000/svg" width="93" height="93" viewBox="0 0 93 93">
  <g id="Grupo_78470" data-name="Grupo 78470" transform="translate(-287 -4485)">
    <circle id="Elipse_4723" data-name="Elipse 4723" cx="46.5" cy="46.5" r="46.5" transform="translate(287 4485)" fill="#1565c0"/>
    <g id="lqjEfb" transform="translate(-1587.797 1735.818)">
      <g id="Grupo_78469" data-name="Grupo 78469" transform="translate(1890.797 2764.181)">
        <path id="Trazado_113277" data-name="Trazado 113277" d="M1900.5,2926.021c-.516-.158-.563-.528-.458-.981a5.607,5.607,0,0,1,5.474-4.241,5.471,5.471,0,0,1,5.337,4.386,22.473,22.473,0,0,1,.012,6.342,4.578,4.578,0,0,1-1.34,2.592.978.978,0,0,0-.318.758c.019.824.033,1.65,0,2.472-.018.4.154.52.493.608,2.069.534,4.139,1.068,6.2,1.632a5.425,5.425,0,0,1,4.18,5.43c.02,5.853.006,11.706.009,17.559,0,.39-.016.776-.486.875s-.657-.23-.785-.606a1.376,1.376,0,0,1-.189-1q-.006-8.306,0-16.613a4,4,0,0,0-3.225-4.294c-1.284-.375-2.588-.68-3.874-1.046-.459-.184-.946-.262-1.482-.416.574,1.358,1.2,2.624,1.8,3.9.388.819.755,1.648,1.154,2.462.364.744.259,1.058-.446,1.486-.581.353-1.175.684-1.769,1.015a.6.6,0,0,0-.289.87c.389,1,.73,2.015,1.124,3.012a1.312,1.312,0,0,1-.252,1.426c-1.456,1.817-2.906,3.641-4.4,5.425a2.78,2.78,0,0,0-.723,2.315c-.034.492.128,1-.156,1.469-.074.349-.243.611-.638.611s-.564-.262-.638-.611c-.283-.464-.123-.975-.159-1.465a2.684,2.684,0,0,0-.719-2.311c-1.455-1.68-2.789-3.464-4.238-5.15a1.8,1.8,0,0,1-.332-2.092c.378-.868.653-1.778,1-2.659.158-.4.109-.645-.292-.852-.566-.292-1.111-.628-1.665-.944-.821-.467-.94-.819-.521-1.658,1.03-2.058,1.974-4.156,3.006-6.276-.519.21-1.03.271-1.512.441-1.331.371-2.673.694-4,1.07a4.058,4.058,0,0,0-2.971,2.791,4.238,4.238,0,0,0-.134,1.285q0,8.406,0,16.813c0,.342.076.709-.2,1-.131.37-.31.708-.78.611s-.5-.479-.5-.87c0-5.847-.012-11.694.009-17.541a5.44,5.44,0,0,1,4.332-5.489c2.026-.53,4.048-1.072,6.076-1.593.352-.09.523-.235.478-.622a5.092,5.092,0,0,1,0-.925,3.617,3.617,0,0,0-.874-3.047,4.3,4.3,0,0,1-.926-2.693c-.045-.5.1-.847.612-.98.639-.051.729.39.785.868a4.268,4.268,0,0,0,1.26,2.746,4.149,4.149,0,0,0,7.048-2.795c.085-1.4.048-2.8.01-4.2a4.154,4.154,0,0,0-8.143-1.113C1901.207,2926,1901.108,2926.083,1900.5,2926.021Z" transform="translate(-1890.797 -2901.379)"/>
        <path id="Trazado_113278" data-name="Trazado 113278" d="M2183.468,2940.347c-.042-.51.239-.736.7-.854,1.931-.495,3.856-1.013,5.789-1.5.4-.1.611-.252.541-.7a3.973,3.973,0,0,1-.005-.8,3.648,3.648,0,0,0-.881-3.107,3.537,3.537,0,0,1-.881-2.391,30.244,30.244,0,0,1,.063-5.553,5.534,5.534,0,0,1,10.979.54,31.234,31.234,0,0,1-.075,5.37,4.855,4.855,0,0,1-1.328,2.731,1.194,1.194,0,0,0-.354.932c.021.762.04,1.527-.007,2.287-.028.451.153.594.551.7q3.047.776,6.082,1.6a5.425,5.425,0,0,1,4.238,5.45c.025,5.854.008,11.708.01,17.563,0,.393-.035.772-.5.865s-.644-.253-.78-.617c-.266-.3-.192-.661-.192-1,0-5.56-.052-11.121.02-16.68a4.205,4.205,0,0,0-3.3-4.259c-1.282-.3-2.552-.656-3.821-1.008-.457-.187-.946-.255-1.48-.423.587,1.382,1.222,2.662,1.83,3.954.394.837.77,1.684,1.182,2.512.3.6.2.926-.376,1.3-.6.394-1.24.731-1.869,1.081a.622.622,0,0,0-.3.915c.4.969.713,1.973,1.1,2.948a1.345,1.345,0,0,1-.254,1.479c-1.466,1.8-2.878,3.653-4.391,5.416a2.738,2.738,0,0,0-.719,2.312c-.032.494.125,1.008-.158,1.475-.061.357-.244.6-.631.6s-.555-.265-.638-.6c-.292-.462-.131-.975-.166-1.465a2.691,2.691,0,0,0-.713-2.311c-1.458-1.7-2.814-3.49-4.268-5.2a1.7,1.7,0,0,1-.322-1.974c.383-.886.659-1.817,1.024-2.713a.6.6,0,0,0-.332-.9c-.567-.289-1.11-.627-1.664-.944-.767-.439-.906-.772-.514-1.563.722-1.456,1.373-2.946,2.115-4.392.31-.6.562-1.232.881-1.916-.509.132-.96.241-1.409.365-1.164.315-2.324.638-3.495.926a1.607,1.607,0,0,1-.907.031C2183.615,2940.755,2183.425,2940.635,2183.468,2940.347Z" transform="translate(-2147.173 -2901.397)"/>
        <path id="Trazado_113279" data-name="Trazado 113279" d="M2069.332,2768.848l1.179.286a2.314,2.314,0,0,0,1.191.985,10.253,10.253,0,0,1,5.193,12.736,8.817,8.817,0,0,1-1.038,2.032,1.335,1.335,0,0,0-.16,1.338c.211.559.4,1.126.564,1.7s.02.7-.532.556a19.607,19.607,0,0,1-1.889-.583,1.275,1.275,0,0,0-1.172.112,10.011,10.011,0,0,1-10.621.026,1.394,1.394,0,0,0-1.291-.127c-.538.206-1.089.381-1.643.543-.232.068-.506.2-.706.017s-.056-.467.016-.7c.153-.492.3-.988.491-1.465a1.532,1.532,0,0,0-.18-1.5,9.9,9.9,0,0,1-.435-10.24,9.773,9.773,0,0,1,7.22-5.274,1.872,1.872,0,0,0,1.344-.629l1.2.042C2068.616,2769.292,2068.619,2769.292,2069.332,2768.848Z" transform="translate(-2036.461 -2768.104)" fill="#efbf20"/>
        <path id="Trazado_113280" data-name="Trazado 113280" d="M2014.123,3096.428q0-.8,0-1.607c2.015-2.287,3.837-4.73,5.789-7.068a2.054,2.054,0,0,0,.39-2.28c-.3-.744-.539-1.513-.845-2.255a.7.7,0,0,1,.338-1.024c.432-.238.864-.479,1.284-.74a1.535,1.535,0,0,0,.7-2.2q-.6-1.321-1.235-2.625c-.454-.924-.857-1.871-1.313-2.794-.088-.178-.419-.575.2-.549,1.55.407,3.126.737,4.643,1.244a3.706,3.706,0,0,1,2.75,3.531c.081,6.121.029,12.243.028,18.365l-3.465,0c-.275-.291-.2-.659-.2-1q-.01-6.246,0-12.492a2.893,2.893,0,0,0-.077-.92c-.06-.183-.163-.352-.383-.348s-.3.185-.34.375a4.419,4.419,0,0,0-.042.863q0,6.277-.005,12.553c0,.358.1.751-.217,1.051a1.2,1.2,0,0,0-.6-.084Z" transform="translate(-1998.832 -3034.957)" fill="#72c1e8"/>
        <path id="Trazado_113281" data-name="Trazado 113281" d="M2275.5,3096.32l0-1.608c2.021-2.31,3.863-4.766,5.833-7.117a2.028,2.028,0,0,0,.384-2.176c-.3-.812-.576-1.632-.9-2.434a.613.613,0,0,1,.3-.873c.461-.273.934-.523,1.388-.807a1.512,1.512,0,0,0,.673-2.111c-.331-.776-.7-1.536-1.071-2.294-.513-1.056-.978-2.135-1.5-3.184-.1-.2-.372-.573.211-.568,1.472.384,2.954.737,4.415,1.159a4.1,4.1,0,0,1,3.014,3.876c.03,6,.013,12,.013,17.993a.6.6,0,0,1-.025.121l-3.465.016c-.29-.311-.2-.7-.2-1.06q-.01-6.209-.005-12.418a3,3,0,0,0-.072-.92c-.057-.181-.149-.357-.374-.351s-.307.181-.348.37a3.978,3.978,0,0,0-.047.862q0,6.24-.006,12.48c0,.358.1.75-.22,1.048Z" transform="translate(-2227.799 -3034.837)" fill="#868686"/>
        <path id="Trazado_113282" data-name="Trazado 113282" d="M2163.8,3073.814c.248.449.634.456,1.066.342,1.25-.329,2.5-.653,3.751-.979.592-.009.3.365.208.564-.418.872-.825,1.749-1.24,2.623-.432.911-.893,1.808-1.3,2.731a1.613,1.613,0,0,0,.67,2.276,13.705,13.705,0,0,0,1.233.7.671.671,0,0,1,.379,1c-.318.781-.541,1.6-.891,2.368a1.772,1.772,0,0,0,.3,2.049c1.986,2.416,3.9,4.89,5.955,7.248l0,1.607-7.623-.009c-.183,0-.373-.024-.517.132-.3-.308-.2-.7-.205-1.057q-.01-6.271,0-12.541a5.531,5.531,0,0,0-.025-.8c-.033-.226-.067-.486-.366-.482-.278,0-.358.242-.407.47a3.782,3.782,0,0,0-.043.8q0,6.24,0,12.479c0,.341.074.708-.2,1l-3.342,0a1.063,1.063,0,0,1-.191-.818q-.007-8.613,0-17.225a2.763,2.763,0,0,1,.063-.737,2.4,2.4,0,0,0,0-1.393c.194-.377.573-.649.632-1.1.866.093.866.093.988-.741Z" transform="translate(-2127.506 -3034.864)" fill="#868686"/>
        <path id="Trazado_113283" data-name="Trazado 113283" d="M1913.594,3094.538v1.608l-8.1,0c-.335-.288-.231-.684-.232-1.04q-.012-6.243-.006-12.486a4.727,4.727,0,0,0-.032-.8c-.036-.208-.089-.427-.355-.429s-.345.206-.4.408a3.637,3.637,0,0,0-.056.923q0,6.181,0,12.363c0,.36.089.749-.2,1.06l-3.348,0c-.012-.2-.033-.409-.033-.614q0-8.364,0-16.728c0-2.738,1.072-4.136,3.708-4.831,1.25-.329,2.5-.644,3.754-.965.276-.117.339.033.313.263a1.329,1.329,0,0,1-.18.458c-.767,1.459-1.392,2.987-2.158,4.446q-.129.246-.238.5c-.593,1.408-.38,1.95.949,2.728,1.715,1,1.553.475.885,2.454-.184.545-.394,1.084-.606,1.62a1.6,1.6,0,0,0,.3,1.726c1.977,2.372,3.831,4.844,5.9,7.143C1913.5,3094.4,1913.539,3094.476,1913.594,3094.538Z" transform="translate(-1899.579 -3034.673)" fill="#72c1e8"/>
        <path id="Trazado_113284" data-name="Trazado 113284" d="M2059.612,2764.737c-.031.48-.316.634-.767.7a9.894,9.894,0,0,0-8.59,7.889,9.638,9.638,0,0,0,1.425,7.554,1.424,1.424,0,0,1,.192,1.431c-.272.706-.481,1.437-.755,2.273.9-.291,1.707-.536,2.5-.818a1.2,1.2,0,0,1,1.1.119,9.861,9.861,0,0,0,10.693,0,1.2,1.2,0,0,1,1.1-.115c.79.278,1.592.521,2.492.813-.27-.828-.5-1.588-.769-2.33a1.331,1.331,0,0,1,.181-1.319,10.035,10.035,0,0,0-4.034-14.589,4.871,4.871,0,0,0-.565-.245.737.737,0,0,1-.566-.891c.272-.436.623-.432,1.065-.254a11.274,11.274,0,0,1,5.394,16.239,1.259,1.259,0,0,0-.124,1.2c.323.91.6,1.836.908,2.751a.733.733,0,0,1-.1.857.717.717,0,0,1-.806.075c-1.032-.346-2.074-.664-3.1-1.018a.826.826,0,0,0-.744.076,11.1,11.1,0,0,1-11.352,0,.828.828,0,0,0-.745-.073c-1.049.361-2.111.681-3.162,1.035a.649.649,0,0,1-.877-.888c.326-1,.635-2,.981-2.986a.91.91,0,0,0-.076-.863,11.249,11.249,0,0,1,7.294-17c.3-.066.608-.105.913-.157A.684.684,0,0,1,2059.612,2764.737Z" transform="translate(-2029.21 -2764.181)"/>
        <path id="Trazado_113285" data-name="Trazado 113285" d="M1968.38,2934.677c.446,0,.638-.254.751-.665a4.316,4.316,0,0,1,8.515,1.107,28.633,28.633,0,0,1-.093,4.688,4.243,4.243,0,0,1-4.6,3.509,4.292,4.292,0,0,1-3.937-4.053c-.026-.474-.158-.794-.638-.912a3.32,3.32,0,0,0-.1-1.211c.658-.514.658-.514.1-1.265Q1968.381,2935.277,1968.38,2934.677Z" transform="translate(-1958.677 -2910.035)" fill="#fdb59e"/>
        <path id="Trazado_113286" data-name="Trazado 113286" d="M2153.458,3097.086a.705.705,0,0,1,.3.953,3.717,3.717,0,0,0-.2,1.334q0,8.79,0,17.58c0,.1.017.2.026.306-.133.369-.312.707-.783.61s-.49-.478-.49-.869q.005-8.8,0-17.6a6.048,6.048,0,0,1,.245-1.7C2152.7,3097.225,2152.962,3097.007,2153.458,3097.086Z" transform="translate(-2119.886 -3055.794)" fill="#010101"/>
        <path id="Trazado_113287" data-name="Trazado 113287" d="M2120.218,2988.37a.658.658,0,0,1-.514.6,2.689,2.689,0,0,0-1.979,2.287c-.087.392-.22.781-.727.777s-.639-.4-.708-.79a2.653,2.653,0,0,0-1.939-2.247.674.674,0,0,1-.554-.655.64.64,0,0,1,.538-.659,2.626,2.626,0,0,0,1.929-2.183,3.172,3.172,0,0,1,.139-.473.653.653,0,0,1,1.2.007c.1.249.16.51.233.767a2.407,2.407,0,0,0,1.73,1.837A.741.741,0,0,1,2120.218,2988.37Z" transform="translate(-2086.146 -2957.293)"/>
        <path id="Trazado_113288" data-name="Trazado 113288" d="M2078.607,3153.626q0-7.014,0-14.028c0-.186,0-.372.01-.556a.6.6,0,0,1,1.19-.077,2.613,2.613,0,0,1,.036.613q0,6.644,0,13.288c0,.226.015.452.024.678-.1.318-.24.61-.64.614A.6.6,0,0,1,2078.607,3153.626Z" transform="translate(-2055.32 -3092.073)" fill="#000101"/>
        <path id="Trazado_113289" data-name="Trazado 113289" d="M1928.1,3153.509q.012-5.033.024-10.066c0-1.4-.007-2.8,0-4.2,0-.6.381-.925.833-.749.384.149.4.469.4.814q-.007,2.656,0,5.312.008,4.446.022,8.893c-.067.354-.239.608-.635.61S1928.2,3153.835,1928.1,3153.509Z" transform="translate(-1923.477 -3092.038)" fill="#000101"/>
        <path id="Trazado_113290" data-name="Trazado 113290" d="M2189.536,3153.592q.012-5.4.024-10.808,0-1.729,0-3.459c0-.45.177-.8.664-.784.458.017.577.369.576.793q-.013,7.2-.014,14.39a.572.572,0,0,1-.6.483C2189.777,3154.207,2189.645,3153.908,2189.536,3153.592Z" transform="translate(-2152.494 -3092.121)" fill="#010101"/>
        <path id="Trazado_113291" data-name="Trazado 113291" d="M2339.966,3153.526q.008-6.981.017-13.962c0-.807.2-1.174.635-1.11.653.1.6.618.6,1.1q.007,6.981.018,13.962c-.095.328-.244.609-.641.608S2340.027,3153.884,2339.966,3153.526Z" transform="translate(-2284.272 -3092.04)"/>
        <path id="Trazado_113292" data-name="Trazado 113292" d="M1964.76,2972.579c.344.11.65.27.612.7s-.322.567-.71.568a.61.61,0,0,1-.51-.663C1964.176,2972.816,1964.457,2972.679,1964.76,2972.579Z" transform="translate(-1955.055 -2946.739)" fill="#070606"/>
        <path id="Trazado_113293" data-name="Trazado 113293" d="M2146.91,2765.239a.618.618,0,0,1-.666.507c-.413-.021-.529-.321-.607-.654.135-.319.314-.6.716-.547S2146.9,2764.869,2146.91,2765.239Z" transform="translate(-2114.038 -2764.494)" fill="#050503"/>
        <path id="Trazado_113294" data-name="Trazado 113294" d="M2166.937,3080.909c.2.338.228.673-.125.915a.614.614,0,0,1-.862-.174.581.581,0,0,1,.157-.809A.62.62,0,0,1,2166.937,3080.909Z" transform="translate(-2131.746 -3041.463)" fill="#040404"/>
        <path id="Trazado_113295" data-name="Trazado 113295" d="M1961.745,3079.86c.174.54,2.5,16.358,2.5,16.979-1.027-1.263-1.943-2.531-3.012-3.654a1.941,1.941,0,0,1-.4-2.491c.407-.847.651-1.771,1-2.646a.765.765,0,0,0-.411-1.11c-.707-.375-1.392-.792-2.088-1.188-.165-.094-.335-.163-.215-.413C1959.989,3083.529,1960.854,3081.719,1961.745,3079.86Z" transform="translate(-1950.611 -3040.718)" fill="#eee"/>
        <path id="Trazado_113296" data-name="Trazado 113296" d="M2016.842,3096l2.491-16.941c.922,1.959,1.761,3.761,2.621,5.552.145.3-.049.345-.222.444-.677.388-1.341.8-2.035,1.159a.819.819,0,0,0-.424,1.21c.458,1.166.87,2.348,1.3,3.522.078.21.179.391-.01.622-1.208,1.48-2.4,2.973-3.6,4.461Z" transform="translate(-2001.213 -3040.016)" fill="#eee"/>
        <path id="Trazado_113297" data-name="Trazado 113297" d="M1946.715,3091.73c-.707-.291-1.055-.956-1.5-1.5-1.583-1.907-3.128-3.846-4.69-5.771a1.64,1.64,0,0,1-.341-1.716c.345-.922.632-1.869,1.023-2.771.2-.459.048-.593-.326-.773a12.545,12.545,0,0,1-1.437-.836,1.524,1.524,0,0,1-.619-2.093c.852-1.848,1.751-3.675,2.612-5.518.072-.154.453-.4-.027-.56l1.534-.438c.078.242-.072.38-.144.532q-1.416,2.979-2.841,5.954c-.43.9-.391,1.024.459,1.5.609.344,1.206.71,1.825,1.033.33.173.421.342.273.711-.406,1.01-.726,2.056-1.159,3.053a1.411,1.411,0,0,0,.29,1.667c1.485,1.763,2.888,3.6,4.391,5.344A2.468,2.468,0,0,1,1946.715,3091.73Z" transform="translate(-1932.7 -3031.866)" fill="#4ba4c7"/>
        <path id="Trazado_113298" data-name="Trazado 113298" d="M2019.135,3070.38c-.389.076-.167.3-.093.453q1.223,2.592,2.462,5.177a2.4,2.4,0,0,1,.34,1.353,1.531,1.531,0,0,1-.766,1.2c-.533.309-1.053.642-1.6.918-.321.161-.337.342-.224.637.316.823.582,1.667.924,2.479a2.073,2.073,0,0,1-.41,2.322c-1.653,2.008-3.257,4.055-4.9,6.074a1.262,1.262,0,1,1-.364-1.254c1.533-1.8,2.975-3.683,4.479-5.511a1.166,1.166,0,0,0,.209-1.343c-.437-1.063-.788-2.162-1.211-3.232-.138-.35-.061-.509.254-.675.655-.344,1.293-.721,1.934-1.092.733-.425.783-.576.428-1.33q-1.392-2.957-2.79-5.911c-.1-.2-.185-.407-.307-.676A7.5,7.5,0,0,1,2019.135,3070.38Z" transform="translate(-1998.536 -3032.051)" fill="#4ba4c7"/>
        <path id="Trazado_113299" data-name="Trazado 113299" d="M1996.632,3102.526c-.538-3.639-1.07-7.263-1.617-10.885a1.1,1.1,0,0,1,.417-1.233c.466-.33.818-1.088,1.286-1.056.452.031.856.693,1.29,1.068a.986.986,0,0,1,.451.985c-.549,3.56-1.067,7.124-1.6,10.687C1996.839,3102.247,1996.88,3102.436,1996.632,3102.526Z" transform="translate(-1982.065 -3049.032)" fill="#71c1e8"/>
        <path id="Trazado_113300" data-name="Trazado 113300" d="M1993.5,3048.975c-.687.68-1.514,1.183-2.254,1.8a.3.3,0,0,1-.438,0c-.736-.617-1.565-1.12-2.254-1.8-.01-.018-.027-.036-.028-.054-.089-1.626-.149-1.542,1.31-1.213a6.308,6.308,0,0,0,2.8-.093c.9-.2.927-.178.919.76A1.114,1.114,0,0,1,1993.5,3048.975Z" transform="translate(-1976.375 -3012.379)" fill="#fdb59e"/>
        <path id="Trazado_113301" data-name="Trazado 113301" d="M1993.381,3041.11c-.065-.424.175-.976-.108-1.245s-.758.093-1.148.162a6.527,6.527,0,0,1-3.148-.164c-.412-.13-.567-.059-.532.386.022.285-.005.573-.01.86a18.1,18.1,0,0,1-.055-2.577c2.442.663,2.442.663,5.059,0A17.6,17.6,0,0,1,1993.381,3041.11Z" transform="translate(-1976.254 -3004.515)" fill="#e98e7b"/>
        <path id="Trazado_113302" data-name="Trazado 113302" d="M1990.74,3076.087l-.277-1.95a7.318,7.318,0,0,1,1.325.958Z" transform="translate(-1978.105 -3035.704)" fill="#6ebbe1"/>
        <path id="Trazado_113303" data-name="Trazado 113303" d="M2019.316,3075.837c-1.084-.936-1.084-.936-.068-1.7.078-.059.158-.117.309-.228A9.409,9.409,0,0,1,2019.316,3075.837Z" transform="translate(-2002.661 -3035.503)" fill="#6fbde2"/>
        <path id="Trazado_113304" data-name="Trazado 113304" d="M2243.664,2937.357a16.573,16.573,0,0,1-.084,2.541,4.275,4.275,0,0,1-4.5,3.488,4.205,4.205,0,0,1-4.015-3.9,23.379,23.379,0,0,1,.073-5.242,4.258,4.258,0,0,1,4.512-3.479,4.342,4.342,0,0,1,4.015,4.13C2243.687,2935.64,2243.664,2936.382,2243.664,2937.357Z" transform="translate(-2192.276 -2910.103)" fill="#fdb59e"/>
        <path id="Trazado_113305" data-name="Trazado 113305" d="M2225.657,3097.428c-1.01-1.241-1.975-2.522-3.047-3.707a1.657,1.657,0,0,1-.337-2.125,24.663,24.663,0,0,0,1-2.654c.307-.847.26-.958-.548-1.417-.626-.356-1.251-.716-1.877-1.071-.166-.094-.335-.167-.214-.418.863-1.795,1.719-3.592,2.7-5.374q1.228,8.352,2.455,16.7Z" transform="translate(-2179.698 -3041.42)" fill="#868686"/>
        <path id="Trazado_113306" data-name="Trazado 113306" d="M2278.327,3097.275q1.229-8.353,2.457-16.707l.111-.026c.367.771.735,1.541,1.1,2.313.439.93.844,1.877,1.323,2.785.236.446.117.625-.284.829-.64.327-1.242.731-1.881,1.058a.787.787,0,0,0-.424,1.118c.443,1.194.88,2.391,1.321,3.587.077.209.187.4,0,.627-1.2,1.482-2.4,2.973-3.591,4.462Z" transform="translate(-2230.275 -3041.315)" fill="#868686"/>
        <path id="Trazado_113307" data-name="Trazado 113307" d="M2280.585,3070.382c-.442.106-.142.346-.069.5q1.212,2.6,2.448,5.185c.614,1.294.406,1.974-.8,2.724-.519.323-1.343.466-1.486.992-.127.47.33,1.1.531,1.658a4.047,4.047,0,0,0,.214.577c.718,1.317.34,2.367-.606,3.451-1.577,1.808-3.023,3.729-4.541,5.59a2.324,2.324,0,0,1-1,.884,2.539,2.539,0,0,1,.681-2.18c1.591-1.856,3.086-3.795,4.622-5.7a.838.838,0,0,0,.15-.912c-.431-1.111-.816-2.24-1.255-3.348-.17-.429-.1-.659.324-.872.679-.34,1.322-.753,1.986-1.125a.733.733,0,0,0,.335-1.119c-1.062-2.2-2.092-4.42-3.165-6.7A7.765,7.765,0,0,1,2280.585,3070.382Z" transform="translate(-2227.568 -3032.072)" fill="#4c4944"/>
        <path id="Trazado_113308" data-name="Trazado 113308" d="M2208.341,3091.554c-.691-.284-1.028-.933-1.466-1.462-1.586-1.916-3.14-3.859-4.705-5.792a1.73,1.73,0,0,1-.314-1.893c.364-.873.66-1.773,1.009-2.652.129-.326.094-.511-.244-.678a15.67,15.67,0,0,1-1.5-.859,1.662,1.662,0,0,1-.632-2.256c.865-1.823,1.741-3.64,2.6-5.465.072-.152.383-.394-.066-.5l1.648-.45c-.277.608-.5,1.119-.741,1.622-.79,1.65-1.59,3.3-2.379,4.947-.391.818-.331.987.442,1.422.645.363,1.276.753,1.934,1.09.318.163.335.336.221.633-.413,1.073-.8,2.157-1.214,3.23a1.2,1.2,0,0,0,.2,1.356c1.54,1.845,3,3.756,4.569,5.575A2.535,2.535,0,0,1,2208.341,3091.554Z" transform="translate(-2161.911 -3031.682)" fill="#4c4944"/>
        <path id="Trazado_113309" data-name="Trazado 113309" d="M2258.124,3102.619q-.345-2.312-.688-4.624c-.315-2.137-.608-4.278-.952-6.41a1.146,1.146,0,0,1,.442-1.28c.462-.335.8-1.081,1.293-1.045.433.031.822.683,1.229,1.06.283.261.553.47.476.971-.581,3.777-1.121,7.56-1.674,11.34Z" transform="translate(-2211.111 -3048.951)" fill="#71c1e8"/>
        <path id="Trazado_113310" data-name="Trazado 113310" d="M2255.089,3048.956c-.695.672-1.518,1.182-2.258,1.8-.192.159-.331.066-.487-.054-.666-.517-1.324-1.043-2.009-1.535-.278-.2-.235-.452-.234-.711,0-.287.017-.574.026-.861.3-.207.6-.065.888,0a6.761,6.761,0,0,0,3.282-.015c.781-.2.853-.136.845.653A1.641,1.641,0,0,1,2255.089,3048.956Z" transform="translate(-2205.547 -3012.352)" fill="#fcb59e"/>
        <path id="Trazado_113311" data-name="Trazado 113311" d="M2255.29,3041.186c-.088-.434.2-1.042-.157-1.267-.259-.163-.8.146-1.221.214a7.472,7.472,0,0,1-3.106-.209c-.157-.042-.319-.069-.478-.1v-1.155c.132-.125.233-.011.336.029a5.527,5.527,0,0,0,4.253,0c.374-.154.473-.085.447.3A11.214,11.214,0,0,1,2255.29,3041.186Z" transform="translate(-2205.748 -3004.582)" fill="#e98e7b"/>
        <path id="Trazado_113312" data-name="Trazado 113312" d="M2279.209,3075.5l-1.065-1.007,1.35-1.031C2279.392,3074.194,2279.309,3074.784,2279.209,3075.5Z" transform="translate(-2230.115 -3035.112)" fill="#6ebbe0"/>
        <path id="Trazado_113313" data-name="Trazado 113313" d="M2253.225,3075.023l-1.036.984c-.1-.686-.19-1.274-.291-1.951A8.2,8.2,0,0,1,2253.225,3075.023Z" transform="translate(-2207.123 -3035.633)" fill="#6fbce2"/>
        <path id="Trazado_113314" data-name="Trazado 113314" d="M2090.079,2812.081c-1.793,0-3.586.006-5.379,0-1.157,0-1.641-.5-1.644-1.669q-.008-3.03,0-6.06c0-1.187.511-1.689,1.695-1.693.618,0,1.237-.014,1.855,0,.324.01.465-.057.477-.433.065-1.991.272-2.175,2.3-2.175.721,0,1.443-.009,2.164,0a1.385,1.385,0,0,1,1.522,1.538c.022,1.062.022,1.062,1.07,1.062.495,0,.99-.011,1.484,0a1.343,1.343,0,0,1,1.448,1.367q.049,3.338,0,6.677a1.328,1.328,0,0,1-1.493,1.373C2093.747,2812.09,2091.913,2812.081,2090.079,2812.081Z" transform="translate(-2059.213 -2795.602)"/>
        <path id="Trazado_113315" data-name="Trazado 113315" d="M2172.513,3098.413q0-3,0-5.994c0-2.075,1.534-3.167,3.4-3.356a.588.588,0,0,1,.249,1.141c-.27.1-.55.169-.828.244a1.9,1.9,0,0,0-1.586,2.047q-.007,5.871,0,11.742c0,.165,0,.33,0,.494-.006.424-.182.763-.632.754s-.609-.328-.607-.769C2172.518,3102.615,2172.513,3100.514,2172.513,3098.413Z" transform="translate(-2137.578 -3048.775)" fill="#eee"/>
        <path id="Trazado_113316" data-name="Trazado 113316" d="M2173.661,3232.727c.014.359,0,.71-.375.9a.561.561,0,0,1-.752-.217,1.92,1.92,0,0,1,.049-1.474.594.594,0,0,1,.787-.1C2173.7,3232.041,2173.672,3232.4,2173.661,3232.727Z" transform="translate(-2137.491 -3173.76)" fill="#ededed"/>
        <path id="Trazado_113317" data-name="Trazado 113317" d="M1911.148,3098.493c0-2.02.006-4.041,0-6.062a3.348,3.348,0,0,1,3.466-3.2.519.519,0,0,1,.572.454.544.544,0,0,1-.4.671c-.332.108-.673.185-1,.293a1.821,1.821,0,0,0-1.4,1.933q-.005,5.907,0,11.814c0,.144,0,.289,0,.433,0,.446-.186.826-.648.82s-.6-.4-.593-.843C1911.153,3102.7,1911.147,3100.6,1911.148,3098.493Z" transform="translate(-1908.62 -3048.923)" fill="#c4e4fd"/>
        <path id="Trazado_113318" data-name="Trazado 113318" d="M1912.16,3232.879a1.164,1.164,0,0,1-.116.66.6.6,0,0,1-.666.33c-.385-.091-.589-.8-.447-1.469a.547.547,0,0,1,.683-.46C1912.194,3232.013,1912.143,3232.47,1912.16,3232.879Z" transform="translate(-1908.395 -3173.933)" fill="#c3e4fd"/>
        <path id="Trazado_113319" data-name="Trazado 113319" d="M1990.5,2992.3a2.6,2.6,0,0,1-2.51-2.415c-.014-.4.1-.715.528-.768.458-.057.652.222.716.653a1.356,1.356,0,0,0,2.707.012c.061-.436.25-.718.7-.667s.57.4.54.819A2.607,2.607,0,0,1,1990.5,2992.3Z" transform="translate(-1975.939 -2961.219)" fill="#010100"/>
        <path id="Trazado_113320" data-name="Trazado 113320" d="M2133.476,3008.32a2.189,2.189,0,0,1-.211-.261c-.177-.316-.711-.471-.657-.792.051-.306.45-.552.694-.827.075-.084.146-.266.267-.112a9.326,9.326,0,0,0,.763.88c.129.127-.046.2-.12.287Z" transform="translate(-2102.622 -2976.251)" fill="#ecbd20"/>
        <path id="Trazado_113321" data-name="Trazado 113321" d="M2252.015,2992.288a2.606,2.606,0,0,1-2.6-2.323c-.043-.439.056-.818.553-.866.451-.043.63.253.688.688a1.355,1.355,0,0,0,2.7.014c.057-.427.223-.739.678-.7.5.038.6.416.566.855A2.6,2.6,0,0,1,2252.015,2992.288Z" transform="translate(-2204.939 -2961.206)" fill="#010100"/>
        <path id="Trazado_113322" data-name="Trazado 113322" d="M2098.706,2859.391c-1.71,0-3.42-.014-5.13.009-.461.006-.662-.086-.638-.6.043-.946.04-1.9,0-2.842-.019-.487.16-.553.564-.439.236.067.483.1.726.141.358.065.652.109.736.608a.564.564,0,0,0,1.048.1.424.424,0,0,1,.576-.232c.179.047.369.056.542.117a7.253,7.253,0,0,0,4.005-.17c.339-.071.657-.214.806.3.076.261.364.316.628.265a.586.586,0,0,0,.486-.562c.022-.17-.057-.389.224-.429.383-.054.763-.14,1.147-.161.107-.006.081.209.081.328,0,1.051-.015,2.1.009,3.152.011.455-.257.425-.559.424Q2101.332,2859.387,2098.706,2859.391Z" transform="translate(-2067.872 -2844.148)" fill="#71c1e8"/>
        <path id="Trazado_113323" data-name="Trazado 113323" d="M2098.808,2830.981c1.729,0,3.458.012,5.187-.009.405-.005.581.111.528.52a1.462,1.462,0,0,0,0,.185c0,1.074-.116,1.189-1.183,1.264-.244.017-.3-.137-.43-.265a.571.571,0,0,0-1.02.209c-.1.347-.279.4-.552.438a4.952,4.952,0,0,0-.845.172,7.131,7.131,0,0,1-4-.1c-.216-.049-.361-.109-.365-.388a.563.563,0,0,0-.5-.544.553.553,0,0,0-.649.355c-.092.225-.2.266-.417.193a3.845,3.845,0,0,0-.484-.092c-1.134-.224-1.109-.225-1.126-1.375-.007-.484.166-.58.609-.574C2095.309,2830.995,2097.059,2830.981,2098.808,2830.981Z" transform="translate(-2067.884 -2822.689)" fill="#71c1e8"/>
        <path id="Trazado_113324" data-name="Trazado 113324" d="M2126.694,2811.394h-.861c-.878,0-1.068-.253-.874-1.119.048-.217.167-.248.345-.248.943,0,1.886.007,2.83,0,.273,0,.335.121.356.369.082,1,.09,1-.934,1Z" transform="translate(-2095.863 -2804.34)" fill="#eebf20"/>
      </g>
    </g>
  </g>
</svg>
