<svg xmlns="http://www.w3.org/2000/svg" xmlns:xlink="http://www.w3.org/1999/xlink" width="505" height="600" viewBox="0 0 505 600">
  <defs>
    <linearGradient id="linear-gradient" x1="-1.535" y1="1.338" x2="0.1" y2="0.665" gradientUnits="objectBoundingBox">
      <stop offset="0" stop-color="#e1473d"/>
      <stop offset="1" stop-color="#e9605a"/>
    </linearGradient>
    <linearGradient id="linear-gradient-2" x1="225.183" y1="-32.982" x2="213.95" y2="-32.591" gradientUnits="objectBoundingBox">
      <stop offset="0" stop-color="#09005d"/>
      <stop offset="1" stop-color="#1a0f91"/>
    </linearGradient>
    <linearGradient id="linear-gradient-3" x1="55.558" y1="-129.101" x2="55.17" y2="-130.043" xlink:href="#linear-gradient-2"/>
    <linearGradient id="linear-gradient-4" x1="272.491" y1="-48.431" x2="263.977" y2="-48.039" xlink:href="#linear-gradient-2"/>
    <linearGradient id="linear-gradient-5" x1="67.035" y1="-142.354" x2="66.647" y2="-143.295" xlink:href="#linear-gradient-2"/>
    <linearGradient id="linear-gradient-6" x1="317.882" y1="-40.677" x2="306.921" y2="-40.286" xlink:href="#linear-gradient-2"/>
    <linearGradient id="linear-gradient-7" x1="78.148" y1="-154.898" x2="77.761" y2="-155.839" xlink:href="#linear-gradient-2"/>
    <linearGradient id="linear-gradient-8" x1="0.982" y1="-0.027" x2="-0.161" y2="0.597" xlink:href="#linear-gradient-2"/>
    <linearGradient id="linear-gradient-9" x1="77.779" y1="-129.007" x2="77.391" y2="-129.949" xlink:href="#linear-gradient-2"/>
    <linearGradient id="linear-gradient-10" x1="-10.85" y1="-0.025" x2="-11.993" y2="0.599" xlink:href="#linear-gradient-2"/>
    <linearGradient id="linear-gradient-11" x1="55.335" y1="-52.06" x2="54.947" y2="-53.001" xlink:href="#linear-gradient-2"/>
    <linearGradient id="linear-gradient-12" x1="0" y1="0.5" x2="1" y2="0.5" xlink:href="#linear-gradient-2"/>
    <linearGradient id="linear-gradient-13" x1="-78.476" y1="0.5" x2="-77.475" y2="0.5" gradientUnits="objectBoundingBox">
      <stop offset="0" stop-color="#ff928e"/>
      <stop offset="1" stop-color="#feb3b1"/>
    </linearGradient>
    <linearGradient id="linear-gradient-14" x1="-85.22" y1="0.5" x2="-84.22" y2="0.5" xlink:href="#linear-gradient-13"/>
  </defs>
  <g id="Grupo_79895" data-name="Grupo 79895" transform="translate(-915 -176)">
    <rect id="Rectángulo_33959" data-name="Rectángulo 33959" width="505" height="600" transform="translate(915 176)" fill="#f6f6f6"/>
    <g id="Grupo_79894" data-name="Grupo 79894" transform="translate(-4135.934 11795.779)">
      <g id="Grupo_79893" data-name="Grupo 79893" transform="translate(5272.813 -11117.163)">
        <path id="Trazado_113995" data-name="Trazado 113995" d="M2064.81,1547.815a28.51,28.51,0,0,1,27.405,20.66h-54.81A28.508,28.508,0,0,1,2064.81,1547.815Z" transform="translate(-1890.865 -1531.056)" fill="#21958a"/>
        <path id="Trazado_113996" data-name="Trazado 113996" d="M1800.7,1529.334a42,42,0,0,1,40.369,30.434H1760.33A42,42,0,0,1,1800.7,1529.334Z" transform="translate(-1760.33 -1522.35)" fill="#21958a"/>
        <path id="Trazado_113997" data-name="Trazado 113997" d="M1966.575,1553.546c-6.19-21.42-30.721-37.418-60.042-37.418s-53.852,16-60.042,37.418Z" transform="translate(-1800.922 -1516.128)" fill="#21958a"/>
      </g>
      <g id="Grupo_79868" data-name="Grupo 79868" transform="translate(5087.968 -11574.176)">
        <path id="Trazado_116518" data-name="Trazado 116518" d="M978.923,165.611a13.35,13.35,0,0,0-9.582-4.047l-273.433.16a13.349,13.349,0,0,0-13.335,13.762l10.839,349.3a13.23,13.23,0,0,0,13.343,12.8H959.088a13.23,13.23,0,0,0,13.343-12.818l10.261-349.529A13.189,13.189,0,0,0,978.923,165.611Z" transform="translate(-682.567 -161.564)" fill="#12263f"/>
        <path id="Trazado_116519" data-name="Trazado 116519" d="M1001.077,223.718a12.2,12.2,0,0,0-8.758-3.7l-249.918.146a12.2,12.2,0,0,0-12.188,12.578l9.907,319.22a12.082,12.082,0,0,0,12.2,11.682H982.948a12.082,12.082,0,0,0,12.2-11.7l9.379-319.436A12.041,12.041,0,0,0,1001.077,223.718Z" transform="translate(-716.821 -203.594)" fill="#e9f1f2" opacity="0.997"/>
        <g id="Grupo_79866" data-name="Grupo 79866" transform="translate(37.789 20.034)">
          <g id="Grupo_79856" data-name="Grupo 79856" transform="translate(80.852)">
            <circle id="Elipse_4799" data-name="Elipse 4799" cx="27.034" cy="27.034" r="27.034" transform="translate(0 53.201) rotate(-79.722)" fill="#1565c0"/>
            <circle id="Elipse_4800" data-name="Elipse 4800" cx="25.119" cy="25.119" r="25.119" transform="matrix(0.178, -0.984, 0.984, 0.178, 2.866, 51.658)" fill="#1565c0"/>
          </g>
          <g id="Grupo_79857" data-name="Grupo 79857" transform="translate(80.852 266.938)">
            <circle id="Elipse_4801" data-name="Elipse 4801" cx="27.034" cy="27.034" r="27.034" transform="translate(0 53.201) rotate(-79.722)" fill="#1565c0"/>
            <circle id="Elipse_4802" data-name="Elipse 4802" cx="25.119" cy="25.119" r="25.119" transform="translate(4.353 53.652) rotate(-83.736)" fill="#1565c0"/>
          </g>
          <rect id="Rectángulo_34370" data-name="Rectángulo 34370" width="44.141" height="44.141" transform="matrix(0.709, -0.705, 0.705, 0.709, 81.064, 124.688)" fill="url(#linear-gradient)"/>
          <path id="Trazado_116584" data-name="Trazado 116584" d="M0,0H40.528V40.528H0Z" transform="matrix(0.709, -0.705, 0.705, 0.709, 83.619, 124.694)" fill="#ffca28"/>
          <g id="Grupo_79858" data-name="Grupo 79858" transform="translate(166.677 183.56)">
            <path id="Trazado_116520" data-name="Trazado 116520" d="M1467.061,903.363a17.242,17.242,0,0,1-17.243,17.242h-22.351a17.242,17.242,0,0,1-17.242-17.242h0a17.242,17.242,0,0,1,17.242-17.242h22.351a17.243,17.243,0,0,1,17.243,17.242Z" transform="translate(-1410.225 -886.12)" fill="#039be5"/>
            <path id="Trazado_116521" data-name="Trazado 116521" d="M1469.85,906.63a15.859,15.859,0,0,1-15.864,15.965h-20.745a15.859,15.859,0,0,1-15.864-15.965h0a15.859,15.859,0,0,1,15.864-15.965h20.745a15.859,15.859,0,0,1,15.864,15.965Z" transform="translate(-1415.368 -889.388)" fill="#039be5"/>
          </g>
          <g id="Grupo_79859" data-name="Grupo 79859" transform="translate(84.296 183.56)">
            <path id="Trazado_116522" data-name="Trazado 116522" d="M1173.883,903.363a17.242,17.242,0,0,1-17.243,17.242H1134.29a17.242,17.242,0,0,1-17.243-17.242h0a17.242,17.242,0,0,1,17.243-17.242h22.351a17.242,17.242,0,0,1,17.243,17.242Z" transform="translate(-1117.047 -886.12)" fill="#039be5"/>
            <path id="Trazado_116523" data-name="Trazado 116523" d="M1176.673,906.63a15.859,15.859,0,0,1-15.864,15.965h-20.745A15.859,15.859,0,0,1,1124.2,906.63h0a15.859,15.859,0,0,1,15.864-15.965h20.745a15.859,15.859,0,0,1,15.864,15.965Z" transform="translate(-1122.191 -889.388)" fill="#039be5"/>
          </g>
          <g id="Grupo_79860" data-name="Grupo 79860" transform="translate(0 183.56)">
            <path id="Trazado_116524" data-name="Trazado 116524" d="M873.888,903.363A17.242,17.242,0,0,1,856.646,920.6H834.295a17.242,17.242,0,0,1-17.243-17.242h0a17.242,17.242,0,0,1,17.243-17.242h22.351a17.242,17.242,0,0,1,17.242,17.242Z" transform="translate(-817.052 -886.12)" fill="#039be5"/>
            <path id="Trazado_116525" data-name="Trazado 116525" d="M876.677,906.63A15.859,15.859,0,0,1,860.814,922.6H840.069A15.859,15.859,0,0,1,824.2,906.63h0a15.859,15.859,0,0,1,15.864-15.965h20.745a15.859,15.859,0,0,1,15.864,15.965Z" transform="translate(-822.195 -889.388)" fill="#039be5"/>
          </g>
          <g id="Grupo_79861" data-name="Grupo 79861" transform="translate(108.353 61.267)">
            <path id="Trazado_116526" data-name="Trazado 116526" d="M1215.731,477.082a.958.958,0,0,1-.958-.958V451.857a.958.958,0,1,1,1.916,0v24.267A.958.958,0,0,1,1215.731,477.082Z" transform="translate(-1211.37 -450.899)" fill="url(#linear-gradient-2)"/>
            <path id="Trazado_116527" data-name="Trazado 116527" d="M1210.509,527.035l-3.923,6.794-3.923-6.794Z" transform="translate(-1202.663 -505.641)" fill="url(#linear-gradient-3)"/>
          </g>
          <g id="Grupo_79862" data-name="Grupo 79862" transform="translate(108.353 157.697)">
            <path id="Trazado_116528" data-name="Trazado 116528" d="M1215.731,813.873a.958.958,0,0,1-.958-.958V795.034a.958.958,0,0,1,1.916,0v17.881A.958.958,0,0,1,1215.731,813.873Z" transform="translate(-1211.37 -794.076)" fill="url(#linear-gradient-4)"/>
            <path id="Trazado_116529" data-name="Trazado 116529" d="M1210.509,847.484l-3.923,6.795-3.923-6.795Z" transform="translate(-1202.663 -832.477)" fill="url(#linear-gradient-5)"/>
          </g>
          <g id="Grupo_79863" data-name="Grupo 79863" transform="translate(107.371 238.161)">
            <path id="Trazado_116530" data-name="Trazado 116530" d="M1211.186,1105.979a.958.958,0,0,1-.958-.958v-23.629a.958.958,0,0,1,1.916,0v23.629A.958.958,0,0,1,1211.186,1105.979Z" transform="translate(-1207.12 -1080.435)" fill="url(#linear-gradient-6)"/>
            <path id="Trazado_116531" data-name="Trazado 116531" d="M1207.014,1154.3l-3.923,6.794-3.923-6.794Z" transform="translate(-1199.168 -1133.543)" fill="url(#linear-gradient-7)"/>
          </g>
          <g id="Grupo_79864" data-name="Grupo 79864" transform="translate(20.864 123.531)">
            <path id="Trazado_116532" data-name="Trazado 116532" d="M904.372,720.063a.958.958,0,0,1-.958-.958v-45.66a.958.958,0,0,1,.958-.958h52.685a.958.958,0,0,1,0,1.916H905.33v44.7A.957.957,0,0,1,904.372,720.063Z" transform="translate(-900.011 -672.487)" fill="url(#linear-gradient-8)"/>
            <path id="Trazado_116533" data-name="Trazado 116533" d="M899.15,836.121l-3.923,6.794-3.923-6.794Z" transform="translate(-891.304 -790.141)" fill="url(#linear-gradient-9)"/>
          </g>
          <g id="Grupo_79865" data-name="Grupo 79865" transform="translate(147.199 123.531)">
            <path id="Trazado_116534" data-name="Trazado 116534" d="M1394.55,720.063a.957.957,0,0,1-.958-.958V674.4h-51.727a.958.958,0,1,1,0-1.916h52.685a.958.958,0,0,1,.958.958v45.66A.958.958,0,0,1,1394.55,720.063Z" transform="translate(-1340.907 -672.487)" fill="url(#linear-gradient-10)"/>
            <path id="Trazado_116535" data-name="Trazado 116535" d="M1518.243,836.121l3.923,6.794,3.923-6.794Z" transform="translate(-1468.413 -790.141)" fill="url(#linear-gradient-11)"/>
          </g>
          <path id="Trazado_116536" data-name="Trazado 116536" d="M1077.717,1037.911H902.1a.958.958,0,0,1-.958-.958V1020.03a.958.958,0,1,1,1.916,0V1036h173.7V1020.03a.958.958,0,1,1,1.916,0v16.923A.958.958,0,0,1,1077.717,1037.911Z" transform="translate(-877.513 -798.153)" fill="url(#linear-gradient-12)"/>
        </g>
        <g id="Grupo_79867" data-name="Grupo 79867" transform="translate(28.849 32.447)">
          <rect id="Rectángulo_34372" data-name="Rectángulo 34372" width="74.078" height="8.302" rx="4.151" fill="#039be5"/>
          <rect id="Rectángulo_34373" data-name="Rectángulo 34373" width="74.078" height="8.302" rx="4.151" transform="translate(0 18.52)" fill="#039be5"/>
        </g>
      </g>
      <g id="Grupo_79882" data-name="Grupo 79882" transform="translate(5315.803 -11450.802)">
        <g id="Grupo_79869" data-name="Grupo 79869" transform="translate(85.136 72.714)">
          <path id="Trazado_116537" data-name="Trazado 116537" d="M1966.082,789.275,1841.4,778.21a9.836,9.836,0,0,1-8.966-9.743l-.459-84.066a9.835,9.835,0,0,1,10.518-9.865l132.765,9.239a9.835,9.835,0,0,1,9.114,10.681l-7.623,85.892A9.836,9.836,0,0,1,1966.082,789.275Z" transform="translate(-1831.974 -674.511)" fill="#1565c0"/>
          <path id="Trazado_116538" data-name="Trazado 116538" d="M1851.366,714.92l-.825,72.584a6.083,6.083,0,0,0,5.481,6.122L1975.579,805.5a6.083,6.083,0,0,0,6.66-5.515l6.888-77.612a6.083,6.083,0,0,0-5.728-6.612l-125.62-6.846A6.084,6.084,0,0,0,1851.366,714.92Z" transform="translate(-1844.056 -696.893)" fill="#e8f0f1"/>
          <path id="Trazado_116539" data-name="Trazado 116539" d="M2012.745,907.69l67.661,3.97a1.232,1.232,0,0,1,1.155,1.339l-.1,1.086a1.232,1.232,0,0,1-1.319,1.12l-67.565-5.057a1.232,1.232,0,0,1-1.135-1.337h0A1.232,1.232,0,0,1,2012.745,907.69Z" transform="translate(-1948.758 -826.246)" fill="#1565c0"/>
          <path id="Trazado_116540" data-name="Trazado 116540" d="M2009.932,925.009l-.041.463a1.231,1.231,0,0,0,1.118,1.336l67.482,5.989a1.232,1.232,0,0,0,1.336-1.118l.041-.463a1.232,1.232,0,0,0-1.118-1.336l-67.483-5.989A1.232,1.232,0,0,0,2009.932,925.009Z" transform="translate(-1947.746 -836.787)" fill="#1565c0"/>
          <path id="Trazado_116541" data-name="Trazado 116541" d="M2067.08,947.535l-.018.2a1.232,1.232,0,0,0,1.118,1.336l47,4.171a1.232,1.232,0,0,0,1.336-1.118l.084-.955a1.231,1.231,0,0,0-1.137-1.338l-47.067-3.419A1.232,1.232,0,0,0,2067.08,947.535Z" transform="translate(-1984.949 -851.445)" fill="#1565c0"/>
        </g>
        <g id="Grupo_79870" data-name="Grupo 79870" transform="translate(43.048 32.749)">
          <path id="Trazado_116542" data-name="Trazado 116542" d="M1877.214,684.784l-147.143-2.995a11.564,11.564,0,0,1-11.3-10.711L1711.5,572.5a11.564,11.564,0,0,1,11.548-12.415l156.477.206a11.564,11.564,0,0,1,11.547,11.8l-2.064,101.366A11.564,11.564,0,0,1,1877.214,684.784Z" transform="translate(-1711.47 -560.087)" fill="#1565c0"/>
          <path id="Trazado_116543" data-name="Trazado 116543" d="M1737.956,603.425l4.845,85.21a7.153,7.153,0,0,0,6.92,6.743l141.195,4.354a7.153,7.153,0,0,0,7.371-7l1.865-91.593a7.152,7.152,0,0,0-7.249-7.3L1745,595.868A7.152,7.152,0,0,0,1737.956,603.425Z" transform="translate(-1728.698 -582.05)" fill="#e8f0f1"/>
          <path id="Trazado_116544" data-name="Trazado 116544" d="M1940.2,819.861l79.687-.761a1.449,1.449,0,0,1,1.463,1.478l-.026,1.283a1.448,1.448,0,0,1-1.458,1.419l-79.661-.522a1.448,1.448,0,0,1-1.439-1.477h0A1.449,1.449,0,0,1,1940.2,819.861Z" transform="translate(-1859.375 -728.634)" fill="#039be5"/>
          <path id="Rectángulo_34374" data-name="Rectángulo 34374" d="M1.722,0h0A1.722,1.722,0,0,1,3.443,1.722V80.83a1.721,1.721,0,0,1-1.721,1.721h0A1.722,1.722,0,0,1,0,80.83V1.722A1.722,1.722,0,0,1,1.722,0Z" transform="translate(79.21 101.318) rotate(-88.836)" fill="#039be5"/>
          <path id="Trazado_116545" data-name="Trazado 116545" d="M2007.154,863.664l0,.24a1.449,1.449,0,0,0,1.418,1.478l55.467,1.129a1.448,1.448,0,0,0,1.477-1.418l.023-1.127a1.448,1.448,0,0,0-1.441-1.478l-55.485-.242A1.449,1.449,0,0,0,2007.154,863.664Z" transform="translate(-1903.877 -756.71)" fill="#039be5"/>
        </g>
        <g id="Grupo_79881" data-name="Grupo 79881" transform="translate(0)">
          <path id="Trazado_116546" data-name="Trazado 116546" d="M1774.576,604.43h-163.24a12.826,12.826,0,0,1-12.77-11.623l-10.289-109.151a12.826,12.826,0,0,1,12.526-14.028l173.529-3.3a12.827,12.827,0,0,1,13.071,12.825V591.6A12.827,12.827,0,0,1,1774.576,604.43Z" transform="translate(-1588.22 -466.322)" fill="#12263f"/>
          <path id="Trazado_116547" data-name="Trazado 116547" d="M1618.213,517.474l7.3,94.384a7.934,7.934,0,0,0,7.827,7.321l156.674,1.641a7.933,7.933,0,0,0,8.016-7.932V511.274a7.932,7.932,0,0,0-8.2-7.928l-163.971,5.588A7.933,7.933,0,0,0,1618.213,517.474Z" transform="translate(-1607.722 -490.412)" fill="#e8f0f1"/>
          <path id="Trazado_116548" data-name="Trazado 116548" d="M1854.833,536.409l88.351-2.642a1.606,1.606,0,0,1,1.655,1.606v1.423a1.607,1.607,0,0,1-1.585,1.607l-88.351,1.22a1.606,1.606,0,0,1-1.628-1.607h0A1.607,1.607,0,0,1,1854.833,536.409Z" transform="translate(-1760.699 -510.21)" fill="#12263f"/>
          <path id="Rectángulo_34375" data-name="Rectángulo 34375" d="M1.91,0H89.654a1.909,1.909,0,0,1,1.909,1.909v0a1.909,1.909,0,0,1-1.909,1.909H1.91A1.91,1.91,0,0,1,0,1.91v0A1.91,1.91,0,0,1,1.91,0Z" transform="translate(92.576 33.606)" fill="#12263f"/>
          <g id="Grupo_79871" data-name="Grupo 79871" transform="translate(70.216 89.433)">
            <path id="Trazado_116549" data-name="Trazado 116549" d="M1790.038,747.608a.721.721,0,0,1-.721-.719l-.006-2.162a.721.721,0,0,1,.719-.723h0a.721.721,0,0,1,.721.719l.005,2.162a.72.72,0,0,1-.719.723Zm-.019-7.208a.721.721,0,0,1-.72-.719l-.006-2.162a.72.72,0,0,1,.719-.723h0a.721.721,0,0,1,.721.719l.006,2.163a.721.721,0,0,1-.719.723Zm-.018-7.208a.721.721,0,0,1-.721-.719l-.005-2.163a.721.721,0,0,1,.719-.723h0a.722.722,0,0,1,.721.719l.005,2.163a.721.721,0,0,1-.719.723Zm-.019-7.208a.722.722,0,0,1-.721-.719l-.005-2.163a.721.721,0,0,1,.719-.723h0a.721.721,0,0,1,.721.719l.005,2.162a.72.72,0,0,1-.719.723Z" transform="translate(-1789.257 -722.379)" fill="#12263f"/>
          </g>
          <g id="Grupo_79872" data-name="Grupo 79872" transform="translate(106.481 80.171)">
            <path id="Trazado_116550" data-name="Trazado 116550" d="M1893.807,728.3a.721.721,0,0,1-.721-.721v-2.162a.721.721,0,0,1,1.442,0v2.162A.721.721,0,0,1,1893.807,728.3Zm0-7.208a.721.721,0,0,1-.721-.721v-2.163a.721.721,0,0,1,1.442,0v2.163A.721.721,0,0,1,1893.807,721.089Zm0-7.208a.721.721,0,0,1-.721-.721V711a.721.721,0,0,1,1.442,0v2.163A.721.721,0,0,1,1893.807,713.881Zm0-7.208a.721.721,0,0,1-.721-.721v-2.163a.721.721,0,0,1,1.442,0v2.163A.721.721,0,0,1,1893.807,706.673Zm0-7.209a.721.721,0,0,1-.721-.721v-2.162a.721.721,0,0,1,1.442,0v2.162A.721.721,0,0,1,1893.807,699.464Z" transform="translate(-1893.086 -695.86)" fill="#12263f"/>
          </g>
          <g id="Grupo_79873" data-name="Grupo 79873" transform="translate(132.713 72.603)">
            <path id="Trazado_116551" data-name="Trazado 116551" d="M1970.292,720.155a.721.721,0,0,1-.72-.7l-.04-1.291a.722.722,0,0,1,.7-.744.707.707,0,0,1,.743.7l.04,1.291a.722.722,0,0,1-.7.744Zm-.2-6.334a.721.721,0,0,1-.72-.7l-.067-2.162a.721.721,0,1,1,1.441-.045l.067,2.162a.722.722,0,0,1-.7.744Zm-.224-7.205a.72.72,0,0,1-.72-.7l-.067-2.162a.721.721,0,0,1,.7-.743.741.741,0,0,1,.743.7l.067,2.162a.721.721,0,0,1-.7.743Zm-.224-7.2a.72.72,0,0,1-.719-.7l-.067-2.162a.721.721,0,1,1,1.441-.045l.067,2.162a.721.721,0,0,1-.7.743Zm-.223-7.2a.721.721,0,0,1-.72-.7l-.067-2.162a.721.721,0,1,1,1.441-.045l.067,2.162a.721.721,0,0,1-.7.743Zm-.224-7.2a.72.72,0,0,1-.72-.7l-.068-2.162a.722.722,0,0,1,.7-.744.712.712,0,0,1,.742.7l.067,2.162a.721.721,0,0,1-.7.743Zm-.224-7.2a.72.72,0,0,1-.72-.7l-.068-2.162a.722.722,0,0,1,.7-.744.711.711,0,0,1,.743.7l.067,2.162a.721.721,0,0,1-.7.743Z" transform="translate(-1968.19 -674.193)" fill="#12263f"/>
          </g>
          <g id="Grupo_79874" data-name="Grupo 79874" transform="translate(160.341 53.259)">
            <path id="Trazado_116552" data-name="Trazado 116552" d="M2048.015,680.08a.721.721,0,0,1-.721-.721V677.2a.721.721,0,1,1,1.441,0v2.162A.721.721,0,0,1,2048.015,680.08Zm0-7.208a.721.721,0,0,1-.721-.721v-2.162a.721.721,0,1,1,1.441,0v2.162A.721.721,0,0,1,2048.015,672.872Zm0-7.208a.721.721,0,0,1-.721-.721V662.78a.721.721,0,0,1,1.441,0v2.163A.721.721,0,0,1,2048.015,665.664Zm0-7.208a.721.721,0,0,1-.721-.721v-2.163a.721.721,0,0,1,1.441,0v2.163A.721.721,0,0,1,2048.015,658.456Zm0-7.209a.721.721,0,0,1-.721-.721v-2.163a.721.721,0,1,1,1.441,0v2.163A.721.721,0,0,1,2048.015,651.247Zm0-7.208a.721.721,0,0,1-.721-.721v-2.162a.721.721,0,1,1,1.441,0v2.162A.721.721,0,0,1,2048.015,644.039Zm0-7.208a.721.721,0,0,1-.721-.721v-2.162a.721.721,0,1,1,1.441,0v2.162A.721.721,0,0,1,2048.015,636.831Zm0-7.208a.721.721,0,0,1-.721-.721v-2.162a.721.721,0,1,1,1.441,0V628.9A.721.721,0,0,1,2048.015,629.622Zm0-7.208a.721.721,0,0,1-.721-.721v-2.162a.721.721,0,1,1,1.441,0v2.162A.721.721,0,0,1,2048.015,622.414Z" transform="translate(-2047.294 -618.81)" fill="#12263f"/>
          </g>
          <g id="Grupo_79876" data-name="Grupo 79876" transform="translate(21.303 32.228)">
            <path id="Trazado_116553" data-name="Trazado 116553" d="M1664.758,651.982a1.082,1.082,0,0,1-1.076-.99l-7.389-87.268a1.081,1.081,0,1,1,2.155-.183l7.389,87.268a1.081,1.081,0,0,1-.986,1.169C1664.819,651.981,1664.788,651.982,1664.758,651.982Z" transform="translate(-1653.818 -561.171)" fill="#12263f"/>
            <g id="Grupo_79875" data-name="Grupo 79875">
              <path id="Trazado_116554" data-name="Trazado 116554" d="M1649.476,565.657l3.344-3.964,3.962,3.346-.262-3.1-3.963-3.344-3.344,3.962Z" transform="translate(-1649.213 -558.594)" fill="#12263f"/>
            </g>
          </g>
          <g id="Grupo_79878" data-name="Grupo 79878" transform="translate(25.557 114.178)">
            <path id="Trazado_116555" data-name="Trazado 116555" d="M1814.526,802.789H1662.473a1.081,1.081,0,0,1,0-2.162h152.053a1.081,1.081,0,1,1,0,2.162Z" transform="translate(-1661.392 -798.042)" fill="#12263f"/>
            <g id="Grupo_79877" data-name="Grupo 79877" transform="translate(148.827)">
              <path id="Trazado_116556" data-name="Trazado 116556" d="M2087.5,800.557l3.668-3.666-3.668-3.666h3.113l3.666,3.666-3.666,3.666Z" transform="translate(-2087.499 -793.225)" fill="#12263f"/>
            </g>
          </g>
          <g id="Grupo_79879" data-name="Grupo 79879" transform="translate(37.49 48.343)">
            <path id="Trazado_116557" data-name="Trazado 116557" d="M1696.637,650.241a1.081,1.081,0,0,1-.141-2.153c.8-.107,80.41-11.008,123.991-43.143a1.081,1.081,0,1,1,1.283,1.74c-44.031,32.467-124.185,43.44-124.99,43.547A1.09,1.09,0,0,1,1696.637,650.241Z" transform="translate(-1695.557 -604.733)" fill="#12263f"/>
          </g>
          <g id="Grupo_79880" data-name="Grupo 79880" transform="translate(155.646 47.245)">
            <path id="Trazado_116558" data-name="Trazado 116558" d="M2041.6,609.521c-.029,0-.057,0-.086,0a1.081,1.081,0,0,1-.993-1.162l.334-4.247-5.988-.356a1.081,1.081,0,0,1-1.016-1.143,1.07,1.07,0,0,1,1.144-1.015l7.088.42a1.08,1.08,0,0,1,1.014,1.164l-.42,5.347A1.081,1.081,0,0,1,2041.6,609.521Z" transform="translate(-2033.85 -601.591)" fill="#7d97f4" stroke="#12263f" stroke-width="1"/>
          </g>
        </g>
      </g>
      <g id="Grupo_79889" data-name="Grupo 79889" transform="translate(5288.869 -11305.666)">
        <g id="Grupo_79883" data-name="Grupo 79883" transform="translate(113.753 144.031)">
          <rect id="Rectángulo_34376" data-name="Rectángulo 34376" width="6.662" height="72.046" transform="translate(34.428 17.156)" fill="#12263f"/>
          <path id="Trazado_116559" data-name="Trazado 116559" d="M1964.118,1478.175h-58.35v-3.322a1.015,1.015,0,0,1,1.015-1.015h56.242a1.093,1.093,0,0,1,1.094,1.094Z" transform="translate(-1897.184 -1387.583)" fill="#12263f"/>
          <rect id="Rectángulo_34377" data-name="Rectángulo 34377" width="77.968" height="22.113" rx="11.056" fill="#745d60"/>
        </g>
        <g id="Grupo_79885" data-name="Grupo 79885" transform="translate(57.073)">
          <path id="Trazado_116560" data-name="Trazado 116560" d="M1858.118,1442.3s-19.023,13.712-15.721,22.925c0,0,20.815-8.981,23.329-16.055s-.426-10.2-.426-10.2Z" transform="translate(-1800.785 -1221.832)" fill="#12263f"/>
          <path id="Trazado_116561" data-name="Trazado 116561" d="M1878.391,1417.321l3.11,8.993a3.127,3.127,0,0,1-1.214,3.67,8.165,8.165,0,0,1-2.574,1,3.64,3.64,0,0,1-4.028-1.828l-3.721-7.007Z" transform="translate(-1818.199 -1208.344)" fill="url(#linear-gradient-13)"/>
          <path id="Trazado_116562" data-name="Trazado 116562" d="M1872.345,1202.634s-39.074,6.772-55.835,22.256,15.385,64.875,15.385,64.875,5.266-.032,11.649-5.5c0,0-19.06-37.147-2.634-47.979,18.467-12.179,39.75-14.922,39.75-14.922l-7.936-17.533Z" transform="translate(-1781.882 -1074.598)" fill="#12263f"/>
          <path id="Trazado_116563" data-name="Trazado 116563" d="M1840.467,1477.524c4.184-1.937,16.03-10.228,18.027-10.594s5.46,1.98,5.46,1.98a5.4,5.4,0,0,1-.059,4.158c-2.78,3.364-8.954,9.777-17.253,12.167-6.1,1.758-10.375.119-13.034-1.8A17.638,17.638,0,0,1,1840.467,1477.524Z" transform="translate(-1795.55 -1239.224)" fill="#727997"/>
          <path id="Trazado_116565" data-name="Trazado 116565" d="M1905.341,1451.166c-.047,1.153-2.4,5.106-3.781,7.325a3.59,3.59,0,0,1-3.042,1.7,9.226,9.226,0,0,1-2.513-.3,2.33,2.33,0,0,1-1.565-2.9l2.691-9.188Z" transform="translate(-1833.388 -1227.332)" fill="url(#linear-gradient-14)"/>
          <path id="Trazado_116566" data-name="Trazado 116566" d="M1961.463,1171.525s8.678,23.2,0,30.26-29.379,15-34,29.056-12.473,41.369-22.974,51.042c0,0-7.379-.715-10.14-3.655,0,0,5.981-40.776,9.926-51.239,3.416-9.061,8.449-22.139,18.1-29.449,2.761-2.092,2.28-5.407,1-8.626l-2.331-5.862Z" transform="translate(-1833.388 -1055.219)" fill="#12263f"/>
          <path id="Trazado_116567" data-name="Trazado 116567" d="M1831.762,1084.8c14.55.877,10.016-22.368,9.754-23.292l22.084,15.6s-1.169,12.431-19.53,18.952a22.816,22.816,0,0,1-12.645.915A20.094,20.094,0,0,0,1831.762,1084.8Z" transform="translate(-1794.19 -986.681)" fill="#039be5"/>
          <path id="Trazado_116568" data-name="Trazado 116568" d="M1742.1,1101.962c5.422-3.771,11.565,0,11.565,0,7.249,4.741,12.613,6.758,16.57,7a20.09,20.09,0,0,1-.337,12.172c-8.121-1.745-13.932-7.623-16.457-10.639a2.622,2.622,0,0,0-3.63-.4c-1.129.891-2.225,2.112-2.027,3.4.392,2.534-2.548,3.339-2.77,2.421s1.005-6.366,1.005-6.366-5.88,5.913-8.176,8.185-5.182,0-5.182,0S1736.68,1105.734,1742.1,1101.962Z" transform="translate(-1732.665 -1010.838)" fill="#edbea1"/>
          <path id="Trazado_116569" data-name="Trazado 116569" d="M1909.921,964.649s-21.168-8.476-60.562,24.048c0,0-3.291,6.811.3,12.873s37.793,35.6,42.494,51.983c0,0,20.376,6.621,41.45-9.08C1933.6,1044.473,1931.742,998.882,1909.921,964.649Z" transform="translate(-1804.504 -925.72)" fill="#039be5"/>
          <path id="Trazado_116570" data-name="Trazado 116570" d="M1878.032,946.232l10.421,12.632a4.147,4.147,0,0,1,.546,4.459c-1.446,2.951-4.878,7.246-12.489,6.652a6.4,6.4,0,0,1-5.258-3.587l-7.286-15.062Z" transform="translate(-1814.462 -914.866)" fill="#edbea1"/>
          <path id="Trazado_116571" data-name="Trazado 116571" d="M2018.667,1020.4c2.457-10.008-22.433-32.319-22.433-32.319l6.045-21.784s53.747,35.78,40.05,64.553a20.952,20.952,0,0,1-7.594,8.946C2030.406,1028.142,2023.509,1022.8,2018.667,1020.4Z" transform="translate(-1896.862 -927.364)" fill="#039be5"/>
          <path id="Trazado_116572" data-name="Trazado 116572" d="M2017.74,1050.583a.587.587,0,0,0,.57-.448c2.513-10.233-21.585-31.976-22.612-32.9a.588.588,0,1,0-.786.876c.246.22,24.6,22.189,22.255,31.741a.589.589,0,0,0,.431.712A.624.624,0,0,0,2017.74,1050.583Z" transform="translate(-1895.918 -959.008)" fill="#1565c0"/>
          <path id="Trazado_116573" data-name="Trazado 116573" d="M1914.687,1106.733s29.511,11.457,36.714,2.84a4.84,4.84,0,0,0,.986-1.978c4.842,2.4,11.739,7.747,16.067,19.4-15.521,9.918-42.051-5.517-49.224-10.067a5.354,5.354,0,0,0-3.964-.727c-2.767.574-7.547,1.417-10.124,1.02-3.771-.581-9.188,12.722-15.3,8.618C1889.841,1125.834,1895.074,1102.711,1914.687,1106.733Z" transform="translate(-1830.582 -1014.562)" fill="#edbea1"/>
          <g id="Grupo_79884" data-name="Grupo 79884" transform="translate(34.466)">
            <path id="Trazado_116574" data-name="Trazado 116574" d="M1841.13,891.891c-.105.406,2.442,28.02,2.442,28.02l15.737-1.79,1.474-26.531S1842.885,885.092,1841.13,891.891Z" transform="translate(-1834.7 -879.081)" fill="#edbea1"/>
            <path id="Trazado_116575" data-name="Trazado 116575" d="M1846.066,881.047l.318,14.027a1.937,1.937,0,0,1-.061.53c-.274,1.067-1.485,4.667-5.094,3.2-3.274-1.328-6.283-2.492-8.495-2.072a1.958,1.958,0,0,0-1.587,2.105,84.627,84.627,0,0,0,2.153,12.973,1.954,1.954,0,0,0,2.233,1.408,63.148,63.148,0,0,0,14.143-4.053,1.96,1.96,0,0,0,1.142-1.649c.236-3.507.992-14.161,1.662-17.1.629-2.756,4.239-4.053,5.793-4.489a1.926,1.926,0,0,0,1.183-.953c.879-1.651,2.268-5.545-2.59-7.735a1.962,1.962,0,0,1-.958-2.658c.974-2,1.636-5.131-2.069-7.3-3.766-2.21-6.955-.423-8.741,1.117a1.961,1.961,0,0,1-2.516.021,1.551,1.551,0,0,0-1.761-.133,1.931,1.931,0,0,1-2.627-1.122,5.852,5.852,0,0,0-6.389-4.11c-7.01.423-8.626,7.962-7.3,12.63s8.9,3.776,12.853,1.93c3.006-1.4,6.463.793,7.948,1.926A1.945,1.945,0,0,1,1846.066,881.047Z" transform="translate(-1824.082 -863.039)" fill="#12263f"/>
            <path id="Trazado_116576" data-name="Trazado 116576" d="M1898.575,931.918s-1.959-8.232,1.16-9.853,7.313-.141,5.735,5.493C1903.508,934.566,1898.575,931.918,1898.575,931.918Z" transform="translate(-1870.111 -899.426)" fill="#edbea1"/>
          </g>
        </g>
        <g id="Grupo_79886" data-name="Grupo 79886" transform="translate(4.214 58.547)">
          <path id="Trazado_116577" data-name="Trazado 116577" d="M1808.52,1158.171q-.071,0-.142,0l-61.918-.068a2.771,2.771,0,1,1,.006-5.543l61.918.068a2.771,2.771,0,0,1,.136,5.539Z" transform="translate(-1686.675 -1101.953)" fill="#12263f"/>
          <path id="Trazado_116578" data-name="Trazado 116578" d="M1596.588,1018.327h51.566a9.828,9.828,0,0,1,8.889,5.636l23.839,50.549H1616.8a5.973,5.973,0,0,1-5.555-3.778l-18.486-46.775A4.118,4.118,0,0,1,1596.588,1018.327Z" transform="translate(-1592.466 -1018.327)" fill="#12263f"/>
        </g>
        <g id="Grupo_79888" data-name="Grupo 79888" transform="translate(0 114.176)">
          <g id="Grupo_79887" data-name="Grupo 79887" transform="translate(14.095 5.538)">
            <path id="Trazado_116579" data-name="Trazado 116579" d="M1621.274,1308.418a2.672,2.672,0,0,1-1.027-.206,2.489,2.489,0,0,1-1.362-3.31l54.569-122.813a2.636,2.636,0,0,1,3.419-1.319,2.49,2.49,0,0,1,1.362,3.31l-54.57,122.813A2.606,2.606,0,0,1,1621.274,1308.418Z" transform="translate(-1618.673 -1180.565)" fill="#745d60"/>
            <path id="Trazado_116580" data-name="Trazado 116580" d="M1694.156,1308.417a2.607,2.607,0,0,1-2.392-1.524l-54.569-122.813a2.49,2.49,0,0,1,1.362-3.31,2.635,2.635,0,0,1,3.418,1.319l54.569,122.813a2.489,2.489,0,0,1-1.362,3.31A2.668,2.668,0,0,1,1694.156,1308.417Z" transform="translate(-1630.079 -1180.564)" fill="#745d60"/>
            <path id="Trazado_116581" data-name="Trazado 116581" d="M2069.3,1308.418a2.675,2.675,0,0,1-1.027-.206,2.49,2.49,0,0,1-1.362-3.31l54.57-122.813a2.635,2.635,0,0,1,3.418-1.319,2.49,2.49,0,0,1,1.362,3.31l-54.57,122.813A2.606,2.606,0,0,1,2069.3,1308.418Z" transform="translate(-1897.782 -1180.565)" fill="#745d60"/>
            <path id="Trazado_116582" data-name="Trazado 116582" d="M2142.179,1308.417a2.606,2.606,0,0,1-2.391-1.524l-54.57-122.813a2.49,2.49,0,0,1,1.362-3.31,2.636,2.636,0,0,1,3.419,1.319l54.57,122.813a2.49,2.49,0,0,1-1.362,3.31A2.672,2.672,0,0,1,2142.179,1308.417Z" transform="translate(-1909.187 -1180.564)" fill="#745d60"/>
          </g>
          <path id="Trazado_116583" data-name="Trazado 116583" d="M1834.776,1169.146a3,3,0,0,0-.517-2.272,2.364,2.364,0,0,0-1.894-1H1584.114a2.766,2.766,0,0,0-2.38,1.459,3.494,3.494,0,0,0-.185,3.031l2.69,6.519a3.766,3.766,0,0,0,3.42,2.448h243a2.956,2.956,0,0,0,2.8-2.586Z" transform="translate(-1581.288 -1165.875)" fill="#745d60"/>
        </g>
      </g>
      <g id="Grupo_79892" data-name="Grupo 79892" transform="translate(5065.141 -11155.734)">
        <path id="Trazado_114003" data-name="Trazado 114003" d="M789.363,1571.532a24.111,24.111,0,0,0-23.178,17.474h46.356A24.111,24.111,0,0,0,789.363,1571.532Z" transform="translate(-766.185 -1557.358)" fill="#26a69a"/>
        <path id="Trazado_114004" data-name="Trazado 114004" d="M993.2,1555.9a35.519,35.519,0,0,0-34.144,25.74h68.287A35.518,35.518,0,0,0,993.2,1555.9Z" transform="translate(-857.052 -1549.994)" fill="#26a69a"/>
        <path id="Trazado_114005" data-name="Trazado 114005" d="M823.268,1576.38c5.235-18.116,25.983-31.648,50.782-31.648s45.547,13.532,50.782,31.648Z" transform="translate(-793.078 -1544.732)" fill="#26a69a"/>
      </g>
      <g id="Grupo_79896" data-name="Grupo 79896" transform="translate(5102.517 -11132.986)">
        <path id="Trazado_114003-2" data-name="Trazado 114003" d="M789.363,1571.532a24.111,24.111,0,0,0-23.178,17.474h46.356A24.111,24.111,0,0,0,789.363,1571.532Z" transform="translate(-766.185 -1557.358)" fill="#1565c0"/>
        <path id="Trazado_114004-2" data-name="Trazado 114004" d="M993.2,1555.9a35.519,35.519,0,0,0-34.144,25.74h68.287A35.518,35.518,0,0,0,993.2,1555.9Z" transform="translate(-857.052 -1549.994)" fill="#1565c0"/>
        <path id="Trazado_114005-2" data-name="Trazado 114005" d="M823.268,1576.38c5.235-18.116,25.983-31.648,50.782-31.648s45.547,13.532,50.782,31.648Z" transform="translate(-793.078 -1544.732)" fill="#1565c0"/>
      </g>
      <path id="Trazado_116585" data-name="Trazado 116585" d="M15.829,0A15.829,15.829,0,1,1,0,15.829,15.829,15.829,0,0,1,15.829,0Z" transform="translate(5172 -11509.271)" fill="#039be5"/>
      <circle id="Elipse_4803" data-name="Elipse 4803" cx="7.329" cy="7.329" r="7.329" transform="translate(5506.186 -11220.485)" fill="#26a69a"/>
      <circle id="Elipse_4804" data-name="Elipse 4804" cx="8.786" cy="8.786" r="8.786" transform="translate(5150.289 -11544.837)" fill="#1565c0"/>
      <path id="Trazado_116586" data-name="Trazado 116586" d="M8.786,0A8.786,8.786,0,1,1,0,8.786,8.786,8.786,0,0,1,8.786,0Z" transform="translate(5456.591 -11468.373)" fill="#ffca28"/>
    </g>
  </g>
</svg>
