<svg xmlns="http://www.w3.org/2000/svg" width="141.931" height="63.89" viewBox="0 0 141.931 63.89">
  <g id="Grupo_78443" data-name="Grupo 78443" transform="translate(-1226.514 -7834)">
    <rect id="Rectángulo_33830" data-name="Rectángulo 33830" width="45.205" height="45.205" transform="translate(1291.484 7834) rotate(43)" fill="#1565c0"/>
    <path id="Trazado_116629" data-name="Trazado 116629" d="M-.525-4.663a1.879,1.879,0,0,0-.732-1.593A9.607,9.607,0,0,0-3.894-7.428,18.691,18.691,0,0,1-6.909-8.643q-3.027-1.636-3.027-4.407a4.292,4.292,0,0,1,.812-2.57,5.3,5.3,0,0,1,2.332-1.764,8.776,8.776,0,0,1,3.412-.635,7.988,7.988,0,0,1,3.394.69,5.4,5.4,0,0,1,2.313,1.947,5.1,5.1,0,0,1,.824,2.856H-.513a2.4,2.4,0,0,0-.769-1.9A3.161,3.161,0,0,0-3.442-15.1a3.377,3.377,0,0,0-2.087.568,1.79,1.79,0,0,0-.745,1.5A1.715,1.715,0,0,0-5.4-11.584a9.861,9.861,0,0,0,2.57,1.1A11.1,11.1,0,0,1,1.721-8.154,4.643,4.643,0,0,1,3.149-4.687,4.277,4.277,0,0,1,1.4-1.068,7.642,7.642,0,0,1-3.3.244,9.075,9.075,0,0,1-7.031-.507,5.911,5.911,0,0,1-9.6-2.563a5.268,5.268,0,0,1-.885-3.027h3.674q0,2.942,3.516,2.942A3.42,3.42,0,0,0-1.257-3.18,1.728,1.728,0,0,0-.525-4.663ZM9.521,0H5.859V-17.773H9.521ZM8.386-22.571h3.845L8.85-18.787H5.981Z" transform="translate(1237 7874.038)" fill="#12263f"/>
    <path id="Trazado_116630" data-name="Trazado 116630" d="M-1.416,0H-5.078l-7.129-11.694V0h-3.662V-17.773h3.662L-5.066-6.055V-17.773h3.65Zm17.8-8.484a10.729,10.729,0,0,1-.928,4.6A6.987,6.987,0,0,1,12.8-.83,7.344,7.344,0,0,1,8.838.244,7.394,7.394,0,0,1,4.9-.818,7.055,7.055,0,0,1,2.209-3.851a10.422,10.422,0,0,1-.964-4.535v-.879a10.673,10.673,0,0,1,.946-4.62,7.044,7.044,0,0,1,2.673-3.064,7.354,7.354,0,0,1,3.949-1.068,7.354,7.354,0,0,1,3.949,1.068,7.044,7.044,0,0,1,2.673,3.064,10.643,10.643,0,0,1,.946,4.608ZM12.671-9.29a7.479,7.479,0,0,0-1-4.248A3.262,3.262,0,0,0,8.813-14.99a3.263,3.263,0,0,0-2.844,1.434A7.394,7.394,0,0,0,4.956-9.351v.867a7.573,7.573,0,0,0,1,4.224,3.253,3.253,0,0,0,2.881,1.5A3.224,3.224,0,0,0,11.67-4.205a7.529,7.529,0,0,0,1-4.218Z" transform="translate(1352.063 7874.038)" fill="#12263f"/>
  </g>
</svg>
