<svg xmlns="http://www.w3.org/2000/svg" width="139.221" height="109.18" viewBox="0 0 139.221 109.18">
  <g id="Grupo_78444" data-name="Grupo 78444" transform="translate(-1225.93 -7894.763)">
    <circle id="Elipse_4719" data-name="Elipse 4719" cx="36.5" cy="36.5" r="36.5" transform="translate(1262.994 7930.942)" fill="#1565c0"/>
    <path id="Trazado_116631" data-name="Trazado 116631" d="M-52.835-6.631a7.044,7.044,0,0,1-2.372,5.059A8.331,8.331,0,0,1-60.847.273,7.491,7.491,0,0,1-66.869-2.3a10.567,10.567,0,0,1-2.194-7.075V-10.6a11.933,11.933,0,0,1,1.012-5.059,7.582,7.582,0,0,1,2.892-3.356,8.1,8.1,0,0,1,4.368-1.169,8.115,8.115,0,0,1,5.551,1.846,7.57,7.57,0,0,1,2.434,5.182h-4.1a4.157,4.157,0,0,0-1.073-2.8,3.974,3.974,0,0,0-2.81-.868,3.485,3.485,0,0,0-3.069,1.47,8.237,8.237,0,0,0-1.046,4.56v1.5a8.816,8.816,0,0,0,.978,4.717,3.42,3.42,0,0,0,3.083,1.49,4.049,4.049,0,0,0,2.837-.868,3.921,3.921,0,0,0,1.073-2.687Zm1.818-.9a8.773,8.773,0,0,1,.848-3.924,6.205,6.205,0,0,1,2.44-2.666,7.12,7.12,0,0,1,3.7-.943,6.736,6.736,0,0,1,4.888,1.832A7.353,7.353,0,0,1-37.03-8.258L-37-7.246a7.732,7.732,0,0,1-1.9,5.462A6.606,6.606,0,0,1-44,.273a6.639,6.639,0,0,1-5.106-2.051,7.868,7.868,0,0,1-1.907-5.578Zm3.951.28a5.53,5.53,0,0,0,.793,3.225A2.616,2.616,0,0,0-44-2.912a2.622,2.622,0,0,0,2.242-1.1,6.051,6.051,0,0,0,.807-3.526,5.474,5.474,0,0,0-.807-3.2,2.622,2.622,0,0,0-2.27-1.136,2.579,2.579,0,0,0-2.242,1.13A6.153,6.153,0,0,0-47.065-7.253Zm16.133-7.54.123,1.709a5.165,5.165,0,0,1,4.252-1.982,4.292,4.292,0,0,1,3.5,1.381,6.443,6.443,0,0,1,1.176,4.129V0h-3.951V-9.483a2.573,2.573,0,0,0-.547-1.829,2.445,2.445,0,0,0-1.818-.569,2.717,2.717,0,0,0-2.5,1.425V0h-3.951V-14.793ZM-12.079.273a7.262,7.262,0,0,1-5.3-2,7.1,7.1,0,0,1-2.044-5.318v-.383a8.936,8.936,0,0,1,.861-3.985,6.321,6.321,0,0,1,2.44-2.707,6.85,6.85,0,0,1,3.6-.95,6.139,6.139,0,0,1,4.778,1.914A7.778,7.778,0,0,1-6-7.725v1.613h-9.42A3.671,3.671,0,0,0-14.26-3.787a3.492,3.492,0,0,0,2.44.875A4.265,4.265,0,0,0-8.251-4.566L-6.31-2.393A5.931,5.931,0,0,1-8.716-.431,7.9,7.9,0,0,1-12.079.273Zm-.451-12.154a2.469,2.469,0,0,0-1.907.8,4.124,4.124,0,0,0-.937,2.28h5.5v-.316a2.942,2.942,0,0,0-.711-2.039A2.547,2.547,0,0,0-12.53-11.881ZM2.4-2.912a2.591,2.591,0,0,0,1.777-.6,2.108,2.108,0,0,0,.711-1.6H8.593a5.068,5.068,0,0,1-.82,2.755A5.413,5.413,0,0,1,5.564-.417a6.91,6.91,0,0,1-3.1.69,6.422,6.422,0,0,1-5-2.017A7.98,7.98,0,0,1-4.368-7.314v-.26A7.889,7.889,0,0,1-2.55-13.029a6.347,6.347,0,0,1,4.99-2.037,6.222,6.222,0,0,1,4.45,1.579,5.591,5.591,0,0,1,1.7,4.2H4.888a2.715,2.715,0,0,0-.711-1.876,2.37,2.37,0,0,0-1.8-.722A2.38,2.38,0,0,0,.287-10.874a5.833,5.833,0,0,0-.7,3.266V-7.2a5.907,5.907,0,0,0,.7,3.286A2.41,2.41,0,0,0,2.4-2.912ZM15.579-18.43v3.637h2.529v2.9H15.579v7.383a1.763,1.763,0,0,0,.314,1.176,1.579,1.579,0,0,0,1.2.355,6.3,6.3,0,0,0,1.162-.1V-.082a8.134,8.134,0,0,1-2.393.355q-4.156,0-4.238-4.2v-7.971H9.468v-2.9h2.16V-18.43Zm3.705,10.9a8.773,8.773,0,0,1,.848-3.924,6.205,6.205,0,0,1,2.44-2.666,7.12,7.12,0,0,1,3.7-.943,6.736,6.736,0,0,1,4.888,1.832,7.353,7.353,0,0,1,2.112,4.977L33.3-7.246a7.732,7.732,0,0,1-1.9,5.462A6.606,6.606,0,0,1,26.3.273a6.639,6.639,0,0,1-5.106-2.051,7.868,7.868,0,0,1-1.907-5.578Zm3.951.28a5.53,5.53,0,0,0,.793,3.225A2.616,2.616,0,0,0,26.3-2.912a2.622,2.622,0,0,0,2.242-1.1,6.051,6.051,0,0,0,.807-3.526,5.474,5.474,0,0,0-.807-3.2,2.622,2.622,0,0,0-2.27-1.136,2.579,2.579,0,0,0-2.242,1.13A6.153,6.153,0,0,0,23.235-7.253Zm20.809-3.835a10.735,10.735,0,0,0-1.422-.109A2.894,2.894,0,0,0,39.683-9.68V0H35.731V-14.793h3.732l.109,1.764a3.661,3.661,0,0,1,3.295-2.037,4.14,4.14,0,0,1,1.23.178ZM64.415-4.1H57.224L55.856,0H51.5l7.41-19.906h3.8L70.157,0H65.8ZM58.331-7.424h4.977l-2.5-7.451Z" transform="translate(1294.994 7914.942)" fill="#12263f"/>
  </g>
</svg>
