<svg xmlns="http://www.w3.org/2000/svg" width="73.078" height="81.124" viewBox="0 0 73.078 81.124">
  <g id="Grupo_78281" data-name="Grupo 78281" transform="translate(-201 -486)">
    <path id="Trazado_113152" data-name="Trazado 113152" d="M0,0H73.078V81.124L37.025,69.975,0,81.124Z" transform="translate(201 486)" fill="#ffa726"/>
    <path id="Icon_awesome-quote-right" data-name="Icon awesome-quote-right" d="M41.085,0H29.751A4.251,4.251,0,0,0,25.5,4.25V15.584a4.251,4.251,0,0,0,4.25,4.25h7.084V25.5a5.672,5.672,0,0,1-5.667,5.667h-.708a2.12,2.12,0,0,0-2.125,2.125v4.25a2.12,2.12,0,0,0,2.125,2.125h.708A14.163,14.163,0,0,0,45.335,25.5V4.25A4.251,4.251,0,0,0,41.085,0Zm-25.5,0H4.25A4.251,4.251,0,0,0,0,4.25V15.584a4.251,4.251,0,0,0,4.25,4.25h7.084V25.5a5.672,5.672,0,0,1-5.667,5.667H4.959a2.12,2.12,0,0,0-2.125,2.125v4.25a2.12,2.12,0,0,0,2.125,2.125h.708A14.163,14.163,0,0,0,19.834,25.5V4.25A4.251,4.251,0,0,0,15.584,0Z" transform="translate(260.544 546.645) rotate(180)" fill="#fff"/>
  </g>
</svg>
