<svg xmlns="http://www.w3.org/2000/svg" width="164.061" height="74.712" viewBox="0 0 164.061 74.712">
  <g id="Grupo_78447" data-name="Grupo 78447" transform="translate(-1113 -9215)">
    <path id="Trazado_113201" data-name="Trazado 113201" d="M0,0H150.452V43.05A402,402,0,0,0,77.888,54.435c-39.006,9.9-77.888,0-77.888,0Z" transform="translate(1126.609 9215)" fill="#1565c0"/>
    <path id="Trazado_113202" data-name="Trazado 113202" d="M0,0H150.452V43.05A402,402,0,0,0,77.888,54.435c-39.006,9.9-77.888,0-77.888,0Z" transform="translate(1119.804 9221.048)" fill="#039be5"/>
    <path id="Trazado_113203" data-name="Trazado 113203" d="M0,0H150.452V43.05A402,402,0,0,0,77.888,54.435c-39.006,9.9-77.888,0-77.888,0Z" transform="translate(1113 9230.877)" fill="#1565c0"/>
  </g>
</svg>
