<svg xmlns="http://www.w3.org/2000/svg" width="1240" height="964" viewBox="0 0 1240 964">
  <g id="Grupo_79403" data-name="Grupo 79403" transform="translate(-180 -6687.52)">
    <path id="Trazado_113218" data-name="Trazado 113218" d="M0,0Z" transform="translate(612 7389.559) rotate(43)" fill="#1565c0"/>
    <g id="Rectángulo_33856" data-name="Rectángulo 33856" transform="translate(180 6807.52)" fill="none" stroke="#12263f" stroke-width="2">
      <rect width="306" height="844" stroke="none"/>
      <rect x="1" y="1" width="304" height="842" fill="none"/>
    </g>
    <g id="Rectángulo_33857" data-name="Rectángulo 33857" transform="translate(484 6807.52)" fill="none" stroke="#12263f" stroke-width="2">
      <rect width="317" height="844" stroke="none"/>
      <rect x="1" y="1" width="315" height="842" fill="none"/>
    </g>
    <g id="Rectángulo_33858" data-name="Rectángulo 33858" transform="translate(799 6807.52)" fill="none" stroke="#12263f" stroke-width="2">
      <rect width="317" height="844" stroke="none"/>
      <rect x="1" y="1" width="315" height="842" fill="none"/>
    </g>
    <g id="Rectángulo_33859" data-name="Rectángulo 33859" transform="translate(1114 6807.52)" fill="none" stroke="#12263f" stroke-width="2">
      <rect width="306" height="844" stroke="none"/>
      <rect x="1" y="1" width="304" height="842" fill="none"/>
    </g>
    <g id="Grupo_78466" data-name="Grupo 78466" transform="translate(0 496.52)">
      <g id="Rectángulo_33848" data-name="Rectángulo 33848" transform="translate(180 6191)" fill="#4dd0e1" stroke="#12263f" stroke-width="2">
        <rect width="1240" height="42" stroke="none"/>
        <rect x="1" y="1" width="1238" height="40" fill="none"/>
      </g>
      <g id="Rectángulo_33849" data-name="Rectángulo 33849" transform="translate(180 6231)" fill="#4dd0e1" stroke="#12263f" stroke-width="2">
        <rect width="1240" height="42" stroke="none"/>
        <rect x="1" y="1" width="1238" height="40" fill="none"/>
      </g>
      <g id="Rectángulo_33850" data-name="Rectángulo 33850" transform="translate(180 6271)" fill="#4dd0e1" stroke="#12263f" stroke-width="2">
        <rect width="306" height="42" stroke="none"/>
        <rect x="1" y="1" width="304" height="40" fill="none"/>
      </g>
      <g id="Rectángulo_33851" data-name="Rectángulo 33851" transform="translate(484 6271)" fill="#4dd0e1" stroke="#12263f" stroke-width="2">
        <rect width="317" height="42" stroke="none"/>
        <rect x="1" y="1" width="315" height="40" fill="none"/>
      </g>
      <g id="Rectángulo_33852" data-name="Rectángulo 33852" transform="translate(799 6271)" fill="#4dd0e1" stroke="#12263f" stroke-width="2">
        <rect width="317" height="42" stroke="none"/>
        <rect x="1" y="1" width="315" height="40" fill="none"/>
      </g>
      <g id="Rectángulo_33853" data-name="Rectángulo 33853" transform="translate(1114 6271)" fill="#4dd0e1" stroke="#12263f" stroke-width="2">
        <rect width="306" height="42" stroke="none"/>
        <rect x="1" y="1" width="304" height="40" fill="none"/>
      </g>
      <path id="Trazado_116650" data-name="Trazado 116650" d="M178.492,12.016a1.2,1.2,0,0,0-.469-1.02,6.148,6.148,0,0,0-1.687-.75,11.962,11.962,0,0,1-1.93-.777,3.153,3.153,0,0,1-1.937-2.82A2.747,2.747,0,0,1,172.988,5a3.389,3.389,0,0,1,1.492-1.129,5.616,5.616,0,0,1,2.184-.406,5.112,5.112,0,0,1,2.172.441,3.458,3.458,0,0,1,1.48,1.246,3.261,3.261,0,0,1,.527,1.828H178.5a1.534,1.534,0,0,0-.492-1.215,2.023,2.023,0,0,0-1.383-.434,2.162,2.162,0,0,0-1.336.363,1.146,1.146,0,0,0-.477.957,1.1,1.1,0,0,0,.559.93,6.311,6.311,0,0,0,1.645.7,7.106,7.106,0,0,1,2.914,1.492A2.972,2.972,0,0,1,180.844,12a2.737,2.737,0,0,1-1.117,2.316,4.891,4.891,0,0,1-3.008.84,5.808,5.808,0,0,1-2.391-.48,3.783,3.783,0,0,1-1.645-1.316,3.371,3.371,0,0,1-.566-1.937h2.352q0,1.883,2.25,1.883a2.189,2.189,0,0,0,1.3-.34A1.106,1.106,0,0,0,178.492,12.016ZM184.922,15h-2.344V3.625h2.344Zm8.07-2.984a1.2,1.2,0,0,0-.469-1.02,6.148,6.148,0,0,0-1.687-.75,11.962,11.962,0,0,1-1.93-.777,3.153,3.153,0,0,1-1.937-2.82A2.747,2.747,0,0,1,187.488,5a3.389,3.389,0,0,1,1.492-1.129,5.616,5.616,0,0,1,2.184-.406,5.112,5.112,0,0,1,2.172.441,3.458,3.458,0,0,1,1.48,1.246,3.261,3.261,0,0,1,.527,1.828H193a1.534,1.534,0,0,0-.492-1.215,2.023,2.023,0,0,0-1.383-.434,2.162,2.162,0,0,0-1.336.363,1.146,1.146,0,0,0-.477.957,1.1,1.1,0,0,0,.559.93,6.311,6.311,0,0,0,1.645.7,7.106,7.106,0,0,1,2.914,1.492A2.972,2.972,0,0,1,195.344,12a2.737,2.737,0,0,1-1.117,2.316,4.891,4.891,0,0,1-3.008.84,5.808,5.808,0,0,1-2.391-.48,3.783,3.783,0,0,1-1.645-1.316,3.371,3.371,0,0,1-.566-1.937h2.352q0,1.883,2.25,1.883a2.189,2.189,0,0,0,1.3-.34A1.106,1.106,0,0,0,192.992,12.016Zm12.5-6.492h-3.484V15h-2.344V5.523h-3.437v-1.9h9.266Zm8.18,4.531h-4.5v3.063h5.281V15h-7.625V3.625h7.609v1.9h-5.266V8.234h4.5Zm5.219-6.43,2.922,8.25,2.906-8.25H227.8V15h-2.352V11.891l.234-5.367L222.609,15H221l-3.062-8.469.234,5.359V15h-2.344V3.625Zm17.516,9.031H232.3L231.516,15h-2.492l4.234-11.375h2.172L239.688,15H237.2Zm-3.477-1.9h2.844L234.344,6.5ZM244.734,15V3.625h3.5a5.315,5.315,0,0,1,2.684.676,4.712,4.712,0,0,1,1.848,1.922,5.928,5.928,0,0,1,.664,2.832v.523a5.945,5.945,0,0,1-.652,2.82,4.672,4.672,0,0,1-1.84,1.914,5.355,5.355,0,0,1-2.68.688Zm2.344-9.477v7.594h1.133a2.545,2.545,0,0,0,2.1-.9,4.06,4.06,0,0,0,.742-2.57v-.6a4.124,4.124,0,0,0-.719-2.629,2.537,2.537,0,0,0-2.1-.895Zm14.9,4.531h-4.5v3.063h5.281V15h-7.625V3.625h7.609v1.9h-5.266V8.234h4.5Zm15.07,1.156a4.025,4.025,0,0,1-1.355,2.891,4.76,4.76,0,0,1-3.223,1.055,4.28,4.28,0,0,1-3.441-1.473,6.038,6.038,0,0,1-1.254-4.043v-.7a6.819,6.819,0,0,1,.578-2.891A4.332,4.332,0,0,1,270,4.137a5.164,5.164,0,0,1,5.668.387,4.326,4.326,0,0,1,1.391,2.961h-2.344a2.376,2.376,0,0,0-.613-1.6,2.271,2.271,0,0,0-1.605-.5,1.991,1.991,0,0,0-1.754.84,4.707,4.707,0,0,0-.6,2.605V9.7a5.037,5.037,0,0,0,.559,2.7,1.954,1.954,0,0,0,1.762.852,2.314,2.314,0,0,0,1.621-.5,2.241,2.241,0,0,0,.613-1.535ZM287.93,9.57a6.867,6.867,0,0,1-.594,2.945,4.472,4.472,0,0,1-1.7,1.953,5.021,5.021,0,0,1-5.059.008,4.515,4.515,0,0,1-1.719-1.941,6.67,6.67,0,0,1-.617-2.9V9.07a6.831,6.831,0,0,1,.605-2.957,4.508,4.508,0,0,1,1.711-1.961,5.014,5.014,0,0,1,5.055,0,4.508,4.508,0,0,1,1.711,1.961,6.811,6.811,0,0,1,.605,2.949Zm-2.375-.516a4.787,4.787,0,0,0-.641-2.719,2.263,2.263,0,0,0-3.648-.012,4.732,4.732,0,0,0-.648,2.691V9.57a4.847,4.847,0,0,0,.641,2.7,2.243,2.243,0,0,0,3.656.035,4.819,4.819,0,0,0,.641-2.7Zm7.141-5.43,2.922,8.25,2.906-8.25H301.6V15H299.25V11.891l.234-5.367L296.414,15H294.8l-3.062-8.469.234,5.359V15h-2.344V3.625Zm13.3,7.367V15h-2.344V3.625h4.438a5.134,5.134,0,0,1,2.254.469,3.454,3.454,0,0,1,1.5,1.332,3.714,3.714,0,0,1,.523,1.965,3.266,3.266,0,0,1-1.145,2.637,4.767,4.767,0,0,1-3.168.965Zm0-1.9h2.094a2.059,2.059,0,0,0,1.418-.437,1.591,1.591,0,0,0,.488-1.25,1.876,1.876,0,0,0-.492-1.352,1.839,1.839,0,0,0-1.359-.531h-2.148Zm12.188,1.742h-1.867V15h-2.344V3.625H318.2a4.778,4.778,0,0,1,3.109.9A3.1,3.1,0,0,1,322.4,7.063a3.5,3.5,0,0,1-.5,1.941,3.437,3.437,0,0,1-1.527,1.238l2.461,4.648V15h-2.516Zm-1.867-1.9H318.2a1.936,1.936,0,0,0,1.367-.449,1.606,1.606,0,0,0,.484-1.238,1.719,1.719,0,0,0-.457-1.266,1.9,1.9,0,0,0-1.4-.461h-1.883ZM330.6,12.656h-4.109L325.711,15h-2.492l4.234-11.375h2.172L333.883,15h-2.492Zm-3.477-1.9h2.844L328.539,6.5Zm13.719,1.258a1.2,1.2,0,0,0-.469-1.02,6.148,6.148,0,0,0-1.687-.75,11.963,11.963,0,0,1-1.93-.777,3.153,3.153,0,0,1-1.937-2.82A2.747,2.747,0,0,1,335.34,5a3.389,3.389,0,0,1,1.492-1.129,5.616,5.616,0,0,1,2.184-.406,5.112,5.112,0,0,1,2.172.441,3.458,3.458,0,0,1,1.48,1.246,3.261,3.261,0,0,1,.527,1.828h-2.344a1.534,1.534,0,0,0-.492-1.215,2.023,2.023,0,0,0-1.383-.434,2.162,2.162,0,0,0-1.336.363,1.146,1.146,0,0,0-.477.957,1.1,1.1,0,0,0,.559.93,6.311,6.311,0,0,0,1.645.7,7.105,7.105,0,0,1,2.914,1.492A2.972,2.972,0,0,1,343.2,12a2.737,2.737,0,0,1-1.117,2.316,4.891,4.891,0,0,1-3.008.84,5.808,5.808,0,0,1-2.391-.48,3.783,3.783,0,0,1-1.645-1.316,3.371,3.371,0,0,1-.566-1.937h2.352q0,1.883,2.25,1.883a2.189,2.189,0,0,0,1.3-.34A1.106,1.106,0,0,0,340.844,12.016Zm14.766-1.961h-4.5v3.063h5.281V15h-7.625V3.625h7.609v1.9h-5.266V8.234h4.5ZM367.016,15h-2.344l-4.562-7.484V15h-2.344V3.625h2.344l4.57,7.5v-7.5h2.336Zm8.375-1.883h4.977V15h-7.32V3.625h2.344ZM384.2,15h-2.344V3.625H384.2ZM383.477.555h2.461l-2.164,2.422h-1.836ZM395.625,15h-2.344l-4.562-7.484V15h-2.344V3.625h2.344l4.57,7.5v-7.5h2.336Zm8.891-4.945h-4.5v3.063H405.3V15h-7.625V3.625h7.609v1.9h-5.266V8.234h4.5Zm8.578,2.6h-4.109L408.2,15h-2.492l4.234-11.375h2.172L416.375,15h-2.492Zm-3.477-1.9h2.844L411.031,6.5Z" transform="translate(506 6199)" fill="#12263f"/>
      <path id="Trazado_116651" data-name="Trazado 116651" d="M249.66,12.016a1.2,1.2,0,0,0-.469-1.02,6.148,6.148,0,0,0-1.687-.75,11.962,11.962,0,0,1-1.93-.777,3.153,3.153,0,0,1-1.937-2.82A2.747,2.747,0,0,1,244.156,5a3.389,3.389,0,0,1,1.492-1.129,5.616,5.616,0,0,1,2.184-.406A5.112,5.112,0,0,1,250,3.91a3.458,3.458,0,0,1,1.48,1.246,3.261,3.261,0,0,1,.527,1.828h-2.344a1.534,1.534,0,0,0-.492-1.215,2.023,2.023,0,0,0-1.383-.434,2.162,2.162,0,0,0-1.336.363,1.146,1.146,0,0,0-.477.957,1.1,1.1,0,0,0,.559.93,6.311,6.311,0,0,0,1.645.7A7.106,7.106,0,0,1,251.1,9.781,2.972,2.972,0,0,1,252.012,12a2.737,2.737,0,0,1-1.117,2.316,4.891,4.891,0,0,1-3.008.84,5.808,5.808,0,0,1-2.391-.48,3.783,3.783,0,0,1-1.645-1.316,3.371,3.371,0,0,1-.566-1.937h2.352q0,1.883,2.25,1.883a2.189,2.189,0,0,0,1.3-.34A1.106,1.106,0,0,0,249.66,12.016Zm12.547-8.391v7.492a3.836,3.836,0,0,1-1.168,2.953,4.5,4.5,0,0,1-3.191,1.086,4.553,4.553,0,0,1-3.164-1.055,3.77,3.77,0,0,1-1.2-2.9V3.625h2.344v7.508a2.167,2.167,0,0,0,.535,1.629,2.054,2.054,0,0,0,1.48.512q1.977,0,2.008-2.078V3.625ZM264.129,15V3.625h3.984a5.232,5.232,0,0,1,3.141.793,2.712,2.712,0,0,1,1.07,2.324,2.57,2.57,0,0,1-.43,1.473,2.482,2.482,0,0,1-1.2.934,2.4,2.4,0,0,1,1.379.883,2.61,2.61,0,0,1,.5,1.625,3,3,0,0,1-1.047,2.484,4.713,4.713,0,0,1-2.984.859Zm2.344-4.953v3.07h2.008a1.938,1.938,0,0,0,1.293-.395,1.353,1.353,0,0,0,.465-1.09,1.428,1.428,0,0,0-1.617-1.586Zm0-1.656h1.734q1.773-.031,1.773-1.414a1.307,1.307,0,0,0-.449-1.113,2.363,2.363,0,0,0-1.418-.34h-1.641Zm10.211,2.6V15H274.34V3.625h4.438a5.134,5.134,0,0,1,2.254.469,3.454,3.454,0,0,1,1.5,1.332,3.714,3.714,0,0,1,.523,1.965,3.266,3.266,0,0,1-1.145,2.637,4.767,4.767,0,0,1-3.168.965Zm0-1.9h2.094a2.059,2.059,0,0,0,1.418-.437,1.591,1.591,0,0,0,.488-1.25,1.876,1.876,0,0,0-.492-1.352,1.839,1.839,0,0,0-1.359-.531h-2.148Zm12.188,1.742H287V15H284.66V3.625h4.227a4.778,4.778,0,0,1,3.109.9,3.1,3.1,0,0,1,1.094,2.539,3.5,3.5,0,0,1-.5,1.941,3.437,3.437,0,0,1-1.527,1.238l2.461,4.648V15H291ZM287,8.938h1.891a1.936,1.936,0,0,0,1.367-.449,1.606,1.606,0,0,0,.484-1.238,1.719,1.719,0,0,0-.457-1.266,1.9,1.9,0,0,0-1.4-.461H287Zm17.211.633a6.867,6.867,0,0,1-.594,2.945,4.472,4.472,0,0,1-1.7,1.953,5.021,5.021,0,0,1-5.059.008,4.515,4.515,0,0,1-1.719-1.941,6.67,6.67,0,0,1-.617-2.9V9.07a6.831,6.831,0,0,1,.605-2.957,4.508,4.508,0,0,1,1.711-1.961,5.014,5.014,0,0,1,5.055,0,4.508,4.508,0,0,1,1.711,1.961,6.811,6.811,0,0,1,.605,2.949Zm-2.375-.516a4.787,4.787,0,0,0-.641-2.719,2.263,2.263,0,0,0-3.648-.012,4.732,4.732,0,0,0-.648,2.691V9.57a4.847,4.847,0,0,0,.641,2.7,2.243,2.243,0,0,0,3.656.035,4.819,4.819,0,0,0,.641-2.7Zm13.008,2.156a4.025,4.025,0,0,1-1.355,2.891,4.76,4.76,0,0,1-3.223,1.055,4.28,4.28,0,0,1-3.441-1.473,6.038,6.038,0,0,1-1.254-4.043v-.7a6.819,6.819,0,0,1,.578-2.891A4.332,4.332,0,0,1,307.8,4.137a5.164,5.164,0,0,1,5.668.387,4.326,4.326,0,0,1,1.391,2.961H312.52a2.376,2.376,0,0,0-.613-1.6,2.271,2.271,0,0,0-1.605-.5,1.991,1.991,0,0,0-1.754.84,4.707,4.707,0,0,0-.6,2.605V9.7a5.037,5.037,0,0,0,.559,2.7,1.954,1.954,0,0,0,1.762.852,2.314,2.314,0,0,0,1.621-.5,2.241,2.241,0,0,0,.613-1.535Zm8.383-1.156h-4.5v3.063h5.281V15h-7.625V3.625H324v1.9H318.73V8.234h4.5Zm8.055,1.961a1.2,1.2,0,0,0-.469-1.02,6.148,6.148,0,0,0-1.687-.75,11.963,11.963,0,0,1-1.93-.777,3.153,3.153,0,0,1-1.937-2.82A2.747,2.747,0,0,1,325.781,5a3.389,3.389,0,0,1,1.492-1.129,5.616,5.616,0,0,1,2.184-.406,5.112,5.112,0,0,1,2.172.441,3.458,3.458,0,0,1,1.48,1.246,3.261,3.261,0,0,1,.527,1.828h-2.344A1.534,1.534,0,0,0,330.8,5.77a2.023,2.023,0,0,0-1.383-.434,2.162,2.162,0,0,0-1.336.363,1.146,1.146,0,0,0-.477.957,1.1,1.1,0,0,0,.559.93,6.311,6.311,0,0,0,1.645.7,7.105,7.105,0,0,1,2.914,1.492A2.972,2.972,0,0,1,333.637,12a2.737,2.737,0,0,1-1.117,2.316,4.891,4.891,0,0,1-3.008.84,5.808,5.808,0,0,1-2.391-.48,3.783,3.783,0,0,1-1.645-1.316,3.371,3.371,0,0,1-.566-1.937h2.352q0,1.883,2.25,1.883a2.189,2.189,0,0,0,1.3-.34A1.106,1.106,0,0,0,331.285,12.016ZM344.566,9.57a6.867,6.867,0,0,1-.594,2.945,4.472,4.472,0,0,1-1.7,1.953,5.021,5.021,0,0,1-5.059.008,4.515,4.515,0,0,1-1.719-1.941,6.67,6.67,0,0,1-.617-2.9V9.07a6.831,6.831,0,0,1,.605-2.957A4.508,4.508,0,0,1,337.2,4.152a5.014,5.014,0,0,1,5.055,0,4.508,4.508,0,0,1,1.711,1.961,6.811,6.811,0,0,1,.605,2.949Zm-2.375-.516a4.787,4.787,0,0,0-.641-2.719,2.263,2.263,0,0,0-3.648-.012,4.732,4.732,0,0,0-.648,2.691V9.57a4.847,4.847,0,0,0,.641,2.7,2.243,2.243,0,0,0,3.656.035,4.819,4.819,0,0,0,.641-2.7Z" transform="translate(506 6241)" fill="#12263f"/>
      <path id="Trazado_116652" data-name="Trazado 116652" d="M17.875,12.016A1.2,1.2,0,0,0,17.406,11a6.148,6.148,0,0,0-1.687-.75,11.963,11.963,0,0,1-1.93-.777,3.153,3.153,0,0,1-1.937-2.82A2.747,2.747,0,0,1,12.371,5a3.389,3.389,0,0,1,1.492-1.129,5.616,5.616,0,0,1,2.184-.406,5.112,5.112,0,0,1,2.172.441A3.458,3.458,0,0,1,19.7,5.156a3.261,3.261,0,0,1,.527,1.828H17.883a1.534,1.534,0,0,0-.492-1.215,2.023,2.023,0,0,0-1.383-.434,2.162,2.162,0,0,0-1.336.363,1.146,1.146,0,0,0-.477.957,1.1,1.1,0,0,0,.559.93,6.311,6.311,0,0,0,1.645.7,7.106,7.106,0,0,1,2.914,1.492A2.972,2.972,0,0,1,20.227,12a2.737,2.737,0,0,1-1.117,2.316,4.891,4.891,0,0,1-3.008.84,5.808,5.808,0,0,1-2.391-.48,3.783,3.783,0,0,1-1.645-1.316,3.371,3.371,0,0,1-.566-1.937h2.352q0,1.883,2.25,1.883a2.189,2.189,0,0,0,1.3-.34A1.106,1.106,0,0,0,17.875,12.016ZM31.156,9.57a6.867,6.867,0,0,1-.594,2.945,4.472,4.472,0,0,1-1.7,1.953,5.021,5.021,0,0,1-5.059.008,4.515,4.515,0,0,1-1.719-1.941,6.67,6.67,0,0,1-.617-2.9V9.07a6.831,6.831,0,0,1,.605-2.957,4.508,4.508,0,0,1,1.711-1.961,5.014,5.014,0,0,1,5.055,0,4.508,4.508,0,0,1,1.711,1.961,6.811,6.811,0,0,1,.605,2.949Zm-2.375-.516a4.787,4.787,0,0,0-.641-2.719,2.263,2.263,0,0,0-3.648-.012,4.732,4.732,0,0,0-.648,2.691V9.57a4.847,4.847,0,0,0,.641,2.7,2.243,2.243,0,0,0,3.656.035,4.819,4.819,0,0,0,.641-2.7ZM35.2,13.117H40.18V15h-7.32V3.625H35.2ZM44.016,15H41.672V3.625h2.344Zm11.1-3.789A4.025,4.025,0,0,1,53.762,14.1a4.76,4.76,0,0,1-3.223,1.055A4.281,4.281,0,0,1,47.1,13.684a6.038,6.038,0,0,1-1.254-4.043v-.7a6.819,6.819,0,0,1,.578-2.891,4.332,4.332,0,0,1,1.652-1.918,5.164,5.164,0,0,1,5.668.387,4.326,4.326,0,0,1,1.391,2.961H52.789a2.376,2.376,0,0,0-.613-1.6,2.271,2.271,0,0,0-1.605-.5,1.991,1.991,0,0,0-1.754.84,4.707,4.707,0,0,0-.6,2.605V9.7a5.038,5.038,0,0,0,.559,2.7,1.954,1.954,0,0,0,1.762.852,2.314,2.314,0,0,0,1.621-.5,2.241,2.241,0,0,0,.613-1.535ZM59.148,15H56.8V3.625h2.344ZM69.656,5.523H66.172V15H63.828V5.523H60.391v-1.9h9.266Zm9.945-1.9v7.492a3.836,3.836,0,0,1-1.168,2.953,4.5,4.5,0,0,1-3.191,1.086A4.553,4.553,0,0,1,72.078,14.1a3.77,3.77,0,0,1-1.2-2.9V3.625h2.344v7.508a2.167,2.167,0,0,0,.535,1.629,2.054,2.054,0,0,0,1.48.512q1.977,0,2.008-2.078V3.625ZM81.523,15V3.625h3.5a5.315,5.315,0,0,1,2.684.676,4.712,4.712,0,0,1,1.848,1.922,5.928,5.928,0,0,1,.664,2.832v.523a5.945,5.945,0,0,1-.652,2.82,4.672,4.672,0,0,1-1.84,1.914,5.355,5.355,0,0,1-2.68.688Zm2.344-9.477v7.594H85a2.545,2.545,0,0,0,2.1-.9,4.06,4.06,0,0,0,.742-2.57v-.6a4.124,4.124,0,0,0-.719-2.629,2.537,2.537,0,0,0-2.1-.895ZM95.906,15V3.625h3.5a5.315,5.315,0,0,1,2.684.676,4.712,4.712,0,0,1,1.848,1.922,5.928,5.928,0,0,1,.664,2.832v.523a5.945,5.945,0,0,1-.652,2.82,4.672,4.672,0,0,1-1.84,1.914A5.355,5.355,0,0,1,99.43,15ZM98.25,5.523v7.594h1.133a2.545,2.545,0,0,0,2.1-.9,4.06,4.06,0,0,0,.742-2.57v-.6a4.124,4.124,0,0,0-.719-2.629,2.537,2.537,0,0,0-2.1-.895Zm14.9,4.531h-4.5v3.063h5.281V15H106.3V3.625h7.609v1.9h-5.266V8.234h4.5Zm15.07,1.156a4.025,4.025,0,0,1-1.355,2.891,4.76,4.76,0,0,1-3.223,1.055,4.28,4.28,0,0,1-3.441-1.473,6.038,6.038,0,0,1-1.254-4.043v-.7a6.819,6.819,0,0,1,.578-2.891,4.332,4.332,0,0,1,1.652-1.918,5.164,5.164,0,0,1,5.668.387,4.326,4.326,0,0,1,1.391,2.961h-2.344a2.376,2.376,0,0,0-.613-1.6,2.271,2.271,0,0,0-1.605-.5,1.991,1.991,0,0,0-1.754.84,4.707,4.707,0,0,0-.6,2.605V9.7a5.038,5.038,0,0,0,.559,2.7,1.954,1.954,0,0,0,1.762.852,2.314,2.314,0,0,0,1.621-.5,2.241,2.241,0,0,0,.613-1.535Zm3.883,1.906h4.977V15h-7.32V3.625H132.1ZM140.914,15H138.57V3.625h2.344Zm9.016-4.945h-4.5v3.063h5.281V15h-7.625V3.625H150.7v1.9H145.43V8.234h4.5ZM161.336,15h-2.344L154.43,7.516V15h-2.344V3.625h2.344l4.57,7.5v-7.5h2.336Zm10.383-9.477h-3.484V15h-2.344V5.523h-3.437v-1.9h9.266Zm8.18,4.531h-4.5v3.063h5.281V15h-7.625V3.625h7.609v1.9H175.4V8.234h4.5Z" transform="translate(237 6283)" fill="#12263f"/>
      <path id="Trazado_116653" data-name="Trazado 116653" d="M48.961,12.656H44.852L44.07,15H41.578L45.813,3.625h2.172L52.242,15H49.75Zm-3.477-1.9h2.844L46.9,6.5Zm10.164,2.359h4.977V15H53.3V3.625h2.344Zm9.383-9.492,2.922,8.25,2.906-8.25h3.078V15H71.586V11.891l.234-5.367L68.75,15H67.141L64.078,6.531l.234,5.359V15H61.969V3.625Zm17.516,9.031H78.438L77.656,15H75.164L79.4,3.625H81.57L85.828,15H83.336Zm-3.477-1.9h2.844L80.484,6.5Zm16.586.453A4.025,4.025,0,0,1,94.3,14.1a4.76,4.76,0,0,1-3.223,1.055,4.28,4.28,0,0,1-3.441-1.473,6.038,6.038,0,0,1-1.254-4.043v-.7a6.819,6.819,0,0,1,.578-2.891,4.332,4.332,0,0,1,1.652-1.918,5.164,5.164,0,0,1,5.668.387,4.326,4.326,0,0,1,1.391,2.961H93.328a2.376,2.376,0,0,0-.613-1.6,2.271,2.271,0,0,0-1.605-.5,1.991,1.991,0,0,0-1.754.84,4.707,4.707,0,0,0-.6,2.605V9.7a5.038,5.038,0,0,0,.559,2.7,1.954,1.954,0,0,0,1.762.852,2.314,2.314,0,0,0,1.621-.5,2.241,2.241,0,0,0,.613-1.535Zm8.383-1.156h-4.5v3.063h5.281V15H97.2V3.625H104.8v1.9H99.539V8.234h4.5Zm-2.445-9.5h2.461l-2.164,2.422h-1.836ZM115.445,15H113.1l-4.562-7.484V15H106.2V3.625h2.344l4.57,7.5v-7.5h2.336Z" transform="translate(565 6283)" fill="#12263f"/>
      <path id="Trazado_116654" data-name="Trazado 116654" d="M56.676,10.352h-4.5V15H49.832V3.625h7.406v1.9H52.176V8.461h4.5Zm6.844,2.3H59.41L58.629,15H56.137L60.371,3.625h2.172L66.8,15H64.309Zm-3.477-1.9h2.844L61.457,6.5Zm1.9-10.18H64.4L62.238,3H60.4ZM67.863,15V3.625h3.984a5.232,5.232,0,0,1,3.141.793,2.712,2.712,0,0,1,1.07,2.324,2.57,2.57,0,0,1-.43,1.473,2.482,2.482,0,0,1-1.2.934,2.4,2.4,0,0,1,1.379.883,2.61,2.61,0,0,1,.5,1.625,3,3,0,0,1-1.047,2.484A4.713,4.713,0,0,1,72.285,15Zm2.344-4.953v3.07h2.008a1.938,1.938,0,0,0,1.293-.395,1.353,1.353,0,0,0,.465-1.09,1.428,1.428,0,0,0-1.617-1.586Zm0-1.656h1.734q1.773-.031,1.773-1.414a1.307,1.307,0,0,0-.449-1.113,2.363,2.363,0,0,0-1.418-.34H70.207Zm12.078,2.445H80.418V15H78.074V3.625H82.3a4.778,4.778,0,0,1,3.109.9A3.1,3.1,0,0,1,86.5,7.063,3.5,3.5,0,0,1,86,9a3.437,3.437,0,0,1-1.527,1.238l2.461,4.648V15H84.418Zm-1.867-1.9h1.891a1.936,1.936,0,0,0,1.367-.449A1.606,1.606,0,0,0,84.16,7.25,1.719,1.719,0,0,0,83.7,5.984a1.9,1.9,0,0,0-1.4-.461H80.418ZM90.777,15H88.434V3.625h2.344Zm11.1-3.789a4.025,4.025,0,0,1-1.355,2.891A4.76,4.76,0,0,1,97.3,15.156a4.28,4.28,0,0,1-3.441-1.473,6.038,6.038,0,0,1-1.254-4.043v-.7a6.819,6.819,0,0,1,.578-2.891,4.332,4.332,0,0,1,1.652-1.918,5.164,5.164,0,0,1,5.668.387,4.326,4.326,0,0,1,1.391,2.961H99.551a2.376,2.376,0,0,0-.613-1.6,2.271,2.271,0,0,0-1.605-.5,1.991,1.991,0,0,0-1.754.84,4.707,4.707,0,0,0-.6,2.605V9.7a5.038,5.038,0,0,0,.559,2.7,1.954,1.954,0,0,0,1.762.852,2.314,2.314,0,0,0,1.621-.5,2.241,2.241,0,0,0,.613-1.535Zm7.961,1.445H105.73L104.949,15h-2.492l4.234-11.375h2.172L113.121,15h-2.492Zm-3.477-1.9h2.844L107.777,6.5Z" transform="translate(878 6283)" fill="#12263f"/>
      <path id="Trazado_116655" data-name="Trazado 116655" d="M32.988,11.211A4.025,4.025,0,0,1,31.633,14.1a4.76,4.76,0,0,1-3.223,1.055,4.28,4.28,0,0,1-3.441-1.473,6.038,6.038,0,0,1-1.254-4.043v-.7a6.819,6.819,0,0,1,.578-2.891,4.332,4.332,0,0,1,1.652-1.918,4.629,4.629,0,0,1,2.5-.668,4.637,4.637,0,0,1,3.172,1.055A4.326,4.326,0,0,1,33,7.484H30.66a2.376,2.376,0,0,0-.613-1.6,2.271,2.271,0,0,0-1.605-.5,1.991,1.991,0,0,0-1.754.84,4.707,4.707,0,0,0-.6,2.605V9.7a5.038,5.038,0,0,0,.559,2.7,1.954,1.954,0,0,0,1.762.852,2.314,2.314,0,0,0,1.621-.5,2.241,2.241,0,0,0,.613-1.535ZM43.871,9.57a6.867,6.867,0,0,1-.594,2.945,4.472,4.472,0,0,1-1.7,1.953,5.021,5.021,0,0,1-5.059.008A4.515,4.515,0,0,1,34.8,12.535a6.67,6.67,0,0,1-.617-2.9V9.07a6.831,6.831,0,0,1,.605-2.957A4.508,4.508,0,0,1,36.5,4.152a5.014,5.014,0,0,1,5.055,0,4.508,4.508,0,0,1,1.711,1.961,6.811,6.811,0,0,1,.605,2.949ZM41.5,9.055a4.787,4.787,0,0,0-.641-2.719,2.263,2.263,0,0,0-3.648-.012,4.732,4.732,0,0,0-.648,2.691V9.57a4.847,4.847,0,0,0,.641,2.7,2.243,2.243,0,0,0,3.656.035,4.819,4.819,0,0,0,.641-2.7ZM54.824,15H52.48L47.918,7.516V15H45.574V3.625h2.344l4.57,7.5v-7.5h2.336ZM65.207,5.523H61.723V15H59.379V5.523H55.941v-1.9h9.266Zm6.82,7.133H67.918L67.137,15H64.645L68.879,3.625h2.172L75.309,15H72.816Zm-3.477-1.9h2.844L69.965,6.5ZM76.371,15V3.625h3.984a5.232,5.232,0,0,1,3.141.793,2.712,2.712,0,0,1,1.07,2.324,2.57,2.57,0,0,1-.43,1.473,2.482,2.482,0,0,1-1.2.934,2.4,2.4,0,0,1,1.379.883,2.61,2.61,0,0,1,.5,1.625,3,3,0,0,1-1.047,2.484A4.713,4.713,0,0,1,80.793,15Zm2.344-4.953v3.07h2.008a1.938,1.938,0,0,0,1.293-.395,1.353,1.353,0,0,0,.465-1.09,1.428,1.428,0,0,0-1.617-1.586Zm0-1.656h1.734q1.773-.031,1.773-1.414a1.307,1.307,0,0,0-.449-1.113,2.363,2.363,0,0,0-1.418-.34H78.715ZM89.074,15H86.73V3.625h2.344Zm4.516-1.883h4.977V15h-7.32V3.625H93.59ZM102.4,15h-2.344V3.625H102.4Zm2.172,0V3.625h3.5a5.315,5.315,0,0,1,2.684.676,4.712,4.712,0,0,1,1.848,1.922,5.928,5.928,0,0,1,.664,2.832v.523a5.945,5.945,0,0,1-.652,2.82,4.672,4.672,0,0,1-1.84,1.914A5.355,5.355,0,0,1,108.1,15Zm2.344-9.477v7.594h1.133a2.545,2.545,0,0,0,2.1-.9,4.06,4.06,0,0,0,.742-2.57v-.6a4.124,4.124,0,0,0-.719-2.629,2.537,2.537,0,0,0-2.1-.895Zm14.313,7.133h-4.109L116.34,15h-2.492l4.234-11.375h2.172L124.512,15H122.02Zm-3.477-1.9H120.6L119.168,6.5ZM125.574,15V3.625h3.5a5.315,5.315,0,0,1,2.684.676,4.712,4.712,0,0,1,1.848,1.922,5.928,5.928,0,0,1,.664,2.832v.523a5.945,5.945,0,0,1-.652,2.82,4.672,4.672,0,0,1-1.84,1.914A5.355,5.355,0,0,1,129.1,15Zm2.344-9.477v7.594h1.133a2.545,2.545,0,0,0,2.1-.9,4.06,4.06,0,0,0,.742-2.57v-.6a4.124,4.124,0,0,0-.719-2.629,2.537,2.537,0,0,0-2.1-.895Z" transform="translate(1194 6283)" fill="#12263f"/>
      <rect id="Rectángulo_33837" data-name="Rectángulo 33837" width="125" height="63" transform="translate(265 6441.58)" fill="#1565c0"/>
      <rect id="Rectángulo_33855" data-name="Rectángulo 33855" width="125" height="63" transform="translate(549 6441.58)" fill="#1565c0"/>
      <rect id="Rectángulo_33860" data-name="Rectángulo 33860" width="108" height="63" transform="translate(558 6702.58)" fill="#1565c0"/>
      <rect id="Rectángulo_33861" data-name="Rectángulo 33861" width="108" height="63" transform="translate(558 6825.58)" fill="#1565c0"/>
      <rect id="Rectángulo_33864" data-name="Rectángulo 33864" width="108" height="63" transform="translate(904 6554.633)" fill="#1565c0"/>
      <rect id="Rectángulo_33862" data-name="Rectángulo 33862" width="108" height="63" transform="translate(292 6944.08)" fill="#1565c0"/>
      <path id="Trazado_113214" data-name="Trazado 113214" d="M0,0Z" transform="translate(612 6586.633) rotate(43)" fill="#1565c0"/>
      <path id="Trazado_113217" data-name="Trazado 113217" d="M0,0Z" transform="translate(612 6734.58) rotate(43)" fill="#1565c0"/>
      <path id="Trazado_113221" data-name="Trazado 113221" d="M0,0Z" transform="translate(958 6586.633) rotate(43)" fill="#1565c0"/>
      <path id="Trazado_113220" data-name="Trazado 113220" d="M0,0Z" transform="translate(346 6976.08) rotate(43)" fill="#1565c0"/>
      <path id="Trazado_116664" data-name="Trazado 116664" d="M-1.02,0H-3.656L-8.789-8.42V0h-2.637V-12.8h2.637l5.142,8.438V-12.8H-1.02ZM11.795-6.108a7.725,7.725,0,0,1-.668,3.313A5.03,5.03,0,0,1,9.215-.6,5.288,5.288,0,0,1,6.363.176,5.324,5.324,0,0,1,3.524-.589,5.08,5.08,0,0,1,1.591-2.773,7.5,7.5,0,0,1,.9-6.038v-.633A7.685,7.685,0,0,1,1.578-10,5.072,5.072,0,0,1,3.5-12.2a5.3,5.3,0,0,1,2.843-.769,5.3,5.3,0,0,1,2.843.769A5.072,5.072,0,0,1,11.114-10a7.663,7.663,0,0,1,.681,3.318Zm-2.672-.58A5.385,5.385,0,0,0,8.4-9.747a2.349,2.349,0,0,0-2.057-1.046A2.349,2.349,0,0,0,4.3-9.76a5.324,5.324,0,0,0-.729,3.028v.624a5.453,5.453,0,0,0,.721,3.041A2.342,2.342,0,0,0,6.363-1.986,2.321,2.321,0,0,0,8.4-3.028a5.421,5.421,0,0,0,.721-3.037Z" transform="translate(435.297 6814.476)" fill="#12263f"/>
      <path id="Trazado_116660" data-name="Trazado 116660" d="M-1.02,0H-3.656L-8.789-8.42V0h-2.637V-12.8h2.637l5.142,8.438V-12.8H-1.02ZM11.795-6.108a7.725,7.725,0,0,1-.668,3.313A5.03,5.03,0,0,1,9.215-.6,5.288,5.288,0,0,1,6.363.176,5.324,5.324,0,0,1,3.524-.589,5.08,5.08,0,0,1,1.591-2.773,7.5,7.5,0,0,1,.9-6.038v-.633A7.685,7.685,0,0,1,1.578-10,5.072,5.072,0,0,1,3.5-12.2a5.3,5.3,0,0,1,2.843-.769,5.3,5.3,0,0,1,2.843.769A5.072,5.072,0,0,1,11.114-10a7.663,7.663,0,0,1,.681,3.318Zm-2.672-.58A5.385,5.385,0,0,0,8.4-9.747a2.349,2.349,0,0,0-2.057-1.046A2.349,2.349,0,0,0,4.3-9.76a5.324,5.324,0,0,0-.729,3.028v.624a5.453,5.453,0,0,0,.721,3.041A2.342,2.342,0,0,0,6.363-1.986,2.321,2.321,0,0,0,8.4-3.028a5.421,5.421,0,0,0,.721-3.037Z" transform="translate(746.296 6570.133)" fill="#12263f"/>
      <path id="Trazado_116662" data-name="Trazado 116662" d="M-.378-3.357A1.353,1.353,0,0,0-.905-4.5a6.917,6.917,0,0,0-1.9-.844,13.458,13.458,0,0,1-2.171-.875A3.547,3.547,0,0,1-7.154-9.4a3.09,3.09,0,0,1,.584-1.85,3.812,3.812,0,0,1,1.679-1.27,6.318,6.318,0,0,1,2.457-.457,5.751,5.751,0,0,1,2.443.5,3.891,3.891,0,0,1,1.666,1.4,3.668,3.668,0,0,1,.593,2.057H-.369a1.726,1.726,0,0,0-.554-1.367,2.276,2.276,0,0,0-1.556-.488,2.432,2.432,0,0,0-1.5.409,1.289,1.289,0,0,0-.536,1.077,1.235,1.235,0,0,0,.628,1.046,7.1,7.1,0,0,0,1.85.791A7.994,7.994,0,0,1,1.239-5.871a3.343,3.343,0,0,1,1.028,2.5A3.08,3.08,0,0,1,1.011-.769,5.5,5.5,0,0,1-2.373.176,6.534,6.534,0,0,1-5.062-.365a4.256,4.256,0,0,1-1.85-1.481,3.793,3.793,0,0,1-.637-2.18H-4.9q0,2.118,2.531,2.118A2.462,2.462,0,0,0-.905-2.29,1.244,1.244,0,0,0-.378-3.357ZM6.855,0H4.219V-12.8H6.855Z" transform="translate(637 6670.58)" fill="#12263f"/>
      <path id="Trazado_116666" data-name="Trazado 116666" d="M-.378-3.357A1.353,1.353,0,0,0-.905-4.5a6.917,6.917,0,0,0-1.9-.844,13.458,13.458,0,0,1-2.171-.875A3.547,3.547,0,0,1-7.154-9.4a3.09,3.09,0,0,1,.584-1.85,3.812,3.812,0,0,1,1.679-1.27,6.318,6.318,0,0,1,2.457-.457,5.751,5.751,0,0,1,2.443.5,3.891,3.891,0,0,1,1.666,1.4,3.668,3.668,0,0,1,.593,2.057H-.369a1.726,1.726,0,0,0-.554-1.367,2.276,2.276,0,0,0-1.556-.488,2.432,2.432,0,0,0-1.5.409,1.289,1.289,0,0,0-.536,1.077,1.235,1.235,0,0,0,.628,1.046,7.1,7.1,0,0,0,1.85.791A7.994,7.994,0,0,1,1.239-5.871a3.343,3.343,0,0,1,1.028,2.5A3.08,3.08,0,0,1,1.011-.769,5.5,5.5,0,0,1-2.373.176,6.534,6.534,0,0,1-5.062-.365a4.256,4.256,0,0,1-1.85-1.481,3.793,3.793,0,0,1-.637-2.18H-4.9q0,2.118,2.531,2.118A2.462,2.462,0,0,0-.905-2.29,1.244,1.244,0,0,0-.378-3.357ZM6.855,0H4.219V-12.8H6.855Z" transform="translate(373 6923.08)" fill="#12263f"/>
      <path id="Trazado_116657" data-name="Trazado 116657" d="M-17.464-1.679A3.9,3.9,0,0,1-19.279-.286,7.331,7.331,0,0,1-21.99.176a5.258,5.258,0,0,1-2.777-.734,4.889,4.889,0,0,1-1.876-2.087,7.21,7.21,0,0,1-.681-3.138V-6.9a6.73,6.73,0,0,1,1.349-4.482,4.7,4.7,0,0,1,3.792-1.591,4.856,4.856,0,0,1,3.226,1.024,4.461,4.461,0,0,1,1.494,2.9h-1.687a2.79,2.79,0,0,0-3.023-2.549A2.987,2.987,0,0,0-24.746-10.4a5.82,5.82,0,0,0-.883,3.453V-5.9a5.454,5.454,0,0,0,.984,3.426A3.191,3.191,0,0,0-21.981-1.2a5.882,5.882,0,0,0,1.661-.21,2.569,2.569,0,0,0,1.178-.71V-4.992H-22.1v-1.38h4.641Zm6.5,1.854a4.155,4.155,0,0,1-3.146-1.27,4.714,4.714,0,0,1-1.213-3.4v-.3a5.707,5.707,0,0,1,.541-2.527,4.217,4.217,0,0,1,1.512-1.74,3.8,3.8,0,0,1,2.1-.628A3.562,3.562,0,0,1-8.279-8.464a5.289,5.289,0,0,1,1.028,3.5v.677h-6.442a3.38,3.38,0,0,0,.822,2.272,2.583,2.583,0,0,0,2,.866A2.832,2.832,0,0,0-9.413-1.5a3.666,3.666,0,0,0,1.046-.932l.993.773A3.993,3.993,0,0,1-10.96.176Zm-.2-8.525a2.169,2.169,0,0,0-1.652.716,3.482,3.482,0,0,0-.826,2.008h4.764v-.123a3.1,3.1,0,0,0-.668-1.92A2.042,2.042,0,0,0-11.162-8.35Zm7.33-1.16.053,1.2A3.465,3.465,0,0,1-.932-9.686q3.015,0,3.041,3.4V0H.483V-6.293a2.189,2.189,0,0,0-.47-1.521,1.884,1.884,0,0,0-1.437-.492,2.347,2.347,0,0,0-1.389.422,2.865,2.865,0,0,0-.932,1.107V0H-5.37V-9.51ZM8.508.176a4.155,4.155,0,0,1-3.146-1.27,4.714,4.714,0,0,1-1.213-3.4v-.3a5.707,5.707,0,0,1,.541-2.527A4.217,4.217,0,0,1,6.2-9.057a3.8,3.8,0,0,1,2.1-.628,3.562,3.562,0,0,1,2.883,1.222,5.289,5.289,0,0,1,1.028,3.5v.677H5.774A3.38,3.38,0,0,0,6.6-2.017a2.583,2.583,0,0,0,2,.866A2.832,2.832,0,0,0,10.055-1.5,3.666,3.666,0,0,0,11.1-2.435l.993.773A3.993,3.993,0,0,1,8.508.176Zm-.2-8.525a2.169,2.169,0,0,0-1.652.716,3.482,3.482,0,0,0-.826,2.008h4.764v-.123a3.1,3.1,0,0,0-.668-1.92A2.042,2.042,0,0,0,8.306-8.35Zm10.389.3a4.873,4.873,0,0,0-.8-.062A2.143,2.143,0,0,0,15.724-6.75V0H14.1V-9.51H15.68l.026,1.1a2.532,2.532,0,0,1,2.268-1.274,1.661,1.661,0,0,1,.721.123ZM25.708,0a3.416,3.416,0,0,1-.229-1A3.628,3.628,0,0,1,22.772.176a3.357,3.357,0,0,1-2.307-.8,2.573,2.573,0,0,1-.9-2.017,2.688,2.688,0,0,1,1.129-2.307,5.325,5.325,0,0,1,3.177-.822h1.582v-.747a1.826,1.826,0,0,0-.51-1.358,2.049,2.049,0,0,0-1.5-.505,2.371,2.371,0,0,0-1.459.439,1.3,1.3,0,0,0-.589,1.063H19.758a2.244,2.244,0,0,1,.505-1.375A3.449,3.449,0,0,1,21.634-9.3a4.613,4.613,0,0,1,1.9-.387,3.759,3.759,0,0,1,2.575.822A2.964,2.964,0,0,1,27.079-6.6v4.377a5.351,5.351,0,0,0,.334,2.083V0Zm-2.7-1.239a2.858,2.858,0,0,0,1.45-.4,2.392,2.392,0,0,0,.993-1.028V-4.614H24.179q-2.988,0-2.988,1.749a1.48,1.48,0,0,0,.51,1.2A1.959,1.959,0,0,0,23.01-1.239ZM-27.246,22.478a1.2,1.2,0,0,0-.5-1.024,4.78,4.78,0,0,0-1.731-.628,8.186,8.186,0,0,1-1.96-.633,2.788,2.788,0,0,1-1.072-.879,2.1,2.1,0,0,1-.347-1.213,2.467,2.467,0,0,1,.989-1.978,3.861,3.861,0,0,1,2.527-.809,3.974,3.974,0,0,1,2.624.835,2.652,2.652,0,0,1,1.006,2.136h-1.635a1.468,1.468,0,0,0-.567-1.151,2.124,2.124,0,0,0-1.428-.483,2.223,2.223,0,0,0-1.389.387,1.217,1.217,0,0,0-.5,1.011.986.986,0,0,0,.466.888,5.731,5.731,0,0,0,1.683.571,8.77,8.77,0,0,1,1.973.65,2.878,2.878,0,0,1,1.121.91,2.237,2.237,0,0,1,.365,1.3,2.434,2.434,0,0,1-1.02,2.043,4.277,4.277,0,0,1-2.646.769,4.789,4.789,0,0,1-2.021-.4,3.288,3.288,0,0,1-1.375-1.129,2.722,2.722,0,0,1-.5-1.569h1.626a1.683,1.683,0,0,0,.655,1.3,2.54,2.54,0,0,0,1.613.479,2.622,2.622,0,0,0,1.481-.374A1.148,1.148,0,0,0-27.246,22.478Zm3.313-2.32a5.617,5.617,0,0,1,.549-2.514,4.1,4.1,0,0,1,1.529-1.723,4.163,4.163,0,0,1,2.237-.606,4.01,4.01,0,0,1,3.142,1.345,5.174,5.174,0,0,1,1.2,3.577v.114a5.666,5.666,0,0,1-.532,2.492,4.038,4.038,0,0,1-1.521,1.718,4.211,4.211,0,0,1-2.272.615,4,4,0,0,1-3.133-1.345,5.147,5.147,0,0,1-1.2-3.56Zm1.635.193a4.068,4.068,0,0,0,.734,2.54,2.349,2.349,0,0,0,1.964.958,2.335,2.335,0,0,0,1.969-.971,4.449,4.449,0,0,0,.729-2.72,4.061,4.061,0,0,0-.743-2.536,2.361,2.361,0,0,0-1.973-.971,2.335,2.335,0,0,0-1.942.958A4.416,4.416,0,0,0-22.3,20.351ZM-11.47,25H-13.1V11.5h1.626ZM-7.1,25H-8.728V15.49H-7.1ZM-8.859,12.968a.971.971,0,0,1,.242-.668.907.907,0,0,1,.716-.272.922.922,0,0,1,.721.272.96.96,0,0,1,.246.668.929.929,0,0,1-.246.659.938.938,0,0,1-.721.264.924.924,0,0,1-.716-.264A.938.938,0,0,1-8.859,12.968ZM-.686,23.849a2.342,2.342,0,0,0,1.521-.527A1.855,1.855,0,0,0,1.556,22H3.094a2.949,2.949,0,0,1-.562,1.556,3.7,3.7,0,0,1-1.384,1.178,3.994,3.994,0,0,1-1.833.439,3.918,3.918,0,0,1-3.089-1.3,5.163,5.163,0,0,1-1.147-3.546v-.272a5.725,5.725,0,0,1,.51-2.47,3.883,3.883,0,0,1,1.463-1.679,4.157,4.157,0,0,1,2.254-.6,3.814,3.814,0,0,1,2.659.958A3.424,3.424,0,0,1,3.094,18.76H1.556a2.241,2.241,0,0,0-.7-1.516A2.174,2.174,0,0,0-.694,16.65a2.276,2.276,0,0,0-1.92.892,4.19,4.19,0,0,0-.681,2.58v.308a4.106,4.106,0,0,0,.677,2.531A2.287,2.287,0,0,0-.686,23.849ZM6.688,25H5.063V15.49H6.688ZM4.931,12.968a.971.971,0,0,1,.242-.668.907.907,0,0,1,.716-.272.922.922,0,0,1,.721.272.96.96,0,0,1,.246.668.929.929,0,0,1-.246.659.938.938,0,0,1-.721.264.924.924,0,0,1-.716-.264A.938.938,0,0,1,4.931,12.968Zm6.565.22v2.3h1.775v1.257H11.5v5.9a1.32,1.32,0,0,0,.237.858,1,1,0,0,0,.809.286,3.937,3.937,0,0,0,.773-.105V25a4.742,4.742,0,0,1-1.248.175,2.025,2.025,0,0,1-1.644-.659,2.832,2.832,0,0,1-.554-1.872v-5.9H8.139V15.49H9.87v-2.3ZM21.041,24.06a3.454,3.454,0,0,1-2.786,1.116,2.956,2.956,0,0,1-2.316-.883,3.823,3.823,0,0,1-.8-2.615V15.49h1.626v6.144q0,2.162,1.758,2.162A2.434,2.434,0,0,0,21,22.407V15.49h1.626V25H21.076ZM24.7,20.166a5.571,5.571,0,0,1,1.037-3.52,3.529,3.529,0,0,1,5.361-.189V11.5h1.626V25H31.228l-.079-1.02a3.311,3.311,0,0,1-2.716,1.2,3.248,3.248,0,0,1-2.694-1.354A5.634,5.634,0,0,1,24.7,20.289Zm1.626.185a4.218,4.218,0,0,0,.668,2.531,2.159,2.159,0,0,0,1.846.914A2.372,2.372,0,0,0,31.1,22.407V18.039a2.39,2.39,0,0,0-2.241-1.345,2.17,2.17,0,0,0-1.863.923A4.644,4.644,0,0,0,26.323,20.351Z" transform="translate(330 6466.58)" fill="#fff"/>
      <path id="Trazado_116658" data-name="Trazado 116658" d="M-24.4-2.241-20.742-12.8H-18.9L-23.643,0h-1.494l-4.737-12.8h1.837ZM-13.878.176a4.155,4.155,0,0,1-3.146-1.27,4.714,4.714,0,0,1-1.213-3.4v-.3A5.707,5.707,0,0,1-17.7-7.317a4.217,4.217,0,0,1,1.512-1.74,3.8,3.8,0,0,1,2.1-.628A3.562,3.562,0,0,1-11.2-8.464a5.289,5.289,0,0,1,1.028,3.5v.677h-6.442a3.38,3.38,0,0,0,.822,2.272,2.583,2.583,0,0,0,2,.866A2.832,2.832,0,0,0-12.331-1.5a3.666,3.666,0,0,0,1.046-.932l.993.773A3.993,3.993,0,0,1-13.878.176Zm-.2-8.525a2.169,2.169,0,0,0-1.652.716,3.482,3.482,0,0,0-.826,2.008h4.764v-.123a3.1,3.1,0,0,0-.668-1.92A2.042,2.042,0,0,0-14.08-8.35Zm10.389.3a4.873,4.873,0,0,0-.8-.062A2.143,2.143,0,0,0-6.662-6.75V0H-8.288V-9.51h1.582l.026,1.1A2.532,2.532,0,0,1-4.412-9.686a1.661,1.661,0,0,1,.721.123ZM-.431,0H-2.057V-9.51H-.431ZM-2.188-12.032a.971.971,0,0,1,.242-.668.907.907,0,0,1,.716-.272A.922.922,0,0,1-.51-12.7a.96.96,0,0,1,.246.668.929.929,0,0,1-.246.659.938.938,0,0,1-.721.264.924.924,0,0,1-.716-.264A.938.938,0,0,1-2.188-12.032ZM2.716,0V-8.253h-1.5V-9.51h1.5v-.809a3.3,3.3,0,0,1,.91-2.479A3.528,3.528,0,0,1,6.2-13.685a7.741,7.741,0,0,1,2.487.536l-.272,1.371a5.634,5.634,0,0,0-2.092-.439,2.047,2.047,0,0,0-1.507.47,1.938,1.938,0,0,0-.461,1.411v.826H6.293v1.257H4.351V0ZM9.492,0H7.857V-9.51H9.492Zm6.46-1.151a2.342,2.342,0,0,0,1.521-.527A1.855,1.855,0,0,0,18.193-3h1.538a2.949,2.949,0,0,1-.562,1.556A3.7,3.7,0,0,1,17.785-.264a3.994,3.994,0,0,1-1.833.439,3.918,3.918,0,0,1-3.089-1.3,5.163,5.163,0,0,1-1.147-3.546v-.272a5.725,5.725,0,0,1,.51-2.47,3.883,3.883,0,0,1,1.463-1.679,4.157,4.157,0,0,1,2.254-.6,3.814,3.814,0,0,1,2.659.958A3.424,3.424,0,0,1,19.731-6.24H18.193a2.241,2.241,0,0,0-.7-1.516,2.174,2.174,0,0,0-1.551-.593,2.276,2.276,0,0,0-1.92.892,4.19,4.19,0,0,0-.681,2.58v.308a4.106,4.106,0,0,0,.677,2.531A2.287,2.287,0,0,0,15.952-1.151ZM27.431,0A3.416,3.416,0,0,1,27.2-1,3.628,3.628,0,0,1,24.5.176a3.357,3.357,0,0,1-2.307-.8,2.573,2.573,0,0,1-.9-2.017,2.688,2.688,0,0,1,1.129-2.307,5.325,5.325,0,0,1,3.177-.822h1.582v-.747a1.826,1.826,0,0,0-.51-1.358,2.049,2.049,0,0,0-1.5-.505,2.371,2.371,0,0,0-1.459.439,1.3,1.3,0,0,0-.589,1.063H21.48a2.244,2.244,0,0,1,.505-1.375A3.449,3.449,0,0,1,23.357-9.3a4.613,4.613,0,0,1,1.9-.387,3.759,3.759,0,0,1,2.575.822A2.964,2.964,0,0,1,28.8-6.6v4.377a5.351,5.351,0,0,0,.334,2.083V0Zm-2.7-1.239a2.858,2.858,0,0,0,1.45-.4,2.392,2.392,0,0,0,.993-1.028V-4.614H25.9q-2.988,0-2.988,1.749a1.48,1.48,0,0,0,.51,1.2A1.959,1.959,0,0,0,24.732-1.239ZM-40.992,25H-42.68V12.2h1.688Zm4.368-9.51.053,1.2a3.465,3.465,0,0,1,2.848-1.371q3.015,0,3.041,3.4V25h-1.626V18.707a2.189,2.189,0,0,0-.47-1.521,1.884,1.884,0,0,0-1.437-.492,2.347,2.347,0,0,0-1.389.422,2.865,2.865,0,0,0-.932,1.107V25h-1.626V15.49Zm11.531,7.3,2.355-7.3h1.661L-24.486,25h-1.239l-3.445-9.51h1.661Zm9.413,2.382a4.155,4.155,0,0,1-3.146-1.27,4.714,4.714,0,0,1-1.213-3.4v-.3a5.707,5.707,0,0,1,.541-2.527,4.217,4.217,0,0,1,1.512-1.74,3.8,3.8,0,0,1,2.1-.628A3.562,3.562,0,0,1-13,16.536a5.289,5.289,0,0,1,1.028,3.5v.677h-6.442a3.38,3.38,0,0,0,.822,2.272,2.583,2.583,0,0,0,2,.866,2.832,2.832,0,0,0,1.459-.352,3.666,3.666,0,0,0,1.046-.932l.993.773A3.993,3.993,0,0,1-15.68,25.176Zm-.2-8.525a2.169,2.169,0,0,0-1.652.716,3.482,3.482,0,0,0-.826,2.008H-13.6v-.123a3.1,3.1,0,0,0-.668-1.92A2.042,2.042,0,0,0-15.882,16.65Zm7.33-1.16.053,1.2a3.465,3.465,0,0,1,2.848-1.371q3.015,0,3.041,3.4V25H-4.236V18.707a2.189,2.189,0,0,0-.47-1.521,1.884,1.884,0,0,0-1.437-.492,2.347,2.347,0,0,0-1.389.422,2.865,2.865,0,0,0-.932,1.107V25H-10.09V15.49Zm10.6-2.3v2.3H3.823v1.257H2.048v5.9a1.32,1.32,0,0,0,.237.858,1,1,0,0,0,.809.286,3.937,3.937,0,0,0,.773-.105V25a4.742,4.742,0,0,1-1.248.175,2.025,2.025,0,0,1-1.644-.659,2.832,2.832,0,0,1-.554-1.872v-5.9H-1.31V15.49H.422v-2.3ZM11.593,25a3.416,3.416,0,0,1-.229-1,3.628,3.628,0,0,1-2.707,1.178,3.357,3.357,0,0,1-2.307-.8,2.573,2.573,0,0,1-.9-2.017,2.688,2.688,0,0,1,1.129-2.307,5.325,5.325,0,0,1,3.177-.822h1.582v-.747a1.826,1.826,0,0,0-.51-1.358,2.049,2.049,0,0,0-1.5-.505,2.371,2.371,0,0,0-1.459.439,1.3,1.3,0,0,0-.589,1.063H5.643a2.244,2.244,0,0,1,.505-1.375A3.449,3.449,0,0,1,7.519,15.7a4.613,4.613,0,0,1,1.9-.387A3.759,3.759,0,0,1,12,16.136a2.964,2.964,0,0,1,.967,2.263v4.377a5.351,5.351,0,0,0,.334,2.083V25Zm-2.7-1.239a2.858,2.858,0,0,0,1.45-.4,2.392,2.392,0,0,0,.993-1.028V20.386H10.063q-2.988,0-2.988,1.749a1.48,1.48,0,0,0,.51,1.2A1.959,1.959,0,0,0,8.895,23.761Zm11.215-6.812a4.873,4.873,0,0,0-.8-.062,2.143,2.143,0,0,0-2.171,1.362V25H15.513V15.49h1.582l.026,1.1a2.532,2.532,0,0,1,2.268-1.274,1.661,1.661,0,0,1,.721.123ZM23.37,25H21.744V15.49H23.37ZM21.612,12.968a.971.971,0,0,1,.242-.668.907.907,0,0,1,.716-.272.922.922,0,0,1,.721.272.96.96,0,0,1,.246.668.929.929,0,0,1-.246.659.938.938,0,0,1-.721.264.924.924,0,0,1-.716-.264A.938.938,0,0,1,21.612,12.968Zm3.929,7.189a5.617,5.617,0,0,1,.549-2.514,4.1,4.1,0,0,1,1.529-1.723,4.163,4.163,0,0,1,2.237-.606A4.01,4.01,0,0,1,33,16.659a5.174,5.174,0,0,1,1.2,3.577v.114a5.666,5.666,0,0,1-.532,2.492,4.038,4.038,0,0,1-1.521,1.718,4.211,4.211,0,0,1-2.272.615,4,4,0,0,1-3.133-1.345,5.147,5.147,0,0,1-1.2-3.56Zm1.635.193a4.068,4.068,0,0,0,.734,2.54,2.487,2.487,0,0,0,3.933-.013,4.449,4.449,0,0,0,.729-2.72,4.061,4.061,0,0,0-.743-2.536,2.361,2.361,0,0,0-1.973-.971,2.335,2.335,0,0,0-1.942.958A4.416,4.416,0,0,0,27.176,20.351Zm14.6,2.127a1.2,1.2,0,0,0-.5-1.024,4.78,4.78,0,0,0-1.731-.628,8.186,8.186,0,0,1-1.96-.633,2.788,2.788,0,0,1-1.072-.879,2.1,2.1,0,0,1-.347-1.213,2.467,2.467,0,0,1,.989-1.978,3.861,3.861,0,0,1,2.527-.809,3.974,3.974,0,0,1,2.624.835,2.652,2.652,0,0,1,1.006,2.136H41.678a1.468,1.468,0,0,0-.567-1.151,2.124,2.124,0,0,0-1.428-.483,2.223,2.223,0,0,0-1.389.387,1.217,1.217,0,0,0-.5,1.011.986.986,0,0,0,.466.888,5.731,5.731,0,0,0,1.683.571,8.77,8.77,0,0,1,1.973.65,2.878,2.878,0,0,1,1.121.91,2.237,2.237,0,0,1,.365,1.3,2.434,2.434,0,0,1-1.02,2.043,4.277,4.277,0,0,1-2.646.769,4.789,4.789,0,0,1-2.021-.4,3.288,3.288,0,0,1-1.375-1.129,2.722,2.722,0,0,1-.5-1.569h1.626a1.683,1.683,0,0,0,.655,1.3,2.54,2.54,0,0,0,1.613.479,2.622,2.622,0,0,0,1.481-.374A1.148,1.148,0,0,0,41.774,22.478Z" transform="translate(612 6466.58)" fill="#fff"/>
      <path id="Trazado_116663" data-name="Trazado 116663" d="M-24.557-3.349h-5.361L-31.122,0h-1.74l4.887-12.8H-26.5L-21.6,0h-1.731Zm-4.852-1.38h4.351l-2.18-5.985Zm13.869-3.322a4.873,4.873,0,0,0-.8-.062A2.143,2.143,0,0,0-18.51-6.75V0h-1.626V-9.51h1.582l.026,1.1A2.532,2.532,0,0,1-16.26-9.686a1.661,1.661,0,0,1,.721.123Zm3.023-1.459.044,1.055A3.512,3.512,0,0,1-9.65-9.686,2.719,2.719,0,0,1-6.935-8.156,3.6,3.6,0,0,1-5.7-9.264a3.647,3.647,0,0,1,1.8-.422q3.129,0,3.182,3.313V0H-2.347V-6.275A2.184,2.184,0,0,0-2.812-7.8a2.051,2.051,0,0,0-1.564-.505,2.156,2.156,0,0,0-1.5.541,2.193,2.193,0,0,0-.694,1.455V0H-8.209V-6.231a1.814,1.814,0,0,0-2.03-2.074,2.175,2.175,0,0,0-2.188,1.362V0h-1.626V-9.51ZM7.6,0a3.416,3.416,0,0,1-.229-1A3.628,3.628,0,0,1,4.667.176,3.357,3.357,0,0,1,2.36-.62a2.573,2.573,0,0,1-.9-2.017A2.688,2.688,0,0,1,2.588-4.944a5.325,5.325,0,0,1,3.177-.822H7.348v-.747a1.826,1.826,0,0,0-.51-1.358,2.049,2.049,0,0,0-1.5-.505,2.371,2.371,0,0,0-1.459.439,1.3,1.3,0,0,0-.589,1.063H1.652a2.244,2.244,0,0,1,.505-1.375A3.449,3.449,0,0,1,3.529-9.3a4.613,4.613,0,0,1,1.9-.387,3.759,3.759,0,0,1,2.575.822A2.964,2.964,0,0,1,8.974-6.6v4.377A5.351,5.351,0,0,0,9.308-.141V0ZM4.9-1.239a2.858,2.858,0,0,0,1.45-.4,2.392,2.392,0,0,0,.993-1.028V-4.614H6.073q-2.988,0-2.988,1.749a1.48,1.48,0,0,0,.51,1.2A1.959,1.959,0,0,0,4.9-1.239ZM19.925.176a4.155,4.155,0,0,1-3.146-1.27,4.714,4.714,0,0,1-1.213-3.4v-.3a5.707,5.707,0,0,1,.541-2.527,4.217,4.217,0,0,1,1.512-1.74,3.8,3.8,0,0,1,2.1-.628,3.562,3.562,0,0,1,2.883,1.222,5.289,5.289,0,0,1,1.028,3.5v.677H17.191a3.38,3.38,0,0,0,.822,2.272,2.583,2.583,0,0,0,2,.866A2.832,2.832,0,0,0,21.472-1.5a3.666,3.666,0,0,0,1.046-.932l.993.773A3.993,3.993,0,0,1,19.925.176Zm-.2-8.525a2.169,2.169,0,0,0-1.652.716,3.482,3.482,0,0,0-.826,2.008h4.764v-.123a3.1,3.1,0,0,0-.668-1.92A2.042,2.042,0,0,0,19.723-8.35ZM27.281,0H25.655V-13.5h1.626ZM-24.684,19.99V25h-1.687V12.2h4.72a4.742,4.742,0,0,1,3.292,1.072,3.635,3.635,0,0,1,1.191,2.839,3.587,3.587,0,0,1-1.165,2.87,4.954,4.954,0,0,1-3.335,1.006Zm0-1.38h3.032a3.032,3.032,0,0,0,2.074-.638,2.334,2.334,0,0,0,.721-1.845,2.411,2.411,0,0,0-.721-1.831,2.84,2.84,0,0,0-1.978-.713h-3.129Zm13.245,6.565a4.155,4.155,0,0,1-3.146-1.27,4.714,4.714,0,0,1-1.213-3.4v-.3a5.707,5.707,0,0,1,.541-2.527,4.217,4.217,0,0,1,1.512-1.74,3.8,3.8,0,0,1,2.1-.628,3.562,3.562,0,0,1,2.883,1.222,5.289,5.289,0,0,1,1.028,3.5v.677h-6.442a3.38,3.38,0,0,0,.822,2.272,2.583,2.583,0,0,0,2,.866A2.832,2.832,0,0,0-9.892,23.5a3.666,3.666,0,0,0,1.046-.932l.993.773A3.993,3.993,0,0,1-11.439,25.176Zm-.2-8.525a2.169,2.169,0,0,0-1.652.716,3.482,3.482,0,0,0-.826,2.008h4.764v-.123a3.1,3.1,0,0,0-.668-1.92A2.042,2.042,0,0,0-11.641,16.65Zm5.4,3.516a5.571,5.571,0,0,1,1.037-3.52,3.28,3.28,0,0,1,2.716-1.332A3.3,3.3,0,0,1,.154,16.457V11.5H1.78V25H.286L.207,23.98a3.311,3.311,0,0,1-2.716,1.2A3.248,3.248,0,0,1-5.2,23.822a5.634,5.634,0,0,1-1.042-3.533Zm1.626.185a4.218,4.218,0,0,0,.668,2.531A2.159,2.159,0,0,0-2.1,23.8,2.372,2.372,0,0,0,.154,22.407V18.039a2.39,2.39,0,0,0-2.241-1.345,2.17,2.17,0,0,0-1.863.923A4.644,4.644,0,0,0-4.619,20.351ZM6.069,25H4.443V15.49H6.069ZM4.311,12.968a.971.971,0,0,1,.242-.668.907.907,0,0,1,.716-.272.922.922,0,0,1,.721.272.96.96,0,0,1,.246.668.929.929,0,0,1-.246.659.938.938,0,0,1-.721.264.924.924,0,0,1-.716-.264A.938.938,0,0,1,4.311,12.968Zm3.964,7.2a5.571,5.571,0,0,1,1.037-3.52,3.28,3.28,0,0,1,2.716-1.332,3.3,3.3,0,0,1,2.646,1.143V11.5H16.3V25H14.805l-.079-1.02a3.311,3.311,0,0,1-2.716,1.2,3.248,3.248,0,0,1-2.694-1.354,5.634,5.634,0,0,1-1.042-3.533Zm1.626.185a4.218,4.218,0,0,0,.668,2.531,2.159,2.159,0,0,0,1.846.914,2.372,2.372,0,0,0,2.259-1.389V18.039a2.39,2.39,0,0,0-2.241-1.345,2.17,2.17,0,0,0-1.863.923A4.644,4.644,0,0,0,9.9,20.351Zm8.49-.193a5.617,5.617,0,0,1,.549-2.514,4.1,4.1,0,0,1,1.529-1.723,4.163,4.163,0,0,1,2.237-.606,4.01,4.01,0,0,1,3.142,1.345,5.174,5.174,0,0,1,1.2,3.577v.114a5.666,5.666,0,0,1-.532,2.492A4.038,4.038,0,0,1,25,24.561a4.211,4.211,0,0,1-2.272.615,4,4,0,0,1-3.133-1.345,5.147,5.147,0,0,1-1.2-3.56Zm1.635.193a4.068,4.068,0,0,0,.734,2.54,2.487,2.487,0,0,0,3.933-.013,4.449,4.449,0,0,0,.729-2.72,4.061,4.061,0,0,0-.743-2.536,2.361,2.361,0,0,0-1.973-.971,2.335,2.335,0,0,0-1.942.958A4.416,4.416,0,0,0,20.026,20.351Z" transform="translate(612 6728.58)" fill="#fff"/>
      <path id="Trazado_116668" data-name="Trazado 116668" d="M-27.444-3.349h-5.361L-34.009,0h-1.74l4.887-12.8h1.477l4.9,12.8h-1.731ZM-32.3-4.729h4.351l-2.18-5.985ZM-21.256,0h-1.626V-13.5h1.626Zm6.548.176a4.155,4.155,0,0,1-3.146-1.27,4.714,4.714,0,0,1-1.213-3.4v-.3a5.707,5.707,0,0,1,.541-2.527,4.217,4.217,0,0,1,1.512-1.74,3.8,3.8,0,0,1,2.1-.628,3.562,3.562,0,0,1,2.883,1.222A5.289,5.289,0,0,1-11-4.966v.677h-6.442a3.38,3.38,0,0,0,.822,2.272,2.583,2.583,0,0,0,2,.866A2.832,2.832,0,0,0-13.162-1.5a3.666,3.666,0,0,0,1.046-.932l.993.773A3.993,3.993,0,0,1-14.708.176Zm-.2-8.525a2.169,2.169,0,0,0-1.652.716,3.482,3.482,0,0,0-.826,2.008h4.764v-.123a3.1,3.1,0,0,0-.668-1.92A2.042,2.042,0,0,0-14.911-8.35Zm10.389.3a4.873,4.873,0,0,0-.8-.062A2.143,2.143,0,0,0-7.493-6.75V0H-9.119V-9.51h1.582l.026,1.1A2.532,2.532,0,0,1-5.243-9.686a1.661,1.661,0,0,1,.721.123Zm4.14-3.762v2.3H1.393v1.257H-.382v5.9a1.32,1.32,0,0,0,.237.858A1,1,0,0,0,.664-1.2a3.937,3.937,0,0,0,.773-.105V0A4.742,4.742,0,0,1,.189.176,2.025,2.025,0,0,1-1.455-.483a2.832,2.832,0,0,1-.554-1.872v-5.9H-3.74V-9.51h1.731v-2.3ZM9.163,0a3.416,3.416,0,0,1-.229-1A3.628,3.628,0,0,1,6.227.176,3.357,3.357,0,0,1,3.92-.62a2.573,2.573,0,0,1-.9-2.017A2.688,2.688,0,0,1,4.148-4.944a5.325,5.325,0,0,1,3.177-.822H8.908v-.747A1.826,1.826,0,0,0,8.4-7.871a2.049,2.049,0,0,0-1.5-.505,2.371,2.371,0,0,0-1.459.439,1.3,1.3,0,0,0-.589,1.063H3.212a2.244,2.244,0,0,1,.505-1.375A3.449,3.449,0,0,1,5.089-9.3a4.613,4.613,0,0,1,1.9-.387,3.759,3.759,0,0,1,2.575.822A2.964,2.964,0,0,1,10.534-6.6v4.377a5.351,5.351,0,0,0,.334,2.083V0Zm-2.7-1.239a2.858,2.858,0,0,0,1.45-.4,2.392,2.392,0,0,0,.993-1.028V-4.614H7.633q-2.988,0-2.988,1.749a1.48,1.48,0,0,0,.51,1.2A1.959,1.959,0,0,0,6.464-1.239ZM17.143-4.834a5.571,5.571,0,0,1,1.037-3.52A3.28,3.28,0,0,1,20.9-9.686a3.3,3.3,0,0,1,2.646,1.143V-13.5h1.626V0H23.673l-.079-1.02a3.311,3.311,0,0,1-2.716,1.2,3.248,3.248,0,0,1-2.694-1.354,5.634,5.634,0,0,1-1.042-3.533Zm1.626.185a4.218,4.218,0,0,0,.668,2.531,2.159,2.159,0,0,0,1.846.914,2.372,2.372,0,0,0,2.259-1.389V-6.961A2.39,2.39,0,0,0,21.3-8.306a2.17,2.17,0,0,0-1.863.923A4.644,4.644,0,0,0,18.769-4.649ZM31.636.176a4.155,4.155,0,0,1-3.146-1.27,4.714,4.714,0,0,1-1.213-3.4v-.3a5.707,5.707,0,0,1,.541-2.527,4.217,4.217,0,0,1,1.512-1.74,3.8,3.8,0,0,1,2.1-.628,3.562,3.562,0,0,1,2.883,1.222,5.289,5.289,0,0,1,1.028,3.5v.677H28.9a3.38,3.38,0,0,0,.822,2.272,2.583,2.583,0,0,0,2,.866A2.832,2.832,0,0,0,33.183-1.5a3.666,3.666,0,0,0,1.046-.932l.993.773A3.993,3.993,0,0,1,31.636.176Zm-.2-8.525a2.169,2.169,0,0,0-1.652.716,3.482,3.482,0,0,0-.826,2.008h4.764v-.123a3.1,3.1,0,0,0-.668-1.92A2.042,2.042,0,0,0,31.434-8.35Zm-50.7,29.289a4.708,4.708,0,0,1-1.5,3.133,4.911,4.911,0,0,1-3.353,1.1,4.509,4.509,0,0,1-3.634-1.626A6.542,6.542,0,0,1-29.123,19.2v-1.23a7.291,7.291,0,0,1,.637-3.138,4.76,4.76,0,0,1,1.806-2.079,5.029,5.029,0,0,1,2.707-.725,4.624,4.624,0,0,1,3.27,1.138,4.765,4.765,0,0,1,1.433,3.151h-1.7a3.677,3.677,0,0,0-.954-2.222,2.885,2.885,0,0,0-2.052-.688,3.019,3.019,0,0,0-2.536,1.2,5.492,5.492,0,0,0-.918,3.4v1.24a5.645,5.645,0,0,0,.87,3.316A2.812,2.812,0,0,0-24.122,23.8a3.247,3.247,0,0,0,2.158-.637,3.536,3.536,0,0,0,1-2.219ZM-11.351,25a3.416,3.416,0,0,1-.229-1,3.628,3.628,0,0,1-2.707,1.178,3.357,3.357,0,0,1-2.307-.8,2.573,2.573,0,0,1-.9-2.017,2.688,2.688,0,0,1,1.129-2.307,5.325,5.325,0,0,1,3.177-.822h1.582v-.747a1.826,1.826,0,0,0-.51-1.358,2.049,2.049,0,0,0-1.5-.505,2.371,2.371,0,0,0-1.459.439,1.3,1.3,0,0,0-.589,1.063H-17.3a2.244,2.244,0,0,1,.505-1.375,3.449,3.449,0,0,1,1.371-1.05,4.613,4.613,0,0,1,1.9-.387,3.759,3.759,0,0,1,2.575.822A2.964,2.964,0,0,1-9.98,18.4v4.377a5.351,5.351,0,0,0,.334,2.083V25Zm-2.7-1.239a2.858,2.858,0,0,0,1.45-.4,2.392,2.392,0,0,0,.993-1.028V20.386H-12.88q-2.988,0-2.988,1.749a1.48,1.48,0,0,0,.51,1.2A1.959,1.959,0,0,0-14.049,23.761ZM-5.665,25H-7.291V11.5h1.626ZM-1.3,25H-2.922V15.49H-1.3ZM-3.054,12.968a.971.971,0,0,1,.242-.668.907.907,0,0,1,.716-.272.922.922,0,0,1,.721.272.96.96,0,0,1,.246.668.929.929,0,0,1-.246.659.938.938,0,0,1-.721.264.924.924,0,0,1-.716-.264A.938.938,0,0,1-3.054,12.968Zm3.964,7.2a5.571,5.571,0,0,1,1.037-3.52,3.28,3.28,0,0,1,2.716-1.332,3.3,3.3,0,0,1,2.646,1.143V11.5H8.934V25H7.44l-.079-1.02a3.311,3.311,0,0,1-2.716,1.2,3.248,3.248,0,0,1-2.694-1.354A5.634,5.634,0,0,1,.91,20.289Zm1.626.185A4.218,4.218,0,0,0,3.2,22.882a2.159,2.159,0,0,0,1.846.914,2.372,2.372,0,0,0,2.259-1.389V18.039a2.39,2.39,0,0,0-2.241-1.345,2.17,2.17,0,0,0-1.863.923A4.644,4.644,0,0,0,2.536,20.351ZM17.328,25a3.416,3.416,0,0,1-.229-1,3.628,3.628,0,0,1-2.707,1.178,3.357,3.357,0,0,1-2.307-.8,2.573,2.573,0,0,1-.9-2.017,2.688,2.688,0,0,1,1.129-2.307,5.325,5.325,0,0,1,3.177-.822h1.582v-.747a1.826,1.826,0,0,0-.51-1.358,2.049,2.049,0,0,0-1.5-.505,2.371,2.371,0,0,0-1.459.439,1.3,1.3,0,0,0-.589,1.063H11.377a2.244,2.244,0,0,1,.505-1.375,3.449,3.449,0,0,1,1.371-1.05,4.613,4.613,0,0,1,1.9-.387,3.759,3.759,0,0,1,2.575.822A2.964,2.964,0,0,1,18.7,18.4v4.377a5.351,5.351,0,0,0,.334,2.083V25Zm-2.7-1.239a2.858,2.858,0,0,0,1.45-.4,2.392,2.392,0,0,0,.993-1.028V20.386H15.8q-2.988,0-2.988,1.749a1.48,1.48,0,0,0,.51,1.2A1.959,1.959,0,0,0,14.629,23.761Zm6.223-3.595a5.571,5.571,0,0,1,1.037-3.52,3.529,3.529,0,0,1,5.361-.189V11.5h1.626V25H27.382L27.3,23.98a3.311,3.311,0,0,1-2.716,1.2,3.248,3.248,0,0,1-2.694-1.354,5.634,5.634,0,0,1-1.042-3.533Zm1.626.185a4.218,4.218,0,0,0,.668,2.531,2.159,2.159,0,0,0,1.846.914,2.372,2.372,0,0,0,2.259-1.389V18.039a2.39,2.39,0,0,0-2.241-1.345,2.17,2.17,0,0,0-1.863.923A4.644,4.644,0,0,0,22.478,20.351Z" transform="translate(612 6851.58)" fill="#fff"/>
      <path id="Trazado_116661" data-name="Trazado 116661" d="M-21.423-5.915h-5.546V-1.38h6.442V0h-8.13V-12.8h8.042v1.38h-6.354v4.122h5.546ZM-16.915,0h-1.626V-13.5h1.626Zm8.473,0A3.416,3.416,0,0,1-8.67-1,3.628,3.628,0,0,1-11.377.176a3.357,3.357,0,0,1-2.307-.8,2.573,2.573,0,0,1-.9-2.017,2.688,2.688,0,0,1,1.129-2.307,5.325,5.325,0,0,1,3.177-.822H-8.7v-.747a1.826,1.826,0,0,0-.51-1.358,2.049,2.049,0,0,0-1.5-.505,2.371,2.371,0,0,0-1.459.439,1.3,1.3,0,0,0-.589,1.063h-1.635a2.244,2.244,0,0,1,.505-1.375A3.449,3.449,0,0,1-12.516-9.3a4.613,4.613,0,0,1,1.9-.387,3.759,3.759,0,0,1,2.575.822A2.964,2.964,0,0,1-7.071-6.6v4.377A5.351,5.351,0,0,0-6.737-.141V0Zm-2.7-1.239a2.858,2.858,0,0,0,1.45-.4A2.392,2.392,0,0,0-8.7-2.663V-4.614H-9.971q-2.988,0-2.988,1.749a1.48,1.48,0,0,0,.51,1.2A1.959,1.959,0,0,0-11.14-1.239ZM3.529-4.649a5.654,5.654,0,0,1-1,3.5A3.2,3.2,0,0,1-.163.176,3.315,3.315,0,0,1-2.949-1.1L-3.028,0H-4.522V-13.5H-2.9v5.036A3.3,3.3,0,0,1-.18-9.686a3.221,3.221,0,0,1,2.72,1.31A5.824,5.824,0,0,1,3.529-4.79ZM1.9-4.834A4.394,4.394,0,0,0,1.261-7.4,2.124,2.124,0,0,0-.584-8.306,2.387,2.387,0,0,0-2.9-6.812V-2.7A2.454,2.454,0,0,0-.567-1.2a2.112,2.112,0,0,0,1.819-.905A4.672,4.672,0,0,0,1.9-4.834Zm3.243-.009A5.617,5.617,0,0,1,5.7-7.356,4.1,4.1,0,0,1,7.225-9.079a4.163,4.163,0,0,1,2.237-.606A4.01,4.01,0,0,1,12.6-8.341a5.174,5.174,0,0,1,1.2,3.577v.114a5.666,5.666,0,0,1-.532,2.492A4.038,4.038,0,0,1,11.751-.439,4.211,4.211,0,0,1,9.479.176,4,4,0,0,1,6.346-1.169a5.147,5.147,0,0,1-1.2-3.56Zm1.635.193a4.068,4.068,0,0,0,.734,2.54,2.349,2.349,0,0,0,1.964.958,2.335,2.335,0,0,0,1.969-.971,4.449,4.449,0,0,0,.729-2.72,4.061,4.061,0,0,0-.743-2.536A2.361,2.361,0,0,0,9.461-8.35a2.335,2.335,0,0,0-1.942.958A4.416,4.416,0,0,0,6.781-4.649Zm13.658-3.4a4.873,4.873,0,0,0-.8-.062A2.143,2.143,0,0,0,17.468-6.75V0H15.842V-9.51h1.582l.026,1.1a2.532,2.532,0,0,1,2.268-1.274,1.661,1.661,0,0,1,.721.123ZM27.453,0a3.416,3.416,0,0,1-.229-1A3.628,3.628,0,0,1,24.517.176a3.357,3.357,0,0,1-2.307-.8,2.573,2.573,0,0,1-.9-2.017,2.688,2.688,0,0,1,1.129-2.307,5.325,5.325,0,0,1,3.177-.822H27.2v-.747a1.826,1.826,0,0,0-.51-1.358,2.049,2.049,0,0,0-1.5-.505,2.371,2.371,0,0,0-1.459.439,1.3,1.3,0,0,0-.589,1.063H21.5a2.244,2.244,0,0,1,.505-1.375A3.449,3.449,0,0,1,23.379-9.3a4.613,4.613,0,0,1,1.9-.387,3.759,3.759,0,0,1,2.575.822A2.964,2.964,0,0,1,28.824-6.6v4.377a5.351,5.351,0,0,0,.334,2.083V0Zm-2.7-1.239a2.858,2.858,0,0,0,1.45-.4A2.392,2.392,0,0,0,27.2-2.663V-4.614H25.923q-2.988,0-2.988,1.749a1.48,1.48,0,0,0,.51,1.2A1.959,1.959,0,0,0,24.754-1.239ZM-33.328,19.99V25h-1.687V12.2h4.72A4.742,4.742,0,0,1-27,13.275a3.635,3.635,0,0,1,1.191,2.839,3.587,3.587,0,0,1-1.165,2.87,4.954,4.954,0,0,1-3.335,1.006Zm0-1.38H-30.3a3.032,3.032,0,0,0,2.074-.638,2.334,2.334,0,0,0,.721-1.845,2.411,2.411,0,0,0-.721-1.831,2.84,2.84,0,0,0-1.978-.713h-3.129Zm14.01-1.661a4.873,4.873,0,0,0-.8-.062,2.143,2.143,0,0,0-2.171,1.362V25h-1.626V15.49h1.582l.026,1.1a2.532,2.532,0,0,1,2.268-1.274,1.661,1.661,0,0,1,.721.123Zm.888,3.208a5.617,5.617,0,0,1,.549-2.514,4.1,4.1,0,0,1,1.529-1.723,4.163,4.163,0,0,1,2.237-.606,4.01,4.01,0,0,1,3.142,1.345,5.174,5.174,0,0,1,1.2,3.577v.114a5.666,5.666,0,0,1-.532,2.492,4.038,4.038,0,0,1-1.521,1.718,4.211,4.211,0,0,1-2.272.615,4,4,0,0,1-3.133-1.345,5.147,5.147,0,0,1-1.2-3.56Zm1.635.193a4.068,4.068,0,0,0,.734,2.54,2.349,2.349,0,0,0,1.964.958,2.335,2.335,0,0,0,1.969-.971,4.449,4.449,0,0,0,.729-2.72,4.061,4.061,0,0,0-.743-2.536,2.361,2.361,0,0,0-1.973-.971,2.335,2.335,0,0,0-1.942.958A4.416,4.416,0,0,0-16.8,20.351Zm8.666-.185a5.571,5.571,0,0,1,1.037-3.52,3.28,3.28,0,0,1,2.716-1.332,3.3,3.3,0,0,1,2.646,1.143V11.5H-.105V25H-1.6l-.079-1.02a3.311,3.311,0,0,1-2.716,1.2,3.248,3.248,0,0,1-2.694-1.354A5.634,5.634,0,0,1-8.13,20.289Zm1.626.185a4.218,4.218,0,0,0,.668,2.531A2.159,2.159,0,0,0-3.99,23.8a2.372,2.372,0,0,0,2.259-1.389V18.039a2.39,2.39,0,0,0-2.241-1.345,2.17,2.17,0,0,0-1.863.923A4.644,4.644,0,0,0-6.5,20.351ZM8.288,24.06A3.454,3.454,0,0,1,5.5,25.176a2.956,2.956,0,0,1-2.316-.883,3.823,3.823,0,0,1-.8-2.615V15.49H4.008v6.144q0,2.162,1.758,2.162a2.434,2.434,0,0,0,2.479-1.389V15.49H9.87V25H8.323Zm7.866-.211a2.342,2.342,0,0,0,1.521-.527A1.855,1.855,0,0,0,18.4,22h1.538a2.949,2.949,0,0,1-.562,1.556,3.7,3.7,0,0,1-1.384,1.178,3.994,3.994,0,0,1-1.833.439,3.918,3.918,0,0,1-3.089-1.3,5.163,5.163,0,0,1-1.147-3.546v-.272a5.725,5.725,0,0,1,.51-2.47,3.883,3.883,0,0,1,1.463-1.679,4.157,4.157,0,0,1,2.254-.6,3.814,3.814,0,0,1,2.659.958,3.424,3.424,0,0,1,1.129,2.487H18.4a2.241,2.241,0,0,0-.7-1.516,2.174,2.174,0,0,0-1.551-.593,2.276,2.276,0,0,0-1.92.892,4.19,4.19,0,0,0-.681,2.58v.308a4.106,4.106,0,0,0,.677,2.531A2.287,2.287,0,0,0,16.154,23.849Zm7.813-10.661v2.3h1.775v1.257H23.968v5.9a1.32,1.32,0,0,0,.237.858,1,1,0,0,0,.809.286,3.937,3.937,0,0,0,.773-.105V25a4.742,4.742,0,0,1-1.248.175,2.025,2.025,0,0,1-1.644-.659,2.832,2.832,0,0,1-.554-1.872v-5.9H20.61V15.49h1.731v-2.3Zm3.067,6.97a5.617,5.617,0,0,1,.549-2.514,4.1,4.1,0,0,1,1.529-1.723,4.163,4.163,0,0,1,2.237-.606,4.01,4.01,0,0,1,3.142,1.345,5.174,5.174,0,0,1,1.2,3.577v.114a5.666,5.666,0,0,1-.532,2.492,4.038,4.038,0,0,1-1.521,1.718,4.211,4.211,0,0,1-2.272.615,4,4,0,0,1-3.133-1.345,5.147,5.147,0,0,1-1.2-3.56Zm1.635.193a4.068,4.068,0,0,0,.734,2.54,2.487,2.487,0,0,0,3.933-.013,4.449,4.449,0,0,0,.729-2.72,4.061,4.061,0,0,0-.743-2.536,2.361,2.361,0,0,0-1.973-.971,2.335,2.335,0,0,0-1.942.958A4.416,4.416,0,0,0,28.67,20.351Z" transform="translate(958 6580.633)" fill="#fff"/>
      <g id="Grupo_78465" data-name="Grupo 78465" transform="translate(0 167.107)">
        <rect id="Rectángulo_33865" data-name="Rectángulo 33865" width="108" height="63" transform="translate(1213 6771.58)" fill="#1565c0"/>
        <path id="Trazado_113222" data-name="Trazado 113222" d="M0,0Z" transform="translate(1267 6803.58) rotate(43)" fill="#1565c0"/>
        <path id="Trazado_116669" data-name="Trazado 116669" d="M-26.71-5.177h-3.006V0h-1.7V-12.8h4.236a5.014,5.014,0,0,1,3.327.984,3.542,3.542,0,0,1,1.165,2.865,3.445,3.445,0,0,1-.646,2.083,3.856,3.856,0,0,1-1.8,1.327l3.006,5.432V0h-1.811Zm-3.006-1.38h2.593a2.924,2.924,0,0,0,2-.652,2.2,2.2,0,0,0,.743-1.743,2.32,2.32,0,0,0-.708-1.823,3,3,0,0,0-2.043-.643h-2.584ZM-16.629.176a4.155,4.155,0,0,1-3.146-1.27,4.714,4.714,0,0,1-1.213-3.4v-.3a5.707,5.707,0,0,1,.541-2.527,4.217,4.217,0,0,1,1.512-1.74,3.8,3.8,0,0,1,2.1-.628,3.562,3.562,0,0,1,2.883,1.222,5.289,5.289,0,0,1,1.028,3.5v.677h-6.442a3.38,3.38,0,0,0,.822,2.272,2.583,2.583,0,0,0,2,.866A2.832,2.832,0,0,0-15.082-1.5a3.666,3.666,0,0,0,1.046-.932l.993.773A3.993,3.993,0,0,1-16.629.176Zm-.2-8.525a2.169,2.169,0,0,0-1.652.716,3.482,3.482,0,0,0-.826,2.008h4.764v-.123a3.1,3.1,0,0,0-.668-1.92A2.042,2.042,0,0,0-16.831-8.35Zm5.405,3.516A5.589,5.589,0,0,1-10.4-8.372,3.289,3.289,0,0,1-7.673-9.686a3.271,3.271,0,0,1,2.716,1.23l.079-1.055h1.485V-.229A3.869,3.869,0,0,1-4.487,2.681a4.038,4.038,0,0,1-2.94,1.063A4.891,4.891,0,0,1-9.439,3.3a3.465,3.465,0,0,1-1.5-1.2l.844-.976A3.18,3.18,0,0,0-7.541,2.417a2.491,2.491,0,0,0,1.85-.668A2.553,2.553,0,0,0-5.027-.132V-.949A3.342,3.342,0,0,1-7.69.176a3.248,3.248,0,0,1-2.7-1.345A5.876,5.876,0,0,1-11.426-4.834Zm1.635.185a4.264,4.264,0,0,0,.659,2.527A2.142,2.142,0,0,0-7.286-1.2,2.382,2.382,0,0,0-5.027-2.6V-6.943A2.41,2.41,0,0,0-7.269-8.306a2.161,2.161,0,0,0-1.854.923A4.644,4.644,0,0,0-9.791-4.649ZM.826,0H-.8V-9.51H.826ZM-.932-12.032A.971.971,0,0,1-.69-12.7a.907.907,0,0,1,.716-.272.922.922,0,0,1,.721.272.96.96,0,0,1,.246.668.929.929,0,0,1-.246.659.938.938,0,0,1-.721.264.924.924,0,0,1-.716-.264A.938.938,0,0,1-.932-12.032Zm9.9,9.51a1.2,1.2,0,0,0-.5-1.024,4.78,4.78,0,0,0-1.731-.628,8.186,8.186,0,0,1-1.96-.633A2.788,2.788,0,0,1,3.7-5.687,2.1,2.1,0,0,1,3.357-6.9a2.467,2.467,0,0,1,.989-1.978,3.861,3.861,0,0,1,2.527-.809A3.974,3.974,0,0,1,9.5-8.851,2.652,2.652,0,0,1,10.5-6.715H8.868A1.468,1.468,0,0,0,8.3-7.866,2.124,2.124,0,0,0,6.873-8.35a2.223,2.223,0,0,0-1.389.387,1.217,1.217,0,0,0-.5,1.011.986.986,0,0,0,.466.888,5.731,5.731,0,0,0,1.683.571,8.77,8.77,0,0,1,1.973.65,2.878,2.878,0,0,1,1.121.91,2.237,2.237,0,0,1,.365,1.3A2.434,2.434,0,0,1,9.571-.593,4.277,4.277,0,0,1,6.926.176,4.789,4.789,0,0,1,4.9-.229,3.288,3.288,0,0,1,3.529-1.358a2.722,2.722,0,0,1-.5-1.569H4.658a1.683,1.683,0,0,0,.655,1.3,2.54,2.54,0,0,0,1.613.479,2.622,2.622,0,0,0,1.481-.374A1.148,1.148,0,0,0,8.965-2.522Zm5.95-9.29v2.3H16.69v1.257H14.915v5.9a1.32,1.32,0,0,0,.237.858,1,1,0,0,0,.809.286,3.937,3.937,0,0,0,.773-.105V0a4.742,4.742,0,0,1-1.248.175,2.025,2.025,0,0,1-1.644-.659,2.832,2.832,0,0,1-.554-1.872v-5.9H11.558V-9.51h1.731v-2.3Zm8.271,3.762a4.873,4.873,0,0,0-.8-.062A2.143,2.143,0,0,0,20.215-6.75V0H18.589V-9.51h1.582l.026,1.1a2.532,2.532,0,0,1,2.268-1.274,1.661,1.661,0,0,1,.721.123ZM30.2,0a3.416,3.416,0,0,1-.229-1A3.628,3.628,0,0,1,27.264.176a3.357,3.357,0,0,1-2.307-.8,2.573,2.573,0,0,1-.9-2.017,2.688,2.688,0,0,1,1.129-2.307,5.325,5.325,0,0,1,3.177-.822h1.582v-.747a1.826,1.826,0,0,0-.51-1.358,2.049,2.049,0,0,0-1.5-.505,2.371,2.371,0,0,0-1.459.439,1.3,1.3,0,0,0-.589,1.063H24.249a2.244,2.244,0,0,1,.505-1.375A3.449,3.449,0,0,1,26.125-9.3a4.613,4.613,0,0,1,1.9-.387,3.759,3.759,0,0,1,2.575.822A2.964,2.964,0,0,1,31.57-6.6v4.377A5.351,5.351,0,0,0,31.9-.141V0ZM27.5-1.239a2.858,2.858,0,0,0,1.45-.4,2.392,2.392,0,0,0,.993-1.028V-4.614H28.67q-2.988,0-2.988,1.749a1.48,1.48,0,0,0,.51,1.2A1.959,1.959,0,0,0,27.5-1.239ZM-21.555,19.349h-5.37V25h-1.687V12.2h7.928v1.38h-6.24v4.386h5.37ZM-13.346,25a3.416,3.416,0,0,1-.229-1,3.628,3.628,0,0,1-2.707,1.178,3.357,3.357,0,0,1-2.307-.8,2.573,2.573,0,0,1-.9-2.017,2.688,2.688,0,0,1,1.129-2.307,5.325,5.325,0,0,1,3.177-.822H-13.6v-.747a1.826,1.826,0,0,0-.51-1.358,2.049,2.049,0,0,0-1.5-.505,2.371,2.371,0,0,0-1.459.439,1.3,1.3,0,0,0-.589,1.063H-19.3a2.244,2.244,0,0,1,.505-1.375A3.449,3.449,0,0,1-17.42,15.7a4.613,4.613,0,0,1,1.9-.387,3.759,3.759,0,0,1,2.575.822,2.964,2.964,0,0,1,.967,2.263v4.377a5.351,5.351,0,0,0,.334,2.083V25Zm-2.7-1.239a2.858,2.858,0,0,0,1.45-.4,2.392,2.392,0,0,0,.993-1.028V20.386h-1.274q-2.988,0-2.988,1.749a1.48,1.48,0,0,0,.51,1.2A1.959,1.959,0,0,0-16.044,23.761Zm10.433.088a2.342,2.342,0,0,0,1.521-.527A1.855,1.855,0,0,0-3.371,22h1.538A2.949,2.949,0,0,1-2.4,23.559a3.7,3.7,0,0,1-1.384,1.178,3.994,3.994,0,0,1-1.833.439,3.918,3.918,0,0,1-3.089-1.3,5.163,5.163,0,0,1-1.147-3.546v-.272a5.725,5.725,0,0,1,.51-2.47,3.883,3.883,0,0,1,1.463-1.679,4.157,4.157,0,0,1,2.254-.6,3.814,3.814,0,0,1,2.659.958A3.424,3.424,0,0,1-1.833,18.76H-3.371a2.241,2.241,0,0,0-.7-1.516,2.174,2.174,0,0,0-1.551-.593,2.276,2.276,0,0,0-1.92.892,4.19,4.19,0,0,0-.681,2.58v.308a4.106,4.106,0,0,0,.677,2.531A2.287,2.287,0,0,0-5.612,23.849ZM2.2,13.188v2.3H3.977v1.257H2.2v5.9a1.32,1.32,0,0,0,.237.858,1,1,0,0,0,.809.286,3.937,3.937,0,0,0,.773-.105V25a4.742,4.742,0,0,1-1.248.175,2.025,2.025,0,0,1-1.644-.659,2.832,2.832,0,0,1-.554-1.872v-5.9H-1.156V15.49H.576v-2.3ZM11.747,24.06A3.454,3.454,0,0,1,8.96,25.176a2.956,2.956,0,0,1-2.316-.883,3.823,3.823,0,0,1-.8-2.615V15.49H7.466v6.144q0,2.162,1.758,2.162A2.434,2.434,0,0,0,11.7,22.407V15.49h1.626V25H11.782Zm8.648-7.11a4.873,4.873,0,0,0-.8-.062,2.143,2.143,0,0,0-2.171,1.362V25H15.8V15.49H17.38l.026,1.1a2.532,2.532,0,0,1,2.268-1.274,1.661,1.661,0,0,1,.721.123ZM27.409,25a3.416,3.416,0,0,1-.229-1,3.628,3.628,0,0,1-2.707,1.178,3.357,3.357,0,0,1-2.307-.8,2.573,2.573,0,0,1-.9-2.017,2.688,2.688,0,0,1,1.129-2.307,5.325,5.325,0,0,1,3.177-.822h1.582v-.747a1.826,1.826,0,0,0-.51-1.358,2.049,2.049,0,0,0-1.5-.505,2.371,2.371,0,0,0-1.459.439,1.3,1.3,0,0,0-.589,1.063H21.458a2.244,2.244,0,0,1,.505-1.375,3.449,3.449,0,0,1,1.371-1.05,4.613,4.613,0,0,1,1.9-.387,3.759,3.759,0,0,1,2.575.822A2.964,2.964,0,0,1,28.78,18.4v4.377a5.351,5.351,0,0,0,.334,2.083V25Zm-2.7-1.239a2.858,2.858,0,0,0,1.45-.4,2.392,2.392,0,0,0,.993-1.028V20.386H25.879q-2.988,0-2.988,1.749a1.48,1.48,0,0,0,.51,1.2A1.959,1.959,0,0,0,24.71,23.761Z" transform="translate(1267 6797.58)" fill="#fff"/>
      </g>
      <path id="Trazado_116667" data-name="Trazado 116667" d="M-22.75-5.177h-3.006V0h-1.7V-12.8h4.236a5.014,5.014,0,0,1,3.327.984,3.542,3.542,0,0,1,1.165,2.865,3.445,3.445,0,0,1-.646,2.083,3.856,3.856,0,0,1-1.8,1.327l3.006,5.432V0h-1.811Zm-3.006-1.38h2.593a2.924,2.924,0,0,0,2-.652,2.2,2.2,0,0,0,.743-1.743,2.32,2.32,0,0,0-.708-1.823,3,3,0,0,0-2.043-.643h-2.584ZM-12.669.176a4.155,4.155,0,0,1-3.146-1.27,4.714,4.714,0,0,1-1.213-3.4v-.3a5.707,5.707,0,0,1,.541-2.527,4.217,4.217,0,0,1,1.512-1.74,3.8,3.8,0,0,1,2.1-.628A3.562,3.562,0,0,1-9.989-8.464a5.289,5.289,0,0,1,1.028,3.5v.677H-15.4a3.38,3.38,0,0,0,.822,2.272,2.583,2.583,0,0,0,2,.866A2.832,2.832,0,0,0-11.123-1.5a3.666,3.666,0,0,0,1.046-.932l.993.773A3.993,3.993,0,0,1-12.669.176Zm-.2-8.525a2.169,2.169,0,0,0-1.652.716,3.482,3.482,0,0,0-.826,2.008h4.764v-.123a3.1,3.1,0,0,0-.668-1.92A2.042,2.042,0,0,0-12.872-8.35ZM-1.208,0a3.416,3.416,0,0,1-.229-1A3.628,3.628,0,0,1-4.144.176a3.357,3.357,0,0,1-2.307-.8,2.573,2.573,0,0,1-.9-2.017A2.688,2.688,0,0,1-6.223-4.944a5.325,5.325,0,0,1,3.177-.822h1.582v-.747a1.826,1.826,0,0,0-.51-1.358,2.049,2.049,0,0,0-1.5-.505,2.371,2.371,0,0,0-1.459.439,1.3,1.3,0,0,0-.589,1.063H-7.159a2.244,2.244,0,0,1,.505-1.375A3.449,3.449,0,0,1-5.282-9.3a4.613,4.613,0,0,1,1.9-.387A3.759,3.759,0,0,1-.8-8.864,2.964,2.964,0,0,1,.163-6.6v4.377A5.351,5.351,0,0,0,.5-.141V0Zm-2.7-1.239a2.858,2.858,0,0,0,1.45-.4,2.392,2.392,0,0,0,.993-1.028V-4.614H-2.738q-2.988,0-2.988,1.749a1.48,1.48,0,0,0,.51,1.2A1.959,1.959,0,0,0-3.907-1.239ZM4.478,0H2.852V-13.5H4.478ZM8.846,0H7.22V-9.51H8.846ZM7.088-12.032A.971.971,0,0,1,7.33-12.7a.907.907,0,0,1,.716-.272.922.922,0,0,1,.721.272.96.96,0,0,1,.246.668.929.929,0,0,1-.246.659.938.938,0,0,1-.721.264.924.924,0,0,1-.716-.264A.938.938,0,0,1,7.088-12.032ZM12.977-1.327h5.563V0h-7.55V-1.2l5.247-6.97H11.07V-9.51h7.207v1.151ZM26.24,0a3.416,3.416,0,0,1-.229-1A3.628,3.628,0,0,1,23.3.176,3.357,3.357,0,0,1,21-.62a2.573,2.573,0,0,1-.9-2.017,2.688,2.688,0,0,1,1.129-2.307A5.325,5.325,0,0,1,24.4-5.766h1.582v-.747a1.826,1.826,0,0,0-.51-1.358,2.049,2.049,0,0,0-1.5-.505,2.371,2.371,0,0,0-1.459.439,1.3,1.3,0,0,0-.589,1.063H20.29a2.244,2.244,0,0,1,.505-1.375A3.449,3.449,0,0,1,22.166-9.3a4.613,4.613,0,0,1,1.9-.387,3.759,3.759,0,0,1,2.575.822A2.964,2.964,0,0,1,27.611-6.6v4.377a5.351,5.351,0,0,0,.334,2.083V0Zm-2.7-1.239a2.858,2.858,0,0,0,1.45-.4,2.392,2.392,0,0,0,.993-1.028V-4.614H24.71q-2.988,0-2.988,1.749a1.48,1.48,0,0,0,.51,1.2A1.959,1.959,0,0,0,23.542-1.239ZM-17.534,19.99V25h-1.687V12.2h4.72a4.742,4.742,0,0,1,3.292,1.072,3.635,3.635,0,0,1,1.191,2.839,3.587,3.587,0,0,1-1.165,2.87A4.954,4.954,0,0,1-14.52,19.99Zm0-1.38H-14.5a3.032,3.032,0,0,0,2.074-.638,2.334,2.334,0,0,0,.721-1.845,2.411,2.411,0,0,0-.721-1.831,2.84,2.84,0,0,0-1.978-.713h-3.129ZM-2.347,25a3.416,3.416,0,0,1-.229-1,3.628,3.628,0,0,1-2.707,1.178,3.357,3.357,0,0,1-2.307-.8,2.573,2.573,0,0,1-.9-2.017,2.688,2.688,0,0,1,1.129-2.307,5.325,5.325,0,0,1,3.177-.822H-2.6v-.747a1.826,1.826,0,0,0-.51-1.358,2.049,2.049,0,0,0-1.5-.505,2.371,2.371,0,0,0-1.459.439,1.3,1.3,0,0,0-.589,1.063H-8.3a2.244,2.244,0,0,1,.505-1.375A3.449,3.449,0,0,1-6.42,15.7a4.613,4.613,0,0,1,1.9-.387,3.759,3.759,0,0,1,2.575.822A2.964,2.964,0,0,1-.976,18.4v4.377a5.351,5.351,0,0,0,.334,2.083V25Zm-2.7-1.239a2.858,2.858,0,0,0,1.45-.4A2.392,2.392,0,0,0-2.6,22.337V20.386H-3.876q-2.988,0-2.988,1.749a1.48,1.48,0,0,0,.51,1.2A1.959,1.959,0,0,0-5.045,23.761Zm6.231-3.595a5.589,5.589,0,0,1,1.028-3.538,3.289,3.289,0,0,1,2.725-1.314,3.271,3.271,0,0,1,2.716,1.23l.079-1.055H9.22v9.281a3.869,3.869,0,0,1-1.094,2.909,4.038,4.038,0,0,1-2.94,1.063A4.891,4.891,0,0,1,3.173,28.3a3.465,3.465,0,0,1-1.5-1.2l.844-.976a3.18,3.18,0,0,0,2.558,1.292,2.491,2.491,0,0,0,1.85-.668,2.553,2.553,0,0,0,.664-1.881v-.817a3.342,3.342,0,0,1-2.663,1.125,3.248,3.248,0,0,1-2.7-1.345A5.876,5.876,0,0,1,1.187,20.166Zm1.635.185a4.264,4.264,0,0,0,.659,2.527,2.142,2.142,0,0,0,1.846.918,2.382,2.382,0,0,0,2.259-1.4V18.057a2.41,2.41,0,0,0-2.241-1.362,2.161,2.161,0,0,0-1.854.923A4.644,4.644,0,0,0,2.821,20.351Zm8.42-.193a5.617,5.617,0,0,1,.549-2.514,4.1,4.1,0,0,1,1.529-1.723,4.163,4.163,0,0,1,2.237-.606A4.01,4.01,0,0,1,18.7,16.659a5.174,5.174,0,0,1,1.2,3.577v.114a5.666,5.666,0,0,1-.532,2.492,4.038,4.038,0,0,1-1.521,1.718,4.211,4.211,0,0,1-2.272.615,4,4,0,0,1-3.133-1.345,5.147,5.147,0,0,1-1.2-3.56Zm1.635.193a4.068,4.068,0,0,0,.734,2.54,2.487,2.487,0,0,0,3.933-.013,4.449,4.449,0,0,0,.729-2.72,4.061,4.061,0,0,0-.743-2.536,2.361,2.361,0,0,0-1.973-.971,2.335,2.335,0,0,0-1.942.958A4.416,4.416,0,0,0,12.876,20.351Z" transform="translate(346 6970.08)" fill="#fff"/>
      <g id="Grupo_78460" data-name="Grupo 78460" transform="translate(-61 2837.072)">
        <rect id="Rectángulo_33836" data-name="Rectángulo 33836" width="109" height="55" rx="27" transform="translate(336 3498.928)" fill="#1565c0"/>
        <path id="Trazado_116656" data-name="Trazado 116656" d="M-18.33,0h-1.687V-12.8h1.688Zm4.368-9.51.053,1.2a3.465,3.465,0,0,1,2.848-1.371q3.015,0,3.041,3.4V0H-9.646V-6.293a2.189,2.189,0,0,0-.47-1.521,1.884,1.884,0,0,0-1.437-.492,2.347,2.347,0,0,0-1.389.422,2.865,2.865,0,0,0-.932,1.107V0H-15.5V-9.51ZM-3.8,0H-5.427V-9.51H-3.8ZM-5.559-12.032a.971.971,0,0,1,.242-.668.907.907,0,0,1,.716-.272.922.922,0,0,1,.721.272.96.96,0,0,1,.246.668.929.929,0,0,1-.246.659.938.938,0,0,1-.721.264.924.924,0,0,1-.716-.264A.938.938,0,0,1-5.559-12.032ZM2.615-1.151a2.342,2.342,0,0,0,1.521-.527A1.855,1.855,0,0,0,4.856-3H6.394a2.949,2.949,0,0,1-.562,1.556A3.7,3.7,0,0,1,4.447-.264,3.994,3.994,0,0,1,2.615.176a3.918,3.918,0,0,1-3.089-1.3A5.163,5.163,0,0,1-1.622-4.667v-.272a5.725,5.725,0,0,1,.51-2.47A3.883,3.883,0,0,1,.352-9.088a4.157,4.157,0,0,1,2.254-.6,3.814,3.814,0,0,1,2.659.958A3.424,3.424,0,0,1,6.394-6.24H4.856a2.241,2.241,0,0,0-.7-1.516A2.174,2.174,0,0,0,2.606-8.35a2.276,2.276,0,0,0-1.92.892A4.19,4.19,0,0,0,0-4.878v.308A4.106,4.106,0,0,0,.681-2.039,2.287,2.287,0,0,0,2.615-1.151ZM9.989,0H8.363V-9.51H9.989ZM8.231-12.032a.971.971,0,0,1,.242-.668.907.907,0,0,1,.716-.272.922.922,0,0,1,.721.272.96.96,0,0,1,.246.668.929.929,0,0,1-.246.659.938.938,0,0,1-.721.264.924.924,0,0,1-.716-.264A.938.938,0,0,1,8.231-12.032ZM12.16-4.843a5.617,5.617,0,0,1,.549-2.514,4.1,4.1,0,0,1,1.529-1.723,4.163,4.163,0,0,1,2.237-.606,4.01,4.01,0,0,1,3.142,1.345,5.174,5.174,0,0,1,1.2,3.577v.114a5.666,5.666,0,0,1-.532,2.492A4.038,4.038,0,0,1,18.765-.439a4.211,4.211,0,0,1-2.272.615,4,4,0,0,1-3.133-1.345,5.147,5.147,0,0,1-1.2-3.56Zm1.635.193a4.068,4.068,0,0,0,.734,2.54,2.349,2.349,0,0,0,1.964.958,2.335,2.335,0,0,0,1.969-.971,4.449,4.449,0,0,0,.729-2.72,4.061,4.061,0,0,0-.743-2.536,2.361,2.361,0,0,0-1.973-.971,2.335,2.335,0,0,0-1.942.958A4.416,4.416,0,0,0,13.794-4.649Z" transform="translate(391 3532.928)" fill="#fff"/>
      </g>
      <g id="Grupo_78464" data-name="Grupo 78464" transform="translate(877 3565.153)">
        <rect id="Rectángulo_33836-2" data-name="Rectángulo 33836" width="109" height="55" rx="27" transform="translate(336 3498.928)" fill="#1565c0"/>
        <path id="Trazado_116670" data-name="Trazado 116670" d="M-3.582-5.651h-5.37V0h-1.687V-12.8h7.928v1.38h-6.24v4.386h5.37ZM.822,0H-.8V-9.51H.822ZM-.936-12.032A.971.971,0,0,1-.694-12.7a.907.907,0,0,1,.716-.272.922.922,0,0,1,.721.272.96.96,0,0,1,.246.668.929.929,0,0,1-.246.659.938.938,0,0,1-.721.264.924.924,0,0,1-.716-.264A.938.938,0,0,1-.936-12.032Zm5.9,2.522.053,1.2A3.465,3.465,0,0,1,7.862-9.686q3.015,0,3.041,3.4V0H9.277V-6.293a2.189,2.189,0,0,0-.47-1.521A1.884,1.884,0,0,0,7.37-8.306a2.347,2.347,0,0,0-1.389.422,2.865,2.865,0,0,0-.932,1.107V0H3.423V-9.51Z" transform="translate(391 3532.928)" fill="#fff"/>
      </g>
      <path id="Unión_12" data-name="Unión 12" d="M3239.965,11706.788h-35.874v-1.893h35.874V11700l7.595,5.894-7.595,5.894Z" transform="translate(12035.787 3191.592) rotate(90)" fill="#1565c0"/>
      <path id="Unión_20" data-name="Unión 20" d="M3239.965,11706.788h-35.874v-1.893h35.874V11700l7.595,5.894-7.595,5.894Z" transform="translate(12317.395 3285.592) rotate(90)" fill="#1565c0"/>
      <path id="Unión_21" data-name="Unión 21" d="M3239.965,11706.788h-35.874v-1.893h35.874V11700l7.595,5.894-7.595,5.894Z" transform="translate(12317.395 3438.254) rotate(90)" fill="#1565c0"/>
      <path id="Unión_28" data-name="Unión 28" d="M3239.965,11706.788h-35.874v-1.893h35.874V11700l7.595,5.894-7.595,5.894Z" transform="translate(12972.788 3802.988) rotate(90)" fill="#1565c0"/>
      <path id="Unión_27" data-name="Unión 27" d="M3239.965,11706.788h-35.874v-1.893h35.874V11700l7.595,5.894-7.595,5.894Z" transform="translate(12052.191 3686.02) rotate(90)" fill="#1565c0"/>
      <path id="Unión_18" data-name="Unión 18" d="M3239.965,11706.893H3100.091V11705h139.874v-5l7.595,5.894-7.595,5.894Z" transform="translate(-2702.397 -5233.42)" fill="#1565c0"/>
      <path id="Unión_26" data-name="Unión 26" d="M3267.1,11705.4H3100.091v-1.482H3267.1V11700l9.068,4.616-9.068,4.615Z" transform="translate(-2731.009 -4846.258)" fill="#1565c0"/>
      <path id="Unión_19" data-name="Unión 19" d="M3239.965,11706.893H3044.092V11705h195.873v-5l7.595,5.894-7.595,5.894Z" transform="translate(-2347.795 -5119.367)" fill="#1565c0"/>
      <path id="Unión_25" data-name="Unión 25" d="M3239.965,11706.893H3044.092V11705h195.873v-5l7.595,5.894-7.595,5.894Z" transform="translate(9055.585 15322.27) rotate(150)" fill="#1565c0"/>
      <path id="Unión_22" data-name="Unión 22" d="M3315.053,11706.893H3044.092V11705h270.961v-5l10.507,5.894-10.507,5.894Z" transform="translate(-2371.092 -4842.92)" fill="#1565c0"/>
      <path id="Unión_24" data-name="Unión 24" d="M3349.222,11703.738h-805.13v-1.026h805.13V11700l10.974,3.2-10.974,3.2Z" transform="translate(-2152.56 -4724.42)" fill="#1565c0"/>
      <path id="Unión_23" data-name="Unión 23" d="M230.908,4.895H0V6.787H230.908v5l8.953-5.894L230.908,0Z" transform="translate(952 6862.974) rotate(-90)" fill="#1565c0"/>
      <path id="Trazado_113216" data-name="Trazado 113216" d="M3387.878-4851.627l-78.539,47.5,78.539,47.448,79.017-47.448Z" transform="translate(-2776.339 11390.26)" fill="#1565c0"/>
      <path id="Trazado_113219" data-name="Trazado 113219" d="M3387.878-4851.627l-78.539,47.5,78.539,47.448,79.017-47.448Z" transform="translate(-3042.117 11637.852)" fill="#1565c0"/>
      <path id="Trazado_116659" data-name="Trazado 116659" d="M-49.764-5.915H-55.31V-1.38h6.442V0H-57V-12.8h8.042v1.38H-55.31v4.122h5.546Zm5.933-.123,2.109-3.472h1.9l-3.111,4.7L-39.727,0h-1.881l-2.2-3.56L-46,0h-1.89l3.208-4.808-3.111-4.7h1.881ZM-36.334,0H-37.96V-9.51h1.626Zm-1.758-12.032a.971.971,0,0,1,.242-.668.907.907,0,0,1,.716-.272.922.922,0,0,1,.721.272.96.96,0,0,1,.246.668.929.929,0,0,1-.246.659.938.938,0,0,1-.721.264.924.924,0,0,1-.716-.264A.938.938,0,0,1-38.092-12.032Zm9.9,9.51a1.2,1.2,0,0,0-.5-1.024,4.78,4.78,0,0,0-1.731-.628,8.186,8.186,0,0,1-1.96-.633,2.788,2.788,0,0,1-1.072-.879A2.1,2.1,0,0,1-33.8-6.9a2.467,2.467,0,0,1,.989-1.978,3.861,3.861,0,0,1,2.527-.809,3.974,3.974,0,0,1,2.624.835,2.652,2.652,0,0,1,1.006,2.136h-1.635a1.468,1.468,0,0,0-.567-1.151,2.124,2.124,0,0,0-1.428-.483,2.223,2.223,0,0,0-1.389.387,1.217,1.217,0,0,0-.5,1.011.986.986,0,0,0,.466.888,5.731,5.731,0,0,0,1.683.571,8.77,8.77,0,0,1,1.973.65,2.878,2.878,0,0,1,1.121.91,2.237,2.237,0,0,1,.365,1.3,2.434,2.434,0,0,1-1.02,2.043,4.277,4.277,0,0,1-2.646.769,4.789,4.789,0,0,1-2.021-.4,3.288,3.288,0,0,1-1.375-1.129,2.722,2.722,0,0,1-.5-1.569H-32.5a1.683,1.683,0,0,0,.655,1.3,2.54,2.54,0,0,0,1.613.479,2.622,2.622,0,0,0,1.481-.374A1.148,1.148,0,0,0-28.2-2.522Zm5.95-9.29v2.3h1.775v1.257h-1.775v5.9a1.32,1.32,0,0,0,.237.858A1,1,0,0,0-21.2-1.2a3.937,3.937,0,0,0,.773-.105V0a4.742,4.742,0,0,1-1.248.175,2.025,2.025,0,0,1-1.644-.659,2.832,2.832,0,0,1-.554-1.872v-5.9H-25.6V-9.51h1.731v-2.3ZM-14.625.176a4.155,4.155,0,0,1-3.146-1.27,4.714,4.714,0,0,1-1.213-3.4v-.3a5.707,5.707,0,0,1,.541-2.527,4.217,4.217,0,0,1,1.512-1.74,3.8,3.8,0,0,1,2.1-.628,3.562,3.562,0,0,1,2.883,1.222,5.289,5.289,0,0,1,1.028,3.5v.677h-6.442a3.38,3.38,0,0,0,.822,2.272,2.583,2.583,0,0,0,2,.866A2.832,2.832,0,0,0-13.078-1.5a3.666,3.666,0,0,0,1.046-.932l.993.773A3.993,3.993,0,0,1-14.625.176Zm-.2-8.525a2.169,2.169,0,0,0-1.652.716,3.482,3.482,0,0,0-.826,2.008h4.764v-.123a3.1,3.1,0,0,0-.668-1.92A2.042,2.042,0,0,0-14.827-8.35ZM-7.5-9.51l.053,1.2A3.465,3.465,0,0,1-4.6-9.686q3.015,0,3.041,3.4V0H-3.182V-6.293a2.189,2.189,0,0,0-.47-1.521,1.884,1.884,0,0,0-1.437-.492,2.347,2.347,0,0,0-1.389.422,2.865,2.865,0,0,0-.932,1.107V0H-9.035V-9.51ZM4.711-1.151a2.342,2.342,0,0,0,1.521-.527A1.855,1.855,0,0,0,6.952-3H8.49a2.949,2.949,0,0,1-.562,1.556A3.7,3.7,0,0,1,6.543-.264,3.994,3.994,0,0,1,4.711.176a3.918,3.918,0,0,1-3.089-1.3A5.163,5.163,0,0,1,.475-4.667v-.272a5.725,5.725,0,0,1,.51-2.47A3.883,3.883,0,0,1,2.448-9.088a4.157,4.157,0,0,1,2.254-.6,3.814,3.814,0,0,1,2.659.958A3.424,3.424,0,0,1,8.49-6.24H6.952a2.241,2.241,0,0,0-.7-1.516A2.174,2.174,0,0,0,4.7-8.35a2.276,2.276,0,0,0-1.92.892A4.19,4.19,0,0,0,2.1-4.878v.308a4.106,4.106,0,0,0,.677,2.531A2.287,2.287,0,0,0,4.711-1.151ZM12.085,0H10.459V-9.51h1.626ZM10.327-12.032a.971.971,0,0,1,.242-.668.907.907,0,0,1,.716-.272.922.922,0,0,1,.721.272.96.96,0,0,1,.246.668.929.929,0,0,1-.246.659.938.938,0,0,1-.721.264.924.924,0,0,1-.716-.264A.938.938,0,0,1,10.327-12.032ZM20.558,0a3.416,3.416,0,0,1-.229-1A3.628,3.628,0,0,1,17.622.176a3.357,3.357,0,0,1-2.307-.8,2.573,2.573,0,0,1-.9-2.017,2.688,2.688,0,0,1,1.129-2.307,5.325,5.325,0,0,1,3.177-.822H20.3v-.747a1.826,1.826,0,0,0-.51-1.358,2.049,2.049,0,0,0-1.5-.505,2.371,2.371,0,0,0-1.459.439,1.3,1.3,0,0,0-.589,1.063H14.607a2.244,2.244,0,0,1,.505-1.375A3.449,3.449,0,0,1,16.484-9.3a4.613,4.613,0,0,1,1.9-.387,3.759,3.759,0,0,1,2.575.822A2.964,2.964,0,0,1,21.929-6.6v4.377a5.351,5.351,0,0,0,.334,2.083V0Zm-2.7-1.239a2.858,2.858,0,0,0,1.45-.4A2.392,2.392,0,0,0,20.3-2.663V-4.614H19.028q-2.988,0-2.988,1.749a1.48,1.48,0,0,0,.51,1.2A1.959,1.959,0,0,0,17.859-1.239ZM30.015-2.522a1.2,1.2,0,0,0-.5-1.024,4.78,4.78,0,0,0-1.731-.628,8.186,8.186,0,0,1-1.96-.633,2.788,2.788,0,0,1-1.072-.879A2.1,2.1,0,0,1,24.407-6.9,2.467,2.467,0,0,1,25.4-8.877a3.861,3.861,0,0,1,2.527-.809,3.974,3.974,0,0,1,2.624.835,2.652,2.652,0,0,1,1.006,2.136H29.918a1.468,1.468,0,0,0-.567-1.151,2.124,2.124,0,0,0-1.428-.483,2.223,2.223,0,0,0-1.389.387,1.217,1.217,0,0,0-.5,1.011.986.986,0,0,0,.466.888,5.731,5.731,0,0,0,1.683.571,8.77,8.77,0,0,1,1.973.65,2.878,2.878,0,0,1,1.121.91,2.237,2.237,0,0,1,.365,1.3,2.434,2.434,0,0,1-1.02,2.043,4.277,4.277,0,0,1-2.646.769,4.789,4.789,0,0,1-2.021-.4,3.288,3.288,0,0,1-1.375-1.129,2.722,2.722,0,0,1-.5-1.569h1.626a1.683,1.683,0,0,0,.655,1.3,2.54,2.54,0,0,0,1.613.479,2.622,2.622,0,0,0,1.481-.374A1.148,1.148,0,0,0,30.015-2.522Zm18.3-3.463A7.916,7.916,0,0,1,47.681-2.7a4.793,4.793,0,0,1-1.793,2.14,4.933,4.933,0,0,1-2.707.738A4.891,4.891,0,0,1,40.5-.567a4.908,4.908,0,0,1-1.815-2.118,7.6,7.6,0,0,1-.664-3.186v-.923a7.822,7.822,0,0,1,.642-3.261,4.891,4.891,0,0,1,1.815-2.167,4.87,4.87,0,0,1,2.685-.751,4.961,4.961,0,0,1,2.711.743,4.784,4.784,0,0,1,1.806,2.153,7.955,7.955,0,0,1,.633,3.283Zm-1.679-.826a5.738,5.738,0,0,0-.914-3.494,3.015,3.015,0,0,0-2.558-1.217,2.982,2.982,0,0,0-2.518,1.217A5.62,5.62,0,0,0,39.7-6.926v.94a5.746,5.746,0,0,0,.927,3.467,3,3,0,0,0,2.553,1.261,2.983,2.983,0,0,0,2.531-1.191,5.714,5.714,0,0,0,.923-3.415ZM53.244-4.4,52.225-3.34V0H50.6V-13.5h1.626v8.165l.87-1.046L56.057-9.51h1.978l-3.7,3.973L58.465,0H56.558Z" transform="translate(612 6592.633)" fill="#fff"/>
      <path id="Trazado_116665" data-name="Trazado 116665" d="M-37.661-5.01V0h-1.687V-12.8h4.72a4.742,4.742,0,0,1,3.292,1.072,3.635,3.635,0,0,1,1.191,2.839,3.587,3.587,0,0,1-1.165,2.87A4.954,4.954,0,0,1-34.646-5.01Zm0-1.38h3.032a3.032,3.032,0,0,0,2.074-.638,2.334,2.334,0,0,0,.721-1.845,2.411,2.411,0,0,0-.721-1.831,2.84,2.84,0,0,0-1.978-.713h-3.129ZM-24.416.176a4.155,4.155,0,0,1-3.146-1.27,4.714,4.714,0,0,1-1.213-3.4v-.3a5.707,5.707,0,0,1,.541-2.527,4.217,4.217,0,0,1,1.512-1.74,3.8,3.8,0,0,1,2.1-.628,3.562,3.562,0,0,1,2.883,1.222,5.289,5.289,0,0,1,1.028,3.5v.677h-6.442a3.38,3.38,0,0,0,.822,2.272,2.583,2.583,0,0,0,2,.866A2.832,2.832,0,0,0-22.869-1.5a3.666,3.666,0,0,0,1.046-.932l.993.773A3.993,3.993,0,0,1-24.416.176Zm-.2-8.525a2.169,2.169,0,0,0-1.652.716A3.482,3.482,0,0,0-27.1-5.625h4.764v-.123A3.1,3.1,0,0,0-23-7.668,2.042,2.042,0,0,0-24.618-8.35Zm5.4,3.516a5.571,5.571,0,0,1,1.037-3.52,3.28,3.28,0,0,1,2.716-1.332,3.3,3.3,0,0,1,2.646,1.143V-13.5H-11.2V0h-1.494l-.079-1.02a3.311,3.311,0,0,1-2.716,1.2A3.248,3.248,0,0,1-18.18-1.178a5.634,5.634,0,0,1-1.042-3.533Zm1.626.185a4.218,4.218,0,0,0,.668,2.531,2.159,2.159,0,0,0,1.846.914,2.372,2.372,0,0,0,2.259-1.389V-6.961a2.39,2.39,0,0,0-2.241-1.345,2.17,2.17,0,0,0-1.863.923A4.644,4.644,0,0,0-17.6-4.649ZM-6.908,0H-8.534V-9.51h1.626ZM-8.666-12.032a.971.971,0,0,1,.242-.668.907.907,0,0,1,.716-.272.922.922,0,0,1,.721.272.96.96,0,0,1,.246.668.929.929,0,0,1-.246.659.938.938,0,0,1-.721.264.924.924,0,0,1-.716-.264A.938.938,0,0,1-8.666-12.032Zm3.964,7.2a5.571,5.571,0,0,1,1.037-3.52A3.28,3.28,0,0,1-.949-9.686,3.3,3.3,0,0,1,1.7-8.543V-13.5H3.322V0H1.828L1.749-1.02A3.311,3.311,0,0,1-.967.176,3.248,3.248,0,0,1-3.661-1.178,5.634,5.634,0,0,1-4.7-4.711Zm1.626.185a4.218,4.218,0,0,0,.668,2.531A2.159,2.159,0,0,0-.562-1.2,2.372,2.372,0,0,0,1.7-2.593V-6.961A2.39,2.39,0,0,0-.545-8.306a2.17,2.17,0,0,0-1.863.923A4.644,4.644,0,0,0-3.076-4.649Zm8.49-.193a5.617,5.617,0,0,1,.549-2.514A4.1,4.1,0,0,1,7.493-9.079a4.163,4.163,0,0,1,2.237-.606,4.01,4.01,0,0,1,3.142,1.345,5.174,5.174,0,0,1,1.2,3.577v.114a5.666,5.666,0,0,1-.532,2.492A4.038,4.038,0,0,1,12.019-.439,4.211,4.211,0,0,1,9.747.176,4,4,0,0,1,6.614-1.169a5.147,5.147,0,0,1-1.2-3.56Zm1.635.193a4.068,4.068,0,0,0,.734,2.54,2.349,2.349,0,0,0,1.964.958,2.335,2.335,0,0,0,1.969-.971,4.449,4.449,0,0,0,.729-2.72A4.061,4.061,0,0,0,11.7-7.378,2.361,2.361,0,0,0,9.729-8.35a2.335,2.335,0,0,0-1.942.958A4.416,4.416,0,0,0,7.049-4.649ZM30.665-5.985A7.916,7.916,0,0,1,30.032-2.7a4.793,4.793,0,0,1-1.793,2.14,4.933,4.933,0,0,1-2.707.738,4.891,4.891,0,0,1-2.681-.743,4.908,4.908,0,0,1-1.815-2.118,7.6,7.6,0,0,1-.664-3.186v-.923a7.822,7.822,0,0,1,.642-3.261,4.891,4.891,0,0,1,1.815-2.167,4.87,4.87,0,0,1,2.685-.751,4.961,4.961,0,0,1,2.711.743,4.784,4.784,0,0,1,1.806,2.153,7.955,7.955,0,0,1,.633,3.283Zm-1.679-.826a5.738,5.738,0,0,0-.914-3.494,3.015,3.015,0,0,0-2.558-1.217A2.982,2.982,0,0,0,23-10.305a5.62,5.62,0,0,0-.945,3.379v.94a5.746,5.746,0,0,0,.927,3.467,3,3,0,0,0,2.553,1.261,2.983,2.983,0,0,0,2.531-1.191,5.714,5.714,0,0,0,.923-3.415ZM35.6-4.4,34.576-3.34V0H32.95V-13.5h1.626v8.165l.87-1.046L38.408-9.51h1.978l-3.7,3.973L40.816,0H38.909Z" transform="translate(346.222 6840.225)" fill="#fff"/>
    </g>
  </g>
</svg>
