<svg xmlns="http://www.w3.org/2000/svg" width="80" height="80" viewBox="0 0 80 80">
  <g id="Grupo_79942" data-name="Grupo 79942" transform="translate(-180 -1483)">
    <g id="Grupo_79290" data-name="Grupo 79290" transform="translate(-151 476)">
      <circle id="Elipse_4698" data-name="Elipse 4698" cx="40" cy="40" r="40" transform="translate(331 1007)" fill="#1565c0"/>
    </g>
    <path id="Trazado_116635" data-name="Trazado 116635" d="M3.48,22.179H6.741q3.876,0,3.876-3.794a3.281,3.281,0,0,0-.923-2.41,3.5,3.5,0,0,0-2.6-.933,3.746,3.746,0,0,0-2.389.8,2.44,2.44,0,0,0-1.015,1.989H-3.226a7.075,7.075,0,0,1,1.313-4.2,8.667,8.667,0,0,1,3.64-2.881A12.446,12.446,0,0,1,6.844,9.71q4.983,0,7.834,2.276a7.567,7.567,0,0,1,2.851,6.255,6.307,6.307,0,0,1-1.179,3.64,8.4,8.4,0,0,1-3.435,2.779,8.028,8.028,0,0,1,3.732,2.615A6.886,6.886,0,0,1,18,31.612a7.7,7.7,0,0,1-3.076,6.4,12.769,12.769,0,0,1-8.08,2.4A13.242,13.242,0,0,1,1.4,39.292a8.531,8.531,0,0,1-3.8-3.1,8.051,8.051,0,0,1-1.292-4.5H3.255a3.112,3.112,0,0,0,1.107,2.379,3.91,3.91,0,0,0,2.728,1A4.1,4.1,0,0,0,10,34.063a3.393,3.393,0,0,0,1.087-2.594,3.967,3.967,0,0,0-1.128-3.2,4.715,4.715,0,0,0-3.117-.943H3.48Z" transform="translate(213 1498)" fill="#fff"/>
  </g>
</svg>
