<svg xmlns="http://www.w3.org/2000/svg" width="73" height="73" viewBox="0 0 73 73">
  <g id="Grupo_78389" data-name="Grupo 78389" transform="translate(-617 -763)">
    <path id="Trazado_113193" data-name="Trazado 113193" d="M36.5,0A36.5,36.5,0,1,1,0,36.5,36.5,36.5,0,0,1,36.5,0Z" transform="translate(617 763)" fill="#ffa726"/>
    <g id="_5Vx8d2" data-name="5Vx8d2" transform="translate(476.381 -2069.705)">
      <g id="Grupo_78388" data-name="Grupo 78388" transform="translate(151.619 2843.705)">
        <path id="Trazado_113180" data-name="Trazado 113180" d="M175.456,2923.123c-.044.839-.045.811-.907.846a4.726,4.726,0,0,1-3.642-1.133,3.97,3.97,0,0,1-1.163-1.894.389.389,0,0,0-.457-.346c-1.731.016-3.462.02-5.193,0-.369,0-.425.125-.414.444.022.629.01,1.259.006,1.888,0,.724-.3,1.033-1.007,1.034q-4.879,0-9.758,0c-.676,0-.984-.316-.986-1,0-1.853,0-3.707-.005-5.561a1.136,1.136,0,0,1,.342-.843,4.025,4.025,0,0,1,4.7-1.034v-1.841c0-1.207-.01-2.413.007-3.62,0-.295-.075-.381-.374-.376-1.206.017-2.413.009-3.62.006-.751,0-1.048-.3-1.049-1.044q0-3.148,0-6.3c0-.756.293-1.052,1.04-1.053q4.826,0,9.653,0c.759,0,1.054.291,1.058,1.036,0,.647.013,1.294-.005,1.941-.008.279.045.393.361.388,1.4-.018,2.8-.013,4.2,0a1.065,1.065,0,0,0,.579-.2c2.542-1.527,5.092-3.042,7.624-4.584a1.154,1.154,0,0,1,1.352,0c2.5,1.523,5.023,3.021,7.533,4.535a1.6,1.6,0,0,0,.881.25c1.259-.016,2.518-.018,3.777,0a.488.488,0,0,0,.557-.388c.265-.775.57-1.535.849-2.305a.933.933,0,0,1,.995-.677c.944.016,1.889-.008,2.833.011.3.006.375-.082.374-.376-.012-2.378,0-4.757-.01-7.135a1.663,1.663,0,0,0-1.716-1.727c-2.973-.008-5.946,0-8.918-.011-.281,0-.378.093-.46.345a4.166,4.166,0,0,1-4.173,3.02c-.874,0-1.75-.031-2.622.012-.481.024-.66-.12-.579-.591a1.136,1.136,0,0,0-.015-.26c-.275-.718-.109-.977.648-.986.856-.01,1.712,0,2.567,0a2.372,2.372,0,1,0,0-4.735c-.314,0-.629.006-.943,0-.708-.021-.865-.284-.6-.987.044-.839.044-.838.907-.84a6.234,6.234,0,0,1,2.075.206,4.019,4.019,0,0,1,2.674,2.665c.139.434.331.5.722.495,2.833-.015,5.665-.009,8.5-.007a3.369,3.369,0,0,1,3.609,3.6c0,2.291.01,4.581-.009,6.872,0,.373.1.46.459.453,1.189-.025,2.378-.014,3.567-.008.825,0,1.194.507.912,1.269-.8,2.157-1.612,4.308-2.417,6.462a.92.92,0,0,1-.95.665c-2.99-.006-5.98,0-8.971-.006a.85.85,0,0,1-.882-1.251c.243-.686.5-1.365.779-2.1-1.33,0-2.6,0-3.871,0a.993.993,0,0,0-.516.232c-2.516,1.5-5.034,3-7.538,4.527a1.183,1.183,0,0,1-1.4.01c-2.531-1.545-5.083-3.056-7.623-4.586a1.161,1.161,0,0,0-.635-.187c-1.364.009-2.728.016-4.092,0-.325,0-.416.077-.4.4.028.663.014,1.329.006,1.993a.856.856,0,0,1-.966.968c-1.224.007-2.448.014-3.672-.006-.32-.005-.408.07-.405.4q.025,3.147,0,6.295a.436.436,0,0,0,.38.51,2.961,2.961,0,0,0,1.349,0c.735-.152,1.469-.305,2.205-.449a.859.859,0,0,1,1.109.9c0,.07,0,.14,0,.21.03.448-.2,1.061.09,1.3s.864.075,1.315.076c1.381,0,2.763,0,4.144.007.272,0,.417-.041.513-.344a4.151,4.151,0,0,1,4.118-3.019c.892,0,1.785.03,2.675-.013.481-.023.66.12.578.591a1.137,1.137,0,0,0,.015.26c.275.717.109.977-.648.987-.856.01-1.712,0-2.567,0a2.372,2.372,0,1,0,0,4.734c.314,0,.629-.005.943,0C175.568,2922.157,175.725,2922.42,175.456,2923.123Z" transform="translate(-151.881 -2880.236)"/>
        <path id="Trazado_113181" data-name="Trazado 113181" d="M174.229,2858.033a6.9,6.9,0,0,1-2.793-.572c-2.022-.59-4.036-1.205-6.052-1.814a2.942,2.942,0,0,0-.875-.118c-4.1,0-8.209,0-12.313.014-.438,0-.582-.1-.532-.538.044-.38.019-.767.024-1.151.267-.236.6-.168.9-.168q5.216-.008,10.433,0c.157,0,.315,0,.472,0,.537-.018.593-.066.6-.618.007-1.485,0-2.971,0-4.456q0-1.048,0-2.1c0-.879,0-.881-.86-.881h-8.7c-.717,0-1.433,0-2.149,0a.909.909,0,0,1-.693-.168c0-.54-.194-1.226.065-1.576.246-.33.978-.1,1.494-.1q13.456-.01,26.912,0a2.4,2.4,0,0,1,2.566,2.49,2.367,2.367,0,0,1-1.42,2.1q-2.665,1.332-5.33,2.661c-.168.084-.327.189-.49.284a.289.289,0,0,1-.088.127c-.62.467-.616.465-.333,1.188.326.83.7,1.642.97,2.492a2.323,2.323,0,0,1-.593,2.371A1.834,1.834,0,0,1,174.229,2858.033Z" transform="translate(-151.619 -2843.705)"/>
        <path id="Trazado_113182" data-name="Trazado 113182" d="M283.671,3074.521a7.992,7.992,0,0,1,3.095.657c1.909.542,3.8,1.139,5.7,1.715a3.133,3.133,0,0,0,.925.133c4.122-.006,8.245,0,12.367-.014.393,0,.519.092.479.484s-.019.8-.024,1.2c-.267.236-.6.167-.9.168q-5.216.008-10.433,0c-.157,0-.315,0-.472,0-.537.018-.593.066-.6.618-.007,1.45,0,2.9,0,4.352q0,1.1,0,2.2c0,.879,0,.881.86.881h8.7c.716,0,1.433,0,2.15,0a.907.907,0,0,1,.693.168c0,.539.2,1.224-.063,1.574-.245.332-.976.1-1.492.1q-13.468.01-26.936,0a2.4,2.4,0,0,1-2.546-2.506,2.37,2.37,0,0,1,1.43-2.092q2.757-1.377,5.515-2.753c.106-.053.2-.123.306-.186a.287.287,0,0,1,.086-.129c.611-.471.607-.469.324-1.189-.326-.829-.7-1.64-.97-2.49a2.323,2.323,0,0,1,.593-2.369A1.83,1.83,0,0,1,283.671,3074.521Z" transform="translate(-255.811 -3038.332)"/>
        <path id="Trazado_113183" data-name="Trazado 113183" d="M152.061,2854.848c4.022,0,8.044.007,12.066-.008.4,0,.524.086.52.508q-.033,3.7,0,7.4c0,.423-.121.509-.52.508-4.022-.014-8.044-.008-12.066-.008Z" transform="translate(-151.992 -2853.095)" fill="#5489fe"/>
        <path id="Trazado_113184" data-name="Trazado 113184" d="M405.517,3109.646c-4.022,0-8.044-.007-12.066.007-.4,0-.524-.085-.52-.508q.033-3.7,0-7.4c0-.423.12-.509.52-.508,4.022.014,8.044.008,12.066.008Z" transform="translate(-355.113 -3060.881)" fill="#5489fe"/>
        <path id="Trazado_113185" data-name="Trazado 113185" d="M295.893,2899c1.677-.656,2.147-1.754,1.473-3.448-.309-.777-.6-1.562-.943-2.324-.178-.4-.162-.643.294-.768a3.856,3.856,0,0,0,.433-.175l3.031.017c.044.84.044.833.914.843a5.32,5.32,0,0,1,1.457.092,2.514,2.514,0,0,1-.569,4.936c-.96.025-1.922.033-2.881-.006-.474-.019-.67.111-.586.591a1.124,1.124,0,0,1-.014.26Z" transform="translate(-273.283 -2884.671)" fill="#feb301"/>
        <path id="Trazado_113186" data-name="Trazado 113186" d="M283.625,3074.532c-1.674.654-2.145,1.755-1.472,3.443.3.76.575,1.535.928,2.271.233.487.111.725-.361.871-.115.036-.225.087-.338.131l-3.042-.017c-.044-.84-.044-.833-.915-.843a5.466,5.466,0,0,1-1.406-.081,2.513,2.513,0,0,1,.57-4.949c.943-.016,1.887-.031,2.829.008.474.02.67-.111.586-.591a1.129,1.129,0,0,1,.015-.26Z" transform="translate(-255.764 -3038.344)" fill="#feb301"/>
        <path id="Trazado_113187" data-name="Trazado 113187" d="M283.548,2983.428c-1.984,1.189-3.91,2.286-5.767,3.487a1.6,1.6,0,0,1-2.036-.016c-1.842-1.2-3.756-2.284-5.636-3.414.026-.2.186-.219.3-.285q2.985-1.8,5.972-3.589c.209-.126.382-.257.662-.088C279.173,2980.817,281.317,2982.093,283.548,2983.428Z" transform="translate(-251.54 -2958.171)" fill="#ee5e3b"/>
        <path id="Trazado_113188" data-name="Trazado 113188" d="M166.874,2988.767c1.239,0,2.479.012,3.719-.008.341-.006.439.088.434.432q-.029,2.1,0,4.19c.005.346-.1.432-.435.43q-3.771-.021-7.542,0c-.341,0-.439-.087-.434-.432q.029-2.094,0-4.189c-.005-.347.1-.436.435-.431C164.324,2988.779,165.6,2988.767,166.874,2988.767Z" transform="translate(-160.892 -2966.027)" fill="#5489fe"/>
        <path id="Trazado_113189" data-name="Trazado 113189" d="M410.118,2988.77c-.627,1.665-1.227,3.243-1.812,4.827-.074.2-.2.21-.359.21H400.8c.183-.5.347-.948.515-1.4q.612-1.642,1.226-3.283c.073-.2.127-.364.417-.363C405.313,2988.776,407.673,2988.77,410.118,2988.77Z" transform="translate(-361.746 -2966.03)" fill="#5489fe"/>
        <path id="Trazado_113190" data-name="Trazado 113190" d="M166.8,3082.689c-1.257,0-2.514-.01-3.771.007-.316,0-.42-.074-.415-.405.019-1.326.015-2.653,0-3.98a.662.662,0,0,1,.287-.572,2.166,2.166,0,0,1,2.8.028,4.423,4.423,0,0,0,4.5,1.073c.81-.211.819-.177.819.662,0,.89-.019,1.781.009,2.671.012.395-.076.539-.507.528C169.283,3082.668,168.043,3082.689,166.8,3082.689Z" transform="translate(-160.894 -3040.641)" fill="#08d075"/>
        <path id="Trazado_113191" data-name="Trazado 113191" d="M250.311,2854.871c2.254,0,4.507.006,6.761-.005.459,0,.863.07.977.578.11.485-.223.715-.61.908q-3.533,1.759-7.059,3.532c-.727.364-.843.666-.539,1.427q.686,1.723,1.379,3.443c.112.279.239.562-.01.831a.716.716,0,0,1-.822.122q-3.552-1.072-7.11-2.125a.376.376,0,0,1-.322-.435c.01-2.638.015-5.276,0-7.914,0-.382.177-.365.44-.365Q246.852,2854.876,250.311,2854.871Z" transform="translate(-228.639 -2853.117)" fill="#fecdb5"/>
        <path id="Trazado_113192" data-name="Trazado 113192" d="M293.654,3096.173c-2.271,0-4.543-.006-6.814,0-.444,0-.822-.084-.943-.556s.2-.725.587-.919q3.487-1.731,6.967-3.475c.873-.437.97-.7.6-1.618q-.659-1.649-1.322-3.3c-.118-.294-.261-.592.02-.874.249-.248.531-.183.829-.093,2.334.706,4.669,1.41,7.01,2.094a.46.46,0,0,1,.4.539c-.013,2.585-.016,5.171,0,7.757,0,.386-.121.447-.47.445C298.232,3096.165,295.943,3096.173,293.654,3096.173Z" transform="translate(-264.832 -3047.41)" fill="#fecdb5"/>
      </g>
    </g>
  </g>
</svg>
