<svg xmlns="http://www.w3.org/2000/svg" width="505" height="562" viewBox="0 0 505 562">
  <g id="Grupo_79040" data-name="Grupo 79040" transform="translate(-180 -5009)">
    <rect id="Rectángulo_33774" data-name="Rectángulo 33774" width="505" height="562" transform="translate(180 5009)" fill="#f6f6f6"/>
    <g id="Grupo_79039" data-name="Grupo 79039" transform="translate(-4062 11700.82)">
      <g id="Grupo_78997" data-name="Grupo 78997" transform="translate(4279.589 -6650.673)">
        <path id="Trazado_114832" data-name="Trazado 114832" d="M2170.938,350.677a62.653,62.653,0,0,1,60.228,45.4H2110.711A62.653,62.653,0,0,1,2170.938,350.677Z" transform="translate(-1994.904 -347.182)" fill="#4dd0e1"/>
        <path id="Trazado_114833" data-name="Trazado 114833" d="M2381.709,386.892a43.237,43.237,0,0,1,41.563,31.333h-83.125A43.237,43.237,0,0,1,2381.709,386.892Z" transform="translate(-2135.193 -369.325)" fill="#4dd0e1"/>
        <path id="Trazado_114834" data-name="Trazado 114834" d="M1969.593,390.581c-8.09-27.992-40.147-48.9-78.466-48.9s-70.376,20.908-78.466,48.9Z" transform="translate(-1812.661 -341.681)" fill="#4dd0e1"/>
      </g>
      <g id="Grupo_78998" data-name="Grupo 78998" transform="translate(4664.806 -6549.14)">
        <path id="Trazado_114835" data-name="Trazado 114835" d="M2330.776,671.855a8.383,8.383,0,0,1,8.06,6.076h-16.119A8.384,8.384,0,0,1,2330.776,671.855Z" transform="translate(-2279.621 -666.926)" fill="#1565c0"/>
        <path id="Trazado_114836" data-name="Trazado 114836" d="M2223.675,664.457a12.35,12.35,0,0,1,11.872,8.95H2211.8A12.35,12.35,0,0,1,2223.675,664.457Z" transform="translate(-2211.803 -662.403)" fill="#1565c0"/>
        <path id="Trazado_114837" data-name="Trazado 114837" d="M2281.609,670.174c-1.821-6.3-9.035-11-17.659-11s-15.837,4.705-17.657,11Z" transform="translate(-2232.892 -659.17)" fill="#1565c0"/>
      </g>
      <g id="Grupo_78999" data-name="Grupo 78999" transform="translate(4346.263 -6615.594)">
        <path id="Trazado_114838" data-name="Trazado 114838" d="M2272.48,462.691A20.311,20.311,0,0,1,2292,477.41h-39.048A20.31,20.31,0,0,1,2272.48,462.691Z" transform="translate(-2148.554 -450.751)" fill="#1565c0"/>
        <path id="Trazado_114839" data-name="Trazado 114839" d="M2013.019,444.769a29.92,29.92,0,0,1,28.761,21.683h-57.522A29.92,29.92,0,0,1,2013.019,444.769Z" transform="translate(-1984.258 -439.793)" fill="#1565c0"/>
        <path id="Trazado_114840" data-name="Trazado 114840" d="M2153.367,458.621c-4.41-15.26-21.887-26.659-42.777-26.659s-38.367,11.4-42.777,26.659Z" transform="translate(-2035.348 -431.962)" fill="#1565c0"/>
      </g>
      <g id="Grupo_79004" data-name="Grupo 79004" transform="translate(4551.739 -6655.821)">
        <g id="Grupo_79003" data-name="Grupo 79003" transform="translate(0 0)">
          <g id="Grupo_79002" data-name="Grupo 79002" transform="translate(2.567)">
            <ellipse id="Elipse_4766" data-name="Elipse 4766" cx="36.683" cy="36.683" rx="36.683" ry="36.683" fill="#2d334a"/>
          </g>
          <path id="Trazado_114847" data-name="Trazado 114847" d="M1789.127,488.817s-1.084,16.637-24.1,21.228c0,0,16.632-6.891,16.576-22.229Z" transform="translate(-1765.022 -429.224)" fill="#2d334a"/>
        </g>
        <path id="Trazado_114848" data-name="Trazado 114848" d="M1821.771,435.064h0a3.415,3.415,0,0,1-2.415-1l-15.319-15.319a3.415,3.415,0,1,1,4.83-4.83l12.9,12.9,33.615-33.615a3.415,3.415,0,1,1,4.83,4.83l-36.029,36.029A3.415,3.415,0,0,1,1821.771,435.064Z" transform="translate(-1786.073 -382.378)" fill="#fff"/>
      </g>
      <g id="Grupo_79036" data-name="Grupo 79036" transform="translate(3366.715 16)">
        <path id="Trazado_114849" data-name="Trazado 114849" d="M1860.456,814.117c1.921-2.346,3.72-3.329,6.188-2.77a4.914,4.914,0,0,1,3.668,6.041l-19.692,74.977a2.268,2.268,0,0,1-4.421-1l.628-3.291C1854.3,835.4,1854.317,822.806,1860.456,814.117Z" transform="translate(-676.757 -7298.265)" fill="#f2d2b8"/>
        <path id="Trazado_114850" data-name="Trazado 114850" d="M1699.469,774.634c-8.012-4.677-7.953-9.764-6.792-12.912a4.884,4.884,0,0,1,6.259-4.189l74.41,21.736a2.264,2.264,0,0,1,.992,3.753,7.857,7.857,0,0,1-7.287,3.5C1751.856,785.1,1709.888,780.715,1699.469,774.634Z" transform="translate(-582.567 -7265.333)" fill="#f2d2b8"/>
        <path id="Trazado_114851" data-name="Trazado 114851" d="M1841.863,1012.379a10.959,10.959,0,0,0,3.323,2.314c3.638,4.6,10.306,14.758,8.032,16.6-.838.68-17.042-15.789-18.073-17.032-.727-.876,1.919-2.973,3.546-4.136a1.014,1.014,0,0,1,1.419.25A14.144,14.144,0,0,0,1841.863,1012.379Z" transform="translate(-669.948 -7419.79)" fill="#555a6c"/>
        <path id="Trazado_114852" data-name="Trazado 114852" d="M1706.77,757.334s62.477,17.466,65.542,20.927,2.772,5.348-4.738,34.417l-9.69,36.291-8.583-.922s5.918-54.506,9.31-60.078c0,0-63.469-6.783-65.891-12.112s-4.967-17.5-4.967-17.5Z" transform="translate(-579.899 -7265.333)" fill="#2d334a"/>
        <path id="Trazado_114853" data-name="Trazado 114853" d="M1692.3,935.732c2.453-1.782,4.441-2.277,6.688-1.111a4.915,4.915,0,0,1,2.018,6.773l-38.045,67.542a2.268,2.268,0,0,1-4.024-2.089l1.441-3.024C1680.952,954.758,1684.158,942.583,1692.3,935.732Z" transform="translate(-562.144 -7373.349)" fill="#f2d2b8"/>
        <path id="Trazado_114854" data-name="Trazado 114854" d="M1662.82,761.188c-1.169-9.2,2.9-12.255,6.106-13.25a4.978,4.978,0,0,1,.618-.324,4.914,4.914,0,0,1,6.515,2.738l28.068,72.26a2.264,2.264,0,0,1-2.372,3.072,7.856,7.856,0,0,1-7.212-3.65C1686.415,809.117,1664.34,773.155,1662.82,761.188Z" transform="translate(-564.53 -7259.146)" fill="#f2d2b8"/>
        <path id="Trazado_114855" data-name="Trazado 114855" d="M1655.089,1119.411a10.954,10.954,0,0,0,3.31,2.333c3.611,4.626,10.221,14.818,7.936,16.65-.842.675-16.95-15.888-17.974-17.136-.721-.88,1.937-2.962,3.571-4.116a1.015,1.015,0,0,1,1.418.258A14.134,14.134,0,0,0,1655.089,1119.411Z" transform="translate(-555.739 -7485.225)" fill="#555a6c"/>
        <path id="Trazado_114856" data-name="Trazado 114856" d="M1658.346,757.334s-4.994,20.8,31.187,69.913c0,0-11.187,8.565-28.84,64.323l7.225,1.462s32.674-56.87,33.612-58.968.985-4.37,0-7.341-22.833-61.177-22.833-61.177l-3.379-6.675Z" transform="translate(-561.776 -7265.333)" fill="#2d334a"/>
      </g>
      <g id="Grupo_78985" data-name="Grupo 78985" transform="translate(4343.502 -6432.627)">
        <path id="Trazado_114802" data-name="Trazado 114802" d="M1262.725,1037.017s11.96-2.687,14.514,7.191,5.149,14.821,11.262,13.821,25.175,11.037,10.925,32.313c-6.58,9.825-16.414,1.723-20.232,12.262-4.474,12.354-36.225,7.664-29.005-19.216,4.328-16.112,4.767-11.934,9.69-16.284s-4.278-26.233-4.278-26.233Z" transform="translate(-1249.126 -1006.514)" fill="#654c4e"/>
        <path id="Trazado_114803" data-name="Trazado 114803" d="M1292.381,1081.368c-4.74,2.3-4.038,12.258-4.015,12.391.274,1.555,3.121,2.747,4.984,2.262l42.789-19.127c.68-.144.461-1.275.341-1.959a1.276,1.276,0,0,0-.279-.6c-.792-1.425-3.645-3.424-5.31-3.4C1322.223,1071.089,1298.543,1078.371,1292.381,1081.368Z" transform="translate(-1273.089 -1027.46)" fill="#ffca28"/>
        <g id="Grupo_78984" data-name="Grupo 78984" transform="translate(52.502 11.997)">
          <path id="Trazado_114804" data-name="Trazado 114804" d="M1393.866,989.913c-2.6,8.593-10.076,27.778-9.594,33.449.4,4.7,7.879,4.688,8,4.712,1.419.288,3.57-1.389,3.772-3.1l2.075-34.458Z" transform="translate(-1384.25 -989.913)" fill="#edbea1"/>
        </g>
        <path id="Trazado_114805" data-name="Trazado 114805" d="M1409.74,975.745a4.837,4.837,0,0,1-2.58-3.439c-.708-3.814-1.8-11.051-.3-12.913,2.059-2.561,6.135,9.252,3.653,16.738Z" transform="translate(-1345.113 -959.037)" fill="#edbea1"/>
      </g>
      <g id="Grupo_78987" data-name="Grupo 78987" transform="translate(4462.363 -6424.693)">
        <path id="Trazado_114806" data-name="Trazado 114806" d="M1568.4,994.143a5.586,5.586,0,0,0-1.132-4.836c-2.853-3.456-8.452-9.793-11.211-9.848-3.8-.076,3.645,12.3,12.116,15.652Z" transform="translate(-1555.036 -979.458)" fill="#a45f4a"/>
        <g id="Grupo_78986" data-name="Grupo 78986" transform="translate(9.267 13.003)">
          <path id="Trazado_114807" data-name="Trazado 114807" d="M1583.63,1012.924c4.531,9.331,11.319,31.041,11.8,37.6.4,5.44-2.91,5.6-3.044,5.652-1.567.587-4.325-.936-4.867-2.85l-8.631-38.939Z" transform="translate(-1578.887 -1012.924)" fill="#039be5"/>
        </g>
      </g>
      <g id="Grupo_78989" data-name="Grupo 78989" transform="translate(4575.513 -6484.4)">
        <path id="Trazado_114808" data-name="Trazado 114808" d="M2030.783,1002.091c-10.444-3.441-26.954,5.042-26.541,17.048a11.254,11.254,0,0,1-.094,3.369c-.47,1.712-1.985,2.914-3.5,3.84-3.4,2.083-7.3,3.452-10.209,6.179-4.659,4.365-5.73,12.169-2.179,17.474,3.284,4.908,14.511,9.378,20.315,8.29s10.813-5.022,14.135-9.905a17.4,17.4,0,0,1,2.691-3.487c2.056-1.8,4.97-2.175,7.391-3.441,2.261-1.181,2.11-6.185,3.081-8.544,1.255-3.049-1.639-5.8-.729-8.97,1.066-3.713,3.612-7.017,3.842-10.873C2039.281,1008.165,2035.451,1003.629,2030.783,1002.091Z" transform="translate(-1986.153 -933.117)" fill="#2d334a"/>
        <path id="Trazado_114809" data-name="Trazado 114809" d="M2169.833,844.916a5.574,5.574,0,0,0,1.568-4.7c-.615-4.428-2.056-12.739-4.371-14.229-3.184-2.05-3.337,12.351,2.1,19.632Z" transform="translate(-2095.39 -825.789)" fill="#f5d1bc"/>
        <g id="Grupo_78988" data-name="Grupo 78988" transform="translate(62.98 16.845)">
          <path id="Trazado_114810" data-name="Trazado 114810" d="M2161.889,869.832c.138,10.346-2.932,32.827-5.277,38.952-1.945,5.081-5,3.826-5.144,3.814-1.664-.134-3.509-2.677-3.187-4.636l8.705-38.82Z" transform="translate(-2148.244 -869.142)" fill="#1565c0"/>
        </g>
        <path id="Trazado_114811" data-name="Trazado 114811" d="M2102.411,1004.388c-3.75,4.778-7.4,1.076-7.546,1.017-1.685-.687-2.334-4.183-1.334-6.165l24.573-43.055c.327-.73,1.549-.209,2.289.093a1.472,1.472,0,0,1,.607.46,5.984,5.984,0,0,1,1.485,5.537C2120.207,972,2107.287,998.176,2102.411,1004.388Z" transform="translate(-2051.52 -905.293)" fill="#1565c0"/>
      </g>
      <g id="Grupo_78990" data-name="Grupo 78990" transform="translate(4347.937 -6223.997)">
        <path id="Trazado_114812" data-name="Trazado 114812" d="M1614.664,1437.508a58.465,58.465,0,0,1,56.2,42.369h-112.4A58.464,58.464,0,0,1,1614.664,1437.508Z" transform="translate(-1453.737 -1434.246)" fill="#4dd0e1"/>
        <path id="Trazado_114813" data-name="Trazado 114813" d="M1306.793,1470.739c-7.549-26.121-37.463-45.631-73.221-45.631s-65.672,19.51-73.22,45.631Z" transform="translate(-1160.352 -1425.108)" fill="#4dd0e1"/>
      </g>
      <g id="Grupo_78991" data-name="Grupo 78991" transform="translate(4259.074 -6215.88)">
        <path id="Trazado_114814" data-name="Trazado 114814" d="M847.019,1512.86a25.46,25.46,0,0,0-24.474,18.451h48.948A25.46,25.46,0,0,0,847.019,1512.86Z" transform="translate(-822.545 -1497.893)" fill="#1565c0"/>
        <path id="Trazado_114815" data-name="Trazado 114815" d="M1268.068,1479.677a37.5,37.5,0,0,0-36.053,27.18h72.106A37.5,37.5,0,0,0,1268.068,1479.677Z" transform="translate(-1124.301 -1473.439)" fill="#1565c0"/>
        <path id="Trazado_114816" data-name="Trazado 114816" d="M943.731,1489.382c5.528-19.13,27.436-33.418,53.623-33.418s48.094,14.288,53.622,33.418Z" transform="translate(-911.852 -1455.964)" fill="#1565c0"/>
      </g>
      <g id="Grupo_78992" data-name="Grupo 78992" transform="translate(4510.78 -6201.899)">
        <path id="Trazado_114817" data-name="Trazado 114817" d="M1794.332,1543.836a15.539,15.539,0,0,0-14.937,11.261h29.875A15.539,15.539,0,0,0,1794.332,1543.836Z" transform="translate(-1779.394 -1534.701)" fill="#039be5"/>
        <path id="Trazado_114818" data-name="Trazado 114818" d="M2051.312,1523.584a22.89,22.89,0,0,0-22,16.589h44.009A22.89,22.89,0,0,0,2051.312,1523.584Z" transform="translate(-1963.566 -1519.777)" fill="#039be5"/>
        <path id="Trazado_114819" data-name="Trazado 114819" d="M1853.359,1529.507c3.374-11.676,16.745-20.4,32.727-20.4s29.354,8.72,32.728,20.4Z" transform="translate(-1833.902 -1509.111)" fill="#039be5"/>
      </g>
      <g id="Grupo_78993" data-name="Grupo 78993" transform="translate(4564.618 -6210.132)">
        <path id="Trazado_114820" data-name="Trazado 114820" d="M2496.86,1533.71a25.012,25.012,0,0,1,24.044,18.127h-48.088A25.012,25.012,0,0,1,2496.86,1533.71Z" transform="translate(-2344.244 -1519.006)" fill="#26a69a"/>
        <path id="Trazado_114821" data-name="Trazado 114821" d="M2019.476,1501.111a36.846,36.846,0,0,1,35.419,26.7h-70.839A36.846,36.846,0,0,1,2019.476,1501.111Z" transform="translate(-1984.057 -1494.983)" fill="#26a69a"/>
        <path id="Trazado_114822" data-name="Trazado 114822" d="M2241.4,1510.644c-5.431-18.793-26.954-32.83-52.68-32.83s-47.249,14.037-52.68,32.83Z" transform="translate(-2096.061 -1477.814)" fill="#26a69a"/>
      </g>
      <g id="Grupo_78994" data-name="Grupo 78994" transform="translate(4294.824 -6192.965)">
        <path id="Trazado_114823" data-name="Trazado 114823" d="M969.978,1569.873a11.992,11.992,0,0,0-11.528,8.691h23.056A11.992,11.992,0,0,0,969.978,1569.873Z" transform="translate(-958.45 -1562.823)" fill="#039be5"/>
        <path id="Trazado_114824" data-name="Trazado 114824" d="M1168.308,1554.242a17.666,17.666,0,0,0-16.982,12.8h33.965A17.666,17.666,0,0,0,1168.308,1554.242Z" transform="translate(-1100.589 -1551.304)" fill="#039be5"/>
        <path id="Trazado_114825" data-name="Trazado 114825" d="M1015.533,1558.813c2.6-9.011,12.923-15.741,25.258-15.741s22.654,6.73,25.258,15.741Z" transform="translate(-1000.517 -1543.072)" fill="#039be5"/>
      </g>
      <g id="Grupo_78995" data-name="Grupo 78995" transform="translate(4589.705 -6193.522)">
        <path id="Trazado_114826" data-name="Trazado 114826" d="M2388.342,1574.627a15.068,15.068,0,0,1,14.485,10.919h-28.969A15.068,15.068,0,0,1,2388.342,1574.627Z" transform="translate(-2296.406 -1565.769)" fill="#1565c0"/>
        <path id="Trazado_114827" data-name="Trazado 114827" d="M2100.763,1554.989a22.2,22.2,0,0,1,21.337,16.085h-42.674A22.2,22.2,0,0,1,2100.763,1554.989Z" transform="translate(-2079.426 -1551.297)" fill="#1565c0"/>
        <path id="Trazado_114828" data-name="Trazado 114828" d="M2234.453,1560.732c-3.272-11.321-16.237-19.777-31.735-19.777s-28.463,8.456-31.735,19.777Z" transform="translate(-2146.898 -1540.955)" fill="#1565c0"/>
      </g>
      <g id="Grupo_78996" data-name="Grupo 78996" transform="translate(4685.975 -6184.706)">
        <path id="Trazado_114829" data-name="Trazado 114829" d="M2607.805,1592.176a7.922,7.922,0,0,1,7.615,5.741h-15.23A7.922,7.922,0,0,1,2607.805,1592.176Z" transform="translate(-2559.469 -1587.519)" fill="#999"/>
        <path id="Trazado_114830" data-name="Trazado 114830" d="M2456.607,1581.851a11.67,11.67,0,0,1,11.218,8.457h-22.436A11.67,11.67,0,0,1,2456.607,1581.851Z" transform="translate(-2445.389 -1579.91)" fill="#999"/>
        <path id="Trazado_114831" data-name="Trazado 114831" d="M2526.9,1584.87c-1.72-5.952-8.537-10.4-16.685-10.4s-14.965,4.446-16.685,10.4Z" transform="translate(-2480.863 -1574.472)" fill="#999"/>
      </g>
      <g id="Grupo_79000" data-name="Grupo 79000" transform="translate(4327.615 -6520.917)">
        <path id="Trazado_114841" data-name="Trazado 114841" d="M1358.979,747.878a10.622,10.622,0,0,1,10.211,7.7h-20.423A10.623,10.623,0,0,1,1358.979,747.878Z" transform="translate(-1294.164 -741.633)" fill="#1565c0"/>
        <path id="Trazado_114842" data-name="Trazado 114842" d="M1223.28,738.5a15.648,15.648,0,0,1,15.042,11.34h-30.084A15.648,15.648,0,0,1,1223.28,738.5Z" transform="translate(-1208.238 -735.902)" fill="#1565c0"/>
        <path id="Trazado_114843" data-name="Trazado 114843" d="M1296.683,745.749c-2.307-7.981-11.447-13.943-22.373-13.943s-20.066,5.962-22.372,13.943Z" transform="translate(-1234.958 -731.806)" fill="#1565c0"/>
      </g>
      <ellipse id="Elipse_4761" data-name="Elipse 4761" cx="11.629" cy="11.629" rx="11.629" ry="11.629" transform="translate(4653.177 -6578.184)" fill="#039be5"/>
      <ellipse id="Elipse_4762" data-name="Elipse 4762" cx="11.629" cy="11.629" rx="11.629" ry="11.629" transform="translate(4407.954 -6566.555)" fill="#4dd0e1"/>
      <ellipse id="Elipse_4763" data-name="Elipse 4763" cx="6.455" cy="6.455" rx="6.455" ry="6.455" transform="translate(4623.265 -6538.268)" fill="#4dd0e1"/>
      <ellipse id="Elipse_4764" data-name="Elipse 4764" cx="6.455" cy="6.455" rx="6.455" ry="6.455" transform="translate(4482.284 -6338.126)" fill="#1565c0"/>
      <g id="Grupo_79014" data-name="Grupo 79014" transform="translate(4248 -6492.753)">
        <rect id="Rectángulo_33985" data-name="Rectángulo 33985" width="406.537" height="55.978" transform="translate(41.528 37.802) rotate(-5.335)" fill="#999"/>
        <rect id="Rectángulo_33986" data-name="Rectángulo 33986" width="406.537" height="25.273" transform="translate(42.955 53.088) rotate(-5.335)" fill="#b3b3b3"/>
        <path id="Trazado_114894" data-name="Trazado 114894" d="M2393.759,807.8l.642-.484,24.717-18.445-2.131-22.82-27.705-13.553-.72-.352-.028-.016,0,.047c-1.542,2.1-2.371,5.643-2.006,9.554.363,3.893,1.818,7.2,3.71,8.992-1.528,2.109-2.345,5.631-1.982,9.519s1.818,7.2,3.711,8.992c-1.528,2.108-2.345,5.631-1.981,9.524.365,3.912,1.834,7.234,3.74,9.018l0,.042Z" transform="translate(-1942.23 -752.102)" fill="#fff"/>
        <path id="Trazado_114895" data-name="Trazado 114895" d="M2479.393,816.181v.021l15.981-11.928a1.4,1.4,0,0,0-.2-2.132l-17.538-8.579v0l-2.4-1.184c.005.237.021.479.043.724a9.3,9.3,0,0,0,2.375,5.76,10.611,10.611,0,0,0,1.107,11.86,9.315,9.315,0,0,0-1.268,6.1c.023.245.052.485.091.719Z" transform="translate(-2002.505 -779.424)" fill="#666"/>
        <path id="Trazado_114896" data-name="Trazado 114896" d="M1003.357,880.021l4.028,43.137a5.155,5.155,0,0,0,5.612,4.654l48.876-4.564a5.154,5.154,0,0,0,4.653-5.612L1062.5,874.5a5.155,5.155,0,0,0-5.612-4.653l-48.876,4.564A5.155,5.155,0,0,0,1003.357,880.021Z" transform="translate(-1003.334 -831.998)" fill="#fac1ad"/>
        <rect id="Rectángulo_33987" data-name="Rectángulo 33987" width="59.399" height="59.425" rx="8.208" transform="matrix(0.996, -0.093, 0.093, 0.996, 25.216, 37.585)" fill="#2d334a"/>
        <rect id="Rectángulo_33988" data-name="Rectángulo 33988" width="5.211" height="59.425" transform="matrix(0.996, -0.093, 0.093, 0.996, 64.578, 33.909)" fill="#747888"/>
        <rect id="Rectángulo_33989" data-name="Rectángulo 33989" width="5.211" height="59.425" transform="translate(39.79 36.224) rotate(-5.335)" fill="#747888"/>
        <path id="Trazado_114897" data-name="Trazado 114897" d="M1241.361,867.647a1.809,1.809,0,1,1-1.633,1.97A1.809,1.809,0,0,1,1241.361,867.647Z" transform="translate(-1163.8 -830.516)" fill="#747888"/>
        <path id="Trazado_114898" data-name="Trazado 114898" d="M1254.771,1011.241a1.809,1.809,0,1,1-1.633,1.97A1.809,1.809,0,0,1,1254.771,1011.241Z" transform="translate(-1172.902 -927.992)" fill="#747888"/>
        <ellipse id="Elipse_4767" data-name="Elipse 4767" cx="1.809" cy="1.809" rx="1.809" ry="1.809" transform="translate(77.873 63.862) rotate(-82.104)" fill="#747888"/>
        <path id="Trazado_114899" data-name="Trazado 114899" d="M1106.293,880.261a1.809,1.809,0,1,1-1.633,1.97A1.809,1.809,0,0,1,1106.293,880.261Z" transform="translate(-1072.112 -839.079)" fill="#747888"/>
        <ellipse id="Elipse_4768" data-name="Elipse 4768" cx="1.809" cy="1.809" rx="1.809" ry="1.809" transform="translate(36.109 89.34) rotate(-50.335)" fill="#747888"/>
        <path id="Trazado_114900" data-name="Trazado 114900" d="M1113.093,953.077a1.809,1.809,0,1,1-1.633,1.97A1.809,1.809,0,0,1,1113.093,953.077Z" transform="translate(-1076.728 -888.509)" fill="#747888"/>
      </g>
      <g id="Grupo_79028" data-name="Grupo 79028" transform="translate(4406.116 -6439.867)">
        <path id="Trazado_114947" data-name="Trazado 114947" d="M1527.175,1237.214c.642-8.983,5.1-11.11,8.339-11.447a4.742,4.742,0,0,1,6.33,3.658l12.938,74.13a2.2,2.2,0,0,1-2.844,2.472,7.626,7.626,0,0,1-6.168-4.849C1540.495,1287.333,1526.34,1248.895,1527.175,1237.214Z" transform="translate(-1481.731 -1114.709)" fill="#a45f4a"/>
        <path id="Trazado_114948" data-name="Trazado 114948" d="M1467.684,1426.757c1.509-2.527,3.094-3.729,5.545-3.545a4.77,4.77,0,0,1,4.386,5.275l-7.364,74.783c-.129,1.179-1.977,2.068-3.161,1.979a2.2,2.2,0,0,1-2.036-2.285l.132-3.249C1464.819,1448.07,1463.033,1435.979,1467.684,1426.757Z" transform="translate(-1443.457 -1235.606)" fill="#a45f4a"/>
        <path id="Trazado_114949" data-name="Trazado 114949" d="M1560.44,1427.906c1.753-2.365,3.451-3.4,5.871-2.975a4.77,4.77,0,0,1,3.839,5.686l-14.779,73.677c-.246,1.161-2.174,1.861-3.343,1.655a2.2,2.2,0,0,1-1.8-2.476l.455-3.219C1555.467,1448.827,1554.895,1436.619,1560.44,1427.906Z" transform="translate(-1495.837 -1236.611)" fill="#a45f4a"/>
        <path id="Trazado_114950" data-name="Trazado 114950" d="M1481.966,1231.116c3.507-8.295,8.412-8.871,11.586-8.144a4.741,4.741,0,0,1,4.811,5.5l-11.674,74.339a2.2,2.2,0,0,1-3.49,1.422,7.627,7.627,0,0,1-4.274-6.58C1478.4,1282.851,1477.406,1241.9,1481.966,1231.116Z" transform="translate(-1451.963 -1113.039)" fill="#a45f4a"/>
        <path id="Trazado_114951" data-name="Trazado 114951" d="M1553.45,1626.468a9.162,9.162,0,0,1-4.4.9,13.058,13.058,0,0,1-2.831-.273,1.06,1.06,0,0,0-1.285.841c-.354,2.02-.714,5.121.382,5.241,1.631.179,25.1.763,25.228-.326C1570.889,1629.979,1559.511,1627.342,1553.45,1626.468Z" transform="translate(-1492.394 -1359.898)" fill="#3b3e54"/>
        <path id="Trazado_114952" data-name="Trazado 114952" d="M1470.021,1626.613a9.179,9.179,0,0,1-4.392.952,13.1,13.1,0,0,1-2.834-.24,1.06,1.06,0,0,0-1.275.856c-.33,2.024-.654,5.129.443,5.236,1.633.16,25.1.47,25.222-.62C1487.5,1629.92,1476.092,1627.416,1470.021,1626.613Z" transform="translate(-1441.415 -1359.986)" fill="#3b3e54"/>
        <path id="Trazado_114953" data-name="Trazado 114953" d="M1466.64,1216.58s-6.293,13.642-4.6,77.415c0,0-12.222,15.315-4.69,73h9.294s5.777-61.917,7.392-70.377,15.486-80.073,13.358-83.109S1466.64,1216.58,1466.64,1216.58Z" transform="translate(-1437.556 -1106.877)" fill="#2d334a"/>
        <path id="Trazado_114954" data-name="Trazado 114954" d="M1529.74,1374.188h-7.725s-2.822-49.995,8.716-70.569c0,0-27.458-68.011-26.613-79.193h24.3s15,73.809,14.614,82.27S1529.74,1374.188,1529.74,1374.188Z" transform="translate(-1467.643 -1114.068)" fill="#2d334a"/>
        <path id="Trazado_114955" data-name="Trazado 114955" d="M1505.724,1032.3c-3.853-4.714.568-7.477.657-7.6,1.041-1.5,4.6-1.368,6.324.044l36.742,33.464c.643.48-.135,1.561-.592,2.219a1.48,1.48,0,0,1-.583.494,6,6,0,0,1-5.743.24C1533.51,1056.8,1510.734,1038.428,1505.724,1032.3Z" transform="translate(-1467.674 -991.288)" fill="#039be5"/>
        <g id="Grupo_79026" data-name="Grupo 79026" transform="translate(19.97 29.101)">
          <path id="Trazado_114956" data-name="Trazado 114956" d="M1461.82,1059.37c.05,1.168.132,2.409.222,3.654.209,2.887.51,5.811.876,8.737.147,1.18.314,2.4.5,3.639.4,2.614.872,5.231,1.4,7.872.232,1.161.495,2.367.766,3.582.41,1.837.869,3.715,1.352,5.579.3,1.147.617,2.345.952,3.519.44,1.544.921,3.149,1.4,4.688a46.035,46.035,0,0,1,10.194-1.424c5.715-.047,11.348,1.156,17.05.669a35.85,35.85,0,0,0,8.408-2.005c-.3-.835-.623-1.715-.917-2.535-.418-1.166-.839-2.348-1.236-3.489-.455-1.307-.889-2.577-1.321-3.859-.183-.54-.36-1.062-.53-1.573-.219-.657-.454-1.361-.656-1.981-.731-2.236-1.472-4.563-2.139-6.752-.378-1.237-.733-2.45-1.063-3.585-.548-1.884-1.074-3.822-1.549-5.6-.339-1.27-.643-2.622-.931-3.7-.2-.754-.433-2.044-.565-2.565-2.135-8.5-3.4-19.472-2-27.434,1.272-7.245-.812-10.222-4.778-14.992a11.48,11.48,0,0,0-1.6-1.3c-6.57-5.224-14.833-3.979-19.59,2.88a11.683,11.683,0,0,0-1.766,4.184,86.729,86.729,0,0,0-1.864,11.178c-.157,1.417-.29,3.077-.4,4.7A160.756,160.756,0,0,0,1461.82,1059.37Z" transform="translate(-1461.669 -1015.299)" fill="#039be5"/>
        </g>
        <path id="Trazado_114957" data-name="Trazado 114957" d="M1482.057,993.978c.253.253,4.312,5.3,5.32,5.08,1.383-.3-.467-4.616-.467-4.616Z" transform="translate(-1454.165 -973.161)" fill="#2d334a"/>
        <path id="Trazado_114958" data-name="Trazado 114958" d="M1499.973,950.391s.449-3.328-1.323-5.029c-1.684-1.616-4.224-3.092-11.3.816a2.4,2.4,0,0,0-1.112,2.853l1.031,3.1Z" transform="translate(-1456.649 -942.413)" fill="#2d334a"/>
        <path id="Trazado_114959" data-name="Trazado 114959" d="M1486.928,964.3c2.133,4.268,4.217,7.647,7.677,8.623a9.048,9.048,0,0,0,7.148-.868c2.636-1.513,3.544-3.454,3.421-5.773-.138-2.658-1.629-5.813-3.416-9.391-3.348-6.7-8.372-8.453-12.468-6.407S1483.58,957.6,1486.928,964.3Z" transform="translate(-1456.041 -946.077)" fill="#a45f4a"/>
        <path id="Trazado_114960" data-name="Trazado 114960" d="M1489.36,981.565l8.118-1.308c.18,1.112,1.7,11.709,1.537,15.748-.223,1.255-2.224,1.949-4.47,1.551-2.019-.358-3.535-1.478-3.662-2.612l-.01,0C1490.971,992.52,1489.985,985.449,1489.36,981.565Z" transform="translate(-1458.631 -964.772)" fill="#a45f4a"/>
        <path id="Trazado_114961" data-name="Trazado 114961" d="M1474.832,968.476a3.754,3.754,0,0,0,3.058-2.233c1.315-2.834,1.638-8.137,1.411-10.426-.4-4.028-1.821-4.659-1.821-4.659s-6.963,2.97-7.69,5.867C1468.7,961.361,1474.832,968.476,1474.832,968.476Z" transform="translate(-1446.585 -946.979)" fill="#2d334a"/>
        <path id="Trazado_114962" data-name="Trazado 114962" d="M1488.665,975.883l4.88,9.781a2.874,2.874,0,0,0,2.746,1.588l1.322-.079a1.293,1.293,0,0,0,1.173-1.62l-.567-2.155a1.121,1.121,0,0,1,.508-1.247l4.255-2.548a1.122,1.122,0,0,1,1.4.2l1.5,1.617a3.573,3.573,0,0,1-.592,5.368L1502.8,988.5a3.968,3.968,0,0,1-1.781.673,1.252,1.252,0,0,1-.146.017l-.087.005h0l-1.021.061h0l-3.338.2a5.088,5.088,0,0,1-4.859-2.81l-4.879-9.781Z" transform="translate(-1456.995 -962.097)" fill="#2d334a"/>
        <path id="Trazado_114963" data-name="Trazado 114963" d="M1489.452,951.795l4.335-2.119a6.73,6.73,0,0,1,4.679-.46l2.125.563-4.01-3.064-4.128.4-4.263,2.495Z" transform="translate(-1457.915 -944.262)" fill="#2d334a"/>
        <path id="Trazado_114964" data-name="Trazado 114964" d="M1481.734,986.552c.719,1.456,3.082,2.6,4.136,2.083s.735-1.831.017-3.286-2.244-2.4-3.3-1.875A2.092,2.092,0,0,0,1481.734,986.552Z" transform="translate(-1453.764 -966.651)" fill="#a45f4a"/>
        <path id="Trazado_114965" data-name="Trazado 114965" d="M1496.864,952.569s14.343-8.552,12.439-10.568-7.549.728-7.549.728Z" transform="translate(-1463.219 -940.927)" fill="#fbbd5b"/>
        <path id="Trazado_114966" data-name="Trazado 114966" d="M1485.314,942.119l-13,19.53s-5.254-6.054-5.142-9.974,7.079-8.981,13.928-10.987C1484.921,939.566,1485.314,942.119,1485.314,942.119Z" transform="translate(-1445.061 -940.403)" fill="#fddca8"/>
        <path id="Trazado_114967" data-name="Trazado 114967" d="M1434.541,1034.066c4.091-4.51,7.479-.546,7.618-.478,1.636.807,2.035,4.35.895,6.26l-27.647,41.3c-.379.707-1.563.1-2.283-.257a1.477,1.477,0,0,1-.574-.5,6,6,0,0,1-1.09-5.644C1414.432,1065.178,1429.221,1039.93,1434.541,1034.066Z" transform="translate(-1410.835 -996.356)" fill="#039be5"/>
        <path id="Trazado_114968" data-name="Trazado 114968" d="M1458.98,1238.364a5.586,5.586,0,0,0,.332,4.955c2.253,3.874,6.75,11.036,9.463,11.538,3.733.691-1.6-12.726-9.414-17.412Z" transform="translate(-1439.793 -1122.03)" fill="#a45f4a"/>
        <g id="Grupo_79027" data-name="Grupo 79027" transform="translate(0 77.798)">
          <path id="Trazado_114969" data-name="Trazado 114969" d="M1428.57,1182.075c-6.043-8.431-16.4-28.68-17.984-35.063-1.312-5.294,1.921-6.013,2.045-6.085,1.445-.843,4.421.192,5.279,1.987L1433,1179.833Z" transform="translate(-1410.273 -1140.629)" fill="#039be5"/>
        </g>
      </g>
      <g id="Grupo_79032" data-name="Grupo 79032" transform="translate(4519.661 -6453.316)">
        <g id="Grupo_79029" data-name="Grupo 79029" transform="translate(81.96 56.879)">
          <path id="Trazado_114970" data-name="Trazado 114970" d="M2053.435,1140.952c-.75.12,3.541-28.386,4.577-31.217-1.006-11.809-4.3-32.87-2.4-42.682,2.389-12.324,2.569-16.858,13.165-14.088,3.335.872,7.869,10.058,9.163,16.628s2.726,7.137.107,19c-.932,4.217,3.348,31.226,5.53,38.766.627,2.167.907,9.481,2.12,11.727a14.215,14.215,0,0,1-4.348,2.587C2071.654,1144.323,2063.426,1139.356,2053.435,1140.952Z" transform="translate(-2053.348 -1052.181)" fill="#f5d1bc"/>
        </g>
        <path id="Trazado_114971" data-name="Trazado 114971" d="M2345.983,1466.912s-.952,5.635.047,5.84,23.528-1.507,25.014-2.658-3.507-2.18-3.507-2.18-10.911-1.622-17.072-1.537C2350.466,1466.377,2345.945,1466.591,2345.983,1466.912Z" transform="translate(-2150.069 -1248.56)" fill="#f5d1bc"/>
        <path id="Trazado_114972" data-name="Trazado 114972" d="M2274.334,1284.134c.342-2.864,1.281-4.573,3.547-5.387a4.675,4.675,0,0,1,6.032,2.969l22.559,70.209a2.157,2.157,0,0,1-4.058,1.459l-1.18-2.96C2280.281,1304.351,2273.855,1294.244,2274.334,1284.134Z" transform="translate(-2106.494 -1133.666)" fill="#f5d1bc"/>
        <path id="Trazado_114973" data-name="Trazado 114973" d="M2100.464,1278.236c-8.325-2.931-9.184-7.693-8.664-10.843a4.772,4.772,0,0,1-.011-.664,4.675,4.675,0,0,1,5.107-4.373l73.416,6.944a2.155,2.155,0,0,1,1.6,3.328,7.473,7.473,0,0,1-6.179,4.576C2151.283,1278.609,2111.289,1282.047,2100.464,1278.236Z" transform="translate(-1994.826 -1123.801)" fill="#f5d1bc"/>
        <path id="Trazado_114974" data-name="Trazado 114974" d="M2358.673,1466.37a28.582,28.582,0,0,1-10.346,2.944c-1.4.166-2.748.257-4.021.281-.055,2.012.091,4.333,1.064,4.329,1.716-.007,26.175-2.174,26.183-3.321C2371.57,1468.339,2364.777,1466.987,2358.673,1466.37Z" transform="translate(-2149.288 -1248.557)" fill="#454a5f"/>
        <path id="Trazado_114975" data-name="Trazado 114975" d="M2176.675,1334.968l7.929-3.321s-18.961-63.433-20.167-64.639-1.448-1.792-5.464-2.189-63.14-6.774-63.14-6.774l-18.616,4.318v17.4a422.057,422.057,0,0,0,75.844-3.792s3.087,17.873,15.513,42.058Z" transform="translate(-1985.982 -1121.177)" fill="#747888"/>
        <path id="Trazado_114976" data-name="Trazado 114976" d="M2021.505,1267.756c5.644-6.784,10.408-5.932,13.18-4.349a4.648,4.648,0,0,1,2.949,6.529l-32.056,66.412a2.155,2.155,0,0,1-3.677.344,7.476,7.476,0,0,1-2.14-7.386C2003.472,1315.269,2014.166,1276.578,2021.505,1267.756Z" transform="translate(-1938.47 -1123.777)" fill="#f5d1bc"/>
        <path id="Trazado_114977" data-name="Trazado 114977" d="M1850.979,1576.4s-5.7.412-5.663,1.431,7.047,22.5,8.518,23.67,1.285-3.925,1.285-3.925-1.013-10.984-2.558-16.948C1852.562,1580.629,1851.281,1576.288,1850.979,1576.4Z" transform="translate(-1844.187 -1315.835)" fill="#f5d1bc"/>
        <path id="Trazado_114978" data-name="Trazado 114978" d="M1909.083,1436.72c2.865-.924,4.857-.792,6.507.963a4.816,4.816,0,0,1-.51,6.895l-58.31,51.41a2.157,2.157,0,1,1-2.955-3.141l2.37-2.38C1892.081,1451.014,1899.25,1440.657,1909.083,1436.72Z" transform="translate(-1848.963 -1230.082)" fill="#f5d1bc"/>
        <path id="Trazado_114979" data-name="Trazado 114979" d="M1852.921,1589a28.586,28.586,0,0,1-5.314-9.352c-.493-1.317-.9-2.608-1.228-3.84-1.968.424-4.187,1.117-3.953,2.062.413,1.666,8.322,24.912,9.439,24.648C1854.069,1601.993,1853.77,1595.073,1852.921,1589Z" transform="translate(-1842.409 -1315.472)" fill="#454a5f"/>
        <path id="Trazado_114980" data-name="Trazado 114980" d="M1942.734,1259.831s-14.107,35.872-21.531,66.2c0,0-17.2,7.714-46.444,47.978l7.052,7.045s47.887-37.1,50.584-44.028,34.133-70.811,33.355-77.193Z" transform="translate(-1862.189 -1122.269)" fill="#747888"/>
        <path id="Trazado_114981" data-name="Trazado 114981" d="M1993.932,1047.372c4.509,3.265,1.226,7.208,1.177,7.355-.577,1.726-3.767,2.686-5.619,1.88l-40.335-20.328c-.681-.256-.242-1.509.012-2.268a1.6,1.6,0,0,1,.4-.641,5.544,5.544,0,0,1,5.039-1.971C1963.615,1032.761,1988.068,1043.126,1993.932,1047.372Z" transform="translate(-1907.456 -982.563)" fill="#1565c0"/>
        <path id="Trazado_114982" data-name="Trazado 114982" d="M2062.916,1004.6s-8.239-3.158-8.727-11.513c-.654-11.217,10.789-16.49,16.86-12.674,5.59,3.514,4.521,8.335,3.832,9.514S2062.916,1004.6,2062.916,1004.6Z" transform="translate(-1971.886 -950.665)" fill="#2d334a"/>
        <path id="Trazado_114983" data-name="Trazado 114983" d="M2070.386,1016.293l8.99-.635c.088,1.231.713,12.948.139,17.342-.366,1.348-2.618,1.911-5.031,1.256-2.169-.588-3.715-1.958-3.742-3.209l-.011,0C2071.075,1028.409,2070.688,1020.593,2070.386,1016.293Z" transform="translate(-1981.806 -972.969)" fill="#f5d1bc"/>
        <path id="Trazado_114984" data-name="Trazado 114984" d="M2071.479,1001.225c1.362,7.095,7.408,11.9,11.744,11.066s5.319-6.985,3.957-14.08-5.57-10.031-9.906-9.2S2070.116,994.129,2071.479,1001.225Z" transform="translate(-1982.263 -956.593)" fill="#f5d1bc"/>
        <path id="Trazado_114985" data-name="Trazado 114985" d="M2074.282,983.875s-1.811,9.5-10.635,12.7c-4.546,1.649-6-5.52-6-5.52l4.508-6.781s3.67-2.878,6.457-2.571C2068.848,981.73,2074.282,983.875,2074.282,983.875Z" transform="translate(-1974.015 -952.194)" fill="#2d334a"/>
        <path id="Trazado_114986" data-name="Trazado 114986" d="M2094.125,988.678s-7.9-2.9-9.066-5.659,2.9-2.4,2.9-2.4A10.435,10.435,0,0,1,2094.125,988.678Z" transform="translate(-1990.65 -951.535)" fill="#2d334a"/>
        <path id="Trazado_114987" data-name="Trazado 114987" d="M2065.626,972.737s3.6-2.762,1.2-6.125a4.29,4.29,0,0,0-7.567.48,4.415,4.415,0,0,0,1.562,5.525A4.875,4.875,0,0,0,2065.626,972.737Z" transform="translate(-1974.77 -941.733)" fill="#2d334a"/>
        <path id="Trazado_114988" data-name="Trazado 114988" d="M1903.446,919.67a5.583,5.583,0,0,1-1.57-1.059c-3.227-3.093-9.115-9.134-8.966-11.882.2-3.6,10.834,3.752,14.206,11.944Z" transform="translate(-1873.286 -905.791)" fill="#f5d1bc"/>
        <path id="Trazado_114989" data-name="Trazado 114989" d="M2062.562,1021.9c.7,1.651,3.243,3.062,4.438,2.552s.923-1.975.219-3.626-2.332-2.781-3.527-2.271A2.313,2.313,0,0,0,2062.562,1021.9Z" transform="translate(-1976.843 -974.667)" fill="#f5d1bc"/>
        <g id="Grupo_79030" data-name="Grupo 79030" transform="translate(28.661 11.662)">
          <path id="Trazado_114990" data-name="Trazado 114990" d="M1916.173,937.083c1.113,10.287,6.874,32.232,9.942,38.03,2.545,4.809,5.427,3.193,5.567,3.165,1.635-.334,3.16-3.082,2.6-4.987l-13.33-37.485Z" transform="translate(-1916.173 -935.805)" fill="#1565c0"/>
        </g>
        <g id="Grupo_79031" data-name="Grupo 79031" transform="translate(79.982 58.255)">
          <path id="Trazado_114991" data-name="Trazado 114991" d="M2077.786,1092.475a20.243,20.243,0,0,0,0-13.874l-6.606-20.276c-1.312-.856-3.176-2.067-3.176-2.067l-1.311,19.035-10.89-19.573s-3.883,2.606-7.154,5.369c0,0-.922,13.967,1.9,49.36.405,5.083-.7,16.321-2.3,29.254a34.217,34.217,0,0,0,12.749.314c2.56-.478,5.027-1.344,7.527-2.073a72.233,72.233,0,0,1,13.752-2.585C2079.434,1113.174,2076.753,1095.071,2077.786,1092.475Z" transform="translate(-2048.256 -1055.72)" fill="#1565c0"/>
        </g>
      </g>
      <g id="Grupo_79033" data-name="Grupo 79033" transform="translate(4333.187 -6381.612)">
        <path id="Trazado_114992" data-name="Trazado 114992" d="M1223.6,1174.005c-.8.222-.332.394-1.02.713,3.1-10.8,5.3-20.512,7.687-32.087.014-10.122,2.4-34.422,5.028-41.626,3.3-9.05,8.84-13.138,16.317-9.137,2.353,1.259,10.485,11.115,11.5,16.448,1.276,6.7,1.228,7.334-3.184,17.7-1.568,3.684-2.383,26.524-.926,33.307a92.609,92.609,0,0,1,2.973,20.139c-3.786-4.055-12.289-1.143-13.85-.652C1237.423,1182.174,1234.3,1171.051,1223.6,1174.005Z" transform="translate(-1222.578 -1090.333)" fill="#edbea1"/>
      </g>
      <path id="Trazado_114993" data-name="Trazado 114993" d="M1312.294,1627.813s-1.4,4.757-.559,5.037,20.427,1.12,21.826.28-2.8-2.239-2.8-2.239a123.959,123.959,0,0,0-14.551-3.078S1312.294,1627.533,1312.294,1627.813Z" transform="translate(3056.258 -7800.512)" fill="#edbea1"/>
      <path id="Trazado_114994" data-name="Trazado 114994" d="M1287.657,1456.7c1.119-2.239,9.092-3.691,11.182-3.691a4.056,4.056,0,0,1,4.054,4.195l-2.183,63.951a1.872,1.872,0,0,1-3.742,0l-.094-2.764C1289.133,1480.311,1284.3,1464.817,1287.657,1456.7Z" transform="translate(3071.478 -7693.705)" fill="#edbea1"/>
      <path id="Trazado_114995" data-name="Trazado 114995" d="M1269.529,1302.069c1.594-7.49,13.2-8.577,15.971-8.481a4.112,4.112,0,0,1,.571-.084,4.056,4.056,0,0,1,4.332,3.907l2.207,63.95a1.87,1.87,0,0,1-2.685,1.749c-2.286-.619-11.692-2.632-12.233-4.99C1274.872,1345.841,1267.456,1311.808,1269.529,1302.069Z" transform="translate(3082.121 -7596.168)" fill="#edbea1"/>
      <path id="Trazado_114996" data-name="Trazado 114996" d="M1323.319,1630.376a24.8,24.8,0,0,1-9.216,1.473c-1.22,0-2.394-.06-3.494-.171-.254,1.728-.366,3.743.472,3.84,1.479.171,22.776.817,22.9-.171C1334.229,1633.4,1328.514,1631.535,1323.319,1630.376Z" transform="translate(3056.896 -7802.154)" fill="#3b3e54"/>
      <path id="Trazado_114997" data-name="Trazado 114997" d="M1034.3,1354.735s.305-4.949-.576-5.035-20.163,3.457-21.34,4.586,3.226,1.56,3.226,1.56a123.9,123.9,0,0,0,14.87-.239S1034.358,1355.008,1034.3,1354.735Z" transform="translate(3239.257 -7630.534)" fill="#edbea1"/>
      <path id="Trazado_114998" data-name="Trazado 114998" d="M1123.7,1372.639c1.606,1.919-.242,9.81-1.075,11.726a4.057,4.057,0,0,1-5.464,2.045l-57.775-27.5a1.872,1.872,0,0,1,1.493-3.432l2.572,1.016C1101.46,1364.577,1117.6,1366.323,1123.7,1372.639Z" transform="translate(3211.046 -7633.985)" fill="#edbea1"/>
      <path id="Trazado_114999" data-name="Trazado 114999" d="M1210.628,1258.145c4.733-6.019,15.633-1.876,18.075-.569a4.111,4.111,0,0,1,.549.176,4.056,4.056,0,0,1,2.165,5.417l-26.218,58.37a1.869,1.869,0,0,1-3.181.385c-1.779-1.563-9.334-7.517-8.78-9.873C1196.122,1299.788,1204.473,1265.973,1210.628,1258.145Z" transform="translate(3128.566 -7572.611)" fill="#edbea1"/>
      <path id="Trazado_115000" data-name="Trazado 115000" d="M1021.209,1354.854a24.792,24.792,0,0,1,8.657-3.489c1.19-.272,2.347-.474,3.444-.612-.137-1.741-.477-3.73-1.315-3.638-1.48.163-22.386,4.275-22.288,5.265C1009.9,1354.337,1015.886,1354.881,1021.209,1354.854Z" transform="translate(3240.77 -7628.953)" fill="#3b3e54"/>
      <path id="Trazado_115001" data-name="Trazado 115001" d="M1280.443,1256.09s7.432,74.832,7.3,79.891-1.047,30.914-1.047,30.914l-24.052,2.181s.211-32.378,1.206-36c0,0-11.653-67.843-9.123-78.1Z" transform="translate(3091.171 -7572.611)" fill="#747888"/>
      <path id="Trazado_115002" data-name="Trazado 115002" d="M1189.626,1283.731s-20.543,41.784-23.642,41.526-35.963-9.23-35.963-9.23l7.563-21.558s15.4,4.3,16.988,4.017c1.9-.344.19-42.37,19.282-47.956l12.757,4.322Z" transform="translate(3167.203 -7569.897)" fill="#747888"/>
      <path id="Trazado_115003" data-name="Trazado 115003" d="M1152.99,965.51a4.835,4.835,0,0,0,3.133-2.943c1.355-3.634,3.679-10.575,2.525-12.667-1.587-2.877-7.637,8.057-6.482,15.858Z" transform="translate(3153.751 -7385.789)" fill="#edbea1"/>
      <path id="Trazado_115004" data-name="Trazado 115004" d="M1204.61,1083.772c4.117,3.729,1.637,20.161,1.572,20.3-.761,1.661-4.032,2.283-5.782,1.285l-37.688-31.8c-.648-.327-.075-1.53.26-2.26a1.614,1.614,0,0,1,.469-.6c1.249-1.387,4.777-2.906,6.465-2.464C1178.7,1070.542,1199.257,1078.924,1204.61,1083.772Z" transform="translate(3147.394 -7458.388)" fill="#ffca28"/>
      <g id="Grupo_79034" data-name="Grupo 79034" transform="translate(4305.676 -6422.554)">
        <path id="Trazado_115005" data-name="Trazado 115005" d="M1155.663,984.961c2.973,8.471,11.608,27.81,11.372,33.5-.2,4.717-7.668,5.026-7.787,5.055-1.406.349-3.626-1.232-3.9-2.932l-3.57-34.336Z" transform="translate(-1151.774 -984.961)" fill="#edbea1"/>
      </g>
      <path id="Trazado_115006" data-name="Trazado 115006" d="M1270.755,1023.009c-2.4.19-6.388,2.157-7.287,4.524s.12,3.187,2.368,4.04,9.073-.151,10.494-2.246C1278.448,1026.2,1274.535,1022.71,1270.755,1023.009Z" transform="translate(3085.806 -7430.768)" fill="#654c4e"/>
      <path id="Trazado_115007" data-name="Trazado 115007" d="M1264.971,1063.095l8.814-2c.231.994,3.647,10.633,3.746,14.3-.125,1.15-3.283,1.756-5.34,1.533-1.849-.2-4.309-.2-4.493-1.216l-.538-.6C1267.1,1072.909,1265.774,1066.571,1264.971,1063.095Z" transform="translate(3084.688 -7454.065)" fill="#edbea1"/>
      <path id="Trazado_115008" data-name="Trazado 115008" d="M1261.237,1047.034c3.473,5.677,10.242,7.859,13.711,5.736s3.375-8.6-.1-14.275-9.1-5.992-12.572-3.87S1257.764,1041.357,1261.237,1047.034Z" transform="translate(3088.28 -7437.144)" fill="#edbea1"/>
      <path id="Trazado_115009" data-name="Trazado 115009" d="M1251.137,1034.455c1.377-3.876,6.621-8.817,12.433-5.312a4.427,4.427,0,0,1,1.367,5.237l-7.042,4.675a1.7,1.7,0,0,0-.578,2.174l.827,1.646c-.661,3.063-3.417,3.214-3.381,3.986l-2.689-4.067S1249.76,1038.331,1251.137,1034.455Z" transform="translate(3093.414 -7433.799)" fill="#654c4e"/>
      <path id="Trazado_115010" data-name="Trazado 115010" d="M1257.308,1071.389c.77,1.462,3.207,2.568,4.266,2.01s.7-1.883-.071-3.345-2.349-2.378-3.408-1.821A2.131,2.131,0,0,0,1257.308,1071.389Z" transform="translate(3089.602 -7458.331)" fill="#edbea1"/>
      <path id="Trazado_115012" data-name="Trazado 115012" d="M1243.136,1099.474s1.133,2.016,1.718,11.908c.667,11.294-3.772,5.354-7.146,5,0,0-3.556,27.748-3.823,31.4s-3.578,11.027-.538,12.579,14.333,6.319,18.579,6.73,13.14,2.6,14.688,1.1a9.794,9.794,0,0,0,1.325-10.851s1.979-2.232.073-6.392-1.387-18.438-.953-19.609,5.455-10.448,4.874-13.449a70.379,70.379,0,0,0-3.005-7.326c-4.711-9.946-7.948-11.912-7.948-11.912s2.986,6.288.769,9.159-12.763-7.529-15.689-8.581C1243.883,1098.446,1243.136,1099.474,1243.136,1099.474Z" transform="translate(3104.804 -7477.03)" fill="#ffca28"/>
      <ellipse id="Elipse_4770" data-name="Elipse 4770" cx="6.455" cy="6.455" rx="6.455" ry="6.455" transform="translate(4258.161 -6452.107)" fill="#fff"/>
      <g id="Grupo_79037" data-name="Grupo 79037" transform="translate(4399.604 -6601.587)">
        <g id="Grupo_79038" data-name="Grupo 79038" transform="translate(0 0)">
          <g id="Grupo_79023" data-name="Grupo 79023" transform="translate(6.159 8.181)">
            <path id="Trazado_114905" data-name="Trazado 114905" d="M1692.3,935.732c2.453-1.782,4.441-2.277,6.688-1.111a4.915,4.915,0,0,1,2.018,6.773l-38.045,67.542a2.268,2.268,0,0,1-4.024-2.089l1.441-3.024C1680.952,954.758,1684.158,942.583,1692.3,935.732Z" transform="translate(-1601.748 -763.943)" fill="#f2d2b8"/>
            <path id="Trazado_114906" data-name="Trazado 114906" d="M1662.82,761.188c-1.169-9.2,2.9-12.255,6.106-13.25a4.978,4.978,0,0,1,.618-.324,4.914,4.914,0,0,1,6.515,2.738l28.068,72.26a2.264,2.264,0,0,1-2.372,3.072,7.856,7.856,0,0,1-7.212-3.65C1686.415,809.117,1664.34,773.155,1662.82,761.188Z" transform="translate(-1604.133 -649.739)" fill="#f2d2b8"/>
            <path id="Trazado_114907" data-name="Trazado 114907" d="M1655.089,1119.411a10.954,10.954,0,0,0,3.31,2.333c3.611,4.626,10.221,14.818,7.936,16.65-.842.675-16.95-15.888-17.974-17.136-.721-.88,1.937-2.962,3.571-4.116a1.015,1.015,0,0,1,1.418.258A14.134,14.134,0,0,0,1655.089,1119.411Z" transform="translate(-1595.342 -875.819)" fill="#555a6c"/>
            <path id="Trazado_114908" data-name="Trazado 114908" d="M1658.346,757.334s-4.994,20.8,31.187,69.913c0,0-11.187,8.565-28.84,64.323l7.225,1.462s32.674-56.87,33.612-58.968.985-4.37,0-7.341-22.833-61.177-22.833-61.177l-3.379-6.675Z" transform="translate(-1601.38 -655.926)" fill="#2d334a"/>
            <path id="Trazado_114909" data-name="Trazado 114909" d="M1921.28,577.906a5.41,5.41,0,0,0,4.79-.434c3.7-2.269,10.53-6.784,10.954-9.422.584-3.629-12.282,1.836-16.641,9.507Z" transform="translate(-1761.745 -539.486)" fill="#f2d2b8"/>
            <g id="Grupo_79015" data-name="Grupo 79015" transform="translate(118.836 34.97)">
              <path id="Trazado_114910" data-name="Trazado 114910" d="M1858.828,586.346c-10.026.6-31.573,5.162-37.337,7.866-4.781,2.243-3.349,5.113-3.328,5.25.248,1.6,2.841,3.207,4.714,2.758l36.966-11.175Z" transform="translate(-1817.947 -586.346)" fill="#26a69a"/>
            </g>
            <path id="Trazado_114911" data-name="Trazado 114911" d="M1709.017,571.871c-5.861-.632-5.763,4.416-5.82,4.555-.665,1.637,1.326,4.458,3.38,5.106l46.575,12.1c.729.268,1.194-.934,1.486-1.654a1.433,1.433,0,0,0,.093-.733,5.809,5.809,0,0,0-2.843-4.785C1743.583,581.449,1716.638,572.692,1709.017,571.871Z" transform="translate(-1628.867 -542.491)" fill="#26a69a"/>
            <path id="Trazado_114912" data-name="Trazado 114912" d="M1608.772,575.25c5.409-2.345,6.815,2.5,6.911,2.62,1.12,1.365.058,4.65-1.711,5.88L1573.1,609.141c-.616.473-1.418-.537-1.911-1.137a1.437,1.437,0,0,1-.306-.673,5.81,5.81,0,0,1,1.292-5.414C1578.612,594.667,1601.739,578.3,1608.772,575.25Z" transform="translate(-1547.894 -544.2)" fill="#26a69a"/>
            <g id="Grupo_79016" data-name="Grupo 79016" transform="translate(53.592 25.302)">
              <path id="Trazado_114913" data-name="Trazado 114913" d="M1650.625,600.794c-.11,1.142-.2,2.289-.278,3.455-.183,2.7-.288,5.468-.312,8.31-.009,1.146-.01,2.313.005,3.479.038,2.468.141,4.976.316,7.558q.111,1.7.266,3.46c.147,1.771.339,3.576.562,5.415.136,1.132.276,2.28.444,3.436q.321,2.282.709,4.63a39.239,39.239,0,0,1,9.969.187c5.457.814,10.759,2.774,16.274,2.9a32.188,32.188,0,0,0,8.34-1.02q-.292-1.274-.569-2.514c-.264-1.172-.513-2.317-.753-3.441-.272-1.288-.539-2.56-.777-3.786-.106-.516-.209-1.031-.307-1.54-.131-.654-.254-1.3-.376-1.94-.439-2.3-.824-4.492-1.17-6.6-.193-1.192-.375-2.352-.545-3.487-.279-1.884-.524-3.7-.737-5.434-.14-1.238-.275-2.425-.4-3.588-.078-.817-.153-1.614-.216-2.395-1.05-12.713.024-20.777,1.958-26.2a14.316,14.316,0,0,0-2.671-14.335l-1.354-1.535a12.734,12.734,0,0,0-21.427,3.593,77.907,77.907,0,0,0-3.312,10.251q-.542,2.163-1.028,4.372A137.067,137.067,0,0,0,1650.625,600.794Z" transform="translate(-1650.029 -561.464)" fill="#26a69a"/>
            </g>
            <g id="Grupo_79017" data-name="Grupo 79017" transform="translate(0 77.073)">
              <rect id="Rectángulo_33990" data-name="Rectángulo 33990" width="96.816" height="9.362" transform="matrix(0.97, -0.243, 0.243, 0.97, 12.579, 23.536)" fill="#735b5e"/>
              <rect id="Rectángulo_33991" data-name="Rectángulo 33991" width="96.816" height="4.227" transform="matrix(0.97, -0.243, 0.243, 0.97, 13.203, 26.027)" fill="#8e7b7d"/>
              <path id="Trazado_114914" data-name="Trazado 114914" d="M1788.163,703.785l.094-.1,3.617-3.677-.932-3.718-4.925-1.537-.128-.04-.005,0,0,.008a8.023,8.023,0,0,1,.667,4.646,2.769,2.769,0,0,1,.756,3.017,2.42,2.42,0,0,0,.847,1.4l0,.007Z" transform="translate(-1679.395 -694.711)" fill="#fff"/>
              <path id="Trazado_114915" data-name="Trazado 114915" d="M1799.555,702.317v0l2.339-2.378a.233.233,0,0,0-.088-.347l-3.117-.973h0l-.427-.135c.007.039.016.078.026.119a1.775,1.775,0,0,1,.484,1.933,1.775,1.775,0,0,1,.484,1.932c.01.04.021.079.033.117Z" transform="translate(-1687.075 -697.017)" fill="#563a3d"/>
              <rect id="Rectángulo_33992" data-name="Rectángulo 33992" width="9.935" height="8.971" rx="2.219" transform="translate(0 26.891) rotate(-14.07)" fill="#9597a3"/>
              <rect id="Rectángulo_33993" data-name="Rectángulo 33993" width="9.935" height="9.939" transform="matrix(0.97, -0.243, 0.243, 0.97, 4.109, 25.362)" fill="#2d334a"/>
              <rect id="Rectángulo_33994" data-name="Rectángulo 33994" width="0.872" height="9.939" transform="translate(10.523 23.754) rotate(-14.07)" fill="#747888"/>
              <rect id="Rectángulo_33995" data-name="Rectángulo 33995" width="0.872" height="9.939" transform="translate(6.484 24.767) rotate(-14.07)" fill="#747888"/>
              <path id="Trazado_114916" data-name="Trazado 114916" d="M1544.557,756.349a.3.3,0,1,1-.22.367A.3.3,0,0,1,1544.557,756.349Z" transform="translate(-1531.805 -732.391)" fill="#747888"/>
              <path id="Trazado_114917" data-name="Trazado 114917" d="M1549.4,775.688a.3.3,0,1,1-.22.367A.3.3,0,0,1,1549.4,775.688Z" transform="translate(-1534.77 -744.217)" fill="#747888"/>
              <path id="Trazado_114918" data-name="Trazado 114918" d="M1547.015,766.156a.3.3,0,1,1-.22.367A.3.3,0,0,1,1547.015,766.156Z" transform="translate(-1533.308 -738.388)" fill="#747888"/>
              <path id="Trazado_114919" data-name="Trazado 114919" d="M1526.365,760.908a.3.3,0,1,1-.22.367A.3.3,0,0,1,1526.365,760.908Z" transform="translate(-1520.683 -735.179)" fill="#747888"/>
              <path id="Trazado_114920" data-name="Trazado 114920" d="M1531.213,780.248a.3.3,0,1,1-.22.367A.3.3,0,0,1,1531.213,780.248Z" transform="translate(-1523.646 -747.005)" fill="#747888"/>
              <path id="Trazado_114921" data-name="Trazado 114921" d="M1528.823,770.715a.3.3,0,1,1-.22.367A.3.3,0,0,1,1528.823,770.715Z" transform="translate(-1522.186 -741.176)" fill="#747888"/>
            </g>
            <g id="Grupo_79021" data-name="Grupo 79021" transform="translate(24.407 79.322)">
              <path id="Trazado_114922" data-name="Trazado 114922" d="M1601.247,760.441c-13.154-13.443-14.184-13.332-26.331-29.032,13.387-7.676,25.142-21.156,37.677-30.917,8.429,10.147,14.863,16.741,24.014,26.137C1625.4,737.926,1610.271,747.858,1601.247,760.441Z" transform="translate(-1574.917 -700.492)" fill="#fff"/>
              <path id="Trazado_114923" data-name="Trazado 114923" d="M1680.045,740.362a111.694,111.694,0,0,1-17.8-19.271q1.412-1.152,2.85-2.272c5.854,8.855,9.49,12.269,17.66,18.935Q1681.406,739.065,1680.045,740.362Z" transform="translate(-1628.313 -711.698)" fill="#d1d1d1"/>
              <g id="Grupo_79018" data-name="Grupo 79018" transform="translate(26.11 12.354)">
                <path id="Trazado_114924" data-name="Trazado 114924" d="M1669.361,752.448a170.866,170.866,0,0,1-17.817-19.691c.187-.157.374-.313.562-.469a168.835,168.835,0,0,0,17.821,19.644Z" transform="translate(-1647.881 -732.287)" fill="#e6e6e6"/>
                <path id="Trazado_114925" data-name="Trazado 114925" d="M1664.581,756.606a158.149,158.149,0,0,1-17.79-19.833l.554-.468a156.324,156.324,0,0,0,17.8,19.8Z" transform="translate(-1644.974 -734.744)" fill="#e6e6e6"/>
                <path id="Trazado_114926" data-name="Trazado 114926" d="M1659.871,760.709a229.9,229.9,0,0,1-17.755-19.943l.544-.466a200.683,200.683,0,0,0,17.764,19.915Z" transform="translate(-1642.116 -737.187)" fill="#e6e6e6"/>
              </g>
              <g id="Grupo_79019" data-name="Grupo 79019" transform="translate(18.651 17.228)">
                <path id="Trazado_114927" data-name="Trazado 114927" d="M1654.586,765.3a224.93,224.93,0,0,1-17.747-20.006l.54-.464a227.725,227.725,0,0,0,17.748,19.993Z" transform="translate(-1631.43 -744.832)" fill="#e6e6e6"/>
                <path id="Trazado_114928" data-name="Trazado 114928" d="M1649.946,769.337a248.739,248.739,0,0,1-17.744-20.048l.54-.465a248.6,248.6,0,0,0,17.742,20.041Q1650.216,769.1,1649.946,769.337Z" transform="translate(-1628.595 -747.273)" fill="#e6e6e6"/>
                <path id="Trazado_114929" data-name="Trazado 114929" d="M1645.338,773.419c-6.63-6.641-11.693-12.992-17.773-19.949l.541-.493c6.064,6.942,11.156,13.359,17.765,19.98Z" transform="translate(-1625.76 -749.812)" fill="#e6e6e6"/>
                <path id="Trazado_114930" data-name="Trazado 114930" d="M1640.708,777.6c-6.542-6.875-11.763-12.332-17.789-19.776.179-.181.362-.358.547-.533,6.09,7.061,11.216,13.088,17.789,19.846C1641.074,777.294,1640.9,777.456,1640.708,777.6Z" transform="translate(-1622.919 -752.451)" fill="#e6e6e6"/>
              </g>
              <g id="Grupo_79020" data-name="Grupo 79020" transform="translate(10.697 24.195)">
                <path id="Trazado_114931" data-name="Trazado 114931" d="M1635.211,782.662c-6.758-7.008-11.5-11.479-17.743-19.329l.551-.57c6.167,7.681,11.08,12.512,17.762,19.443Z" transform="translate(-1611.632 -762.763)" fill="#e6e6e6"/>
                <path id="Trazado_114932" data-name="Trazado 114932" d="M1630.063,787.343c-8.262-7.309-11.183-9.739-17.563-19.049q.3-.286.59-.574c6.353,9.009,9.842,11.8,17.629,19.1C1630.5,786.995,1630.281,787.168,1630.063,787.343Z" transform="translate(-1608.594 -765.794)" fill="#e6e6e6"/>
                <path id="Trazado_114933" data-name="Trazado 114933" d="M1624.893,792.036c-9.641-7.8-10.723-8.1-17.4-18.978l.587-.534c6.458,10.345,8.167,11.473,17.425,18.985Z" transform="translate(-1605.536 -768.731)" fill="#e6e6e6"/>
                <path id="Trazado_114934" data-name="Trazado 114934" d="M1619.8,796.617c-11.916-8.3-10.164-6.607-17.347-19.167l.582-.482c6.777,11.845,6.037,11.308,17.342,19.094C1620.178,796.246,1619.982,796.427,1619.8,796.617Z" transform="translate(-1602.448 -771.449)" fill="#e6e6e6"/>
              </g>
            </g>
            <path id="Trazado_114935" data-name="Trazado 114935" d="M1739.1,542.516a8.315,8.315,0,0,0-.577-6.066c-1.62-2.779-2.462.547-2.462.547Z" transform="translate(-1649.042 -520.189)" fill="#2d334a"/>
            <path id="Trazado_114936" data-name="Trazado 114936" d="M1691.386,538.417c.176.3,2.759,6.009,3.757,6.051,1.369.057.68-4.441.68-4.441Z" transform="translate(-1621.725 -522.069)" fill="#2d334a"/>
            <path id="Trazado_114937" data-name="Trazado 114937" d="M1717.04,504.149s1.228-3.011-.022-5.036c-1.187-1.923-3.211-3.922-10.788-1.972a2.32,2.32,0,0,0-1.733,2.405l.215,3.157Z" transform="translate(-1629.738 -496.343)" fill="#2d334a"/>
            <path id="Trazado_114938" data-name="Trazado 114938" d="M1699.727,513.66c.966,4.518,2.1,8.19,5.108,9.944a8.759,8.759,0,0,0,6.911.918c2.838-.779,4.16-2.379,4.606-4.583.514-2.526-.119-5.844-.927-9.631-1.515-7.094-5.8-9.953-10.136-9.027S1698.212,506.567,1699.727,513.66Z" transform="translate(-1626.568 -499.259)" fill="#f2d2b8"/>
            <path id="Trazado_114939" data-name="Trazado 114939" d="M1697.288,531.534l7.961-.165c.024,1.09.061,11.456-.639,15.308-.382,1.174-2.395,1.571-4.494.887-1.888-.614-3.192-1.891-3.162-3l-.009,0C1697.363,542.256,1697.366,535.343,1697.288,531.534Z" transform="translate(-1625.124 -517.76)" fill="#f2d2b8"/>
            <path id="Trazado_114940" data-name="Trazado 114940" d="M1687.975,515.111a3.635,3.635,0,0,0,3.407-1.353c1.919-2.337,3.507-7.231,3.849-9.432.6-3.873-.578-4.809-.578-4.809s-7.248,1.1-8.632,3.638C1683.95,506.956,1687.975,515.111,1687.975,515.111Z" transform="translate(-1618.082 -498.284)" fill="#2d334a"/>
            <path id="Trazado_114941" data-name="Trazado 114941" d="M1701.75,523.18l2.2,10.352a2.781,2.781,0,0,0,2.189,2.153l1.259.246a1.252,1.252,0,0,0,1.492-1.234l-.009-2.158a1.085,1.085,0,0,1,.778-1.046l4.607-1.358a1.086,1.086,0,0,1,1.262.526l1.012,1.879a3.459,3.459,0,0,1-1.855,4.888l-2.747,1.007a3.843,3.843,0,0,1-1.833.2,1.337,1.337,0,0,1-.14-.02l-.083-.016h0l-.972-.19h0l-3.177-.621a4.927,4.927,0,0,1-3.875-3.811l-2.2-10.351Z" transform="translate(-1626.78 -512.753)" fill="#2d334a"/>
            <path id="Trazado_114942" data-name="Trazado 114942" d="M1707.6,502.249l4.578-.937a6.515,6.515,0,0,1,4.5.7l1.856,1.042-3.017-3.844-3.967-.625-4.6,1.306Z" transform="translate(-1631.237 -497.716)" fill="#2d334a"/>
            <path id="Trazado_114943" data-name="Trazado 114943" d="M1692.189,531.37c.321,1.539,2.259,3.188,3.373,2.955s1.133-1.537.812-3.076-1.524-2.789-2.638-2.557A2.026,2.026,0,0,0,1692.189,531.37Z" transform="translate(-1622.17 -516.106)" fill="#f2d2b8"/>
            <path id="Trazado_114944" data-name="Trazado 114944" d="M1643.2,726.483a5.406,5.406,0,0,0,3.34,3.46c4.086,1.461,11.885,3.955,14.207,2.633,3.195-1.819-9.128-8.421-17.837-7.011Z" transform="translate(-1592.087 -636.381)" fill="#f2d2b8"/>
            <g id="Grupo_79022" data-name="Grupo 79022" transform="translate(22.654 58.654)">
              <path id="Trazado_114945" data-name="Trazado 114945" d="M1599.712,680.438c-8.282-5.681-24.394-20.7-27.939-25.985-2.941-4.387-.235-6.108-.147-6.214,1.038-1.245,4.088-1.285,5.461.067L1603,676.937Z" transform="translate(-1570.405 -647.299)" fill="#26a69a"/>
            </g>
          </g>
        </g>
      </g>
    </g>
  </g>
</svg>
