<svg xmlns="http://www.w3.org/2000/svg" width="594" height="989" viewBox="0 0 594 989">
  <g id="Grupo_79294" data-name="Grupo 79294" transform="translate(-845.693 -1042)">
    <path id="Trazado_115786" data-name="Trazado 115786" d="M0-18.715V467.422" transform="translate(930.889 1537.884)" fill="none" stroke="#12263f" stroke-width="4"/>
    <g id="Rectángulo_34027" data-name="Rectángulo 34027" transform="translate(1029.693 1042)" fill="#1565c0" stroke="#1565c0" stroke-width="1">
      <rect width="200" height="64" stroke="none"/>
      <rect x="0.5" y="0.5" width="199" height="63" fill="none"/>
    </g>
    <g id="Rectángulo_34030" data-name="Rectángulo 34030" transform="translate(1221.693 1474)" fill="#1565c0" stroke="#1565c0" stroke-width="1">
      <rect width="200" height="65" stroke="none"/>
      <rect x="0.5" y="0.5" width="199" height="64" fill="none"/>
    </g>
    <g id="Rectángulo_34032" data-name="Rectángulo 34032" transform="translate(848.693 1655)" fill="#039be5" stroke="#1565c0" stroke-width="1">
      <rect width="201" height="64" rx="31" stroke="none"/>
      <rect x="0.5" y="0.5" width="200" height="63" rx="30.5" fill="none"/>
    </g>
    <g id="Trazado_116150" data-name="Trazado 116150" transform="translate(859.693 1830)" fill="#039be5">
      <path d="M 170 63.5 L 31 63.5 C 26.88229942321777 63.5 22.8880500793457 62.69364929199219 19.12817573547363 61.10337448120117 C 15.49632453918457 59.56722640991211 12.23447513580322 57.36797332763672 9.433250427246094 54.56674957275391 C 6.632024765014648 51.76552581787109 4.432775020599365 48.5036735534668 2.89662504196167 44.871826171875 C 1.306349992752075 41.1119499206543 0.5 37.11769866943359 0.5 33 L 0.5 31 C 0.5 26.88229942321777 1.306349992752075 22.8880500793457 2.89662504196167 19.12817573547363 C 4.432775020599365 15.49632453918457 6.632024765014648 12.23447513580322 9.433250427246094 9.433250427246094 C 12.23447513580322 6.632024765014648 15.49632453918457 4.432775020599365 19.12817573547363 2.89662504196167 C 22.8880500793457 1.306349992752075 26.88229942321777 0.5 31 0.5 L 170 0.5 C 174.1177062988281 0.5 178.1119537353516 1.306349992752075 181.871826171875 2.89662504196167 C 185.5036773681641 4.432775020599365 188.7655181884766 6.632024765014648 191.5667572021484 9.433250427246094 C 194.3679809570312 12.23447513580322 196.5672302246094 15.49632453918457 198.1033782958984 19.12817573547363 C 199.6936492919922 22.8880500793457 200.5 26.88229942321777 200.5 31 L 200.5 33 C 200.5 37.11769866943359 199.6936492919922 41.1119499206543 198.1033782958984 44.871826171875 C 196.5672302246094 48.5036735534668 194.3679809570312 51.76552581787109 191.5667572021484 54.56674957275391 C 188.7655181884766 57.36797332763672 185.5036773681641 59.56722640991211 181.871826171875 61.10337448120117 C 178.1119537353516 62.69364929199219 174.1177062988281 63.5 170 63.5 Z" stroke="none"/>
      <path d="M 31 1 C 26.9495849609375 1 23.02084350585938 1.793052673339844 19.32295227050781 3.357131958007812 C 15.75068664550781 4.868080139160156 12.54226684570312 7.031341552734375 9.786788940429688 9.786788940429688 C 7.03131103515625 12.54226303100586 4.868072509765625 15.75070953369141 3.357131958007812 19.32294845581055 C 1.793045043945312 23.02087020874023 1 26.94957733154297 1 31 L 1 33 C 1 37.05042266845703 1.793045043945312 40.97913360595703 3.357131958007812 44.67705535888672 C 4.868072509765625 48.24929046630859 7.03131103515625 51.45773696899414 9.786788940429688 54.21321105957031 C 12.54226684570312 56.96865844726562 15.75068664550781 59.13191986083984 19.32295227050781 60.64286804199219 C 23.02084350585938 62.20694732666016 26.9495849609375 63 31 63 L 170 63 C 174.0504150390625 63 177.9791564941406 62.20694732666016 181.6770477294922 60.64286804199219 C 185.2493133544922 59.13191986083984 188.4577331542969 56.96865844726562 191.2132110595703 54.21321105957031 C 193.9686889648438 51.45773696899414 196.1319274902344 48.24929046630859 197.6428680419922 44.67705535888672 C 199.2069396972656 40.97913360595703 200 37.05042266845703 200 33 L 200 31 C 200 26.94957733154297 199.2069396972656 23.02087020874023 197.6428680419922 19.32294845581055 C 196.1319274902344 15.75070953369141 193.9686889648438 12.54226303100586 191.2132110595703 9.786788940429688 C 188.4577331542969 7.031341552734375 185.2493133544922 4.868080139160156 181.6770477294922 3.357131958007812 C 177.9791564941406 1.793052673339844 174.0504150390625 1 170 1 L 31 1 M 31 0 L 170 0 C 187.120849609375 0 201 13.87918472290039 201 31 L 201 33 C 201 50.12081527709961 187.120849609375 64 170 64 L 31 64 C 13.879150390625 64 0 50.12081527709961 0 33 L 0 31 C 0 13.87918472290039 13.879150390625 0 31 0 Z" stroke="none" fill="#1565c0"/>
    </g>
    <path id="Trazado_115782" data-name="Trazado 115782" d="M3934.619-10694v25.8H3728v34.227" transform="translate(-2809.238 11800.326)" fill="none" stroke="#12263f" stroke-width="4"/>
    <path id="Trazado_115783" data-name="Trazado 115783" d="M3938-10670.053h222.232v34.129" transform="translate(-2812.619 11801.632)" fill="none" stroke="#12263f" stroke-width="4"/>
    <line id="Línea_164" data-name="Línea 164" y2="76.98" transform="translate(947.761 1218.104)" fill="none" stroke="#12263f" stroke-width="4"/>
    <line id="Línea_170" data-name="Línea 170" y2="128.651" transform="translate(947.761 1350.974)" fill="none" stroke="#12263f" stroke-width="4"/>
    <line id="Línea_165" data-name="Línea 165" y2="77" transform="translate(1347.693 1274)" fill="none" stroke="#1565c0" stroke-width="4"/>
    <line id="Línea_169" data-name="Línea 169" y2="77" transform="translate(1321.693 1407)" fill="none" stroke="#1565c0" stroke-width="4"/>
    <line id="Línea_166" data-name="Línea 166" x2="103" y2="1" transform="translate(1160.693 1376)" fill="none" stroke="#1565c0" stroke-width="4"/>
    <line id="Línea_171" data-name="Línea 171" x2="103.343" y2="1.055" transform="translate(931.416 1592.985)" fill="none" stroke="#12263f" stroke-width="4"/>
    <line id="Línea_167" data-name="Línea 167" x2="103" y2="1" transform="translate(992.693 1327)" fill="none" stroke="#1565c0" stroke-width="4"/>
    <line id="Línea_172" data-name="Línea 172" x2="104" transform="translate(930.693 1791)" fill="none" stroke="#12263f" stroke-width="4"/>
    <line id="Línea_174" data-name="Línea 174" x2="104" transform="translate(1209.693 1791)" fill="none" stroke="#12263f" stroke-width="4"/>
    <line id="Línea_173" data-name="Línea 173" x2="266" transform="translate(982.693 1997)" fill="none" stroke="#12263f" stroke-width="4"/>
    <g id="Grupo_79293" data-name="Grupo 79293" transform="translate(1061.055 1316.195)">
      <rect id="Rectángulo_33830" data-name="Rectángulo 33830" width="47.669" height="47.669" transform="translate(69.054 0) rotate(43)" fill="#26a69a"/>
      <path id="Trazado_116638" data-name="Trazado 116638" d="M-.525-4.663a1.879,1.879,0,0,0-.732-1.593A9.607,9.607,0,0,0-3.894-7.428,18.691,18.691,0,0,1-6.909-8.643q-3.027-1.636-3.027-4.407a4.292,4.292,0,0,1,.812-2.57,5.3,5.3,0,0,1,2.332-1.764,8.776,8.776,0,0,1,3.412-.635,7.988,7.988,0,0,1,3.394.69,5.4,5.4,0,0,1,2.313,1.947,5.1,5.1,0,0,1,.824,2.856H-.513a2.4,2.4,0,0,0-.769-1.9A3.161,3.161,0,0,0-3.442-15.1a3.377,3.377,0,0,0-2.087.568,1.79,1.79,0,0,0-.745,1.5A1.715,1.715,0,0,0-5.4-11.584a9.861,9.861,0,0,0,2.57,1.1A11.1,11.1,0,0,1,1.721-8.154,4.643,4.643,0,0,1,3.149-4.687,4.277,4.277,0,0,1,1.4-1.068,7.642,7.642,0,0,1-3.3.244,9.075,9.075,0,0,1-7.031-.507,5.911,5.911,0,0,1-9.6-2.563a5.268,5.268,0,0,1-.885-3.027h3.674q0,2.942,3.516,2.942A3.42,3.42,0,0,0-1.257-3.18,1.728,1.728,0,0,0-.525-4.663ZM9.521,0H5.859V-17.773H9.521ZM8.386-22.571h3.845L8.85-18.787H5.981Z" transform="translate(11 40.966)" fill="#12263f"/>
      <path id="Trazado_116639" data-name="Trazado 116639" d="M-1.416,0H-5.078l-7.129-11.694V0h-3.662V-17.773h3.662L-5.066-6.055V-17.773h3.65Zm17.8-8.484a10.729,10.729,0,0,1-.928,4.6A6.987,6.987,0,0,1,12.8-.83,7.344,7.344,0,0,1,8.838.244,7.394,7.394,0,0,1,4.9-.818,7.055,7.055,0,0,1,2.209-3.851a10.422,10.422,0,0,1-.964-4.535v-.879a10.673,10.673,0,0,1,.946-4.62,7.044,7.044,0,0,1,2.673-3.064,7.354,7.354,0,0,1,3.949-1.068,7.354,7.354,0,0,1,3.949,1.068,7.044,7.044,0,0,1,2.673,3.064,10.643,10.643,0,0,1,.946,4.608ZM12.671-9.29a7.479,7.479,0,0,0-1-4.248A3.262,3.262,0,0,0,8.813-14.99a3.263,3.263,0,0,0-2.844,1.434A7.394,7.394,0,0,0,4.956-9.351v.867a7.573,7.573,0,0,0,1,4.224,3.253,3.253,0,0,0,2.881,1.5A3.224,3.224,0,0,0,11.67-4.205a7.529,7.529,0,0,0,1-4.218Z" transform="translate(132.009 40.966)" fill="#12263f"/>
    </g>
    <g id="Grupo_79295" data-name="Grupo 79295" transform="translate(1051.684 1758.195)">
      <rect id="Rectángulo_33830-2" data-name="Rectángulo 33830" width="47.669" height="47.669" transform="translate(69.054 0) rotate(43)" fill="#26a69a"/>
      <path id="Trazado_116640" data-name="Trazado 116640" d="M-.525-4.663a1.879,1.879,0,0,0-.732-1.593A9.607,9.607,0,0,0-3.894-7.428,18.691,18.691,0,0,1-6.909-8.643q-3.027-1.636-3.027-4.407a4.292,4.292,0,0,1,.812-2.57,5.3,5.3,0,0,1,2.332-1.764,8.776,8.776,0,0,1,3.412-.635,7.988,7.988,0,0,1,3.394.69,5.4,5.4,0,0,1,2.313,1.947,5.1,5.1,0,0,1,.824,2.856H-.513a2.4,2.4,0,0,0-.769-1.9A3.161,3.161,0,0,0-3.442-15.1a3.377,3.377,0,0,0-2.087.568,1.79,1.79,0,0,0-.745,1.5A1.715,1.715,0,0,0-5.4-11.584a9.861,9.861,0,0,0,2.57,1.1A11.1,11.1,0,0,1,1.721-8.154,4.643,4.643,0,0,1,3.149-4.687,4.277,4.277,0,0,1,1.4-1.068,7.642,7.642,0,0,1-3.3.244,9.075,9.075,0,0,1-7.031-.507,5.911,5.911,0,0,1-9.6-2.563a5.268,5.268,0,0,1-.885-3.027h3.674q0,2.942,3.516,2.942A3.42,3.42,0,0,0-1.257-3.18,1.728,1.728,0,0,0-.525-4.663ZM9.521,0H5.859V-17.773H9.521ZM8.386-22.571h3.845L8.85-18.787H5.981Z" transform="translate(11 40.966)" fill="#12263f"/>
      <path id="Trazado_116641" data-name="Trazado 116641" d="M-1.416,0H-5.078l-7.129-11.694V0h-3.662V-17.773h3.662L-5.066-6.055V-17.773h3.65Zm17.8-8.484a10.729,10.729,0,0,1-.928,4.6A6.987,6.987,0,0,1,12.8-.83,7.344,7.344,0,0,1,8.838.244,7.394,7.394,0,0,1,4.9-.818,7.055,7.055,0,0,1,2.209-3.851a10.422,10.422,0,0,1-.964-4.535v-.879a10.673,10.673,0,0,1,.946-4.62,7.044,7.044,0,0,1,2.673-3.064,7.354,7.354,0,0,1,3.949-1.068,7.354,7.354,0,0,1,3.949,1.068,7.044,7.044,0,0,1,2.673,3.064,10.643,10.643,0,0,1,.946,4.608ZM12.671-9.29a7.479,7.479,0,0,0-1-4.248A3.262,3.262,0,0,0,8.813-14.99a3.263,3.263,0,0,0-2.844,1.434A7.394,7.394,0,0,0,4.956-9.351v.867a7.573,7.573,0,0,0,1,4.224,3.253,3.253,0,0,0,2.881,1.5A3.224,3.224,0,0,0,11.67-4.205a7.529,7.529,0,0,0,1-4.218Z" transform="translate(132.009 40.966)" fill="#12263f"/>
    </g>
    <g id="Rectángulo_34031" data-name="Rectángulo 34031" transform="translate(999.693 1561)" fill="#039be5" stroke="#1565c0" stroke-width="1">
      <rect width="201" height="64" rx="31" stroke="none"/>
      <rect x="0.5" y="0.5" width="200" height="63" rx="30.5" fill="none"/>
    </g>
    <ellipse id="Elipse_4772" data-name="Elipse 4772" cx="102" cy="34.5" rx="102" ry="34.5" transform="translate(845.693 1293)" fill="#4dd0e1"/>
    <ellipse id="Elipse_4773" data-name="Elipse 4773" cx="102" cy="34.5" rx="102" ry="34.5" transform="translate(1221.693 1962)" fill="#4dd0e1"/>
    <path id="Trazado_115784" data-name="Trazado 115784" d="M0,0H209.849V60.046a560.7,560.7,0,0,0-101.212,15.88C54.232,89.733,0,75.925,0,75.925Z" transform="translate(1229.844 1342.537)" fill="#ffa726"/>
    <path id="Trazado_115785" data-name="Trazado 115785" d="M0,0H168.248V99.026L86.612,130.672,0,99.026Z" transform="translate(1263.489 1164.076)" fill="#ffca28"/>
    <g id="Rectángulo_34029" data-name="Rectángulo 34029" transform="translate(847.693 1468)" fill="#1565c0" stroke="#1565c0" stroke-width="1">
      <rect width="201" height="64" stroke="none"/>
      <rect x="0.5" y="0.5" width="200" height="63" fill="none"/>
    </g>
    <g id="Rectángulo_34033" data-name="Rectángulo 34033" transform="translate(1221.693 1758)" fill="#1565c0" stroke="#1565c0" stroke-width="1">
      <rect width="200" height="65" stroke="none"/>
      <rect x="0.5" y="0.5" width="199" height="64" fill="none"/>
    </g>
    <g id="Rectángulo_34035" data-name="Rectángulo 34035" transform="translate(1063.693 1959)" fill="#1565c0" stroke="#1565c0" stroke-width="1">
      <rect width="146" height="64" stroke="none"/>
      <rect x="0.5" y="0.5" width="145" height="63" fill="none"/>
    </g>
    <g id="Rectángulo_34036" data-name="Rectángulo 34036" transform="translate(888.693 1962)" fill="#1565c0" stroke="#1565c0" stroke-width="1">
      <rect width="146" height="64" stroke="none"/>
      <rect x="0.5" y="0.5" width="145" height="63" fill="none"/>
    </g>
    <g id="Rectángulo_34028" data-name="Rectángulo 34028" transform="translate(847.693 1167)" fill="#1565c0" stroke="#1565c0" stroke-width="1">
      <rect width="201" height="65" stroke="none"/>
      <rect x="0.5" y="0.5" width="200" height="64" fill="none"/>
    </g>
  </g>
</svg>
