<svg xmlns="http://www.w3.org/2000/svg" width="80" height="80" viewBox="0 0 80 80">
  <g id="Grupo_79941" data-name="Grupo 79941" transform="translate(-180 -1247)">
    <g id="Grupo_79289" data-name="Grupo 79289" transform="translate(-151 240)">
      <circle id="Elipse_4698" data-name="Elipse 4698" cx="40" cy="40" r="40" transform="translate(331 1007)" fill="#1565c0"/>
    </g>
    <path id="Trazado_116634" data-name="Trazado 116634" d="M18,40H-2.836V35.488l9.6-10.09q3.548-4.04,3.548-6.419a4.465,4.465,0,0,0-.841-2.933,3,3,0,0,0-2.44-1,3.04,3.04,0,0,0-2.563,1.343,5.52,5.52,0,0,0-.984,3.353H-3.451a9.806,9.806,0,0,1,1.374-5.076,9.635,9.635,0,0,1,3.814-3.64A11.331,11.331,0,0,1,7.192,9.71q4.84,0,7.455,2.235a7.98,7.98,0,0,1,2.615,6.419,9.321,9.321,0,0,1-.656,3.435,15.064,15.064,0,0,1-2.041,3.507,51.4,51.4,0,0,1-4.46,4.912l-3.855,4.45H18Z" transform="translate(213 1262)" fill="#fff"/>
  </g>
</svg>
