<svg xmlns="http://www.w3.org/2000/svg" width="80" height="80" viewBox="0 0 80 80">
  <g id="Grupo_79944" data-name="Grupo 79944" transform="translate(-180 -1955)">
    <g id="Grupo_79292" data-name="Grupo 79292" transform="translate(-151 948)">
      <circle id="Elipse_4698" data-name="Elipse 4698" cx="40" cy="40" r="40" transform="translate(331 1007)" fill="#1565c0"/>
    </g>
    <path id="Trazado_116637" data-name="Trazado 116637" d="M-2.426,25.414-.6,10.141H16.852v5.332H5.019l-.677,5.973a8.151,8.151,0,0,1,1.938-.762,8.842,8.842,0,0,1,2.348-.33,8.76,8.76,0,0,1,6.839,2.635q2.389,2.635,2.389,7.393a10.6,10.6,0,0,1-1.282,5.2,8.81,8.81,0,0,1-3.6,3.579A11.363,11.363,0,0,1,7.5,40.41a12.227,12.227,0,0,1-5.271-1.158,9.455,9.455,0,0,1-3.855-3.176A7.718,7.718,0,0,1-3,31.517H3.932a3.92,3.92,0,0,0,1.046,2.6,3.32,3.32,0,0,0,2.481.962q3.486,0,3.486-5.157,0-4.768-4.266-4.768A4.256,4.256,0,0,0,3.07,26.708Z" transform="translate(213 1970)" fill="#fff"/>
  </g>
</svg>
