<svg xmlns="http://www.w3.org/2000/svg" width="610" height="259" viewBox="0 0 610 259">
  <g id="Grupo_79937" data-name="Grupo 79937" transform="translate(-705 -1313)">
    <rect id="Rectángulo_33716" data-name="Rectángulo 33716" width="610" height="259" transform="translate(705 1313)" fill="#e7f0f5"/>
    <g id="Grupo_78396" data-name="Grupo 78396" transform="translate(-53)">
      <rect id="Rectángulo_33786" data-name="Rectángulo 33786" width="128" height="47" rx="13" transform="translate(819 1389)" fill="#4dd0e1"/>
      <path id="Unión_5" data-name="Unión 5" d="M3248.672,11721.163H3236v-15.324h12.672V11700l18.828,13.5-18.828,13.5Z" transform="translate(12600.5 -1794.25) rotate(90)" fill="#ffa726"/>
      <path id="Trazado_116632" data-name="Trazado 116632" d="M-25.712-6.9h-6.47V-1.61h7.516V0h-9.485V-14.93h9.382v1.61h-7.414v4.809h6.47Zm4.994-4.194.062,1.395a4.043,4.043,0,0,1,3.322-1.6q3.517,0,3.548,3.968V0h-1.9V-7.342a2.554,2.554,0,0,0-.549-1.774,2.2,2.2,0,0,0-1.677-.574,2.738,2.738,0,0,0-1.62.492,3.342,3.342,0,0,0-1.087,1.292V0h-1.9V-11.095Zm12.366-2.687v2.687h2.071v1.466H-8.352v6.889a1.54,1.54,0,0,0,.277,1,1.165,1.165,0,0,0,.943.334,4.593,4.593,0,0,0,.9-.123V0a5.532,5.532,0,0,1-1.456.2A2.362,2.362,0,0,1-9.6-.564a3.3,3.3,0,0,1-.646-2.184v-6.88h-2.02v-1.466h2.02v-2.687ZM1.3-9.393a5.685,5.685,0,0,0-.933-.072A2.5,2.5,0,0,0-2.169-7.875V0h-1.9V-11.095H-2.22l.031,1.282A2.954,2.954,0,0,1,.456-11.3a1.938,1.938,0,0,1,.841.144ZM9.48,0a3.985,3.985,0,0,1-.267-1.169A4.233,4.233,0,0,1,6.055.205,3.916,3.916,0,0,1,3.363-.723,3,3,0,0,1,2.312-3.076,3.136,3.136,0,0,1,3.63-5.768a6.212,6.212,0,0,1,3.707-.959H9.182V-7.6a2.131,2.131,0,0,0-.595-1.584,2.39,2.39,0,0,0-1.753-.59,2.766,2.766,0,0,0-1.7.513,1.511,1.511,0,0,0-.687,1.241H2.538a2.618,2.618,0,0,1,.59-1.6,4.024,4.024,0,0,1,1.6-1.225,5.381,5.381,0,0,1,2.22-.451,4.386,4.386,0,0,1,3,.959A3.459,3.459,0,0,1,11.079-7.7v5.106a6.243,6.243,0,0,0,.39,2.43V0ZM6.332-1.446a3.334,3.334,0,0,0,1.692-.461,2.791,2.791,0,0,0,1.159-1.2V-5.383H7.7q-3.486,0-3.486,2.041A1.727,1.727,0,0,0,4.8-1.948,2.286,2.286,0,0,0,6.332-1.446Zm7.26-4.194A6.5,6.5,0,0,1,14.8-9.746,3.826,3.826,0,0,1,17.97-11.3a3.848,3.848,0,0,1,3.086,1.333V-15.75h1.9V0H21.21l-.092-1.189A3.863,3.863,0,0,1,17.949.205a3.789,3.789,0,0,1-3.143-1.579A6.573,6.573,0,0,1,13.592-5.5Zm1.9.215a4.921,4.921,0,0,0,.779,2.953A2.519,2.519,0,0,0,18.421-1.4a2.767,2.767,0,0,0,2.635-1.62v-5.1A2.789,2.789,0,0,0,18.442-9.69a2.531,2.531,0,0,0-2.174,1.077A5.418,5.418,0,0,0,15.489-5.424ZM32.746,0a3.985,3.985,0,0,1-.267-1.169A4.233,4.233,0,0,1,29.321.205a3.916,3.916,0,0,1-2.692-.928,3,3,0,0,1-1.051-2.353A3.136,3.136,0,0,1,26.9-5.768,6.212,6.212,0,0,1,30.6-6.727h1.846V-7.6a2.131,2.131,0,0,0-.595-1.584,2.39,2.39,0,0,0-1.753-.59,2.766,2.766,0,0,0-1.7.513,1.511,1.511,0,0,0-.687,1.241H25.8a2.618,2.618,0,0,1,.59-1.6,4.024,4.024,0,0,1,1.6-1.225,5.381,5.381,0,0,1,2.22-.451,4.386,4.386,0,0,1,3,.959A3.458,3.458,0,0,1,34.345-7.7v5.106a6.243,6.243,0,0,0,.39,2.43V0ZM29.6-1.446a3.334,3.334,0,0,0,1.692-.461,2.791,2.791,0,0,0,1.159-1.2V-5.383H30.962q-3.486,0-3.486,2.041a1.727,1.727,0,0,0,.595,1.395A2.286,2.286,0,0,0,29.6-1.446Z" transform="translate(883 1418)" fill="#12263f"/>
      <g id="Grupo_78395" data-name="Grupo 78395" transform="translate(-7 -5)">
        <rect id="Rectángulo_33787" data-name="Rectángulo 33787" width="128" height="47" rx="13" transform="translate(1004 1389)" fill="#039be5"/>
        <rect id="Rectángulo_33788" data-name="Rectángulo 33788" width="128" height="47" rx="13" transform="translate(1170 1389)" fill="#26a69a"/>
        <path id="Unión_1" data-name="Unión 1" d="M3248.672,11721.163H3236v-15.324h12.672V11700l18.828,13.5-18.828,13.5Z" transform="translate(-2270.501 -10298)" fill="#ffa726"/>
        <path id="Unión_2" data-name="Unión 2" d="M3248.672,11721.163H3236v-15.324h12.672V11700l18.828,13.5-18.828,13.5Z" transform="translate(-2097.501 -10301)" fill="#ffa726"/>
        <path id="Unión_4" data-name="Unión 4" d="M3248.672,11721.163H3236v-15.324h12.672V11700l18.828,13.5-18.828,13.5Z" transform="translate(12947.5 -1794.25) rotate(90)" fill="#ffa726"/>
        <path id="Unión_6" data-name="Unión 6" d="M3282.194,11736.024H3103v-26.087h179.2V11700l32.055,22.983-32.055,22.98Z" transform="translate(4265.998 13205.964) rotate(180)" fill="#f8df93"/>
        <path id="Trazado_116633" data-name="Trazado 116633" d="M-34.822-5.845V0h-1.969V-14.93h5.506a5.532,5.532,0,0,1,3.84,1.251,4.241,4.241,0,0,1,1.389,3.312,4.185,4.185,0,0,1-1.359,3.348,5.779,5.779,0,0,1-3.891,1.174Zm0-1.61h3.538a3.537,3.537,0,0,0,2.42-.745,2.723,2.723,0,0,0,.841-2.152,2.813,2.813,0,0,0-.841-2.136,3.314,3.314,0,0,0-2.307-.832h-3.65Zm16.345-1.938a5.685,5.685,0,0,0-.933-.072,2.5,2.5,0,0,0-2.533,1.589V0h-1.9V-11.095h1.846l.031,1.282A2.954,2.954,0,0,1-19.318-11.3a1.938,1.938,0,0,1,.841.144Zm1.036,3.743A6.553,6.553,0,0,1-16.8-8.583a4.781,4.781,0,0,1,1.784-2.01,4.857,4.857,0,0,1,2.61-.708A4.679,4.679,0,0,1-8.741-9.731a6.036,6.036,0,0,1,1.4,4.173v.133a6.61,6.61,0,0,1-.62,2.907,4.71,4.71,0,0,1-1.774,2,4.913,4.913,0,0,1-2.651.718,4.667,4.667,0,0,1-3.656-1.569,6.005,6.005,0,0,1-1.4-4.153Zm1.907.226a4.746,4.746,0,0,0,.856,2.963,2.74,2.74,0,0,0,2.292,1.118,2.724,2.724,0,0,0,2.3-1.133A5.19,5.19,0,0,0-9.239-5.65a4.738,4.738,0,0,0-.866-2.958,2.755,2.755,0,0,0-2.3-1.133,2.724,2.724,0,0,0-2.266,1.118A5.152,5.152,0,0,0-15.535-5.424ZM-.513-1.343a2.732,2.732,0,0,0,1.774-.615A2.164,2.164,0,0,0,2.1-3.5H3.9A3.44,3.44,0,0,1,3.24-1.682,4.322,4.322,0,0,1,1.625-.308,4.66,4.66,0,0,1-.513.205a4.57,4.57,0,0,1-3.6-1.512A6.024,6.024,0,0,1-5.455-5.445v-.318A6.679,6.679,0,0,1-4.86-8.644,4.53,4.53,0,0,1-3.153-10.6a4.85,4.85,0,0,1,2.63-.7,4.45,4.45,0,0,1,3.1,1.118A3.994,3.994,0,0,1,3.9-7.28H2.1a2.614,2.614,0,0,0-.815-1.769,2.536,2.536,0,0,0-1.81-.692A2.655,2.655,0,0,0-2.763-8.7a4.888,4.888,0,0,0-.795,3.01v.359a4.79,4.79,0,0,0,.79,2.953A2.668,2.668,0,0,0-.513-1.343ZM10.633.205A4.848,4.848,0,0,1,6.962-1.277,5.5,5.5,0,0,1,5.547-5.24v-.349a6.658,6.658,0,0,1,.631-2.948,4.919,4.919,0,0,1,1.764-2.03A4.434,4.434,0,0,1,10.4-11.3a4.155,4.155,0,0,1,3.363,1.425,6.171,6.171,0,0,1,1.2,4.081V-5H7.444A3.944,3.944,0,0,0,8.4-2.353a3.014,3.014,0,0,0,2.333,1.01,3.3,3.3,0,0,0,1.7-.41,4.277,4.277,0,0,0,1.22-1.087l1.159.9A4.659,4.659,0,0,1,10.633.205ZM10.4-9.741a2.53,2.53,0,0,0-1.928.836,4.062,4.062,0,0,0-.964,2.343h5.558v-.144a3.613,3.613,0,0,0-.779-2.24A2.382,2.382,0,0,0,10.4-9.741Zm13.217,6.8a1.4,1.4,0,0,0-.579-1.195,5.576,5.576,0,0,0-2.02-.733,9.551,9.551,0,0,1-2.287-.738,3.253,3.253,0,0,1-1.251-1.025,2.453,2.453,0,0,1-.405-1.415,2.878,2.878,0,0,1,1.154-2.307,4.505,4.505,0,0,1,2.948-.943,4.636,4.636,0,0,1,3.061.974,3.094,3.094,0,0,1,1.174,2.492H23.5a1.713,1.713,0,0,0-.661-1.343,2.478,2.478,0,0,0-1.666-.564,2.593,2.593,0,0,0-1.62.451,1.42,1.42,0,0,0-.584,1.179,1.151,1.151,0,0,0,.543,1.036,6.687,6.687,0,0,0,1.964.667,10.231,10.231,0,0,1,2.3.759,3.358,3.358,0,0,1,1.307,1.061,2.609,2.609,0,0,1,.426,1.512A2.839,2.839,0,0,1,24.322-.692a4.989,4.989,0,0,1-3.086.9,5.587,5.587,0,0,1-2.358-.472,3.836,3.836,0,0,1-1.6-1.318,3.176,3.176,0,0,1-.579-1.83h1.9A1.964,1.964,0,0,0,19.354-1.9a2.964,2.964,0,0,0,1.882.559,3.059,3.059,0,0,0,1.728-.436A1.339,1.339,0,0,0,23.615-2.943ZM27.48-5.65a6.553,6.553,0,0,1,.641-2.933,4.781,4.781,0,0,1,1.784-2.01,4.857,4.857,0,0,1,2.61-.708,4.679,4.679,0,0,1,3.666,1.569,6.036,6.036,0,0,1,1.4,4.173v.133a6.61,6.61,0,0,1-.62,2.907,4.71,4.71,0,0,1-1.774,2,4.913,4.913,0,0,1-2.651.718A4.667,4.667,0,0,1,28.88-1.364a6.005,6.005,0,0,1-1.4-4.153Zm1.907.226a4.746,4.746,0,0,0,.856,2.963,2.74,2.74,0,0,0,2.292,1.118,2.724,2.724,0,0,0,2.3-1.133,5.19,5.19,0,0,0,.851-3.174,4.738,4.738,0,0,0-.866-2.958,2.755,2.755,0,0,0-2.3-1.133,2.724,2.724,0,0,0-2.266,1.118A5.152,5.152,0,0,0,29.388-5.424Z" transform="translate(1068 1418)" fill="#12263f"/>
        <path id="Trazado_116630" data-name="Trazado 116630" d="M-29.413-4.737a5.493,5.493,0,0,1-1.748,3.656A5.73,5.73,0,0,1-35.073.205a5.261,5.261,0,0,1-4.24-1.9,7.632,7.632,0,0,1-1.594-5.076V-8.2a8.506,8.506,0,0,1,.743-3.661,5.553,5.553,0,0,1,2.107-2.425,5.867,5.867,0,0,1,3.158-.846,5.4,5.4,0,0,1,3.814,1.328,5.559,5.559,0,0,1,1.671,3.676h-1.979A4.29,4.29,0,0,0-32.5-12.723a3.366,3.366,0,0,0-2.394-.8,3.522,3.522,0,0,0-2.958,1.4,6.407,6.407,0,0,0-1.072,3.972v1.447a6.586,6.586,0,0,0,1.015,3.869A3.28,3.28,0,0,0-35.073-1.4a3.789,3.789,0,0,0,2.517-.743,4.125,4.125,0,0,0,1.164-2.589Zm1.887-.913a6.553,6.553,0,0,1,.641-2.933,4.781,4.781,0,0,1,1.784-2.01,4.857,4.857,0,0,1,2.61-.708,4.679,4.679,0,0,1,3.666,1.569,6.036,6.036,0,0,1,1.4,4.173v.133a6.61,6.61,0,0,1-.62,2.907,4.71,4.71,0,0,1-1.774,2,4.913,4.913,0,0,1-2.651.718,4.667,4.667,0,0,1-3.656-1.569,6.005,6.005,0,0,1-1.4-4.153Zm1.907.226a4.746,4.746,0,0,0,.856,2.963,2.74,2.74,0,0,0,2.292,1.118,2.724,2.724,0,0,0,2.3-1.133,5.19,5.19,0,0,0,.851-3.174,4.738,4.738,0,0,0-.866-2.958,2.755,2.755,0,0,0-2.3-1.133,2.724,2.724,0,0,0-2.266,1.118A5.152,5.152,0,0,0-25.619-5.424Zm12.366-5.67.062,1.395a4.043,4.043,0,0,1,3.322-1.6q3.517,0,3.548,3.968V0h-1.9V-7.342a2.554,2.554,0,0,0-.549-1.774,2.2,2.2,0,0,0-1.677-.574,2.738,2.738,0,0,0-1.62.492,3.342,3.342,0,0,0-1.087,1.292V0h-1.9V-11.095ZM-.887-13.781v2.687H1.184v1.466H-.887v6.889a1.54,1.54,0,0,0,.277,1A1.165,1.165,0,0,0,.333-1.4a4.593,4.593,0,0,0,.9-.123V0A5.532,5.532,0,0,1-.22.205,2.362,2.362,0,0,1-2.138-.564a3.3,3.3,0,0,1-.646-2.184v-6.88H-4.8v-1.466h2.02v-2.687ZM8,.205A4.848,4.848,0,0,1,4.332-1.277,5.5,5.5,0,0,1,2.917-5.24v-.349a6.658,6.658,0,0,1,.631-2.948,4.919,4.919,0,0,1,1.764-2.03A4.434,4.434,0,0,1,7.767-11.3a4.155,4.155,0,0,1,3.363,1.425,6.171,6.171,0,0,1,1.2,4.081V-5H4.814a3.944,3.944,0,0,0,.959,2.651,3.014,3.014,0,0,0,2.333,1.01,3.3,3.3,0,0,0,1.7-.41,4.277,4.277,0,0,0,1.22-1.087l1.159.9A4.659,4.659,0,0,1,8,.205ZM7.767-9.741a2.53,2.53,0,0,0-1.928.836,4.062,4.062,0,0,0-.964,2.343h5.558v-.144a3.613,3.613,0,0,0-.779-2.24A2.382,2.382,0,0,0,7.767-9.741Zm10.479,2.7,2.461-4.05h2.215l-3.63,5.486L23.035,0H20.841L18.278-4.153,15.714,0h-2.2l3.743-5.609-3.63-5.486h2.194Zm9.259-6.737v2.687h2.071v1.466H27.506v6.889a1.54,1.54,0,0,0,.277,1,1.165,1.165,0,0,0,.943.334,4.593,4.593,0,0,0,.9-.123V0a5.532,5.532,0,0,1-1.456.2,2.362,2.362,0,0,1-1.917-.769,3.3,3.3,0,0,1-.646-2.184v-6.88h-2.02v-1.466h2.02v-2.687ZM31.085-5.65a6.553,6.553,0,0,1,.641-2.933,4.781,4.781,0,0,1,1.784-2.01,4.857,4.857,0,0,1,2.61-.708,4.679,4.679,0,0,1,3.666,1.569,6.036,6.036,0,0,1,1.4,4.173v.133a6.61,6.61,0,0,1-.62,2.907,4.71,4.71,0,0,1-1.774,2A4.913,4.913,0,0,1,36.14.205a4.667,4.667,0,0,1-3.656-1.569,6.005,6.005,0,0,1-1.4-4.153Zm1.907.226a4.746,4.746,0,0,0,.856,2.963A2.74,2.74,0,0,0,36.14-1.343a2.724,2.724,0,0,0,2.3-1.133,5.19,5.19,0,0,0,.851-3.174,4.738,4.738,0,0,0-.866-2.958,2.755,2.755,0,0,0-2.3-1.133,2.724,2.724,0,0,0-2.266,1.118A5.152,5.152,0,0,0,32.992-5.424Z" transform="translate(1061 1358)" fill="#12263f"/>
        <path id="Trazado_116631" data-name="Trazado 116631" d="M-38.006-6.9h-6.47V-1.61h7.516V0h-9.485V-14.93h9.382v1.61h-7.414v4.809h6.47Zm9.659,3.958a1.4,1.4,0,0,0-.579-1.195,5.576,5.576,0,0,0-2.02-.733,9.551,9.551,0,0,1-2.287-.738,3.253,3.253,0,0,1-1.251-1.025,2.453,2.453,0,0,1-.405-1.415,2.878,2.878,0,0,1,1.154-2.307,4.505,4.505,0,0,1,2.948-.943,4.636,4.636,0,0,1,3.061.974,3.094,3.094,0,0,1,1.174,2.492H-28.46a1.713,1.713,0,0,0-.661-1.343,2.478,2.478,0,0,0-1.666-.564,2.593,2.593,0,0,0-1.62.451,1.42,1.42,0,0,0-.584,1.179,1.151,1.151,0,0,0,.543,1.036,6.687,6.687,0,0,0,1.964.667,10.231,10.231,0,0,1,2.3.759,3.358,3.358,0,0,1,1.307,1.061,2.609,2.609,0,0,1,.426,1.512A2.839,2.839,0,0,1-27.639-.692a4.989,4.989,0,0,1-3.086.9,5.587,5.587,0,0,1-2.358-.472,3.836,3.836,0,0,1-1.6-1.318,3.176,3.176,0,0,1-.579-1.83h1.9A1.964,1.964,0,0,0-32.607-1.9a2.964,2.964,0,0,0,1.882.559A3.059,3.059,0,0,0-29-1.779,1.339,1.339,0,0,0-28.347-2.943Zm13.74-2.481a6.643,6.643,0,0,1-1.159,4.081A3.714,3.714,0,0,1-18.9.205a4.069,4.069,0,0,1-3.179-1.282V4.266h-1.9v-15.36h1.733l.092,1.23a3.908,3.908,0,0,1,3.22-1.436,3.783,3.783,0,0,1,3.163,1.507A6.716,6.716,0,0,1-14.607-5.6Zm-1.9-.215A4.9,4.9,0,0,0-17.3-8.6,2.576,2.576,0,0,0-19.5-9.69a2.789,2.789,0,0,0-2.584,1.528v5.3a2.794,2.794,0,0,0,2.6,1.518,2.564,2.564,0,0,0,2.169-1.082A5.351,5.351,0,0,0-16.5-5.64ZM-7.593.205a4.848,4.848,0,0,1-3.671-1.482A5.5,5.5,0,0,1-12.679-5.24v-.349a6.658,6.658,0,0,1,.631-2.948,4.919,4.919,0,0,1,1.764-2.03A4.434,4.434,0,0,1-7.829-11.3,4.155,4.155,0,0,1-4.466-9.875a6.171,6.171,0,0,1,1.2,4.081V-5h-7.516a3.944,3.944,0,0,0,.959,2.651A3.014,3.014,0,0,0-7.49-1.343a3.3,3.3,0,0,0,1.7-.41A4.277,4.277,0,0,0-4.568-2.84l1.159.9A4.659,4.659,0,0,1-7.593.205Zm-.236-9.946a2.53,2.53,0,0,0-1.928.836,4.062,4.062,0,0,0-.964,2.343h5.558v-.144a3.613,3.613,0,0,0-.779-2.24A2.382,2.382,0,0,0-7.829-9.741Zm11.208,8.4a2.732,2.732,0,0,0,1.774-.615A2.164,2.164,0,0,0,5.993-3.5H7.788a3.44,3.44,0,0,1-.656,1.815A4.322,4.322,0,0,1,5.517-.308,4.66,4.66,0,0,1,3.379.205a4.57,4.57,0,0,1-3.6-1.512A6.024,6.024,0,0,1-1.564-5.445v-.318A6.679,6.679,0,0,1-.969-8.644,4.53,4.53,0,0,1,.738-10.6a4.85,4.85,0,0,1,2.63-.7,4.45,4.45,0,0,1,3.1,1.118,3.994,3.994,0,0,1,1.318,2.9H5.993a2.614,2.614,0,0,0-.815-1.769,2.536,2.536,0,0,0-1.81-.692A2.655,2.655,0,0,0,1.128-8.7a4.888,4.888,0,0,0-.795,3.01v.359a4.79,4.79,0,0,0,.79,2.953A2.668,2.668,0,0,0,3.379-1.343ZM11.982,0h-1.9V-11.095h1.9ZM9.931-14.038a1.132,1.132,0,0,1,.282-.779,1.059,1.059,0,0,1,.836-.318,1.075,1.075,0,0,1,.841.318,1.12,1.12,0,0,1,.287.779,1.084,1.084,0,0,1-.287.769,1.1,1.1,0,0,1-.841.308,1.078,1.078,0,0,1-.836-.308A1.1,1.1,0,0,1,9.931-14.038ZM15.653,0V-9.628H13.9v-1.466h1.753v-.943a3.854,3.854,0,0,1,1.061-2.892,4.115,4.115,0,0,1,3-1.036,9.031,9.031,0,0,1,2.9.625l-.318,1.6a6.572,6.572,0,0,0-2.44-.513A2.388,2.388,0,0,0,18.1-13.7a2.262,2.262,0,0,0-.538,1.646v.964h2.266v1.466H17.56V0Zm7.906,0H21.651V-11.095h1.907Zm7.537-1.343a2.732,2.732,0,0,0,1.774-.615A2.164,2.164,0,0,0,33.71-3.5H35.5a3.44,3.44,0,0,1-.656,1.815A4.322,4.322,0,0,1,33.233-.308a4.66,4.66,0,0,1-2.138.513,4.57,4.57,0,0,1-3.6-1.512,6.024,6.024,0,0,1-1.338-4.137v-.318a6.679,6.679,0,0,1,.595-2.881A4.53,4.53,0,0,1,28.455-10.6a4.85,4.85,0,0,1,2.63-.7,4.45,4.45,0,0,1,3.1,1.118A3.994,3.994,0,0,1,35.5-7.28H33.71a2.614,2.614,0,0,0-.815-1.769,2.536,2.536,0,0,0-1.81-.692A2.655,2.655,0,0,0,28.844-8.7a4.888,4.888,0,0,0-.795,3.01v.359a4.79,4.79,0,0,0,.79,2.953A2.668,2.668,0,0,0,31.095-1.343Zm6.04-4.307a6.553,6.553,0,0,1,.641-2.933,4.781,4.781,0,0,1,1.784-2.01,4.857,4.857,0,0,1,2.61-.708,4.679,4.679,0,0,1,3.666,1.569,6.036,6.036,0,0,1,1.4,4.173v.133a6.61,6.61,0,0,1-.62,2.907,4.71,4.71,0,0,1-1.774,2A4.913,4.913,0,0,1,42.19.205a4.667,4.667,0,0,1-3.656-1.569,6.005,6.005,0,0,1-1.4-4.153Zm1.907.226A4.746,4.746,0,0,0,39.9-2.461,2.74,2.74,0,0,0,42.19-1.343a2.724,2.724,0,0,0,2.3-1.133,5.19,5.19,0,0,0,.851-3.174,4.738,4.738,0,0,0-.866-2.958,2.755,2.755,0,0,0-2.3-1.133A2.724,2.724,0,0,0,39.9-8.624,5.152,5.152,0,0,0,39.042-5.424Z" transform="translate(1061 1557)" fill="#12263f"/>
        <path id="Trazado_116634" data-name="Trazado 116634" d="M-22.538-6.655a9.257,9.257,0,0,1-3.686-1.789,3.419,3.419,0,0,1-1.154-2.62,3.611,3.611,0,0,1,1.41-2.917A5.6,5.6,0,0,1-22.3-15.135a6.116,6.116,0,0,1,2.743.595A4.51,4.51,0,0,1-17.693-12.9a4.2,4.2,0,0,1,.661,2.287h-1.979a2.73,2.73,0,0,0-.861-2.135,3.5,3.5,0,0,0-2.43-.777,3.586,3.586,0,0,0-2.271.642,2.142,2.142,0,0,0-.815,1.782,1.927,1.927,0,0,0,.774,1.546A7.593,7.593,0,0,0-21.979-8.4a12.227,12.227,0,0,1,2.912,1.155,4.419,4.419,0,0,1,1.559,1.471A3.756,3.756,0,0,1-17-3.794,3.488,3.488,0,0,1-18.416-.887,6.033,6.033,0,0,1-22.2.205a7.018,7.018,0,0,1-2.871-.59A4.832,4.832,0,0,1-27.127-2a3.941,3.941,0,0,1-.723-2.328h1.979a2.571,2.571,0,0,0,1,2.138A4.21,4.21,0,0,0-22.2-1.4a3.87,3.87,0,0,0,2.389-.636,2.065,2.065,0,0,0,.831-1.733,2.027,2.027,0,0,0-.769-1.7A8.866,8.866,0,0,0-22.538-6.655ZM-7.926,0a3.985,3.985,0,0,1-.267-1.169A4.233,4.233,0,0,1-11.351.205a3.916,3.916,0,0,1-2.692-.928,3,3,0,0,1-1.051-2.353,3.136,3.136,0,0,1,1.318-2.692,6.212,6.212,0,0,1,3.707-.959h1.846V-7.6a2.131,2.131,0,0,0-.595-1.584,2.39,2.39,0,0,0-1.753-.59,2.766,2.766,0,0,0-1.7.513,1.511,1.511,0,0,0-.687,1.241h-1.907a2.618,2.618,0,0,1,.59-1.6,4.024,4.024,0,0,1,1.6-1.225,5.381,5.381,0,0,1,2.22-.451,4.386,4.386,0,0,1,3,.959A3.458,3.458,0,0,1-6.327-7.7v5.106a6.243,6.243,0,0,0,.39,2.43V0Zm-3.148-1.446a3.334,3.334,0,0,0,1.692-.461,2.791,2.791,0,0,0,1.159-1.2V-5.383H-9.71q-3.486,0-3.486,2.041A1.727,1.727,0,0,0-12.6-1.948,2.286,2.286,0,0,0-11.074-1.446ZM-1.292,0h-1.9V-15.75h1.9ZM3.8,0h-1.9V-11.095H3.8ZM1.753-14.038a1.132,1.132,0,0,1,.282-.779,1.059,1.059,0,0,1,.836-.318,1.075,1.075,0,0,1,.841.318A1.12,1.12,0,0,1,4-14.038a1.084,1.084,0,0,1-.287.769,1.1,1.1,0,0,1-.841.308,1.078,1.078,0,0,1-.836-.308A1.1,1.1,0,0,1,1.753-14.038Zm4.625,8.4a6.5,6.5,0,0,1,1.21-4.107A3.826,3.826,0,0,1,10.756-11.3a3.848,3.848,0,0,1,3.086,1.333V-15.75h1.9V0H14L13.9-1.189A3.863,3.863,0,0,1,10.736.205,3.789,3.789,0,0,1,7.593-1.374,6.573,6.573,0,0,1,6.378-5.5Zm1.9.215a4.921,4.921,0,0,0,.779,2.953A2.519,2.519,0,0,0,11.208-1.4a2.767,2.767,0,0,0,2.635-1.62v-5.1A2.789,2.789,0,0,0,11.228-9.69,2.531,2.531,0,0,0,9.054-8.613,5.418,5.418,0,0,0,8.275-5.424ZM25.532,0a3.985,3.985,0,0,1-.267-1.169A4.233,4.233,0,0,1,22.107.205a3.916,3.916,0,0,1-2.692-.928,3,3,0,0,1-1.051-2.353,3.136,3.136,0,0,1,1.318-2.692,6.212,6.212,0,0,1,3.707-.959h1.846V-7.6a2.131,2.131,0,0,0-.595-1.584,2.39,2.39,0,0,0-1.753-.59,2.766,2.766,0,0,0-1.7.513A1.511,1.511,0,0,0,20.5-8.019H18.59a2.618,2.618,0,0,1,.59-1.6,4.024,4.024,0,0,1,1.6-1.225A5.381,5.381,0,0,1,23-11.3a4.386,4.386,0,0,1,3,.959A3.458,3.458,0,0,1,27.132-7.7v5.106a6.243,6.243,0,0,0,.39,2.43V0ZM22.384-1.446a3.334,3.334,0,0,0,1.692-.461,2.791,2.791,0,0,0,1.159-1.2V-5.383H23.748q-3.486,0-3.486,2.041a1.727,1.727,0,0,0,.595,1.395A2.286,2.286,0,0,0,22.384-1.446Z" transform="translate(1233 1418)" fill="#12263f"/>
        <path id="Trazado_116635" data-name="Trazado 116635" d="M5.492,10.4H2.82V15H1.313V3.625H5.078A4.457,4.457,0,0,1,8.035,4.5,3.148,3.148,0,0,1,9.07,7.047,3.062,3.062,0,0,1,8.5,8.9a3.428,3.428,0,0,1-1.6,1.18L9.57,14.906V15H7.961ZM2.82,9.172h2.3A2.6,2.6,0,0,0,6.9,8.593a1.959,1.959,0,0,0,.66-1.55,2.062,2.062,0,0,0-.629-1.62,2.663,2.663,0,0,0-1.816-.571H2.82Zm11.633,5.984a3.693,3.693,0,0,1-2.8-1.129,4.19,4.19,0,0,1-1.078-3.02v-.266a5.073,5.073,0,0,1,.48-2.246A3.748,3.748,0,0,1,12.4,6.949a3.378,3.378,0,0,1,1.871-.559,3.166,3.166,0,0,1,2.563,1.086,4.7,4.7,0,0,1,.914,3.109v.6H12.023a3,3,0,0,0,.73,2.02,2.3,2.3,0,0,0,1.777.77,2.517,2.517,0,0,0,1.3-.312,3.259,3.259,0,0,0,.93-.828l.883.688A3.55,3.55,0,0,1,14.453,15.156Zm-.18-7.578a1.928,1.928,0,0,0-1.469.637A3.1,3.1,0,0,0,12.07,10H16.3V9.891a2.753,2.753,0,0,0-.594-1.707A1.815,1.815,0,0,0,14.273,7.578ZM21.383,4.5V6.547h1.578V7.664H21.383v5.249a1.173,1.173,0,0,0,.211.763.888.888,0,0,0,.719.254A3.5,3.5,0,0,0,23,13.836V15a4.215,4.215,0,0,1-1.109.155,1.8,1.8,0,0,1-1.461-.586,2.517,2.517,0,0,1-.492-1.664V7.664H18.4V6.547h1.539V4.5Zm7.352,3.344a4.331,4.331,0,0,0-.711-.055A1.9,1.9,0,0,0,26.094,9v6H24.648V6.547h1.406l.023.977a2.251,2.251,0,0,1,2.016-1.133,1.477,1.477,0,0,1,.641.109Zm.789,2.852a4.993,4.993,0,0,1,.488-2.234A3.643,3.643,0,0,1,31.371,6.93a3.7,3.7,0,0,1,1.988-.539,3.565,3.565,0,0,1,2.793,1.2,4.6,4.6,0,0,1,1.066,3.18v.1a5.036,5.036,0,0,1-.473,2.215,3.589,3.589,0,0,1-1.352,1.527,3.743,3.743,0,0,1-2.02.547,3.556,3.556,0,0,1-2.785-1.2A4.575,4.575,0,0,1,29.523,10.8Zm1.453.172a3.616,3.616,0,0,0,.652,2.258,2.211,2.211,0,0,0,3.5-.012,3.955,3.955,0,0,0,.648-2.418,3.61,3.61,0,0,0-.66-2.254,2.1,2.1,0,0,0-1.754-.863,2.075,2.075,0,0,0-1.727.852A3.925,3.925,0,0,0,30.977,10.867ZM44.25,15a3.036,3.036,0,0,1-.2-.891,3.225,3.225,0,0,1-2.406,1.047,2.984,2.984,0,0,1-2.051-.707,2.287,2.287,0,0,1-.8-1.793,2.39,2.39,0,0,1,1-2.051,4.733,4.733,0,0,1,2.824-.73h1.406V9.211A1.623,1.623,0,0,0,43.57,8a1.821,1.821,0,0,0-1.336-.449,2.107,2.107,0,0,0-1.3.391,1.151,1.151,0,0,0-.523.945H38.961a2,2,0,0,1,.449-1.223,3.066,3.066,0,0,1,1.219-.934,4.1,4.1,0,0,1,1.691-.344,3.342,3.342,0,0,1,2.289.73,2.635,2.635,0,0,1,.859,2.012v3.891a4.757,4.757,0,0,0,.3,1.852V15Zm-2.4-1.1a2.54,2.54,0,0,0,1.289-.352,2.127,2.127,0,0,0,.883-.914V10.9H42.891q-2.656,0-2.656,1.555a1.316,1.316,0,0,0,.453,1.063A1.742,1.742,0,0,0,41.852,13.9ZM49.3,15H47.859V3H49.3Zm3.883,0H51.742V6.547h1.445ZM51.625,4.3a.863.863,0,0,1,.215-.594.807.807,0,0,1,.637-.242.819.819,0,0,1,.641.242.854.854,0,0,1,.219.594.826.826,0,0,1-.219.586.834.834,0,0,1-.641.234.821.821,0,0,1-.637-.234A.834.834,0,0,1,51.625,4.3Zm5.234,2.242.039.938a3.122,3.122,0,0,1,2.508-1.094A2.417,2.417,0,0,1,61.82,7.75a3.2,3.2,0,0,1,1.1-.984,3.242,3.242,0,0,1,1.6-.375q2.781,0,2.828,2.945V15H65.9V9.422a1.941,1.941,0,0,0-.414-1.355,1.823,1.823,0,0,0-1.391-.449,1.917,1.917,0,0,0-1.336.48,1.949,1.949,0,0,0-.617,1.293V15H60.688V9.461a1.613,1.613,0,0,0-1.8-1.844,1.934,1.934,0,0,0-1.945,1.211V15H55.492V6.547Zm16.172,8.609a3.693,3.693,0,0,1-2.8-1.129,4.19,4.19,0,0,1-1.078-3.02v-.266a5.073,5.073,0,0,1,.48-2.246A3.748,3.748,0,0,1,70.98,6.949a3.378,3.378,0,0,1,1.871-.559,3.166,3.166,0,0,1,2.563,1.086,4.7,4.7,0,0,1,.914,3.109v.6H70.6a3,3,0,0,0,.73,2.02,2.3,2.3,0,0,0,1.777.77,2.517,2.517,0,0,0,1.3-.312,3.259,3.259,0,0,0,.93-.828l.883.688A3.55,3.55,0,0,1,73.031,15.156Zm-.18-7.578a1.928,1.928,0,0,0-1.469.637A3.1,3.1,0,0,0,70.648,10h4.234V9.891a2.753,2.753,0,0,0-.594-1.707A1.815,1.815,0,0,0,72.852,7.578Zm6.516-1.031.047,1.063a3.08,3.08,0,0,1,2.531-1.219q2.68,0,2.7,3.023V15H83.2V9.406a1.946,1.946,0,0,0-.418-1.352,1.675,1.675,0,0,0-1.277-.437,2.086,2.086,0,0,0-1.234.375,2.546,2.546,0,0,0-.828.984V15H78V6.547ZM88.789,4.5V6.547h1.578V7.664H88.789v5.249a1.173,1.173,0,0,0,.211.763.888.888,0,0,0,.719.254,3.5,3.5,0,0,0,.688-.094V15a4.215,4.215,0,0,1-1.109.155,1.8,1.8,0,0,1-1.461-.586,2.517,2.517,0,0,1-.492-1.664V7.664H85.8V6.547h1.539V4.5ZM97.273,15a3.036,3.036,0,0,1-.2-.891,3.225,3.225,0,0,1-2.406,1.047,2.984,2.984,0,0,1-2.051-.707,2.288,2.288,0,0,1-.8-1.793,2.39,2.39,0,0,1,1-2.051,4.733,4.733,0,0,1,2.824-.73h1.406V9.211A1.623,1.623,0,0,0,96.594,8a1.821,1.821,0,0,0-1.336-.449,2.108,2.108,0,0,0-1.3.391,1.151,1.151,0,0,0-.523.945H91.984a2,2,0,0,1,.449-1.223,3.066,3.066,0,0,1,1.219-.934,4.1,4.1,0,0,1,1.691-.344,3.342,3.342,0,0,1,2.289.73,2.635,2.635,0,0,1,.859,2.012v3.891a4.757,4.757,0,0,0,.3,1.852V15Zm-2.4-1.1a2.54,2.54,0,0,0,1.289-.352,2.127,2.127,0,0,0,.883-.914V10.9H95.914q-2.656,0-2.656,1.555a1.316,1.316,0,0,0,.453,1.063A1.742,1.742,0,0,0,94.875,13.9Zm9.273.078a2.082,2.082,0,0,0,1.352-.469,1.649,1.649,0,0,0,.641-1.172h1.367a2.621,2.621,0,0,1-.5,1.383,3.293,3.293,0,0,1-1.23,1.047,3.55,3.55,0,0,1-1.629.391A3.482,3.482,0,0,1,101.4,14a4.59,4.59,0,0,1-1.02-3.152v-.242a5.089,5.089,0,0,1,.453-2.2,3.451,3.451,0,0,1,1.3-1.492,3.7,3.7,0,0,1,2-.531,3.39,3.39,0,0,1,2.363.852,3.043,3.043,0,0,1,1,2.211h-1.367a1.992,1.992,0,0,0-.621-1.348,1.932,1.932,0,0,0-1.379-.527,2.023,2.023,0,0,0-1.707.793,3.724,3.724,0,0,0-.605,2.293v.273a3.65,3.65,0,0,0,.6,2.25A2.033,2.033,0,0,0,104.148,13.977ZM110.7,15h-1.445V6.547H110.7ZM109.141,4.3a.863.863,0,0,1,.215-.594.807.807,0,0,1,.637-.242.819.819,0,0,1,.641.242.854.854,0,0,1,.219.594.826.826,0,0,1-.219.586.834.834,0,0,1-.641.234.821.821,0,0,1-.637-.234A.834.834,0,0,1,109.141,4.3Zm3.492,6.391a4.993,4.993,0,0,1,.488-2.234A3.643,3.643,0,0,1,114.48,6.93a3.7,3.7,0,0,1,1.988-.539,3.565,3.565,0,0,1,2.793,1.2,4.6,4.6,0,0,1,1.066,3.18v.1a5.036,5.036,0,0,1-.473,2.215,3.589,3.589,0,0,1-1.352,1.527,3.743,3.743,0,0,1-2.02.547,3.556,3.556,0,0,1-2.785-1.2,4.575,4.575,0,0,1-1.066-3.164Zm1.453.172a3.616,3.616,0,0,0,.652,2.258,2.211,2.211,0,0,0,3.5-.012,3.955,3.955,0,0,0,.648-2.418,3.61,3.61,0,0,0-.66-2.254,2.1,2.1,0,0,0-1.754-.863,2.075,2.075,0,0,0-1.727.852A3.925,3.925,0,0,0,114.086,10.867Zm3.039-7.852h1.75l-2.094,2.3-1.164,0Zm6.383,3.531.047,1.063a3.08,3.08,0,0,1,2.531-1.219q2.68,0,2.7,3.023V15h-1.445V9.406a1.946,1.946,0,0,0-.418-1.352,1.675,1.675,0,0,0-1.277-.437,2.086,2.086,0,0,0-1.234.375,2.546,2.546,0,0,0-.828.984V15h-1.445V6.547Z" transform="translate(1007 1473)" fill="#12263f"/>
        <g id="Rectángulo_33795" data-name="Rectángulo 33795" transform="translate(816 1371)" fill="none" stroke="#039be5" stroke-width="2">
          <rect width="508" height="162" stroke="none"/>
          <rect x="1" y="1" width="506" height="160" fill="none"/>
        </g>
      </g>
    </g>
  </g>
</svg>
