<svg xmlns="http://www.w3.org/2000/svg" width="866" height="252" viewBox="0 0 866 252">
  <g id="Grupo_79270" data-name="Grupo 79270" transform="translate(-285 -1929)">
    <path id="Trazado_116638" data-name="Trazado 116638" d="M-24.943,0h-1.687V-12.8h1.688Zm4.368-9.51.053,1.2a3.465,3.465,0,0,1,2.848-1.371q3.015,0,3.041,3.4V0H-16.26V-6.293a2.189,2.189,0,0,0-.47-1.521,1.884,1.884,0,0,0-1.437-.492,2.347,2.347,0,0,0-1.389.422,2.865,2.865,0,0,0-.932,1.107V0h-1.626V-9.51ZM-8.367-1.151a2.342,2.342,0,0,0,1.521-.527A1.855,1.855,0,0,0-6.126-3h1.538A2.949,2.949,0,0,1-5.15-1.441,3.7,3.7,0,0,1-6.535-.264,3.994,3.994,0,0,1-8.367.176a3.918,3.918,0,0,1-3.089-1.3A5.163,5.163,0,0,1-12.6-4.667v-.272a5.725,5.725,0,0,1,.51-2.47A3.883,3.883,0,0,1-10.63-9.088a4.157,4.157,0,0,1,2.254-.6,3.814,3.814,0,0,1,2.659.958A3.424,3.424,0,0,1-4.588-6.24H-6.126a2.241,2.241,0,0,0-.7-1.516A2.174,2.174,0,0,0-8.376-8.35a2.276,2.276,0,0,0-1.92.892,4.19,4.19,0,0,0-.681,2.58v.308A4.106,4.106,0,0,0-10.3-2.039,2.287,2.287,0,0,0-8.367-1.151ZM-.993,0H-2.619V-13.5H-.993ZM7.479-.94A3.454,3.454,0,0,1,4.693.176,2.956,2.956,0,0,1,2.377-.708a3.823,3.823,0,0,1-.8-2.615V-9.51H3.2v6.144Q3.2-1.2,4.957-1.2A2.434,2.434,0,0,0,7.436-2.593V-9.51H9.062V0H7.515Zm7.163-1.441L16.857-9.51H18.6L14.774,1.468q-.888,2.373-2.821,2.373l-.308-.026L11.039,3.7V2.382l.439.035a2.164,2.164,0,0,0,1.288-.334,2.417,2.417,0,0,0,.76-1.222l.36-.967-3.393-9.4H12.27ZM23.88.176a4.155,4.155,0,0,1-3.146-1.27,4.714,4.714,0,0,1-1.213-3.4v-.3a5.707,5.707,0,0,1,.541-2.527,4.217,4.217,0,0,1,1.512-1.74,3.8,3.8,0,0,1,2.1-.628,3.562,3.562,0,0,1,2.883,1.222,5.289,5.289,0,0,1,1.028,3.5v.677H21.146a3.38,3.38,0,0,0,.822,2.272,2.583,2.583,0,0,0,2,.866A2.832,2.832,0,0,0,25.427-1.5a3.666,3.666,0,0,0,1.046-.932l.993.773A3.993,3.993,0,0,1,23.88.176Zm-.2-8.525a2.169,2.169,0,0,0-1.652.716A3.482,3.482,0,0,0,21.2-5.625h4.764v-.123a3.1,3.1,0,0,0-.668-1.92A2.042,2.042,0,0,0,23.678-8.35Z" transform="translate(1064 2007)" fill="#12263f"/>
    <path id="Trazado_116637" data-name="Trazado 116637" d="M-24.943,0h-1.687V-12.8h1.688Zm4.368-9.51.053,1.2a3.465,3.465,0,0,1,2.848-1.371q3.015,0,3.041,3.4V0H-16.26V-6.293a2.189,2.189,0,0,0-.47-1.521,1.884,1.884,0,0,0-1.437-.492,2.347,2.347,0,0,0-1.389.422,2.865,2.865,0,0,0-.932,1.107V0h-1.626V-9.51ZM-8.367-1.151a2.342,2.342,0,0,0,1.521-.527A1.855,1.855,0,0,0-6.126-3h1.538A2.949,2.949,0,0,1-5.15-1.441,3.7,3.7,0,0,1-6.535-.264,3.994,3.994,0,0,1-8.367.176a3.918,3.918,0,0,1-3.089-1.3A5.163,5.163,0,0,1-12.6-4.667v-.272a5.725,5.725,0,0,1,.51-2.47A3.883,3.883,0,0,1-10.63-9.088a4.157,4.157,0,0,1,2.254-.6,3.814,3.814,0,0,1,2.659.958A3.424,3.424,0,0,1-4.588-6.24H-6.126a2.241,2.241,0,0,0-.7-1.516A2.174,2.174,0,0,0-8.376-8.35a2.276,2.276,0,0,0-1.92.892,4.19,4.19,0,0,0-.681,2.58v.308A4.106,4.106,0,0,0-10.3-2.039,2.287,2.287,0,0,0-8.367-1.151ZM-.993,0H-2.619V-13.5H-.993ZM7.479-.94A3.454,3.454,0,0,1,4.693.176,2.956,2.956,0,0,1,2.377-.708a3.823,3.823,0,0,1-.8-2.615V-9.51H3.2v6.144Q3.2-1.2,4.957-1.2A2.434,2.434,0,0,0,7.436-2.593V-9.51H9.062V0H7.515Zm7.163-1.441L16.857-9.51H18.6L14.774,1.468q-.888,2.373-2.821,2.373l-.308-.026L11.039,3.7V2.382l.439.035a2.164,2.164,0,0,0,1.288-.334,2.417,2.417,0,0,0,.76-1.222l.36-.967-3.393-9.4H12.27ZM23.88.176a4.155,4.155,0,0,1-3.146-1.27,4.714,4.714,0,0,1-1.213-3.4v-.3a5.707,5.707,0,0,1,.541-2.527,4.217,4.217,0,0,1,1.512-1.74,3.8,3.8,0,0,1,2.1-.628,3.562,3.562,0,0,1,2.883,1.222,5.289,5.289,0,0,1,1.028,3.5v.677H21.146a3.38,3.38,0,0,0,.822,2.272,2.583,2.583,0,0,0,2,.866A2.832,2.832,0,0,0,25.427-1.5a3.666,3.666,0,0,0,1.046-.932l.993.773A3.993,3.993,0,0,1,23.88.176Zm-.2-8.525a2.169,2.169,0,0,0-1.652.716A3.482,3.482,0,0,0,21.2-5.625h4.764v-.123a3.1,3.1,0,0,0-.668-1.92A2.042,2.042,0,0,0,23.678-8.35Z" transform="translate(605 2007)" fill="#12263f"/>
    <path id="Trazado_116641" data-name="Trazado 116641" d="M-36.76-5.01V0h-1.687V-12.8h4.72a4.742,4.742,0,0,1,3.292,1.072,3.635,3.635,0,0,1,1.191,2.839,3.587,3.587,0,0,1-1.165,2.87A4.954,4.954,0,0,1-33.746-5.01Zm0-1.38h3.032a3.032,3.032,0,0,0,2.074-.638,2.334,2.334,0,0,0,.721-1.845,2.411,2.411,0,0,0-.721-1.831,2.84,2.84,0,0,0-1.978-.713H-36.76ZM-21.476-.94A3.454,3.454,0,0,1-24.262.176a2.956,2.956,0,0,1-2.316-.883,3.823,3.823,0,0,1-.8-2.615V-9.51h1.626v6.144Q-25.756-1.2-24-1.2A2.434,2.434,0,0,0-21.52-2.593V-9.51h1.626V0h-1.547Zm8,1.116a4.155,4.155,0,0,1-3.146-1.27,4.714,4.714,0,0,1-1.213-3.4v-.3A5.707,5.707,0,0,1-17.3-7.317a4.217,4.217,0,0,1,1.512-1.74,3.8,3.8,0,0,1,2.1-.628A3.562,3.562,0,0,1-10.8-8.464a5.289,5.289,0,0,1,1.028,3.5v.677h-6.442a3.38,3.38,0,0,0,.822,2.272,2.583,2.583,0,0,0,2,.866A2.832,2.832,0,0,0-11.931-1.5a3.666,3.666,0,0,0,1.046-.932l.993.773A3.993,3.993,0,0,1-13.478.176Zm-.2-8.525a2.169,2.169,0,0,0-1.652.716,3.482,3.482,0,0,0-.826,2.008H-11.4v-.123a3.1,3.1,0,0,0-.668-1.92A2.042,2.042,0,0,0-13.68-8.35Zm5.4,3.516a5.571,5.571,0,0,1,1.037-3.52A3.28,3.28,0,0,1-4.531-9.686,3.3,3.3,0,0,1-1.885-8.543V-13.5H-.259V0H-1.753l-.079-1.02A3.311,3.311,0,0,1-4.548.176,3.248,3.248,0,0,1-7.242-1.178,5.634,5.634,0,0,1-8.284-4.711Zm1.626.185A4.218,4.218,0,0,0-5.99-2.118,2.159,2.159,0,0,0-4.144-1.2,2.372,2.372,0,0,0-1.885-2.593V-6.961A2.39,2.39,0,0,0-4.126-8.306a2.17,2.17,0,0,0-1.863.923A4.644,4.644,0,0,0-6.658-4.649ZM6.209.176a4.155,4.155,0,0,1-3.146-1.27,4.714,4.714,0,0,1-1.213-3.4v-.3a5.707,5.707,0,0,1,.541-2.527A4.217,4.217,0,0,1,3.9-9.057a3.8,3.8,0,0,1,2.1-.628A3.562,3.562,0,0,1,8.89-8.464a5.289,5.289,0,0,1,1.028,3.5v.677H3.476A3.38,3.38,0,0,0,4.3-2.017a2.583,2.583,0,0,0,2,.866A2.832,2.832,0,0,0,7.756-1.5,3.666,3.666,0,0,0,8.8-2.435l.993.773A3.993,3.993,0,0,1,6.209.176Zm-.2-8.525a2.169,2.169,0,0,0-1.652.716,3.482,3.482,0,0,0-.826,2.008H8.292v-.123a3.1,3.1,0,0,0-.668-1.92A2.042,2.042,0,0,0,6.007-8.35ZM21.792-2.522a1.2,1.2,0,0,0-.5-1.024,4.78,4.78,0,0,0-1.731-.628,8.186,8.186,0,0,1-1.96-.633,2.788,2.788,0,0,1-1.072-.879A2.1,2.1,0,0,1,16.185-6.9a2.467,2.467,0,0,1,.989-1.978A3.861,3.861,0,0,1,19.7-9.686a3.974,3.974,0,0,1,2.624.835,2.652,2.652,0,0,1,1.006,2.136H21.7a1.468,1.468,0,0,0-.567-1.151A2.124,2.124,0,0,0,19.7-8.35a2.223,2.223,0,0,0-1.389.387,1.217,1.217,0,0,0-.5,1.011.986.986,0,0,0,.466.888,5.731,5.731,0,0,0,1.683.571,8.77,8.77,0,0,1,1.973.65,2.878,2.878,0,0,1,1.121.91,2.237,2.237,0,0,1,.365,1.3A2.434,2.434,0,0,1,22.4-.593a4.277,4.277,0,0,1-2.646.769,4.789,4.789,0,0,1-2.021-.4,3.288,3.288,0,0,1-1.375-1.129,2.722,2.722,0,0,1-.5-1.569h1.626a1.683,1.683,0,0,0,.655,1.3,2.54,2.54,0,0,0,1.613.479,2.622,2.622,0,0,0,1.481-.374A1.148,1.148,0,0,0,21.792-2.522Zm7.69,2.7a4.155,4.155,0,0,1-3.146-1.27,4.714,4.714,0,0,1-1.213-3.4v-.3a5.707,5.707,0,0,1,.541-2.527,4.217,4.217,0,0,1,1.512-1.74,3.8,3.8,0,0,1,2.1-.628,3.562,3.562,0,0,1,2.883,1.222,5.289,5.289,0,0,1,1.028,3.5v.677H26.75a3.38,3.38,0,0,0,.822,2.272,2.583,2.583,0,0,0,2,.866A2.832,2.832,0,0,0,31.03-1.5a3.666,3.666,0,0,0,1.046-.932l.993.773A3.993,3.993,0,0,1,29.483.176Zm-.2-8.525a2.169,2.169,0,0,0-1.652.716A3.482,3.482,0,0,0,26.8-5.625h4.764v-.123a3.1,3.1,0,0,0-.668-1.92A2.042,2.042,0,0,0,29.281-8.35Zm10.389.3a4.873,4.873,0,0,0-.8-.062A2.143,2.143,0,0,0,36.7-6.75V0H35.073V-9.51h1.582l.026,1.1a2.532,2.532,0,0,1,2.268-1.274,1.661,1.661,0,0,1,.721.123Z" transform="translate(385 2122)" fill="#12263f"/>
    <path id="Trazado_116642" data-name="Trazado 116642" d="M-36.76-5.01V0h-1.687V-12.8h4.72a4.742,4.742,0,0,1,3.292,1.072,3.635,3.635,0,0,1,1.191,2.839,3.587,3.587,0,0,1-1.165,2.87A4.954,4.954,0,0,1-33.746-5.01Zm0-1.38h3.032a3.032,3.032,0,0,0,2.074-.638,2.334,2.334,0,0,0,.721-1.845,2.411,2.411,0,0,0-.721-1.831,2.84,2.84,0,0,0-1.978-.713H-36.76ZM-21.476-.94A3.454,3.454,0,0,1-24.262.176a2.956,2.956,0,0,1-2.316-.883,3.823,3.823,0,0,1-.8-2.615V-9.51h1.626v6.144Q-25.756-1.2-24-1.2A2.434,2.434,0,0,0-21.52-2.593V-9.51h1.626V0h-1.547Zm8,1.116a4.155,4.155,0,0,1-3.146-1.27,4.714,4.714,0,0,1-1.213-3.4v-.3A5.707,5.707,0,0,1-17.3-7.317a4.217,4.217,0,0,1,1.512-1.74,3.8,3.8,0,0,1,2.1-.628A3.562,3.562,0,0,1-10.8-8.464a5.289,5.289,0,0,1,1.028,3.5v.677h-6.442a3.38,3.38,0,0,0,.822,2.272,2.583,2.583,0,0,0,2,.866A2.832,2.832,0,0,0-11.931-1.5a3.666,3.666,0,0,0,1.046-.932l.993.773A3.993,3.993,0,0,1-13.478.176Zm-.2-8.525a2.169,2.169,0,0,0-1.652.716,3.482,3.482,0,0,0-.826,2.008H-11.4v-.123a3.1,3.1,0,0,0-.668-1.92A2.042,2.042,0,0,0-13.68-8.35Zm5.4,3.516a5.571,5.571,0,0,1,1.037-3.52A3.28,3.28,0,0,1-4.531-9.686,3.3,3.3,0,0,1-1.885-8.543V-13.5H-.259V0H-1.753l-.079-1.02A3.311,3.311,0,0,1-4.548.176,3.248,3.248,0,0,1-7.242-1.178,5.634,5.634,0,0,1-8.284-4.711Zm1.626.185A4.218,4.218,0,0,0-5.99-2.118,2.159,2.159,0,0,0-4.144-1.2,2.372,2.372,0,0,0-1.885-2.593V-6.961A2.39,2.39,0,0,0-4.126-8.306a2.17,2.17,0,0,0-1.863.923A4.644,4.644,0,0,0-6.658-4.649ZM6.209.176a4.155,4.155,0,0,1-3.146-1.27,4.714,4.714,0,0,1-1.213-3.4v-.3a5.707,5.707,0,0,1,.541-2.527A4.217,4.217,0,0,1,3.9-9.057a3.8,3.8,0,0,1,2.1-.628A3.562,3.562,0,0,1,8.89-8.464a5.289,5.289,0,0,1,1.028,3.5v.677H3.476A3.38,3.38,0,0,0,4.3-2.017a2.583,2.583,0,0,0,2,.866A2.832,2.832,0,0,0,7.756-1.5,3.666,3.666,0,0,0,8.8-2.435l.993.773A3.993,3.993,0,0,1,6.209.176Zm-.2-8.525a2.169,2.169,0,0,0-1.652.716,3.482,3.482,0,0,0-.826,2.008H8.292v-.123a3.1,3.1,0,0,0-.668-1.92A2.042,2.042,0,0,0,6.007-8.35ZM21.792-2.522a1.2,1.2,0,0,0-.5-1.024,4.78,4.78,0,0,0-1.731-.628,8.186,8.186,0,0,1-1.96-.633,2.788,2.788,0,0,1-1.072-.879A2.1,2.1,0,0,1,16.185-6.9a2.467,2.467,0,0,1,.989-1.978A3.861,3.861,0,0,1,19.7-9.686a3.974,3.974,0,0,1,2.624.835,2.652,2.652,0,0,1,1.006,2.136H21.7a1.468,1.468,0,0,0-.567-1.151A2.124,2.124,0,0,0,19.7-8.35a2.223,2.223,0,0,0-1.389.387,1.217,1.217,0,0,0-.5,1.011.986.986,0,0,0,.466.888,5.731,5.731,0,0,0,1.683.571,8.77,8.77,0,0,1,1.973.65,2.878,2.878,0,0,1,1.121.91,2.237,2.237,0,0,1,.365,1.3A2.434,2.434,0,0,1,22.4-.593a4.277,4.277,0,0,1-2.646.769,4.789,4.789,0,0,1-2.021-.4,3.288,3.288,0,0,1-1.375-1.129,2.722,2.722,0,0,1-.5-1.569h1.626a1.683,1.683,0,0,0,.655,1.3,2.54,2.54,0,0,0,1.613.479,2.622,2.622,0,0,0,1.481-.374A1.148,1.148,0,0,0,21.792-2.522Zm7.69,2.7a4.155,4.155,0,0,1-3.146-1.27,4.714,4.714,0,0,1-1.213-3.4v-.3a5.707,5.707,0,0,1,.541-2.527,4.217,4.217,0,0,1,1.512-1.74,3.8,3.8,0,0,1,2.1-.628,3.562,3.562,0,0,1,2.883,1.222,5.289,5.289,0,0,1,1.028,3.5v.677H26.75a3.38,3.38,0,0,0,.822,2.272,2.583,2.583,0,0,0,2,.866A2.832,2.832,0,0,0,31.03-1.5a3.666,3.666,0,0,0,1.046-.932l.993.773A3.993,3.993,0,0,1,29.483.176Zm-.2-8.525a2.169,2.169,0,0,0-1.652.716A3.482,3.482,0,0,0,26.8-5.625h4.764v-.123a3.1,3.1,0,0,0-.668-1.92A2.042,2.042,0,0,0,29.281-8.35Zm10.389.3a4.873,4.873,0,0,0-.8-.062A2.143,2.143,0,0,0,36.7-6.75V0H35.073V-9.51h1.582l.026,1.1a2.532,2.532,0,0,1,2.268-1.274,1.661,1.661,0,0,1,.721.123Z" transform="translate(605 2117)" fill="#12263f"/>
    <path id="Trazado_116643" data-name="Trazado 116643" d="M-36.76-5.01V0h-1.687V-12.8h4.72a4.742,4.742,0,0,1,3.292,1.072,3.635,3.635,0,0,1,1.191,2.839,3.587,3.587,0,0,1-1.165,2.87A4.954,4.954,0,0,1-33.746-5.01Zm0-1.38h3.032a3.032,3.032,0,0,0,2.074-.638,2.334,2.334,0,0,0,.721-1.845,2.411,2.411,0,0,0-.721-1.831,2.84,2.84,0,0,0-1.978-.713H-36.76ZM-21.476-.94A3.454,3.454,0,0,1-24.262.176a2.956,2.956,0,0,1-2.316-.883,3.823,3.823,0,0,1-.8-2.615V-9.51h1.626v6.144Q-25.756-1.2-24-1.2A2.434,2.434,0,0,0-21.52-2.593V-9.51h1.626V0h-1.547Zm8,1.116a4.155,4.155,0,0,1-3.146-1.27,4.714,4.714,0,0,1-1.213-3.4v-.3A5.707,5.707,0,0,1-17.3-7.317a4.217,4.217,0,0,1,1.512-1.74,3.8,3.8,0,0,1,2.1-.628A3.562,3.562,0,0,1-10.8-8.464a5.289,5.289,0,0,1,1.028,3.5v.677h-6.442a3.38,3.38,0,0,0,.822,2.272,2.583,2.583,0,0,0,2,.866A2.832,2.832,0,0,0-11.931-1.5a3.666,3.666,0,0,0,1.046-.932l.993.773A3.993,3.993,0,0,1-13.478.176Zm-.2-8.525a2.169,2.169,0,0,0-1.652.716,3.482,3.482,0,0,0-.826,2.008H-11.4v-.123a3.1,3.1,0,0,0-.668-1.92A2.042,2.042,0,0,0-13.68-8.35Zm5.4,3.516a5.571,5.571,0,0,1,1.037-3.52A3.28,3.28,0,0,1-4.531-9.686,3.3,3.3,0,0,1-1.885-8.543V-13.5H-.259V0H-1.753l-.079-1.02A3.311,3.311,0,0,1-4.548.176,3.248,3.248,0,0,1-7.242-1.178,5.634,5.634,0,0,1-8.284-4.711Zm1.626.185A4.218,4.218,0,0,0-5.99-2.118,2.159,2.159,0,0,0-4.144-1.2,2.372,2.372,0,0,0-1.885-2.593V-6.961A2.39,2.39,0,0,0-4.126-8.306a2.17,2.17,0,0,0-1.863.923A4.644,4.644,0,0,0-6.658-4.649ZM6.209.176a4.155,4.155,0,0,1-3.146-1.27,4.714,4.714,0,0,1-1.213-3.4v-.3a5.707,5.707,0,0,1,.541-2.527A4.217,4.217,0,0,1,3.9-9.057a3.8,3.8,0,0,1,2.1-.628A3.562,3.562,0,0,1,8.89-8.464a5.289,5.289,0,0,1,1.028,3.5v.677H3.476A3.38,3.38,0,0,0,4.3-2.017a2.583,2.583,0,0,0,2,.866A2.832,2.832,0,0,0,7.756-1.5,3.666,3.666,0,0,0,8.8-2.435l.993.773A3.993,3.993,0,0,1,6.209.176Zm-.2-8.525a2.169,2.169,0,0,0-1.652.716,3.482,3.482,0,0,0-.826,2.008H8.292v-.123a3.1,3.1,0,0,0-.668-1.92A2.042,2.042,0,0,0,6.007-8.35ZM21.792-2.522a1.2,1.2,0,0,0-.5-1.024,4.78,4.78,0,0,0-1.731-.628,8.186,8.186,0,0,1-1.96-.633,2.788,2.788,0,0,1-1.072-.879A2.1,2.1,0,0,1,16.185-6.9a2.467,2.467,0,0,1,.989-1.978A3.861,3.861,0,0,1,19.7-9.686a3.974,3.974,0,0,1,2.624.835,2.652,2.652,0,0,1,1.006,2.136H21.7a1.468,1.468,0,0,0-.567-1.151A2.124,2.124,0,0,0,19.7-8.35a2.223,2.223,0,0,0-1.389.387,1.217,1.217,0,0,0-.5,1.011.986.986,0,0,0,.466.888,5.731,5.731,0,0,0,1.683.571,8.77,8.77,0,0,1,1.973.65,2.878,2.878,0,0,1,1.121.91,2.237,2.237,0,0,1,.365,1.3A2.434,2.434,0,0,1,22.4-.593a4.277,4.277,0,0,1-2.646.769,4.789,4.789,0,0,1-2.021-.4,3.288,3.288,0,0,1-1.375-1.129,2.722,2.722,0,0,1-.5-1.569h1.626a1.683,1.683,0,0,0,.655,1.3,2.54,2.54,0,0,0,1.613.479,2.622,2.622,0,0,0,1.481-.374A1.148,1.148,0,0,0,21.792-2.522Zm7.69,2.7a4.155,4.155,0,0,1-3.146-1.27,4.714,4.714,0,0,1-1.213-3.4v-.3a5.707,5.707,0,0,1,.541-2.527,4.217,4.217,0,0,1,1.512-1.74,3.8,3.8,0,0,1,2.1-.628,3.562,3.562,0,0,1,2.883,1.222,5.289,5.289,0,0,1,1.028,3.5v.677H26.75a3.38,3.38,0,0,0,.822,2.272,2.583,2.583,0,0,0,2,.866A2.832,2.832,0,0,0,31.03-1.5a3.666,3.666,0,0,0,1.046-.932l.993.773A3.993,3.993,0,0,1,29.483.176Zm-.2-8.525a2.169,2.169,0,0,0-1.652.716A3.482,3.482,0,0,0,26.8-5.625h4.764v-.123a3.1,3.1,0,0,0-.668-1.92A2.042,2.042,0,0,0,29.281-8.35Zm10.389.3a4.873,4.873,0,0,0-.8-.062A2.143,2.143,0,0,0,36.7-6.75V0H35.073V-9.51h1.582l.026,1.1a2.532,2.532,0,0,1,2.268-1.274,1.661,1.661,0,0,1,.721.123Z" transform="translate(848 2117)" fill="#12263f"/>
    <path id="Trazado_116644" data-name="Trazado 116644" d="M-36.76-5.01V0h-1.687V-12.8h4.72a4.742,4.742,0,0,1,3.292,1.072,3.635,3.635,0,0,1,1.191,2.839,3.587,3.587,0,0,1-1.165,2.87A4.954,4.954,0,0,1-33.746-5.01Zm0-1.38h3.032a3.032,3.032,0,0,0,2.074-.638,2.334,2.334,0,0,0,.721-1.845,2.411,2.411,0,0,0-.721-1.831,2.84,2.84,0,0,0-1.978-.713H-36.76ZM-21.476-.94A3.454,3.454,0,0,1-24.262.176a2.956,2.956,0,0,1-2.316-.883,3.823,3.823,0,0,1-.8-2.615V-9.51h1.626v6.144Q-25.756-1.2-24-1.2A2.434,2.434,0,0,0-21.52-2.593V-9.51h1.626V0h-1.547Zm8,1.116a4.155,4.155,0,0,1-3.146-1.27,4.714,4.714,0,0,1-1.213-3.4v-.3A5.707,5.707,0,0,1-17.3-7.317a4.217,4.217,0,0,1,1.512-1.74,3.8,3.8,0,0,1,2.1-.628A3.562,3.562,0,0,1-10.8-8.464a5.289,5.289,0,0,1,1.028,3.5v.677h-6.442a3.38,3.38,0,0,0,.822,2.272,2.583,2.583,0,0,0,2,.866A2.832,2.832,0,0,0-11.931-1.5a3.666,3.666,0,0,0,1.046-.932l.993.773A3.993,3.993,0,0,1-13.478.176Zm-.2-8.525a2.169,2.169,0,0,0-1.652.716,3.482,3.482,0,0,0-.826,2.008H-11.4v-.123a3.1,3.1,0,0,0-.668-1.92A2.042,2.042,0,0,0-13.68-8.35Zm5.4,3.516a5.571,5.571,0,0,1,1.037-3.52A3.28,3.28,0,0,1-4.531-9.686,3.3,3.3,0,0,1-1.885-8.543V-13.5H-.259V0H-1.753l-.079-1.02A3.311,3.311,0,0,1-4.548.176,3.248,3.248,0,0,1-7.242-1.178,5.634,5.634,0,0,1-8.284-4.711Zm1.626.185A4.218,4.218,0,0,0-5.99-2.118,2.159,2.159,0,0,0-4.144-1.2,2.372,2.372,0,0,0-1.885-2.593V-6.961A2.39,2.39,0,0,0-4.126-8.306a2.17,2.17,0,0,0-1.863.923A4.644,4.644,0,0,0-6.658-4.649ZM6.209.176a4.155,4.155,0,0,1-3.146-1.27,4.714,4.714,0,0,1-1.213-3.4v-.3a5.707,5.707,0,0,1,.541-2.527A4.217,4.217,0,0,1,3.9-9.057a3.8,3.8,0,0,1,2.1-.628A3.562,3.562,0,0,1,8.89-8.464a5.289,5.289,0,0,1,1.028,3.5v.677H3.476A3.38,3.38,0,0,0,4.3-2.017a2.583,2.583,0,0,0,2,.866A2.832,2.832,0,0,0,7.756-1.5,3.666,3.666,0,0,0,8.8-2.435l.993.773A3.993,3.993,0,0,1,6.209.176Zm-.2-8.525a2.169,2.169,0,0,0-1.652.716,3.482,3.482,0,0,0-.826,2.008H8.292v-.123a3.1,3.1,0,0,0-.668-1.92A2.042,2.042,0,0,0,6.007-8.35ZM21.792-2.522a1.2,1.2,0,0,0-.5-1.024,4.78,4.78,0,0,0-1.731-.628,8.186,8.186,0,0,1-1.96-.633,2.788,2.788,0,0,1-1.072-.879A2.1,2.1,0,0,1,16.185-6.9a2.467,2.467,0,0,1,.989-1.978A3.861,3.861,0,0,1,19.7-9.686a3.974,3.974,0,0,1,2.624.835,2.652,2.652,0,0,1,1.006,2.136H21.7a1.468,1.468,0,0,0-.567-1.151A2.124,2.124,0,0,0,19.7-8.35a2.223,2.223,0,0,0-1.389.387,1.217,1.217,0,0,0-.5,1.011.986.986,0,0,0,.466.888,5.731,5.731,0,0,0,1.683.571,8.77,8.77,0,0,1,1.973.65,2.878,2.878,0,0,1,1.121.91,2.237,2.237,0,0,1,.365,1.3A2.434,2.434,0,0,1,22.4-.593a4.277,4.277,0,0,1-2.646.769,4.789,4.789,0,0,1-2.021-.4,3.288,3.288,0,0,1-1.375-1.129,2.722,2.722,0,0,1-.5-1.569h1.626a1.683,1.683,0,0,0,.655,1.3,2.54,2.54,0,0,0,1.613.479,2.622,2.622,0,0,0,1.481-.374A1.148,1.148,0,0,0,21.792-2.522Zm7.69,2.7a4.155,4.155,0,0,1-3.146-1.27,4.714,4.714,0,0,1-1.213-3.4v-.3a5.707,5.707,0,0,1,.541-2.527,4.217,4.217,0,0,1,1.512-1.74,3.8,3.8,0,0,1,2.1-.628,3.562,3.562,0,0,1,2.883,1.222,5.289,5.289,0,0,1,1.028,3.5v.677H26.75a3.38,3.38,0,0,0,.822,2.272,2.583,2.583,0,0,0,2,.866A2.832,2.832,0,0,0,31.03-1.5a3.666,3.666,0,0,0,1.046-.932l.993.773A3.993,3.993,0,0,1,29.483.176Zm-.2-8.525a2.169,2.169,0,0,0-1.652.716A3.482,3.482,0,0,0,26.8-5.625h4.764v-.123a3.1,3.1,0,0,0-.668-1.92A2.042,2.042,0,0,0,29.281-8.35Zm10.389.3a4.873,4.873,0,0,0-.8-.062A2.143,2.143,0,0,0,36.7-6.75V0H35.073V-9.51h1.582l.026,1.1a2.532,2.532,0,0,1,2.268-1.274,1.661,1.661,0,0,1,.721.123Z" transform="translate(1067 2125)" fill="#12263f"/>
    <line id="Línea_145" data-name="Línea 145" y2="32.5" transform="translate(604.5 2061)" fill="none" stroke="#039be5" stroke-width="4"/>
    <line id="Línea_146" data-name="Línea 146" y2="37" transform="translate(1064 2056)" fill="none" stroke="#039be5" stroke-width="4"/>
    <rect id="Rectángulo_33786" data-name="Rectángulo 33786" width="128" height="47" rx="13" transform="translate(541 2019)" fill="#26a69a"/>
    <path id="Trazado_116640" data-name="Trazado 116640" d="M-37.755-6.9h-6.47V-1.61h7.516V0h-9.485V-14.93h9.382v1.61h-7.414v4.809h6.47ZM-28.1-2.943a1.4,1.4,0,0,0-.579-1.195,5.576,5.576,0,0,0-2.02-.733,9.551,9.551,0,0,1-2.287-.738,3.253,3.253,0,0,1-1.251-1.025,2.453,2.453,0,0,1-.405-1.415,2.878,2.878,0,0,1,1.154-2.307,4.505,4.505,0,0,1,2.948-.943,4.636,4.636,0,0,1,3.061.974A3.094,3.094,0,0,1-26.3-7.834h-1.907a1.713,1.713,0,0,0-.661-1.343,2.478,2.478,0,0,0-1.666-.564,2.593,2.593,0,0,0-1.62.451,1.42,1.42,0,0,0-.584,1.179A1.151,1.151,0,0,0-32.2-7.075a6.687,6.687,0,0,0,1.964.667,10.231,10.231,0,0,1,2.3.759,3.358,3.358,0,0,1,1.307,1.061A2.609,2.609,0,0,1-26.2-3.076,2.839,2.839,0,0,1-27.388-.692a4.989,4.989,0,0,1-3.086.9,5.587,5.587,0,0,1-2.358-.472,3.836,3.836,0,0,1-1.6-1.318,3.176,3.176,0,0,1-.579-1.83h1.9A1.964,1.964,0,0,0-32.356-1.9a2.964,2.964,0,0,0,1.882.559,3.059,3.059,0,0,0,1.728-.436A1.339,1.339,0,0,0-28.1-2.943Zm6.942-10.838v2.687h2.071v1.466h-2.071v6.889a1.54,1.54,0,0,0,.277,1,1.165,1.165,0,0,0,.943.334,4.593,4.593,0,0,0,.9-.123V0a5.532,5.532,0,0,1-1.456.2A2.362,2.362,0,0,1-22.4-.564a3.3,3.3,0,0,1-.646-2.184v-6.88h-2.02v-1.466h2.02v-2.687ZM-11.5-9.393a5.685,5.685,0,0,0-.933-.072,2.5,2.5,0,0,0-2.533,1.589V0h-1.9V-11.095h1.846l.031,1.282A2.954,2.954,0,0,1-12.346-11.3a1.938,1.938,0,0,1,.841.144Zm8.593,8.3a4.029,4.029,0,0,1-3.25,1.3,3.449,3.449,0,0,1-2.7-1.031A4.461,4.461,0,0,1-9.8-3.876v-7.219h1.9v7.167q0,2.522,2.051,2.522a2.84,2.84,0,0,0,2.892-1.62v-8.07h1.9V0h-1.8Zm9.177-.246a2.732,2.732,0,0,0,1.774-.615A2.164,2.164,0,0,0,8.88-3.5h1.794a3.44,3.44,0,0,1-.656,1.815A4.322,4.322,0,0,1,8.4-.308,4.66,4.66,0,0,1,6.265.205a4.57,4.57,0,0,1-3.6-1.512A6.024,6.024,0,0,1,1.323-5.445v-.318a6.679,6.679,0,0,1,.595-2.881A4.53,4.53,0,0,1,3.625-10.6a4.85,4.85,0,0,1,2.63-.7,4.45,4.45,0,0,1,3.1,1.118,3.994,3.994,0,0,1,1.318,2.9H8.88a2.614,2.614,0,0,0-.815-1.769,2.536,2.536,0,0,0-1.81-.692A2.655,2.655,0,0,0,4.014-8.7a4.888,4.888,0,0,0-.795,3.01v.359a4.79,4.79,0,0,0,.79,2.953A2.668,2.668,0,0,0,6.265-1.343Zm9.116-12.438v2.687h2.071v1.466H15.381v6.889a1.54,1.54,0,0,0,.277,1A1.165,1.165,0,0,0,16.6-1.4a4.593,4.593,0,0,0,.9-.123V0a5.532,5.532,0,0,1-1.456.2A2.362,2.362,0,0,1,14.13-.564a3.3,3.3,0,0,1-.646-2.184v-6.88h-2.02v-1.466h2.02v-2.687ZM26.517-1.1a4.029,4.029,0,0,1-3.25,1.3,3.449,3.449,0,0,1-2.7-1.031,4.461,4.461,0,0,1-.938-3.051v-7.219h1.9v7.167q0,2.522,2.051,2.522a2.84,2.84,0,0,0,2.892-1.62v-8.07h1.9V0h-1.8Zm10.09-8.3a5.685,5.685,0,0,0-.933-.072,2.5,2.5,0,0,0-2.533,1.589V0h-1.9V-11.095h1.846l.031,1.282A2.954,2.954,0,0,1,35.766-11.3a1.938,1.938,0,0,1,.841.144ZM44.789,0a3.985,3.985,0,0,1-.267-1.169A4.233,4.233,0,0,1,41.364.205a3.916,3.916,0,0,1-2.692-.928,3,3,0,0,1-1.051-2.353,3.136,3.136,0,0,1,1.318-2.692,6.212,6.212,0,0,1,3.707-.959h1.846V-7.6A2.131,2.131,0,0,0,43.9-9.182a2.39,2.39,0,0,0-1.753-.59,2.766,2.766,0,0,0-1.7.513,1.511,1.511,0,0,0-.687,1.241H37.847a2.618,2.618,0,0,1,.59-1.6,4.024,4.024,0,0,1,1.6-1.225,5.381,5.381,0,0,1,2.22-.451,4.386,4.386,0,0,1,3,.959A3.458,3.458,0,0,1,46.389-7.7v5.106a6.243,6.243,0,0,0,.39,2.43V0ZM41.641-1.446a3.334,3.334,0,0,0,1.692-.461,2.791,2.791,0,0,0,1.159-1.2V-5.383H43q-3.486,0-3.486,2.041a1.727,1.727,0,0,0,.595,1.395A2.286,2.286,0,0,0,41.641-1.446Z" transform="translate(605 2048)" fill="#12263f"/>
    <rect id="Rectángulo_33788" data-name="Rectángulo 33788" width="174" height="47" rx="13" transform="translate(977 2021)" fill="#26a69a"/>
    <path id="Trazado_116639" data-name="Trazado 116639" d="M-55.494-6.593h-6.265V0h-1.969V-14.93h9.249v1.61h-7.28V-8.2h6.265Zm9.7,5.5a4.029,4.029,0,0,1-3.25,1.3,3.449,3.449,0,0,1-2.7-1.031,4.461,4.461,0,0,1-.938-3.051v-7.219h1.9v7.167q0,2.522,2.051,2.522a2.84,2.84,0,0,0,2.892-1.62v-8.07h1.9V0h-1.8Zm6.521-10,.062,1.395a4.043,4.043,0,0,1,3.322-1.6q3.517,0,3.548,3.968V0h-1.9V-7.342a2.554,2.554,0,0,0-.549-1.774,2.2,2.2,0,0,0-1.677-.574,2.738,2.738,0,0,0-1.62.492A3.342,3.342,0,0,0-39.17-7.906V0h-1.9V-11.095ZM-25.03-1.343a2.732,2.732,0,0,0,1.774-.615A2.164,2.164,0,0,0-22.415-3.5h1.794a3.44,3.44,0,0,1-.656,1.815A4.322,4.322,0,0,1-22.892-.308,4.66,4.66,0,0,1-25.03.205a4.57,4.57,0,0,1-3.6-1.512,6.024,6.024,0,0,1-1.338-4.137v-.318a6.679,6.679,0,0,1,.595-2.881A4.53,4.53,0,0,1-27.67-10.6a4.85,4.85,0,0,1,2.63-.7,4.45,4.45,0,0,1,3.1,1.118,3.994,3.994,0,0,1,1.318,2.9h-1.794a2.614,2.614,0,0,0-.815-1.769,2.536,2.536,0,0,0-1.81-.692A2.655,2.655,0,0,0-27.281-8.7a4.888,4.888,0,0,0-.795,3.01v.359a4.79,4.79,0,0,0,.79,2.953A2.668,2.668,0,0,0-25.03-1.343ZM-16.427,0h-1.9V-11.095h1.9Zm-2.051-14.038a1.132,1.132,0,0,1,.282-.779,1.059,1.059,0,0,1,.836-.318,1.075,1.075,0,0,1,.841.318,1.12,1.12,0,0,1,.287.779,1.084,1.084,0,0,1-.287.769,1.1,1.1,0,0,1-.841.308,1.078,1.078,0,0,1-.836-.308A1.1,1.1,0,0,1-18.478-14.038Zm4.583,8.388a6.553,6.553,0,0,1,.641-2.933,4.781,4.781,0,0,1,1.784-2.01,4.857,4.857,0,0,1,2.61-.708A4.679,4.679,0,0,1-5.194-9.731a6.036,6.036,0,0,1,1.4,4.173v.133a6.61,6.61,0,0,1-.62,2.907,4.71,4.71,0,0,1-1.774,2A4.913,4.913,0,0,1-8.839.205a4.667,4.667,0,0,1-3.656-1.569,6.005,6.005,0,0,1-1.4-4.153Zm1.907.226a4.746,4.746,0,0,0,.856,2.963A2.74,2.74,0,0,0-8.839-1.343a2.724,2.724,0,0,0,2.3-1.133A5.19,5.19,0,0,0-5.691-5.65a4.738,4.738,0,0,0-.866-2.958,2.755,2.755,0,0,0-2.3-1.133,2.724,2.724,0,0,0-2.266,1.118A5.152,5.152,0,0,0-11.987-5.424ZM.379-11.095.441-9.7a4.043,4.043,0,0,1,3.322-1.6q3.517,0,3.548,3.968V0h-1.9V-7.342a2.554,2.554,0,0,0-.549-1.774A2.2,2.2,0,0,0,3.189-9.69a2.738,2.738,0,0,0-1.62.492A3.342,3.342,0,0,0,.482-7.906V0h-1.9V-11.095ZM17.021,0a3.985,3.985,0,0,1-.267-1.169A4.233,4.233,0,0,1,13.6.205a3.916,3.916,0,0,1-2.692-.928A3,3,0,0,1,9.854-3.076a3.136,3.136,0,0,1,1.318-2.692,6.212,6.212,0,0,1,3.707-.959h1.846V-7.6a2.131,2.131,0,0,0-.595-1.584,2.39,2.39,0,0,0-1.753-.59,2.766,2.766,0,0,0-1.7.513,1.511,1.511,0,0,0-.687,1.241H10.08a2.618,2.618,0,0,1,.59-1.6,4.024,4.024,0,0,1,1.6-1.225,5.381,5.381,0,0,1,2.22-.451,4.386,4.386,0,0,1,3,.959A3.458,3.458,0,0,1,18.621-7.7v5.106a6.243,6.243,0,0,0,.39,2.43V0ZM13.874-1.446a3.334,3.334,0,0,0,1.692-.461,2.791,2.791,0,0,0,1.159-1.2V-5.383H15.237q-3.486,0-3.486,2.041a1.727,1.727,0,0,0,.595,1.395A2.286,2.286,0,0,0,13.874-1.446ZM23.656,0h-1.9V-15.75h1.9Zm5.1,0h-1.9V-11.095h1.9ZM26.7-14.038a1.132,1.132,0,0,1,.282-.779,1.059,1.059,0,0,1,.836-.318,1.075,1.075,0,0,1,.841.318,1.12,1.12,0,0,1,.287.779,1.084,1.084,0,0,1-.287.769,1.1,1.1,0,0,1-.841.308,1.078,1.078,0,0,1-.836-.308A1.1,1.1,0,0,1,26.7-14.038Zm4.625,8.4a6.5,6.5,0,0,1,1.21-4.107A3.826,3.826,0,0,1,35.7-11.3a3.848,3.848,0,0,1,3.086,1.333V-15.75h1.9V0H38.944l-.092-1.189A3.863,3.863,0,0,1,35.684.205a3.789,3.789,0,0,1-3.143-1.579A6.573,6.573,0,0,1,31.326-5.5Zm1.9.215A4.921,4.921,0,0,0,34-2.471,2.519,2.519,0,0,0,36.155-1.4a2.767,2.767,0,0,0,2.635-1.62v-5.1A2.789,2.789,0,0,0,36.176-9.69,2.531,2.531,0,0,0,34-8.613,5.418,5.418,0,0,0,33.223-5.424ZM50.48,0a3.985,3.985,0,0,1-.267-1.169A4.233,4.233,0,0,1,47.055.205a3.916,3.916,0,0,1-2.692-.928,3,3,0,0,1-1.051-2.353A3.136,3.136,0,0,1,44.63-5.768a6.212,6.212,0,0,1,3.707-.959h1.846V-7.6a2.131,2.131,0,0,0-.595-1.584,2.39,2.39,0,0,0-1.753-.59,2.766,2.766,0,0,0-1.7.513,1.511,1.511,0,0,0-.687,1.241H43.538a2.618,2.618,0,0,1,.59-1.6,4.024,4.024,0,0,1,1.6-1.225,5.381,5.381,0,0,1,2.22-.451,4.386,4.386,0,0,1,3,.959A3.458,3.458,0,0,1,52.08-7.7v5.106a6.243,6.243,0,0,0,.39,2.43V0ZM47.332-1.446a3.334,3.334,0,0,0,1.692-.461,2.791,2.791,0,0,0,1.159-1.2V-5.383H48.7q-3.486,0-3.486,2.041A1.727,1.727,0,0,0,45.8-1.948,2.286,2.286,0,0,0,47.332-1.446Zm7.26-4.194A6.5,6.5,0,0,1,55.8-9.746,3.826,3.826,0,0,1,58.97-11.3a3.848,3.848,0,0,1,3.086,1.333V-15.75h1.9V0H62.21l-.092-1.189A3.863,3.863,0,0,1,58.95.205a3.789,3.789,0,0,1-3.143-1.579A6.573,6.573,0,0,1,54.592-5.5Zm1.9.215a4.921,4.921,0,0,0,.779,2.953A2.519,2.519,0,0,0,59.421-1.4a2.767,2.767,0,0,0,2.635-1.62v-5.1A2.789,2.789,0,0,0,59.442-9.69a2.531,2.531,0,0,0-2.174,1.077A5.418,5.418,0,0,0,56.489-5.424Z" transform="translate(1064 2050)" fill="#12263f"/>
    <rect id="Rectángulo_33797" data-name="Rectángulo 33797" width="199" height="38" rx="13" transform="translate(285 2132)" fill="#4dd0e1"/>
    <path id="Trazado_116648" data-name="Trazado 116648" d="M-78.037-4.737a5.493,5.493,0,0,1-1.748,3.656A5.73,5.73,0,0,1-83.7.205a5.261,5.261,0,0,1-4.24-1.9,7.632,7.632,0,0,1-1.594-5.076V-8.2a8.506,8.506,0,0,1,.743-3.661,5.553,5.553,0,0,1,2.107-2.425,5.867,5.867,0,0,1,3.158-.846,5.4,5.4,0,0,1,3.814,1.328,5.559,5.559,0,0,1,1.671,3.676h-1.979a4.29,4.29,0,0,0-1.113-2.592,3.366,3.366,0,0,0-2.394-.8,3.522,3.522,0,0,0-2.958,1.4,6.407,6.407,0,0,0-1.072,3.972v1.447a6.586,6.586,0,0,0,1.015,3.869A3.28,3.28,0,0,0-83.7-1.4a3.789,3.789,0,0,0,2.517-.743,4.125,4.125,0,0,0,1.164-2.589ZM-71.044.205a4.848,4.848,0,0,1-3.671-1.482A5.5,5.5,0,0,1-76.13-5.24v-.349A6.658,6.658,0,0,1-75.5-8.536a4.919,4.919,0,0,1,1.764-2.03A4.434,4.434,0,0,1-71.28-11.3a4.155,4.155,0,0,1,3.363,1.425,6.171,6.171,0,0,1,1.2,4.081V-5h-7.516a3.944,3.944,0,0,0,.959,2.651,3.014,3.014,0,0,0,2.333,1.01,3.3,3.3,0,0,0,1.7-.41,4.277,4.277,0,0,0,1.22-1.087l1.159.9A4.659,4.659,0,0,1-71.044.205Zm-.236-9.946a2.53,2.53,0,0,0-1.928.836,4.062,4.062,0,0,0-.964,2.343h5.558v-.144a3.613,3.613,0,0,0-.779-2.24A2.382,2.382,0,0,0-71.28-9.741Zm12.12.349a5.685,5.685,0,0,0-.933-.072,2.5,2.5,0,0,0-2.533,1.589V0h-1.9V-11.095h1.846l.031,1.282A2.954,2.954,0,0,1-60-11.3a1.938,1.938,0,0,1,.841.144Zm7.106,0a5.685,5.685,0,0,0-.933-.072A2.5,2.5,0,0,0-55.52-7.875V0h-1.9V-11.095h1.846l.031,1.282A2.954,2.954,0,0,1-52.895-11.3a1.938,1.938,0,0,1,.841.144ZM-43.871,0a3.985,3.985,0,0,1-.267-1.169A4.233,4.233,0,0,1-47.3.205a3.916,3.916,0,0,1-2.692-.928,3,3,0,0,1-1.051-2.353,3.136,3.136,0,0,1,1.318-2.692,6.212,6.212,0,0,1,3.707-.959h1.846V-7.6a2.131,2.131,0,0,0-.595-1.584,2.39,2.39,0,0,0-1.753-.59,2.766,2.766,0,0,0-1.7.513,1.511,1.511,0,0,0-.687,1.241h-1.907a2.618,2.618,0,0,1,.59-1.6,4.024,4.024,0,0,1,1.6-1.225A5.381,5.381,0,0,1-46.4-11.3a4.386,4.386,0,0,1,3,.959A3.458,3.458,0,0,1-42.272-7.7v5.106a6.243,6.243,0,0,0,.39,2.43V0Zm-3.148-1.446a3.334,3.334,0,0,0,1.692-.461,2.791,2.791,0,0,0,1.159-1.2V-5.383h-1.487q-3.486,0-3.486,2.041a1.727,1.727,0,0,0,.595,1.395A2.286,2.286,0,0,0-47.019-1.446Zm7.26-4.194a6.5,6.5,0,0,1,1.21-4.107A3.826,3.826,0,0,1-35.381-11.3a3.848,3.848,0,0,1,3.086,1.333V-15.75h1.9V0h-1.743l-.092-1.189A3.863,3.863,0,0,1-35.4.205a3.789,3.789,0,0,1-3.143-1.579A6.573,6.573,0,0,1-39.76-5.5Zm1.9.215a4.921,4.921,0,0,0,.779,2.953A2.519,2.519,0,0,0-34.93-1.4a2.767,2.767,0,0,0,2.635-1.62v-5.1A2.789,2.789,0,0,0-34.909-9.69a2.531,2.531,0,0,0-2.174,1.077A5.418,5.418,0,0,0-37.863-5.424Zm9.905-.226a6.553,6.553,0,0,1,.641-2.933,4.781,4.781,0,0,1,1.784-2.01,4.857,4.857,0,0,1,2.61-.708,4.679,4.679,0,0,1,3.666,1.569,6.036,6.036,0,0,1,1.4,4.173v.133a6.61,6.61,0,0,1-.62,2.907,4.71,4.71,0,0,1-1.774,2A4.913,4.913,0,0,1-22.9.205a4.667,4.667,0,0,1-3.656-1.569,6.005,6.005,0,0,1-1.4-4.153Zm1.907.226a4.746,4.746,0,0,0,.856,2.963A2.74,2.74,0,0,0-22.9-1.343a2.724,2.724,0,0,0,2.3-1.133,5.19,5.19,0,0,0,.851-3.174,4.738,4.738,0,0,0-.866-2.958,2.755,2.755,0,0,0-2.3-1.133,2.724,2.724,0,0,0-2.266,1.118A5.152,5.152,0,0,0-26.05-5.424ZM-9.018-2.943A1.4,1.4,0,0,0-9.6-4.137a5.576,5.576,0,0,0-2.02-.733A9.551,9.551,0,0,1-13.9-5.609a3.253,3.253,0,0,1-1.251-1.025,2.453,2.453,0,0,1-.405-1.415,2.878,2.878,0,0,1,1.154-2.307,4.505,4.505,0,0,1,2.948-.943,4.636,4.636,0,0,1,3.061.974A3.094,3.094,0,0,1-7.224-7.834H-9.131a1.713,1.713,0,0,0-.661-1.343,2.478,2.478,0,0,0-1.666-.564,2.593,2.593,0,0,0-1.62.451,1.42,1.42,0,0,0-.584,1.179,1.151,1.151,0,0,0,.543,1.036,6.687,6.687,0,0,0,1.964.667,10.231,10.231,0,0,1,2.3.759A3.358,3.358,0,0,1-7.547-4.589a2.609,2.609,0,0,1,.426,1.512A2.839,2.839,0,0,1-8.311-.692a4.989,4.989,0,0,1-3.086.9,5.587,5.587,0,0,1-2.358-.472,3.836,3.836,0,0,1-1.6-1.318,3.176,3.176,0,0,1-.579-1.83h1.9A1.964,1.964,0,0,0-13.279-1.9a2.964,2.964,0,0,0,1.882.559,3.059,3.059,0,0,0,1.728-.436A1.339,1.339,0,0,0-9.018-2.943Zm13.2.164,2.584-8.316h2.03L4.332,1.712Q3.3,4.481,1.041,4.481L.682,4.45l-.708-.133V2.779l.513.041a2.524,2.524,0,0,0,1.5-.39A2.82,2.82,0,0,0,2.876,1L3.3-.123-.661-11.095H1.41ZM22.533,0a3.985,3.985,0,0,1-.267-1.169A4.233,4.233,0,0,1,19.108.205a3.916,3.916,0,0,1-2.692-.928,3,3,0,0,1-1.051-2.353,3.136,3.136,0,0,1,1.318-2.692,6.212,6.212,0,0,1,3.707-.959h1.846V-7.6a2.131,2.131,0,0,0-.595-1.584,2.39,2.39,0,0,0-1.753-.59,2.766,2.766,0,0,0-1.7.513A1.511,1.511,0,0,0,17.5-8.019H15.591a2.618,2.618,0,0,1,.59-1.6,4.024,4.024,0,0,1,1.6-1.225A5.381,5.381,0,0,1,20-11.3a4.386,4.386,0,0,1,3,.959A3.458,3.458,0,0,1,24.133-7.7v5.106a6.243,6.243,0,0,0,.39,2.43V0ZM19.385-1.446a3.334,3.334,0,0,0,1.692-.461,2.791,2.791,0,0,0,1.159-1.2V-5.383H20.749q-3.486,0-3.486,2.041a1.727,1.727,0,0,0,.595,1.395A2.286,2.286,0,0,0,19.385-1.446ZM36.5-5.424A6.6,6.6,0,0,1,35.33-1.338,3.735,3.735,0,0,1,32.192.205a3.868,3.868,0,0,1-3.25-1.487L28.849,0H27.106V-15.75H29v5.875A3.846,3.846,0,0,1,32.172-11.3a3.758,3.758,0,0,1,3.174,1.528A6.8,6.8,0,0,1,36.5-5.588ZM34.6-5.64a5.126,5.126,0,0,0-.749-2.994A2.478,2.478,0,0,0,31.7-9.69,2.785,2.785,0,0,0,29-7.947v4.8A2.863,2.863,0,0,0,31.72-1.4a2.464,2.464,0,0,0,2.123-1.056A5.451,5.451,0,0,0,34.6-5.64ZM40.949,0h-1.9V-11.095h1.9ZM38.9-14.038a1.132,1.132,0,0,1,.282-.779,1.059,1.059,0,0,1,.836-.318,1.075,1.075,0,0,1,.841.318,1.12,1.12,0,0,1,.287.779,1.084,1.084,0,0,1-.287.769,1.1,1.1,0,0,1-.841.308,1.078,1.078,0,0,1-.836-.308A1.1,1.1,0,0,1,38.9-14.038ZM48.588.205a4.848,4.848,0,0,1-3.671-1.482A5.5,5.5,0,0,1,43.5-5.24v-.349a6.658,6.658,0,0,1,.631-2.948,4.919,4.919,0,0,1,1.764-2.03,4.434,4.434,0,0,1,2.456-.733,4.155,4.155,0,0,1,3.363,1.425,6.171,6.171,0,0,1,1.2,4.081V-5H45.4a3.944,3.944,0,0,0,.959,2.651,3.014,3.014,0,0,0,2.333,1.01,3.3,3.3,0,0,0,1.7-.41,4.277,4.277,0,0,0,1.22-1.087l1.159.9A4.659,4.659,0,0,1,48.588.205Zm-.236-9.946a2.53,2.53,0,0,0-1.928.836,4.062,4.062,0,0,0-.964,2.343h5.558v-.144a3.613,3.613,0,0,0-.779-2.24A2.382,2.382,0,0,0,48.352-9.741Zm12.12.349a5.685,5.685,0,0,0-.933-.072,2.5,2.5,0,0,0-2.533,1.589V0h-1.9V-11.095h1.846l.031,1.282A2.954,2.954,0,0,1,59.632-11.3a1.938,1.938,0,0,1,.841.144Zm4.83-4.389v2.687h2.071v1.466H65.3v6.889a1.54,1.54,0,0,0,.277,1,1.165,1.165,0,0,0,.943.334,4.593,4.593,0,0,0,.9-.123V0a5.532,5.532,0,0,1-1.456.2,2.362,2.362,0,0,1-1.917-.769,3.3,3.3,0,0,1-.646-2.184v-6.88h-2.02v-1.466h2.02v-2.687ZM68.881-5.65a6.553,6.553,0,0,1,.641-2.933,4.781,4.781,0,0,1,1.784-2.01,4.857,4.857,0,0,1,2.61-.708,4.679,4.679,0,0,1,3.666,1.569,6.036,6.036,0,0,1,1.4,4.173v.133a6.61,6.61,0,0,1-.62,2.907,4.71,4.71,0,0,1-1.774,2,4.913,4.913,0,0,1-2.651.718A4.667,4.667,0,0,1,70.28-1.364a6.005,6.005,0,0,1-1.4-4.153Zm1.907.226a4.746,4.746,0,0,0,.856,2.963,2.74,2.74,0,0,0,2.292,1.118,2.724,2.724,0,0,0,2.3-1.133,5.19,5.19,0,0,0,.851-3.174,4.738,4.738,0,0,0-.866-2.958,2.755,2.755,0,0,0-2.3-1.133,2.724,2.724,0,0,0-2.266,1.118A5.152,5.152,0,0,0,70.788-5.424ZM87.82-2.943a1.4,1.4,0,0,0-.579-1.195,5.576,5.576,0,0,0-2.02-.733,9.551,9.551,0,0,1-2.287-.738,3.253,3.253,0,0,1-1.251-1.025,2.453,2.453,0,0,1-.405-1.415,2.878,2.878,0,0,1,1.154-2.307,4.505,4.505,0,0,1,2.948-.943,4.636,4.636,0,0,1,3.061.974,3.094,3.094,0,0,1,1.174,2.492H87.707a1.713,1.713,0,0,0-.661-1.343,2.478,2.478,0,0,0-1.666-.564,2.593,2.593,0,0,0-1.62.451,1.42,1.42,0,0,0-.584,1.179,1.151,1.151,0,0,0,.543,1.036,6.687,6.687,0,0,0,1.964.667,10.231,10.231,0,0,1,2.3.759,3.358,3.358,0,0,1,1.307,1.061,2.609,2.609,0,0,1,.426,1.512A2.839,2.839,0,0,1,88.527-.692a4.989,4.989,0,0,1-3.086.9,5.587,5.587,0,0,1-2.358-.472,3.836,3.836,0,0,1-1.6-1.318,3.176,3.176,0,0,1-.579-1.83h1.9A1.964,1.964,0,0,0,83.559-1.9a2.964,2.964,0,0,0,1.882.559,3.059,3.059,0,0,0,1.728-.436A1.339,1.339,0,0,0,87.82-2.943Z" transform="translate(385 2158)" fill="#12263f"/>
    <rect id="Rectángulo_33798" data-name="Rectángulo 33798" width="201" height="38" rx="13" transform="translate(504 2132)" fill="#4dd0e1"/>
    <path id="Trazado_116647" data-name="Trazado 116647" d="M-83.954-6.04h-3.507V0H-89.44V-14.93H-84.5a5.85,5.85,0,0,1,3.881,1.148,4.132,4.132,0,0,1,1.359,3.343,4.019,4.019,0,0,1-.754,2.43,4.5,4.5,0,0,1-2.1,1.548L-78.6-.123V0h-2.112Zm-3.507-1.61h3.025A3.412,3.412,0,0,0-82.1-8.41a2.571,2.571,0,0,0,.866-2.034,2.707,2.707,0,0,0-.825-2.126,3.5,3.5,0,0,0-2.384-.75h-3.015ZM-72.193.205a4.848,4.848,0,0,1-3.671-1.482A5.5,5.5,0,0,1-77.279-5.24v-.349a6.658,6.658,0,0,1,.631-2.948,4.919,4.919,0,0,1,1.764-2.03,4.434,4.434,0,0,1,2.456-.733,4.155,4.155,0,0,1,3.363,1.425,6.171,6.171,0,0,1,1.2,4.081V-5h-7.516a3.944,3.944,0,0,0,.959,2.651,3.014,3.014,0,0,0,2.333,1.01,3.3,3.3,0,0,0,1.7-.41,4.277,4.277,0,0,0,1.22-1.087l1.159.9A4.659,4.659,0,0,1-72.193.205Zm-.236-9.946a2.53,2.53,0,0,0-1.928.836,4.062,4.062,0,0,0-.964,2.343h5.558v-.144a3.613,3.613,0,0,0-.779-2.24A2.382,2.382,0,0,0-72.428-9.741ZM-58.822,0a3.985,3.985,0,0,1-.267-1.169A4.233,4.233,0,0,1-62.246.205a3.916,3.916,0,0,1-2.692-.928,3,3,0,0,1-1.051-2.353,3.136,3.136,0,0,1,1.318-2.692,6.212,6.212,0,0,1,3.707-.959h1.846V-7.6a2.131,2.131,0,0,0-.595-1.584,2.39,2.39,0,0,0-1.753-.59,2.766,2.766,0,0,0-1.7.513,1.511,1.511,0,0,0-.687,1.241h-1.907a2.618,2.618,0,0,1,.59-1.6,4.024,4.024,0,0,1,1.6-1.225,5.381,5.381,0,0,1,2.22-.451,4.386,4.386,0,0,1,3,.959A3.458,3.458,0,0,1-57.222-7.7v5.106a6.243,6.243,0,0,0,.39,2.43V0Zm-3.148-1.446a3.334,3.334,0,0,0,1.692-.461,2.791,2.791,0,0,0,1.159-1.2V-5.383h-1.487q-3.486,0-3.486,2.041A1.727,1.727,0,0,0-63.5-1.948,2.286,2.286,0,0,0-61.969-1.446ZM-52.187,0h-1.9V-15.75h1.9Zm7.639.205a4.848,4.848,0,0,1-3.671-1.482A5.5,5.5,0,0,1-49.634-5.24v-.349A6.658,6.658,0,0,1-49-8.536a4.919,4.919,0,0,1,1.764-2.03,4.434,4.434,0,0,1,2.456-.733,4.155,4.155,0,0,1,3.363,1.425,6.171,6.171,0,0,1,1.2,4.081V-5h-7.516a3.944,3.944,0,0,0,.959,2.651,3.014,3.014,0,0,0,2.333,1.01,3.3,3.3,0,0,0,1.7-.41,4.277,4.277,0,0,0,1.22-1.087l1.159.9A4.659,4.659,0,0,1-44.548.205Zm-.236-9.946a2.53,2.53,0,0,0-1.928.836,4.062,4.062,0,0,0-.964,2.343h5.558v-.144a3.613,3.613,0,0,0-.779-2.24A2.382,2.382,0,0,0-44.784-9.741Zm13.217,6.8a1.4,1.4,0,0,0-.579-1.195,5.576,5.576,0,0,0-2.02-.733,9.551,9.551,0,0,1-2.287-.738A3.253,3.253,0,0,1-37.7-6.634a2.453,2.453,0,0,1-.405-1.415,2.878,2.878,0,0,1,1.154-2.307,4.505,4.505,0,0,1,2.948-.943,4.636,4.636,0,0,1,3.061.974,3.094,3.094,0,0,1,1.174,2.492h-1.907a1.713,1.713,0,0,0-.661-1.343,2.478,2.478,0,0,0-1.666-.564,2.593,2.593,0,0,0-1.62.451,1.42,1.42,0,0,0-.584,1.179,1.151,1.151,0,0,0,.543,1.036,6.687,6.687,0,0,0,1.964.667,10.231,10.231,0,0,1,2.3.759A3.358,3.358,0,0,1-30.1-4.589a2.609,2.609,0,0,1,.426,1.512A2.839,2.839,0,0,1-30.859-.692a4.989,4.989,0,0,1-3.086.9A5.587,5.587,0,0,1-36.3-.267a3.836,3.836,0,0,1-1.6-1.318,3.176,3.176,0,0,1-.579-1.83h1.9A1.964,1.964,0,0,0-35.827-1.9a2.964,2.964,0,0,0,1.882.559,3.059,3.059,0,0,0,1.728-.436A1.339,1.339,0,0,0-31.567-2.943Zm13.2.164,2.584-8.316h2.03l-4.46,12.807q-1.036,2.769-3.292,2.769l-.359-.031-.708-.133V2.779l.513.041a2.524,2.524,0,0,0,1.5-.39A2.82,2.82,0,0,0-19.672,1l.42-1.128L-23.21-11.095h2.071ZM-.015,0A3.985,3.985,0,0,1-.282-1.169,4.233,4.233,0,0,1-3.44.205,3.916,3.916,0,0,1-6.132-.723,3,3,0,0,1-7.183-3.076,3.136,3.136,0,0,1-5.865-5.768a6.212,6.212,0,0,1,3.707-.959H-.313V-7.6A2.131,2.131,0,0,0-.907-9.182a2.39,2.39,0,0,0-1.753-.59,2.766,2.766,0,0,0-1.7.513A1.511,1.511,0,0,0-5.05-8.019H-6.957a2.618,2.618,0,0,1,.59-1.6,4.024,4.024,0,0,1,1.6-1.225,5.381,5.381,0,0,1,2.22-.451,4.386,4.386,0,0,1,3,.959A3.458,3.458,0,0,1,1.584-7.7v5.106a6.243,6.243,0,0,0,.39,2.43V0ZM-3.163-1.446a3.334,3.334,0,0,0,1.692-.461,2.791,2.791,0,0,0,1.159-1.2V-5.383H-1.8q-3.486,0-3.486,2.041a1.727,1.727,0,0,0,.595,1.395A2.286,2.286,0,0,0-3.163-1.446ZM13.95-5.424a6.6,6.6,0,0,1-1.169,4.086A3.735,3.735,0,0,1,9.644.205a3.868,3.868,0,0,1-3.25-1.487L6.3,0H4.558V-15.75h1.9v5.875A3.846,3.846,0,0,1,9.623-11.3,3.758,3.758,0,0,1,12.8-9.772,6.8,6.8,0,0,1,13.95-5.588Zm-1.9-.215A5.126,5.126,0,0,0,11.3-8.634,2.478,2.478,0,0,0,9.152-9.69a2.785,2.785,0,0,0-2.7,1.743v4.8A2.863,2.863,0,0,0,9.172-1.4a2.464,2.464,0,0,0,2.123-1.056A5.451,5.451,0,0,0,12.053-5.64ZM22.8-2.943a1.4,1.4,0,0,0-.579-1.195,5.576,5.576,0,0,0-2.02-.733,9.551,9.551,0,0,1-2.287-.738,3.253,3.253,0,0,1-1.251-1.025,2.453,2.453,0,0,1-.405-1.415,2.878,2.878,0,0,1,1.154-2.307,4.505,4.505,0,0,1,2.948-.943,4.636,4.636,0,0,1,3.061.974,3.094,3.094,0,0,1,1.174,2.492H22.687a1.713,1.713,0,0,0-.661-1.343,2.478,2.478,0,0,0-1.666-.564,2.593,2.593,0,0,0-1.62.451,1.42,1.42,0,0,0-.584,1.179A1.151,1.151,0,0,0,18.7-7.075a6.687,6.687,0,0,0,1.964.667,10.231,10.231,0,0,1,2.3.759,3.358,3.358,0,0,1,1.307,1.061A2.609,2.609,0,0,1,24.7-3.076,2.839,2.839,0,0,1,23.507-.692a4.989,4.989,0,0,1-3.086.9,5.587,5.587,0,0,1-2.358-.472,3.836,3.836,0,0,1-1.6-1.318,3.176,3.176,0,0,1-.579-1.83h1.9A1.964,1.964,0,0,0,18.539-1.9a2.964,2.964,0,0,0,1.882.559,3.059,3.059,0,0,0,1.728-.436A1.339,1.339,0,0,0,22.8-2.943Zm6.942-10.838v2.687h2.071v1.466H29.741v6.889a1.54,1.54,0,0,0,.277,1,1.165,1.165,0,0,0,.943.334,4.593,4.593,0,0,0,.9-.123V0a5.532,5.532,0,0,1-1.456.2A2.362,2.362,0,0,1,28.49-.564a3.3,3.3,0,0,1-.646-2.184v-6.88h-2.02v-1.466h2.02v-2.687ZM39.39-9.393a5.685,5.685,0,0,0-.933-.072,2.5,2.5,0,0,0-2.533,1.589V0h-1.9V-11.095h1.846L35.9-9.813A2.954,2.954,0,0,1,38.55-11.3a1.938,1.938,0,0,1,.841.144ZM47.573,0a3.985,3.985,0,0,1-.267-1.169A4.233,4.233,0,0,1,44.148.205a3.916,3.916,0,0,1-2.692-.928,3,3,0,0,1-1.051-2.353,3.136,3.136,0,0,1,1.318-2.692,6.212,6.212,0,0,1,3.707-.959h1.846V-7.6a2.131,2.131,0,0,0-.595-1.584,2.39,2.39,0,0,0-1.753-.59,2.766,2.766,0,0,0-1.7.513,1.511,1.511,0,0,0-.687,1.241H40.631a2.618,2.618,0,0,1,.59-1.6,4.024,4.024,0,0,1,1.6-1.225,5.381,5.381,0,0,1,2.22-.451,4.386,4.386,0,0,1,3,.959A3.458,3.458,0,0,1,49.173-7.7v5.106a6.243,6.243,0,0,0,.39,2.43V0ZM44.425-1.446a3.334,3.334,0,0,0,1.692-.461,2.791,2.791,0,0,0,1.159-1.2V-5.383H45.789q-3.486,0-3.486,2.041A1.727,1.727,0,0,0,42.9-1.948,2.286,2.286,0,0,0,44.425-1.446Zm12.171.1a2.732,2.732,0,0,0,1.774-.615A2.164,2.164,0,0,0,59.211-3.5h1.794a3.44,3.44,0,0,1-.656,1.815A4.322,4.322,0,0,1,58.734-.308,4.66,4.66,0,0,1,56.6.205a4.57,4.57,0,0,1-3.6-1.512,6.024,6.024,0,0,1-1.338-4.137v-.318a6.679,6.679,0,0,1,.595-2.881A4.53,4.53,0,0,1,53.956-10.6a4.85,4.85,0,0,1,2.63-.7,4.45,4.45,0,0,1,3.1,1.118,3.994,3.994,0,0,1,1.318,2.9H59.211A2.614,2.614,0,0,0,58.4-9.049a2.536,2.536,0,0,0-1.81-.692A2.655,2.655,0,0,0,54.346-8.7a4.888,4.888,0,0,0-.795,3.01v.359a4.79,4.79,0,0,0,.79,2.953A2.668,2.668,0,0,0,56.6-1.343Zm9.116-12.438v2.687h2.071v1.466H65.712v6.889a1.54,1.54,0,0,0,.277,1,1.165,1.165,0,0,0,.943.334,4.593,4.593,0,0,0,.9-.123V0a5.532,5.532,0,0,1-1.456.2,2.362,2.362,0,0,1-1.917-.769,3.3,3.3,0,0,1-.646-2.184v-6.88H61.8v-1.466h2.02v-2.687ZM69.291-5.65a6.553,6.553,0,0,1,.641-2.933,4.781,4.781,0,0,1,1.784-2.01,4.857,4.857,0,0,1,2.61-.708,4.679,4.679,0,0,1,3.666,1.569,6.036,6.036,0,0,1,1.4,4.173v.133a6.61,6.61,0,0,1-.62,2.907A4.71,4.71,0,0,1,77-.513a4.913,4.913,0,0,1-2.651.718A4.667,4.667,0,0,1,70.69-1.364a6.005,6.005,0,0,1-1.4-4.153Zm1.907.226a4.746,4.746,0,0,0,.856,2.963,2.74,2.74,0,0,0,2.292,1.118,2.724,2.724,0,0,0,2.3-1.133,5.19,5.19,0,0,0,.851-3.174,4.738,4.738,0,0,0-.866-2.958,2.755,2.755,0,0,0-2.3-1.133,2.724,2.724,0,0,0-2.266,1.118A5.152,5.152,0,0,0,71.2-5.424ZM88.23-2.943a1.4,1.4,0,0,0-.579-1.195,5.576,5.576,0,0,0-2.02-.733,9.551,9.551,0,0,1-2.287-.738,3.253,3.253,0,0,1-1.251-1.025,2.453,2.453,0,0,1-.405-1.415,2.878,2.878,0,0,1,1.154-2.307,4.505,4.505,0,0,1,2.948-.943,4.636,4.636,0,0,1,3.061.974,3.094,3.094,0,0,1,1.174,2.492H88.117a1.713,1.713,0,0,0-.661-1.343,2.478,2.478,0,0,0-1.666-.564,2.593,2.593,0,0,0-1.62.451,1.42,1.42,0,0,0-.584,1.179,1.151,1.151,0,0,0,.543,1.036,6.687,6.687,0,0,0,1.964.667,10.231,10.231,0,0,1,2.3.759A3.358,3.358,0,0,1,89.7-4.589a2.609,2.609,0,0,1,.426,1.512A2.839,2.839,0,0,1,88.937-.692a4.989,4.989,0,0,1-3.086.9,5.587,5.587,0,0,1-2.358-.472,3.836,3.836,0,0,1-1.6-1.318,3.176,3.176,0,0,1-.579-1.83h1.9A1.964,1.964,0,0,0,83.969-1.9a2.964,2.964,0,0,0,1.882.559,3.059,3.059,0,0,0,1.728-.436A1.339,1.339,0,0,0,88.23-2.943Z" transform="translate(605 2161)" fill="#12263f"/>
    <rect id="Rectángulo_33799" data-name="Rectángulo 33799" width="207" height="42" rx="13" transform="translate(744 2132)" fill="#4dd0e1"/>
    <path id="Trazado_116646" data-name="Trazado 116646" d="M-81.606-3.907h-6.255L-89.265,0H-91.3l5.7-14.93h1.723L-78.16,0h-2.02Zm-5.66-1.61h5.076L-84.733-12.5Zm16.181-3.876a5.685,5.685,0,0,0-.933-.072,2.5,2.5,0,0,0-2.533,1.589V0h-1.9V-11.095H-74.6l.031,1.282A2.954,2.954,0,0,1-71.926-11.3a1.938,1.938,0,0,1,.841.144Zm4.83-4.389v2.687h2.071v1.466h-2.071v6.889a1.54,1.54,0,0,0,.277,1,1.165,1.165,0,0,0,.943.334,4.593,4.593,0,0,0,.9-.123V0a5.532,5.532,0,0,1-1.456.2,2.362,2.362,0,0,1-1.917-.769,3.3,3.3,0,0,1-.646-2.184v-6.88h-2.02v-1.466h2.02v-2.687ZM-59.908,0h-1.9V-11.095h1.9Zm-2.051-14.038a1.132,1.132,0,0,1,.282-.779,1.059,1.059,0,0,1,.836-.318,1.075,1.075,0,0,1,.841.318,1.12,1.12,0,0,1,.287.779,1.084,1.084,0,0,1-.287.769,1.1,1.1,0,0,1-.841.308,1.078,1.078,0,0,1-.836-.308A1.1,1.1,0,0,1-61.959-14.038ZM-56.238,0V-9.628h-1.753v-1.466h1.753v-.943a3.854,3.854,0,0,1,1.061-2.892,4.115,4.115,0,0,1,3-1.036,9.031,9.031,0,0,1,2.9.625l-.318,1.6a6.572,6.572,0,0,0-2.44-.513,2.388,2.388,0,0,0-1.759.549,2.262,2.262,0,0,0-.538,1.646v.964h2.266v1.466H-54.33V0Zm7.906,0h-1.907V-11.095h1.907ZM-40.8-1.343a2.732,2.732,0,0,0,1.774-.615A2.164,2.164,0,0,0-38.18-3.5h1.794a3.44,3.44,0,0,1-.656,1.815A4.322,4.322,0,0,1-38.657-.308,4.66,4.66,0,0,1-40.8.205a4.57,4.57,0,0,1-3.6-1.512,6.024,6.024,0,0,1-1.338-4.137v-.318a6.679,6.679,0,0,1,.595-2.881A4.53,4.53,0,0,1-43.436-10.6a4.85,4.85,0,0,1,2.63-.7,4.45,4.45,0,0,1,3.1,1.118,3.994,3.994,0,0,1,1.318,2.9H-38.18A2.614,2.614,0,0,0-39-9.049a2.536,2.536,0,0,0-1.81-.692A2.655,2.655,0,0,0-43.046-8.7a4.888,4.888,0,0,0-.795,3.01v.359a4.79,4.79,0,0,0,.79,2.953A2.668,2.668,0,0,0-40.8-1.343ZM-32.192,0h-1.9V-11.095h1.9Zm-2.051-14.038a1.132,1.132,0,0,1,.282-.779,1.059,1.059,0,0,1,.836-.318,1.075,1.075,0,0,1,.841.318,1.12,1.12,0,0,1,.287.779,1.084,1.084,0,0,1-.287.769,1.1,1.1,0,0,1-.841.308,1.078,1.078,0,0,1-.836-.308A1.1,1.1,0,0,1-34.243-14.038ZM-22.307,0a3.985,3.985,0,0,1-.267-1.169A4.233,4.233,0,0,1-25.732.205a3.916,3.916,0,0,1-2.692-.928,3,3,0,0,1-1.051-2.353,3.136,3.136,0,0,1,1.318-2.692,6.212,6.212,0,0,1,3.707-.959H-22.6V-7.6A2.131,2.131,0,0,0-23.2-9.182a2.39,2.39,0,0,0-1.753-.59,2.766,2.766,0,0,0-1.7.513,1.511,1.511,0,0,0-.687,1.241h-1.907a2.618,2.618,0,0,1,.59-1.6,4.024,4.024,0,0,1,1.6-1.225,5.381,5.381,0,0,1,2.22-.451,4.386,4.386,0,0,1,3,.959A3.458,3.458,0,0,1-20.708-7.7v5.106a6.243,6.243,0,0,0,.39,2.43V0Zm-3.148-1.446a3.334,3.334,0,0,0,1.692-.461,2.791,2.791,0,0,0,1.159-1.2V-5.383h-1.487q-3.486,0-3.486,2.041a1.727,1.727,0,0,0,.595,1.395A2.286,2.286,0,0,0-25.455-1.446ZM-15.673,0h-1.9V-15.75h1.9Zm7.639.205A4.848,4.848,0,0,1-11.7-1.277,5.5,5.5,0,0,1-13.12-5.24v-.349a6.658,6.658,0,0,1,.631-2.948,4.919,4.919,0,0,1,1.764-2.03A4.434,4.434,0,0,1-8.27-11.3,4.155,4.155,0,0,1-4.906-9.875a6.171,6.171,0,0,1,1.2,4.081V-5h-7.516a3.944,3.944,0,0,0,.959,2.651,3.014,3.014,0,0,0,2.333,1.01,3.3,3.3,0,0,0,1.7-.41A4.277,4.277,0,0,0-5.009-2.84l1.159.9A4.659,4.659,0,0,1-8.034.205ZM-8.27-9.741a2.53,2.53,0,0,0-1.928.836,4.062,4.062,0,0,0-.964,2.343H-5.6v-.144a3.613,3.613,0,0,0-.779-2.24A2.382,2.382,0,0,0-8.27-9.741Zm13.217,6.8a1.4,1.4,0,0,0-.579-1.195,5.576,5.576,0,0,0-2.02-.733A9.551,9.551,0,0,1,.062-5.609,3.253,3.253,0,0,1-1.189-6.634a2.453,2.453,0,0,1-.405-1.415A2.878,2.878,0,0,1-.441-10.356,4.505,4.505,0,0,1,2.507-11.3a4.636,4.636,0,0,1,3.061.974A3.094,3.094,0,0,1,6.742-7.834H4.835a1.713,1.713,0,0,0-.661-1.343,2.478,2.478,0,0,0-1.666-.564,2.593,2.593,0,0,0-1.62.451A1.42,1.42,0,0,0,.3-8.111,1.151,1.151,0,0,0,.846-7.075a6.687,6.687,0,0,0,1.964.667,10.231,10.231,0,0,1,2.3.759A3.358,3.358,0,0,1,6.419-4.589a2.609,2.609,0,0,1,.426,1.512A2.839,2.839,0,0,1,5.655-.692a4.989,4.989,0,0,1-3.086.9A5.587,5.587,0,0,1,.21-.267a3.836,3.836,0,0,1-1.6-1.318,3.176,3.176,0,0,1-.579-1.83h1.9A1.964,1.964,0,0,0,.687-1.9a2.964,2.964,0,0,0,1.882.559A3.059,3.059,0,0,0,4.3-1.779,1.339,1.339,0,0,0,4.948-2.943Zm13.2.164,2.584-8.316h2.03L18.3,1.712q-1.036,2.769-3.292,2.769l-.359-.031-.708-.133V2.779l.513.041a2.524,2.524,0,0,0,1.5-.39A2.82,2.82,0,0,0,16.842,1l.42-1.128L13.3-11.095h2.071Zm13.289-8.316.051,1.23A4.1,4.1,0,0,1,34.776-11.3a3.172,3.172,0,0,1,3.168,1.784,4.2,4.2,0,0,1,1.441-1.292,4.255,4.255,0,0,1,2.1-.492q3.65,0,3.712,3.866V0H43.3V-7.321A2.548,2.548,0,0,0,42.754-9.1a2.393,2.393,0,0,0-1.825-.59,2.515,2.515,0,0,0-1.753.631,2.558,2.558,0,0,0-.81,1.7V0H36.458V-7.27a2.117,2.117,0,0,0-2.369-2.42A2.538,2.538,0,0,0,31.536-8.1V0h-1.9V-11.095ZM50.116,0h-1.9V-11.095h1.9ZM48.065-14.038a1.132,1.132,0,0,1,.282-.779,1.059,1.059,0,0,1,.836-.318,1.075,1.075,0,0,1,.841.318,1.12,1.12,0,0,1,.287.779,1.084,1.084,0,0,1-.287.769,1.1,1.1,0,0,1-.841.308,1.078,1.078,0,0,1-.836-.308A1.1,1.1,0,0,1,48.065-14.038Zm8.808,6.993,2.461-4.05h2.215l-3.63,5.486L61.662,0H59.468L56.9-4.153,54.341,0h-2.2l3.743-5.609-3.63-5.486h2.194Zm9.259-6.737v2.687H68.2v1.466H66.133v6.889a1.54,1.54,0,0,0,.277,1,1.165,1.165,0,0,0,.943.334,4.593,4.593,0,0,0,.9-.123V0a5.532,5.532,0,0,1-1.456.2,2.362,2.362,0,0,1-1.917-.769,3.3,3.3,0,0,1-.646-2.184v-6.88h-2.02v-1.466h2.02v-2.687ZM69.711-5.65a6.553,6.553,0,0,1,.641-2.933,4.781,4.781,0,0,1,1.784-2.01,4.857,4.857,0,0,1,2.61-.708,4.679,4.679,0,0,1,3.666,1.569,6.036,6.036,0,0,1,1.4,4.173v.133a6.61,6.61,0,0,1-.62,2.907,4.71,4.71,0,0,1-1.774,2,4.913,4.913,0,0,1-2.651.718,4.667,4.667,0,0,1-3.656-1.569,6.005,6.005,0,0,1-1.4-4.153Zm1.907.226a4.746,4.746,0,0,0,.856,2.963,2.74,2.74,0,0,0,2.292,1.118,2.724,2.724,0,0,0,2.3-1.133,5.19,5.19,0,0,0,.851-3.174,4.738,4.738,0,0,0-.866-2.958,2.755,2.755,0,0,0-2.3-1.133A2.724,2.724,0,0,0,72.48-8.624,5.152,5.152,0,0,0,71.618-5.424ZM88.65-2.943a1.4,1.4,0,0,0-.579-1.195,5.576,5.576,0,0,0-2.02-.733,9.551,9.551,0,0,1-2.287-.738,3.253,3.253,0,0,1-1.251-1.025,2.453,2.453,0,0,1-.405-1.415,2.878,2.878,0,0,1,1.154-2.307A4.505,4.505,0,0,1,86.21-11.3a4.636,4.636,0,0,1,3.061.974,3.094,3.094,0,0,1,1.174,2.492H88.537a1.713,1.713,0,0,0-.661-1.343,2.478,2.478,0,0,0-1.666-.564,2.593,2.593,0,0,0-1.62.451,1.42,1.42,0,0,0-.584,1.179,1.151,1.151,0,0,0,.543,1.036,6.687,6.687,0,0,0,1.964.667,10.231,10.231,0,0,1,2.3.759,3.358,3.358,0,0,1,1.307,1.061,2.609,2.609,0,0,1,.426,1.512A2.839,2.839,0,0,1,89.358-.692a4.989,4.989,0,0,1-3.086.9,5.587,5.587,0,0,1-2.358-.472,3.836,3.836,0,0,1-1.6-1.318,3.176,3.176,0,0,1-.579-1.83h1.9A1.964,1.964,0,0,0,84.39-1.9a2.964,2.964,0,0,0,1.882.559A3.059,3.059,0,0,0,88-1.779,1.339,1.339,0,0,0,88.65-2.943Z" transform="translate(848 2161)" fill="#12263f"/>
    <rect id="Rectángulo_33800" data-name="Rectángulo 33800" width="134" height="47" rx="13" transform="translate(1000 2134)" fill="#4dd0e1"/>
    <path id="Trazado_116645" data-name="Trazado 116645" d="M-49.06-6.655a9.257,9.257,0,0,1-3.686-1.789,3.419,3.419,0,0,1-1.154-2.62,3.611,3.611,0,0,1,1.41-2.917,5.6,5.6,0,0,1,3.666-1.154,6.116,6.116,0,0,1,2.743.595A4.51,4.51,0,0,1-44.215-12.9a4.2,4.2,0,0,1,.661,2.287h-1.979a2.73,2.73,0,0,0-.861-2.135,3.5,3.5,0,0,0-2.43-.777,3.586,3.586,0,0,0-2.271.642A2.142,2.142,0,0,0-51.91-11.1a1.927,1.927,0,0,0,.774,1.546A7.593,7.593,0,0,0-48.5-8.4a12.227,12.227,0,0,1,2.912,1.155A4.419,4.419,0,0,1-44.03-5.773a3.756,3.756,0,0,1,.508,1.979A3.488,3.488,0,0,1-44.938-.887,6.033,6.033,0,0,1-48.721.205a7.018,7.018,0,0,1-2.871-.59A4.832,4.832,0,0,1-53.648-2a3.941,3.941,0,0,1-.723-2.328h1.979a2.571,2.571,0,0,0,1,2.138,4.21,4.21,0,0,0,2.671.784,3.87,3.87,0,0,0,2.389-.636A2.065,2.065,0,0,0-45.5-3.773a2.027,2.027,0,0,0-.769-1.7A8.866,8.866,0,0,0-49.06-6.655ZM-34.448-1.1A4.029,4.029,0,0,1-37.7.205,3.449,3.449,0,0,1-40.4-.825a4.461,4.461,0,0,1-.938-3.051v-7.219h1.9v7.167q0,2.522,2.051,2.522A2.84,2.84,0,0,0-34.5-3.025v-8.07h1.9V0h-1.8Zm14.12-4.327A6.6,6.6,0,0,1-21.5-1.338,3.735,3.735,0,0,1-24.635.205a3.868,3.868,0,0,1-3.25-1.487L-27.978,0h-1.743V-15.75h1.9v5.875A3.846,3.846,0,0,1-24.656-11.3a3.758,3.758,0,0,1,3.174,1.528,6.8,6.8,0,0,1,1.154,4.184Zm-1.9-.215a5.126,5.126,0,0,0-.749-2.994A2.478,2.478,0,0,0-25.127-9.69a2.785,2.785,0,0,0-2.7,1.743v4.8A2.863,2.863,0,0,0-25.107-1.4a2.464,2.464,0,0,0,2.123-1.056A5.451,5.451,0,0,0-22.225-5.64Zm10.746,2.7a1.4,1.4,0,0,0-.579-1.195,5.576,5.576,0,0,0-2.02-.733,9.551,9.551,0,0,1-2.287-.738,3.253,3.253,0,0,1-1.251-1.025,2.453,2.453,0,0,1-.405-1.415,2.878,2.878,0,0,1,1.154-2.307A4.505,4.505,0,0,1-13.92-11.3a4.636,4.636,0,0,1,3.061.974A3.094,3.094,0,0,1-9.685-7.834h-1.907a1.713,1.713,0,0,0-.661-1.343,2.478,2.478,0,0,0-1.666-.564,2.593,2.593,0,0,0-1.62.451,1.42,1.42,0,0,0-.584,1.179,1.151,1.151,0,0,0,.543,1.036,6.687,6.687,0,0,0,1.964.667,10.231,10.231,0,0,1,2.3.759,3.358,3.358,0,0,1,1.307,1.061,2.609,2.609,0,0,1,.426,1.512A2.839,2.839,0,0,1-10.772-.692a4.989,4.989,0,0,1-3.086.9,5.587,5.587,0,0,1-2.358-.472,3.836,3.836,0,0,1-1.6-1.318,3.176,3.176,0,0,1-.579-1.83h1.9A1.964,1.964,0,0,0-15.74-1.9a2.964,2.964,0,0,0,1.882.559,3.059,3.059,0,0,0,1.728-.436A1.339,1.339,0,0,0-11.479-2.943ZM-5.05,0h-1.9V-11.095h1.9ZM-7.1-14.038a1.132,1.132,0,0,1,.282-.779,1.059,1.059,0,0,1,.836-.318,1.075,1.075,0,0,1,.841.318,1.12,1.12,0,0,1,.287.779,1.084,1.084,0,0,1-.287.769,1.1,1.1,0,0,1-.841.308,1.078,1.078,0,0,1-.836-.308A1.1,1.1,0,0,1-7.1-14.038ZM4.445-2.943a1.4,1.4,0,0,0-.579-1.195,5.576,5.576,0,0,0-2.02-.733A9.551,9.551,0,0,1-.441-5.609,3.253,3.253,0,0,1-1.692-6.634,2.453,2.453,0,0,1-2.1-8.049,2.878,2.878,0,0,1-.943-10.356,4.505,4.505,0,0,1,2-11.3a4.636,4.636,0,0,1,3.061.974A3.094,3.094,0,0,1,6.24-7.834H4.332a1.713,1.713,0,0,0-.661-1.343A2.478,2.478,0,0,0,2-9.741a2.593,2.593,0,0,0-1.62.451A1.42,1.42,0,0,0-.2-8.111,1.151,1.151,0,0,0,.344-7.075a6.687,6.687,0,0,0,1.964.667,10.231,10.231,0,0,1,2.3.759A3.358,3.358,0,0,1,5.917-4.589a2.609,2.609,0,0,1,.426,1.512A2.839,2.839,0,0,1,5.153-.692a4.989,4.989,0,0,1-3.086.9A5.587,5.587,0,0,1-.292-.267,3.836,3.836,0,0,1-1.9-1.584a3.176,3.176,0,0,1-.579-1.83h1.9A1.964,1.964,0,0,0,.185-1.9a2.964,2.964,0,0,0,1.882.559,3.059,3.059,0,0,0,1.728-.436A1.339,1.339,0,0,0,4.445-2.943Zm6.942-10.838v2.687h2.071v1.466H11.387v6.889a1.54,1.54,0,0,0,.277,1,1.165,1.165,0,0,0,.943.334,4.593,4.593,0,0,0,.9-.123V0a5.532,5.532,0,0,1-1.456.2,2.362,2.362,0,0,1-1.917-.769A3.3,3.3,0,0,1,9.49-2.748v-6.88H7.47v-1.466H9.49v-2.687ZM20.277.205a4.848,4.848,0,0,1-3.671-1.482A5.5,5.5,0,0,1,15.191-5.24v-.349a6.658,6.658,0,0,1,.631-2.948,4.919,4.919,0,0,1,1.764-2.03,4.434,4.434,0,0,1,2.456-.733A4.155,4.155,0,0,1,23.4-9.875a6.171,6.171,0,0,1,1.2,4.081V-5H17.088a3.944,3.944,0,0,0,.959,2.651,3.014,3.014,0,0,0,2.333,1.01,3.3,3.3,0,0,0,1.7-.41A4.277,4.277,0,0,0,23.3-2.84l1.159.9A4.659,4.659,0,0,1,20.277.205Zm-.236-9.946a2.53,2.53,0,0,0-1.928.836,4.062,4.062,0,0,0-.964,2.343h5.558v-.144a3.613,3.613,0,0,0-.779-2.24A2.382,2.382,0,0,0,20.041-9.741Zm8.542-1.354.051,1.23A4.1,4.1,0,0,1,31.926-11.3a3.172,3.172,0,0,1,3.168,1.784,4.2,4.2,0,0,1,1.441-1.292,4.255,4.255,0,0,1,2.1-.492q3.65,0,3.712,3.866V0h-1.9V-7.321A2.548,2.548,0,0,0,39.9-9.1a2.393,2.393,0,0,0-1.825-.59,2.515,2.515,0,0,0-1.753.631,2.558,2.558,0,0,0-.81,1.7V0H33.607V-7.27a2.117,2.117,0,0,0-2.369-2.42A2.538,2.538,0,0,0,28.685-8.1V0h-1.9V-11.095ZM52.054,0a3.985,3.985,0,0,1-.267-1.169A4.233,4.233,0,0,1,48.629.205a3.916,3.916,0,0,1-2.692-.928,3,3,0,0,1-1.051-2.353A3.136,3.136,0,0,1,46.2-5.768a6.212,6.212,0,0,1,3.707-.959h1.846V-7.6a2.131,2.131,0,0,0-.595-1.584,2.39,2.39,0,0,0-1.753-.59,2.766,2.766,0,0,0-1.7.513,1.511,1.511,0,0,0-.687,1.241H45.112a2.618,2.618,0,0,1,.59-1.6,4.024,4.024,0,0,1,1.6-1.225,5.381,5.381,0,0,1,2.22-.451,4.386,4.386,0,0,1,3,.959A3.458,3.458,0,0,1,53.654-7.7v5.106a6.243,6.243,0,0,0,.39,2.43V0ZM48.906-1.446A3.334,3.334,0,0,0,50.6-1.907a2.791,2.791,0,0,0,1.159-1.2V-5.383H50.27q-3.486,0-3.486,2.041a1.727,1.727,0,0,0,.595,1.395A2.286,2.286,0,0,0,48.906-1.446Z" transform="translate(1067 2165)" fill="#12263f"/>
    <path id="Trazado_115775" data-name="Trazado 115775" d="M-1711-9845h180.292v38" transform="translate(2594.708 11797)" fill="none" stroke="#039be5" stroke-width="4"/>
    <path id="Trazado_115776" data-name="Trazado 115776" d="M-1556.723-9845H-1711v38" transform="translate(2316 11797)" fill="none" stroke="#039be5" stroke-width="4"/>
    <path id="Trazado_115777" data-name="Trazado 115777" d="M-1944.547-9754.5h-145v60.9" transform="translate(2485.547 11797)" fill="none" stroke="#039be5" stroke-width="4"/>
    <path id="Trazado_115778" data-name="Trazado 115778" d="M-1867-9754.5h183.617v55.19" transform="translate(2531.383 11797)" fill="none" stroke="#039be5" stroke-width="4"/>
    <rect id="Rectángulo_33796" data-name="Rectángulo 33796" width="128" height="47" rx="13" transform="translate(760 1929)" fill="#1565c0"/>
    <path id="Trazado_116636" data-name="Trazado 116636" d="M-37.381-6.655a9.257,9.257,0,0,1-3.686-1.789,3.419,3.419,0,0,1-1.154-2.62,3.611,3.611,0,0,1,1.41-2.917,5.6,5.6,0,0,1,3.666-1.154,6.116,6.116,0,0,1,2.743.595A4.51,4.51,0,0,1-32.536-12.9a4.2,4.2,0,0,1,.661,2.287h-1.979a2.73,2.73,0,0,0-.861-2.135,3.5,3.5,0,0,0-2.43-.777,3.586,3.586,0,0,0-2.271.642,2.142,2.142,0,0,0-.815,1.782,1.927,1.927,0,0,0,.774,1.546A7.593,7.593,0,0,0-36.822-8.4,12.227,12.227,0,0,1-33.91-7.244a4.419,4.419,0,0,1,1.559,1.471,3.756,3.756,0,0,1,.508,1.979A3.488,3.488,0,0,1-33.259-.887,6.033,6.033,0,0,1-37.042.205a7.018,7.018,0,0,1-2.871-.59A4.832,4.832,0,0,1-41.969-2a3.941,3.941,0,0,1-.723-2.328h1.979a2.571,2.571,0,0,0,1,2.138,4.21,4.21,0,0,0,2.671.784,3.87,3.87,0,0,0,2.389-.636,2.065,2.065,0,0,0,.831-1.733,2.027,2.027,0,0,0-.769-1.7A8.866,8.866,0,0,0-37.381-6.655ZM-27.557,0h-1.9V-11.095h1.9Zm-2.051-14.038a1.132,1.132,0,0,1,.282-.779,1.059,1.059,0,0,1,.836-.318,1.075,1.075,0,0,1,.841.318,1.12,1.12,0,0,1,.287.779,1.084,1.084,0,0,1-.287.769,1.1,1.1,0,0,1-.841.308,1.078,1.078,0,0,1-.836-.308A1.1,1.1,0,0,1-29.608-14.038ZM-18.062-2.943a1.4,1.4,0,0,0-.579-1.195,5.576,5.576,0,0,0-2.02-.733,9.551,9.551,0,0,1-2.287-.738A3.253,3.253,0,0,1-24.2-6.634,2.453,2.453,0,0,1-24.6-8.049a2.878,2.878,0,0,1,1.154-2.307A4.505,4.505,0,0,1-20.5-11.3a4.636,4.636,0,0,1,3.061.974,3.094,3.094,0,0,1,1.174,2.492h-1.907a1.713,1.713,0,0,0-.661-1.343A2.478,2.478,0,0,0-20.5-9.741a2.593,2.593,0,0,0-1.62.451,1.42,1.42,0,0,0-.584,1.179,1.151,1.151,0,0,0,.543,1.036,6.687,6.687,0,0,0,1.964.667,10.231,10.231,0,0,1,2.3.759,3.358,3.358,0,0,1,1.307,1.061,2.609,2.609,0,0,1,.426,1.512A2.839,2.839,0,0,1-17.355-.692a4.989,4.989,0,0,1-3.086.9A5.587,5.587,0,0,1-22.8-.267a3.836,3.836,0,0,1-1.6-1.318,3.176,3.176,0,0,1-.579-1.83h1.9A1.964,1.964,0,0,0-22.323-1.9a2.964,2.964,0,0,0,1.882.559,3.059,3.059,0,0,0,1.728-.436A1.339,1.339,0,0,0-18.062-2.943Zm6.942-10.838v2.687h2.071v1.466H-11.12v6.889a1.54,1.54,0,0,0,.277,1A1.165,1.165,0,0,0-9.9-1.4,4.593,4.593,0,0,0-9-1.528V0a5.532,5.532,0,0,1-1.456.2,2.362,2.362,0,0,1-1.917-.769,3.3,3.3,0,0,1-.646-2.184v-6.88h-2.02v-1.466h2.02v-2.687ZM-2.23.205A4.848,4.848,0,0,1-5.9-1.277,5.5,5.5,0,0,1-7.316-5.24v-.349a6.658,6.658,0,0,1,.631-2.948,4.919,4.919,0,0,1,1.764-2.03A4.434,4.434,0,0,1-2.466-11.3,4.155,4.155,0,0,1,.9-9.875,6.171,6.171,0,0,1,2.1-5.793V-5H-5.419A3.944,3.944,0,0,0-4.46-2.353a3.014,3.014,0,0,0,2.333,1.01,3.3,3.3,0,0,0,1.7-.41A4.277,4.277,0,0,0,.795-2.84l1.159.9A4.659,4.659,0,0,1-2.23.205Zm-.236-9.946a2.53,2.53,0,0,0-1.928.836,4.062,4.062,0,0,0-.964,2.343H.2v-.144a3.613,3.613,0,0,0-.779-2.24A2.382,2.382,0,0,0-2.466-9.741Zm8.542-1.354.051,1.23A4.1,4.1,0,0,1,9.418-11.3a3.172,3.172,0,0,1,3.168,1.784,4.2,4.2,0,0,1,1.441-1.292,4.255,4.255,0,0,1,2.1-.492q3.65,0,3.712,3.866V0h-1.9V-7.321A2.548,2.548,0,0,0,17.4-9.1a2.393,2.393,0,0,0-1.825-.59,2.515,2.515,0,0,0-1.753.631,2.558,2.558,0,0,0-.81,1.7V0H11.1V-7.27A2.117,2.117,0,0,0,8.731-9.69,2.538,2.538,0,0,0,6.178-8.1V0h-1.9V-11.095ZM29.547,0a3.985,3.985,0,0,1-.267-1.169A4.233,4.233,0,0,1,26.122.205,3.916,3.916,0,0,1,23.43-.723a3,3,0,0,1-1.051-2.353A3.136,3.136,0,0,1,23.7-5.768,6.212,6.212,0,0,1,27.4-6.727h1.846V-7.6a2.131,2.131,0,0,0-.595-1.584,2.39,2.39,0,0,0-1.753-.59,2.766,2.766,0,0,0-1.7.513,1.511,1.511,0,0,0-.687,1.241H22.6a2.618,2.618,0,0,1,.59-1.6,4.024,4.024,0,0,1,1.6-1.225,5.381,5.381,0,0,1,2.22-.451,4.386,4.386,0,0,1,3,.959A3.458,3.458,0,0,1,31.146-7.7v5.106a6.243,6.243,0,0,0,.39,2.43V0ZM26.4-1.446a3.334,3.334,0,0,0,1.692-.461,2.791,2.791,0,0,0,1.159-1.2V-5.383H27.762q-3.486,0-3.486,2.041a1.727,1.727,0,0,0,.595,1.395A2.286,2.286,0,0,0,26.4-1.446Zm14.181-1.5A1.4,1.4,0,0,0,40-4.137a5.576,5.576,0,0,0-2.02-.733,9.551,9.551,0,0,1-2.287-.738,3.253,3.253,0,0,1-1.251-1.025,2.453,2.453,0,0,1-.405-1.415,2.878,2.878,0,0,1,1.154-2.307,4.505,4.505,0,0,1,2.948-.943,4.636,4.636,0,0,1,3.061.974,3.094,3.094,0,0,1,1.174,2.492H40.467a1.713,1.713,0,0,0-.661-1.343,2.478,2.478,0,0,0-1.666-.564,2.593,2.593,0,0,0-1.62.451,1.42,1.42,0,0,0-.584,1.179,1.151,1.151,0,0,0,.543,1.036,6.687,6.687,0,0,0,1.964.667,10.231,10.231,0,0,1,2.3.759,3.358,3.358,0,0,1,1.307,1.061,2.609,2.609,0,0,1,.426,1.512A2.839,2.839,0,0,1,41.287-.692a4.989,4.989,0,0,1-3.086.9,5.587,5.587,0,0,1-2.358-.472,3.836,3.836,0,0,1-1.6-1.318,3.176,3.176,0,0,1-.579-1.83h1.9A1.964,1.964,0,0,0,36.319-1.9a2.964,2.964,0,0,0,1.882.559,3.059,3.059,0,0,0,1.728-.436A1.339,1.339,0,0,0,40.58-2.943Z" transform="translate(825 1959)" fill="#fff"/>
  </g>
</svg>
