<svg xmlns="http://www.w3.org/2000/svg" xmlns:xlink="http://www.w3.org/1999/xlink" width="1240" height="622" viewBox="0 0 1240 622">
  <defs>
    <clipPath id="clip-path">
      <rect id="Rectángulo_33876" data-name="Rectángulo 33876" width="1240" height="622" rx="26" transform="translate(180 2386)" fill="#1565c0"/>
    </clipPath>
    <linearGradient id="linear-gradient" x1="0.167" y1="0.9" x2="0.931" y2="-0.031" gradientUnits="objectBoundingBox">
      <stop offset="0" stop-color="#4dd0e1"/>
      <stop offset="1" stop-color="#0b3360"/>
    </linearGradient>
    <linearGradient id="linear-gradient-2" x1="0.756" y1="0.104" x2="0.09" y2="0.957" xlink:href="#linear-gradient"/>
    <linearGradient id="linear-gradient-3" x1="0.601" y1="0.408" x2="0.878" y2="-0.078" xlink:href="#linear-gradient"/>
  </defs>
  <g id="Grupo_79272" data-name="Grupo 79272" transform="translate(-180 -2386)">
    <g id="Grupo_78478" data-name="Grupo 78478" style="isolation: isolate">
      <path id="Trazado_115773" data-name="Trazado 115773" d="M26,0H1214a26,26,0,0,1,26,26V596a26,26,0,0,1-26,26H26A26,26,0,0,1,0,596V26A26,26,0,0,1,26,0Z" transform="translate(180 2386)" fill="#ecfafc"/>
      <g id="Enmascarar_grupo_7" data-name="Enmascarar grupo 7" opacity="0.338" clip-path="url(#clip-path)">
        <g id="Grupo_78293" data-name="Grupo 78293" transform="translate(0 1671)">
          <path id="Trazado_113147" data-name="Trazado 113147" d="M0,0H565V351H0Z" transform="translate(810 802)" fill="none"/>
        </g>
        <path id="Trazado_113352" data-name="Trazado 113352" d="M53.352,0H236.833L-489.3,621.184H-672.783Z" transform="translate(353.281 2303.593)" fill="#1565c0" opacity="0.064" style="mix-blend-mode: multiply;isolation: isolate"/>
        <path id="Trazado_113353" data-name="Trazado 113353" d="M-206.709,0H-88.94L-555.015,398.711H-672.783Z" transform="translate(452.489 2426.612)" fill="#1565c0" opacity="0.064" style="mix-blend-mode: multiply;isolation: isolate"/>
        <path id="Trazado_113354" data-name="Trazado 113354" d="M-324.194,0h88.082L-584.7,298.207h-88.082Z" transform="translate(1816.684 2775.673)" fill="#1565c0" opacity="0.064" style="mix-blend-mode: multiply;isolation: isolate"/>
        <path id="Trazado_113355" data-name="Trazado 113355" d="M-324.194,0h88.082L-584.7,298.207h-88.082Z" transform="translate(1836.111 2775.673)" fill="#1565c0" opacity="0.064" style="mix-blend-mode: multiply;isolation: isolate"/>
        <path id="Trazado_113356" data-name="Trazado 113356" d="M79.256,0H269.283l-752.04,643.344H-672.783Z" transform="translate(1262.897 2386)" opacity="0.064" fill="url(#linear-gradient)" style="mix-blend-mode: multiply;isolation: isolate"/>
        <path id="Trazado_113357" data-name="Trazado 113357" d="M65.233,0l371,12L-301.785,643.344l-371-12Z" transform="translate(1044.531 2386)" opacity="0.064" fill="url(#linear-gradient-2)" style="mix-blend-mode: multiply;isolation: isolate"/>
        <path id="Trazado_113358" data-name="Trazado 113358" d="M-224.085,0,1.475,7.294l-448.7,383.846-225.559-7.294Z" transform="translate(887.882 2803.859)" opacity="0.064" fill="url(#linear-gradient-3)" style="mix-blend-mode: multiply;isolation: isolate"/>
      </g>
      <g id="Grupo_79268" data-name="Grupo 79268" transform="translate(180 2386)">
        <path id="Rectángulo_5779" data-name="Rectángulo 5779" d="M0,0H50a0,0,0,0,1,0,0V50a0,0,0,0,1,0,0H25A25,25,0,0,1,0,25V0A0,0,0,0,1,0,0Z" transform="translate(50) rotate(90)" fill="#ffca28"/>
        <g id="Rectángulo_5780" data-name="Rectángulo 5780" transform="translate(78 32) rotate(90)" fill="none" stroke="#ffca28" stroke-width="1">
          <rect width="46" height="46" stroke="none"/>
          <rect x="0.5" y="0.5" width="45" height="45" fill="none"/>
        </g>
      </g>
      <path id="Trazado_115774" data-name="Trazado 115774" d="M106,0V82a25,25,0,0,1-25,25H0Z" transform="translate(1314 2901)" fill="#ffca28"/>
    </g>
  </g>
</svg>
